%TF.GenerationSoftware,KiCad,Pcbnew,(7.0.0-0)*%
%TF.CreationDate,2023-05-03T13:23:33-05:00*%
%TF.ProjectId,boardv3,626f6172-6476-4332-9e6b-696361645f70,v1.0.0*%
%TF.SameCoordinates,Original*%
%TF.FileFunction,Paste,Bot*%
%TF.FilePolarity,Positive*%
%FSLAX46Y46*%
G04 Gerber Fmt 4.6, Leading zero omitted, Abs format (unit mm)*
G04 Created by KiCad (PCBNEW (7.0.0-0)) date 2023-05-03 13:23:33*
%MOMM*%
%LPD*%
G01*
G04 APERTURE LIST*
G04 Aperture macros list*
%AMRotRect*
0 Rectangle, with rotation*
0 The origin of the aperture is its center*
0 $1 length*
0 $2 width*
0 $3 Rotation angle, in degrees counterclockwise*
0 Add horizontal line*
21,1,$1,$2,0,0,$3*%
G04 Aperture macros list end*
%ADD10R,0.900000X0.900000*%
%ADD11R,1.250000X0.900000*%
%ADD12R,0.900000X1.200000*%
%ADD13RotRect,0.900000X1.200000X340.000000*%
%ADD14R,2.600000X2.600000*%
%ADD15RotRect,2.600000X2.600000X340.000000*%
%ADD16R,1.500000X1.500000*%
%ADD17RotRect,0.900000X1.200000X325.000000*%
%ADD18R,1.100000X1.800000*%
%ADD19R,1.090000X1.880000*%
%ADD20R,1.000000X1.795000*%
%ADD21RotRect,2.600000X2.600000X325.000000*%
G04 APERTURE END LIST*
D10*
%TO.C,T1*%
X132881199Y-11453299D03*
X132881199Y-18853299D03*
X130681199Y-18853299D03*
X130681199Y-11453299D03*
D11*
X129706199Y-12903299D03*
X129706199Y-15903299D03*
X129706199Y-17403299D03*
%TD*%
D12*
%TO.C,D15*%
X55631199Y21846699D03*
X58931199Y21846699D03*
%TD*%
%TO.C,D26*%
X92631199Y-40153299D03*
X95931199Y-40153299D03*
%TD*%
%TO.C,D5*%
X17631199Y-22153299D03*
X20931199Y-22153299D03*
%TD*%
D13*
%TO.C,D27*%
X111266006Y-48984566D03*
X114366992Y-50113232D03*
%TD*%
D12*
%TO.C,D17*%
X74631199Y-18153299D03*
X77931199Y-18153299D03*
%TD*%
D14*
%TO.C,S21*%
X92006199Y-9203299D03*
X103556199Y-11403299D03*
%TD*%
D12*
%TO.C,D4*%
X-1368799Y28846699D03*
X1931199Y28846699D03*
%TD*%
D15*
%TO.C,S27*%
X113484126Y-38139212D03*
X123585131Y-44156868D03*
%TD*%
D12*
%TO.C,D10*%
X36631199Y-153299D03*
X39931199Y-153299D03*
%TD*%
D14*
%TO.C,S6*%
X16006199Y5796699D03*
X27556199Y3596699D03*
%TD*%
%TO.C,S18*%
X73006199Y9796699D03*
X84556199Y7596699D03*
%TD*%
D16*
%TO.C,PAD2*%
X127281199Y15846699D03*
%TD*%
D14*
%TO.C,S16*%
X54006199Y49796699D03*
X65556199Y47596699D03*
%TD*%
D12*
%TO.C,D2*%
X-1368799Y-5153299D03*
X1931199Y-5153299D03*
%TD*%
D14*
%TO.C,S23*%
X92006199Y24796699D03*
X103556199Y22596699D03*
%TD*%
%TO.C,S7*%
X16006199Y22796699D03*
X27556199Y20596699D03*
%TD*%
%TO.C,S4*%
X-2993799Y39796699D03*
X8556199Y37596699D03*
%TD*%
D12*
%TO.C,D8*%
X17631199Y28846699D03*
X20931199Y28846699D03*
%TD*%
D14*
%TO.C,S14*%
X54006199Y15796699D03*
X65556199Y13596699D03*
%TD*%
D12*
%TO.C,D7*%
X17631199Y11846699D03*
X20931199Y11846699D03*
%TD*%
D14*
%TO.C,S19*%
X73006199Y26796699D03*
X84556199Y24596699D03*
%TD*%
%TO.C,S10*%
X35006199Y10796699D03*
X46556199Y8596699D03*
%TD*%
D17*
%TO.C,D29*%
X129412798Y-58055998D03*
X132116000Y-59948800D03*
%TD*%
D14*
%TO.C,S2*%
X-2993799Y5796699D03*
X8556199Y3596699D03*
%TD*%
D12*
%TO.C,D3*%
X-1368799Y11846699D03*
X1931199Y11846699D03*
%TD*%
D14*
%TO.C,S11*%
X35006199Y27796699D03*
X46556199Y25596699D03*
%TD*%
D12*
%TO.C,D22*%
X93631199Y-3153299D03*
X96931199Y-3153299D03*
%TD*%
D14*
%TO.C,S22*%
X92006199Y7796699D03*
X103556199Y5596699D03*
%TD*%
D12*
%TO.C,D12*%
X36631199Y33846699D03*
X39931199Y33846699D03*
%TD*%
%TO.C,D6*%
X17631199Y-5153299D03*
X20931199Y-5153299D03*
%TD*%
D14*
%TO.C,S20*%
X73006199Y43796699D03*
X84556199Y41596699D03*
%TD*%
%TO.C,S26*%
X91006199Y-29203299D03*
X102556199Y-31403299D03*
%TD*%
D16*
%TO.C,PAD1*%
X127281199Y12846699D03*
%TD*%
D14*
%TO.C,S9*%
X35006199Y-6203299D03*
X46556199Y-8403299D03*
%TD*%
D12*
%TO.C,D23*%
X93631199Y13846699D03*
X96931199Y13846699D03*
%TD*%
D14*
%TO.C,S5*%
X16006199Y-11203299D03*
X27556199Y-13403299D03*
%TD*%
D13*
%TO.C,D28*%
X117080406Y-33009866D03*
X120181392Y-34138532D03*
%TD*%
D14*
%TO.C,S3*%
X-2993799Y22796699D03*
X8556199Y20596699D03*
%TD*%
%TO.C,S25*%
X72006199Y-29203299D03*
X83556199Y-31403299D03*
%TD*%
%TO.C,S15*%
X54006199Y32796699D03*
X65556199Y30596699D03*
%TD*%
%TO.C,S1*%
X-2993799Y-11203299D03*
X8556199Y-13403299D03*
%TD*%
D12*
%TO.C,D9*%
X36631199Y-17153299D03*
X39931199Y-17153299D03*
%TD*%
D14*
%TO.C,S12*%
X35006199Y44796699D03*
X46556199Y42596699D03*
%TD*%
%TO.C,S8*%
X16006199Y39796699D03*
X27556199Y37596699D03*
%TD*%
D12*
%TO.C,D25*%
X73631199Y-40153299D03*
X76931199Y-40153299D03*
%TD*%
%TO.C,D20*%
X74631199Y32846699D03*
X77931199Y32846699D03*
%TD*%
%TO.C,D21*%
X93631199Y-20153299D03*
X96931199Y-20153299D03*
%TD*%
%TO.C,D1*%
X-1368799Y-22153299D03*
X1931199Y-22153299D03*
%TD*%
D18*
%TO.C,B2*%
X132659999Y4369999D03*
X132659999Y-1829999D03*
X128959999Y4369999D03*
X128959999Y-1829999D03*
D19*
X130869999Y-1909999D03*
D20*
X130829999Y4407499D03*
%TD*%
D12*
%TO.C,D18*%
X74631199Y-1153299D03*
X77931199Y-1153299D03*
%TD*%
%TO.C,D14*%
X55631199Y4846699D03*
X58931199Y4846699D03*
%TD*%
%TO.C,D11*%
X36631199Y16846699D03*
X39931199Y16846699D03*
%TD*%
D14*
%TO.C,S13*%
X54006199Y-1203299D03*
X65556199Y-3403299D03*
%TD*%
D12*
%TO.C,D13*%
X55631199Y-12153299D03*
X58931199Y-12153299D03*
%TD*%
D14*
%TO.C,S17*%
X73006199Y-7203299D03*
X84556199Y-9403299D03*
%TD*%
%TO.C,S24*%
X92006199Y41796699D03*
X103556199Y39596699D03*
%TD*%
D12*
%TO.C,D16*%
X55631199Y38846699D03*
X58931199Y38846699D03*
%TD*%
D15*
%TO.C,S28*%
X119298526Y-22164412D03*
X129399531Y-28182068D03*
%TD*%
D21*
%TO.C,S29*%
X134362356Y-48154182D03*
X142561694Y-56581124D03*
%TD*%
D12*
%TO.C,D19*%
X74631199Y15846699D03*
X77931199Y15846699D03*
%TD*%
%TO.C,D24*%
X93631199Y30846699D03*
X96931199Y30846699D03*
%TD*%
M02*
