M48
; DRILL file {KiCad (7.0.0-0)} date Wednesday, May 03, 2023 at 01:23:31 PM
; FORMAT={-:-/ absolute / inch / decimal}
; #@! TF.CreationDate,2023-05-03T13:23:31-05:00
; #@! TF.GenerationSoftware,Kicad,Pcbnew,(7.0.0-0)
; #@! TF.FileFunction,NonPlated,1,2,NPTH
FMAT,2
INCH
; #@! TA.AperFunction,NonPlated,NPTH,ComponentDrill
T1C0.0354
; #@! TA.AperFunction,NonPlated,NPTH,ComponentDrill
T2C0.0670
; #@! TA.AperFunction,NonPlated,NPTH,ComponentDrill
T3C0.1181
; #@! TA.AperFunction,NonPlated,NPTH,ComponentDrill
T4C0.1350
%
G90
G05
T1
X5.1882Y-0.5375
X5.1882Y-0.5375
X5.1882Y-0.6556
X5.1882Y-0.6556
T2
X-0.2055Y1.3325
X-0.2055Y0.6633
X-0.2055Y-0.006
X-0.2055Y-0.6753
X0.2276Y1.3325
X0.2276Y0.6633
X0.2276Y-0.006
X0.2276Y-0.6753
X0.5426Y1.3325
X0.5426Y0.6633
X0.5426Y-0.006
X0.5426Y-0.6753
X0.9756Y1.3325
X0.9756Y0.6633
X0.9756Y-0.006
X0.9756Y-0.6753
X1.2906Y1.5294
X1.2906Y0.8601
X1.2906Y0.1908
X1.2906Y-0.4785
X1.7237Y1.5294
X1.7237Y0.8601
X1.7237Y0.1908
X1.7237Y-0.4785
X2.0386Y1.7262
X2.0386Y1.057
X2.0386Y0.3877
X2.0386Y-0.2816
X2.4717Y1.7262
X2.4717Y1.057
X2.4717Y0.3877
X2.4717Y-0.2816
X2.7473Y-1.384
X2.7867Y1.49
X2.7867Y0.8207
X2.7867Y0.1514
X2.7867Y-0.5178
X3.1804Y-1.384
X3.2197Y1.49
X3.2197Y0.8207
X3.2197Y0.1514
X3.2197Y-0.5178
X3.4953Y-1.384
X3.5347Y1.4113
X3.5347Y0.742
X3.5347Y0.0727
X3.5347Y-0.5966
X3.9284Y-1.384
X3.9678Y1.4113
X3.9678Y0.742
X3.9678Y0.0727
X3.9678Y-0.5966
X4.3054Y-1.6917
X4.5344Y-1.0628
X4.7124Y-1.8398
X4.9413Y-1.2109
X5.0837Y-2.0375
X5.4385Y-2.2859
T3
X-0.1858Y1.4802
X-0.1858Y0.8109
X-0.1858Y0.1416
X-0.1858Y-0.5277
X0.0111Y1.5668
X0.0111Y1.5668
X0.0111Y0.8975
X0.0111Y0.8975
X0.0111Y0.2282
X0.0111Y0.2282
X0.0111Y-0.4411
X0.0111Y-0.4411
X0.2079Y1.4802
X0.2079Y0.8109
X0.2079Y0.1416
X0.2079Y-0.5277
X0.5623Y1.4802
X0.5623Y0.8109
X0.5623Y0.1416
X0.5623Y-0.5277
X0.7591Y1.5668
X0.7591Y1.5668
X0.7591Y0.8975
X0.7591Y0.8975
X0.7591Y0.2282
X0.7591Y0.2282
X0.7591Y-0.4411
X0.7591Y-0.4411
X0.956Y1.4802
X0.956Y0.8109
X0.956Y0.1416
X0.956Y-0.5277
X1.3103Y1.677
X1.3103Y1.0077
X1.3103Y0.3385
X1.3103Y-0.3308
X1.5071Y1.7636
X1.5071Y1.7636
X1.5071Y1.0944
X1.5071Y1.0944
X1.5071Y0.4251
X1.5071Y0.4251
X1.5071Y-0.2442
X1.5071Y-0.2442
X1.704Y1.677
X1.704Y1.0077
X1.704Y0.3385
X1.704Y-0.3308
X2.0583Y1.8739
X2.0583Y1.2046
X2.0583Y0.5353
X2.0583Y-0.134
X2.2552Y1.9605
X2.2552Y1.9605
X2.2552Y1.2912
X2.2552Y1.2912
X2.2552Y0.6219
X2.2552Y0.6219
X2.2552Y-0.0474
X2.2552Y-0.0474
X2.452Y1.8739
X2.452Y1.2046
X2.452Y0.5353
X2.452Y-0.134
X2.767Y-1.2364
X2.8063Y1.6377
X2.8063Y0.9684
X2.8063Y0.2991
X2.8063Y-0.3702
X2.9638Y-1.1497
X2.9638Y-1.1497
X3.0032Y1.7243
X3.0032Y1.7243
X3.0032Y1.055
X3.0032Y1.055
X3.0032Y0.3857
X3.0032Y0.3857
X3.0032Y-0.2836
X3.0032Y-0.2836
X3.1607Y-1.2364
X3.2Y1.6377
X3.2Y0.9684
X3.2Y0.2991
X3.2Y-0.3702
X3.515Y-1.2364
X3.5544Y1.5589
X3.5544Y0.8896
X3.5544Y0.2203
X3.5544Y-0.4489
X3.7119Y-1.1497
X3.7119Y-1.1497
X3.7512Y1.6455
X3.7512Y1.6455
X3.7512Y0.9762
X3.7512Y0.9762
X3.7512Y0.307
X3.7512Y0.307
X3.7512Y-0.3623
X3.7512Y-0.3623
X3.9087Y-1.2364
X3.9481Y1.5589
X3.9481Y0.8896
X3.9481Y0.2203
X3.9481Y-0.4489
X4.3744Y-1.5597
X4.589Y-1.5456
X4.589Y-1.5456
X4.6034Y-0.9308
X4.7444Y-1.6944
X4.818Y-0.9167
X4.818Y-0.9167
X4.9733Y-1.0654
X5.1845Y-1.9278
X5.3955Y-1.9698
X5.3955Y-1.9698
X5.507Y-2.1536
T4
X0.0111Y1.3325
X0.0111Y0.6633
X0.0111Y-0.006
X0.0111Y-0.6753
X0.7591Y1.3325
X0.7591Y0.6633
X0.7591Y-0.006
X0.7591Y-0.6753
X1.5071Y1.5294
X1.5071Y0.8601
X1.5071Y0.1908
X1.5071Y-0.4785
X2.2552Y1.7262
X2.2552Y1.057
X2.2552Y0.3877
X2.2552Y-0.2816
X2.9638Y-1.384
X3.0032Y1.49
X3.0032Y0.8207
X3.0032Y0.1514
X3.0032Y-0.5178
X3.7119Y-1.384
X3.7512Y1.4113
X3.7512Y0.742
X3.7512Y0.0727
X3.7512Y-0.5966
X4.5089Y-1.7658
X4.7378Y-1.1368
X5.2611Y-2.1617
T0
M30
