M48
; DRILL file {KiCad (6.0.9-0)} date Friday, January 27, 2023 at 10:49:09 AM
; FORMAT={-:-/ absolute / inch / decimal}
; #@! TF.CreationDate,2023-01-27T10:49:09-06:00
; #@! TF.GenerationSoftware,Kicad,Pcbnew,(6.0.9-0)
; #@! TF.FileFunction,Plated,1,2,PTH
FMAT,2
INCH
; #@! TA.AperFunction,Plated,PTH,ViaDrill
T1C0.0157
; #@! TA.AperFunction,Plated,PTH,ComponentDrill
T2C0.0157
; #@! TA.AperFunction,Plated,PTH,ComponentDrill
T3C0.0390
; #@! TA.AperFunction,Plated,PTH,ComponentDrill
T4C0.0394
; #@! TA.AperFunction,Plated,PTH,ComponentDrill
T5C0.0433
%
G90
G05
T1
X0.0659Y-0.5859
X1.0328Y1.0685
X1.8329Y0.0129
X2.1955Y1.4187
X3.1687Y-1.0779
X3.3012Y-1.0878
X3.36Y-0.7442
X3.8461Y0.6271
X4.077Y1.4831
X4.5Y0.7785
X4.5287Y-1.6636
X4.75Y0.75
X4.8445Y0.35
X4.9236Y-0.8292
X4.9864Y1.7864
X5.0111Y0.6776
X5.0111Y0.4524
X5.0215Y1.6332
X5.0578Y-0.5668
X5.1068Y0.2568
X5.2228Y0.2772
X5.4137Y-1.8539
T2
X4.5874Y1.9416
X4.5874Y1.8416
X4.5874Y1.7416
X4.5874Y1.6416
X4.5874Y1.5416
X4.5874Y1.4416
X4.5874Y1.3416
X4.5874Y1.2416
X4.5874Y1.1416
X4.5874Y1.0416
X4.5874Y0.9416
X4.5874Y0.8416
X4.6474Y1.9416
X4.6474Y1.8416
X4.6474Y1.7416
X4.6474Y1.6416
X4.6474Y1.5416
X4.6474Y1.4416
X4.6474Y1.3416
X4.6474Y1.2416
X4.6474Y1.1416
X4.6474Y1.0416
X4.6474Y0.9416
X4.6474Y0.8416
T3
X-0.1389Y1.1357
X-0.1389Y0.4664
X-0.1389Y-0.2029
X-0.1389Y-0.8722
X0.1611Y1.1357
X0.1611Y0.4664
X0.1611Y-0.2029
X0.1611Y-0.8722
X0.6091Y1.1357
X0.6091Y0.4664
X0.6091Y-0.2029
X0.6091Y-0.8722
X0.9091Y1.1357
X0.9091Y0.4664
X0.9091Y-0.2029
X0.9091Y-0.8722
X1.3571Y1.3325
X1.3571Y0.6633
X1.3571Y-0.006
X1.3571Y-0.6753
X1.6571Y1.3325
X1.6571Y0.6633
X1.6571Y-0.006
X1.6571Y-0.6753
X2.1052Y1.5294
X2.1052Y0.8601
X2.1052Y0.1908
X2.1052Y-0.4785
X2.4052Y1.5294
X2.4052Y0.8601
X2.4052Y0.1908
X2.4052Y-0.4785
X2.8138Y-1.5808
X2.8532Y1.2932
X2.8532Y0.6239
X2.8532Y-0.0454
X2.8532Y-0.7147
X3.1138Y-1.5808
X3.1532Y1.2932
X3.1532Y0.6239
X3.1532Y-0.0454
X3.1532Y-0.7147
X3.5619Y-1.5808
X3.6012Y1.2144
X3.6012Y0.5451
X3.6012Y-0.1241
X3.6012Y-0.7934
X3.8619Y-1.5808
X3.9012Y1.2144
X3.9012Y0.5451
X3.9012Y-0.1241
X3.9012Y-0.7934
X4.3006Y-1.8994
X4.5296Y-1.2705
X4.5825Y-2.002
X4.8115Y-1.3731
X5.0253Y-2.2369
X5.2711Y-2.409
T4
X4.4071Y0.5018
X4.4079Y0.6278
X4.5071Y0.5018
X4.5079Y0.6278
X4.6071Y0.5018
X4.6079Y0.6278
X4.7071Y0.5018
X4.7079Y0.6278
X4.8071Y0.5018
X4.8079Y0.6278
T5
X4.3174Y1.9416
X4.3174Y1.9416
X4.3174Y1.8416
X4.3174Y1.7416
X4.3174Y1.6416
X4.3174Y1.5416
X4.3174Y1.4416
X4.3174Y1.3416
X4.3174Y1.2416
X4.3174Y1.1416
X4.3174Y1.0416
X4.3174Y0.9416
X4.3174Y0.8416
X4.9174Y1.9416
X4.9174Y1.9416
X4.9174Y1.8416
X4.9174Y1.7416
X4.9174Y1.6416
X4.9174Y1.5416
X4.9174Y1.4416
X4.9174Y1.3416
X4.9174Y1.2416
X4.9174Y1.1416
X4.9174Y1.0416
X4.9174Y0.9416
X4.9174Y0.8416
T0
M30
