%TF.GenerationSoftware,KiCad,Pcbnew,(7.0.0-0)*%
%TF.CreationDate,2023-05-03T13:23:33-05:00*%
%TF.ProjectId,boardv3,626f6172-6476-4332-9e6b-696361645f70,v1.0.0*%
%TF.SameCoordinates,Original*%
%TF.FileFunction,Copper,L2,Bot*%
%TF.FilePolarity,Positive*%
%FSLAX46Y46*%
G04 Gerber Fmt 4.6, Leading zero omitted, Abs format (unit mm)*
G04 Created by KiCad (PCBNEW (7.0.0-0)) date 2023-05-03 13:23:33*
%MOMM*%
%LPD*%
G01*
G04 APERTURE LIST*
G04 Aperture macros list*
%AMRotRect*
0 Rectangle, with rotation*
0 The origin of the aperture is its center*
0 $1 length*
0 $2 width*
0 $3 Rotation angle, in degrees counterclockwise*
0 Add horizontal line*
21,1,$1,$2,0,0,$3*%
%AMFreePoly0*
4,1,6,0.600000,0.200000,0.000000,-0.400000,-0.600000,0.200000,-0.600000,0.400000,0.600000,0.400000,0.600000,0.200000,0.600000,0.200000,$1*%
%AMFreePoly1*
4,1,5,0.125000,-0.500000,-0.125000,-0.500000,-0.125000,0.500000,0.125000,0.500000,0.125000,-0.500000,0.125000,-0.500000,$1*%
%AMFreePoly2*
4,1,49,0.004652,0.123753,0.008918,0.124682,0.028635,0.117327,0.062500,0.108253,0.068172,0.102580,0.074910,0.100068,0.087486,0.083266,0.108253,0.062500,0.111163,0.051639,0.117119,0.043683,0.118510,0.024217,0.125000,0.000000,0.121245,-0.014013,0.122144,-0.026571,0.113772,-0.041901,0.108253,-0.062500,0.095633,-0.075119,0.088389,-0.088388,-0.641000,-0.817776,-0.641000,-4.770224,
0.088389,-5.499612,0.109711,-5.528094,0.124682,-5.596918,0.100068,-5.662910,0.043683,-5.705119,-0.026571,-5.710144,-0.088388,-5.676389,-0.854388,-4.910388,-0.867764,-4.892519,-0.871157,-4.889580,-0.871926,-4.886960,-0.875710,-4.881906,-0.882285,-4.851677,-0.891000,-4.822000,-0.891000,-0.766000,-0.887823,-0.743906,-0.888144,-0.739429,-0.886835,-0.737032,-0.885937,-0.730783,-0.869209,-0.704755,
-0.854388,-0.677612,-0.088388,0.088389,-0.064427,0.106325,-0.062500,0.108253,-0.061491,0.108523,-0.059906,0.109711,-0.044779,0.113001,0.000000,0.125000,0.004652,0.123753,0.004652,0.123753,$1*%
%AMFreePoly3*
4,1,6,0.600000,-0.250000,-0.600000,-0.250000,-0.600000,1.000000,0.000000,0.400000,0.600000,1.000000,0.600000,-0.250000,0.600000,-0.250000,$1*%
G04 Aperture macros list end*
%TA.AperFunction,SMDPad,CuDef*%
%ADD10R,0.900000X0.900000*%
%TD*%
%TA.AperFunction,WasherPad*%
%ADD11C,1.000000*%
%TD*%
%TA.AperFunction,SMDPad,CuDef*%
%ADD12R,1.250000X0.900000*%
%TD*%
%TA.AperFunction,ComponentPad*%
%ADD13R,1.778000X1.778000*%
%TD*%
%TA.AperFunction,SMDPad,CuDef*%
%ADD14R,0.900000X1.200000*%
%TD*%
%TA.AperFunction,ComponentPad*%
%ADD15C,1.905000*%
%TD*%
%TA.AperFunction,ComponentPad*%
%ADD16RotRect,1.778000X1.778000X340.000000*%
%TD*%
%TA.AperFunction,SMDPad,CuDef*%
%ADD17RotRect,0.900000X1.200000X340.000000*%
%TD*%
%TA.AperFunction,SMDPad,CuDef*%
%ADD18R,2.600000X2.600000*%
%TD*%
%TA.AperFunction,SMDPad,CuDef*%
%ADD19RotRect,2.600000X2.600000X340.000000*%
%TD*%
%TA.AperFunction,ComponentPad*%
%ADD20C,1.600000*%
%TD*%
%TA.AperFunction,SMDPad,CuDef*%
%ADD21FreePoly0,270.000000*%
%TD*%
%TA.AperFunction,SMDPad,CuDef*%
%ADD22FreePoly0,90.000000*%
%TD*%
%TA.AperFunction,SMDPad,CuDef*%
%ADD23FreePoly1,90.000000*%
%TD*%
%TA.AperFunction,SMDPad,CuDef*%
%ADD24FreePoly1,270.000000*%
%TD*%
%TA.AperFunction,ComponentPad*%
%ADD25R,1.600000X1.600000*%
%TD*%
%TA.AperFunction,ComponentPad*%
%ADD26C,0.800000*%
%TD*%
%TA.AperFunction,SMDPad,CuDef*%
%ADD27FreePoly2,270.000000*%
%TD*%
%TA.AperFunction,SMDPad,CuDef*%
%ADD28FreePoly3,90.000000*%
%TD*%
%TA.AperFunction,SMDPad,CuDef*%
%ADD29FreePoly2,90.000000*%
%TD*%
%TA.AperFunction,SMDPad,CuDef*%
%ADD30FreePoly3,270.000000*%
%TD*%
%TA.AperFunction,SMDPad,CuDef*%
%ADD31R,1.500000X1.500000*%
%TD*%
%TA.AperFunction,SMDPad,CuDef*%
%ADD32RotRect,0.900000X1.200000X325.000000*%
%TD*%
%TA.AperFunction,ComponentPad*%
%ADD33RotRect,1.778000X1.778000X325.000000*%
%TD*%
%TA.AperFunction,ComponentPad*%
%ADD34O,1.700000X1.700000*%
%TD*%
%TA.AperFunction,ComponentPad*%
%ADD35R,1.700000X1.700000*%
%TD*%
%TA.AperFunction,SMDPad,CuDef*%
%ADD36R,1.100000X1.800000*%
%TD*%
%TA.AperFunction,SMDPad,CuDef*%
%ADD37R,1.090000X1.880000*%
%TD*%
%TA.AperFunction,SMDPad,CuDef*%
%ADD38R,1.000000X1.795000*%
%TD*%
%TA.AperFunction,SMDPad,CuDef*%
%ADD39RotRect,2.600000X2.600000X325.000000*%
%TD*%
%TA.AperFunction,ViaPad*%
%ADD40C,0.800000*%
%TD*%
%TA.AperFunction,Conductor*%
%ADD41C,0.250000*%
%TD*%
G04 APERTURE END LIST*
D10*
%TO.P,T1,*%
%TO.N,*%
X132881199Y-11453299D03*
D11*
X131781200Y-16653300D03*
D10*
X132881199Y-18853299D03*
X130681199Y-18853299D03*
X130681199Y-11453299D03*
D11*
X131781200Y-13653300D03*
D12*
%TO.P,T1,1*%
%TO.N,Bplus*%
X129706199Y-12903299D03*
%TO.P,T1,2*%
%TO.N,RAW*%
X129706199Y-15903299D03*
%TO.P,T1,3*%
%TO.N,N/C*%
X129706199Y-17403299D03*
%TD*%
D13*
%TO.P,D15,1*%
%TO.N,P5*%
X53471199Y21846699D03*
D14*
X55631199Y21846699D03*
D15*
%TO.P,D15,2*%
%TO.N,middle_top*%
X61091200Y21846700D03*
D14*
X58931199Y21846699D03*
%TD*%
%TO.P,D26,1*%
%TO.N,P3*%
X92631199Y-40153299D03*
D13*
X90471199Y-40153299D03*
D15*
%TO.P,D26,2*%
%TO.N,near2_home*%
X98091200Y-40153300D03*
D14*
X95931199Y-40153299D03*
%TD*%
D13*
%TO.P,D5,1*%
%TO.N,P7*%
X15471199Y-22153299D03*
D14*
X17631199Y-22153299D03*
D15*
%TO.P,D5,2*%
%TO.N,pinky_bottom*%
X23091200Y-22153300D03*
D14*
X20931199Y-22153299D03*
%TD*%
D16*
%TO.P,D27,1*%
%TO.N,P3*%
X109236270Y-48245802D03*
D17*
X111266006Y-48984566D03*
D15*
%TO.P,D27,2*%
%TO.N,home_home*%
X116396729Y-50851997D03*
D17*
X114366992Y-50113232D03*
%TD*%
D13*
%TO.P,D17,1*%
%TO.N,P7*%
X72471199Y-18153299D03*
D14*
X74631199Y-18153299D03*
D15*
%TO.P,D17,2*%
%TO.N,index_bottom*%
X80091200Y-18153300D03*
D14*
X77931199Y-18153299D03*
%TD*%
D18*
%TO.P,S21,1*%
%TO.N,inner_bottom*%
X92006199Y-9203299D03*
%TO.P,S21,2*%
%TO.N,P16*%
X103556199Y-11403299D03*
%TD*%
D14*
%TO.P,D4,1*%
%TO.N,P4*%
X-1368799Y28846699D03*
D13*
X-3528799Y28846699D03*
D14*
%TO.P,D4,2*%
%TO.N,outer_num*%
X1931199Y28846699D03*
D15*
X4091200Y28846700D03*
%TD*%
D19*
%TO.P,S27,1*%
%TO.N,home_home*%
X113484126Y-38139212D03*
%TO.P,S27,2*%
%TO.N,P18*%
X123585131Y-44156868D03*
%TD*%
D14*
%TO.P,D10,1*%
%TO.N,P6*%
X36631199Y-153299D03*
D13*
X34471199Y-153299D03*
D14*
%TO.P,D10,2*%
%TO.N,ring_home*%
X39931199Y-153299D03*
D15*
X42091200Y-153300D03*
%TD*%
D20*
%TO.P,MCU1,*%
%TO.N,*%
X124901200Y26456700D03*
X109661200Y34076700D03*
D21*
X123123200Y21376700D03*
D20*
X124901200Y21376700D03*
D22*
X111439200Y28996700D03*
D20*
X124901200Y36616700D03*
D22*
X111439200Y23916700D03*
D23*
X110931200Y39156700D03*
D24*
X123631200Y28996700D03*
X123631200Y34076700D03*
D21*
X123123200Y44236700D03*
D24*
X123631200Y41696700D03*
D22*
X111439200Y31536700D03*
D24*
X123631200Y31536700D03*
D20*
X124901200Y28996700D03*
X124901200Y23916700D03*
D22*
X111439200Y41696700D03*
D23*
X110931200Y31536700D03*
D20*
X109661200Y23916700D03*
D23*
X110931200Y49316700D03*
D21*
X123123200Y23916700D03*
D20*
X124901200Y46776700D03*
D21*
X123123200Y31536700D03*
D23*
X110931200Y23916700D03*
X110931200Y36616700D03*
D21*
X123123200Y39156700D03*
X123123200Y46776700D03*
X123123200Y49316700D03*
X123123200Y34076700D03*
D20*
X124901200Y39156700D03*
D24*
X123631200Y21376700D03*
D20*
X109661200Y26456700D03*
X124901200Y41696700D03*
D22*
X111439200Y36616700D03*
X111439200Y39156700D03*
X111439200Y49316700D03*
D20*
X109661200Y21376700D03*
X109661200Y49316700D03*
D21*
X123123200Y28996700D03*
D20*
X109661200Y36616700D03*
X109661200Y31536700D03*
X109661200Y44236700D03*
X124901200Y49316700D03*
D22*
X111439200Y26456700D03*
D20*
X124901200Y44236700D03*
D23*
X110931200Y46776700D03*
X110931200Y41696700D03*
D25*
X124901199Y49316699D03*
D20*
X109661200Y28996700D03*
X109661200Y46776700D03*
X109661200Y39156700D03*
D22*
X111439200Y21376700D03*
D20*
X109661200Y41696700D03*
D24*
X123631200Y39156700D03*
D23*
X110931200Y26456700D03*
D20*
X124901200Y31536700D03*
D24*
X123631200Y49316700D03*
D23*
X110931200Y44236700D03*
X110931200Y21376700D03*
D21*
X123123200Y26456700D03*
D22*
X111439200Y34076700D03*
D24*
X123631200Y46776700D03*
X123631200Y36616700D03*
D22*
X111439200Y44236700D03*
D24*
X123631200Y44236700D03*
D22*
X111439200Y46776700D03*
D23*
X110931200Y34076700D03*
X110931200Y28996700D03*
D24*
X123631200Y23916700D03*
D20*
X124901200Y34076700D03*
D21*
X123123200Y36616700D03*
X123123200Y41696700D03*
D24*
X123631200Y26456700D03*
D26*
%TO.P,MCU1,1*%
%TO.N,RAW*%
X118043200Y49316700D03*
D27*
X118043200Y49316700D03*
D28*
X112455200Y49316700D03*
%TO.P,MCU1,2*%
%TO.N,N/C*%
X112455200Y46776700D03*
D27*
%TO.N,GND*%
X118043200Y46776700D03*
D26*
X118043200Y46776700D03*
D28*
%TO.P,MCU1,3*%
%TO.N,RST*%
X112455200Y44236700D03*
D26*
X118043200Y44236700D03*
D27*
X118043200Y44236700D03*
%TO.P,MCU1,4*%
%TO.N,VCC*%
X118043200Y41696700D03*
D26*
X118043200Y41696700D03*
D28*
X112455200Y41696700D03*
D27*
%TO.P,MCU1,5*%
%TO.N,P21*%
X118043200Y39156700D03*
D28*
X112455200Y39156700D03*
D26*
X118043200Y39156700D03*
D27*
%TO.P,MCU1,6*%
%TO.N,P20*%
X118043200Y36616700D03*
D28*
X112455200Y36616700D03*
D26*
X118043200Y36616700D03*
D27*
%TO.P,MCU1,7*%
%TO.N,P19*%
X118043200Y34076700D03*
D28*
X112455200Y34076700D03*
D26*
X118043200Y34076700D03*
D27*
%TO.P,MCU1,8*%
%TO.N,P18*%
X118043200Y31536700D03*
D28*
X112455200Y31536700D03*
D26*
X118043200Y31536700D03*
%TO.P,MCU1,9*%
%TO.N,P15*%
X118043200Y28996700D03*
D28*
X112455200Y28996700D03*
D27*
X118043200Y28996700D03*
%TO.P,MCU1,10*%
%TO.N,P14*%
X118043200Y26456700D03*
D26*
X118043200Y26456700D03*
D28*
X112455200Y26456700D03*
D26*
%TO.P,MCU1,11*%
%TO.N,P16*%
X118043200Y23916700D03*
D27*
X118043200Y23916700D03*
D28*
X112455200Y23916700D03*
%TO.P,MCU1,12*%
%TO.N,P10*%
X112455200Y21376700D03*
D26*
X118043200Y21376700D03*
D27*
X118043200Y21376700D03*
D29*
%TO.P,MCU1,13*%
%TO.N,P9*%
X116519200Y21376700D03*
D30*
X122107200Y21376700D03*
D26*
X116519200Y21376700D03*
D29*
%TO.P,MCU1,14*%
%TO.N,P8*%
X116519200Y23916700D03*
D30*
X122107200Y23916700D03*
D26*
X116519200Y23916700D03*
%TO.P,MCU1,15*%
%TO.N,P7*%
X116519200Y26456700D03*
D29*
X116519200Y26456700D03*
D30*
X122107200Y26456700D03*
D26*
%TO.P,MCU1,16*%
%TO.N,P6*%
X116519200Y28996700D03*
D29*
X116519200Y28996700D03*
D30*
X122107200Y28996700D03*
D29*
%TO.P,MCU1,17*%
%TO.N,P5*%
X116519200Y31536700D03*
D26*
X116519200Y31536700D03*
D30*
X122107200Y31536700D03*
D26*
%TO.P,MCU1,18*%
%TO.N,P4*%
X116519200Y34076700D03*
D29*
X116519200Y34076700D03*
D30*
X122107200Y34076700D03*
%TO.P,MCU1,19*%
%TO.N,P3*%
X122107200Y36616700D03*
D26*
X116519200Y36616700D03*
D29*
X116519200Y36616700D03*
%TO.P,MCU1,20*%
%TO.N,P2*%
X116519200Y39156700D03*
D30*
X122107200Y39156700D03*
D26*
X116519200Y39156700D03*
D30*
%TO.P,MCU1,21*%
%TO.N,GND*%
X122107200Y41696700D03*
D29*
X116519200Y41696700D03*
D26*
X116519200Y41696700D03*
%TO.P,MCU1,22*%
X116519200Y44236700D03*
D29*
X116519200Y44236700D03*
D30*
X122107200Y44236700D03*
D26*
%TO.P,MCU1,23*%
%TO.N,P0*%
X116519200Y46776700D03*
D30*
X122107200Y46776700D03*
D29*
X116519200Y46776700D03*
D30*
%TO.P,MCU1,24*%
%TO.N,P1*%
X122107200Y49316700D03*
D26*
X116519200Y49316700D03*
D29*
X116519200Y49316700D03*
%TD*%
D18*
%TO.P,S6,1*%
%TO.N,pinky_home*%
X16006199Y5796699D03*
%TO.P,S6,2*%
%TO.N,P19*%
X27556199Y3596699D03*
%TD*%
%TO.P,S18,1*%
%TO.N,index_home*%
X73006199Y9796699D03*
%TO.P,S18,2*%
%TO.N,P14*%
X84556199Y7596699D03*
%TD*%
D31*
%TO.P,PAD2,1*%
%TO.N,GND*%
X127281199Y15846699D03*
%TD*%
D18*
%TO.P,S16,1*%
%TO.N,middle_num*%
X54006199Y49796699D03*
%TO.P,S16,2*%
%TO.N,P15*%
X65556199Y47596699D03*
%TD*%
D13*
%TO.P,D2,1*%
%TO.N,P6*%
X-3528799Y-5153299D03*
D14*
X-1368799Y-5153299D03*
%TO.P,D2,2*%
%TO.N,outer_home*%
X1931199Y-5153299D03*
D15*
X4091200Y-5153300D03*
%TD*%
D11*
%TO.P,T2,*%
%TO.N,*%
X131781200Y-16653300D03*
X131781200Y-13653300D03*
%TD*%
D18*
%TO.P,S23,1*%
%TO.N,inner_top*%
X92006199Y24796699D03*
%TO.P,S23,2*%
%TO.N,P16*%
X103556199Y22596699D03*
%TD*%
%TO.P,S7,1*%
%TO.N,pinky_top*%
X16006199Y22796699D03*
%TO.P,S7,2*%
%TO.N,P19*%
X27556199Y20596699D03*
%TD*%
%TO.P,S4,1*%
%TO.N,outer_num*%
X-2993799Y39796699D03*
%TO.P,S4,2*%
%TO.N,P20*%
X8556199Y37596699D03*
%TD*%
D13*
%TO.P,D8,1*%
%TO.N,P4*%
X15471199Y28846699D03*
D14*
X17631199Y28846699D03*
%TO.P,D8,2*%
%TO.N,pinky_num*%
X20931199Y28846699D03*
D15*
X23091200Y28846700D03*
%TD*%
D18*
%TO.P,S14,1*%
%TO.N,middle_home*%
X54006199Y15796699D03*
%TO.P,S14,2*%
%TO.N,P15*%
X65556199Y13596699D03*
%TD*%
D14*
%TO.P,D7,1*%
%TO.N,P5*%
X17631199Y11846699D03*
D13*
X15471199Y11846699D03*
D14*
%TO.P,D7,2*%
%TO.N,pinky_top*%
X20931199Y11846699D03*
D15*
X23091200Y11846700D03*
%TD*%
D18*
%TO.P,S19,1*%
%TO.N,index_top*%
X73006199Y26796699D03*
%TO.P,S19,2*%
%TO.N,P14*%
X84556199Y24596699D03*
%TD*%
%TO.P,S10,1*%
%TO.N,ring_home*%
X35006199Y10796699D03*
%TO.P,S10,2*%
%TO.N,P18*%
X46556199Y8596699D03*
%TD*%
D32*
%TO.P,D29,1*%
%TO.N,P3*%
X129412798Y-58055998D03*
D33*
X127643430Y-56817073D03*
D15*
%TO.P,D29,2*%
%TO.N,far_home*%
X133885369Y-61187726D03*
D32*
X132116000Y-59948800D03*
%TD*%
D18*
%TO.P,S2,1*%
%TO.N,outer_home*%
X-2993799Y5796699D03*
%TO.P,S2,2*%
%TO.N,P20*%
X8556199Y3596699D03*
%TD*%
D13*
%TO.P,D3,1*%
%TO.N,P5*%
X-3528799Y11846699D03*
D14*
X-1368799Y11846699D03*
%TO.P,D3,2*%
%TO.N,outer_top*%
X1931199Y11846699D03*
D15*
X4091200Y11846700D03*
%TD*%
D18*
%TO.P,S11,1*%
%TO.N,ring_top*%
X35006199Y27796699D03*
%TO.P,S11,2*%
%TO.N,P18*%
X46556199Y25596699D03*
%TD*%
D14*
%TO.P,D22,1*%
%TO.N,P6*%
X93631199Y-3153299D03*
D13*
X91471199Y-3153299D03*
D15*
%TO.P,D22,2*%
%TO.N,inner_home*%
X99091200Y-3153300D03*
D14*
X96931199Y-3153299D03*
%TD*%
D18*
%TO.P,S22,1*%
%TO.N,inner_home*%
X92006199Y7796699D03*
%TO.P,S22,2*%
%TO.N,P16*%
X103556199Y5596699D03*
%TD*%
D13*
%TO.P,D12,1*%
%TO.N,P4*%
X34471199Y33846699D03*
D14*
X36631199Y33846699D03*
%TO.P,D12,2*%
%TO.N,ring_num*%
X39931199Y33846699D03*
D15*
X42091200Y33846700D03*
%TD*%
D14*
%TO.P,D6,1*%
%TO.N,P6*%
X17631199Y-5153299D03*
D13*
X15471199Y-5153299D03*
D14*
%TO.P,D6,2*%
%TO.N,pinky_home*%
X20931199Y-5153299D03*
D15*
X23091200Y-5153300D03*
%TD*%
D18*
%TO.P,S20,1*%
%TO.N,index_num*%
X73006199Y43796699D03*
%TO.P,S20,2*%
%TO.N,P14*%
X84556199Y41596699D03*
%TD*%
%TO.P,S26,1*%
%TO.N,near2_home*%
X91006199Y-29203299D03*
%TO.P,S26,2*%
%TO.N,P19*%
X102556199Y-31403299D03*
%TD*%
D31*
%TO.P,PAD1,1*%
%TO.N,Bplus*%
X127281199Y12846699D03*
%TD*%
D18*
%TO.P,S9,1*%
%TO.N,ring_bottom*%
X35006199Y-6203299D03*
%TO.P,S9,2*%
%TO.N,P18*%
X46556199Y-8403299D03*
%TD*%
D14*
%TO.P,D23,1*%
%TO.N,P5*%
X93631199Y13846699D03*
D13*
X91471199Y13846699D03*
D15*
%TO.P,D23,2*%
%TO.N,inner_top*%
X99091200Y13846700D03*
D14*
X96931199Y13846699D03*
%TD*%
D34*
%TO.P,OLED2,0*%
%TO.N,P1*%
X111941199Y12746699D03*
D35*
%TO.P,OLED2,1*%
%TO.N,GND*%
X114481199Y12746699D03*
D34*
%TO.P,OLED2,2*%
%TO.N,VCC*%
X117021199Y12746699D03*
%TO.P,OLED2,3*%
%TO.N,P2*%
X119561199Y12746699D03*
%TO.P,OLED2,4*%
%TO.N,P0*%
X122101199Y12746699D03*
%TD*%
%TO.P,OLED1,0*%
%TO.N,P1*%
X122121199Y15946699D03*
D35*
%TO.P,OLED1,1*%
%TO.N,GND*%
X119581199Y15946699D03*
D34*
%TO.P,OLED1,2*%
%TO.N,VCC*%
X117041199Y15946699D03*
%TO.P,OLED1,3*%
%TO.N,P2*%
X114501199Y15946699D03*
%TO.P,OLED1,4*%
%TO.N,P0*%
X111961199Y15946699D03*
%TD*%
D18*
%TO.P,S5,1*%
%TO.N,pinky_bottom*%
X16006199Y-11203299D03*
%TO.P,S5,2*%
%TO.N,P19*%
X27556199Y-13403299D03*
%TD*%
D17*
%TO.P,D28,1*%
%TO.N,P3*%
X117080406Y-33009866D03*
D16*
X115050670Y-32271102D03*
D17*
%TO.P,D28,2*%
%TO.N,home_top*%
X120181392Y-34138532D03*
D15*
X122211129Y-34877297D03*
%TD*%
D18*
%TO.P,S3,1*%
%TO.N,outer_top*%
X-2993799Y22796699D03*
%TO.P,S3,2*%
%TO.N,P20*%
X8556199Y20596699D03*
%TD*%
%TO.P,S25,1*%
%TO.N,near1_home*%
X72006199Y-29203299D03*
%TO.P,S25,2*%
%TO.N,P20*%
X83556199Y-31403299D03*
%TD*%
%TO.P,S15,1*%
%TO.N,middle_top*%
X54006199Y32796699D03*
%TO.P,S15,2*%
%TO.N,P15*%
X65556199Y30596699D03*
%TD*%
%TO.P,S1,1*%
%TO.N,outer_bottom*%
X-2993799Y-11203299D03*
%TO.P,S1,2*%
%TO.N,P20*%
X8556199Y-13403299D03*
%TD*%
D13*
%TO.P,D9,1*%
%TO.N,P7*%
X34471199Y-17153299D03*
D14*
X36631199Y-17153299D03*
D15*
%TO.P,D9,2*%
%TO.N,ring_bottom*%
X42091200Y-17153300D03*
D14*
X39931199Y-17153299D03*
%TD*%
D18*
%TO.P,S12,1*%
%TO.N,ring_num*%
X35006199Y44796699D03*
%TO.P,S12,2*%
%TO.N,P18*%
X46556199Y42596699D03*
%TD*%
%TO.P,S8,1*%
%TO.N,pinky_num*%
X16006199Y39796699D03*
%TO.P,S8,2*%
%TO.N,P19*%
X27556199Y37596699D03*
%TD*%
D13*
%TO.P,D25,1*%
%TO.N,P3*%
X71471199Y-40153299D03*
D14*
X73631199Y-40153299D03*
D15*
%TO.P,D25,2*%
%TO.N,near1_home*%
X79091200Y-40153300D03*
D14*
X76931199Y-40153299D03*
%TD*%
D13*
%TO.P,D20,1*%
%TO.N,P4*%
X72471199Y32846699D03*
D14*
X74631199Y32846699D03*
D15*
%TO.P,D20,2*%
%TO.N,index_num*%
X80091200Y32846700D03*
D14*
X77931199Y32846699D03*
%TD*%
%TO.P,D21,1*%
%TO.N,P7*%
X93631199Y-20153299D03*
D13*
X91471199Y-20153299D03*
D15*
%TO.P,D21,2*%
%TO.N,inner_bottom*%
X99091200Y-20153300D03*
D14*
X96931199Y-20153299D03*
%TD*%
%TO.P,D1,1*%
%TO.N,P7*%
X-1368799Y-22153299D03*
D13*
X-3528799Y-22153299D03*
D14*
%TO.P,D1,2*%
%TO.N,outer_bottom*%
X1931199Y-22153299D03*
D15*
X4091200Y-22153300D03*
%TD*%
D36*
%TO.P,B2,1*%
%TO.N,GND*%
X132659999Y4369999D03*
X132659999Y-1829999D03*
%TO.P,B2,2*%
%TO.N,RST*%
X128959999Y4369999D03*
X128959999Y-1829999D03*
D37*
X130869999Y-1909999D03*
D38*
X130829999Y4407499D03*
%TD*%
D14*
%TO.P,D18,1*%
%TO.N,P6*%
X74631199Y-1153299D03*
D13*
X72471199Y-1153299D03*
D15*
%TO.P,D18,2*%
%TO.N,index_home*%
X80091200Y-1153300D03*
D14*
X77931199Y-1153299D03*
%TD*%
D13*
%TO.P,D14,1*%
%TO.N,P6*%
X53471199Y4846699D03*
D14*
X55631199Y4846699D03*
D15*
%TO.P,D14,2*%
%TO.N,middle_home*%
X61091200Y4846700D03*
D14*
X58931199Y4846699D03*
%TD*%
%TO.P,D11,1*%
%TO.N,P5*%
X36631199Y16846699D03*
D13*
X34471199Y16846699D03*
D14*
%TO.P,D11,2*%
%TO.N,ring_top*%
X39931199Y16846699D03*
D15*
X42091200Y16846700D03*
%TD*%
D18*
%TO.P,S13,1*%
%TO.N,middle_bottom*%
X54006199Y-1203299D03*
%TO.P,S13,2*%
%TO.N,P15*%
X65556199Y-3403299D03*
%TD*%
D13*
%TO.P,D13,1*%
%TO.N,P7*%
X53471199Y-12153299D03*
D14*
X55631199Y-12153299D03*
%TO.P,D13,2*%
%TO.N,middle_bottom*%
X58931199Y-12153299D03*
D15*
X61091200Y-12153300D03*
%TD*%
D18*
%TO.P,S17,1*%
%TO.N,index_bottom*%
X73006199Y-7203299D03*
%TO.P,S17,2*%
%TO.N,P14*%
X84556199Y-9403299D03*
%TD*%
%TO.P,S24,1*%
%TO.N,inner_num*%
X92006199Y41796699D03*
%TO.P,S24,2*%
%TO.N,P16*%
X103556199Y39596699D03*
%TD*%
D14*
%TO.P,D16,1*%
%TO.N,P4*%
X55631199Y38846699D03*
D13*
X53471199Y38846699D03*
D15*
%TO.P,D16,2*%
%TO.N,middle_num*%
X61091200Y38846700D03*
D14*
X58931199Y38846699D03*
%TD*%
D19*
%TO.P,S28,1*%
%TO.N,home_top*%
X119298526Y-22164412D03*
%TO.P,S28,2*%
%TO.N,P15*%
X129399531Y-28182068D03*
%TD*%
D39*
%TO.P,S29,1*%
%TO.N,far_home*%
X134362356Y-48154182D03*
%TO.P,S29,2*%
%TO.N,P14*%
X142561694Y-56581124D03*
%TD*%
D13*
%TO.P,D19,1*%
%TO.N,P5*%
X72471199Y15846699D03*
D14*
X74631199Y15846699D03*
%TO.P,D19,2*%
%TO.N,index_top*%
X77931199Y15846699D03*
D15*
X80091200Y15846700D03*
%TD*%
D13*
%TO.P,D24,1*%
%TO.N,P4*%
X91471199Y30846699D03*
D14*
X93631199Y30846699D03*
D15*
%TO.P,D24,2*%
%TO.N,inner_num*%
X99091200Y30846700D03*
D14*
X96931199Y30846699D03*
%TD*%
D40*
%TO.N,P20*%
X80484100Y-27378200D03*
X1674600Y-14882700D03*
%TO.N,P19*%
X26232100Y27140800D03*
X83851600Y-27629300D03*
%TO.N,P18*%
X46556200Y328300D03*
X115028300Y-42256300D03*
%TO.N,P15*%
X125058200Y-21061500D03*
X55764700Y36036200D03*
%TO.N,P14*%
X137508000Y-47088400D03*
X85343800Y-18903900D03*
%TO.N,P16*%
X103556200Y37669900D03*
X97692000Y15928000D03*
%TO.N,RAW*%
X128468000Y-14397000D03*
%TO.N,GND*%
X132660000Y7040000D03*
X127281200Y17211900D03*
%TO.N,RST*%
X129713000Y6523000D03*
%TO.N,VCC*%
X120650000Y19050000D03*
%TO.N,P1*%
X127545800Y41484400D03*
%TO.N,P0*%
X126654201Y45374201D03*
X123050700Y8890000D03*
%TO.N,P2*%
X114300000Y19774500D03*
%TO.N,Bplus*%
X127281200Y11490100D03*
%TD*%
D41*
%TO.N,outer_bottom*%
X1156100Y-22153300D02*
X-1797000Y-19200200D01*
X-2540000Y-11657100D02*
X-2993800Y-11203300D01*
X-2540000Y-17780000D02*
X-2540000Y-11657100D01*
X4091200Y-22153300D02*
X1931200Y-22153300D01*
X1931200Y-22153300D02*
X1156100Y-22153300D01*
X-1797000Y-18523000D02*
X-2540000Y-17780000D01*
X-1797000Y-19200200D02*
X-1797000Y-18523000D01*
%TO.N,P20*%
X106792500Y42436688D02*
X106792500Y40527500D01*
X97079188Y45800000D02*
X98349188Y44530000D01*
X8556200Y20596700D02*
X8556200Y37596700D01*
X8556200Y-13403300D02*
X6677000Y-15282500D01*
X111185200Y35346700D02*
X112455200Y36616700D01*
X108129600Y36479000D02*
X109261900Y35346700D01*
X8556200Y-13403300D02*
X8556200Y3596700D01*
X82884100Y-29778200D02*
X80484100Y-27378200D01*
X48073604Y52520000D02*
X66226396Y52520000D01*
X2074400Y-15282500D02*
X1674600Y-14882700D01*
X46106200Y50552596D02*
X48073604Y52520000D01*
X83556200Y-29778200D02*
X82884100Y-29778200D01*
X83556200Y-31403300D02*
X83556200Y-29778200D01*
X8556200Y3596700D02*
X8556200Y20596700D01*
X108129600Y39190400D02*
X108129600Y36479000D01*
X85408198Y45800000D02*
X97079188Y45800000D01*
X66226396Y52520000D02*
X70249696Y48496700D01*
X46106200Y49530000D02*
X46106200Y50552596D01*
X98349188Y44530000D02*
X104699188Y44530000D01*
X70249696Y48496700D02*
X82711498Y48496700D01*
X17949500Y46990000D02*
X43566200Y46990000D01*
X6677000Y-15282500D02*
X2074400Y-15282500D01*
X8556200Y37596700D02*
X17949500Y46990000D01*
X109261900Y35346700D02*
X111185200Y35346700D01*
X43566200Y46990000D02*
X46106200Y49530000D01*
X106792500Y40527500D02*
X108129600Y39190400D01*
X82711498Y48496700D02*
X85408198Y45800000D01*
X104699188Y44530000D02*
X106792500Y42436688D01*
%TO.N,outer_home*%
X1931200Y-5153300D02*
X1156100Y-5153300D01*
X-2993800Y5796700D02*
X-2314600Y5117500D01*
X-2314600Y5117500D02*
X-2314600Y-1682600D01*
X4091200Y-5153300D02*
X1931200Y-5153300D01*
X-2314600Y-1682600D02*
X1156100Y-5153300D01*
%TO.N,outer_top*%
X1931200Y11846700D02*
X1156100Y11846700D01*
X-2314600Y15317400D02*
X1156100Y11846700D01*
X-2993800Y22796700D02*
X-2314600Y22117500D01*
X-2314600Y22117500D02*
X-2314600Y15317400D01*
X4091200Y11846700D02*
X1931200Y11846700D01*
%TO.N,outer_num*%
X-2540000Y39342900D02*
X-2993800Y39796700D01*
X-2540000Y32542800D02*
X-2540000Y39342900D01*
X4091200Y28846700D02*
X1931200Y28846700D01*
X1931200Y28846700D02*
X1156100Y28846700D01*
X1156100Y28846700D02*
X-2540000Y32542800D01*
%TO.N,pinky_bottom*%
X17780000Y-13970000D02*
X17780000Y-12977100D01*
X16156201Y-15593799D02*
X17780000Y-13970000D01*
X20156100Y-22153300D02*
X16156201Y-18153401D01*
X17780000Y-12977100D02*
X16006200Y-11203300D01*
X16156201Y-18153401D02*
X16156201Y-15593799D01*
X20931200Y-22153300D02*
X20156100Y-22153300D01*
X23091200Y-22153300D02*
X20931200Y-22153300D01*
%TO.N,P19*%
X29181300Y-14114300D02*
X40360700Y-25293700D01*
X27556200Y-13403300D02*
X29181300Y-13403300D01*
X27556200Y20596700D02*
X34434900Y20596700D01*
X37406400Y16107300D02*
X35326300Y14027200D01*
X102556200Y-31403300D02*
X96446600Y-25293700D01*
X83851600Y-25293700D02*
X83851600Y-27629300D01*
X125299500Y19505200D02*
X126494000Y20699700D01*
X96446600Y-25293700D02*
X97262696Y-25293700D01*
X83851600Y-25293700D02*
X96446600Y-25293700D01*
X27556200Y6500300D02*
X27556200Y3596700D01*
X125367191Y35201700D02*
X119168200Y35201700D01*
X126043900Y34524991D02*
X125367191Y35201700D01*
X26232100Y23545900D02*
X27556200Y22221800D01*
X27556200Y3596700D02*
X27556200Y-13403300D01*
X29181300Y-13403300D02*
X29181300Y-14114300D01*
X126043900Y25453500D02*
X126043900Y34524991D01*
X27556200Y20596700D02*
X27556200Y22221800D01*
X35326300Y14027200D02*
X35083100Y14027200D01*
X126494000Y25003400D02*
X126043900Y25453500D01*
X97262696Y-25293700D02*
X125299500Y2743104D01*
X126494000Y20699700D02*
X126494000Y25003400D01*
X27556200Y28464900D02*
X26232100Y27140800D01*
X40360700Y-25293700D02*
X53446300Y-25293700D01*
X27556200Y37596700D02*
X27556200Y28464900D01*
X37406400Y17625200D02*
X37406400Y16107300D01*
X125299500Y2743104D02*
X125299500Y19505200D01*
X53446300Y-25293700D02*
X57150000Y-21590000D01*
X83851600Y-25431600D02*
X83851600Y-27629300D01*
X80010000Y-21590000D02*
X83851600Y-25431600D01*
X119168200Y35201700D02*
X118043200Y34076700D01*
X35083100Y14027200D02*
X27556200Y6500300D01*
X57150000Y-21590000D02*
X80010000Y-21590000D01*
X34434900Y20596700D02*
X37406400Y17625200D01*
X26232100Y27140800D02*
X26232100Y23545900D01*
%TO.N,pinky_home*%
X16156201Y916201D02*
X17780000Y2540000D01*
X17780000Y2540000D02*
X17780000Y4022900D01*
X16156201Y-1153401D02*
X16156201Y916201D01*
X23091200Y-5153300D02*
X20931200Y-5153300D01*
X20156100Y-5153300D02*
X16156201Y-1153401D01*
X20931200Y-5153300D02*
X20156100Y-5153300D01*
X17780000Y4022900D02*
X16006200Y5796700D01*
%TO.N,pinky_top*%
X17780000Y20320000D02*
X17780000Y21022900D01*
X20931200Y11846700D02*
X20156100Y11846700D01*
X17780000Y21022900D02*
X16006200Y22796700D01*
X23091200Y11846700D02*
X20931200Y11846700D01*
X20156100Y11846700D02*
X16156201Y15846599D01*
X16156201Y18696201D02*
X17780000Y20320000D01*
X16156201Y15846599D02*
X16156201Y18696201D01*
%TO.N,pinky_num*%
X17780000Y38022900D02*
X16006200Y39796700D01*
X20156100Y28846700D02*
X16156201Y32846599D01*
X17780000Y36830000D02*
X17780000Y38022900D01*
X16156201Y32846599D02*
X16156201Y35206201D01*
X16156201Y35206201D02*
X17780000Y36830000D01*
X20931200Y28846700D02*
X23091200Y28846700D01*
X20931200Y28846700D02*
X20156100Y28846700D01*
%TO.N,ring_bottom*%
X35560000Y-12782100D02*
X39931200Y-17153300D01*
X36830000Y-8890000D02*
X36830000Y-8027100D01*
X35560000Y-12782100D02*
X35560000Y-10160000D01*
X42091200Y-17153300D02*
X39931200Y-17153300D01*
X36830000Y-8027100D02*
X35006200Y-6203300D01*
X35560000Y-10160000D02*
X36830000Y-8890000D01*
%TO.N,P18*%
X104512792Y44080000D02*
X98162792Y44080000D01*
X46556200Y50366200D02*
X46556200Y42596700D01*
X124460000Y-43282001D02*
X123585132Y-44156869D01*
X107170896Y33020000D02*
X106342400Y33848496D01*
X108308300Y32661700D02*
X107950000Y33020000D01*
X82525102Y48046700D02*
X70063300Y48046700D01*
X46556200Y-8403300D02*
X46556200Y-7186200D01*
X112455200Y31536700D02*
X111330200Y32661700D01*
X123585100Y-44156900D02*
X123585100Y-43532900D01*
X66040000Y52070000D02*
X48260000Y52070000D01*
X98162792Y44080000D02*
X96892792Y45350000D01*
X85221802Y45350000D02*
X82525102Y48046700D01*
X46556200Y328300D02*
X46556200Y-8403300D01*
X46556200Y8596700D02*
X46556200Y328300D01*
X106342400Y42250392D02*
X104512792Y44080000D01*
X107950000Y33020000D02*
X107170896Y33020000D01*
X117763700Y-42256300D02*
X119380000Y-40640000D01*
X96892792Y45350000D02*
X85221802Y45350000D01*
X115028300Y-42256300D02*
X117763700Y-42256300D01*
X48260000Y52070000D02*
X46556200Y50366200D01*
X70063300Y48046700D02*
X66040000Y52070000D01*
X46556200Y42596700D02*
X46556200Y25596700D01*
X119380000Y-40640000D02*
X123190000Y-40640000D01*
X124460000Y-41910000D02*
X124460000Y-43282001D01*
X111330200Y32661700D02*
X108308300Y32661700D01*
X123190000Y-40640000D02*
X124460000Y-41910000D01*
X106342400Y33848496D02*
X106342400Y42250392D01*
X46556200Y25596700D02*
X46556200Y8596700D01*
%TO.N,ring_home*%
X35006200Y10796700D02*
X35560000Y10242900D01*
X39931200Y-153300D02*
X42091200Y-153300D01*
X35560000Y10242900D02*
X35560000Y3442800D01*
X35560000Y3442800D02*
X39156100Y-153300D01*
X39156100Y-153300D02*
X39931200Y-153300D01*
%TO.N,ring_top*%
X35560000Y27242900D02*
X35006200Y27796700D01*
X35560000Y20442800D02*
X35560000Y27242900D01*
X39931200Y16846700D02*
X39156100Y16846700D01*
X42091200Y16846700D02*
X39931200Y16846700D01*
X39156100Y16846700D02*
X35560000Y20442800D01*
%TO.N,ring_num*%
X39931200Y33846700D02*
X42091200Y33846700D01*
X35685400Y44117500D02*
X35685400Y37317400D01*
X35006200Y44796700D02*
X35685400Y44117500D01*
X39931200Y33846700D02*
X39156100Y33846700D01*
X35685400Y37317400D02*
X39156100Y33846700D01*
%TO.N,middle_bottom*%
X61091200Y-12153300D02*
X58931200Y-12153300D01*
X58931200Y-12153300D02*
X58156100Y-12153300D01*
X54610000Y-8607200D02*
X54610000Y-1807100D01*
X54610000Y-1807100D02*
X54006200Y-1203300D01*
X58156100Y-12153300D02*
X54610000Y-8607200D01*
%TO.N,P15*%
X89983604Y44900000D02*
X89851802Y44768198D01*
X111049300Y30402600D02*
X109151900Y30402600D01*
X65556200Y39853800D02*
X65556200Y47596700D01*
X105892400Y33662100D02*
X105892400Y42063996D01*
X60565800Y32846700D02*
X57376300Y36036200D01*
X65556200Y13596700D02*
X65556200Y-1778200D01*
X65556200Y13596700D02*
X73981500Y13596700D01*
X104326396Y43630000D02*
X97976396Y43630000D01*
X75406400Y15021600D02*
X75406400Y16771900D01*
X73981500Y13596700D02*
X75406400Y15021600D01*
X65556200Y20803800D02*
X65556200Y30596700D01*
X129399500Y-28182100D02*
X130157600Y-26099000D01*
X130095700Y-26099000D02*
X125058200Y-21061500D01*
X69778550Y35631450D02*
X65556200Y39853800D01*
X97976396Y43630000D02*
X96706396Y44900000D01*
X63306200Y32846700D02*
X60565800Y32846700D01*
X75406400Y16771900D02*
X73128300Y19050000D01*
X81943300Y47596700D02*
X65556200Y47596700D01*
X84771802Y44768198D02*
X83820000Y45720000D01*
X75406400Y32068200D02*
X73934900Y30596700D01*
X65556200Y30596700D02*
X63306200Y32846700D01*
X73731450Y35631450D02*
X75406400Y33956500D01*
X73731450Y35631450D02*
X69778550Y35631450D01*
X105892400Y42063996D02*
X104326396Y43630000D01*
X96706396Y44900000D02*
X90170000Y44900000D01*
X73934900Y30596700D02*
X69424800Y30596700D01*
X73128300Y19050000D02*
X67310000Y19050000D01*
X83913200Y45626800D02*
X81943300Y47596700D01*
X109151900Y30402600D02*
X105892400Y33662100D01*
X112455200Y28996700D02*
X111049300Y30402600D01*
X57376300Y36036200D02*
X55764700Y36036200D01*
X130157600Y-26099000D02*
X130095700Y-26099000D01*
X65556200Y-3403300D02*
X65556200Y-1778200D01*
X67310000Y19050000D02*
X65556200Y20803800D01*
X89851802Y44768198D02*
X84771802Y44768198D01*
X69424800Y30596700D02*
X65556200Y30596700D01*
X75406400Y33956500D02*
X75406400Y32068200D01*
%TO.N,middle_home*%
X61091200Y4846700D02*
X58931200Y4846700D01*
X54610000Y15192900D02*
X54006200Y15796700D01*
X58931200Y4846700D02*
X58156100Y4846700D01*
X54610000Y8392800D02*
X54610000Y15192900D01*
X58156100Y4846700D02*
X54610000Y8392800D01*
%TO.N,middle_top*%
X54685400Y32117500D02*
X54685400Y25317400D01*
X54006200Y32796700D02*
X54685400Y32117500D01*
X58931200Y21846700D02*
X58156100Y21846700D01*
X58931200Y21846700D02*
X61091200Y21846700D01*
X54685400Y25317400D02*
X58156100Y21846700D01*
%TO.N,middle_num*%
X55880000Y47922900D02*
X54006200Y49796700D01*
X54610000Y42392800D02*
X54610000Y45720000D01*
X54610000Y45720000D02*
X55880000Y46990000D01*
X61091200Y38846700D02*
X58931200Y38846700D01*
X58156100Y38846700D02*
X54610000Y42392800D01*
X58931200Y38846700D02*
X58156100Y38846700D01*
X55880000Y46990000D02*
X55880000Y47922900D01*
%TO.N,index_bottom*%
X74203000Y-8400100D02*
X73006200Y-7203300D01*
X77156100Y-18153300D02*
X73156201Y-14153401D01*
X73156201Y-7353301D02*
X73006200Y-7203300D01*
X77931200Y-18153300D02*
X77156100Y-18153300D01*
X80091200Y-18153300D02*
X77931200Y-18153300D01*
X73156201Y-14153401D02*
X73156201Y-7353301D01*
%TO.N,P14*%
X85343800Y-18903900D02*
X84556200Y-18116300D01*
X109199700Y27862600D02*
X111049300Y27862600D01*
X104140000Y43180000D02*
X97790000Y43180000D01*
X84556200Y24596700D02*
X84556200Y41596700D01*
X105283100Y42036900D02*
X105283100Y31779200D01*
X84556200Y-18116300D02*
X84556200Y-9403300D01*
X87316700Y41596700D02*
X90170000Y44450000D01*
X143658200Y-55015200D02*
X142801600Y-54158600D01*
X105283100Y42036900D02*
X104140000Y43180000D01*
X105283100Y31779200D02*
X109199700Y27862600D01*
X142801600Y-54158600D02*
X142801600Y-52382000D01*
X84556200Y-9403300D02*
X84556200Y7596700D01*
X96520000Y44450000D02*
X90170000Y44450000D01*
X97790000Y43180000D02*
X96520000Y44450000D01*
X111049300Y27862600D02*
X112455200Y26456700D01*
X84556200Y7596700D02*
X84556200Y24596700D01*
X142561700Y-56581100D02*
X143658200Y-55015200D01*
X142801600Y-52382000D02*
X137508000Y-47088400D01*
X84556200Y41596700D02*
X87316700Y41596700D01*
%TO.N,index_home*%
X73156201Y5846201D02*
X73660000Y6350000D01*
X73660000Y6350000D02*
X73660000Y9142900D01*
X73660000Y9142900D02*
X73006200Y9796700D01*
X77931200Y-1153300D02*
X77156100Y-1153300D01*
X74203000Y8599900D02*
X73006200Y9796700D01*
X80091200Y-1153300D02*
X77931200Y-1153300D01*
X77156100Y-1153300D02*
X73156201Y2846599D01*
X73156201Y2846599D02*
X73156201Y5846201D01*
%TO.N,index_top*%
X73660000Y26142900D02*
X73006200Y26796700D01*
X77156100Y15846700D02*
X73156201Y19846599D01*
X80091200Y15846700D02*
X77931200Y15846700D01*
X73156201Y22356201D02*
X73660000Y22860000D01*
X73156201Y19846599D02*
X73156201Y22356201D01*
X73660000Y22860000D02*
X73660000Y26142900D01*
X74203000Y25599900D02*
X73006200Y26796700D01*
X77931200Y15846700D02*
X77156100Y15846700D01*
%TO.N,index_num*%
X73660000Y43142900D02*
X73006200Y43796700D01*
X77931200Y32846700D02*
X77156100Y32846700D01*
X73156201Y38866201D02*
X73660000Y39370000D01*
X73660000Y39370000D02*
X73660000Y43142900D01*
X73156201Y36846599D02*
X73156201Y38866201D01*
X80091200Y32846700D02*
X77931200Y32846700D01*
X74227900Y42575000D02*
X73006200Y43796700D01*
X77156100Y32846700D02*
X73156201Y36846599D01*
%TO.N,inner_bottom*%
X92710000Y-16707200D02*
X92710000Y-9907100D01*
X96931200Y-20153300D02*
X96156100Y-20153300D01*
X93203000Y-10400100D02*
X92006200Y-9203300D01*
X99091200Y-20153300D02*
X96931200Y-20153300D01*
X96156100Y-20153300D02*
X92710000Y-16707200D01*
X92710000Y-9907100D02*
X92006200Y-9203300D01*
%TO.N,P16*%
X103556200Y37669900D02*
X103556200Y22791500D01*
X103556200Y15928000D02*
X103556200Y5596700D01*
X103556200Y39596700D02*
X103556200Y37669900D01*
X103556200Y22791500D02*
X103556200Y22596700D01*
X103556200Y15928000D02*
X97692000Y15928000D01*
X111135200Y22596700D02*
X112455200Y23916700D01*
X103556200Y22596700D02*
X103556200Y15928000D01*
X103556200Y5596700D02*
X103556200Y-11403300D01*
X103556200Y22596700D02*
X111135200Y22596700D01*
%TO.N,inner_home*%
X92710000Y292800D02*
X92710000Y7092900D01*
X93203000Y6599900D02*
X92006200Y7796700D01*
X96156100Y-3153300D02*
X92710000Y292800D01*
X99091200Y-3153300D02*
X96931200Y-3153300D01*
X96931200Y-3153300D02*
X96156100Y-3153300D01*
X92710000Y7092900D02*
X92006200Y7796700D01*
%TO.N,inner_top*%
X99091200Y13846700D02*
X96931200Y13846700D01*
X96931200Y13846700D02*
X96156100Y13846700D01*
X96156100Y13846700D02*
X92710000Y17292800D01*
X93203000Y23599900D02*
X92006200Y24796700D01*
X92710000Y24092900D02*
X92006200Y24796700D01*
X92710000Y17292800D02*
X92710000Y24092900D01*
%TO.N,inner_num*%
X92710000Y34292800D02*
X92710000Y41092900D01*
X96931200Y30846700D02*
X96156100Y30846700D01*
X99091200Y30846700D02*
X96931200Y30846700D01*
X93203000Y40599900D02*
X92006200Y41796700D01*
X92710000Y41092900D02*
X92006200Y41796700D01*
X96156100Y30846700D02*
X92710000Y34292800D01*
%TO.N,near1_home*%
X76156100Y-40153300D02*
X72156201Y-36153401D01*
X72156201Y-34523799D02*
X73660000Y-33020000D01*
X73660000Y-33020000D02*
X73660000Y-30857100D01*
X76931200Y-40153300D02*
X76156100Y-40153300D01*
X72156201Y-36153401D02*
X72156201Y-34523799D01*
X73660000Y-30857100D02*
X72006200Y-29203300D01*
X76931200Y-40153300D02*
X79091200Y-40153300D01*
%TO.N,near2_home*%
X91685400Y-29882500D02*
X91685400Y-36682600D01*
X91006200Y-29203300D02*
X91685400Y-29882500D01*
X95931200Y-40153300D02*
X95156100Y-40153300D01*
X95931200Y-40153300D02*
X98091200Y-40153300D01*
X91685400Y-36682600D02*
X95156100Y-40153300D01*
%TO.N,home_home*%
X114366993Y-50113233D02*
X114366993Y-48326993D01*
X114367000Y-50113200D02*
X115411900Y-50493500D01*
X116396700Y-50852000D02*
X115770400Y-50852000D01*
X114366993Y-48326993D02*
X111760000Y-45720000D01*
X111760000Y-45720000D02*
X111760000Y-43180000D01*
X113484127Y-41455873D02*
X113484127Y-38139213D01*
X115770400Y-50852000D02*
X115411900Y-50493500D01*
X111760000Y-43180000D02*
X113484127Y-41455873D01*
%TO.N,home_top*%
X116840000Y-27940000D02*
X116840000Y-30480000D01*
X119298527Y-25481473D02*
X116840000Y-27940000D01*
X118110000Y-31750000D02*
X118110000Y-32067140D01*
X116840000Y-30480000D02*
X118110000Y-31750000D01*
X121584800Y-34877300D02*
X121226300Y-34518800D01*
X120181400Y-34138500D02*
X121226300Y-34518800D01*
X119298527Y-22164413D02*
X119298527Y-25481473D01*
X122211100Y-34877300D02*
X121584800Y-34877300D01*
X118110000Y-32067140D02*
X120181393Y-34138533D01*
%TO.N,far_home*%
X133885400Y-61187700D02*
X133585300Y-61187700D01*
X132116001Y-59948801D02*
X132116001Y-59216336D01*
X133585300Y-61187700D02*
X132884600Y-60487000D01*
X134362400Y-50698000D02*
X134362400Y-48154200D01*
X130810000Y-57910335D02*
X130810000Y-54250400D01*
X130810000Y-54250400D02*
X134362400Y-50698000D01*
X132116000Y-59948800D02*
X132884600Y-60487000D01*
X132116001Y-59216336D02*
X130810000Y-57910335D01*
%TO.N,P7*%
X101600000Y-20320000D02*
X100330000Y-21590000D01*
X74631200Y-18153300D02*
X72471200Y-18153300D01*
X36631200Y-17153300D02*
X34471200Y-17153300D01*
X95843000Y-21590000D02*
X94406300Y-20153300D01*
X15471200Y-22153300D02*
X14257100Y-22153300D01*
X125593900Y25267104D02*
X126043900Y24817104D01*
X-1368800Y-22153300D02*
X-593700Y-22153300D01*
X-3528800Y-22153300D02*
X-1368800Y-22153300D01*
X52257100Y-12153300D02*
X45956300Y-18454100D01*
X124500400Y3449242D02*
X101600000Y-19451158D01*
X126043900Y24817104D02*
X126043900Y20886200D01*
X38707100Y-18454100D02*
X37406300Y-17153300D01*
X12971500Y-23438900D02*
X14257100Y-22153300D01*
X122107200Y26456700D02*
X123296796Y25267104D01*
X55631200Y-12153300D02*
X53471200Y-12153300D01*
X53471200Y-12153300D02*
X52257100Y-12153300D01*
X100330000Y-21590000D02*
X95843000Y-21590000D01*
X36631200Y-17153300D02*
X37406300Y-17153300D01*
X17631200Y-22153300D02*
X15471200Y-22153300D01*
X94406300Y-20153300D02*
X93631200Y-20153300D01*
X691900Y-23438900D02*
X12971500Y-23438900D01*
X101600000Y-19451158D02*
X101600000Y-20320000D01*
X91471200Y-20153300D02*
X93631200Y-20153300D01*
X126043900Y20886200D02*
X124500400Y19342700D01*
X124500400Y19342700D02*
X124500400Y3449242D01*
X123296796Y25267104D02*
X125593900Y25267104D01*
X-593700Y-22153300D02*
X691900Y-23438900D01*
X45956300Y-18454100D02*
X38707100Y-18454100D01*
%TO.N,P6*%
X56406300Y4846700D02*
X55631200Y4846700D01*
X53471200Y4846700D02*
X53471200Y3632600D01*
X41910000Y-11430000D02*
X40640000Y-10160000D01*
X60040500Y-7970500D02*
X60040500Y1212500D01*
X64770000Y-8890000D02*
X63500000Y-10160000D01*
X74631200Y-1153300D02*
X72471200Y-1153300D01*
X91471200Y-3153300D02*
X93631200Y-3153300D01*
X63500000Y-10160000D02*
X62230000Y-10160000D01*
X36631200Y-1071200D02*
X36631200Y-153300D01*
X48257700Y-1580900D02*
X48260000Y-1583200D01*
X40640000Y-7620000D02*
X41910000Y-6350000D01*
X46990000Y-16510000D02*
X44450000Y-16510000D01*
X53471200Y3632600D02*
X48257700Y-1580900D01*
X71257100Y-1153300D02*
X64770000Y-7640400D01*
X48260000Y-15240000D02*
X46990000Y-16510000D01*
X48260000Y-1583200D02*
X48260000Y-15240000D01*
X-1368800Y-5153300D02*
X-3528800Y-5153300D01*
X64770000Y-7640400D02*
X64770000Y-8890000D01*
X55631200Y4846700D02*
X53471200Y4846700D01*
X60040500Y1212500D02*
X56406300Y4846700D01*
X41910000Y-3810000D02*
X40640000Y-2540000D01*
X41910000Y-6350000D02*
X41910000Y-3810000D01*
X38100000Y-2540000D02*
X36631200Y-1071200D01*
X40640000Y-2540000D02*
X38100000Y-2540000D01*
X44450000Y-16510000D02*
X41910000Y-13970000D01*
X17631200Y-5153300D02*
X15471200Y-5153300D01*
X72471200Y-1153300D02*
X71257100Y-1153300D01*
X34471200Y-153300D02*
X36631200Y-153300D01*
X41910000Y-13970000D02*
X41910000Y-11430000D01*
X40640000Y-10160000D02*
X40640000Y-7620000D01*
X62230000Y-10160000D02*
X60040500Y-7970500D01*
%TO.N,P5*%
X17631200Y11846700D02*
X15471200Y11846700D01*
X72471200Y15846700D02*
X62406300Y15846700D01*
X74631200Y15846700D02*
X72471200Y15846700D01*
X55631200Y21846700D02*
X54856100Y21846700D01*
X53471200Y21846700D02*
X53471200Y21239700D01*
X93631200Y13846700D02*
X91471200Y13846700D01*
X34471200Y16846700D02*
X33257100Y16846700D01*
X55631200Y21846700D02*
X56406300Y21846700D01*
X34471200Y16846700D02*
X36631200Y16846700D01*
X54249100Y21239700D02*
X53471200Y21239700D01*
X20093000Y10160000D02*
X18406300Y11846700D01*
X-1368800Y11846700D02*
X-3528800Y11846700D01*
X18406300Y11846700D02*
X17631200Y11846700D01*
X62406300Y15846700D02*
X56406300Y21846700D01*
X26570400Y10160000D02*
X20093000Y10160000D01*
X33257100Y16846700D02*
X26570400Y10160000D01*
X54856100Y21846700D02*
X54249100Y21239700D01*
%TO.N,P4*%
X36631200Y33846700D02*
X34471200Y33846700D01*
X93631200Y30846700D02*
X91471200Y30846700D01*
X19807900Y26670000D02*
X17631200Y28846700D01*
X21590000Y35560000D02*
X22860000Y34290000D01*
X33257100Y34984900D02*
X27602000Y40640000D01*
X25400000Y27940000D02*
X24130000Y26670000D01*
X61390700Y33862300D02*
X56406300Y38846700D01*
X33257100Y33846700D02*
X33257100Y34984900D01*
X55631200Y38846700D02*
X56406300Y38846700D01*
X71257100Y32846700D02*
X70241500Y33862300D01*
X53471200Y38846700D02*
X55631200Y38846700D01*
X72471200Y32846700D02*
X71257100Y32846700D01*
X22860000Y34290000D02*
X22860000Y33020000D01*
X70241500Y33862300D02*
X61390700Y33862300D01*
X74631200Y32846700D02*
X72471200Y32846700D01*
X24130000Y26670000D02*
X19807900Y26670000D01*
X15471200Y28846700D02*
X17631200Y28846700D01*
X22860000Y33020000D02*
X25400000Y30480000D01*
X-1368800Y28846700D02*
X-3528800Y28846700D01*
X22860000Y40640000D02*
X21590000Y39370000D01*
X27602000Y40640000D02*
X22860000Y40640000D01*
X21590000Y39370000D02*
X21590000Y35560000D01*
X25400000Y30480000D02*
X25400000Y27940000D01*
X34471200Y33846700D02*
X33257100Y33846700D01*
%TO.N,P3*%
X107680000Y-46689500D02*
X107680000Y-47679400D01*
X115050700Y-32271100D02*
X116606900Y-32837500D01*
X126044000Y17481800D02*
X126044000Y-10585500D01*
X109236300Y-48245800D02*
X107680000Y-47679400D01*
X128993000Y-57636200D02*
X129412800Y-58056000D01*
X126944100Y20513200D02*
X126697400Y20266500D01*
X110221100Y-48604400D02*
X109594900Y-48604400D01*
X116606900Y-32837500D02*
X116606900Y-32837400D01*
X116907900Y-32837400D02*
X117080400Y-33009900D01*
X126697400Y19949400D02*
X126653100Y19905100D01*
X110490000Y-50800000D02*
X109220000Y-49530000D01*
X126653100Y18091000D02*
X126494100Y17932000D01*
X126044000Y37087100D02*
X126044000Y35983200D01*
X126944100Y25189900D02*
X126944100Y20513200D01*
X90471200Y-40153300D02*
X92631200Y-40153300D01*
X126494100Y17931900D02*
X126044000Y17481800D01*
X128813400Y-57636200D02*
X128993000Y-57636200D01*
X111760000Y-50800000D02*
X110490000Y-50800000D01*
X113494400Y-31704700D02*
X107101000Y-38098100D01*
X126044000Y-10585500D02*
X113494400Y-23135100D01*
X73631200Y-40153300D02*
X71471200Y-40153300D01*
X125342100Y37789000D02*
X126044000Y37087100D01*
X126494100Y35533100D02*
X126494100Y25639900D01*
X126044000Y35983200D02*
X126494100Y35533100D01*
X113494400Y-23135100D02*
X113494400Y-31704700D01*
X126494100Y17932000D02*
X126494100Y17931900D01*
X92631200Y-40153300D02*
X93406300Y-40153300D01*
X126494100Y25639900D02*
X126944100Y25189900D01*
X107101000Y-38098100D02*
X107101000Y-41445500D01*
X126697400Y20266500D02*
X126697400Y19949400D01*
X117777074Y-56817074D02*
X111760000Y-50800000D01*
X127643400Y-56817100D02*
X128813300Y-57636300D01*
X126653100Y19905100D02*
X126653100Y18091000D01*
X109594900Y-48604400D02*
X109236300Y-48245800D01*
X123148100Y37789000D02*
X125342100Y37789000D01*
X94698500Y-41445500D02*
X107101000Y-41445500D01*
X109220000Y-49530000D02*
X109236271Y-49513729D01*
X121975800Y36616700D02*
X123148100Y37789000D01*
X128813300Y-57636300D02*
X128813400Y-57636200D01*
X111266000Y-48984600D02*
X110221100Y-48604300D01*
X107101000Y-46110500D02*
X107680000Y-46689500D01*
X109236271Y-49513729D02*
X109236271Y-48245803D01*
X127643431Y-56817074D02*
X117777074Y-56817074D01*
X107101000Y-41445500D02*
X107101000Y-46110500D01*
X110221100Y-48604300D02*
X110221100Y-48604400D01*
X116606900Y-32837400D02*
X116907900Y-32837400D01*
X115050700Y-32271100D02*
X113494400Y-31704700D01*
X93406300Y-40153300D02*
X94698500Y-41445500D01*
%TO.N,RAW*%
X129706200Y-15128200D02*
X129199200Y-15128200D01*
X129706200Y-15903300D02*
X129706200Y-15128200D01*
X129199200Y-15128200D02*
X128468000Y-14397000D01*
%TO.N,GND*%
X127281200Y15846700D02*
X131473300Y15846700D01*
X132660000Y14660000D02*
X132660000Y4370000D01*
X127281200Y17211900D02*
X127281200Y15846700D01*
X127281200Y17211900D02*
X127394200Y17324900D01*
X125436600Y42821700D02*
X123232200Y42821700D01*
X126820700Y41437600D02*
X125436600Y42821700D01*
X126820700Y41184100D02*
X126820700Y41437600D01*
X127394200Y40610600D02*
X126820700Y41184100D01*
X127394200Y17324900D02*
X127394200Y40610600D01*
X131473300Y15846700D02*
X132660000Y14660000D01*
X132660000Y4370000D02*
X132660000Y-1830000D01*
X123232200Y42821700D02*
X122107200Y41696700D01*
%TO.N,RST*%
X129713000Y6523000D02*
X129713000Y5123000D01*
X130870000Y-1910000D02*
X129040000Y-1910000D01*
X128997500Y4407500D02*
X128960000Y4370000D01*
X129040000Y-1910000D02*
X128960000Y-1830000D01*
X130830000Y4407500D02*
X128997500Y4407500D01*
X128960000Y4370000D02*
X128960000Y-1830000D01*
X129713000Y5123000D02*
X128960000Y4370000D01*
%TO.N,VCC*%
X117021200Y15926700D02*
X117041200Y15946700D01*
X120144500Y19050000D02*
X117041200Y15946700D01*
X117021200Y12746700D02*
X117021200Y15926700D01*
X120650000Y19050000D02*
X120144500Y19050000D01*
%TO.N,P1*%
X123019300Y48129800D02*
X122107200Y49041900D01*
X125860200Y48129800D02*
X123019300Y48129800D01*
X127545800Y46444200D02*
X125860200Y48129800D01*
X127545800Y41484400D02*
X127545800Y46444200D01*
%TO.N,P0*%
X123509699Y45374201D02*
X122107200Y46776700D01*
X114300000Y10160000D02*
X115570000Y11430000D01*
X122101200Y12746700D02*
X122101200Y9839500D01*
X115570000Y11430000D02*
X120784500Y11430000D01*
X122101200Y9839500D02*
X123050700Y8890000D01*
X109220000Y11430000D02*
X110490000Y10160000D01*
X109926700Y15946700D02*
X109220000Y15240000D01*
X120784500Y11430000D02*
X122101200Y12746700D01*
X111961200Y15946700D02*
X109926700Y15946700D01*
X109220000Y15240000D02*
X109220000Y11430000D01*
X110490000Y10160000D02*
X114300000Y10160000D01*
X126654201Y45374201D02*
X123509699Y45374201D01*
%TO.N,P2*%
X114300000Y19774500D02*
X114501200Y19573300D01*
X114501200Y19573300D02*
X114501200Y15946700D01*
%TO.N,Bplus*%
X129706200Y-12128200D02*
X127281200Y-9703200D01*
X127281200Y-9703200D02*
X127281200Y11490100D01*
X129706200Y-12903300D02*
X129706200Y-12128200D01*
X127281200Y12846700D02*
X127281200Y11490100D01*
%TD*%
M02*
