%TF.GenerationSoftware,KiCad,Pcbnew,(6.0.9-0)*%
%TF.CreationDate,2023-01-27T10:49:12-06:00*%
%TF.ProjectId,boardv3,626f6172-6476-4332-9e6b-696361645f70,v1.0.0*%
%TF.SameCoordinates,Original*%
%TF.FileFunction,Paste,Top*%
%TF.FilePolarity,Positive*%
%FSLAX46Y46*%
G04 Gerber Fmt 4.6, Leading zero omitted, Abs format (unit mm)*
G04 Created by KiCad (PCBNEW (6.0.9-0)) date 2023-01-27 10:49:12*
%MOMM*%
%LPD*%
G01*
G04 APERTURE LIST*
G04 Aperture macros list*
%AMRotRect*
0 Rectangle, with rotation*
0 The origin of the aperture is its center*
0 $1 length*
0 $2 width*
0 $3 Rotation angle, in degrees counterclockwise*
0 Add horizontal line*
21,1,$1,$2,0,0,$3*%
G04 Aperture macros list end*
%ADD10R,1.100000X1.800000*%
%ADD11R,2.600000X2.600000*%
%ADD12R,0.900000X1.200000*%
%ADD13RotRect,0.900000X1.200000X340.000000*%
%ADD14RotRect,2.600000X2.600000X340.000000*%
%ADD15R,1.500000X1.500000*%
%ADD16R,0.900000X0.900000*%
%ADD17R,1.250000X0.900000*%
%ADD18RotRect,0.900000X1.200000X325.000000*%
%ADD19RotRect,2.600000X2.600000X325.000000*%
G04 APERTURE END LIST*
D10*
%TO.C,B1*%
X130760000Y-1830000D03*
X130760000Y4370000D03*
X132660000Y-1830000D03*
X132660000Y4370000D03*
X128960000Y-1830000D03*
X128960000Y4370000D03*
%TD*%
D11*
%TO.C,S24*%
X98556200Y41796700D03*
X87006200Y39596700D03*
%TD*%
%TO.C,S25*%
X78556200Y-29203300D03*
X67006200Y-31403300D03*
%TD*%
%TO.C,S11*%
X41556200Y27796700D03*
X30006200Y25596700D03*
%TD*%
%TO.C,S6*%
X22556200Y5796700D03*
X11006200Y3596700D03*
%TD*%
D12*
%TO.C,D15*%
X55631200Y21846700D03*
X58931200Y21846700D03*
%TD*%
%TO.C,D26*%
X92631200Y-40153300D03*
X95931200Y-40153300D03*
%TD*%
%TO.C,D5*%
X17631200Y-22153300D03*
X20931200Y-22153300D03*
%TD*%
D13*
%TO.C,D27*%
X111266007Y-48984567D03*
X114366993Y-50113233D03*
%TD*%
D12*
%TO.C,D17*%
X74631200Y-18153300D03*
X77931200Y-18153300D03*
%TD*%
D11*
%TO.C,S21*%
X98556200Y-9203300D03*
X87006200Y-11403300D03*
%TD*%
D12*
%TO.C,D4*%
X-1368800Y28846700D03*
X1931200Y28846700D03*
%TD*%
D14*
%TO.C,S27*%
X119639113Y-40379445D03*
X108033219Y-38496436D03*
%TD*%
D12*
%TO.C,D10*%
X36631200Y-153300D03*
X39931200Y-153300D03*
%TD*%
D11*
%TO.C,S18*%
X79556200Y9796700D03*
X68006200Y7596700D03*
%TD*%
D15*
%TO.C,PAD2*%
X127281200Y15846700D03*
%TD*%
D11*
%TO.C,S16*%
X60556200Y49796700D03*
X49006200Y47596700D03*
%TD*%
D12*
%TO.C,D2*%
X-1368800Y-5153300D03*
X1931200Y-5153300D03*
%TD*%
D16*
%TO.C,T2*%
X132881200Y-11453300D03*
X130681200Y-18853300D03*
X130681200Y-11453300D03*
X132881200Y-18853300D03*
D17*
X129706200Y-17403300D03*
X129706200Y-14403300D03*
X129706200Y-12903300D03*
%TD*%
D11*
%TO.C,S23*%
X98556200Y24796700D03*
X87006200Y22596700D03*
%TD*%
%TO.C,S7*%
X22556200Y22796700D03*
X11006200Y20596700D03*
%TD*%
%TO.C,S4*%
X3556200Y39796700D03*
X-7993800Y37596700D03*
%TD*%
D12*
%TO.C,D8*%
X17631200Y28846700D03*
X20931200Y28846700D03*
%TD*%
D11*
%TO.C,S14*%
X60556200Y15796700D03*
X49006200Y13596700D03*
%TD*%
D12*
%TO.C,D7*%
X17631200Y11846700D03*
X20931200Y11846700D03*
%TD*%
D11*
%TO.C,S19*%
X79556200Y26796700D03*
X68006200Y24596700D03*
%TD*%
%TO.C,S10*%
X41556200Y10796700D03*
X30006200Y8596700D03*
%TD*%
D18*
%TO.C,D29*%
X129412799Y-58055999D03*
X132116001Y-59948801D03*
%TD*%
D11*
%TO.C,S2*%
X3556200Y5796700D03*
X-7993800Y3596700D03*
%TD*%
D12*
%TO.C,D3*%
X-1368800Y11846700D03*
X1931200Y11846700D03*
%TD*%
%TO.C,D22*%
X93631200Y-3153300D03*
X96931200Y-3153300D03*
%TD*%
D11*
%TO.C,S22*%
X98556200Y7796700D03*
X87006200Y5596700D03*
%TD*%
D12*
%TO.C,D12*%
X36631200Y33846700D03*
X39931200Y33846700D03*
%TD*%
%TO.C,D6*%
X17631200Y-5153300D03*
X20931200Y-5153300D03*
%TD*%
D11*
%TO.C,S20*%
X79556200Y43796700D03*
X68006200Y41596700D03*
%TD*%
%TO.C,S26*%
X97556200Y-29203300D03*
X86006200Y-31403300D03*
%TD*%
D15*
%TO.C,PAD1*%
X127281200Y12846700D03*
%TD*%
D11*
%TO.C,S9*%
X41556200Y-6203300D03*
X30006200Y-8403300D03*
%TD*%
D12*
%TO.C,D23*%
X93631200Y13846700D03*
X96931200Y13846700D03*
%TD*%
D11*
%TO.C,S5*%
X22556200Y-11203300D03*
X11006200Y-13403300D03*
%TD*%
D13*
%TO.C,D28*%
X117080407Y-33009867D03*
X120181393Y-34138533D03*
%TD*%
D11*
%TO.C,S3*%
X3556200Y22796700D03*
X-7993800Y20596700D03*
%TD*%
%TO.C,S15*%
X60556200Y32796700D03*
X49006200Y30596700D03*
%TD*%
%TO.C,S1*%
X3556200Y-11203300D03*
X-7993800Y-13403300D03*
%TD*%
D12*
%TO.C,D9*%
X36631200Y-17153300D03*
X39931200Y-17153300D03*
%TD*%
D11*
%TO.C,S12*%
X41556200Y44796700D03*
X30006200Y42596700D03*
%TD*%
%TO.C,S8*%
X22556200Y39796700D03*
X11006200Y37596700D03*
%TD*%
D12*
%TO.C,D25*%
X73631200Y-40153300D03*
X76931200Y-40153300D03*
%TD*%
%TO.C,D20*%
X74631200Y32846700D03*
X77931200Y32846700D03*
%TD*%
%TO.C,D21*%
X93631200Y-20153300D03*
X96931200Y-20153300D03*
%TD*%
%TO.C,D1*%
X-1368800Y-22153300D03*
X1931200Y-22153300D03*
%TD*%
%TO.C,D18*%
X74631200Y-1153300D03*
X77931200Y-1153300D03*
%TD*%
%TO.C,D14*%
X55631200Y4846700D03*
X58931200Y4846700D03*
%TD*%
%TO.C,D11*%
X36631200Y16846700D03*
X39931200Y16846700D03*
%TD*%
D11*
%TO.C,S13*%
X60556200Y-1203300D03*
X49006200Y-3403300D03*
%TD*%
D12*
%TO.C,D13*%
X55631200Y-12153300D03*
X58931200Y-12153300D03*
%TD*%
D11*
%TO.C,S17*%
X79556200Y-7203300D03*
X68006200Y-9403300D03*
%TD*%
D12*
%TO.C,D16*%
X55631200Y38846700D03*
X58931200Y38846700D03*
%TD*%
D14*
%TO.C,S28*%
X125453513Y-24404645D03*
X113847619Y-22521636D03*
%TD*%
D19*
%TO.C,S29*%
X139727803Y-51911108D03*
X129004728Y-47088435D03*
%TD*%
D12*
%TO.C,D19*%
X74631200Y15846700D03*
X77931200Y15846700D03*
%TD*%
%TO.C,D24*%
X93631200Y30846700D03*
X96931200Y30846700D03*
%TD*%
M02*
