%TF.GenerationSoftware,KiCad,Pcbnew,(6.0.9-0)*%
%TF.CreationDate,2023-01-27T10:49:12-06:00*%
%TF.ProjectId,boardv3,626f6172-6476-4332-9e6b-696361645f70,v1.0.0*%
%TF.SameCoordinates,Original*%
%TF.FileFunction,Legend,Bot*%
%TF.FilePolarity,Positive*%
%FSLAX46Y46*%
G04 Gerber Fmt 4.6, Leading zero omitted, Abs format (unit mm)*
G04 Created by KiCad (PCBNEW (6.0.9-0)) date 2023-01-27 10:49:12*
%MOMM*%
%LPD*%
G01*
G04 APERTURE LIST*
%ADD10C,0.000000*%
%ADD11C,0.150000*%
%ADD12C,0.100000*%
G04 APERTURE END LIST*
D10*
G36*
X21562568Y-39333754D02*
G01*
X21559532Y-39334187D01*
X21562177Y-39331541D01*
X21562568Y-39333754D01*
G37*
G36*
X51132310Y-23769082D02*
G01*
X51151792Y-23770096D01*
X51459367Y-23788203D01*
X51766945Y-23803830D01*
X52382101Y-23833596D01*
X53101770Y-23875929D01*
X53101770Y-24053200D01*
X53059477Y-24062625D01*
X53019417Y-24071059D01*
X52980845Y-24078500D01*
X52961884Y-24081849D01*
X52943017Y-24084950D01*
X52864934Y-24099512D01*
X52792365Y-24117485D01*
X52725246Y-24138993D01*
X52693709Y-24151111D01*
X52663510Y-24164159D01*
X52634640Y-24178153D01*
X52607092Y-24193108D01*
X52580856Y-24209040D01*
X52555925Y-24225964D01*
X52532290Y-24243896D01*
X52509944Y-24262851D01*
X52488877Y-24282845D01*
X52469083Y-24303892D01*
X52450552Y-24326010D01*
X52433276Y-24349213D01*
X52417247Y-24373516D01*
X52402456Y-24398936D01*
X52388897Y-24425487D01*
X52376559Y-24453186D01*
X52365436Y-24482047D01*
X52355519Y-24512086D01*
X52346799Y-24543320D01*
X52339268Y-24575762D01*
X52332919Y-24609429D01*
X52327743Y-24644337D01*
X52320875Y-24717934D01*
X52318601Y-24796679D01*
X52315957Y-29654429D01*
X52317707Y-29715219D01*
X52323006Y-29771662D01*
X52327011Y-29798289D01*
X52331933Y-29823872D01*
X52337781Y-29848426D01*
X52344565Y-29871966D01*
X52352295Y-29894506D01*
X52360980Y-29916060D01*
X52370630Y-29936644D01*
X52381255Y-29956271D01*
X52392864Y-29974956D01*
X52405468Y-29992714D01*
X52419075Y-30009560D01*
X52433696Y-30025507D01*
X52449340Y-30040571D01*
X52466017Y-30054765D01*
X52483736Y-30068105D01*
X52502508Y-30080604D01*
X52522342Y-30092279D01*
X52543247Y-30103142D01*
X52565234Y-30113209D01*
X52588312Y-30122493D01*
X52612490Y-30131011D01*
X52637779Y-30138775D01*
X52691727Y-30152104D01*
X52750233Y-30162596D01*
X52813375Y-30170366D01*
X52833466Y-30172971D01*
X52842954Y-30174738D01*
X52852069Y-30176815D01*
X52860813Y-30179203D01*
X52869184Y-30181900D01*
X52877183Y-30184908D01*
X52884810Y-30188226D01*
X52892066Y-30191853D01*
X52898949Y-30195791D01*
X52905460Y-30200039D01*
X52911599Y-30204597D01*
X52917366Y-30209464D01*
X52922760Y-30214642D01*
X52927783Y-30220130D01*
X52932434Y-30225929D01*
X52936713Y-30232037D01*
X52940619Y-30238455D01*
X52944154Y-30245183D01*
X52947316Y-30252221D01*
X52950107Y-30259570D01*
X52952525Y-30267228D01*
X52954572Y-30275197D01*
X52956246Y-30283475D01*
X52957548Y-30292064D01*
X52958478Y-30300963D01*
X52959037Y-30310172D01*
X52959223Y-30319690D01*
X52959037Y-30329519D01*
X52958479Y-30339658D01*
X52956247Y-30360866D01*
X52950960Y-30355574D01*
X50461229Y-30355574D01*
X50453730Y-30332122D01*
X50450687Y-30321023D01*
X50448119Y-30310332D01*
X50446029Y-30300037D01*
X50444422Y-30290131D01*
X50443300Y-30280603D01*
X50442667Y-30271445D01*
X50442526Y-30262648D01*
X50442881Y-30254202D01*
X50443734Y-30246097D01*
X50445091Y-30238326D01*
X50446953Y-30230878D01*
X50449324Y-30223745D01*
X50452207Y-30216917D01*
X50455607Y-30210385D01*
X50459526Y-30204139D01*
X50463968Y-30198171D01*
X50468935Y-30192472D01*
X50474433Y-30187032D01*
X50480463Y-30181842D01*
X50487029Y-30176892D01*
X50494136Y-30172175D01*
X50501785Y-30167679D01*
X50509981Y-30163397D01*
X50518726Y-30159319D01*
X50528025Y-30155435D01*
X50537881Y-30151737D01*
X50559275Y-30144861D01*
X50582937Y-30138616D01*
X50640014Y-30123981D01*
X50692286Y-30107729D01*
X50739906Y-30089671D01*
X50762020Y-30079906D01*
X50783030Y-30069618D01*
X50802955Y-30058783D01*
X50821814Y-30047378D01*
X50839626Y-30035379D01*
X50856411Y-30022763D01*
X50872189Y-30009505D01*
X50886978Y-29995582D01*
X50900798Y-29980969D01*
X50913669Y-29965645D01*
X50925610Y-29949584D01*
X50936639Y-29932762D01*
X50946777Y-29915157D01*
X50956044Y-29896744D01*
X50964457Y-29877500D01*
X50972037Y-29857401D01*
X50978804Y-29836423D01*
X50984776Y-29814543D01*
X50989972Y-29791736D01*
X50994413Y-29767979D01*
X51001105Y-29717520D01*
X51005007Y-29662976D01*
X51006273Y-29604158D01*
X51006273Y-27312867D01*
X51006116Y-27303326D01*
X51005642Y-27293596D01*
X51004843Y-27283735D01*
X51003710Y-27273799D01*
X51002235Y-27263848D01*
X51000413Y-27253940D01*
X50998233Y-27244132D01*
X50995689Y-27234484D01*
X50992773Y-27225052D01*
X50989478Y-27215896D01*
X50985795Y-27207073D01*
X50981716Y-27198641D01*
X50977234Y-27190659D01*
X50972342Y-27183185D01*
X50967031Y-27176276D01*
X50964216Y-27173052D01*
X50961294Y-27169992D01*
X50868112Y-27073584D01*
X50821118Y-27025442D01*
X50773442Y-26978169D01*
X50724773Y-26932383D01*
X50699969Y-26910243D01*
X50674802Y-26888706D01*
X50649231Y-26867852D01*
X50623218Y-26847758D01*
X50596724Y-26828501D01*
X50569711Y-26810158D01*
X50521194Y-26780014D01*
X50471909Y-26752183D01*
X50421895Y-26726809D01*
X50371192Y-26704036D01*
X50319837Y-26684007D01*
X50267870Y-26666865D01*
X50215330Y-26652754D01*
X50162255Y-26641817D01*
X50108683Y-26634198D01*
X50054655Y-26630040D01*
X50000207Y-26629487D01*
X49945380Y-26632681D01*
X49890211Y-26639766D01*
X49834741Y-26650886D01*
X49779006Y-26666184D01*
X49723047Y-26685804D01*
X49691292Y-26699209D01*
X49660994Y-26713609D01*
X49632124Y-26728975D01*
X49604651Y-26745278D01*
X49578544Y-26762491D01*
X49553772Y-26780583D01*
X49530306Y-26799527D01*
X49508114Y-26819295D01*
X49487167Y-26839856D01*
X49467433Y-26861184D01*
X49448882Y-26883249D01*
X49431483Y-26906023D01*
X49400022Y-26953583D01*
X49372805Y-27003635D01*
X49349587Y-27055950D01*
X49330125Y-27110300D01*
X49314174Y-27166456D01*
X49301491Y-27224190D01*
X49291831Y-27283272D01*
X49284949Y-27343474D01*
X49280603Y-27404568D01*
X49278547Y-27466325D01*
X49271808Y-28032285D01*
X49270278Y-28598741D01*
X49275899Y-29731158D01*
X49277422Y-29781087D01*
X49279329Y-29804812D01*
X49282002Y-29827721D01*
X49285445Y-29849819D01*
X49289660Y-29871115D01*
X49294649Y-29891614D01*
X49300415Y-29911323D01*
X49306959Y-29930249D01*
X49314285Y-29948399D01*
X49322395Y-29965780D01*
X49331291Y-29982398D01*
X49340976Y-29998261D01*
X49351452Y-30013375D01*
X49362722Y-30027746D01*
X49374788Y-30041382D01*
X49387652Y-30054289D01*
X49401317Y-30066475D01*
X49415785Y-30077945D01*
X49431058Y-30088707D01*
X49447140Y-30098768D01*
X49464033Y-30108134D01*
X49481738Y-30116811D01*
X49500259Y-30124808D01*
X49519597Y-30132131D01*
X49539756Y-30138785D01*
X49560737Y-30144779D01*
X49582543Y-30150119D01*
X49628641Y-30158864D01*
X49678068Y-30165074D01*
X49705624Y-30168057D01*
X49729848Y-30171198D01*
X49750877Y-30174719D01*
X49768853Y-30178841D01*
X49776739Y-30181196D01*
X49783914Y-30183784D01*
X49790395Y-30186633D01*
X49796200Y-30189771D01*
X49801346Y-30193224D01*
X49805850Y-30197020D01*
X49809731Y-30201188D01*
X49813004Y-30205754D01*
X49815689Y-30210747D01*
X49817802Y-30216193D01*
X49819361Y-30222122D01*
X49820383Y-30228559D01*
X49820886Y-30235533D01*
X49820887Y-30243072D01*
X49820403Y-30251202D01*
X49819453Y-30259952D01*
X49816220Y-30279422D01*
X49811329Y-30301702D01*
X49804918Y-30327012D01*
X49797128Y-30355574D01*
X47291524Y-30355574D01*
X47301613Y-30339947D01*
X47311089Y-30324811D01*
X47328484Y-30296002D01*
X47358994Y-30244119D01*
X47373225Y-30220983D01*
X47380330Y-30210104D01*
X47387519Y-30199677D01*
X47394864Y-30189701D01*
X47402433Y-30180169D01*
X47410297Y-30171080D01*
X47418525Y-30162429D01*
X47446686Y-30134414D01*
X47475513Y-30106856D01*
X47534610Y-30052709D01*
X47654665Y-29945470D01*
X47713390Y-29890766D01*
X47741939Y-29862789D01*
X47769759Y-29834263D01*
X47796710Y-29805085D01*
X47822655Y-29775155D01*
X47847451Y-29744373D01*
X47870962Y-29712637D01*
X47973156Y-29559256D01*
X48062572Y-29404723D01*
X48139392Y-29249067D01*
X48203799Y-29092313D01*
X48255973Y-28934490D01*
X48296097Y-28775624D01*
X48324354Y-28615743D01*
X48340926Y-28454874D01*
X48345995Y-28293043D01*
X48339742Y-28130279D01*
X48322351Y-27966607D01*
X48294003Y-27802056D01*
X48254881Y-27636652D01*
X48205167Y-27470423D01*
X48145042Y-27303395D01*
X48074689Y-27135595D01*
X48066586Y-27117173D01*
X48058483Y-27097851D01*
X48050876Y-27077971D01*
X48047414Y-27067928D01*
X48044261Y-27057874D01*
X48041481Y-27047851D01*
X48039135Y-27037901D01*
X48037285Y-27028068D01*
X48035994Y-27018393D01*
X48035322Y-27008920D01*
X48035333Y-26999692D01*
X48036088Y-26990750D01*
X48036763Y-26986400D01*
X48037649Y-26982137D01*
X48059057Y-26905453D01*
X48083651Y-26831273D01*
X48111517Y-26759744D01*
X48142738Y-26691013D01*
X48177401Y-26625227D01*
X48215591Y-26562535D01*
X48257393Y-26503082D01*
X48302893Y-26447017D01*
X48352175Y-26394487D01*
X48378262Y-26369593D01*
X48405326Y-26345638D01*
X48433378Y-26322641D01*
X48462429Y-26300619D01*
X48492490Y-26279592D01*
X48523572Y-26259577D01*
X48555684Y-26240592D01*
X48588838Y-26222658D01*
X48623044Y-26205791D01*
X48658313Y-26190010D01*
X48694655Y-26175333D01*
X48732082Y-26161780D01*
X48770604Y-26149368D01*
X48810232Y-26138116D01*
X48910744Y-26113580D01*
X49010834Y-26093633D01*
X49110451Y-26078399D01*
X49209545Y-26068002D01*
X49308065Y-26062565D01*
X49405962Y-26062214D01*
X49503184Y-26067071D01*
X49599681Y-26077262D01*
X49695404Y-26092910D01*
X49790300Y-26114138D01*
X49884321Y-26141072D01*
X49977415Y-26173835D01*
X50069533Y-26212551D01*
X50160623Y-26257344D01*
X50250636Y-26308338D01*
X50339521Y-26365658D01*
X50371498Y-26388341D01*
X50402975Y-26411691D01*
X50434010Y-26435630D01*
X50464662Y-26460081D01*
X50525046Y-26510207D01*
X50584593Y-26561449D01*
X50703035Y-26664802D01*
X50762861Y-26715673D01*
X50823709Y-26765179D01*
X50832329Y-26771917D01*
X50841325Y-26778284D01*
X50850702Y-26784340D01*
X50860461Y-26790149D01*
X50870609Y-26795771D01*
X50881148Y-26801269D01*
X50903415Y-26812142D01*
X50952818Y-26835128D01*
X50980014Y-26848233D01*
X51008916Y-26863074D01*
X51008916Y-26667283D01*
X51010902Y-25286158D01*
X51008916Y-23905033D01*
X51009329Y-23885118D01*
X51010606Y-23867004D01*
X51011587Y-23858606D01*
X51012805Y-23850635D01*
X51014269Y-23843087D01*
X51015985Y-23835952D01*
X51017961Y-23829225D01*
X51020204Y-23822897D01*
X51022721Y-23816961D01*
X51025519Y-23811411D01*
X51028607Y-23806239D01*
X51031990Y-23801437D01*
X51035676Y-23796998D01*
X51039673Y-23792916D01*
X51043988Y-23789182D01*
X51048628Y-23785790D01*
X51053600Y-23782733D01*
X51058912Y-23780002D01*
X51064571Y-23777591D01*
X51070584Y-23775493D01*
X51076959Y-23773699D01*
X51083702Y-23772204D01*
X51090821Y-23770999D01*
X51098323Y-23770078D01*
X51106216Y-23769433D01*
X51114506Y-23769057D01*
X51132310Y-23769082D01*
G37*
G36*
X34058605Y-28500122D02*
G01*
X34063218Y-28415898D01*
X34065369Y-28331347D01*
X34065180Y-28246487D01*
X34062770Y-28161332D01*
X34058260Y-28075898D01*
X34051769Y-27990200D01*
X34050220Y-27972766D01*
X34049546Y-27956145D01*
X34049757Y-27940284D01*
X34050196Y-27932622D01*
X34050859Y-27925129D01*
X34051746Y-27917799D01*
X34052860Y-27910625D01*
X34054200Y-27903600D01*
X34055768Y-27896717D01*
X34057564Y-27889970D01*
X34059590Y-27883352D01*
X34061847Y-27876856D01*
X34064335Y-27870476D01*
X34067056Y-27864204D01*
X34070010Y-27858033D01*
X34073199Y-27851958D01*
X34076624Y-27845971D01*
X34080284Y-27840065D01*
X34084183Y-27834234D01*
X34092695Y-27822768D01*
X34102169Y-27811519D01*
X34112611Y-27800434D01*
X34124030Y-27789456D01*
X34136434Y-27778533D01*
X34212816Y-27717415D01*
X34291086Y-27660912D01*
X34371146Y-27608805D01*
X34452900Y-27560872D01*
X34536251Y-27516892D01*
X34621101Y-27476645D01*
X34707355Y-27439909D01*
X34794915Y-27406463D01*
X34883684Y-27376087D01*
X34973565Y-27348560D01*
X35064462Y-27323660D01*
X35156278Y-27301167D01*
X35248915Y-27280860D01*
X35342277Y-27262518D01*
X35530788Y-27230846D01*
X35542332Y-27229165D01*
X35554058Y-27227942D01*
X35577545Y-27225967D01*
X35589050Y-27224767D01*
X35600225Y-27223125D01*
X35605650Y-27222068D01*
X35610944Y-27220817D01*
X35616091Y-27219342D01*
X35621077Y-27217617D01*
X35625884Y-27215612D01*
X35630497Y-27213300D01*
X35634899Y-27210653D01*
X35639076Y-27207643D01*
X35643010Y-27204241D01*
X35646686Y-27200420D01*
X35650087Y-27196151D01*
X35653199Y-27191406D01*
X35656004Y-27186158D01*
X35658487Y-27180377D01*
X35660632Y-27174037D01*
X35662423Y-27167108D01*
X35663844Y-27159563D01*
X35664878Y-27151374D01*
X35665511Y-27142512D01*
X35665725Y-27132950D01*
X35665465Y-27117158D01*
X35664640Y-27102482D01*
X35663179Y-27088860D01*
X35662188Y-27082425D01*
X35661012Y-27076230D01*
X35659643Y-27070268D01*
X35658071Y-27064530D01*
X35656288Y-27059010D01*
X35654284Y-27053699D01*
X35652052Y-27048590D01*
X35649583Y-27043674D01*
X35646868Y-27038944D01*
X35643897Y-27034393D01*
X35642432Y-27032408D01*
X37337892Y-27032408D01*
X37337894Y-27027116D01*
X37337892Y-27027116D01*
X37337892Y-27032408D01*
X35642432Y-27032408D01*
X35640664Y-27030012D01*
X35637158Y-27025794D01*
X35633371Y-27021731D01*
X35629294Y-27017815D01*
X35624919Y-27014039D01*
X35620236Y-27010394D01*
X35615238Y-27006874D01*
X35609915Y-27003470D01*
X35604259Y-27000174D01*
X35598261Y-26996979D01*
X35591912Y-26993877D01*
X35585204Y-26990861D01*
X35570674Y-26985052D01*
X35554601Y-26979492D01*
X35325819Y-26901936D01*
X35211459Y-26862290D01*
X35097533Y-26821403D01*
X34984351Y-26778780D01*
X34872224Y-26733925D01*
X34761460Y-26686342D01*
X34652372Y-26635533D01*
X34596358Y-26606605D01*
X34542471Y-26575382D01*
X34490794Y-26541865D01*
X34441407Y-26506053D01*
X34394393Y-26467947D01*
X34349831Y-26427546D01*
X34307805Y-26384851D01*
X34268394Y-26339861D01*
X34231681Y-26292578D01*
X34197747Y-26242999D01*
X34166673Y-26191126D01*
X34138541Y-26136959D01*
X34113432Y-26080498D01*
X34091428Y-26021741D01*
X34072609Y-25960691D01*
X34057058Y-25897346D01*
X34045466Y-25836959D01*
X34038944Y-25793719D01*
X35576729Y-25793719D01*
X35578509Y-25853217D01*
X35582697Y-25911847D01*
X35589262Y-25969555D01*
X35598175Y-26026288D01*
X35609406Y-26081995D01*
X35622924Y-26136622D01*
X35638700Y-26190116D01*
X35656704Y-26242425D01*
X35676905Y-26293496D01*
X35699274Y-26343275D01*
X35723780Y-26391710D01*
X35750393Y-26438749D01*
X35779084Y-26484338D01*
X35809823Y-26528425D01*
X35842578Y-26570957D01*
X35877321Y-26611881D01*
X35914021Y-26651144D01*
X35952648Y-26688693D01*
X35993173Y-26724476D01*
X36035565Y-26758440D01*
X36079793Y-26790532D01*
X36125829Y-26820699D01*
X36173642Y-26848889D01*
X36223202Y-26875048D01*
X36274479Y-26899124D01*
X36327442Y-26921064D01*
X36382063Y-26940815D01*
X36438310Y-26958325D01*
X36490256Y-26972241D01*
X36542821Y-26984328D01*
X36595882Y-26994741D01*
X36649316Y-27003635D01*
X36702997Y-27011164D01*
X36756803Y-27017484D01*
X36810608Y-27022750D01*
X36864290Y-27027116D01*
X36921754Y-27029395D01*
X36979219Y-27030465D01*
X37036931Y-27030605D01*
X37095139Y-27030093D01*
X37214036Y-27028233D01*
X37337892Y-27027116D01*
X37337892Y-26254533D01*
X37335908Y-25495179D01*
X37335660Y-25115254D01*
X37337892Y-24735825D01*
X37337569Y-24717652D01*
X37336548Y-24700824D01*
X37334753Y-24685322D01*
X37333540Y-24678062D01*
X37332104Y-24671126D01*
X37330436Y-24664512D01*
X37328526Y-24658216D01*
X37326364Y-24652238D01*
X37323940Y-24646574D01*
X37321245Y-24641223D01*
X37318268Y-24636180D01*
X37315001Y-24631445D01*
X37311434Y-24627015D01*
X37307557Y-24622887D01*
X37303360Y-24619059D01*
X37298833Y-24615528D01*
X37293968Y-24612292D01*
X37288753Y-24609349D01*
X37283180Y-24606696D01*
X37277239Y-24604331D01*
X37270920Y-24602252D01*
X37264213Y-24600455D01*
X37257109Y-24598938D01*
X37249598Y-24597700D01*
X37241671Y-24596738D01*
X37233317Y-24596048D01*
X37224527Y-24595630D01*
X37215291Y-24595480D01*
X37205600Y-24595596D01*
X37117078Y-24597151D01*
X37028247Y-24596629D01*
X36850398Y-24593942D01*
X36761753Y-24594071D01*
X36673541Y-24596712D01*
X36629656Y-24599332D01*
X36585950Y-24603011D01*
X36542444Y-24607891D01*
X36499164Y-24614116D01*
X36400112Y-24632977D01*
X36307269Y-24656853D01*
X36220518Y-24685798D01*
X36179391Y-24702189D01*
X36139744Y-24719867D01*
X36101562Y-24738840D01*
X36064830Y-24759114D01*
X36029534Y-24780696D01*
X35995660Y-24803593D01*
X35963192Y-24827812D01*
X35932117Y-24853359D01*
X35902420Y-24880241D01*
X35874086Y-24908465D01*
X35847101Y-24938038D01*
X35821450Y-24968967D01*
X35797118Y-25001258D01*
X35774092Y-25034918D01*
X35752357Y-25069953D01*
X35731897Y-25106372D01*
X35712699Y-25144180D01*
X35694748Y-25183384D01*
X35662529Y-25266008D01*
X35635124Y-25354299D01*
X35612416Y-25448310D01*
X35594289Y-25548095D01*
X35586137Y-25610540D01*
X35580514Y-25672328D01*
X35577388Y-25733405D01*
X35576729Y-25793719D01*
X34038944Y-25793719D01*
X34036477Y-25777363D01*
X34030072Y-25718587D01*
X34026233Y-25660663D01*
X34024942Y-25603620D01*
X34026182Y-25547489D01*
X34029934Y-25492302D01*
X34036181Y-25438087D01*
X34044904Y-25384877D01*
X34056086Y-25332700D01*
X34069709Y-25281589D01*
X34085754Y-25231573D01*
X34104205Y-25182683D01*
X34125042Y-25134949D01*
X34148248Y-25088402D01*
X34173806Y-25043073D01*
X34201696Y-24998991D01*
X34231902Y-24956188D01*
X34264405Y-24914695D01*
X34299188Y-24874540D01*
X34336232Y-24835756D01*
X34375520Y-24798372D01*
X34417033Y-24762420D01*
X34460754Y-24727929D01*
X34506665Y-24694930D01*
X34554748Y-24663454D01*
X34604985Y-24633532D01*
X34657357Y-24605192D01*
X34711848Y-24578468D01*
X34768439Y-24553387D01*
X34827112Y-24529983D01*
X34887849Y-24508284D01*
X34964957Y-24483560D01*
X35042471Y-24460938D01*
X35120365Y-24440346D01*
X35198612Y-24421715D01*
X35277184Y-24404976D01*
X35356055Y-24390058D01*
X35514582Y-24365409D01*
X35673978Y-24347208D01*
X35834025Y-24334899D01*
X35994506Y-24327923D01*
X36155204Y-24325721D01*
X39639768Y-24325721D01*
X39639768Y-24516221D01*
X39333515Y-24601880D01*
X39258967Y-24623217D01*
X39185100Y-24645330D01*
X39111854Y-24668620D01*
X39039165Y-24693492D01*
X39007265Y-24706172D01*
X38977066Y-24720395D01*
X38948596Y-24736152D01*
X38921881Y-24753437D01*
X38896949Y-24772240D01*
X38873827Y-24792556D01*
X38852543Y-24814375D01*
X38833122Y-24837690D01*
X38815593Y-24862493D01*
X38799982Y-24888777D01*
X38786317Y-24916534D01*
X38774624Y-24945756D01*
X38764932Y-24976435D01*
X38757266Y-25008563D01*
X38751655Y-25042133D01*
X38748125Y-25077138D01*
X38744238Y-25129145D01*
X38740848Y-25181648D01*
X38739494Y-25207931D01*
X38738450Y-25234151D01*
X38737778Y-25260248D01*
X38737541Y-25286159D01*
X38737541Y-29530075D01*
X38740252Y-29594429D01*
X38746455Y-29654604D01*
X38750891Y-29683157D01*
X38756231Y-29710703D01*
X38762485Y-29737255D01*
X38769662Y-29762825D01*
X38777774Y-29787427D01*
X38786830Y-29811072D01*
X38796840Y-29833773D01*
X38807815Y-29855543D01*
X38819764Y-29876395D01*
X38832699Y-29896340D01*
X38846629Y-29915393D01*
X38861563Y-29933564D01*
X38877514Y-29950867D01*
X38894490Y-29967315D01*
X38912501Y-29982920D01*
X38931559Y-29997695D01*
X38951673Y-30011651D01*
X38972853Y-30024803D01*
X38995110Y-30037162D01*
X39018453Y-30048740D01*
X39042893Y-30059552D01*
X39068440Y-30069609D01*
X39095105Y-30078923D01*
X39122896Y-30087508D01*
X39181902Y-30102539D01*
X39245540Y-30114803D01*
X39293123Y-30123154D01*
X39340459Y-30132001D01*
X39387298Y-30140848D01*
X39433393Y-30149199D01*
X39433393Y-30371449D01*
X39433389Y-30368805D01*
X38906869Y-30368805D01*
X37267776Y-30350945D01*
X36448229Y-30339039D01*
X35628683Y-30321179D01*
X35546521Y-30317521D01*
X35464755Y-30311511D01*
X35383407Y-30303151D01*
X35302501Y-30292447D01*
X35222061Y-30279402D01*
X35142108Y-30264020D01*
X35062667Y-30246304D01*
X34983761Y-30226260D01*
X34905413Y-30203890D01*
X34827647Y-30179198D01*
X34750484Y-30152189D01*
X34673950Y-30122866D01*
X34598067Y-30091233D01*
X34522858Y-30057294D01*
X34448347Y-30021052D01*
X34374557Y-29982513D01*
X34333881Y-29959658D01*
X34294221Y-29935730D01*
X34255600Y-29910709D01*
X34218040Y-29884575D01*
X34181566Y-29857310D01*
X34146200Y-29828894D01*
X34111966Y-29799307D01*
X34078886Y-29768531D01*
X34046985Y-29736545D01*
X34016286Y-29703331D01*
X33986811Y-29668868D01*
X33958584Y-29633139D01*
X33931628Y-29596122D01*
X33905967Y-29557799D01*
X33881624Y-29518151D01*
X33858621Y-29477158D01*
X33854404Y-29468894D01*
X33850684Y-29460033D01*
X33847459Y-29450660D01*
X33844731Y-29440861D01*
X33842498Y-29430721D01*
X33840762Y-29420325D01*
X33839522Y-29409758D01*
X33838778Y-29399106D01*
X33838530Y-29388455D01*
X33838778Y-29377888D01*
X33839522Y-29367492D01*
X33840762Y-29357352D01*
X33842498Y-29347553D01*
X33844731Y-29338180D01*
X33847460Y-29329318D01*
X33850685Y-29321054D01*
X33886516Y-29240938D01*
X33918686Y-29160340D01*
X33947313Y-29079278D01*
X33972517Y-28997766D01*
X33994420Y-28915820D01*
X34013140Y-28833456D01*
X34028799Y-28750688D01*
X34041516Y-28667533D01*
X35282081Y-28667533D01*
X35286314Y-28800791D01*
X35290412Y-28866829D01*
X35296096Y-28932405D01*
X35303563Y-28997471D01*
X35313010Y-29061974D01*
X35324635Y-29125864D01*
X35338637Y-29189092D01*
X35355211Y-29251607D01*
X35374557Y-29313359D01*
X35396871Y-29374296D01*
X35422352Y-29434370D01*
X35451197Y-29493528D01*
X35483604Y-29551722D01*
X35519771Y-29608900D01*
X35559894Y-29665012D01*
X35591644Y-29705106D01*
X35625311Y-29743519D01*
X35660801Y-29780228D01*
X35698015Y-29815209D01*
X35736857Y-29848441D01*
X35777230Y-29879900D01*
X35862181Y-29937409D01*
X35952093Y-29987553D01*
X36046191Y-30030152D01*
X36143699Y-30065023D01*
X36243843Y-30091983D01*
X36345847Y-30110851D01*
X36448936Y-30121444D01*
X36552336Y-30123580D01*
X36655270Y-30117077D01*
X36756964Y-30101753D01*
X36807104Y-30090727D01*
X36856643Y-30077426D01*
X36905484Y-30061829D01*
X36953531Y-30043913D01*
X37000686Y-30023655D01*
X37046853Y-30001033D01*
X37082068Y-29981673D01*
X37115252Y-29961247D01*
X37146359Y-29939682D01*
X37175342Y-29916904D01*
X37202154Y-29892839D01*
X37226749Y-29867413D01*
X37249081Y-29840554D01*
X37269103Y-29812187D01*
X37286769Y-29782238D01*
X37302031Y-29750635D01*
X37314845Y-29717303D01*
X37325162Y-29682169D01*
X37332937Y-29645159D01*
X37338123Y-29606199D01*
X37340673Y-29565217D01*
X37340541Y-29522137D01*
X37336629Y-29398000D01*
X37334546Y-29273677D01*
X37334256Y-29024720D01*
X37337894Y-28527304D01*
X37343185Y-28529949D01*
X37341201Y-27991853D01*
X37340953Y-27723673D01*
X37343185Y-27455741D01*
X37342774Y-27437191D01*
X37341511Y-27420203D01*
X37340544Y-27412279D01*
X37339348Y-27404727D01*
X37337915Y-27397540D01*
X37336239Y-27390712D01*
X37334316Y-27384236D01*
X37332139Y-27378107D01*
X37329702Y-27372318D01*
X37326999Y-27366863D01*
X37324026Y-27361735D01*
X37320775Y-27356929D01*
X37317241Y-27352437D01*
X37313419Y-27348254D01*
X37309302Y-27344374D01*
X37304884Y-27340789D01*
X37300161Y-27337494D01*
X37295125Y-27334482D01*
X37289772Y-27331748D01*
X37284095Y-27329284D01*
X37278089Y-27327085D01*
X37271747Y-27325144D01*
X37265064Y-27323456D01*
X37258035Y-27322012D01*
X37250652Y-27320808D01*
X37242912Y-27319837D01*
X37226332Y-27318569D01*
X37208248Y-27318158D01*
X36952800Y-27313404D01*
X36825526Y-27312902D01*
X36698593Y-27315843D01*
X36635264Y-27319117D01*
X36572032Y-27323868D01*
X36508901Y-27330301D01*
X36445875Y-27338622D01*
X36382957Y-27349035D01*
X36320151Y-27361747D01*
X36257462Y-27376962D01*
X36194892Y-27394887D01*
X36089472Y-27432608D01*
X35989634Y-27477135D01*
X35895562Y-27528204D01*
X35807443Y-27585552D01*
X35725464Y-27648915D01*
X35649810Y-27718030D01*
X35580667Y-27792633D01*
X35518221Y-27872460D01*
X35462658Y-27957248D01*
X35414165Y-28046733D01*
X35372928Y-28140653D01*
X35339131Y-28238742D01*
X35312963Y-28340739D01*
X35294607Y-28446378D01*
X35284251Y-28555397D01*
X35282081Y-28667533D01*
X34041516Y-28667533D01*
X34051411Y-28584006D01*
X34058605Y-28500122D01*
G37*
G36*
X21821153Y-26087757D02*
G01*
X21878605Y-26091938D01*
X21935476Y-26099033D01*
X21991730Y-26109012D01*
X22047333Y-26121843D01*
X22102250Y-26137496D01*
X22156447Y-26155939D01*
X22209887Y-26177142D01*
X22262537Y-26201073D01*
X22314362Y-26227702D01*
X22365326Y-26256998D01*
X22415394Y-26288929D01*
X22452271Y-26314213D01*
X22488532Y-26340393D01*
X22524242Y-26367371D01*
X22559468Y-26395051D01*
X22628730Y-26452128D01*
X22696845Y-26510848D01*
X22831741Y-26630117D01*
X22899576Y-26689116D01*
X22968373Y-26746658D01*
X22988625Y-26762104D01*
X23009839Y-26776961D01*
X23032230Y-26791632D01*
X23056017Y-26806519D01*
X23108644Y-26838559D01*
X23137918Y-26856516D01*
X23169456Y-26876303D01*
X23171441Y-26545244D01*
X23171689Y-26395961D01*
X23170976Y-26323536D01*
X23169456Y-26251887D01*
X23169370Y-26234854D01*
X23170128Y-26219434D01*
X23170836Y-26212309D01*
X23171770Y-26205564D01*
X23172935Y-26199191D01*
X23174335Y-26193182D01*
X23175975Y-26187530D01*
X23177860Y-26182227D01*
X23179996Y-26177265D01*
X23182386Y-26172636D01*
X23185036Y-26168332D01*
X23187950Y-26164347D01*
X23191134Y-26160671D01*
X23194592Y-26157298D01*
X23198329Y-26154219D01*
X23202350Y-26151428D01*
X23206660Y-26148915D01*
X23211263Y-26146673D01*
X23216164Y-26144696D01*
X23221369Y-26142973D01*
X23226882Y-26141499D01*
X23232708Y-26140266D01*
X23238852Y-26139264D01*
X23245319Y-26138488D01*
X23259239Y-26137578D01*
X23274508Y-26137475D01*
X23291165Y-26138116D01*
X24004217Y-26178796D01*
X24717268Y-26217491D01*
X24830295Y-26224312D01*
X24942826Y-26232374D01*
X25164414Y-26249241D01*
X25170922Y-26273564D01*
X25173472Y-26285010D01*
X25175550Y-26295993D01*
X25177154Y-26306524D01*
X25178280Y-26316615D01*
X25178926Y-26326276D01*
X25179090Y-26335520D01*
X25178770Y-26344357D01*
X25177963Y-26352797D01*
X25176667Y-26360853D01*
X25174879Y-26368536D01*
X25172596Y-26375856D01*
X25169818Y-26382825D01*
X25166540Y-26389454D01*
X25162760Y-26395754D01*
X25158477Y-26401736D01*
X25153688Y-26407412D01*
X25148390Y-26412791D01*
X25142581Y-26417887D01*
X25136258Y-26422709D01*
X25129419Y-26427270D01*
X25122062Y-26431579D01*
X25114184Y-26435648D01*
X25105783Y-26439489D01*
X25096857Y-26443112D01*
X25087402Y-26446529D01*
X25077417Y-26449751D01*
X25055845Y-26455653D01*
X25032122Y-26460908D01*
X24998824Y-26468129D01*
X24966405Y-26476389D01*
X24934878Y-26485669D01*
X24904254Y-26495955D01*
X24874545Y-26507228D01*
X24845762Y-26519474D01*
X24817916Y-26532675D01*
X24791021Y-26546815D01*
X24765086Y-26561877D01*
X24740125Y-26577845D01*
X24716147Y-26594703D01*
X24693166Y-26612433D01*
X24671193Y-26631020D01*
X24650239Y-26650448D01*
X24630316Y-26670699D01*
X24611435Y-26691757D01*
X24593608Y-26713605D01*
X24576848Y-26736228D01*
X24561165Y-26759609D01*
X24546571Y-26783730D01*
X24533077Y-26808577D01*
X24520696Y-26834132D01*
X24509439Y-26860378D01*
X24499318Y-26887300D01*
X24490343Y-26914881D01*
X24482528Y-26943104D01*
X24475883Y-26971953D01*
X24470420Y-27001412D01*
X24466151Y-27031464D01*
X24463087Y-27062092D01*
X24461240Y-27093280D01*
X24460622Y-27125012D01*
X24460622Y-29731157D01*
X24461189Y-29759643D01*
X24462927Y-29787521D01*
X24465889Y-29814740D01*
X24470131Y-29841249D01*
X24475705Y-29866999D01*
X24482668Y-29891939D01*
X24486686Y-29904089D01*
X24491072Y-29916018D01*
X24495831Y-29927719D01*
X24500971Y-29939186D01*
X24506499Y-29950413D01*
X24512422Y-29961394D01*
X24518745Y-29972121D01*
X24525477Y-29982589D01*
X24532623Y-29992792D01*
X24540190Y-30002723D01*
X24548186Y-30012376D01*
X24556617Y-30021745D01*
X24565490Y-30030822D01*
X24574811Y-30039603D01*
X24584588Y-30048081D01*
X24594827Y-30056249D01*
X24605534Y-30064101D01*
X24616718Y-30071631D01*
X24628384Y-30078832D01*
X24640540Y-30085699D01*
X24653596Y-30093249D01*
X24665986Y-30101014D01*
X24677728Y-30108994D01*
X24688836Y-30117186D01*
X24699329Y-30125589D01*
X24709221Y-30134202D01*
X24718531Y-30143024D01*
X24727273Y-30152052D01*
X24735465Y-30161286D01*
X24743123Y-30170723D01*
X24750264Y-30180363D01*
X24756904Y-30190205D01*
X24768747Y-30210485D01*
X24778784Y-30231551D01*
X24787146Y-30253393D01*
X24793966Y-30275998D01*
X24799375Y-30299355D01*
X24803506Y-30323453D01*
X24806489Y-30348279D01*
X24808456Y-30373822D01*
X24809540Y-30400070D01*
X24809872Y-30427012D01*
X22394227Y-30427012D01*
X22385793Y-30371615D01*
X22376368Y-30315226D01*
X22354930Y-30193746D01*
X22528173Y-30169044D01*
X22610483Y-30156972D01*
X22650723Y-30150626D01*
X22690560Y-30143908D01*
X22753959Y-30130921D01*
X22812284Y-30115662D01*
X22865672Y-30097969D01*
X22890556Y-30088159D01*
X22914257Y-30077680D01*
X22936792Y-30066510D01*
X22958176Y-30054631D01*
X22978428Y-30042020D01*
X22997565Y-30028659D01*
X23015602Y-30014527D01*
X23032558Y-29999603D01*
X23048449Y-29983867D01*
X23063292Y-29967299D01*
X23077104Y-29949878D01*
X23089902Y-29931584D01*
X23101703Y-29912396D01*
X23112524Y-29892295D01*
X23122382Y-29871260D01*
X23131294Y-29849271D01*
X23139276Y-29826307D01*
X23146346Y-29802347D01*
X23152521Y-29777373D01*
X23157818Y-29751362D01*
X23165844Y-29696152D01*
X23170560Y-29636555D01*
X23172102Y-29572408D01*
X23167141Y-28524658D01*
X23168753Y-28000783D01*
X23172862Y-27738845D01*
X23180040Y-27476908D01*
X23180458Y-27451148D01*
X23180226Y-27425952D01*
X23179342Y-27401309D01*
X23177807Y-27377209D01*
X23175621Y-27353641D01*
X23172784Y-27330597D01*
X23169296Y-27308065D01*
X23165157Y-27286036D01*
X23160367Y-27264499D01*
X23154925Y-27243443D01*
X23148832Y-27222860D01*
X23142089Y-27202739D01*
X23134694Y-27183069D01*
X23126648Y-27163840D01*
X23117950Y-27145042D01*
X23108602Y-27126666D01*
X23098603Y-27108700D01*
X23087952Y-27091135D01*
X23076651Y-27073960D01*
X23064698Y-27057166D01*
X23052094Y-27040742D01*
X23038839Y-27024678D01*
X23024933Y-27008963D01*
X23010376Y-26993589D01*
X22995167Y-26978543D01*
X22979308Y-26963817D01*
X22962797Y-26949400D01*
X22945635Y-26935282D01*
X22909358Y-26907902D01*
X22870477Y-26881595D01*
X22832521Y-26856837D01*
X22794037Y-26832358D01*
X22754996Y-26808437D01*
X22715365Y-26785353D01*
X22675114Y-26763386D01*
X22634212Y-26742813D01*
X22613507Y-26733137D01*
X22592628Y-26723915D01*
X22571571Y-26715181D01*
X22550331Y-26706971D01*
X22530362Y-26699859D01*
X22510137Y-26693364D01*
X22489649Y-26687419D01*
X22468889Y-26681959D01*
X22426525Y-26672229D01*
X22382982Y-26663645D01*
X22292114Y-26647811D01*
X22244665Y-26639507D01*
X22195789Y-26630241D01*
X22217411Y-26727972D01*
X22237792Y-26816773D01*
X22247130Y-26858754D01*
X22255693Y-26899620D01*
X22263326Y-26939742D01*
X22269873Y-26979491D01*
X22273857Y-27008744D01*
X22276880Y-27037463D01*
X22278942Y-27065642D01*
X22280043Y-27093272D01*
X22280183Y-27120349D01*
X22279361Y-27146865D01*
X22277578Y-27172813D01*
X22274834Y-27198186D01*
X22271129Y-27222978D01*
X22266462Y-27247182D01*
X22260835Y-27270790D01*
X22254246Y-27293798D01*
X22246696Y-27316196D01*
X22238185Y-27337980D01*
X22228713Y-27359141D01*
X22218279Y-27379673D01*
X22206885Y-27399570D01*
X22194529Y-27418825D01*
X22181212Y-27437430D01*
X22166934Y-27455379D01*
X22151694Y-27472666D01*
X22135494Y-27489283D01*
X22118332Y-27505224D01*
X22100209Y-27520481D01*
X22081125Y-27535049D01*
X22061080Y-27548920D01*
X22040073Y-27562088D01*
X22018106Y-27574545D01*
X21995177Y-27586286D01*
X21971287Y-27597302D01*
X21946436Y-27607588D01*
X21920623Y-27617137D01*
X21898179Y-27624186D01*
X21875510Y-27630495D01*
X21852639Y-27636130D01*
X21829590Y-27641156D01*
X21783050Y-27649647D01*
X21736076Y-27656494D01*
X21547561Y-27677991D01*
X21541189Y-27678611D01*
X21534972Y-27678985D01*
X21528908Y-27679112D01*
X21522999Y-27678994D01*
X21517242Y-27678631D01*
X21511638Y-27678026D01*
X21506187Y-27677178D01*
X21500886Y-27676089D01*
X21495737Y-27674760D01*
X21490739Y-27673192D01*
X21485891Y-27671385D01*
X21481192Y-27669340D01*
X21476643Y-27667060D01*
X21472243Y-27664544D01*
X21467991Y-27661793D01*
X21463886Y-27658809D01*
X21459929Y-27655592D01*
X21456118Y-27652144D01*
X21452454Y-27648465D01*
X21448936Y-27644556D01*
X21445563Y-27640419D01*
X21442335Y-27636054D01*
X21439251Y-27631463D01*
X21436312Y-27626645D01*
X21433515Y-27621603D01*
X21430862Y-27616337D01*
X21428351Y-27610848D01*
X21425981Y-27605138D01*
X21421667Y-27593054D01*
X21417915Y-27580095D01*
X21401269Y-27522949D01*
X21383100Y-27466593D01*
X21363436Y-27411013D01*
X21342302Y-27356192D01*
X21319726Y-27302115D01*
X21295736Y-27248767D01*
X21270359Y-27196132D01*
X21243621Y-27144194D01*
X21215549Y-27092939D01*
X21186172Y-27042350D01*
X21155516Y-26992413D01*
X21123607Y-26943111D01*
X21090474Y-26894429D01*
X21056144Y-26846352D01*
X21020643Y-26798864D01*
X20983998Y-26751949D01*
X20979661Y-26745608D01*
X20975596Y-26738550D01*
X20971825Y-26730863D01*
X20968371Y-26722638D01*
X20965259Y-26713964D01*
X20962511Y-26704929D01*
X20960151Y-26695623D01*
X20958202Y-26686134D01*
X20956686Y-26676553D01*
X20955628Y-26666967D01*
X20955051Y-26657467D01*
X20954977Y-26648142D01*
X20955431Y-26639079D01*
X20956434Y-26630370D01*
X20958012Y-26622103D01*
X20960186Y-26614366D01*
X20978259Y-26564014D01*
X20998731Y-26516150D01*
X21021583Y-26470782D01*
X21046796Y-26427917D01*
X21074349Y-26387565D01*
X21104224Y-26349731D01*
X21136400Y-26314424D01*
X21170860Y-26281653D01*
X21207583Y-26251423D01*
X21246551Y-26223744D01*
X21287743Y-26198623D01*
X21331140Y-26176067D01*
X21376723Y-26156085D01*
X21424472Y-26138685D01*
X21474369Y-26123873D01*
X21526394Y-26111658D01*
X21586229Y-26100801D01*
X21645658Y-26093013D01*
X21704645Y-26088264D01*
X21763155Y-26086522D01*
X21821153Y-26087757D01*
G37*
G36*
X18986393Y-23873283D02*
G01*
X18986393Y-24053200D01*
X18810445Y-24083957D01*
X18725944Y-24099708D01*
X18642435Y-24116700D01*
X18563331Y-24135842D01*
X18489695Y-24158588D01*
X18421478Y-24185009D01*
X18389385Y-24199619D01*
X18358628Y-24215174D01*
X18329200Y-24231682D01*
X18301096Y-24249153D01*
X18274308Y-24267594D01*
X18248831Y-24287015D01*
X18224658Y-24307424D01*
X18201783Y-24328830D01*
X18180199Y-24351242D01*
X18159901Y-24374668D01*
X18140882Y-24399118D01*
X18123135Y-24424599D01*
X18106655Y-24451121D01*
X18091435Y-24478693D01*
X18077469Y-24507322D01*
X18064750Y-24537019D01*
X18053272Y-24567791D01*
X18043030Y-24599647D01*
X18034016Y-24632596D01*
X18026224Y-24666647D01*
X18019648Y-24701808D01*
X18014282Y-24738088D01*
X18007154Y-24814041D01*
X18004789Y-24894575D01*
X18004789Y-26243950D01*
X18012727Y-26365658D01*
X18077400Y-26339566D01*
X18140678Y-26313196D01*
X18264412Y-26261478D01*
X18325550Y-26237061D01*
X18386657Y-26214225D01*
X18448075Y-26193436D01*
X18479006Y-26183954D01*
X18510143Y-26175158D01*
X18657724Y-26139455D01*
X18803774Y-26110919D01*
X18948251Y-26089832D01*
X19091111Y-26076476D01*
X19232312Y-26071136D01*
X19371812Y-26074094D01*
X19509568Y-26085633D01*
X19645537Y-26106035D01*
X19779677Y-26135585D01*
X19911944Y-26174564D01*
X20042297Y-26223255D01*
X20170693Y-26281942D01*
X20297089Y-26350907D01*
X20421443Y-26430434D01*
X20543711Y-26520805D01*
X20663852Y-26622304D01*
X20750225Y-26704322D01*
X20830343Y-26789488D01*
X20904337Y-26877571D01*
X20972339Y-26968339D01*
X21034482Y-27061561D01*
X21090895Y-27157004D01*
X21141713Y-27254437D01*
X21187065Y-27353628D01*
X21227085Y-27454347D01*
X21261903Y-27556362D01*
X21291652Y-27659440D01*
X21316463Y-27763350D01*
X21336468Y-27867861D01*
X21351799Y-27972742D01*
X21362588Y-28077760D01*
X21368966Y-28182684D01*
X21369018Y-28391324D01*
X21353009Y-28596808D01*
X21321992Y-28797286D01*
X21277024Y-28990903D01*
X21219156Y-29175808D01*
X21149445Y-29350147D01*
X21068943Y-29512069D01*
X20978706Y-29659720D01*
X20894836Y-29776135D01*
X20806939Y-29884228D01*
X20715019Y-29983927D01*
X20619079Y-30075157D01*
X20519125Y-30157845D01*
X20415159Y-30231918D01*
X20307186Y-30297301D01*
X20195209Y-30353921D01*
X20079232Y-30401704D01*
X19959260Y-30440577D01*
X19835295Y-30470466D01*
X19707342Y-30491297D01*
X19575405Y-30502997D01*
X19439488Y-30505493D01*
X19299594Y-30498709D01*
X19155727Y-30482574D01*
X19088349Y-30471209D01*
X19022133Y-30457015D01*
X18957065Y-30440077D01*
X18893128Y-30420480D01*
X18830308Y-30398310D01*
X18768588Y-30373651D01*
X18707954Y-30346589D01*
X18648389Y-30317210D01*
X18589878Y-30285598D01*
X18532406Y-30251839D01*
X18475957Y-30216019D01*
X18420516Y-30178221D01*
X18366067Y-30138532D01*
X18312595Y-30097037D01*
X18260084Y-30053822D01*
X18208519Y-30008970D01*
X18200808Y-30002792D01*
X18192592Y-29997121D01*
X18183927Y-29991908D01*
X18174867Y-29987101D01*
X18165466Y-29982651D01*
X18155778Y-29978507D01*
X18145857Y-29974619D01*
X18135759Y-29970937D01*
X18094665Y-29957253D01*
X18074460Y-29950333D01*
X18064632Y-29946678D01*
X18055061Y-29942824D01*
X18047800Y-29962555D01*
X18040136Y-29982099D01*
X18032411Y-30001519D01*
X18024964Y-30020877D01*
X18018138Y-30040235D01*
X18015064Y-30049933D01*
X18012272Y-30059655D01*
X18009807Y-30069407D01*
X18007709Y-30079199D01*
X18006023Y-30089037D01*
X18004790Y-30098929D01*
X18003270Y-30135769D01*
X18002557Y-30172888D01*
X18002464Y-30210317D01*
X18002805Y-30248087D01*
X18004046Y-30324775D01*
X18004790Y-30403199D01*
X15938394Y-30281491D01*
X15938394Y-30101575D01*
X15933102Y-30101574D01*
X16083253Y-30083053D01*
X16153368Y-30074041D01*
X16221498Y-30064533D01*
X16275916Y-30054670D01*
X16327062Y-30041940D01*
X16351414Y-30034494D01*
X16374953Y-30026326D01*
X16397683Y-30017433D01*
X16419604Y-30007813D01*
X16440720Y-29997464D01*
X16461031Y-29986385D01*
X16480540Y-29974573D01*
X16499248Y-29962027D01*
X16517158Y-29948745D01*
X16534272Y-29934724D01*
X16550591Y-29919963D01*
X16566118Y-29904460D01*
X16580853Y-29888212D01*
X16594801Y-29871219D01*
X16607961Y-29853477D01*
X16620336Y-29834986D01*
X16631929Y-29815743D01*
X16642741Y-29795745D01*
X16652773Y-29774992D01*
X16662029Y-29753482D01*
X16670509Y-29731212D01*
X16678217Y-29708180D01*
X16685153Y-29684384D01*
X16691319Y-29659824D01*
X16701352Y-29608398D01*
X16708331Y-29553887D01*
X16710078Y-29529956D01*
X16711390Y-29505807D01*
X16712331Y-29481473D01*
X16712961Y-29456983D01*
X16713540Y-29407663D01*
X16713623Y-29358095D01*
X16713623Y-27248908D01*
X18006961Y-27248908D01*
X18007436Y-27291700D01*
X18010588Y-27422669D01*
X18012314Y-27553637D01*
X18012727Y-27815575D01*
X18010081Y-28339450D01*
X18010082Y-28336804D01*
X18008428Y-28907973D01*
X18008966Y-29192937D01*
X18012728Y-29477158D01*
X18013591Y-29490667D01*
X18015167Y-29504365D01*
X18017425Y-29518196D01*
X18020334Y-29532100D01*
X18023864Y-29546020D01*
X18027983Y-29559897D01*
X18032659Y-29573673D01*
X18037863Y-29587291D01*
X18043563Y-29600691D01*
X18049728Y-29613816D01*
X18056327Y-29626608D01*
X18063329Y-29639009D01*
X18070703Y-29650960D01*
X18078419Y-29662403D01*
X18086444Y-29673280D01*
X18094748Y-29683533D01*
X18137932Y-29729774D01*
X18183518Y-29772734D01*
X18231319Y-29812389D01*
X18281150Y-29848712D01*
X18332825Y-29881678D01*
X18386155Y-29911263D01*
X18440955Y-29937442D01*
X18497039Y-29960188D01*
X18554220Y-29979477D01*
X18612310Y-29995284D01*
X18671125Y-30007583D01*
X18730477Y-30016350D01*
X18790180Y-30021559D01*
X18850047Y-30023184D01*
X18909891Y-30021201D01*
X18969527Y-30015585D01*
X19028767Y-30006310D01*
X19087426Y-29993351D01*
X19145316Y-29976683D01*
X19202252Y-29956281D01*
X19258046Y-29932120D01*
X19312512Y-29904173D01*
X19365463Y-29872417D01*
X19416714Y-29836826D01*
X19466077Y-29797375D01*
X19513366Y-29754038D01*
X19558395Y-29706790D01*
X19600977Y-29655607D01*
X19640925Y-29600463D01*
X19678053Y-29541332D01*
X19712174Y-29478191D01*
X19743102Y-29411012D01*
X19760995Y-29367054D01*
X19777968Y-29322527D01*
X19809207Y-29231964D01*
X19836911Y-29139726D01*
X19861173Y-29046218D01*
X19882086Y-28951841D01*
X19899744Y-28857000D01*
X19914239Y-28762096D01*
X19925665Y-28667533D01*
X19942697Y-28469152D01*
X19948129Y-28370069D01*
X19951296Y-28271113D01*
X19952046Y-28172328D01*
X19950221Y-28073755D01*
X19945669Y-27975439D01*
X19938232Y-27877421D01*
X19927758Y-27779744D01*
X19914089Y-27682451D01*
X19897072Y-27585584D01*
X19876551Y-27489187D01*
X19852372Y-27393300D01*
X19824379Y-27297968D01*
X19792417Y-27203233D01*
X19756331Y-27109137D01*
X19740491Y-27072001D01*
X19723739Y-27035044D01*
X19706096Y-26998319D01*
X19687581Y-26961880D01*
X19668213Y-26925783D01*
X19648013Y-26890081D01*
X19626998Y-26854829D01*
X19605188Y-26820080D01*
X19582604Y-26785890D01*
X19559263Y-26752312D01*
X19535187Y-26719400D01*
X19510393Y-26687210D01*
X19484902Y-26655794D01*
X19458732Y-26625208D01*
X19431904Y-26595506D01*
X19404436Y-26566742D01*
X19372229Y-26536175D01*
X19338682Y-26507965D01*
X19303895Y-26482098D01*
X19267968Y-26458557D01*
X19231003Y-26437328D01*
X19193100Y-26418396D01*
X19154359Y-26401746D01*
X19114882Y-26387362D01*
X19074770Y-26375231D01*
X19034122Y-26365336D01*
X18993041Y-26357663D01*
X18951626Y-26352196D01*
X18909979Y-26348922D01*
X18868199Y-26347824D01*
X18826389Y-26348888D01*
X18784649Y-26352098D01*
X18743079Y-26357440D01*
X18701781Y-26364899D01*
X18660854Y-26374460D01*
X18620401Y-26386107D01*
X18580521Y-26399825D01*
X18541315Y-26415600D01*
X18502885Y-26433417D01*
X18465330Y-26453260D01*
X18428752Y-26475115D01*
X18393252Y-26498966D01*
X18358930Y-26524799D01*
X18325886Y-26552598D01*
X18294223Y-26582348D01*
X18264040Y-26614035D01*
X18235438Y-26647644D01*
X18208519Y-26683158D01*
X18184808Y-26717113D01*
X18162330Y-26751521D01*
X18141139Y-26786402D01*
X18121289Y-26821775D01*
X18102834Y-26857660D01*
X18085829Y-26894076D01*
X18070327Y-26931042D01*
X18056383Y-26968577D01*
X18044052Y-27006702D01*
X18033387Y-27045436D01*
X18024443Y-27084797D01*
X18017275Y-27124806D01*
X18011935Y-27165481D01*
X18008479Y-27206842D01*
X18006961Y-27248908D01*
X16713623Y-27248908D01*
X16713623Y-23764804D01*
X18986393Y-23873283D01*
G37*
G36*
X25246435Y-27328742D02*
G01*
X25247619Y-27271786D01*
X25250672Y-27216022D01*
X25255585Y-27161462D01*
X25262351Y-27108120D01*
X25270961Y-27056008D01*
X25281409Y-27005139D01*
X25293686Y-26955528D01*
X25307785Y-26907186D01*
X25323697Y-26860127D01*
X25341416Y-26814364D01*
X25360932Y-26769910D01*
X25382240Y-26726778D01*
X25405330Y-26684982D01*
X25430196Y-26644533D01*
X25456828Y-26605446D01*
X25485221Y-26567734D01*
X25515365Y-26531409D01*
X25547253Y-26496484D01*
X25580878Y-26462974D01*
X25616231Y-26430890D01*
X25653305Y-26400245D01*
X25692092Y-26371054D01*
X25732584Y-26343329D01*
X25774774Y-26317082D01*
X25818654Y-26292328D01*
X25864216Y-26269080D01*
X25911452Y-26247349D01*
X25960355Y-26227150D01*
X26010916Y-26208495D01*
X26063129Y-26191398D01*
X26116985Y-26175872D01*
X26172476Y-26161929D01*
X26300961Y-26134130D01*
X26429427Y-26110315D01*
X26557854Y-26090562D01*
X26686222Y-26074947D01*
X26814514Y-26063550D01*
X26942708Y-26056447D01*
X27070786Y-26053716D01*
X27198729Y-26055434D01*
X27326516Y-26061680D01*
X27454129Y-26072529D01*
X27581548Y-26088060D01*
X27708754Y-26108351D01*
X27835728Y-26133479D01*
X27962450Y-26163521D01*
X28088900Y-26198555D01*
X28215060Y-26238658D01*
X28263977Y-26255475D01*
X28312464Y-26273230D01*
X28360463Y-26291992D01*
X28407915Y-26311832D01*
X28454763Y-26332819D01*
X28500948Y-26355023D01*
X28546413Y-26378514D01*
X28591098Y-26403362D01*
X28634946Y-26429635D01*
X28677899Y-26457405D01*
X28719898Y-26486740D01*
X28760886Y-26517711D01*
X28800804Y-26550387D01*
X28839595Y-26584839D01*
X28877199Y-26621135D01*
X28913559Y-26659346D01*
X28939586Y-26689583D01*
X28963113Y-26720694D01*
X28984170Y-26752576D01*
X29002784Y-26785126D01*
X29018984Y-26818243D01*
X29032797Y-26851823D01*
X29044251Y-26885763D01*
X29053376Y-26919960D01*
X29060198Y-26954313D01*
X29064746Y-26988719D01*
X29067048Y-27023073D01*
X29067132Y-27057275D01*
X29065026Y-27091221D01*
X29060759Y-27124808D01*
X29054358Y-27157935D01*
X29045851Y-27190497D01*
X29035268Y-27222393D01*
X29022635Y-27253519D01*
X29007980Y-27283773D01*
X28991333Y-27313053D01*
X28972720Y-27341255D01*
X28952171Y-27368277D01*
X28929713Y-27394016D01*
X28905374Y-27418369D01*
X28879183Y-27441234D01*
X28851167Y-27462509D01*
X28821355Y-27482089D01*
X28789774Y-27499873D01*
X28756453Y-27515758D01*
X28721420Y-27529642D01*
X28684703Y-27541420D01*
X28646330Y-27550992D01*
X28614371Y-27557505D01*
X28582024Y-27563167D01*
X28549337Y-27567991D01*
X28516354Y-27571993D01*
X28483124Y-27575189D01*
X28449692Y-27577595D01*
X28416105Y-27579225D01*
X28382409Y-27580096D01*
X28348651Y-27580222D01*
X28314878Y-27579620D01*
X28247471Y-27576292D01*
X28180561Y-27570236D01*
X28114519Y-27561575D01*
X28087435Y-27556903D01*
X28061254Y-27551327D01*
X28035978Y-27544859D01*
X28011610Y-27537509D01*
X27988153Y-27529290D01*
X27965609Y-27520211D01*
X27943982Y-27510285D01*
X27923274Y-27499522D01*
X27903489Y-27487933D01*
X27884629Y-27475530D01*
X27866698Y-27462324D01*
X27849697Y-27448326D01*
X27833631Y-27433547D01*
X27818502Y-27417998D01*
X27804312Y-27401690D01*
X27791065Y-27384635D01*
X27778764Y-27366843D01*
X27767412Y-27348326D01*
X27757011Y-27329095D01*
X27747564Y-27309161D01*
X27739075Y-27288536D01*
X27731546Y-27267229D01*
X27724980Y-27245253D01*
X27719380Y-27222619D01*
X27714749Y-27199337D01*
X27711090Y-27175420D01*
X27708406Y-27150877D01*
X27706699Y-27125721D01*
X27706230Y-27073611D01*
X27709707Y-27019179D01*
X27714388Y-26985450D01*
X27720373Y-26951752D01*
X27727473Y-26918116D01*
X27735503Y-26884572D01*
X27744278Y-26851153D01*
X27753611Y-26817889D01*
X27773207Y-26751950D01*
X27790245Y-26697661D01*
X27804466Y-26649522D01*
X27815594Y-26606988D01*
X27823354Y-26569512D01*
X27825885Y-26552499D01*
X27827470Y-26536546D01*
X27828076Y-26521585D01*
X27827669Y-26507546D01*
X27826212Y-26494362D01*
X27823673Y-26481965D01*
X27820017Y-26470285D01*
X27815209Y-26459255D01*
X27809215Y-26448806D01*
X27802001Y-26438870D01*
X27793532Y-26429379D01*
X27783774Y-26420265D01*
X27772693Y-26411458D01*
X27760253Y-26402892D01*
X27746421Y-26394497D01*
X27731162Y-26386205D01*
X27696227Y-26369657D01*
X27655172Y-26352703D01*
X27607722Y-26334795D01*
X27553602Y-26315388D01*
X27504521Y-26299390D01*
X27456039Y-26286101D01*
X27408213Y-26275485D01*
X27361097Y-26267504D01*
X27314749Y-26262125D01*
X27269224Y-26259310D01*
X27224579Y-26259024D01*
X27180871Y-26261231D01*
X27138154Y-26265895D01*
X27096486Y-26272981D01*
X27055922Y-26282452D01*
X27016519Y-26294273D01*
X26978333Y-26308407D01*
X26941420Y-26324820D01*
X26905837Y-26343475D01*
X26871639Y-26364336D01*
X26838883Y-26387367D01*
X26807625Y-26412533D01*
X26777921Y-26439798D01*
X26749828Y-26469125D01*
X26723401Y-26500480D01*
X26698697Y-26533825D01*
X26675771Y-26569126D01*
X26654681Y-26606347D01*
X26635482Y-26645451D01*
X26618231Y-26686403D01*
X26602984Y-26729166D01*
X26589796Y-26773706D01*
X26578725Y-26819986D01*
X26569826Y-26867970D01*
X26563155Y-26917623D01*
X26558770Y-26968908D01*
X26534956Y-27595971D01*
X26534433Y-27613339D01*
X26534526Y-27621659D01*
X26534858Y-27629741D01*
X26535433Y-27637589D01*
X26536253Y-27645206D01*
X26537320Y-27652595D01*
X26538636Y-27659760D01*
X26540204Y-27666704D01*
X26542026Y-27673430D01*
X26544106Y-27679943D01*
X26546444Y-27686244D01*
X26549044Y-27692338D01*
X26551908Y-27698229D01*
X26555039Y-27703918D01*
X26558438Y-27709411D01*
X26562109Y-27714710D01*
X26566053Y-27719818D01*
X26570274Y-27724739D01*
X26574773Y-27729477D01*
X26579553Y-27734034D01*
X26584617Y-27738415D01*
X26589966Y-27742622D01*
X26595604Y-27746659D01*
X26601532Y-27750530D01*
X26607754Y-27754237D01*
X26614270Y-27757784D01*
X26621085Y-27761175D01*
X26628201Y-27764413D01*
X26635619Y-27767501D01*
X26651373Y-27773242D01*
X27055855Y-27907187D01*
X27257475Y-27974532D01*
X27458352Y-28043117D01*
X28090044Y-28255775D01*
X28247347Y-28311188D01*
X28403410Y-28369422D01*
X28557737Y-28431439D01*
X28709831Y-28498200D01*
X28750285Y-28517835D01*
X28789291Y-28539010D01*
X28826844Y-28561681D01*
X28862938Y-28585807D01*
X28897567Y-28611346D01*
X28930724Y-28638255D01*
X28992604Y-28696017D01*
X29048531Y-28758756D01*
X29098458Y-28826133D01*
X29142339Y-28897813D01*
X29180128Y-28973458D01*
X29211777Y-29052730D01*
X29237240Y-29135293D01*
X29256472Y-29220809D01*
X29269424Y-29308941D01*
X29276052Y-29399352D01*
X29276308Y-29491705D01*
X29270145Y-29585663D01*
X29257518Y-29680887D01*
X29250440Y-29718623D01*
X29241633Y-29755905D01*
X29231136Y-29792696D01*
X29218988Y-29828961D01*
X29205228Y-29864664D01*
X29189894Y-29899769D01*
X29154662Y-29968043D01*
X29113599Y-30033495D01*
X29067018Y-30095839D01*
X29015228Y-30154787D01*
X28958539Y-30210054D01*
X28897261Y-30261352D01*
X28831705Y-30308394D01*
X28762179Y-30350894D01*
X28688995Y-30388565D01*
X28612462Y-30421120D01*
X28532891Y-30448272D01*
X28450591Y-30469734D01*
X28365873Y-30485221D01*
X28247278Y-30499043D01*
X28130621Y-30506749D01*
X28015917Y-30508301D01*
X27903182Y-30503659D01*
X27792432Y-30492785D01*
X27683681Y-30475640D01*
X27576946Y-30452185D01*
X27472242Y-30422382D01*
X27369584Y-30386192D01*
X27268988Y-30343575D01*
X27170470Y-30294494D01*
X27074044Y-30238910D01*
X26979727Y-30176783D01*
X26887534Y-30108076D01*
X26797480Y-30032748D01*
X26709581Y-29950762D01*
X26687756Y-29930397D01*
X26667811Y-29912977D01*
X26658491Y-29905381D01*
X26649579Y-29898533D01*
X26641053Y-29892437D01*
X26632893Y-29887097D01*
X26625078Y-29882516D01*
X26617587Y-29878700D01*
X26610400Y-29875650D01*
X26603495Y-29873372D01*
X26596851Y-29871869D01*
X26590448Y-29871144D01*
X26584265Y-29871203D01*
X26578282Y-29872049D01*
X26572476Y-29873685D01*
X26566828Y-29876116D01*
X26561317Y-29879345D01*
X26555921Y-29883376D01*
X26550621Y-29888214D01*
X26545394Y-29893861D01*
X26540221Y-29900323D01*
X26535080Y-29907602D01*
X26529951Y-29915703D01*
X26524813Y-29924630D01*
X26519644Y-29934385D01*
X26514425Y-29944975D01*
X26503751Y-29968668D01*
X26492623Y-29995741D01*
X26475473Y-30036687D01*
X26456754Y-30076129D01*
X26436446Y-30113990D01*
X26414529Y-30150192D01*
X26390984Y-30184657D01*
X26365793Y-30217309D01*
X26338934Y-30248069D01*
X26310390Y-30276861D01*
X26280141Y-30303606D01*
X26248167Y-30328227D01*
X26214448Y-30350647D01*
X26178967Y-30370788D01*
X26141702Y-30388573D01*
X26102635Y-30403923D01*
X26061747Y-30416762D01*
X26019018Y-30427012D01*
X25934222Y-30443083D01*
X25848651Y-30457356D01*
X25762523Y-30469521D01*
X25676053Y-30479267D01*
X25589458Y-30486285D01*
X25502957Y-30490264D01*
X25416766Y-30490894D01*
X25373854Y-30489857D01*
X25331102Y-30487866D01*
X25184982Y-30480378D01*
X25129370Y-30477291D01*
X25083882Y-30473604D01*
X25047385Y-30468536D01*
X25032155Y-30465242D01*
X25018749Y-30461310D01*
X25007025Y-30456644D01*
X24996841Y-30451146D01*
X24988056Y-30444719D01*
X24980529Y-30437265D01*
X24974118Y-30428687D01*
X24968682Y-30418888D01*
X24964080Y-30407770D01*
X24960169Y-30395236D01*
X24953856Y-30365531D01*
X24948614Y-30328992D01*
X24936811Y-30232301D01*
X24927987Y-30170589D01*
X24915706Y-30098929D01*
X24920998Y-30077762D01*
X24918351Y-30077763D01*
X24955003Y-30066298D01*
X24989566Y-30052772D01*
X25022060Y-30037230D01*
X25052503Y-30019720D01*
X25080915Y-30000287D01*
X25107316Y-29978978D01*
X25131725Y-29955840D01*
X25154161Y-29930919D01*
X25174643Y-29904261D01*
X25193192Y-29875914D01*
X25209826Y-29845924D01*
X25224565Y-29814337D01*
X25237428Y-29781199D01*
X25248434Y-29746558D01*
X25257603Y-29710459D01*
X25264955Y-29672950D01*
X25267660Y-29655061D01*
X25269854Y-29637117D01*
X25271582Y-29619128D01*
X25272892Y-29601099D01*
X25274442Y-29564956D01*
X25274876Y-29528752D01*
X25272892Y-29384554D01*
X25256687Y-28356648D01*
X25252981Y-28093387D01*
X26537601Y-28093387D01*
X26547193Y-28805447D01*
X26558769Y-29519491D01*
X26559359Y-29526028D01*
X26560138Y-29532720D01*
X26561112Y-29539536D01*
X26562283Y-29546446D01*
X26563655Y-29553417D01*
X26565234Y-29560419D01*
X26567021Y-29567421D01*
X26569021Y-29574392D01*
X26571239Y-29581301D01*
X26573677Y-29588117D01*
X26576341Y-29594809D01*
X26579232Y-29601346D01*
X26582357Y-29607698D01*
X26585718Y-29613832D01*
X26589319Y-29619717D01*
X26593165Y-29625324D01*
X26628869Y-29672175D01*
X26669202Y-29716363D01*
X26713704Y-29757706D01*
X26761919Y-29796022D01*
X26813390Y-29831129D01*
X26867660Y-29862845D01*
X26924270Y-29890987D01*
X26982764Y-29915374D01*
X27042684Y-29935823D01*
X27103573Y-29952152D01*
X27164973Y-29964179D01*
X27226428Y-29971722D01*
X27287480Y-29974598D01*
X27347671Y-29972626D01*
X27406545Y-29965623D01*
X27435345Y-29960179D01*
X27463643Y-29953408D01*
X27508484Y-29939803D01*
X27550755Y-29923823D01*
X27590491Y-29905510D01*
X27627727Y-29884906D01*
X27662498Y-29862054D01*
X27694839Y-29836996D01*
X27724785Y-29809776D01*
X27752370Y-29780436D01*
X27777630Y-29749019D01*
X27800600Y-29715567D01*
X27821313Y-29680123D01*
X27839807Y-29642729D01*
X27856114Y-29603429D01*
X27870270Y-29562264D01*
X27882310Y-29519277D01*
X27892269Y-29474512D01*
X27900160Y-29429092D01*
X27906472Y-29384123D01*
X27911206Y-29339624D01*
X27914365Y-29295613D01*
X27915951Y-29252108D01*
X27915965Y-29209127D01*
X27914409Y-29166687D01*
X27911285Y-29124807D01*
X27906596Y-29083505D01*
X27900343Y-29042798D01*
X27892528Y-29002704D01*
X27883153Y-28963241D01*
X27872220Y-28924428D01*
X27859730Y-28886281D01*
X27845687Y-28848820D01*
X27830091Y-28812062D01*
X27812946Y-28776024D01*
X27794251Y-28740726D01*
X27774011Y-28706184D01*
X27752225Y-28672416D01*
X27728898Y-28639442D01*
X27704029Y-28607278D01*
X27677622Y-28575942D01*
X27649679Y-28545453D01*
X27620200Y-28515828D01*
X27589189Y-28487085D01*
X27556646Y-28459242D01*
X27522575Y-28432317D01*
X27486977Y-28406329D01*
X27449853Y-28381294D01*
X27411207Y-28357231D01*
X27371039Y-28334158D01*
X27273831Y-28282316D01*
X27174793Y-28233451D01*
X27074081Y-28186818D01*
X26971850Y-28141674D01*
X26550831Y-27961095D01*
X26550830Y-27966387D01*
X26545415Y-28011160D01*
X26541239Y-28044770D01*
X26539694Y-28058552D01*
X26538552Y-28070939D01*
X26537844Y-28082396D01*
X26537662Y-28087921D01*
X26537601Y-28093387D01*
X25252981Y-28093387D01*
X25249452Y-27842695D01*
X25246435Y-27328742D01*
G37*
G36*
X29005333Y-28155627D02*
G01*
X29014922Y-28003587D01*
X29034236Y-27852121D01*
X29063579Y-27701957D01*
X29082108Y-27627591D01*
X29103260Y-27553824D01*
X29127072Y-27480746D01*
X29153583Y-27408450D01*
X29182831Y-27337026D01*
X29214855Y-27266565D01*
X29249692Y-27197158D01*
X29287382Y-27128896D01*
X29327962Y-27061871D01*
X29371471Y-26996173D01*
X29417946Y-26931894D01*
X29467427Y-26869124D01*
X29519951Y-26807955D01*
X29575556Y-26748478D01*
X29634282Y-26690783D01*
X29696166Y-26634963D01*
X29761247Y-26581107D01*
X29829562Y-26529307D01*
X29901150Y-26479655D01*
X29976050Y-26432241D01*
X30054299Y-26387156D01*
X30135936Y-26344492D01*
X30237072Y-26297308D01*
X30339040Y-26254880D01*
X30441807Y-26217064D01*
X30545338Y-26183716D01*
X30649597Y-26154694D01*
X30754550Y-26129854D01*
X30860162Y-26109052D01*
X30966397Y-26092145D01*
X31073222Y-26078991D01*
X31180601Y-26069444D01*
X31288500Y-26063362D01*
X31396883Y-26060602D01*
X31505715Y-26061020D01*
X31614963Y-26064473D01*
X31724590Y-26070817D01*
X31834562Y-26079908D01*
X31944395Y-26092007D01*
X32052091Y-26107924D01*
X32157576Y-26127604D01*
X32260773Y-26150989D01*
X32361608Y-26178024D01*
X32460005Y-26208651D01*
X32555890Y-26242813D01*
X32649188Y-26280454D01*
X32739823Y-26321518D01*
X32827720Y-26365947D01*
X32912805Y-26413685D01*
X32995001Y-26464676D01*
X33074235Y-26518862D01*
X33150430Y-26576186D01*
X33223513Y-26636593D01*
X33293407Y-26700026D01*
X33360037Y-26766427D01*
X33423330Y-26835740D01*
X33483208Y-26907909D01*
X33539598Y-26982877D01*
X33592425Y-27060586D01*
X33641612Y-27140981D01*
X33687086Y-27224005D01*
X33728770Y-27309601D01*
X33766591Y-27397712D01*
X33800472Y-27488282D01*
X33830339Y-27581254D01*
X33856117Y-27676571D01*
X33877730Y-27774176D01*
X33895103Y-27874014D01*
X33908162Y-27976027D01*
X33916831Y-28080158D01*
X33922814Y-28229032D01*
X33921782Y-28374952D01*
X33913541Y-28517818D01*
X33897897Y-28657529D01*
X33874657Y-28793984D01*
X33843626Y-28927083D01*
X33804612Y-29056725D01*
X33757420Y-29182809D01*
X33701856Y-29305234D01*
X33670874Y-29365043D01*
X33637727Y-29423900D01*
X33602389Y-29481792D01*
X33564838Y-29538706D01*
X33525049Y-29594629D01*
X33482997Y-29649550D01*
X33438658Y-29703456D01*
X33392009Y-29756333D01*
X33343024Y-29808170D01*
X33291680Y-29858954D01*
X33237953Y-29908671D01*
X33181818Y-29957311D01*
X33123250Y-30004859D01*
X33062227Y-30051303D01*
X32974510Y-30113069D01*
X32884987Y-30169513D01*
X32793650Y-30220834D01*
X32700492Y-30267228D01*
X32605504Y-30308894D01*
X32508679Y-30346030D01*
X32410009Y-30378832D01*
X32309487Y-30407499D01*
X32207104Y-30432228D01*
X32102854Y-30453217D01*
X31996727Y-30470664D01*
X31888717Y-30484765D01*
X31778815Y-30495720D01*
X31667015Y-30503726D01*
X31553307Y-30508979D01*
X31437685Y-30511679D01*
X31435040Y-30511679D01*
X31362032Y-30506015D01*
X31273644Y-30500104D01*
X31175335Y-30492704D01*
X31124165Y-30488058D01*
X31072561Y-30482575D01*
X30956921Y-30466831D01*
X30843216Y-30447285D01*
X30731518Y-30423794D01*
X30621901Y-30396213D01*
X30514440Y-30364401D01*
X30409207Y-30328212D01*
X30306276Y-30287505D01*
X30205720Y-30242135D01*
X30107615Y-30191959D01*
X30012032Y-30136834D01*
X29919046Y-30076616D01*
X29828731Y-30011162D01*
X29741159Y-29940328D01*
X29656405Y-29863972D01*
X29574543Y-29781949D01*
X29495645Y-29694117D01*
X29486439Y-29683308D01*
X29477687Y-29671767D01*
X29469408Y-29659567D01*
X29461621Y-29646781D01*
X29454345Y-29633484D01*
X29447601Y-29619749D01*
X29441407Y-29605650D01*
X29435782Y-29591260D01*
X29430747Y-29576653D01*
X29426320Y-29561903D01*
X29422521Y-29547083D01*
X29419370Y-29532266D01*
X29416885Y-29517527D01*
X29415086Y-29502940D01*
X29413992Y-29488577D01*
X29413623Y-29474513D01*
X29411127Y-29411421D01*
X29406549Y-29349166D01*
X29399793Y-29287780D01*
X29390762Y-29227293D01*
X29379359Y-29167735D01*
X29365487Y-29109139D01*
X29349049Y-29051536D01*
X29329949Y-28994955D01*
X29308089Y-28939429D01*
X29283373Y-28884988D01*
X29255704Y-28831663D01*
X29224984Y-28779485D01*
X29191117Y-28728485D01*
X29154006Y-28678695D01*
X29113555Y-28630145D01*
X29069665Y-28582866D01*
X29064274Y-28576703D01*
X29059030Y-28570144D01*
X29053957Y-28563228D01*
X29049077Y-28555995D01*
X29044415Y-28548482D01*
X29039993Y-28540730D01*
X29035834Y-28532775D01*
X29031962Y-28524658D01*
X29028401Y-28516417D01*
X29025172Y-28508091D01*
X29022300Y-28499718D01*
X29019808Y-28491337D01*
X29017719Y-28482988D01*
X29016057Y-28474708D01*
X29014844Y-28466537D01*
X29014103Y-28458512D01*
X29008503Y-28363924D01*
X30453105Y-28363924D01*
X30455839Y-28498085D01*
X30461895Y-28632176D01*
X30471401Y-28766190D01*
X30484483Y-28900118D01*
X30501271Y-29033954D01*
X30521892Y-29167688D01*
X30546474Y-29301315D01*
X30575144Y-29434825D01*
X30589138Y-29490243D01*
X30605240Y-29545288D01*
X30623327Y-29599838D01*
X30643274Y-29653768D01*
X30664957Y-29706953D01*
X30688253Y-29759270D01*
X30713037Y-29810595D01*
X30739186Y-29860804D01*
X30770035Y-29914192D01*
X30803048Y-29964208D01*
X30838215Y-30010829D01*
X30875529Y-30054032D01*
X30914983Y-30093793D01*
X30956568Y-30130090D01*
X31000277Y-30162898D01*
X31046103Y-30192194D01*
X31094037Y-30217956D01*
X31144071Y-30240161D01*
X31196198Y-30258783D01*
X31250411Y-30273802D01*
X31306700Y-30285193D01*
X31365060Y-30292933D01*
X31425481Y-30296998D01*
X31487956Y-30297366D01*
X31518932Y-30296166D01*
X31549351Y-30294056D01*
X31579216Y-30291044D01*
X31608528Y-30287134D01*
X31637290Y-30282333D01*
X31665504Y-30276647D01*
X31693171Y-30270080D01*
X31720294Y-30262640D01*
X31746874Y-30254331D01*
X31772914Y-30245160D01*
X31798415Y-30235133D01*
X31823378Y-30224255D01*
X31847808Y-30212531D01*
X31871704Y-30199969D01*
X31895069Y-30186574D01*
X31917905Y-30172351D01*
X31940214Y-30157306D01*
X31961998Y-30141446D01*
X31983259Y-30124775D01*
X32003998Y-30107300D01*
X32024218Y-30089027D01*
X32043921Y-30069962D01*
X32063108Y-30050109D01*
X32081781Y-30029476D01*
X32117595Y-29985889D01*
X32151379Y-29939249D01*
X32183147Y-29889601D01*
X32212915Y-29836991D01*
X32241606Y-29781619D01*
X32268193Y-29725655D01*
X32292742Y-29669124D01*
X32315317Y-29612054D01*
X32335986Y-29554473D01*
X32354813Y-29496408D01*
X32371866Y-29437885D01*
X32387209Y-29378932D01*
X32400909Y-29319575D01*
X32413032Y-29259843D01*
X32423643Y-29199762D01*
X32432809Y-29139360D01*
X32440595Y-29078662D01*
X32447067Y-29017698D01*
X32456333Y-28895075D01*
X32459371Y-28820542D01*
X32460797Y-28745792D01*
X32460983Y-28670856D01*
X32460301Y-28595765D01*
X32457821Y-28445242D01*
X32456333Y-28294470D01*
X32470223Y-28292528D01*
X32477168Y-28291634D01*
X32484113Y-28290833D01*
X32491058Y-28290156D01*
X32498003Y-28289634D01*
X32504949Y-28289298D01*
X32511894Y-28289179D01*
X32511896Y-28283887D01*
X32438143Y-27675676D01*
X32398414Y-27371943D01*
X32375775Y-27220495D01*
X32350500Y-27069450D01*
X32341664Y-27025175D01*
X32331038Y-26981657D01*
X32318629Y-26938905D01*
X32304445Y-26896933D01*
X32288493Y-26855751D01*
X32270782Y-26815372D01*
X32251320Y-26775807D01*
X32230113Y-26737067D01*
X32207170Y-26699164D01*
X32182499Y-26662110D01*
X32156106Y-26625917D01*
X32128001Y-26590595D01*
X32098190Y-26556157D01*
X32066682Y-26522615D01*
X32033484Y-26489979D01*
X31998603Y-26458262D01*
X31965774Y-26431480D01*
X31931837Y-26406693D01*
X31896877Y-26383896D01*
X31860978Y-26363085D01*
X31824227Y-26344254D01*
X31786709Y-26327398D01*
X31748508Y-26312514D01*
X31709711Y-26299595D01*
X31670402Y-26288637D01*
X31630667Y-26279636D01*
X31590590Y-26272586D01*
X31550258Y-26267483D01*
X31509755Y-26264322D01*
X31469167Y-26263097D01*
X31428579Y-26263805D01*
X31388077Y-26266439D01*
X31347745Y-26270996D01*
X31307668Y-26277471D01*
X31267933Y-26285858D01*
X31228624Y-26296153D01*
X31189826Y-26308351D01*
X31151626Y-26322448D01*
X31114107Y-26338437D01*
X31077356Y-26356315D01*
X31041458Y-26376077D01*
X31006498Y-26397717D01*
X30972560Y-26421231D01*
X30939732Y-26446614D01*
X30908097Y-26473862D01*
X30877741Y-26502969D01*
X30848749Y-26533930D01*
X30821206Y-26566741D01*
X30790528Y-26606857D01*
X30761938Y-26647806D01*
X30735357Y-26689554D01*
X30710701Y-26732065D01*
X30687891Y-26775304D01*
X30666843Y-26819238D01*
X30647478Y-26863830D01*
X30629714Y-26909046D01*
X30613469Y-26954852D01*
X30598662Y-27001211D01*
X30585211Y-27048090D01*
X30573035Y-27095454D01*
X30562053Y-27143266D01*
X30552184Y-27191494D01*
X30535456Y-27289054D01*
X30499288Y-27557927D01*
X30472825Y-27826737D01*
X30457089Y-28095423D01*
X30453564Y-28229701D01*
X30453105Y-28363924D01*
X29008503Y-28363924D01*
X29005162Y-28307511D01*
X29005333Y-28155627D01*
G37*
G36*
X43504128Y-28184727D02*
G01*
X43499239Y-28103800D01*
X43491598Y-28022927D01*
X43481147Y-27942120D01*
X43467828Y-27861390D01*
X43451583Y-27780750D01*
X43432353Y-27700210D01*
X43410081Y-27619783D01*
X43407381Y-27608720D01*
X43405224Y-27597387D01*
X43403593Y-27585820D01*
X43402474Y-27574060D01*
X43401852Y-27562145D01*
X43401710Y-27550113D01*
X43402032Y-27538004D01*
X43402805Y-27525856D01*
X43404012Y-27513708D01*
X43405637Y-27501599D01*
X43407665Y-27489568D01*
X43410081Y-27477652D01*
X43412869Y-27465892D01*
X43416014Y-27454326D01*
X43419499Y-27442992D01*
X43423311Y-27431929D01*
X43457288Y-27343651D01*
X43494707Y-27258389D01*
X43535537Y-27176119D01*
X43579746Y-27096818D01*
X43627304Y-27020462D01*
X43678179Y-26947029D01*
X43732341Y-26876494D01*
X43789759Y-26808835D01*
X43850401Y-26744029D01*
X43914237Y-26682053D01*
X43981236Y-26622882D01*
X44051366Y-26566494D01*
X44124597Y-26512865D01*
X44200897Y-26461973D01*
X44280236Y-26413794D01*
X44362583Y-26368304D01*
X44465764Y-26316929D01*
X44569898Y-26270832D01*
X44674947Y-26229836D01*
X44780872Y-26193762D01*
X44887634Y-26162432D01*
X44995195Y-26135667D01*
X45103515Y-26113290D01*
X45212556Y-26095122D01*
X45322279Y-26080984D01*
X45432645Y-26070700D01*
X45543617Y-26064089D01*
X45655154Y-26060974D01*
X45767218Y-26061177D01*
X45879770Y-26064519D01*
X45992772Y-26070822D01*
X46106185Y-26079908D01*
X46214893Y-26091970D01*
X46321681Y-26107788D01*
X46426462Y-26127320D01*
X46529147Y-26150524D01*
X46629645Y-26177357D01*
X46727868Y-26207778D01*
X46823728Y-26241745D01*
X46917133Y-26279214D01*
X47007997Y-26320144D01*
X47096228Y-26364494D01*
X47181739Y-26412220D01*
X47264440Y-26463280D01*
X47344242Y-26517633D01*
X47421056Y-26575237D01*
X47494793Y-26636048D01*
X47565363Y-26700025D01*
X47632677Y-26767127D01*
X47696647Y-26837310D01*
X47757182Y-26910532D01*
X47814195Y-26986752D01*
X47867596Y-27065927D01*
X47917295Y-27148015D01*
X47963203Y-27232975D01*
X48005233Y-27320763D01*
X48043293Y-27411337D01*
X48077295Y-27504656D01*
X48107151Y-27600678D01*
X48132770Y-27699360D01*
X48154064Y-27800659D01*
X48170943Y-27904535D01*
X48183319Y-28010944D01*
X48191102Y-28119845D01*
X48195322Y-28272937D01*
X48191996Y-28422587D01*
X48180957Y-28568702D01*
X48162039Y-28711190D01*
X48135075Y-28849956D01*
X48099898Y-28984909D01*
X48079178Y-29050927D01*
X48056342Y-29115956D01*
X48031370Y-29179985D01*
X48004240Y-29243002D01*
X47974932Y-29304996D01*
X47943426Y-29365956D01*
X47909699Y-29425869D01*
X47873732Y-29484724D01*
X47835503Y-29542509D01*
X47794992Y-29599213D01*
X47752177Y-29654824D01*
X47707039Y-29709330D01*
X47659556Y-29762720D01*
X47609707Y-29814983D01*
X47557472Y-29866105D01*
X47502829Y-29916077D01*
X47445759Y-29964886D01*
X47386239Y-30012521D01*
X47324249Y-30058969D01*
X47259769Y-30104220D01*
X47174698Y-30158881D01*
X47088073Y-30208876D01*
X46999767Y-30254374D01*
X46909650Y-30295547D01*
X46817595Y-30332566D01*
X46723475Y-30365600D01*
X46627161Y-30394820D01*
X46528525Y-30420397D01*
X46427440Y-30442502D01*
X46323778Y-30461304D01*
X46217410Y-30476975D01*
X46108210Y-30489685D01*
X45996048Y-30499604D01*
X45880797Y-30506904D01*
X45762330Y-30511753D01*
X45640518Y-30514324D01*
X45637872Y-30514324D01*
X45375604Y-30486874D01*
X45291976Y-30476678D01*
X45204410Y-30464095D01*
X45114549Y-30448597D01*
X45024038Y-30429658D01*
X44893927Y-30396427D01*
X44767599Y-30358158D01*
X44645178Y-30314711D01*
X44526787Y-30265947D01*
X44412551Y-30211725D01*
X44302594Y-30151907D01*
X44197040Y-30086353D01*
X44096013Y-30014923D01*
X43999636Y-29937479D01*
X43908034Y-29853879D01*
X43821332Y-29763985D01*
X43739652Y-29667658D01*
X43663119Y-29564757D01*
X43591857Y-29455144D01*
X43525990Y-29338678D01*
X43465642Y-29215221D01*
X43457612Y-29196456D01*
X43450387Y-29177843D01*
X43443969Y-29159346D01*
X43438357Y-29140931D01*
X43433551Y-29122562D01*
X43429551Y-29104204D01*
X43426358Y-29085824D01*
X43423970Y-29067385D01*
X43422389Y-29048853D01*
X43421614Y-29030193D01*
X43421645Y-29011371D01*
X43422483Y-28992351D01*
X43424126Y-28973098D01*
X43426576Y-28953578D01*
X43429831Y-28933755D01*
X43433893Y-28913596D01*
X43451153Y-28832703D01*
X43466186Y-28751761D01*
X43478931Y-28670779D01*
X43489332Y-28589770D01*
X43497329Y-28508746D01*
X43502866Y-28427718D01*
X43505883Y-28346698D01*
X43505977Y-28329528D01*
X44724069Y-28329528D01*
X44725656Y-28456494D01*
X44730255Y-28583383D01*
X44737992Y-28710179D01*
X44748997Y-28836866D01*
X44763398Y-28963430D01*
X44781321Y-29089853D01*
X44802895Y-29216122D01*
X44828248Y-29342220D01*
X44837176Y-29382951D01*
X44847084Y-29423740D01*
X44857962Y-29464521D01*
X44869796Y-29505228D01*
X44882576Y-29545796D01*
X44896291Y-29586159D01*
X44910927Y-29626250D01*
X44926475Y-29666004D01*
X44942922Y-29705355D01*
X44960256Y-29744237D01*
X44978466Y-29782584D01*
X44997540Y-29820331D01*
X45017467Y-29857410D01*
X45038235Y-29893758D01*
X45059833Y-29929307D01*
X45082248Y-29963991D01*
X45112573Y-30005795D01*
X45144922Y-30044889D01*
X45179161Y-30081274D01*
X45215160Y-30114954D01*
X45252787Y-30145930D01*
X45291910Y-30174205D01*
X45332398Y-30199782D01*
X45374117Y-30222663D01*
X45416938Y-30242850D01*
X45460727Y-30260346D01*
X45505354Y-30275153D01*
X45550685Y-30287274D01*
X45596591Y-30296711D01*
X45642938Y-30303466D01*
X45689595Y-30307542D01*
X45736431Y-30308942D01*
X45783313Y-30307667D01*
X45830110Y-30303720D01*
X45876690Y-30297104D01*
X45922921Y-30287822D01*
X45968671Y-30275874D01*
X46013809Y-30261264D01*
X46058203Y-30243995D01*
X46101721Y-30224068D01*
X46144231Y-30201487D01*
X46185602Y-30176253D01*
X46225702Y-30148369D01*
X46264398Y-30117837D01*
X46301560Y-30084660D01*
X46337055Y-30048841D01*
X46370752Y-30010381D01*
X46402519Y-29969283D01*
X46444718Y-29907594D01*
X46483139Y-29844614D01*
X46517971Y-29780417D01*
X46549404Y-29715076D01*
X46577628Y-29648666D01*
X46602832Y-29581260D01*
X46625208Y-29512932D01*
X46644944Y-29443754D01*
X46662230Y-29373802D01*
X46677257Y-29303148D01*
X46690214Y-29231866D01*
X46701292Y-29160030D01*
X46718567Y-29014990D01*
X46730602Y-28868617D01*
X46733640Y-28798171D01*
X46735067Y-28727726D01*
X46735253Y-28657280D01*
X46734571Y-28586835D01*
X46732090Y-28445944D01*
X46730602Y-28305054D01*
X46744079Y-28303111D01*
X46750600Y-28302217D01*
X46757060Y-28301416D01*
X46763519Y-28300739D01*
X46770040Y-28300217D01*
X46776686Y-28299881D01*
X46780570Y-28299813D01*
X46780878Y-28302408D01*
X46783517Y-28299762D01*
X46780570Y-28299813D01*
X46708116Y-27687583D01*
X46667767Y-27380790D01*
X46644864Y-27227657D01*
X46619481Y-27074741D01*
X46611142Y-27031400D01*
X46601012Y-26988705D01*
X46589099Y-26946685D01*
X46575411Y-26905367D01*
X46559956Y-26864777D01*
X46542741Y-26824943D01*
X46523775Y-26785892D01*
X46503064Y-26747650D01*
X46480617Y-26710246D01*
X46456441Y-26673707D01*
X46430545Y-26638058D01*
X46402935Y-26603329D01*
X46373621Y-26569544D01*
X46342608Y-26536733D01*
X46309906Y-26504922D01*
X46275522Y-26474137D01*
X46241491Y-26446169D01*
X46206426Y-26420303D01*
X46170410Y-26396532D01*
X46133525Y-26374851D01*
X46095853Y-26355254D01*
X46057477Y-26337733D01*
X46018478Y-26322283D01*
X45978940Y-26308897D01*
X45938945Y-26297569D01*
X45898574Y-26288293D01*
X45857911Y-26281062D01*
X45817038Y-26275870D01*
X45776037Y-26272712D01*
X45734990Y-26271579D01*
X45693980Y-26272467D01*
X45653089Y-26275369D01*
X45612400Y-26280279D01*
X45571994Y-26287189D01*
X45531955Y-26296095D01*
X45492365Y-26306990D01*
X45453305Y-26319867D01*
X45414859Y-26334720D01*
X45377109Y-26351543D01*
X45340137Y-26370330D01*
X45304025Y-26391073D01*
X45268856Y-26413768D01*
X45234712Y-26438408D01*
X45201675Y-26464985D01*
X45169829Y-26493495D01*
X45139254Y-26523931D01*
X45110035Y-26556286D01*
X45082252Y-26590554D01*
X45052534Y-26631135D01*
X45024844Y-26672487D01*
X44999099Y-26714575D01*
X44975219Y-26757365D01*
X44953121Y-26800822D01*
X44932725Y-26844910D01*
X44913949Y-26889596D01*
X44896711Y-26934843D01*
X44880931Y-26980617D01*
X44866527Y-27026884D01*
X44853417Y-27073608D01*
X44841520Y-27120754D01*
X44830756Y-27168288D01*
X44821041Y-27216175D01*
X44804437Y-27312866D01*
X44770625Y-27566970D01*
X44745278Y-27821197D01*
X44729418Y-28075424D01*
X44725366Y-28202499D01*
X44724069Y-28329528D01*
X43505977Y-28329528D01*
X43506323Y-28265697D01*
X43504128Y-28184727D01*
G37*
G36*
X41097490Y-26066536D02*
G01*
X41229378Y-26074492D01*
X41359576Y-26088479D01*
X41487972Y-26108656D01*
X41614453Y-26135180D01*
X41738908Y-26168213D01*
X41861222Y-26207911D01*
X41981286Y-26254435D01*
X42098984Y-26307943D01*
X42214207Y-26368593D01*
X42326840Y-26436546D01*
X42436772Y-26511959D01*
X42543890Y-26594992D01*
X42648082Y-26685804D01*
X42761463Y-26796729D01*
X42864565Y-26911165D01*
X42957528Y-27029027D01*
X43040492Y-27150230D01*
X43113596Y-27274689D01*
X43176979Y-27402318D01*
X43230782Y-27533032D01*
X43275144Y-27666747D01*
X43310204Y-27803375D01*
X43336101Y-27942833D01*
X43352976Y-28085035D01*
X43360968Y-28229896D01*
X43360216Y-28377330D01*
X43350860Y-28527252D01*
X43333039Y-28679578D01*
X43306894Y-28834221D01*
X43281115Y-28952001D01*
X43250365Y-29066180D01*
X43214567Y-29176694D01*
X43173650Y-29283475D01*
X43127540Y-29386457D01*
X43076163Y-29485576D01*
X43019444Y-29580765D01*
X42957312Y-29671957D01*
X42889691Y-29759088D01*
X42816509Y-29842092D01*
X42737692Y-29920901D01*
X42653165Y-29995452D01*
X42562856Y-30065677D01*
X42466691Y-30131511D01*
X42364596Y-30192887D01*
X42256498Y-30249741D01*
X42185220Y-30283089D01*
X42113287Y-30313742D01*
X42040726Y-30341800D01*
X41967564Y-30367357D01*
X41893829Y-30390511D01*
X41819547Y-30411359D01*
X41744746Y-30429998D01*
X41669452Y-30446525D01*
X41593694Y-30461036D01*
X41517498Y-30473629D01*
X41440890Y-30484401D01*
X41363900Y-30493447D01*
X41208876Y-30506754D01*
X41052642Y-30514324D01*
X40946878Y-30514830D01*
X40842898Y-30510433D01*
X40740684Y-30501191D01*
X40640222Y-30487163D01*
X40541497Y-30468407D01*
X40444493Y-30444980D01*
X40349193Y-30416941D01*
X40255584Y-30384348D01*
X40163649Y-30347259D01*
X40073373Y-30305733D01*
X39984740Y-30259827D01*
X39897735Y-30209599D01*
X39812342Y-30155108D01*
X39728546Y-30096412D01*
X39646332Y-30033569D01*
X39565683Y-29966637D01*
X39529962Y-29934487D01*
X39495217Y-29901545D01*
X39461433Y-29867829D01*
X39428596Y-29833353D01*
X39396688Y-29798133D01*
X39365695Y-29762184D01*
X39335601Y-29725522D01*
X39306391Y-29688163D01*
X39278050Y-29650121D01*
X39250560Y-29611413D01*
X39223908Y-29572054D01*
X39198078Y-29532059D01*
X39173053Y-29491444D01*
X39148820Y-29450224D01*
X39125361Y-29408415D01*
X39102662Y-29366033D01*
X39206843Y-29293934D01*
X39293163Y-29233741D01*
X39287872Y-29239032D01*
X39340649Y-29300388D01*
X39392093Y-29361278D01*
X39492593Y-29480796D01*
X39542456Y-29538988D01*
X39592598Y-29595848D01*
X39643422Y-29651157D01*
X39695331Y-29704699D01*
X39731362Y-29738532D01*
X39770384Y-29771005D01*
X39856707Y-29831451D01*
X39952921Y-29885200D01*
X40057646Y-29931414D01*
X40169502Y-29969256D01*
X40287110Y-29997890D01*
X40409089Y-30016478D01*
X40471287Y-30021744D01*
X40534061Y-30024183D01*
X40597237Y-30023693D01*
X40660645Y-30020168D01*
X40724110Y-30013504D01*
X40787461Y-30003595D01*
X40850525Y-29990339D01*
X40913130Y-29973628D01*
X40975103Y-29953360D01*
X41036272Y-29929429D01*
X41096465Y-29901732D01*
X41155508Y-29870162D01*
X41213229Y-29834616D01*
X41269457Y-29794988D01*
X41324018Y-29751175D01*
X41376740Y-29703071D01*
X41427450Y-29650573D01*
X41475976Y-29593574D01*
X41505274Y-29556644D01*
X41533627Y-29519263D01*
X41561018Y-29481418D01*
X41587432Y-29443092D01*
X41612854Y-29404271D01*
X41637269Y-29364937D01*
X41660660Y-29325076D01*
X41683012Y-29284673D01*
X41704311Y-29243712D01*
X41724539Y-29202177D01*
X41743683Y-29160053D01*
X41761726Y-29117324D01*
X41778652Y-29073976D01*
X41794447Y-29029991D01*
X41809095Y-28985356D01*
X41822580Y-28940054D01*
X41846482Y-28847690D01*
X41866706Y-28755155D01*
X41883419Y-28662466D01*
X41896787Y-28569637D01*
X41906977Y-28476684D01*
X41914156Y-28383622D01*
X41918489Y-28290468D01*
X41920145Y-28197236D01*
X41919289Y-28103942D01*
X41916088Y-28010601D01*
X41910710Y-27917230D01*
X41903319Y-27823843D01*
X41883170Y-27637084D01*
X41856975Y-27450450D01*
X41846506Y-27388604D01*
X41834863Y-27327134D01*
X41821925Y-27266106D01*
X41807573Y-27205586D01*
X41791686Y-27145639D01*
X41774143Y-27086332D01*
X41754826Y-27027731D01*
X41733614Y-26969900D01*
X41710386Y-26912907D01*
X41685022Y-26856817D01*
X41657403Y-26801695D01*
X41627408Y-26747609D01*
X41594917Y-26694623D01*
X41559810Y-26642804D01*
X41521967Y-26592217D01*
X41481267Y-26542929D01*
X41440873Y-26499238D01*
X41399086Y-26459435D01*
X41355944Y-26423500D01*
X41311479Y-26391413D01*
X41265728Y-26363156D01*
X41218725Y-26338709D01*
X41170505Y-26318052D01*
X41121103Y-26301166D01*
X41070554Y-26288031D01*
X41018893Y-26278630D01*
X40966154Y-26272941D01*
X40912372Y-26270945D01*
X40857583Y-26272624D01*
X40801821Y-26277958D01*
X40745121Y-26286927D01*
X40687519Y-26299512D01*
X40671465Y-26303728D01*
X40656047Y-26308432D01*
X40641265Y-26313618D01*
X40627118Y-26319278D01*
X40613607Y-26325405D01*
X40600732Y-26331993D01*
X40588492Y-26339032D01*
X40576888Y-26346517D01*
X40565920Y-26354440D01*
X40555587Y-26362793D01*
X40545890Y-26371570D01*
X40536829Y-26380763D01*
X40528403Y-26390365D01*
X40520612Y-26400368D01*
X40513458Y-26410766D01*
X40506939Y-26421551D01*
X40501056Y-26432716D01*
X40495808Y-26444253D01*
X40491196Y-26456156D01*
X40487219Y-26468416D01*
X40483878Y-26481028D01*
X40481173Y-26493983D01*
X40479103Y-26507274D01*
X40477669Y-26520894D01*
X40476871Y-26534835D01*
X40476708Y-26549092D01*
X40477181Y-26563655D01*
X40478290Y-26578518D01*
X40482414Y-26609115D01*
X40489080Y-26640824D01*
X40503524Y-26696273D01*
X40518805Y-26751536D01*
X40550265Y-26861751D01*
X40565639Y-26916828D01*
X40580237Y-26971967D01*
X40593658Y-27027230D01*
X40605497Y-27082679D01*
X40610202Y-27111150D01*
X40613896Y-27139014D01*
X40616578Y-27166272D01*
X40618246Y-27192920D01*
X40618895Y-27218958D01*
X40618525Y-27244384D01*
X40617133Y-27269196D01*
X40614716Y-27293394D01*
X40611272Y-27316976D01*
X40606799Y-27339940D01*
X40601293Y-27362285D01*
X40594754Y-27384009D01*
X40587177Y-27405111D01*
X40578561Y-27425590D01*
X40568904Y-27445443D01*
X40558203Y-27464671D01*
X40546455Y-27483270D01*
X40533659Y-27501240D01*
X40519811Y-27518579D01*
X40504909Y-27535286D01*
X40488951Y-27551360D01*
X40471935Y-27566798D01*
X40453858Y-27581600D01*
X40434717Y-27595763D01*
X40414511Y-27609288D01*
X40393236Y-27622171D01*
X40370890Y-27634412D01*
X40347472Y-27646008D01*
X40322978Y-27656960D01*
X40297406Y-27667265D01*
X40270754Y-27676922D01*
X40243019Y-27685928D01*
X40220048Y-27692568D01*
X40196794Y-27698610D01*
X40173284Y-27704079D01*
X40149546Y-27708997D01*
X40101492Y-27717275D01*
X40052849Y-27723632D01*
X40003834Y-27728251D01*
X39954664Y-27731321D01*
X39905556Y-27733026D01*
X39856727Y-27733554D01*
X39821280Y-27733190D01*
X39786875Y-27731609D01*
X39753514Y-27728815D01*
X39721200Y-27724815D01*
X39689937Y-27719616D01*
X39659727Y-27713223D01*
X39630574Y-27705644D01*
X39602479Y-27696884D01*
X39575446Y-27686950D01*
X39549478Y-27675847D01*
X39524578Y-27663583D01*
X39500749Y-27650163D01*
X39477993Y-27635595D01*
X39456313Y-27619883D01*
X39435713Y-27603035D01*
X39416196Y-27585056D01*
X39397763Y-27565954D01*
X39380419Y-27545734D01*
X39364165Y-27524402D01*
X39349006Y-27501966D01*
X39334943Y-27478430D01*
X39321980Y-27453803D01*
X39310120Y-27428089D01*
X39299365Y-27401295D01*
X39289719Y-27373427D01*
X39281184Y-27344493D01*
X39273764Y-27314497D01*
X39267460Y-27283447D01*
X39262277Y-27251348D01*
X39258217Y-27218207D01*
X39255282Y-27184030D01*
X39253477Y-27148824D01*
X39252926Y-27111559D01*
X39253752Y-27074685D01*
X39255952Y-27038223D01*
X39259523Y-27002192D01*
X39264462Y-26966614D01*
X39270766Y-26931506D01*
X39278433Y-26896890D01*
X39287459Y-26862785D01*
X39297841Y-26829211D01*
X39309578Y-26796188D01*
X39322665Y-26763735D01*
X39337099Y-26731873D01*
X39352879Y-26700622D01*
X39370000Y-26670000D01*
X39388461Y-26640029D01*
X39408258Y-26610728D01*
X39429388Y-26582117D01*
X39451848Y-26554215D01*
X39475636Y-26527044D01*
X39500748Y-26500621D01*
X39527182Y-26474968D01*
X39554935Y-26450104D01*
X39584003Y-26426049D01*
X39614385Y-26402823D01*
X39646076Y-26380446D01*
X39679075Y-26358938D01*
X39713377Y-26338318D01*
X39748981Y-26318606D01*
X39785884Y-26299823D01*
X39824081Y-26281988D01*
X39863572Y-26265121D01*
X39904352Y-26249241D01*
X39999437Y-26216132D01*
X40096010Y-26186279D01*
X40193823Y-26159712D01*
X40292628Y-26136463D01*
X40392178Y-26116562D01*
X40492223Y-26100041D01*
X40592517Y-26086931D01*
X40692811Y-26077262D01*
X40829094Y-26068080D01*
X40964025Y-26064451D01*
X41097490Y-26066536D01*
G37*
G36*
X54511864Y-26065134D02*
G01*
X54643752Y-26073417D01*
X54773950Y-26087700D01*
X54902346Y-26108149D01*
X55028827Y-26134931D01*
X55153281Y-26168212D01*
X55275596Y-26208160D01*
X55395659Y-26254941D01*
X55513358Y-26308721D01*
X55628580Y-26369668D01*
X55741214Y-26437947D01*
X55851145Y-26513726D01*
X55958264Y-26597171D01*
X56062456Y-26688449D01*
X56175370Y-26799840D01*
X56278061Y-26914684D01*
X56370659Y-27032899D01*
X56453296Y-27154405D01*
X56526104Y-27279121D01*
X56589215Y-27406964D01*
X56642761Y-27537853D01*
X56686873Y-27671707D01*
X56721684Y-27808445D01*
X56747324Y-27947985D01*
X56763927Y-28090245D01*
X56771623Y-28235145D01*
X56770544Y-28382603D01*
X56760822Y-28532538D01*
X56742590Y-28684868D01*
X56715978Y-28839511D01*
X56681819Y-28988808D01*
X56639900Y-29131116D01*
X56590276Y-29266456D01*
X56533002Y-29394847D01*
X56468132Y-29516308D01*
X56395719Y-29630858D01*
X56315818Y-29738518D01*
X56228484Y-29839306D01*
X56133770Y-29933241D01*
X56031731Y-30020344D01*
X55922421Y-30100633D01*
X55805895Y-30174128D01*
X55682206Y-30240848D01*
X55551409Y-30300813D01*
X55413559Y-30354041D01*
X55268709Y-30400553D01*
X55197119Y-30420080D01*
X55125239Y-30437952D01*
X55053088Y-30454126D01*
X54980684Y-30468559D01*
X54908049Y-30481210D01*
X54835200Y-30492036D01*
X54762157Y-30500993D01*
X54688939Y-30508040D01*
X54615567Y-30513133D01*
X54542059Y-30516231D01*
X54468435Y-30517289D01*
X54394714Y-30516267D01*
X54320915Y-30513121D01*
X54247059Y-30507808D01*
X54173163Y-30500285D01*
X54099248Y-30490512D01*
X53967588Y-30467362D01*
X53840463Y-30437647D01*
X53717818Y-30401436D01*
X53599599Y-30358799D01*
X53485752Y-30309806D01*
X53376222Y-30254526D01*
X53270956Y-30193030D01*
X53169899Y-30125387D01*
X53072996Y-30051666D01*
X52980194Y-29971939D01*
X52891439Y-29886273D01*
X52806675Y-29794740D01*
X52725849Y-29697409D01*
X52648907Y-29594349D01*
X52575794Y-29485631D01*
X52506456Y-29371324D01*
X52609643Y-29298233D01*
X52660493Y-29261564D01*
X52712831Y-29223158D01*
X52715478Y-29220512D01*
X52768851Y-29293644D01*
X52818997Y-29363056D01*
X52867656Y-29429987D01*
X52916562Y-29495678D01*
X52960837Y-29551722D01*
X53007239Y-29604297D01*
X53055617Y-29653456D01*
X53105822Y-29699247D01*
X53157700Y-29741723D01*
X53211102Y-29780934D01*
X53265875Y-29816931D01*
X53321870Y-29849765D01*
X53378934Y-29879487D01*
X53436917Y-29906147D01*
X53495667Y-29929797D01*
X53555033Y-29950488D01*
X53614865Y-29968269D01*
X53675010Y-29983193D01*
X53735319Y-29995310D01*
X53795639Y-30004670D01*
X53855819Y-30011326D01*
X53915709Y-30015327D01*
X53975156Y-30016724D01*
X54034011Y-30015569D01*
X54149338Y-30005804D01*
X54260478Y-29986439D01*
X54314101Y-29973283D01*
X54366223Y-29957881D01*
X54416695Y-29940281D01*
X54465365Y-29920536D01*
X54512081Y-29898696D01*
X54556692Y-29874812D01*
X54599048Y-29848935D01*
X54638997Y-29821116D01*
X54694721Y-29778054D01*
X54747817Y-29733224D01*
X54798324Y-29686659D01*
X54846281Y-29638388D01*
X54891726Y-29588442D01*
X54934699Y-29536854D01*
X54975238Y-29483653D01*
X55013381Y-29428871D01*
X55049169Y-29372538D01*
X55082638Y-29314687D01*
X55113829Y-29255347D01*
X55142780Y-29194549D01*
X55169529Y-29132326D01*
X55194115Y-29068707D01*
X55216578Y-29003724D01*
X55236955Y-28937407D01*
X55261322Y-28845043D01*
X55281950Y-28752504D01*
X55299004Y-28659802D01*
X55312651Y-28566949D01*
X55323058Y-28473957D01*
X55330392Y-28380837D01*
X55334819Y-28287600D01*
X55336505Y-28194259D01*
X55335619Y-28100825D01*
X55332325Y-28007309D01*
X55326791Y-27913724D01*
X55319184Y-27820080D01*
X55298415Y-27632665D01*
X55271352Y-27445157D01*
X55260883Y-27383312D01*
X55249240Y-27321842D01*
X55236302Y-27260814D01*
X55221950Y-27200294D01*
X55206062Y-27140347D01*
X55188520Y-27081040D01*
X55169203Y-27022438D01*
X55147991Y-26964608D01*
X55124763Y-26907615D01*
X55099399Y-26851524D01*
X55071780Y-26796403D01*
X55041785Y-26742317D01*
X55009294Y-26689331D01*
X54974187Y-26637512D01*
X54936343Y-26586925D01*
X54895643Y-26537637D01*
X54856767Y-26495311D01*
X54816554Y-26456629D01*
X54775030Y-26421574D01*
X54732224Y-26390131D01*
X54688162Y-26362286D01*
X54642871Y-26338021D01*
X54596378Y-26317322D01*
X54548711Y-26300173D01*
X54499897Y-26286559D01*
X54449963Y-26276464D01*
X54398935Y-26269873D01*
X54346842Y-26266770D01*
X54293711Y-26267139D01*
X54239567Y-26270966D01*
X54184439Y-26278234D01*
X54128354Y-26288928D01*
X54109650Y-26293377D01*
X54091733Y-26298290D01*
X54074601Y-26303663D01*
X54058251Y-26309496D01*
X54042679Y-26315786D01*
X54027884Y-26322531D01*
X54013862Y-26329730D01*
X54000611Y-26337380D01*
X53988127Y-26345480D01*
X53976407Y-26354028D01*
X53965449Y-26363021D01*
X53955249Y-26372458D01*
X53945805Y-26382337D01*
X53937114Y-26392656D01*
X53929173Y-26403413D01*
X53921979Y-26414605D01*
X53915530Y-26426232D01*
X53909821Y-26438291D01*
X53904851Y-26450781D01*
X53900616Y-26463698D01*
X53897114Y-26477042D01*
X53894341Y-26490810D01*
X53892295Y-26505001D01*
X53890973Y-26519612D01*
X53890371Y-26534642D01*
X53890488Y-26550088D01*
X53891320Y-26565949D01*
X53892863Y-26582223D01*
X53895117Y-26598908D01*
X53898076Y-26616001D01*
X53906103Y-26651407D01*
X53920542Y-26706748D01*
X53935786Y-26761747D01*
X53966957Y-26871342D01*
X53982015Y-26926249D01*
X53996143Y-26981434D01*
X54008906Y-27037053D01*
X54019872Y-27093262D01*
X54024112Y-27120275D01*
X54027405Y-27146743D01*
X54029749Y-27172664D01*
X54031144Y-27198036D01*
X54031586Y-27222854D01*
X54031076Y-27247118D01*
X54029612Y-27270825D01*
X54027191Y-27293973D01*
X54023813Y-27316558D01*
X54019477Y-27338579D01*
X54014180Y-27360033D01*
X54007921Y-27380918D01*
X54000700Y-27401232D01*
X53992514Y-27420971D01*
X53983361Y-27440134D01*
X53973242Y-27458717D01*
X53962153Y-27476720D01*
X53950094Y-27494138D01*
X53937063Y-27510971D01*
X53923059Y-27527214D01*
X53908080Y-27542867D01*
X53892125Y-27557926D01*
X53875192Y-27572390D01*
X53857280Y-27586255D01*
X53838388Y-27599519D01*
X53818514Y-27612180D01*
X53797656Y-27624236D01*
X53775813Y-27635683D01*
X53752984Y-27646520D01*
X53729167Y-27656745D01*
X53704360Y-27666354D01*
X53678564Y-27675345D01*
X53654601Y-27682945D01*
X53630360Y-27689887D01*
X53605871Y-27696192D01*
X53581165Y-27701886D01*
X53556272Y-27706990D01*
X53531225Y-27711529D01*
X53480789Y-27719001D01*
X53430104Y-27724489D01*
X53379420Y-27728179D01*
X53328983Y-27730256D01*
X53279043Y-27730907D01*
X53241898Y-27730761D01*
X53205874Y-27729333D01*
X53170973Y-27726629D01*
X53137201Y-27722655D01*
X53104560Y-27717415D01*
X53073055Y-27710914D01*
X53042689Y-27703160D01*
X53013466Y-27694155D01*
X52985391Y-27683907D01*
X52958467Y-27672419D01*
X52932698Y-27659699D01*
X52908088Y-27645750D01*
X52884640Y-27630578D01*
X52862359Y-27614189D01*
X52841248Y-27596588D01*
X52821312Y-27577780D01*
X52802554Y-27557770D01*
X52784979Y-27536565D01*
X52768589Y-27514168D01*
X52753389Y-27490586D01*
X52739383Y-27465824D01*
X52726574Y-27439887D01*
X52714967Y-27412781D01*
X52704565Y-27384510D01*
X52695372Y-27355080D01*
X52687393Y-27324497D01*
X52680630Y-27292766D01*
X52675089Y-27259892D01*
X52670772Y-27225881D01*
X52667684Y-27190737D01*
X52665828Y-27154466D01*
X52665208Y-27117074D01*
X52666212Y-27075416D01*
X52668710Y-27034774D01*
X52672680Y-26995138D01*
X52678096Y-26956500D01*
X52684934Y-26918853D01*
X52693171Y-26882187D01*
X52702782Y-26846496D01*
X52713742Y-26811770D01*
X52726028Y-26778001D01*
X52739615Y-26745182D01*
X52754479Y-26713303D01*
X52770596Y-26682357D01*
X52787942Y-26652335D01*
X52806492Y-26623229D01*
X52826223Y-26595031D01*
X52847109Y-26567733D01*
X52869127Y-26541326D01*
X52892252Y-26515803D01*
X52916461Y-26491154D01*
X52941729Y-26467372D01*
X52995345Y-26422376D01*
X53052906Y-26380747D01*
X53114219Y-26342421D01*
X53179090Y-26307330D01*
X53247325Y-26275410D01*
X53318731Y-26246595D01*
X53413055Y-26212726D01*
X53509271Y-26182516D01*
X53607038Y-26155903D01*
X53706014Y-26132824D01*
X53805857Y-26113218D01*
X53906228Y-26097023D01*
X54006785Y-26084176D01*
X54107187Y-26074616D01*
X54243469Y-26065900D01*
X54378399Y-26062684D01*
X54511864Y-26065134D01*
G37*
G36*
X117404702Y-6772311D02*
G01*
X117407189Y-6727470D01*
X117408355Y-6682466D01*
X117408266Y-6637307D01*
X117406986Y-6592001D01*
X117404583Y-6546556D01*
X117401121Y-6500978D01*
X117400347Y-6491329D01*
X117400015Y-6482199D01*
X117400132Y-6473550D01*
X117400362Y-6469394D01*
X117400707Y-6465343D01*
X117401168Y-6461392D01*
X117401747Y-6457538D01*
X117402444Y-6453775D01*
X117403260Y-6450098D01*
X117404196Y-6446502D01*
X117405253Y-6442983D01*
X117406432Y-6439536D01*
X117407735Y-6436155D01*
X117409161Y-6432837D01*
X117410713Y-6429576D01*
X117412390Y-6426367D01*
X117414194Y-6423205D01*
X117416127Y-6420086D01*
X117418188Y-6417005D01*
X117420379Y-6413957D01*
X117422700Y-6410937D01*
X117427740Y-6404962D01*
X117433315Y-6399041D01*
X117439432Y-6393135D01*
X117446100Y-6387207D01*
X117486802Y-6354725D01*
X117528508Y-6324673D01*
X117571168Y-6296939D01*
X117614730Y-6271411D01*
X117659145Y-6247975D01*
X117704363Y-6226520D01*
X117750332Y-6206933D01*
X117797003Y-6189101D01*
X117844325Y-6172913D01*
X117892248Y-6158256D01*
X117940721Y-6145017D01*
X117989694Y-6133084D01*
X118039116Y-6122345D01*
X118088938Y-6112688D01*
X118189577Y-6096167D01*
X118195611Y-6095776D01*
X118201762Y-6095526D01*
X118214134Y-6095009D01*
X118220215Y-6094526D01*
X118226133Y-6093748D01*
X118229009Y-6093215D01*
X118231819Y-6092567D01*
X118234552Y-6091792D01*
X118237202Y-6090875D01*
X118239759Y-6089803D01*
X118242213Y-6088562D01*
X118244558Y-6087140D01*
X118246783Y-6085521D01*
X118248880Y-6083693D01*
X118250841Y-6081643D01*
X118252656Y-6079356D01*
X118254317Y-6076819D01*
X118255816Y-6074018D01*
X118257143Y-6070941D01*
X118258290Y-6067573D01*
X118259247Y-6063900D01*
X118260008Y-6059910D01*
X118260561Y-6055588D01*
X118260900Y-6050921D01*
X118261015Y-6045896D01*
X118260884Y-6037301D01*
X118260467Y-6029350D01*
X118259724Y-6022003D01*
X118259219Y-6018544D01*
X118258617Y-6015221D01*
X118257915Y-6012031D01*
X118257107Y-6008967D01*
X118256188Y-6006026D01*
X118255155Y-6003201D01*
X118254001Y-6000489D01*
X118252722Y-5997885D01*
X118251313Y-5995383D01*
X118249770Y-5992979D01*
X118248087Y-5990669D01*
X118246260Y-5988446D01*
X118244283Y-5986307D01*
X118242153Y-5984246D01*
X118239863Y-5982259D01*
X118237410Y-5980340D01*
X118234788Y-5978486D01*
X118231993Y-5976691D01*
X118229020Y-5974950D01*
X118225863Y-5973258D01*
X118222518Y-5971611D01*
X118218981Y-5970004D01*
X118211308Y-5966889D01*
X118202806Y-5963875D01*
X118079940Y-5922327D01*
X118018817Y-5901227D01*
X117958066Y-5879539D01*
X117897811Y-5856982D01*
X117838177Y-5833278D01*
X117779286Y-5808148D01*
X117721264Y-5781313D01*
X117691537Y-5765810D01*
X117662911Y-5749072D01*
X117635432Y-5731100D01*
X117609147Y-5711900D01*
X117584102Y-5691476D01*
X117560344Y-5669831D01*
X117537919Y-5646968D01*
X117516874Y-5622893D01*
X117497255Y-5597608D01*
X117479109Y-5571118D01*
X117462482Y-5543427D01*
X117447421Y-5514538D01*
X117433972Y-5484455D01*
X117422182Y-5453182D01*
X117412097Y-5420724D01*
X117403765Y-5387083D01*
X117397515Y-5354801D01*
X117393769Y-5330269D01*
X118212116Y-5330269D01*
X118213072Y-5362005D01*
X118215301Y-5393274D01*
X118218789Y-5424050D01*
X118223521Y-5454303D01*
X118229481Y-5484006D01*
X118236655Y-5513130D01*
X118245028Y-5541648D01*
X118254584Y-5569531D01*
X118265308Y-5596752D01*
X118277186Y-5623281D01*
X118290203Y-5649092D01*
X118304343Y-5674156D01*
X118319591Y-5698444D01*
X118335933Y-5721929D01*
X118353354Y-5744583D01*
X118371837Y-5766378D01*
X118391370Y-5787284D01*
X118411935Y-5807276D01*
X118433519Y-5826323D01*
X118456106Y-5844399D01*
X118479682Y-5861474D01*
X118504230Y-5877522D01*
X118529738Y-5892514D01*
X118556188Y-5906421D01*
X118583566Y-5919216D01*
X118611858Y-5930870D01*
X118641048Y-5941356D01*
X118671121Y-5950645D01*
X118699022Y-5958097D01*
X118727139Y-5964618D01*
X118755442Y-5970272D01*
X118783900Y-5975119D01*
X118812482Y-5979222D01*
X118841157Y-5982643D01*
X118869894Y-5985443D01*
X118898662Y-5987686D01*
X118928562Y-5989206D01*
X118958772Y-5989919D01*
X118989354Y-5990012D01*
X119020371Y-5989671D01*
X119083953Y-5988430D01*
X119150017Y-5987686D01*
X119147373Y-5987686D01*
X119147373Y-4765311D01*
X119147647Y-4755759D01*
X119147455Y-4746935D01*
X119146767Y-4738824D01*
X119146228Y-4735032D01*
X119145553Y-4731411D01*
X119144738Y-4727962D01*
X119143780Y-4724681D01*
X119142675Y-4721566D01*
X119141418Y-4718616D01*
X119140007Y-4715829D01*
X119138437Y-4713203D01*
X119136703Y-4710736D01*
X119134804Y-4708426D01*
X119132733Y-4706271D01*
X119130489Y-4704268D01*
X119128066Y-4702417D01*
X119125461Y-4700716D01*
X119122669Y-4699161D01*
X119119688Y-4697752D01*
X119116514Y-4696486D01*
X119113141Y-4695362D01*
X119109567Y-4694377D01*
X119105788Y-4693530D01*
X119101799Y-4692818D01*
X119097597Y-4692241D01*
X119093178Y-4691795D01*
X119088539Y-4691478D01*
X119078581Y-4691228D01*
X119031725Y-4692442D01*
X118984529Y-4692510D01*
X118889734Y-4691559D01*
X118842445Y-4691719D01*
X118795435Y-4693088D01*
X118772083Y-4694411D01*
X118748858Y-4696256D01*
X118725782Y-4698699D01*
X118702871Y-4701812D01*
X118649995Y-4712049D01*
X118600464Y-4724921D01*
X118554212Y-4740460D01*
X118532295Y-4749240D01*
X118511173Y-4758697D01*
X118490838Y-4768836D01*
X118471281Y-4779662D01*
X118452494Y-4791178D01*
X118434470Y-4803387D01*
X118417199Y-4816294D01*
X118400674Y-4829902D01*
X118384886Y-4844216D01*
X118369828Y-4859239D01*
X118355490Y-4874975D01*
X118341865Y-4891428D01*
X118328944Y-4908602D01*
X118316720Y-4926501D01*
X118305184Y-4945128D01*
X118294327Y-4964488D01*
X118284141Y-4984584D01*
X118274619Y-5005421D01*
X118257532Y-5049330D01*
X118242998Y-5096247D01*
X118230953Y-5146203D01*
X118221331Y-5199228D01*
X118217041Y-5232547D01*
X118214086Y-5265512D01*
X118212449Y-5298096D01*
X118212116Y-5330269D01*
X117393769Y-5330269D01*
X117392652Y-5322953D01*
X117389166Y-5291554D01*
X117387047Y-5260621D01*
X117386287Y-5230168D01*
X117386876Y-5200211D01*
X117388805Y-5170766D01*
X117392065Y-5141848D01*
X117396647Y-5113472D01*
X117402541Y-5085655D01*
X117409738Y-5058411D01*
X117418229Y-5031756D01*
X117428005Y-5005706D01*
X117439056Y-4980276D01*
X117451374Y-4955482D01*
X117464949Y-4931339D01*
X117479773Y-4907862D01*
X117495835Y-4885068D01*
X117513126Y-4862971D01*
X117531638Y-4841587D01*
X117551361Y-4820932D01*
X117572286Y-4801021D01*
X117594404Y-4781870D01*
X117617705Y-4763494D01*
X117642181Y-4745908D01*
X117667822Y-4729129D01*
X117694618Y-4713171D01*
X117722562Y-4698050D01*
X117751643Y-4683782D01*
X117781852Y-4670383D01*
X117813181Y-4657867D01*
X117845619Y-4646250D01*
X117886886Y-4632942D01*
X117928327Y-4620774D01*
X117969931Y-4609706D01*
X118011687Y-4599700D01*
X118053581Y-4590718D01*
X118095604Y-4582719D01*
X118137743Y-4575667D01*
X118179986Y-4569521D01*
X118264741Y-4559796D01*
X118349775Y-4553233D01*
X118434994Y-4549523D01*
X118520307Y-4548355D01*
X120377683Y-4548355D01*
X120377683Y-4648896D01*
X120336254Y-4661345D01*
X120295290Y-4673081D01*
X120214633Y-4695529D01*
X120174879Y-4706800D01*
X120135465Y-4718474D01*
X120096361Y-4730829D01*
X120057537Y-4744146D01*
X120040175Y-4750562D01*
X120023809Y-4757892D01*
X120008442Y-4766122D01*
X119994080Y-4775235D01*
X119980725Y-4785216D01*
X119968381Y-4796050D01*
X119957053Y-4807721D01*
X119946745Y-4820214D01*
X119937459Y-4833513D01*
X119929200Y-4847603D01*
X119921973Y-4862467D01*
X119915780Y-4878092D01*
X119910626Y-4894460D01*
X119906514Y-4911558D01*
X119903449Y-4929368D01*
X119901434Y-4947876D01*
X119899492Y-4975657D01*
X119897797Y-5003438D01*
X119897120Y-5017329D01*
X119896598Y-5031220D01*
X119896262Y-5045110D01*
X119896143Y-5059001D01*
X119896143Y-7318540D01*
X119897546Y-7353091D01*
X119900794Y-7385348D01*
X119903124Y-7400635D01*
X119905933Y-7415372D01*
X119909226Y-7429566D01*
X119913010Y-7443226D01*
X119917290Y-7456358D01*
X119922071Y-7468971D01*
X119927361Y-7481072D01*
X119933164Y-7492670D01*
X119939486Y-7503771D01*
X119946334Y-7514384D01*
X119953712Y-7524517D01*
X119961627Y-7534176D01*
X119970085Y-7543371D01*
X119979091Y-7552108D01*
X119988652Y-7560396D01*
X119998772Y-7568242D01*
X120009459Y-7575653D01*
X120020717Y-7582639D01*
X120032552Y-7589206D01*
X120044971Y-7595362D01*
X120057979Y-7601115D01*
X120071582Y-7606472D01*
X120085785Y-7611442D01*
X120100595Y-7616033D01*
X120132058Y-7624105D01*
X120166017Y-7630751D01*
X120178910Y-7632848D01*
X120191772Y-7635132D01*
X120217280Y-7640010D01*
X120242291Y-7644889D01*
X120254533Y-7647173D01*
X120266558Y-7649271D01*
X120266558Y-7768331D01*
X120266556Y-7765684D01*
X119986099Y-7765684D01*
X119112974Y-7757747D01*
X118676411Y-7751546D01*
X118239849Y-7741873D01*
X118195822Y-7740230D01*
X118152051Y-7737289D01*
X118108543Y-7733054D01*
X118065307Y-7727527D01*
X118022349Y-7720715D01*
X117979679Y-7712619D01*
X117937303Y-7703244D01*
X117895229Y-7692594D01*
X117853466Y-7680673D01*
X117812020Y-7667484D01*
X117770900Y-7653032D01*
X117730113Y-7637321D01*
X117689667Y-7620353D01*
X117649570Y-7602134D01*
X117609830Y-7582667D01*
X117570454Y-7561956D01*
X117548876Y-7549769D01*
X117527810Y-7537012D01*
X117507271Y-7523674D01*
X117487275Y-7509742D01*
X117467837Y-7495206D01*
X117448972Y-7480054D01*
X117430697Y-7464274D01*
X117413026Y-7447854D01*
X117395975Y-7430784D01*
X117379560Y-7413050D01*
X117363796Y-7394642D01*
X117348699Y-7375549D01*
X117334284Y-7355757D01*
X117320566Y-7335257D01*
X117307562Y-7314035D01*
X117295286Y-7292082D01*
X117293396Y-7287905D01*
X117291700Y-7283349D01*
X117290205Y-7278467D01*
X117288920Y-7273313D01*
X117287852Y-7267943D01*
X117287008Y-7262410D01*
X117286397Y-7256768D01*
X117286026Y-7251072D01*
X117285903Y-7245376D01*
X117286036Y-7239734D01*
X117286433Y-7234201D01*
X117287101Y-7228830D01*
X117288048Y-7223677D01*
X117289281Y-7218795D01*
X117290810Y-7214239D01*
X117292641Y-7210062D01*
X117311968Y-7167275D01*
X117329316Y-7124248D01*
X117344748Y-7080989D01*
X117358332Y-7037504D01*
X117370133Y-6993803D01*
X117380217Y-6949892D01*
X117388650Y-6905779D01*
X117395498Y-6861473D01*
X117395894Y-6858166D01*
X118051998Y-6858166D01*
X118054240Y-6929200D01*
X118056450Y-6964380D01*
X118059521Y-6999304D01*
X118063553Y-7033950D01*
X118068647Y-7068292D01*
X118074904Y-7102310D01*
X118082424Y-7135978D01*
X118091309Y-7169275D01*
X118101658Y-7202176D01*
X118113573Y-7234658D01*
X118127155Y-7266699D01*
X118142504Y-7298274D01*
X118159721Y-7329362D01*
X118178907Y-7359937D01*
X118200163Y-7389978D01*
X118217301Y-7411362D01*
X118235442Y-7431851D01*
X118254535Y-7451431D01*
X118274530Y-7470092D01*
X118295376Y-7487820D01*
X118317022Y-7504604D01*
X118362509Y-7535292D01*
X118410586Y-7562057D01*
X118460845Y-7584803D01*
X118512878Y-7603433D01*
X118566280Y-7617850D01*
X118620643Y-7627957D01*
X118675560Y-7633658D01*
X118730625Y-7634855D01*
X118785430Y-7631451D01*
X118839568Y-7623351D01*
X118866260Y-7617508D01*
X118892633Y-7610455D01*
X118918635Y-7602180D01*
X118944217Y-7592669D01*
X118969327Y-7581911D01*
X118993914Y-7569895D01*
X119012730Y-7559688D01*
X119030464Y-7548889D01*
X119047090Y-7537461D01*
X119062581Y-7525371D01*
X119076909Y-7512583D01*
X119090047Y-7499062D01*
X119101968Y-7484774D01*
X119112645Y-7469684D01*
X119122050Y-7453757D01*
X119130157Y-7436957D01*
X119136939Y-7419251D01*
X119142368Y-7400603D01*
X119146418Y-7380978D01*
X119149060Y-7360342D01*
X119150269Y-7338659D01*
X119150017Y-7315895D01*
X119148498Y-7250292D01*
X119147785Y-7184471D01*
X119148033Y-7052303D01*
X119150017Y-6786728D01*
X119150017Y-6784082D01*
X119149024Y-6498331D01*
X119148900Y-6355456D01*
X119150017Y-6212582D01*
X119149796Y-6202593D01*
X119149117Y-6193446D01*
X119148600Y-6189179D01*
X119147959Y-6185112D01*
X119147192Y-6181242D01*
X119146296Y-6177565D01*
X119145269Y-6174079D01*
X119144106Y-6170778D01*
X119142807Y-6167661D01*
X119141366Y-6164724D01*
X119139783Y-6161963D01*
X119138053Y-6159375D01*
X119136173Y-6156956D01*
X119134142Y-6154704D01*
X119131956Y-6152614D01*
X119129611Y-6150684D01*
X119127106Y-6148910D01*
X119124437Y-6147288D01*
X119121602Y-6145816D01*
X119118597Y-6144489D01*
X119115419Y-6143305D01*
X119112066Y-6142260D01*
X119108535Y-6141351D01*
X119104823Y-6140574D01*
X119100926Y-6139925D01*
X119096843Y-6139403D01*
X119088103Y-6138720D01*
X119078581Y-6138498D01*
X118942154Y-6136183D01*
X118874313Y-6136080D01*
X118806720Y-6137837D01*
X118773017Y-6139684D01*
X118739376Y-6142322D01*
X118705796Y-6145860D01*
X118672279Y-6150405D01*
X118638824Y-6156066D01*
X118605430Y-6162952D01*
X118572099Y-6171171D01*
X118538830Y-6180832D01*
X118482290Y-6200589D01*
X118428816Y-6224043D01*
X118378497Y-6251048D01*
X118331421Y-6281456D01*
X118287679Y-6315119D01*
X118247360Y-6351891D01*
X118210551Y-6391624D01*
X118177344Y-6434170D01*
X118147826Y-6479383D01*
X118122086Y-6527116D01*
X118100215Y-6577220D01*
X118082301Y-6629549D01*
X118068433Y-6683955D01*
X118058701Y-6740292D01*
X118053192Y-6798411D01*
X118051998Y-6858166D01*
X117395894Y-6858166D01*
X117400827Y-6816981D01*
X117404702Y-6772311D01*
G37*
G36*
X126508079Y-4252021D02*
G01*
X126672369Y-4262604D01*
X126836163Y-4271203D01*
X127164247Y-4286417D01*
X127547893Y-4310229D01*
X127547893Y-4405479D01*
X127524989Y-4409448D01*
X127503574Y-4413417D01*
X127463226Y-4421355D01*
X127421548Y-4429150D01*
X127382812Y-4438697D01*
X127346983Y-4450074D01*
X127330147Y-4456472D01*
X127314025Y-4463357D01*
X127298613Y-4470738D01*
X127283905Y-4478625D01*
X127269898Y-4487027D01*
X127256587Y-4495955D01*
X127243968Y-4505417D01*
X127232036Y-4515424D01*
X127220787Y-4525985D01*
X127210218Y-4537110D01*
X127200322Y-4548808D01*
X127191097Y-4561090D01*
X127182537Y-4573965D01*
X127174638Y-4587443D01*
X127167397Y-4601533D01*
X127160808Y-4616245D01*
X127154867Y-4631588D01*
X127149570Y-4647573D01*
X127144913Y-4664210D01*
X127140890Y-4681507D01*
X127137499Y-4699474D01*
X127134734Y-4718122D01*
X127131065Y-4757497D01*
X127129850Y-4799709D01*
X127129850Y-7387333D01*
X127130787Y-7419869D01*
X127131965Y-7435251D01*
X127133623Y-7450053D01*
X127135765Y-7464283D01*
X127138396Y-7477950D01*
X127141522Y-7491062D01*
X127145147Y-7503626D01*
X127149275Y-7515652D01*
X127153912Y-7527148D01*
X127159063Y-7538121D01*
X127164732Y-7548580D01*
X127170925Y-7558533D01*
X127177645Y-7567989D01*
X127184898Y-7576955D01*
X127192689Y-7585441D01*
X127201023Y-7593453D01*
X127209904Y-7601001D01*
X127219337Y-7608093D01*
X127229328Y-7614736D01*
X127239880Y-7620940D01*
X127251000Y-7626711D01*
X127262691Y-7632060D01*
X127274958Y-7636993D01*
X127287807Y-7641519D01*
X127301242Y-7645647D01*
X127329890Y-7652739D01*
X127360941Y-7658335D01*
X127394434Y-7662500D01*
X127405276Y-7663823D01*
X127410394Y-7664733D01*
X127415311Y-7665807D01*
X127420027Y-7667048D01*
X127424541Y-7668453D01*
X127428853Y-7670024D01*
X127432964Y-7671760D01*
X127436873Y-7673662D01*
X127440581Y-7675729D01*
X127444087Y-7677961D01*
X127447392Y-7680359D01*
X127450495Y-7682922D01*
X127453397Y-7685651D01*
X127456097Y-7688545D01*
X127458595Y-7691604D01*
X127460892Y-7694828D01*
X127462988Y-7698218D01*
X127464882Y-7701774D01*
X127466574Y-7705494D01*
X127468065Y-7709380D01*
X127469354Y-7713432D01*
X127470442Y-7717648D01*
X127471328Y-7722031D01*
X127472013Y-7726578D01*
X127472496Y-7731291D01*
X127472778Y-7736169D01*
X127472858Y-7741213D01*
X127472736Y-7746422D01*
X127472413Y-7751796D01*
X127471163Y-7763040D01*
X127465870Y-7768335D01*
X126140308Y-7768335D01*
X126137967Y-7761994D01*
X126135905Y-7755866D01*
X126134122Y-7749947D01*
X126132619Y-7744234D01*
X126131394Y-7738722D01*
X126130448Y-7733408D01*
X126129781Y-7728287D01*
X126129394Y-7723357D01*
X126129285Y-7718612D01*
X126129456Y-7714050D01*
X126129905Y-7709665D01*
X126130634Y-7705456D01*
X126131642Y-7701417D01*
X126132928Y-7697544D01*
X126134494Y-7693834D01*
X126136339Y-7690283D01*
X126138463Y-7686888D01*
X126140866Y-7683643D01*
X126143548Y-7680545D01*
X126146509Y-7677592D01*
X126149749Y-7674777D01*
X126153268Y-7672098D01*
X126157066Y-7669551D01*
X126161143Y-7667132D01*
X126165500Y-7664837D01*
X126170135Y-7662662D01*
X126175050Y-7660603D01*
X126180243Y-7658657D01*
X126185716Y-7656819D01*
X126191467Y-7655086D01*
X126203808Y-7651918D01*
X126234239Y-7643622D01*
X126262088Y-7634540D01*
X126287442Y-7624565D01*
X126299209Y-7619211D01*
X126310384Y-7613595D01*
X126320979Y-7607704D01*
X126331002Y-7601524D01*
X126340465Y-7595043D01*
X126349379Y-7588248D01*
X126357754Y-7581125D01*
X126365601Y-7573662D01*
X126372931Y-7565845D01*
X126379754Y-7557661D01*
X126386081Y-7549097D01*
X126391923Y-7540141D01*
X126397289Y-7530778D01*
X126402192Y-7520997D01*
X126406641Y-7510783D01*
X126410647Y-7500124D01*
X126414221Y-7489007D01*
X126417374Y-7477418D01*
X126420116Y-7465345D01*
X126422458Y-7452774D01*
X126425983Y-7426088D01*
X126428036Y-7397254D01*
X126428701Y-7366169D01*
X126428701Y-6146438D01*
X126428608Y-6141391D01*
X126428329Y-6136196D01*
X126427864Y-6130893D01*
X126427213Y-6125520D01*
X126426376Y-6120116D01*
X126425353Y-6114719D01*
X126424144Y-6109370D01*
X126422749Y-6104105D01*
X126421167Y-6098965D01*
X126419400Y-6093987D01*
X126417447Y-6089211D01*
X126415308Y-6084675D01*
X126412982Y-6080418D01*
X126410471Y-6076479D01*
X126407773Y-6072897D01*
X126406355Y-6071251D01*
X126404890Y-6069710D01*
X126355116Y-6017579D01*
X126329918Y-5991622D01*
X126304349Y-5966192D01*
X126278283Y-5941630D01*
X126265025Y-5929781D01*
X126251597Y-5918277D01*
X126237983Y-5907161D01*
X126224167Y-5896475D01*
X126210135Y-5886262D01*
X126195869Y-5876564D01*
X126169859Y-5860299D01*
X126143439Y-5845289D01*
X126116630Y-5831613D01*
X126089457Y-5819348D01*
X126061944Y-5808571D01*
X126034112Y-5799359D01*
X126005986Y-5791791D01*
X125977588Y-5785944D01*
X125948943Y-5781895D01*
X125920072Y-5779722D01*
X125891001Y-5779502D01*
X125861751Y-5781314D01*
X125832345Y-5785233D01*
X125802809Y-5791339D01*
X125773163Y-5799708D01*
X125743433Y-5810418D01*
X125726229Y-5817632D01*
X125709830Y-5825373D01*
X125694218Y-5833626D01*
X125679375Y-5842374D01*
X125665283Y-5851604D01*
X125651927Y-5861298D01*
X125639287Y-5871442D01*
X125627347Y-5882021D01*
X125616089Y-5893017D01*
X125605495Y-5904417D01*
X125595549Y-5916205D01*
X125586233Y-5928364D01*
X125577529Y-5940880D01*
X125569420Y-5953737D01*
X125554917Y-5980413D01*
X125542584Y-6008266D01*
X125532282Y-6037174D01*
X125523872Y-6067012D01*
X125517213Y-6097657D01*
X125512167Y-6128983D01*
X125508593Y-6160868D01*
X125506353Y-6193186D01*
X125505306Y-6225815D01*
X125503075Y-6527440D01*
X125503323Y-6829065D01*
X125505306Y-7432314D01*
X125506114Y-7458706D01*
X125507126Y-7471238D01*
X125508546Y-7483334D01*
X125510375Y-7494998D01*
X125512614Y-7506234D01*
X125515264Y-7517047D01*
X125518328Y-7527440D01*
X125521807Y-7537419D01*
X125525702Y-7546987D01*
X125530014Y-7556150D01*
X125534746Y-7564911D01*
X125539898Y-7573274D01*
X125545472Y-7581245D01*
X125551469Y-7588827D01*
X125557892Y-7596025D01*
X125564740Y-7602844D01*
X125572017Y-7609286D01*
X125579723Y-7615358D01*
X125587859Y-7621063D01*
X125596427Y-7626405D01*
X125605430Y-7631390D01*
X125614867Y-7636020D01*
X125624741Y-7640302D01*
X125635052Y-7644238D01*
X125645803Y-7647834D01*
X125656995Y-7651094D01*
X125668630Y-7654022D01*
X125693231Y-7658900D01*
X125719620Y-7662502D01*
X125734111Y-7664009D01*
X125746873Y-7665628D01*
X125757977Y-7667472D01*
X125767492Y-7669654D01*
X125771675Y-7670906D01*
X125775487Y-7672285D01*
X125778937Y-7673804D01*
X125782033Y-7675478D01*
X125784785Y-7677320D01*
X125787200Y-7679345D01*
X125789287Y-7681567D01*
X125791056Y-7683999D01*
X125792515Y-7686656D01*
X125793672Y-7689553D01*
X125794537Y-7692702D01*
X125795118Y-7696117D01*
X125795423Y-7699814D01*
X125795463Y-7703806D01*
X125795244Y-7708107D01*
X125794777Y-7712732D01*
X125793130Y-7723006D01*
X125790591Y-7734741D01*
X125787231Y-7748050D01*
X125783119Y-7763044D01*
X124446972Y-7763044D01*
X124457307Y-7746673D01*
X124466650Y-7731294D01*
X124483353Y-7703513D01*
X124491208Y-7691110D01*
X124495120Y-7685281D01*
X124499063Y-7679700D01*
X124503068Y-7674367D01*
X124507165Y-7669282D01*
X124511387Y-7664445D01*
X124515764Y-7659857D01*
X124530851Y-7644624D01*
X124546295Y-7629651D01*
X124577942Y-7600282D01*
X124642104Y-7542445D01*
X124673379Y-7513171D01*
X124688543Y-7498268D01*
X124703289Y-7483121D01*
X124717539Y-7467679D01*
X124731215Y-7451893D01*
X124744240Y-7435712D01*
X124756536Y-7419084D01*
X124810688Y-7337388D01*
X124858107Y-7255033D01*
X124898883Y-7172042D01*
X124933105Y-7088438D01*
X124960862Y-7004245D01*
X124982244Y-6919487D01*
X124997339Y-6834186D01*
X125006237Y-6748366D01*
X125009027Y-6662049D01*
X125005798Y-6575260D01*
X124996639Y-6488021D01*
X124981639Y-6400355D01*
X124960887Y-6312287D01*
X124934474Y-6223839D01*
X124902486Y-6135034D01*
X124865015Y-6045896D01*
X124860964Y-6035752D01*
X124856913Y-6025267D01*
X124853110Y-6014596D01*
X124851378Y-6009239D01*
X124849802Y-6003894D01*
X124848412Y-5998580D01*
X124847239Y-5993316D01*
X124846314Y-5988122D01*
X124845668Y-5983017D01*
X124845332Y-5978021D01*
X124845337Y-5973152D01*
X124845714Y-5968431D01*
X124846495Y-5963877D01*
X124858223Y-5922868D01*
X124871609Y-5883235D01*
X124886701Y-5845052D01*
X124903545Y-5808392D01*
X124922187Y-5773329D01*
X124942675Y-5739936D01*
X124965053Y-5708287D01*
X124989369Y-5678456D01*
X125015670Y-5650517D01*
X125029579Y-5637279D01*
X125044002Y-5624542D01*
X125058943Y-5612315D01*
X125074411Y-5600606D01*
X125090409Y-5589426D01*
X125106943Y-5578783D01*
X125124021Y-5568686D01*
X125141647Y-5559145D01*
X125159827Y-5550169D01*
X125178567Y-5541767D01*
X125197873Y-5533948D01*
X125217751Y-5526722D01*
X125238206Y-5520097D01*
X125259245Y-5514084D01*
X125312725Y-5500917D01*
X125365993Y-5490230D01*
X125419020Y-5482086D01*
X125471780Y-5476546D01*
X125524245Y-5473673D01*
X125576388Y-5473528D01*
X125628183Y-5476174D01*
X125679602Y-5481672D01*
X125730618Y-5490085D01*
X125781203Y-5501475D01*
X125831331Y-5515903D01*
X125880975Y-5533432D01*
X125930107Y-5554123D01*
X125978700Y-5578039D01*
X126026727Y-5605241D01*
X126074161Y-5635793D01*
X126091375Y-5647442D01*
X126108310Y-5659538D01*
X126124996Y-5672029D01*
X126141466Y-5684864D01*
X126173877Y-5711369D01*
X126205793Y-5738649D01*
X126269127Y-5793922D01*
X126301043Y-5821108D01*
X126333454Y-5847458D01*
X126338013Y-5850842D01*
X126342761Y-5854068D01*
X126347703Y-5857161D01*
X126352843Y-5860150D01*
X126363732Y-5865922D01*
X126375457Y-5871602D01*
X126401543Y-5883549D01*
X126415966Y-5890252D01*
X126431351Y-5897730D01*
X126431351Y-4323459D01*
X126431573Y-4313035D01*
X126432260Y-4303568D01*
X126432788Y-4299183D01*
X126433443Y-4295024D01*
X126434231Y-4291087D01*
X126435154Y-4287367D01*
X126436216Y-4283861D01*
X126437422Y-4280563D01*
X126438776Y-4277470D01*
X126440280Y-4274577D01*
X126441940Y-4271880D01*
X126443758Y-4269374D01*
X126445739Y-4267055D01*
X126447887Y-4264919D01*
X126450205Y-4262961D01*
X126452698Y-4261177D01*
X126455369Y-4259563D01*
X126458222Y-4258113D01*
X126461261Y-4256825D01*
X126464490Y-4255693D01*
X126467913Y-4254713D01*
X126471534Y-4253881D01*
X126475356Y-4253192D01*
X126479383Y-4252643D01*
X126488070Y-4251943D01*
X126497625Y-4251748D01*
X126508079Y-4252021D01*
G37*
G36*
X110890255Y-5485874D02*
G01*
X110920912Y-5488116D01*
X110951281Y-5491901D01*
X110981337Y-5497217D01*
X111011052Y-5504051D01*
X111040398Y-5512394D01*
X111069349Y-5522233D01*
X111097878Y-5533556D01*
X111125957Y-5546351D01*
X111153559Y-5560608D01*
X111180657Y-5576315D01*
X111207225Y-5593459D01*
X111226452Y-5607064D01*
X111245455Y-5621064D01*
X111282879Y-5650096D01*
X111319683Y-5680244D01*
X111356053Y-5711198D01*
X111428235Y-5774285D01*
X111464419Y-5805797D01*
X111500913Y-5836876D01*
X111511103Y-5844715D01*
X111521914Y-5852461D01*
X111533469Y-5860269D01*
X111545892Y-5868294D01*
X111573839Y-5885616D01*
X111606747Y-5905666D01*
X111607739Y-5728065D01*
X111607863Y-5648566D01*
X111607506Y-5610165D01*
X111606747Y-5572291D01*
X111606471Y-5563295D01*
X111606654Y-5555135D01*
X111606924Y-5551359D01*
X111607316Y-5547782D01*
X111607835Y-5544397D01*
X111608483Y-5541203D01*
X111609263Y-5538195D01*
X111610177Y-5535369D01*
X111611229Y-5532721D01*
X111612421Y-5530248D01*
X111613757Y-5527945D01*
X111615239Y-5525809D01*
X111616870Y-5523836D01*
X111618653Y-5522021D01*
X111620592Y-5520362D01*
X111622688Y-5518854D01*
X111624945Y-5517493D01*
X111627366Y-5516275D01*
X111629954Y-5515197D01*
X111632711Y-5514254D01*
X111635640Y-5513444D01*
X111638745Y-5512761D01*
X111642029Y-5512202D01*
X111645493Y-5511763D01*
X111652977Y-5511231D01*
X111661220Y-5511133D01*
X111670247Y-5511437D01*
X112049924Y-5533597D01*
X112429601Y-5553771D01*
X112460235Y-5554996D01*
X112490621Y-5556624D01*
X112550648Y-5560717D01*
X112667726Y-5569647D01*
X112671197Y-5582552D01*
X112672557Y-5588644D01*
X112673664Y-5594503D01*
X112674517Y-5600133D01*
X112675115Y-5605540D01*
X112675456Y-5610727D01*
X112675540Y-5615700D01*
X112675363Y-5620464D01*
X112674925Y-5625024D01*
X112674225Y-5629384D01*
X112673261Y-5633549D01*
X112672031Y-5637525D01*
X112670534Y-5641315D01*
X112668769Y-5644925D01*
X112666734Y-5648360D01*
X112664428Y-5651624D01*
X112661848Y-5654722D01*
X112658995Y-5657660D01*
X112655866Y-5660442D01*
X112652460Y-5663072D01*
X112648776Y-5665556D01*
X112644811Y-5667899D01*
X112640565Y-5670105D01*
X112636036Y-5672180D01*
X112631223Y-5674127D01*
X112626123Y-5675952D01*
X112620737Y-5677660D01*
X112609096Y-5680744D01*
X112596289Y-5683417D01*
X112561478Y-5691934D01*
X112544764Y-5696986D01*
X112528520Y-5702558D01*
X112512753Y-5708642D01*
X112497469Y-5715229D01*
X112482675Y-5722313D01*
X112468379Y-5729885D01*
X112454586Y-5737937D01*
X112441304Y-5746463D01*
X112428540Y-5755453D01*
X112416299Y-5764901D01*
X112404590Y-5774798D01*
X112393418Y-5785137D01*
X112382791Y-5795910D01*
X112372716Y-5807110D01*
X112363198Y-5818728D01*
X112354245Y-5830757D01*
X112345864Y-5843189D01*
X112338061Y-5856016D01*
X112330844Y-5869231D01*
X112324219Y-5882826D01*
X112318192Y-5896793D01*
X112312771Y-5911124D01*
X112307962Y-5925812D01*
X112303773Y-5940848D01*
X112300209Y-5956226D01*
X112297278Y-5971936D01*
X112294987Y-5987973D01*
X112293342Y-6004327D01*
X112292350Y-6020991D01*
X112292018Y-6037958D01*
X112292018Y-7427021D01*
X112292332Y-7442240D01*
X112293289Y-7457122D01*
X112294913Y-7471640D01*
X112297227Y-7485766D01*
X112300254Y-7499474D01*
X112304017Y-7512736D01*
X112306182Y-7519192D01*
X112308540Y-7525525D01*
X112311094Y-7531734D01*
X112313846Y-7537815D01*
X112316800Y-7543763D01*
X112319958Y-7549577D01*
X112323324Y-7555252D01*
X112326900Y-7560785D01*
X112330689Y-7566173D01*
X112334694Y-7571412D01*
X112338918Y-7576499D01*
X112343364Y-7581430D01*
X112348034Y-7586203D01*
X112352933Y-7590813D01*
X112358062Y-7595257D01*
X112363425Y-7599533D01*
X112369023Y-7603636D01*
X112374862Y-7607563D01*
X112380942Y-7611310D01*
X112387268Y-7614876D01*
X112394277Y-7618666D01*
X112400923Y-7622594D01*
X112407215Y-7626657D01*
X112413163Y-7630854D01*
X112418775Y-7635183D01*
X112424062Y-7639642D01*
X112429032Y-7644228D01*
X112433694Y-7648941D01*
X112438058Y-7653778D01*
X112442132Y-7658736D01*
X112445926Y-7663815D01*
X112449450Y-7669012D01*
X112455722Y-7679753D01*
X112461020Y-7690944D01*
X112465420Y-7702568D01*
X112468994Y-7714611D01*
X112471816Y-7727058D01*
X112473960Y-7739891D01*
X112475499Y-7753097D01*
X112476508Y-7766660D01*
X112477059Y-7780563D01*
X112477226Y-7794792D01*
X111191351Y-7794792D01*
X111189247Y-7780007D01*
X111186927Y-7765316D01*
X111181759Y-7735591D01*
X111176095Y-7704379D01*
X111170184Y-7670437D01*
X111172828Y-7675728D01*
X111220659Y-7669734D01*
X111265763Y-7663492D01*
X111309378Y-7656754D01*
X111352745Y-7649271D01*
X111386585Y-7642249D01*
X111417708Y-7634026D01*
X111446187Y-7624516D01*
X111459459Y-7619252D01*
X111472097Y-7613634D01*
X111484112Y-7607652D01*
X111495511Y-7601295D01*
X111506305Y-7594552D01*
X111516503Y-7587414D01*
X111526113Y-7579868D01*
X111535146Y-7571904D01*
X111543609Y-7563512D01*
X111551514Y-7554682D01*
X111558867Y-7545401D01*
X111565680Y-7535661D01*
X111571961Y-7525449D01*
X111577719Y-7514756D01*
X111582963Y-7503571D01*
X111587703Y-7491883D01*
X111591948Y-7479682D01*
X111595707Y-7466956D01*
X111598990Y-7453695D01*
X111601804Y-7439889D01*
X111606068Y-7410597D01*
X111608573Y-7378996D01*
X111609391Y-7344999D01*
X111609474Y-7065243D01*
X111608068Y-6785736D01*
X111608647Y-6506724D01*
X111610766Y-6367482D01*
X111614683Y-6228456D01*
X111615001Y-6214720D01*
X111614963Y-6201288D01*
X111614569Y-6188154D01*
X111613820Y-6175312D01*
X111612717Y-6162758D01*
X111611259Y-6150484D01*
X111609448Y-6138486D01*
X111607283Y-6126757D01*
X111604766Y-6115292D01*
X111601896Y-6104084D01*
X111598675Y-6093129D01*
X111595103Y-6082419D01*
X111591180Y-6071950D01*
X111586906Y-6061715D01*
X111582283Y-6051709D01*
X111577311Y-6041926D01*
X111571989Y-6032359D01*
X111566320Y-6023004D01*
X111560302Y-6013855D01*
X111553937Y-6004905D01*
X111547226Y-5996148D01*
X111540168Y-5987580D01*
X111532764Y-5979194D01*
X111525014Y-5970984D01*
X111516920Y-5962945D01*
X111508481Y-5955071D01*
X111499698Y-5947355D01*
X111490572Y-5939793D01*
X111471291Y-5925104D01*
X111450642Y-5910957D01*
X111408887Y-5885326D01*
X111387854Y-5872820D01*
X111366636Y-5860686D01*
X111345169Y-5849049D01*
X111323393Y-5838031D01*
X111301244Y-5827758D01*
X111290011Y-5822940D01*
X111278662Y-5818354D01*
X111267685Y-5814535D01*
X111256585Y-5811000D01*
X111234013Y-5804670D01*
X111210945Y-5799145D01*
X111187380Y-5794210D01*
X111088161Y-5776020D01*
X111110982Y-5874578D01*
X111115990Y-5897047D01*
X111120532Y-5918896D01*
X111124516Y-5940248D01*
X111127849Y-5961229D01*
X111130066Y-5976716D01*
X111131757Y-5991920D01*
X111132923Y-6006839D01*
X111133565Y-6021468D01*
X111133683Y-6035805D01*
X111133279Y-6049846D01*
X111132354Y-6063587D01*
X111130908Y-6077025D01*
X111128944Y-6090158D01*
X111126460Y-6102981D01*
X111123460Y-6115490D01*
X111119943Y-6127684D01*
X111115910Y-6139557D01*
X111111363Y-6151108D01*
X111106303Y-6162332D01*
X111100729Y-6173226D01*
X111094645Y-6183787D01*
X111088049Y-6194011D01*
X111080944Y-6203895D01*
X111073331Y-6213435D01*
X111065209Y-6222629D01*
X111056581Y-6231472D01*
X111047447Y-6239962D01*
X111037808Y-6248094D01*
X111027666Y-6255867D01*
X111017020Y-6263275D01*
X111005873Y-6270316D01*
X110994225Y-6276986D01*
X110982076Y-6283283D01*
X110969429Y-6289202D01*
X110956284Y-6294740D01*
X110942641Y-6299894D01*
X110930675Y-6303652D01*
X110918596Y-6307010D01*
X110906416Y-6310004D01*
X110894148Y-6312668D01*
X110869390Y-6317149D01*
X110844414Y-6320730D01*
X110744203Y-6331644D01*
X110740777Y-6332078D01*
X110737443Y-6332388D01*
X110734200Y-6332572D01*
X110731047Y-6332631D01*
X110727983Y-6332565D01*
X110725007Y-6332371D01*
X110722118Y-6332051D01*
X110719316Y-6331603D01*
X110716599Y-6331028D01*
X110713966Y-6330324D01*
X110711417Y-6329491D01*
X110708950Y-6328529D01*
X110706564Y-6327437D01*
X110704259Y-6326214D01*
X110702033Y-6324861D01*
X110699886Y-6323377D01*
X110697816Y-6321761D01*
X110695823Y-6320012D01*
X110693905Y-6318131D01*
X110692062Y-6316116D01*
X110690293Y-6313968D01*
X110688596Y-6311686D01*
X110686971Y-6309269D01*
X110685417Y-6306716D01*
X110683932Y-6304028D01*
X110682516Y-6301204D01*
X110681168Y-6298244D01*
X110679887Y-6295146D01*
X110677522Y-6288537D01*
X110675412Y-6281374D01*
X110667013Y-6250832D01*
X110657708Y-6220716D01*
X110647518Y-6191019D01*
X110636469Y-6161733D01*
X110624582Y-6132849D01*
X110611881Y-6104362D01*
X110598390Y-6076261D01*
X110584131Y-6048541D01*
X110569128Y-6021192D01*
X110553404Y-5994208D01*
X110536983Y-5967581D01*
X110519887Y-5941302D01*
X110502140Y-5915365D01*
X110483765Y-5889761D01*
X110464786Y-5864482D01*
X110445225Y-5839521D01*
X110442809Y-5835870D01*
X110440533Y-5831889D01*
X110438411Y-5827621D01*
X110436461Y-5823109D01*
X110434696Y-5818395D01*
X110433133Y-5813523D01*
X110431787Y-5808534D01*
X110430673Y-5803472D01*
X110429808Y-5798378D01*
X110429206Y-5793296D01*
X110428883Y-5788269D01*
X110428854Y-5783338D01*
X110429136Y-5778547D01*
X110429743Y-5773938D01*
X110430691Y-5769554D01*
X110431996Y-5765437D01*
X110441575Y-5738804D01*
X110452444Y-5713477D01*
X110464593Y-5689459D01*
X110478009Y-5666756D01*
X110492680Y-5645371D01*
X110508596Y-5625307D01*
X110525744Y-5606568D01*
X110544113Y-5589159D01*
X110563691Y-5573083D01*
X110584467Y-5558344D01*
X110606429Y-5544947D01*
X110629565Y-5532894D01*
X110653864Y-5522190D01*
X110679314Y-5512838D01*
X110705903Y-5504843D01*
X110733620Y-5498209D01*
X110765304Y-5492564D01*
X110796836Y-5488519D01*
X110828190Y-5486064D01*
X110859339Y-5485186D01*
X110890255Y-5485874D01*
G37*
G36*
X109378955Y-4299643D02*
G01*
X109378955Y-4394894D01*
X109355266Y-4399627D01*
X109331826Y-4403989D01*
X109285690Y-4412092D01*
X109240545Y-4420195D01*
X109218344Y-4424556D01*
X109196392Y-4429290D01*
X109154189Y-4439652D01*
X109114878Y-4451914D01*
X109078434Y-4466113D01*
X109061281Y-4473952D01*
X109044835Y-4482289D01*
X109029096Y-4491131D01*
X109014058Y-4500481D01*
X108999721Y-4510344D01*
X108986079Y-4520726D01*
X108973132Y-4531631D01*
X108960875Y-4543065D01*
X108949307Y-4555031D01*
X108938423Y-4567535D01*
X108928222Y-4580581D01*
X108918700Y-4594175D01*
X108909854Y-4608322D01*
X108901681Y-4623025D01*
X108894179Y-4638290D01*
X108887345Y-4654123D01*
X108881175Y-4670526D01*
X108875667Y-4687507D01*
X108870818Y-4705069D01*
X108866625Y-4723216D01*
X108863085Y-4741955D01*
X108860196Y-4761290D01*
X108856355Y-4801767D01*
X108855080Y-4844685D01*
X108855080Y-5564353D01*
X108857725Y-5630499D01*
X108892100Y-5617280D01*
X108925855Y-5603627D01*
X108992001Y-5576259D01*
X109024639Y-5563164D01*
X109057154Y-5550875D01*
X109089669Y-5539703D01*
X109105966Y-5534632D01*
X109122309Y-5529957D01*
X109201247Y-5510975D01*
X109279301Y-5495804D01*
X109356457Y-5484593D01*
X109432697Y-5477495D01*
X109508008Y-5474660D01*
X109582373Y-5476239D01*
X109655777Y-5482384D01*
X109728204Y-5493246D01*
X109799639Y-5508975D01*
X109870066Y-5529724D01*
X109939470Y-5555643D01*
X110007836Y-5586883D01*
X110075147Y-5623596D01*
X110141388Y-5665933D01*
X110206545Y-5714044D01*
X110270600Y-5768082D01*
X110316539Y-5811872D01*
X110359153Y-5857338D01*
X110398511Y-5904354D01*
X110434683Y-5952799D01*
X110467739Y-6002548D01*
X110497749Y-6053477D01*
X110524783Y-6105463D01*
X110548909Y-6158383D01*
X110570198Y-6212113D01*
X110588720Y-6266530D01*
X110604545Y-6321509D01*
X110617742Y-6376928D01*
X110628381Y-6432663D01*
X110636532Y-6488590D01*
X110642264Y-6544585D01*
X110645647Y-6600526D01*
X110645647Y-6711750D01*
X110637090Y-6821273D01*
X110620533Y-6928105D01*
X110596534Y-7031260D01*
X110565652Y-7129748D01*
X110528445Y-7222581D01*
X110485471Y-7308772D01*
X110437288Y-7387331D01*
X110392577Y-7449615D01*
X110345754Y-7507453D01*
X110296814Y-7560804D01*
X110245755Y-7609623D01*
X110192571Y-7653869D01*
X110137260Y-7693500D01*
X110079817Y-7728471D01*
X110020239Y-7758741D01*
X109958521Y-7784268D01*
X109894660Y-7805007D01*
X109828652Y-7820918D01*
X109760492Y-7831956D01*
X109690178Y-7838081D01*
X109617705Y-7839248D01*
X109543070Y-7835415D01*
X109466267Y-7826540D01*
X109430361Y-7820781D01*
X109395068Y-7813461D01*
X109360379Y-7804629D01*
X109326286Y-7794336D01*
X109292783Y-7782632D01*
X109259861Y-7769568D01*
X109227513Y-7755193D01*
X109195731Y-7739559D01*
X109164507Y-7722716D01*
X109133833Y-7704714D01*
X109103702Y-7685603D01*
X109074105Y-7665435D01*
X109045036Y-7644258D01*
X109016486Y-7622125D01*
X108988448Y-7599084D01*
X108960914Y-7575188D01*
X108956795Y-7571866D01*
X108952397Y-7568826D01*
X108947751Y-7566043D01*
X108942888Y-7563488D01*
X108937839Y-7561135D01*
X108932636Y-7558957D01*
X108927308Y-7556925D01*
X108921887Y-7555014D01*
X108910890Y-7551443D01*
X108899893Y-7548027D01*
X108889145Y-7544549D01*
X108883941Y-7542719D01*
X108878892Y-7540792D01*
X108877287Y-7545754D01*
X108875476Y-7550719D01*
X108871410Y-7560677D01*
X108862687Y-7580810D01*
X108860632Y-7585911D01*
X108858713Y-7591047D01*
X108856972Y-7596222D01*
X108855452Y-7601439D01*
X108854196Y-7606703D01*
X108853245Y-7612017D01*
X108852644Y-7617385D01*
X108852434Y-7622812D01*
X108851674Y-7642661D01*
X108851318Y-7662541D01*
X108851442Y-7702518D01*
X108852062Y-7742992D01*
X108852434Y-7784208D01*
X108299124Y-7750144D01*
X107751768Y-7718063D01*
X107751768Y-7622812D01*
X107751767Y-7617517D01*
X107792488Y-7613508D01*
X107831473Y-7609249D01*
X107850392Y-7606950D01*
X107868969Y-7604495D01*
X107887237Y-7601854D01*
X107905226Y-7598997D01*
X107934124Y-7593757D01*
X107961294Y-7586962D01*
X107974234Y-7582981D01*
X107986744Y-7578609D01*
X107998825Y-7573847D01*
X108010480Y-7568694D01*
X108021708Y-7563150D01*
X108032511Y-7557214D01*
X108042889Y-7550885D01*
X108052844Y-7544164D01*
X108062377Y-7537049D01*
X108071488Y-7529540D01*
X108080178Y-7521637D01*
X108088449Y-7513338D01*
X108096302Y-7504645D01*
X108103736Y-7495556D01*
X108110754Y-7486070D01*
X108117357Y-7476188D01*
X108123545Y-7465909D01*
X108129319Y-7455231D01*
X108134680Y-7444156D01*
X108139630Y-7432682D01*
X108144168Y-7420808D01*
X108148297Y-7408535D01*
X108152017Y-7395862D01*
X108155329Y-7382788D01*
X108160733Y-7355437D01*
X108164517Y-7326477D01*
X108165390Y-7312705D01*
X108166047Y-7299150D01*
X108166517Y-7285781D01*
X108166832Y-7272567D01*
X108167121Y-7246480D01*
X108167163Y-7220642D01*
X108167163Y-6102199D01*
X108855077Y-6102199D01*
X108855080Y-6125271D01*
X108856600Y-6194838D01*
X108857313Y-6264591D01*
X108857065Y-6404406D01*
X108855080Y-6683542D01*
X108857727Y-6688833D01*
X108855742Y-6991781D01*
X108855494Y-7143503D01*
X108857727Y-7294729D01*
X108857941Y-7301732D01*
X108858569Y-7308832D01*
X108859593Y-7316002D01*
X108860993Y-7323215D01*
X108862749Y-7330442D01*
X108864843Y-7337658D01*
X108867254Y-7344836D01*
X108869964Y-7351947D01*
X108872953Y-7358965D01*
X108876202Y-7365863D01*
X108879690Y-7372614D01*
X108883400Y-7379191D01*
X108887311Y-7385565D01*
X108891405Y-7391712D01*
X108895661Y-7397602D01*
X108900061Y-7403210D01*
X108923058Y-7427655D01*
X108947336Y-7450380D01*
X108972795Y-7471370D01*
X108999336Y-7490610D01*
X109026859Y-7508084D01*
X109055266Y-7523778D01*
X109084456Y-7537676D01*
X109114331Y-7549764D01*
X109144791Y-7560026D01*
X109175737Y-7568448D01*
X109207070Y-7575014D01*
X109238690Y-7579710D01*
X109270498Y-7582520D01*
X109302395Y-7583430D01*
X109334281Y-7582424D01*
X109366057Y-7579487D01*
X109397624Y-7574605D01*
X109428882Y-7567763D01*
X109459732Y-7558944D01*
X109490075Y-7548135D01*
X109519812Y-7535321D01*
X109548842Y-7520485D01*
X109577068Y-7503614D01*
X109604389Y-7484692D01*
X109630706Y-7463705D01*
X109655920Y-7440636D01*
X109679931Y-7415472D01*
X109702641Y-7388197D01*
X109723950Y-7358796D01*
X109743758Y-7327254D01*
X109761967Y-7293557D01*
X109778477Y-7257688D01*
X109788151Y-7234221D01*
X109797334Y-7210466D01*
X109814237Y-7162190D01*
X109829218Y-7113046D01*
X109842308Y-7063220D01*
X109853537Y-7012897D01*
X109862937Y-6962265D01*
X109870538Y-6911508D01*
X109876372Y-6860813D01*
X109885312Y-6754685D01*
X109888174Y-6701689D01*
X109889850Y-6648774D01*
X109890254Y-6595968D01*
X109889302Y-6543297D01*
X109886908Y-6490789D01*
X109882987Y-6438471D01*
X109877454Y-6386371D01*
X109870223Y-6334514D01*
X109861209Y-6282929D01*
X109850328Y-6231642D01*
X109837492Y-6180680D01*
X109822619Y-6130072D01*
X109805621Y-6079843D01*
X109786414Y-6030022D01*
X109778200Y-6010214D01*
X109769443Y-5990499D01*
X109760160Y-5970908D01*
X109750364Y-5951473D01*
X109740073Y-5932223D01*
X109729301Y-5913191D01*
X109718064Y-5894406D01*
X109706377Y-5875901D01*
X109694257Y-5857706D01*
X109681717Y-5839851D01*
X109668775Y-5822369D01*
X109655445Y-5805290D01*
X109641743Y-5788645D01*
X109627685Y-5772465D01*
X109613285Y-5756781D01*
X109598560Y-5741625D01*
X109581322Y-5725151D01*
X109563378Y-5709956D01*
X109544780Y-5696028D01*
X109525583Y-5683360D01*
X109505839Y-5671941D01*
X109485602Y-5661764D01*
X109464925Y-5652817D01*
X109443862Y-5645094D01*
X109422465Y-5638583D01*
X109400788Y-5633276D01*
X109378885Y-5629164D01*
X109356808Y-5626237D01*
X109334611Y-5624486D01*
X109312347Y-5623903D01*
X109290069Y-5624478D01*
X109267831Y-5626201D01*
X109245686Y-5629063D01*
X109223688Y-5633056D01*
X109201889Y-5638170D01*
X109180343Y-5644396D01*
X109159103Y-5651724D01*
X109138223Y-5660146D01*
X109117755Y-5669652D01*
X109097754Y-5680233D01*
X109078271Y-5691880D01*
X109059362Y-5704584D01*
X109041078Y-5718335D01*
X109023474Y-5733124D01*
X109006602Y-5748942D01*
X108990516Y-5765780D01*
X108975269Y-5783629D01*
X108960914Y-5802479D01*
X108948360Y-5820435D01*
X108936508Y-5838596D01*
X108925376Y-5856982D01*
X108914984Y-5875612D01*
X108905352Y-5894505D01*
X108896499Y-5913682D01*
X108888445Y-5933161D01*
X108881208Y-5952961D01*
X108874809Y-5973103D01*
X108869266Y-5993605D01*
X108864599Y-6014487D01*
X108860827Y-6035768D01*
X108857970Y-6057467D01*
X108856047Y-6079605D01*
X108855077Y-6102199D01*
X108167163Y-6102199D01*
X108167163Y-4241435D01*
X109378955Y-4299643D01*
G37*
G36*
X112717086Y-6417635D02*
G01*
X112715350Y-6143791D01*
X112715853Y-6113352D01*
X112717360Y-6083556D01*
X112719865Y-6054409D01*
X112723365Y-6025917D01*
X112727855Y-5998089D01*
X112733332Y-5970930D01*
X112739789Y-5944447D01*
X112747224Y-5918647D01*
X112755632Y-5893538D01*
X112765008Y-5869125D01*
X112775348Y-5845415D01*
X112786648Y-5822415D01*
X112798904Y-5800133D01*
X112812110Y-5778574D01*
X112826263Y-5757746D01*
X112841358Y-5737656D01*
X112857391Y-5718309D01*
X112874358Y-5699714D01*
X112892254Y-5681876D01*
X112911075Y-5664802D01*
X112930816Y-5648500D01*
X112951474Y-5632976D01*
X112973043Y-5618237D01*
X112995520Y-5604289D01*
X113018899Y-5591140D01*
X113043177Y-5578796D01*
X113068350Y-5567264D01*
X113094413Y-5556550D01*
X113121361Y-5546663D01*
X113149190Y-5537607D01*
X113177897Y-5529391D01*
X113207476Y-5522020D01*
X113275934Y-5507176D01*
X113344382Y-5494425D01*
X113412806Y-5483813D01*
X113481195Y-5475388D01*
X113549538Y-5469194D01*
X113617823Y-5465280D01*
X113686037Y-5463691D01*
X113754171Y-5464474D01*
X113822211Y-5467675D01*
X113890147Y-5473342D01*
X113957967Y-5481520D01*
X114025658Y-5492255D01*
X114093210Y-5505596D01*
X114160611Y-5521587D01*
X114227849Y-5540276D01*
X114294913Y-5561708D01*
X114321078Y-5570861D01*
X114346972Y-5580487D01*
X114372571Y-5590625D01*
X114397852Y-5601313D01*
X114422792Y-5612590D01*
X114447368Y-5624495D01*
X114471557Y-5637066D01*
X114495335Y-5650343D01*
X114518678Y-5664365D01*
X114541564Y-5679169D01*
X114563970Y-5694794D01*
X114585872Y-5711280D01*
X114607246Y-5728665D01*
X114628071Y-5746989D01*
X114648321Y-5766289D01*
X114667975Y-5786604D01*
X114681698Y-5802733D01*
X114694102Y-5819334D01*
X114705201Y-5836352D01*
X114715011Y-5853731D01*
X114723546Y-5871417D01*
X114730820Y-5889353D01*
X114736848Y-5907485D01*
X114741645Y-5925758D01*
X114745225Y-5944116D01*
X114747602Y-5962504D01*
X114748791Y-5980866D01*
X114748807Y-5999149D01*
X114747664Y-6017295D01*
X114745377Y-6035251D01*
X114741960Y-6052961D01*
X114737428Y-6070369D01*
X114731795Y-6087421D01*
X114725076Y-6104061D01*
X114717286Y-6120234D01*
X114708438Y-6135885D01*
X114698548Y-6150958D01*
X114687629Y-6165398D01*
X114675697Y-6179151D01*
X114662766Y-6192160D01*
X114648851Y-6204371D01*
X114633966Y-6215729D01*
X114618125Y-6226177D01*
X114601344Y-6235661D01*
X114583636Y-6244127D01*
X114565017Y-6251517D01*
X114545500Y-6257778D01*
X114525101Y-6262854D01*
X114508114Y-6266110D01*
X114490906Y-6268941D01*
X114473505Y-6271353D01*
X114455936Y-6273354D01*
X114438229Y-6274952D01*
X114420409Y-6276155D01*
X114384540Y-6277405D01*
X114348548Y-6277167D01*
X114312648Y-6275503D01*
X114277059Y-6272475D01*
X114241997Y-6268145D01*
X114227362Y-6265673D01*
X114213224Y-6262726D01*
X114199585Y-6259309D01*
X114186444Y-6255427D01*
X114173804Y-6251086D01*
X114161664Y-6246292D01*
X114150026Y-6241048D01*
X114138891Y-6235361D01*
X114128260Y-6229237D01*
X114118134Y-6222679D01*
X114108514Y-6215695D01*
X114099400Y-6208288D01*
X114090794Y-6200465D01*
X114082697Y-6192230D01*
X114075110Y-6183590D01*
X114068033Y-6174549D01*
X114061467Y-6165112D01*
X114055414Y-6155285D01*
X114049875Y-6145074D01*
X114044851Y-6134484D01*
X114040341Y-6123519D01*
X114036348Y-6112186D01*
X114032873Y-6100489D01*
X114029916Y-6088435D01*
X114027478Y-6076028D01*
X114025561Y-6063273D01*
X114024165Y-6050176D01*
X114023291Y-6036743D01*
X114023114Y-6008888D01*
X114025038Y-5979750D01*
X114027384Y-5961022D01*
X114030412Y-5942542D01*
X114034061Y-5924310D01*
X114038267Y-5906327D01*
X114042970Y-5888592D01*
X114048106Y-5871104D01*
X114053615Y-5853865D01*
X114059434Y-5836874D01*
X114068649Y-5807865D01*
X114076353Y-5782159D01*
X114082398Y-5759460D01*
X114086637Y-5739474D01*
X114088033Y-5730406D01*
X114088922Y-5721907D01*
X114089286Y-5713938D01*
X114089107Y-5706463D01*
X114088366Y-5699446D01*
X114087044Y-5692849D01*
X114085123Y-5686636D01*
X114082585Y-5680770D01*
X114079412Y-5675213D01*
X114075585Y-5669930D01*
X114071085Y-5664884D01*
X114065894Y-5660037D01*
X114059994Y-5655353D01*
X114053366Y-5650795D01*
X114045993Y-5646326D01*
X114037854Y-5641909D01*
X114019211Y-5633085D01*
X113997288Y-5624029D01*
X113971940Y-5614445D01*
X113943018Y-5604040D01*
X113917110Y-5595588D01*
X113891497Y-5588574D01*
X113866209Y-5582980D01*
X113841277Y-5578786D01*
X113816734Y-5575974D01*
X113792609Y-5574525D01*
X113768933Y-5574419D01*
X113745738Y-5575639D01*
X113723055Y-5578165D01*
X113700914Y-5581978D01*
X113679347Y-5587059D01*
X113658384Y-5593390D01*
X113638057Y-5600951D01*
X113618397Y-5609724D01*
X113599434Y-5619690D01*
X113581200Y-5630830D01*
X113563726Y-5643124D01*
X113547042Y-5656555D01*
X113531180Y-5671103D01*
X113516170Y-5686749D01*
X113502045Y-5703474D01*
X113488834Y-5721260D01*
X113476568Y-5740088D01*
X113465279Y-5759938D01*
X113454998Y-5780792D01*
X113445756Y-5802631D01*
X113437583Y-5825436D01*
X113430511Y-5849189D01*
X113424571Y-5873869D01*
X113419794Y-5899459D01*
X113416210Y-5925939D01*
X113413851Y-5953291D01*
X113411221Y-5994962D01*
X113409180Y-6036634D01*
X113406245Y-6119978D01*
X113403806Y-6203322D01*
X113400622Y-6286665D01*
X113400346Y-6295845D01*
X113400524Y-6304540D01*
X113400789Y-6308710D01*
X113401174Y-6312762D01*
X113401683Y-6316700D01*
X113402317Y-6320524D01*
X113403079Y-6324235D01*
X113403971Y-6327835D01*
X113404996Y-6331326D01*
X113406156Y-6334709D01*
X113407454Y-6337985D01*
X113408892Y-6341156D01*
X113410472Y-6344223D01*
X113412197Y-6347189D01*
X113414070Y-6350053D01*
X113416092Y-6352818D01*
X113418266Y-6355485D01*
X113420595Y-6358056D01*
X113423080Y-6360532D01*
X113425725Y-6362914D01*
X113428532Y-6365205D01*
X113431504Y-6367404D01*
X113434641Y-6369515D01*
X113437948Y-6371538D01*
X113441427Y-6373475D01*
X113445079Y-6375327D01*
X113448908Y-6377095D01*
X113452915Y-6378782D01*
X113457104Y-6380388D01*
X113461476Y-6381916D01*
X113675788Y-6452361D01*
X113782945Y-6487955D01*
X113890101Y-6524790D01*
X114057905Y-6582544D01*
X114226452Y-6639553D01*
X114310308Y-6669096D01*
X114393512Y-6700035D01*
X114475786Y-6732895D01*
X114556851Y-6768206D01*
X114578299Y-6778550D01*
X114598983Y-6789724D01*
X114618902Y-6801706D01*
X114638050Y-6814471D01*
X114656425Y-6827999D01*
X114674024Y-6842265D01*
X114706878Y-6872923D01*
X114736584Y-6906263D01*
X114763117Y-6942102D01*
X114786448Y-6980260D01*
X114806551Y-7020553D01*
X114823398Y-7062799D01*
X114836962Y-7106816D01*
X114847217Y-7152423D01*
X114854135Y-7199436D01*
X114857688Y-7247674D01*
X114857850Y-7296955D01*
X114854594Y-7347096D01*
X114847893Y-7397915D01*
X114843958Y-7417903D01*
X114839114Y-7437668D01*
X114833380Y-7457192D01*
X114826778Y-7476453D01*
X114819326Y-7495431D01*
X114811046Y-7514106D01*
X114792082Y-7550464D01*
X114770048Y-7585365D01*
X114745108Y-7618646D01*
X114717424Y-7650144D01*
X114687158Y-7679697D01*
X114654474Y-7707141D01*
X114619534Y-7732314D01*
X114582501Y-7755052D01*
X114543539Y-7775195D01*
X114502808Y-7792577D01*
X114460474Y-7807037D01*
X114416697Y-7818413D01*
X114371642Y-7826540D01*
X114308640Y-7834319D01*
X114246642Y-7838793D01*
X114185659Y-7839941D01*
X114125703Y-7837744D01*
X114066786Y-7832183D01*
X114008920Y-7823239D01*
X113952115Y-7810891D01*
X113896384Y-7795122D01*
X113841738Y-7775910D01*
X113788189Y-7753238D01*
X113735748Y-7727085D01*
X113684428Y-7697432D01*
X113634239Y-7664260D01*
X113585194Y-7627550D01*
X113537303Y-7587282D01*
X113490579Y-7543436D01*
X113478720Y-7532338D01*
X113467888Y-7522863D01*
X113462830Y-7518739D01*
X113457994Y-7515024D01*
X113453371Y-7511722D01*
X113448949Y-7508833D01*
X113444717Y-7506358D01*
X113440663Y-7504300D01*
X113436778Y-7502659D01*
X113433048Y-7501438D01*
X113429464Y-7500637D01*
X113426014Y-7500258D01*
X113422688Y-7500302D01*
X113419473Y-7500771D01*
X113416359Y-7501667D01*
X113413334Y-7502990D01*
X113410389Y-7504743D01*
X113407510Y-7506926D01*
X113404688Y-7509541D01*
X113401910Y-7512590D01*
X113399167Y-7516074D01*
X113396446Y-7519995D01*
X113393737Y-7524353D01*
X113391029Y-7529151D01*
X113388309Y-7534390D01*
X113385568Y-7540071D01*
X113379976Y-7552766D01*
X113374163Y-7567247D01*
X113364829Y-7589192D01*
X113354676Y-7610346D01*
X113343694Y-7630663D01*
X113331871Y-7650096D01*
X113319196Y-7668599D01*
X113305656Y-7686125D01*
X113291240Y-7702628D01*
X113275937Y-7718061D01*
X113259735Y-7732378D01*
X113242621Y-7745533D01*
X113224586Y-7757478D01*
X113205616Y-7768167D01*
X113185700Y-7777554D01*
X113164828Y-7785592D01*
X113142986Y-7792235D01*
X113120164Y-7797436D01*
X113075283Y-7805963D01*
X113029998Y-7813560D01*
X112984404Y-7820040D01*
X112938593Y-7825218D01*
X112892657Y-7828908D01*
X112846691Y-7830923D01*
X112800787Y-7831078D01*
X112777887Y-7830400D01*
X112755038Y-7829187D01*
X112676469Y-7825421D01*
X112646557Y-7823822D01*
X112622085Y-7821871D01*
X112602451Y-7819160D01*
X112594258Y-7817392D01*
X112587049Y-7815282D01*
X112580746Y-7812779D01*
X112575274Y-7809831D01*
X112570558Y-7806388D01*
X112566523Y-7802399D01*
X112563092Y-7797813D01*
X112560190Y-7792580D01*
X112557741Y-7786648D01*
X112555671Y-7779966D01*
X112552361Y-7764151D01*
X112549656Y-7744728D01*
X112543640Y-7693428D01*
X112539121Y-7660738D01*
X112532788Y-7622812D01*
X112535434Y-7612228D01*
X112540726Y-7606935D01*
X112560479Y-7600924D01*
X112579069Y-7593820D01*
X112596513Y-7585646D01*
X112612824Y-7576426D01*
X112628020Y-7566183D01*
X112642115Y-7554939D01*
X112655124Y-7542719D01*
X112667064Y-7529546D01*
X112677950Y-7515442D01*
X112687797Y-7500431D01*
X112696621Y-7484537D01*
X112704437Y-7467782D01*
X112711260Y-7450190D01*
X112717108Y-7431785D01*
X112721994Y-7412588D01*
X112725934Y-7392624D01*
X112727301Y-7383168D01*
X112728440Y-7373659D01*
X112730109Y-7354508D01*
X112731096Y-7335232D01*
X112731556Y-7315895D01*
X112731644Y-7296558D01*
X112731515Y-7277282D01*
X112731226Y-7239166D01*
X112721303Y-6691479D01*
X112719144Y-6551248D01*
X113397975Y-6551248D01*
X113402275Y-6929933D01*
X113408559Y-7310602D01*
X113408650Y-7314570D01*
X113408920Y-7318530D01*
X113409361Y-7322474D01*
X113409964Y-7326395D01*
X113410722Y-7330285D01*
X113411628Y-7334136D01*
X113412673Y-7337941D01*
X113413850Y-7341691D01*
X113415151Y-7345380D01*
X113416568Y-7348998D01*
X113418094Y-7352539D01*
X113419720Y-7355995D01*
X113421440Y-7359358D01*
X113423245Y-7362620D01*
X113425127Y-7365773D01*
X113427079Y-7368811D01*
X113436104Y-7381537D01*
X113445796Y-7393910D01*
X113467051Y-7417552D01*
X113490592Y-7439644D01*
X113516169Y-7460093D01*
X113543528Y-7478805D01*
X113572419Y-7495688D01*
X113602588Y-7510648D01*
X113633785Y-7523593D01*
X113665756Y-7534430D01*
X113698251Y-7543065D01*
X113731017Y-7549406D01*
X113763802Y-7553359D01*
X113796355Y-7554831D01*
X113828424Y-7553731D01*
X113859756Y-7549963D01*
X113875067Y-7547050D01*
X113890099Y-7543436D01*
X113913758Y-7536340D01*
X113936123Y-7527964D01*
X113957200Y-7518333D01*
X113976999Y-7507470D01*
X113995526Y-7495397D01*
X114012790Y-7482138D01*
X114028798Y-7467716D01*
X114043558Y-7452155D01*
X114057078Y-7435478D01*
X114069365Y-7417708D01*
X114080428Y-7398868D01*
X114090274Y-7378981D01*
X114098910Y-7358072D01*
X114106345Y-7336162D01*
X114112586Y-7313276D01*
X114117641Y-7289436D01*
X114121928Y-7265245D01*
X114125364Y-7241297D01*
X114127950Y-7217600D01*
X114129687Y-7194165D01*
X114130578Y-7171002D01*
X114130624Y-7148119D01*
X114129825Y-7125527D01*
X114128184Y-7103235D01*
X114125702Y-7081254D01*
X114122380Y-7059592D01*
X114118220Y-7038260D01*
X114113224Y-7017267D01*
X114107392Y-6996622D01*
X114100727Y-6976336D01*
X114093229Y-6956419D01*
X114084900Y-6936879D01*
X114075742Y-6917727D01*
X114065756Y-6898972D01*
X114054943Y-6880624D01*
X114043306Y-6862692D01*
X114030844Y-6845187D01*
X114017561Y-6828118D01*
X114003457Y-6811495D01*
X113988534Y-6795327D01*
X113972793Y-6779624D01*
X113956235Y-6764396D01*
X113938863Y-6749652D01*
X113920677Y-6735403D01*
X113901680Y-6721657D01*
X113881871Y-6708425D01*
X113861254Y-6695716D01*
X113839829Y-6683540D01*
X113787755Y-6655806D01*
X113734781Y-6629838D01*
X113681002Y-6605173D01*
X113626509Y-6581345D01*
X113515756Y-6534340D01*
X113459682Y-6510233D01*
X113405395Y-6486052D01*
X113402440Y-6506600D01*
X113401075Y-6516315D01*
X113399959Y-6524790D01*
X113399091Y-6532273D01*
X113398471Y-6539012D01*
X113398099Y-6545254D01*
X113397975Y-6551248D01*
X112719144Y-6551248D01*
X112718125Y-6485103D01*
X113403267Y-6485103D01*
X113405395Y-6486052D01*
X113405912Y-6482456D01*
X113403267Y-6485103D01*
X112718125Y-6485103D01*
X112717086Y-6417635D01*
G37*
G36*
X122438704Y-6603586D02*
G01*
X122436189Y-6560665D01*
X122432194Y-6517728D01*
X122426675Y-6474768D01*
X122419591Y-6431778D01*
X122410899Y-6388748D01*
X122400555Y-6345672D01*
X122388517Y-6302542D01*
X122386716Y-6296500D01*
X122385272Y-6290299D01*
X122384168Y-6283967D01*
X122383391Y-6277529D01*
X122382923Y-6271015D01*
X122382750Y-6264450D01*
X122382855Y-6257862D01*
X122383225Y-6251278D01*
X122383842Y-6244725D01*
X122384692Y-6238230D01*
X122385759Y-6231820D01*
X122387028Y-6225523D01*
X122388483Y-6219365D01*
X122390108Y-6213374D01*
X122391888Y-6207576D01*
X122393808Y-6202000D01*
X122412069Y-6155149D01*
X122432116Y-6109845D01*
X122453938Y-6066084D01*
X122477524Y-6023861D01*
X122502862Y-5983173D01*
X122529939Y-5944016D01*
X122558746Y-5906385D01*
X122589269Y-5870278D01*
X122621498Y-5835691D01*
X122655420Y-5802619D01*
X122691025Y-5771058D01*
X122728300Y-5741005D01*
X122767234Y-5712455D01*
X122807814Y-5685406D01*
X122850031Y-5659852D01*
X122893871Y-5635791D01*
X122948716Y-5608458D01*
X123004097Y-5583944D01*
X123059988Y-5562150D01*
X123116369Y-5542980D01*
X123173214Y-5526337D01*
X123230501Y-5512124D01*
X123288207Y-5500244D01*
X123346308Y-5490600D01*
X123404782Y-5483096D01*
X123463604Y-5477635D01*
X123522751Y-5474119D01*
X123582201Y-5472452D01*
X123641930Y-5472536D01*
X123701915Y-5474276D01*
X123762133Y-5477573D01*
X123822559Y-5482332D01*
X123880362Y-5488560D01*
X123937155Y-5496811D01*
X123992891Y-5507061D01*
X124047522Y-5519286D01*
X124101000Y-5533462D01*
X124153277Y-5549566D01*
X124204305Y-5567574D01*
X124254037Y-5587462D01*
X124302423Y-5609207D01*
X124349416Y-5632785D01*
X124394969Y-5658171D01*
X124439033Y-5685343D01*
X124481560Y-5714276D01*
X124522502Y-5744947D01*
X124561812Y-5777332D01*
X124599441Y-5811407D01*
X124635342Y-5847149D01*
X124669466Y-5884534D01*
X124701765Y-5923538D01*
X124732192Y-5964137D01*
X124760699Y-6006308D01*
X124787237Y-6050026D01*
X124811759Y-6095269D01*
X124834217Y-6142012D01*
X124854562Y-6190232D01*
X124872747Y-6239905D01*
X124888724Y-6291007D01*
X124902445Y-6343514D01*
X124913862Y-6397403D01*
X124922926Y-6452650D01*
X124929591Y-6509232D01*
X124933807Y-6567123D01*
X124935808Y-6649034D01*
X124933813Y-6729041D01*
X124927733Y-6807103D01*
X124917478Y-6883177D01*
X124902961Y-6957219D01*
X124884091Y-7029189D01*
X124872995Y-7064382D01*
X124860779Y-7099042D01*
X124847430Y-7133161D01*
X124832936Y-7166736D01*
X124817288Y-7199760D01*
X124800474Y-7232229D01*
X124782483Y-7264136D01*
X124763303Y-7295478D01*
X124742923Y-7326247D01*
X124721333Y-7356440D01*
X124698521Y-7386050D01*
X124674476Y-7415073D01*
X124649187Y-7443502D01*
X124622643Y-7471333D01*
X124594832Y-7498561D01*
X124565743Y-7525180D01*
X124535366Y-7551184D01*
X124503690Y-7576569D01*
X124470702Y-7601328D01*
X124436392Y-7625458D01*
X124391329Y-7654462D01*
X124345395Y-7681010D01*
X124298522Y-7705185D01*
X124250646Y-7727074D01*
X124201700Y-7746761D01*
X124151619Y-7764333D01*
X124100336Y-7779873D01*
X124047785Y-7793468D01*
X123993902Y-7805202D01*
X123938619Y-7815161D01*
X123881871Y-7823431D01*
X123823592Y-7830095D01*
X123763717Y-7835241D01*
X123702179Y-7838953D01*
X123638912Y-7841315D01*
X123576123Y-7842376D01*
X123435275Y-7827863D01*
X123390591Y-7822365D01*
X123343953Y-7815626D01*
X123296260Y-7807399D01*
X123248413Y-7797436D01*
X123178970Y-7779750D01*
X123111574Y-7759382D01*
X123046286Y-7736254D01*
X122983169Y-7710290D01*
X122922284Y-7681410D01*
X122863693Y-7649539D01*
X122807459Y-7614598D01*
X122753643Y-7576510D01*
X122702308Y-7535198D01*
X122653515Y-7490583D01*
X122607327Y-7442588D01*
X122563805Y-7391137D01*
X122523011Y-7336150D01*
X122485008Y-7277552D01*
X122449858Y-7215264D01*
X122417621Y-7149208D01*
X122413810Y-7139780D01*
X122410320Y-7130341D01*
X122407164Y-7120879D01*
X122404352Y-7111381D01*
X122401897Y-7101838D01*
X122399810Y-7092235D01*
X122398103Y-7082564D01*
X122396787Y-7072811D01*
X122395874Y-7062964D01*
X122395376Y-7053013D01*
X122395304Y-7042946D01*
X122395671Y-7032751D01*
X122396486Y-7022417D01*
X122397764Y-7011931D01*
X122399514Y-7001282D01*
X122401749Y-6990459D01*
X122410640Y-6947329D01*
X122418434Y-6904252D01*
X122425089Y-6861223D01*
X122430562Y-6818231D01*
X122434810Y-6775271D01*
X122437791Y-6732335D01*
X122439462Y-6689413D01*
X122439560Y-6676264D01*
X123084699Y-6676264D01*
X123085594Y-6743948D01*
X123088074Y-6811563D01*
X123092205Y-6879100D01*
X123098052Y-6946552D01*
X123105683Y-7013911D01*
X123115162Y-7081169D01*
X123126556Y-7148318D01*
X123139931Y-7215351D01*
X123144644Y-7236739D01*
X123149853Y-7258212D01*
X123155559Y-7279731D01*
X123161760Y-7301258D01*
X123168457Y-7322754D01*
X123175651Y-7344181D01*
X123183340Y-7365499D01*
X123191526Y-7386669D01*
X123200207Y-7407654D01*
X123209385Y-7428414D01*
X123219059Y-7448910D01*
X123229229Y-7469104D01*
X123239895Y-7488957D01*
X123251057Y-7508430D01*
X123262715Y-7527484D01*
X123274870Y-7546081D01*
X123291059Y-7568421D01*
X123308325Y-7589306D01*
X123326597Y-7608737D01*
X123345806Y-7626717D01*
X123365882Y-7643247D01*
X123386753Y-7658330D01*
X123408350Y-7671967D01*
X123430603Y-7684161D01*
X123453440Y-7694912D01*
X123476793Y-7704224D01*
X123500590Y-7712098D01*
X123524762Y-7718536D01*
X123549238Y-7723540D01*
X123573949Y-7727112D01*
X123598823Y-7729253D01*
X123623790Y-7729967D01*
X123648781Y-7729254D01*
X123673724Y-7727117D01*
X123698551Y-7723557D01*
X123723189Y-7718577D01*
X123747571Y-7712179D01*
X123771624Y-7704364D01*
X123795279Y-7695134D01*
X123818465Y-7684492D01*
X123841113Y-7672439D01*
X123863152Y-7658976D01*
X123884511Y-7644108D01*
X123905122Y-7627834D01*
X123924912Y-7610157D01*
X123943812Y-7591079D01*
X123961753Y-7570601D01*
X123978662Y-7548727D01*
X124001407Y-7515649D01*
X124022086Y-7481925D01*
X124040804Y-7447588D01*
X124057666Y-7412673D01*
X124072775Y-7377216D01*
X124086238Y-7341251D01*
X124098157Y-7304814D01*
X124108639Y-7267938D01*
X124117788Y-7230659D01*
X124125708Y-7193012D01*
X124132504Y-7155032D01*
X124138281Y-7116753D01*
X124143143Y-7078211D01*
X124147195Y-7039440D01*
X124153288Y-6961351D01*
X124154807Y-6924522D01*
X124155520Y-6887476D01*
X124155613Y-6850244D01*
X124155272Y-6812856D01*
X124154032Y-6737740D01*
X124153288Y-6662374D01*
X124182392Y-6662374D01*
X124179745Y-6662372D01*
X124139064Y-6335612D01*
X124117608Y-6171984D01*
X124105625Y-6090325D01*
X124092432Y-6008852D01*
X124087998Y-5985723D01*
X124082634Y-5962974D01*
X124076339Y-5940612D01*
X124069115Y-5918646D01*
X124060960Y-5897083D01*
X124051875Y-5875930D01*
X124041860Y-5855196D01*
X124030915Y-5834889D01*
X124019039Y-5815015D01*
X124006234Y-5795584D01*
X123992498Y-5776602D01*
X123977832Y-5758077D01*
X123962236Y-5740017D01*
X123945710Y-5722430D01*
X123928254Y-5705324D01*
X123909868Y-5688706D01*
X123891721Y-5673645D01*
X123873029Y-5659711D01*
X123853835Y-5646903D01*
X123834183Y-5635216D01*
X123814116Y-5624647D01*
X123793677Y-5615193D01*
X123772912Y-5606851D01*
X123751862Y-5599616D01*
X123730572Y-5593486D01*
X123709085Y-5588457D01*
X123687446Y-5584526D01*
X123665697Y-5581689D01*
X123643882Y-5579944D01*
X123622044Y-5579286D01*
X123600228Y-5579712D01*
X123578477Y-5581219D01*
X123556834Y-5583804D01*
X123535344Y-5587462D01*
X123514049Y-5592192D01*
X123492994Y-5597988D01*
X123472221Y-5604849D01*
X123451775Y-5612770D01*
X123431700Y-5621748D01*
X123412038Y-5631779D01*
X123392833Y-5642861D01*
X123374129Y-5654990D01*
X123355970Y-5668163D01*
X123338399Y-5682376D01*
X123321459Y-5697625D01*
X123305195Y-5713908D01*
X123289650Y-5731221D01*
X123274868Y-5749560D01*
X123259048Y-5771106D01*
X123244302Y-5793067D01*
X123230586Y-5815422D01*
X123217859Y-5838154D01*
X123206078Y-5861242D01*
X123195199Y-5884668D01*
X123185181Y-5908411D01*
X123175981Y-5932453D01*
X123167556Y-5956774D01*
X123159863Y-5981354D01*
X123152860Y-6006175D01*
X123146504Y-6031217D01*
X123140753Y-6056460D01*
X123135564Y-6081886D01*
X123126701Y-6133205D01*
X123108930Y-6269125D01*
X123095655Y-6404983D01*
X123087402Y-6540716D01*
X123085324Y-6608517D01*
X123084699Y-6676264D01*
X122439560Y-6676264D01*
X122439781Y-6646500D01*
X122438704Y-6603586D01*
G37*
G36*
X114711234Y-6585205D02*
G01*
X114716443Y-6504037D01*
X114726804Y-6423215D01*
X114742482Y-6343121D01*
X114752367Y-6303467D01*
X114763644Y-6264139D01*
X114776333Y-6225185D01*
X114790457Y-6186653D01*
X114806034Y-6148592D01*
X114823087Y-6111048D01*
X114841636Y-6074070D01*
X114861702Y-6037705D01*
X114883305Y-6002003D01*
X114906467Y-5967010D01*
X114931208Y-5932775D01*
X114957550Y-5899346D01*
X114985512Y-5866770D01*
X115015117Y-5835096D01*
X115046384Y-5804371D01*
X115079334Y-5774644D01*
X115113989Y-5745962D01*
X115150369Y-5718374D01*
X115188496Y-5691927D01*
X115228389Y-5666670D01*
X115270069Y-5642650D01*
X115313558Y-5619915D01*
X115367381Y-5594911D01*
X115421676Y-5572435D01*
X115476420Y-5552407D01*
X115531591Y-5534752D01*
X115587166Y-5519391D01*
X115643119Y-5506247D01*
X115699430Y-5495243D01*
X115756074Y-5486300D01*
X115813028Y-5479342D01*
X115870268Y-5474291D01*
X115927773Y-5471069D01*
X115985517Y-5469598D01*
X116043479Y-5469803D01*
X116101634Y-5471603D01*
X116159960Y-5474924D01*
X116218433Y-5479686D01*
X116276912Y-5486169D01*
X116334249Y-5494683D01*
X116390407Y-5505200D01*
X116445345Y-5517688D01*
X116499023Y-5532118D01*
X116551402Y-5548460D01*
X116602441Y-5566684D01*
X116652102Y-5586759D01*
X116700345Y-5608656D01*
X116747129Y-5632344D01*
X116792415Y-5657794D01*
X116836164Y-5684975D01*
X116878335Y-5713858D01*
X116918889Y-5744412D01*
X116957786Y-5776607D01*
X116994986Y-5810414D01*
X117030450Y-5845803D01*
X117064138Y-5882742D01*
X117096011Y-5921203D01*
X117126027Y-5961154D01*
X117154149Y-6002567D01*
X117180335Y-6045412D01*
X117204547Y-6089657D01*
X117226745Y-6135273D01*
X117246888Y-6182230D01*
X117264937Y-6230498D01*
X117280853Y-6280047D01*
X117294596Y-6330847D01*
X117306125Y-6382868D01*
X117315402Y-6436080D01*
X117322386Y-6490452D01*
X117327038Y-6545956D01*
X117330182Y-6625510D01*
X117329622Y-6703409D01*
X117325247Y-6779611D01*
X117316951Y-6854072D01*
X117304623Y-6926751D01*
X117288156Y-6997604D01*
X117267442Y-7066589D01*
X117242371Y-7133663D01*
X117212835Y-7198784D01*
X117196359Y-7230598D01*
X117178726Y-7261908D01*
X117159923Y-7292709D01*
X117139935Y-7322994D01*
X117118750Y-7352760D01*
X117096354Y-7381999D01*
X117072733Y-7410708D01*
X117047873Y-7438880D01*
X117021762Y-7466511D01*
X116994386Y-7493595D01*
X116965730Y-7520126D01*
X116935782Y-7546100D01*
X116904528Y-7571511D01*
X116871954Y-7596353D01*
X116825321Y-7629173D01*
X116777696Y-7659233D01*
X116729079Y-7686627D01*
X116679469Y-7711447D01*
X116628868Y-7733786D01*
X116577274Y-7753739D01*
X116524688Y-7771396D01*
X116471110Y-7786853D01*
X116416540Y-7800201D01*
X116360977Y-7811533D01*
X116304423Y-7820944D01*
X116246876Y-7828524D01*
X116188337Y-7834369D01*
X116128806Y-7838570D01*
X116068283Y-7841221D01*
X116006767Y-7842415D01*
X116001476Y-7842415D01*
X115808330Y-7826540D01*
X115747257Y-7818095D01*
X115687102Y-7807596D01*
X115627916Y-7794973D01*
X115569750Y-7780157D01*
X115512653Y-7763077D01*
X115456677Y-7743663D01*
X115401871Y-7721847D01*
X115348285Y-7697558D01*
X115295971Y-7670726D01*
X115244979Y-7641282D01*
X115195359Y-7609156D01*
X115147161Y-7574279D01*
X115100436Y-7536579D01*
X115055234Y-7495989D01*
X115011605Y-7452437D01*
X114969601Y-7405855D01*
X114965201Y-7400187D01*
X114960945Y-7394124D01*
X114956851Y-7387704D01*
X114952940Y-7380967D01*
X114949230Y-7373950D01*
X114945741Y-7366693D01*
X114942493Y-7359235D01*
X114939504Y-7351614D01*
X114936794Y-7343869D01*
X114934383Y-7336038D01*
X114932289Y-7328162D01*
X114930533Y-7320277D01*
X114929133Y-7312423D01*
X114928109Y-7304640D01*
X114927481Y-7296964D01*
X114927267Y-7289436D01*
X114926205Y-7255456D01*
X114923980Y-7221983D01*
X114920547Y-7189030D01*
X114915857Y-7156607D01*
X114909865Y-7124728D01*
X114902525Y-7093402D01*
X114893789Y-7062642D01*
X114883611Y-7032460D01*
X114871945Y-7002867D01*
X114858745Y-6973875D01*
X114843963Y-6945494D01*
X114827553Y-6917738D01*
X114809469Y-6890618D01*
X114789664Y-6864145D01*
X114768091Y-6838330D01*
X114744705Y-6813187D01*
X114741762Y-6810089D01*
X114738896Y-6806763D01*
X114736124Y-6803228D01*
X114733460Y-6799502D01*
X114730920Y-6795606D01*
X114728520Y-6791559D01*
X114726274Y-6787381D01*
X114724200Y-6783089D01*
X114722311Y-6778705D01*
X114720624Y-6774247D01*
X114719153Y-6769735D01*
X114717916Y-6765188D01*
X114716926Y-6760626D01*
X114716200Y-6756067D01*
X114715753Y-6751532D01*
X114715601Y-6747040D01*
X114712797Y-6697762D01*
X115481241Y-6697762D01*
X115482724Y-6769306D01*
X115485979Y-6840807D01*
X115491071Y-6912255D01*
X115498066Y-6983636D01*
X115507030Y-7054940D01*
X115518029Y-7126155D01*
X115531128Y-7197269D01*
X115546394Y-7268270D01*
X115550020Y-7283121D01*
X115553945Y-7297907D01*
X115562642Y-7327264D01*
X115572394Y-7356311D01*
X115583106Y-7385018D01*
X115594687Y-7413352D01*
X115607042Y-7441283D01*
X115620080Y-7468780D01*
X115633707Y-7495811D01*
X115650170Y-7524209D01*
X115667803Y-7550852D01*
X115686599Y-7575719D01*
X115706550Y-7598791D01*
X115727649Y-7620050D01*
X115749886Y-7639476D01*
X115773256Y-7657049D01*
X115797749Y-7672750D01*
X115823358Y-7686560D01*
X115850076Y-7698459D01*
X115877895Y-7708428D01*
X115906807Y-7716447D01*
X115936804Y-7722498D01*
X115967878Y-7726561D01*
X116000022Y-7728615D01*
X116033228Y-7728643D01*
X116049700Y-7727908D01*
X116065878Y-7726694D01*
X116081764Y-7725006D01*
X116097358Y-7722846D01*
X116112661Y-7720217D01*
X116127675Y-7717122D01*
X116142400Y-7713563D01*
X116156837Y-7709545D01*
X116170988Y-7705069D01*
X116184852Y-7700139D01*
X116198432Y-7694757D01*
X116211728Y-7688926D01*
X116224741Y-7682650D01*
X116237472Y-7675931D01*
X116249922Y-7668772D01*
X116262092Y-7661176D01*
X116273983Y-7653146D01*
X116285596Y-7644685D01*
X116296932Y-7635795D01*
X116307991Y-7626480D01*
X116318776Y-7616743D01*
X116329286Y-7606586D01*
X116339523Y-7596012D01*
X116349488Y-7585025D01*
X116368604Y-7561821D01*
X116386643Y-7536997D01*
X116403612Y-7510576D01*
X116419519Y-7482582D01*
X116434811Y-7453129D01*
X116448964Y-7423324D01*
X116462016Y-7393186D01*
X116474006Y-7362734D01*
X116484973Y-7331987D01*
X116494955Y-7300965D01*
X116503992Y-7269687D01*
X116512122Y-7238173D01*
X116519384Y-7206442D01*
X116525816Y-7174513D01*
X116531458Y-7142406D01*
X116536348Y-7110140D01*
X116544027Y-7045208D01*
X116549164Y-6979874D01*
X116550683Y-6940072D01*
X116551396Y-6900085D01*
X116551489Y-6859973D01*
X116551148Y-6819800D01*
X116549908Y-6739516D01*
X116549164Y-6659727D01*
X116578268Y-6659727D01*
X116580915Y-6657081D01*
X116540235Y-6331975D01*
X116518779Y-6170042D01*
X116506795Y-6089338D01*
X116493603Y-6008852D01*
X116489138Y-5985228D01*
X116483686Y-5961987D01*
X116477249Y-5939142D01*
X116469831Y-5916703D01*
X116461437Y-5894683D01*
X116452070Y-5873094D01*
X116441734Y-5851946D01*
X116430433Y-5831251D01*
X116418171Y-5811022D01*
X116404951Y-5791269D01*
X116390778Y-5772005D01*
X116375656Y-5753241D01*
X116359588Y-5734988D01*
X116342578Y-5717258D01*
X116324630Y-5700064D01*
X116305748Y-5683415D01*
X116288322Y-5669074D01*
X116270306Y-5655815D01*
X116251744Y-5643633D01*
X116232682Y-5632524D01*
X116213165Y-5622486D01*
X116193237Y-5613513D01*
X116172944Y-5605602D01*
X116152330Y-5598749D01*
X116131442Y-5592950D01*
X116110323Y-5588202D01*
X116089020Y-5584500D01*
X116067576Y-5581840D01*
X116046037Y-5580220D01*
X116024449Y-5579634D01*
X116002855Y-5580079D01*
X115981302Y-5581551D01*
X115959834Y-5584046D01*
X115938497Y-5587561D01*
X115917335Y-5592091D01*
X115896393Y-5597633D01*
X115875717Y-5604182D01*
X115855351Y-5611735D01*
X115835341Y-5620288D01*
X115815731Y-5629837D01*
X115796568Y-5640379D01*
X115777895Y-5651908D01*
X115759758Y-5664422D01*
X115742201Y-5677917D01*
X115725271Y-5692388D01*
X115709012Y-5707833D01*
X115693468Y-5724246D01*
X115678686Y-5741624D01*
X115662371Y-5762705D01*
X115647132Y-5784262D01*
X115632933Y-5806277D01*
X115619734Y-5828730D01*
X115607495Y-5851601D01*
X115596179Y-5874872D01*
X115585747Y-5898522D01*
X115576160Y-5922533D01*
X115567379Y-5946885D01*
X115559365Y-5971558D01*
X115552080Y-5996534D01*
X115545484Y-6021793D01*
X115539540Y-6047316D01*
X115534208Y-6073082D01*
X115529450Y-6099074D01*
X115525226Y-6125271D01*
X115505843Y-6268254D01*
X115491700Y-6411392D01*
X115483323Y-6554592D01*
X115481462Y-6626187D01*
X115481241Y-6697762D01*
X114712797Y-6697762D01*
X114711009Y-6666333D01*
X114711234Y-6585205D01*
G37*
G36*
X123576496Y-7842415D02*
G01*
X123573850Y-7842415D01*
X123576123Y-7842376D01*
X123576496Y-7842415D01*
G37*
G36*
X128295394Y-5473821D02*
G01*
X128365743Y-5478074D01*
X128435209Y-5485568D01*
X128503725Y-5496383D01*
X128571225Y-5510601D01*
X128637644Y-5528304D01*
X128702916Y-5549572D01*
X128766975Y-5574487D01*
X128829754Y-5603131D01*
X128891189Y-5635584D01*
X128951213Y-5671929D01*
X129009761Y-5712246D01*
X129066765Y-5756618D01*
X129122162Y-5805124D01*
X129182418Y-5864586D01*
X129237225Y-5925866D01*
X129286652Y-5988921D01*
X129330770Y-6053709D01*
X129369647Y-6120186D01*
X129403354Y-6188310D01*
X129431961Y-6258039D01*
X129455537Y-6329330D01*
X129474153Y-6402141D01*
X129487877Y-6476428D01*
X129496779Y-6552148D01*
X129500930Y-6629261D01*
X129500399Y-6707722D01*
X129495256Y-6787489D01*
X129485571Y-6868520D01*
X129471413Y-6950771D01*
X129453434Y-7030271D01*
X129431275Y-7106059D01*
X129404968Y-7178141D01*
X129374549Y-7246526D01*
X129340053Y-7311221D01*
X129301514Y-7372234D01*
X129258968Y-7429573D01*
X129212449Y-7483245D01*
X129161993Y-7533259D01*
X129107634Y-7579622D01*
X129049407Y-7622341D01*
X128987347Y-7661425D01*
X128921488Y-7696882D01*
X128851867Y-7728718D01*
X128778517Y-7756943D01*
X128701473Y-7781563D01*
X128663678Y-7792039D01*
X128625705Y-7801623D01*
X128587562Y-7810293D01*
X128549256Y-7818026D01*
X128510794Y-7824796D01*
X128472186Y-7830583D01*
X128433438Y-7835362D01*
X128394558Y-7839109D01*
X128355554Y-7841803D01*
X128316433Y-7843419D01*
X128277205Y-7843934D01*
X128237875Y-7843326D01*
X128198452Y-7841570D01*
X128158945Y-7838644D01*
X128119359Y-7834524D01*
X128079704Y-7829187D01*
X128009501Y-7817008D01*
X127941743Y-7801328D01*
X127876397Y-7782184D01*
X127813426Y-7759610D01*
X127752796Y-7733641D01*
X127694472Y-7704311D01*
X127638419Y-7671656D01*
X127584602Y-7635711D01*
X127532987Y-7596510D01*
X127483539Y-7554088D01*
X127436222Y-7508481D01*
X127391002Y-7459722D01*
X127347843Y-7407847D01*
X127306712Y-7352891D01*
X127267573Y-7294889D01*
X127230390Y-7233875D01*
X127257388Y-7214402D01*
X127283639Y-7195178D01*
X127338871Y-7154499D01*
X127336227Y-7162435D01*
X127363553Y-7200801D01*
X127390136Y-7237182D01*
X127416222Y-7272570D01*
X127442060Y-7307959D01*
X127465720Y-7337783D01*
X127490508Y-7365758D01*
X127516345Y-7391912D01*
X127543150Y-7416272D01*
X127570842Y-7438864D01*
X127599342Y-7459716D01*
X127628568Y-7478855D01*
X127658440Y-7496308D01*
X127688878Y-7512102D01*
X127719802Y-7526265D01*
X127751131Y-7538823D01*
X127782784Y-7549803D01*
X127814681Y-7559234D01*
X127846743Y-7567141D01*
X127878887Y-7573552D01*
X127911034Y-7578494D01*
X127943104Y-7581995D01*
X127975016Y-7584080D01*
X128006690Y-7584779D01*
X128038045Y-7584117D01*
X128099476Y-7578820D01*
X128158668Y-7568407D01*
X128187222Y-7561350D01*
X128214976Y-7553095D01*
X128241847Y-7543670D01*
X128267757Y-7533102D01*
X128292624Y-7521417D01*
X128316367Y-7508643D01*
X128338908Y-7494807D01*
X128360165Y-7479937D01*
X128389717Y-7456683D01*
X128417866Y-7432570D01*
X128444636Y-7407604D01*
X128470049Y-7381793D01*
X128494129Y-7355145D01*
X128516899Y-7327667D01*
X128538383Y-7299368D01*
X128558602Y-7270255D01*
X128577582Y-7240336D01*
X128595344Y-7209618D01*
X128611913Y-7178110D01*
X128627311Y-7145819D01*
X128641562Y-7112752D01*
X128654689Y-7078919D01*
X128666715Y-7044325D01*
X128677664Y-7008980D01*
X128690545Y-6959341D01*
X128701466Y-6909647D01*
X128710511Y-6859907D01*
X128717765Y-6810129D01*
X128723314Y-6760319D01*
X128727243Y-6710486D01*
X128729637Y-6660638D01*
X128730581Y-6610782D01*
X128730161Y-6560925D01*
X128728463Y-6511077D01*
X128725570Y-6461244D01*
X128721569Y-6411434D01*
X128710583Y-6311916D01*
X128696186Y-6212583D01*
X128690905Y-6179444D01*
X128684946Y-6146525D01*
X128678251Y-6113863D01*
X128670761Y-6081491D01*
X128662418Y-6049444D01*
X128653165Y-6017758D01*
X128642942Y-5986468D01*
X128631693Y-5955607D01*
X128619358Y-5925212D01*
X128605880Y-5895316D01*
X128591201Y-5865956D01*
X128575262Y-5837165D01*
X128558005Y-5808979D01*
X128539373Y-5781432D01*
X128519306Y-5754559D01*
X128497747Y-5728396D01*
X128476602Y-5706011D01*
X128454840Y-5685489D01*
X128432466Y-5666836D01*
X128409483Y-5650054D01*
X128385896Y-5635149D01*
X128361709Y-5622123D01*
X128336924Y-5610981D01*
X128311546Y-5601727D01*
X128285579Y-5594363D01*
X128259027Y-5588895D01*
X128231894Y-5585327D01*
X128204183Y-5583661D01*
X128175899Y-5583902D01*
X128147045Y-5586053D01*
X128117625Y-5590120D01*
X128087643Y-5596105D01*
X128077922Y-5598461D01*
X128068604Y-5601064D01*
X128059686Y-5603914D01*
X128051169Y-5607008D01*
X128043051Y-5610347D01*
X128035332Y-5613929D01*
X128028009Y-5617753D01*
X128021083Y-5621819D01*
X128014553Y-5626124D01*
X128008416Y-5630669D01*
X128002673Y-5635453D01*
X127997322Y-5640474D01*
X127992363Y-5645731D01*
X127987795Y-5651224D01*
X127983615Y-5656951D01*
X127979825Y-5662912D01*
X127976422Y-5669105D01*
X127973405Y-5675530D01*
X127970774Y-5682185D01*
X127968528Y-5689070D01*
X127966666Y-5696184D01*
X127965186Y-5703525D01*
X127964088Y-5711094D01*
X127963371Y-5718888D01*
X127963033Y-5726906D01*
X127963075Y-5735149D01*
X127963494Y-5743614D01*
X127964291Y-5752302D01*
X127967010Y-5770338D01*
X127971226Y-5789250D01*
X127979375Y-5818902D01*
X127987804Y-5848368D01*
X128004629Y-5906990D01*
X128012593Y-5936270D01*
X128019967Y-5965611D01*
X128026535Y-5995077D01*
X128032080Y-6024729D01*
X128034304Y-6039208D01*
X128036017Y-6053378D01*
X128037219Y-6067237D01*
X128037909Y-6080787D01*
X128038087Y-6094026D01*
X128037754Y-6106956D01*
X128036909Y-6119575D01*
X128035552Y-6131885D01*
X128033684Y-6143884D01*
X128031304Y-6155573D01*
X128028413Y-6166952D01*
X128025010Y-6178021D01*
X128021096Y-6188781D01*
X128016669Y-6199230D01*
X128011732Y-6209368D01*
X128006282Y-6219197D01*
X128000322Y-6228716D01*
X127993849Y-6237925D01*
X127986865Y-6246824D01*
X127979369Y-6255412D01*
X127971362Y-6263691D01*
X127962843Y-6271660D01*
X127953813Y-6279318D01*
X127944271Y-6286667D01*
X127934217Y-6293705D01*
X127923652Y-6300433D01*
X127912575Y-6306851D01*
X127900987Y-6312959D01*
X127888887Y-6318758D01*
X127876275Y-6324246D01*
X127863152Y-6329423D01*
X127849518Y-6334291D01*
X127837025Y-6338106D01*
X127824361Y-6341619D01*
X127811543Y-6344837D01*
X127798585Y-6347768D01*
X127772312Y-6352802D01*
X127745667Y-6356781D01*
X127718774Y-6359768D01*
X127691758Y-6361824D01*
X127664742Y-6363013D01*
X127637850Y-6363396D01*
X127618053Y-6363295D01*
X127598848Y-6362502D01*
X127580236Y-6361018D01*
X127562221Y-6358848D01*
X127544805Y-6355996D01*
X127527990Y-6352466D01*
X127511779Y-6348261D01*
X127496174Y-6343386D01*
X127481177Y-6337845D01*
X127466791Y-6331640D01*
X127453019Y-6324777D01*
X127439862Y-6317258D01*
X127427324Y-6309089D01*
X127415406Y-6300272D01*
X127404111Y-6290812D01*
X127393441Y-6280713D01*
X127383400Y-6269978D01*
X127373988Y-6258611D01*
X127365210Y-6246616D01*
X127357066Y-6233997D01*
X127349560Y-6220758D01*
X127342694Y-6206903D01*
X127336471Y-6192435D01*
X127330892Y-6177359D01*
X127325961Y-6161679D01*
X127321679Y-6145397D01*
X127318049Y-6128519D01*
X127315074Y-6111048D01*
X127312756Y-6092988D01*
X127311097Y-6074342D01*
X127310100Y-6055115D01*
X127309767Y-6035311D01*
X127310416Y-6013009D01*
X127311858Y-5991246D01*
X127314080Y-5970018D01*
X127317069Y-5949321D01*
X127320812Y-5929151D01*
X127325295Y-5909505D01*
X127330507Y-5890377D01*
X127336432Y-5871766D01*
X127343060Y-5853665D01*
X127350375Y-5836073D01*
X127358367Y-5818984D01*
X127367020Y-5802395D01*
X127376322Y-5786303D01*
X127386261Y-5770702D01*
X127396823Y-5755590D01*
X127407994Y-5740963D01*
X127419763Y-5726816D01*
X127432115Y-5713145D01*
X127445038Y-5699948D01*
X127458518Y-5687219D01*
X127472543Y-5674956D01*
X127487100Y-5663154D01*
X127517755Y-5640918D01*
X127550379Y-5620480D01*
X127584867Y-5601809D01*
X127621115Y-5584875D01*
X127659017Y-5569646D01*
X127709975Y-5552541D01*
X127761584Y-5536986D01*
X127813751Y-5523044D01*
X127866383Y-5510776D01*
X127919388Y-5500244D01*
X127972671Y-5491510D01*
X128026141Y-5484637D01*
X128079704Y-5479687D01*
X128152309Y-5474708D01*
X128224227Y-5472726D01*
X128295394Y-5473821D01*
G37*
G36*
X121154064Y-5477448D02*
G01*
X121224268Y-5481835D01*
X121293572Y-5489385D01*
X121361923Y-5500191D01*
X121429267Y-5514345D01*
X121495549Y-5531940D01*
X121560714Y-5553071D01*
X121624709Y-5577829D01*
X121687479Y-5606308D01*
X121748970Y-5638601D01*
X121809128Y-5674800D01*
X121867899Y-5714999D01*
X121925227Y-5759291D01*
X121981060Y-5807769D01*
X122041781Y-5866765D01*
X122096996Y-5927637D01*
X122146776Y-5990339D01*
X122191196Y-6054823D01*
X122230330Y-6121044D01*
X122264251Y-6188955D01*
X122293033Y-6258508D01*
X122316750Y-6329659D01*
X122335474Y-6402360D01*
X122349280Y-6476565D01*
X122358242Y-6552227D01*
X122362432Y-6629300D01*
X122361925Y-6707737D01*
X122356794Y-6787492D01*
X122347114Y-6868518D01*
X122332956Y-6950769D01*
X122319215Y-7013769D01*
X122302777Y-7074762D01*
X122283610Y-7133723D01*
X122261683Y-7190630D01*
X122236967Y-7245460D01*
X122209428Y-7298190D01*
X122179037Y-7348795D01*
X122145763Y-7397253D01*
X122109573Y-7443541D01*
X122070439Y-7487635D01*
X122028328Y-7529512D01*
X121983209Y-7569149D01*
X121935051Y-7606523D01*
X121883824Y-7641609D01*
X121829497Y-7674386D01*
X121772037Y-7704830D01*
X121733685Y-7722479D01*
X121695035Y-7738745D01*
X121656097Y-7753670D01*
X121616885Y-7767296D01*
X121577408Y-7779667D01*
X121537680Y-7790825D01*
X121497711Y-7800812D01*
X121457514Y-7809672D01*
X121417100Y-7817446D01*
X121376480Y-7824177D01*
X121335667Y-7829909D01*
X121294671Y-7834684D01*
X121253505Y-7838543D01*
X121212180Y-7841531D01*
X121129101Y-7845060D01*
X121073010Y-7845251D01*
X121017842Y-7842864D01*
X120963588Y-7837926D01*
X120910241Y-7830466D01*
X120857793Y-7820510D01*
X120806237Y-7808085D01*
X120755564Y-7793218D01*
X120705768Y-7775937D01*
X120656839Y-7756268D01*
X120608771Y-7734239D01*
X120561556Y-7709877D01*
X120515185Y-7683209D01*
X120469652Y-7654262D01*
X120424948Y-7623063D01*
X120381066Y-7589639D01*
X120337997Y-7554018D01*
X120318927Y-7536935D01*
X120300403Y-7519426D01*
X120282413Y-7501499D01*
X120264947Y-7483160D01*
X120247993Y-7464419D01*
X120231538Y-7445282D01*
X120215572Y-7425757D01*
X120200083Y-7405852D01*
X120185058Y-7385576D01*
X120170487Y-7364935D01*
X120156358Y-7343938D01*
X120142660Y-7322591D01*
X120129379Y-7300904D01*
X120116506Y-7278883D01*
X120104028Y-7256537D01*
X120091934Y-7233873D01*
X120120294Y-7213038D01*
X120146173Y-7194187D01*
X120158338Y-7185505D01*
X120170069Y-7177319D01*
X120181428Y-7169629D01*
X120192476Y-7162435D01*
X120192478Y-7165085D01*
X120301949Y-7295392D01*
X120328464Y-7326264D01*
X120355072Y-7356329D01*
X120381990Y-7385526D01*
X120409435Y-7413793D01*
X120428613Y-7431806D01*
X120449374Y-7449097D01*
X120495281Y-7481288D01*
X120546428Y-7509921D01*
X120602086Y-7534551D01*
X120661527Y-7554731D01*
X120724022Y-7570016D01*
X120788842Y-7579960D01*
X120821897Y-7582790D01*
X120855260Y-7584118D01*
X120888839Y-7583888D01*
X120922545Y-7582044D01*
X120956285Y-7578531D01*
X120989970Y-7573292D01*
X121023507Y-7566272D01*
X121056805Y-7557416D01*
X121089774Y-7546668D01*
X121122323Y-7533971D01*
X121154360Y-7519271D01*
X121185795Y-7502512D01*
X121216535Y-7483637D01*
X121246491Y-7462591D01*
X121275571Y-7439319D01*
X121303683Y-7413764D01*
X121330738Y-7385871D01*
X121356644Y-7355585D01*
X121372269Y-7335646D01*
X121387391Y-7315510D01*
X121402001Y-7295164D01*
X121416092Y-7274598D01*
X121429656Y-7253799D01*
X121442685Y-7232755D01*
X121455171Y-7211456D01*
X121467107Y-7189890D01*
X121478485Y-7168044D01*
X121489297Y-7145908D01*
X121499536Y-7123469D01*
X121509193Y-7100716D01*
X121518261Y-7077638D01*
X121526732Y-7054223D01*
X121534599Y-7030459D01*
X121541853Y-7006334D01*
X121554734Y-6957161D01*
X121565654Y-6907875D01*
X121574699Y-6858488D01*
X121581953Y-6809013D01*
X121587502Y-6759459D01*
X121591430Y-6709840D01*
X121593824Y-6660167D01*
X121594769Y-6610451D01*
X121594349Y-6560704D01*
X121592650Y-6510938D01*
X121589758Y-6461163D01*
X121585757Y-6411393D01*
X121574770Y-6311911D01*
X121560373Y-6212583D01*
X121555092Y-6179444D01*
X121549133Y-6146525D01*
X121542438Y-6113863D01*
X121534948Y-6081491D01*
X121526605Y-6049444D01*
X121517352Y-6017758D01*
X121507130Y-5986468D01*
X121495880Y-5955607D01*
X121483546Y-5925212D01*
X121470068Y-5895316D01*
X121455388Y-5865956D01*
X121439449Y-5837165D01*
X121422193Y-5808979D01*
X121403560Y-5781432D01*
X121383493Y-5754559D01*
X121361935Y-5728396D01*
X121340234Y-5705110D01*
X121317808Y-5683867D01*
X121294678Y-5664662D01*
X121270861Y-5647491D01*
X121246377Y-5632352D01*
X121221246Y-5619240D01*
X121195488Y-5608151D01*
X121169120Y-5599081D01*
X121142164Y-5592026D01*
X121114638Y-5586983D01*
X121086562Y-5583948D01*
X121057954Y-5582916D01*
X121028835Y-5583885D01*
X120999224Y-5586849D01*
X120969140Y-5591805D01*
X120938602Y-5598750D01*
X120930084Y-5601106D01*
X120921892Y-5603707D01*
X120914027Y-5606550D01*
X120906491Y-5609633D01*
X120899284Y-5612952D01*
X120892408Y-5616505D01*
X120885863Y-5620288D01*
X120879650Y-5624299D01*
X120873771Y-5628534D01*
X120868226Y-5632992D01*
X120863016Y-5637668D01*
X120858143Y-5642561D01*
X120853606Y-5647667D01*
X120849408Y-5652983D01*
X120845549Y-5658506D01*
X120842030Y-5664234D01*
X120838852Y-5670164D01*
X120836016Y-5676292D01*
X120833523Y-5682615D01*
X120831375Y-5689132D01*
X120829571Y-5695838D01*
X120828112Y-5702732D01*
X120827001Y-5709809D01*
X120826238Y-5717068D01*
X120825823Y-5724505D01*
X120825759Y-5732117D01*
X120826044Y-5739902D01*
X120826682Y-5747857D01*
X120827672Y-5755978D01*
X120829016Y-5764263D01*
X120832769Y-5781312D01*
X120840050Y-5810964D01*
X120847859Y-5840430D01*
X120864189Y-5899051D01*
X120872277Y-5928331D01*
X120880023Y-5957673D01*
X120887211Y-5987139D01*
X120893623Y-6016790D01*
X120896088Y-6031999D01*
X120898023Y-6046867D01*
X120899428Y-6061394D01*
X120900299Y-6075583D01*
X120900636Y-6089432D01*
X120900436Y-6102942D01*
X120899697Y-6116114D01*
X120898418Y-6128949D01*
X120896596Y-6141446D01*
X120894230Y-6153607D01*
X120891317Y-6165432D01*
X120887855Y-6176920D01*
X120883844Y-6188074D01*
X120879280Y-6198893D01*
X120874162Y-6209377D01*
X120868487Y-6219528D01*
X120862255Y-6229345D01*
X120855462Y-6238830D01*
X120848108Y-6247982D01*
X120840189Y-6256802D01*
X120831705Y-6265291D01*
X120822653Y-6273449D01*
X120813031Y-6281277D01*
X120802838Y-6288775D01*
X120792071Y-6295943D01*
X120780728Y-6302782D01*
X120768808Y-6309293D01*
X120756309Y-6315476D01*
X120743228Y-6321331D01*
X120729564Y-6326859D01*
X120715314Y-6332061D01*
X120700477Y-6336937D01*
X120688015Y-6340722D01*
X120675440Y-6344151D01*
X120662764Y-6347238D01*
X120650000Y-6350000D01*
X120637157Y-6352452D01*
X120624249Y-6354609D01*
X120598282Y-6358102D01*
X120572191Y-6360603D01*
X120546068Y-6362236D01*
X120520008Y-6363125D01*
X120494102Y-6363394D01*
X120475042Y-6363076D01*
X120456555Y-6362126D01*
X120438643Y-6360544D01*
X120421306Y-6358335D01*
X120404544Y-6355499D01*
X120388359Y-6352040D01*
X120372750Y-6347960D01*
X120357718Y-6343261D01*
X120343263Y-6337945D01*
X120329387Y-6332017D01*
X120316089Y-6325476D01*
X120303369Y-6318327D01*
X120291230Y-6310571D01*
X120279670Y-6302211D01*
X120268690Y-6293249D01*
X120258292Y-6283688D01*
X120248475Y-6273530D01*
X120239239Y-6262778D01*
X120230586Y-6251434D01*
X120222516Y-6239500D01*
X120215029Y-6226979D01*
X120208126Y-6213873D01*
X120201807Y-6200185D01*
X120196073Y-6185916D01*
X120190924Y-6171071D01*
X120186361Y-6155650D01*
X120182384Y-6139657D01*
X120178994Y-6123093D01*
X120176191Y-6105962D01*
X120173976Y-6088265D01*
X120172349Y-6070006D01*
X120171310Y-6051186D01*
X120170938Y-6031437D01*
X120171308Y-6011885D01*
X120172418Y-5992541D01*
X120174266Y-5973417D01*
X120176851Y-5954524D01*
X120180171Y-5935872D01*
X120184222Y-5917474D01*
X120189005Y-5899339D01*
X120194516Y-5881480D01*
X120200753Y-5863906D01*
X120207716Y-5846631D01*
X120215401Y-5829664D01*
X120223807Y-5813016D01*
X120232932Y-5796700D01*
X120242774Y-5780726D01*
X120253331Y-5765105D01*
X120264601Y-5749848D01*
X120276583Y-5734966D01*
X120289273Y-5720471D01*
X120302671Y-5706374D01*
X120316775Y-5692686D01*
X120331582Y-5679418D01*
X120347090Y-5666581D01*
X120363298Y-5654187D01*
X120380204Y-5642245D01*
X120397805Y-5630769D01*
X120416100Y-5619768D01*
X120435087Y-5609254D01*
X120454763Y-5599238D01*
X120475128Y-5589731D01*
X120496179Y-5580744D01*
X120517914Y-5572289D01*
X120568871Y-5555185D01*
X120620480Y-5539630D01*
X120672647Y-5525688D01*
X120725279Y-5513420D01*
X120778284Y-5502888D01*
X120831568Y-5494155D01*
X120885038Y-5487282D01*
X120938600Y-5482331D01*
X121011176Y-5477789D01*
X121083015Y-5476130D01*
X121154064Y-5477448D01*
G37*
D11*
%TO.C,PAD2*%
X125469295Y15903842D02*
X125355009Y15865747D01*
X125316914Y15827652D01*
X125278819Y15751461D01*
X125278819Y15637176D01*
X125316914Y15560985D01*
X125355009Y15522890D01*
X125431200Y15484795D01*
X125735961Y15484795D01*
X125735961Y16284795D01*
X125469295Y16284795D01*
X125393104Y16246700D01*
X125355009Y16208604D01*
X125316914Y16132414D01*
X125316914Y16056223D01*
X125355009Y15980033D01*
X125393104Y15941938D01*
X125469295Y15903842D01*
X125735961Y15903842D01*
X124935961Y15789557D02*
X124326438Y15789557D01*
%TO.C,PAD1*%
X125469295Y12903842D02*
X125355009Y12865747D01*
X125316914Y12827652D01*
X125278819Y12751461D01*
X125278819Y12637176D01*
X125316914Y12560985D01*
X125355009Y12522890D01*
X125431200Y12484795D01*
X125735961Y12484795D01*
X125735961Y13284795D01*
X125469295Y13284795D01*
X125393104Y13246700D01*
X125355009Y13208604D01*
X125316914Y13132414D01*
X125316914Y13056223D01*
X125355009Y12980033D01*
X125393104Y12941938D01*
X125469295Y12903842D01*
X125735961Y12903842D01*
X124935961Y12789557D02*
X124326438Y12789557D01*
X124631200Y12484795D02*
X124631200Y13094319D01*
%TO.C,B2*%
X132060000Y-1480000D02*
X129560000Y-1480000D01*
X132060000Y4020000D02*
X133560000Y2520000D01*
X129560000Y-1480000D02*
X128060000Y20000D01*
X132060000Y-1480000D02*
X133560000Y20000D01*
X129560000Y4020000D02*
X128060000Y2520000D01*
X128060000Y2520000D02*
X128060000Y20000D01*
X132060000Y4020000D02*
X129560000Y4020000D01*
X133560000Y2520000D02*
X133560000Y20000D01*
%TO.C,T1*%
X130281200Y-11853300D02*
X130281200Y-18453300D01*
X133131200Y-15153300D02*
X133131200Y-11853300D01*
X130281200Y-18453300D02*
X133131200Y-18453300D01*
X133131200Y-11853300D02*
X130281200Y-11853300D01*
X133131200Y-17103300D02*
X133131200Y-13203300D01*
X133131200Y-15153300D02*
X133131200Y-18453300D01*
D12*
%TO.C,D15*%
X57531200Y21446700D02*
X56931200Y21846700D01*
X57531200Y21846700D02*
X58031200Y21846700D01*
X57531200Y22246700D02*
X57531200Y21446700D01*
X56531200Y21846700D02*
X56931200Y21846700D01*
X56931200Y21846700D02*
X57531200Y22246700D01*
X56931200Y21846700D02*
X56931200Y21296700D01*
X56931200Y21846700D02*
X56931200Y22396700D01*
%TO.C,D26*%
X94531200Y-40153300D02*
X95031200Y-40153300D01*
X93531200Y-40153300D02*
X93931200Y-40153300D01*
X93931200Y-40153300D02*
X93931200Y-40703300D01*
X93931200Y-40153300D02*
X94531200Y-39753300D01*
X93931200Y-40153300D02*
X93931200Y-39603300D01*
X94531200Y-39753300D02*
X94531200Y-40553300D01*
X94531200Y-40553300D02*
X93931200Y-40153300D01*
%TO.C,D5*%
X18931200Y-22153300D02*
X19531200Y-21753300D01*
X18931200Y-22153300D02*
X18931200Y-21603300D01*
X19531200Y-21753300D02*
X19531200Y-22553300D01*
X19531200Y-22553300D02*
X18931200Y-22153300D01*
X18931200Y-22153300D02*
X18931200Y-22703300D01*
X18531200Y-22153300D02*
X18931200Y-22153300D01*
X19531200Y-22153300D02*
X20031200Y-22153300D01*
%TO.C,D27*%
X113188231Y-49258528D02*
X112914615Y-50010282D01*
X112487608Y-49429193D02*
X112675719Y-48912362D01*
X113051423Y-49634405D02*
X113521269Y-49805415D01*
X112914615Y-50010282D02*
X112487608Y-49429193D01*
X112487608Y-49429193D02*
X113188231Y-49258528D01*
X112111731Y-49292385D02*
X112487608Y-49429193D01*
X112487608Y-49429193D02*
X112299497Y-49946024D01*
%TO.C,D17*%
X76531200Y-17753300D02*
X76531200Y-18553300D01*
X75931200Y-18153300D02*
X76531200Y-17753300D01*
X75931200Y-18153300D02*
X75931200Y-17603300D01*
X75931200Y-18153300D02*
X75931200Y-18703300D01*
X76531200Y-18153300D02*
X77031200Y-18153300D01*
X75531200Y-18153300D02*
X75931200Y-18153300D01*
X76531200Y-18553300D02*
X75931200Y-18153300D01*
%TO.C,D4*%
X531200Y29246700D02*
X531200Y28446700D01*
X-68800Y28846700D02*
X531200Y29246700D01*
X-468800Y28846700D02*
X-68800Y28846700D01*
X-68800Y28846700D02*
X-68800Y29396700D01*
X531200Y28446700D02*
X-68800Y28846700D01*
X531200Y28846700D02*
X1031200Y28846700D01*
X-68800Y28846700D02*
X-68800Y28296700D01*
%TO.C,D10*%
X37531200Y-153300D02*
X37931200Y-153300D01*
X38531200Y246700D02*
X38531200Y-553300D01*
X37931200Y-153300D02*
X37931200Y-703300D01*
X37931200Y-153300D02*
X37931200Y396700D01*
X37931200Y-153300D02*
X38531200Y246700D01*
X38531200Y-153300D02*
X39031200Y-153300D01*
X38531200Y-553300D02*
X37931200Y-153300D01*
D11*
%TO.C,MCU1*%
X123631200Y50586700D02*
X123631200Y48046700D01*
X123631200Y48046700D02*
X126171200Y48046700D01*
X123631200Y50586700D02*
X126171200Y50586700D01*
X126171200Y48046700D02*
X126171200Y50586700D01*
D12*
%TO.C,D2*%
X531200Y-4753300D02*
X531200Y-5553300D01*
X-68800Y-5153300D02*
X531200Y-4753300D01*
X-68800Y-5153300D02*
X-68800Y-4603300D01*
X-468800Y-5153300D02*
X-68800Y-5153300D01*
X-68800Y-5153300D02*
X-68800Y-5703300D01*
X531200Y-5553300D02*
X-68800Y-5153300D01*
X531200Y-5153300D02*
X1031200Y-5153300D01*
%TO.C,D8*%
X18931200Y28846700D02*
X18931200Y29396700D01*
X18931200Y28846700D02*
X18931200Y28296700D01*
X18531200Y28846700D02*
X18931200Y28846700D01*
X19531200Y28846700D02*
X20031200Y28846700D01*
X18931200Y28846700D02*
X19531200Y29246700D01*
X19531200Y29246700D02*
X19531200Y28446700D01*
X19531200Y28446700D02*
X18931200Y28846700D01*
%TO.C,D7*%
X19531200Y11846700D02*
X20031200Y11846700D01*
X18531200Y11846700D02*
X18931200Y11846700D01*
X18931200Y11846700D02*
X18931200Y11296700D01*
X18931200Y11846700D02*
X18931200Y12396700D01*
X19531200Y11446700D02*
X18931200Y11846700D01*
X18931200Y11846700D02*
X19531200Y12246700D01*
X19531200Y12246700D02*
X19531200Y11446700D01*
%TO.C,D29*%
X130969188Y-59145794D02*
X131378764Y-59432582D01*
X131198619Y-58818133D02*
X130739757Y-59473455D01*
X130739757Y-59473455D02*
X130477697Y-58801648D01*
X130477697Y-58801648D02*
X130793164Y-58351115D01*
X130477697Y-58801648D02*
X130162230Y-59252182D01*
X130150036Y-58572218D02*
X130477697Y-58801648D01*
X130477697Y-58801648D02*
X131198619Y-58818133D01*
%TO.C,D3*%
X-68800Y11846700D02*
X-68800Y11296700D01*
X531200Y12246700D02*
X531200Y11446700D01*
X-468800Y11846700D02*
X-68800Y11846700D01*
X531200Y11446700D02*
X-68800Y11846700D01*
X-68800Y11846700D02*
X-68800Y12396700D01*
X-68800Y11846700D02*
X531200Y12246700D01*
X531200Y11846700D02*
X1031200Y11846700D01*
%TO.C,D22*%
X94931200Y-3153300D02*
X95531200Y-2753300D01*
X95531200Y-2753300D02*
X95531200Y-3553300D01*
X94531200Y-3153300D02*
X94931200Y-3153300D01*
X95531200Y-3153300D02*
X96031200Y-3153300D01*
X94931200Y-3153300D02*
X94931200Y-3703300D01*
X95531200Y-3553300D02*
X94931200Y-3153300D01*
X94931200Y-3153300D02*
X94931200Y-2603300D01*
%TO.C,D12*%
X37931200Y33846700D02*
X37931200Y33296700D01*
X37531200Y33846700D02*
X37931200Y33846700D01*
X38531200Y33846700D02*
X39031200Y33846700D01*
X38531200Y33446700D02*
X37931200Y33846700D01*
X37931200Y33846700D02*
X37931200Y34396700D01*
X37931200Y33846700D02*
X38531200Y34246700D01*
X38531200Y34246700D02*
X38531200Y33446700D01*
%TO.C,D6*%
X19531200Y-5153300D02*
X20031200Y-5153300D01*
X19531200Y-4753300D02*
X19531200Y-5553300D01*
X19531200Y-5553300D02*
X18931200Y-5153300D01*
X18931200Y-5153300D02*
X18931200Y-4603300D01*
X18931200Y-5153300D02*
X19531200Y-4753300D01*
X18531200Y-5153300D02*
X18931200Y-5153300D01*
X18931200Y-5153300D02*
X18931200Y-5703300D01*
%TO.C,D23*%
X94931200Y13846700D02*
X94931200Y14396700D01*
X95531200Y14246700D02*
X95531200Y13446700D01*
X95531200Y13446700D02*
X94931200Y13846700D01*
X95531200Y13846700D02*
X96031200Y13846700D01*
X94531200Y13846700D02*
X94931200Y13846700D01*
X94931200Y13846700D02*
X94931200Y13296700D01*
X94931200Y13846700D02*
X95531200Y14246700D01*
%TO.C,D28*%
X117926131Y-33317685D02*
X118302008Y-33454493D01*
X118729015Y-34035582D02*
X118302008Y-33454493D01*
X118302008Y-33454493D02*
X119002631Y-33283828D01*
X118865823Y-33659705D02*
X119335669Y-33830715D01*
X118302008Y-33454493D02*
X118490119Y-32937662D01*
X118302008Y-33454493D02*
X118113897Y-33971324D01*
X119002631Y-33283828D02*
X118729015Y-34035582D01*
%TO.C,D9*%
X38531200Y-17553300D02*
X37931200Y-17153300D01*
X38531200Y-16753300D02*
X38531200Y-17553300D01*
X37931200Y-17153300D02*
X37931200Y-16603300D01*
X37531200Y-17153300D02*
X37931200Y-17153300D01*
X37931200Y-17153300D02*
X37931200Y-17703300D01*
X37931200Y-17153300D02*
X38531200Y-16753300D01*
X38531200Y-17153300D02*
X39031200Y-17153300D01*
%TO.C,D25*%
X74931200Y-40153300D02*
X74931200Y-40703300D01*
X74931200Y-40153300D02*
X75531200Y-39753300D01*
X75531200Y-39753300D02*
X75531200Y-40553300D01*
X75531200Y-40553300D02*
X74931200Y-40153300D01*
X75531200Y-40153300D02*
X76031200Y-40153300D01*
X74531200Y-40153300D02*
X74931200Y-40153300D01*
X74931200Y-40153300D02*
X74931200Y-39603300D01*
%TO.C,D20*%
X75931200Y32846700D02*
X75931200Y33396700D01*
X75531200Y32846700D02*
X75931200Y32846700D01*
X76531200Y32846700D02*
X77031200Y32846700D01*
X75931200Y32846700D02*
X75931200Y32296700D01*
X76531200Y33246700D02*
X76531200Y32446700D01*
X76531200Y32446700D02*
X75931200Y32846700D01*
X75931200Y32846700D02*
X76531200Y33246700D01*
%TO.C,D21*%
X94531200Y-20153300D02*
X94931200Y-20153300D01*
X94931200Y-20153300D02*
X94931200Y-20703300D01*
X95531200Y-20153300D02*
X96031200Y-20153300D01*
X95531200Y-19753300D02*
X95531200Y-20553300D01*
X94931200Y-20153300D02*
X94931200Y-19603300D01*
X95531200Y-20553300D02*
X94931200Y-20153300D01*
X94931200Y-20153300D02*
X95531200Y-19753300D01*
%TO.C,D1*%
X-68800Y-22153300D02*
X-68800Y-22703300D01*
X531200Y-22153300D02*
X1031200Y-22153300D01*
X531200Y-21753300D02*
X531200Y-22553300D01*
X-68800Y-22153300D02*
X-68800Y-21603300D01*
X-68800Y-22153300D02*
X531200Y-21753300D01*
X531200Y-22553300D02*
X-68800Y-22153300D01*
X-468800Y-22153300D02*
X-68800Y-22153300D01*
%TO.C,D18*%
X75931200Y-1153300D02*
X75931200Y-1703300D01*
X76531200Y-753300D02*
X76531200Y-1553300D01*
X76531200Y-1553300D02*
X75931200Y-1153300D01*
X75531200Y-1153300D02*
X75931200Y-1153300D01*
X75931200Y-1153300D02*
X76531200Y-753300D01*
X75931200Y-1153300D02*
X75931200Y-603300D01*
X76531200Y-1153300D02*
X77031200Y-1153300D01*
%TO.C,D14*%
X56931200Y4846700D02*
X56931200Y5396700D01*
X57531200Y4846700D02*
X58031200Y4846700D01*
X57531200Y5246700D02*
X57531200Y4446700D01*
X56931200Y4846700D02*
X56931200Y4296700D01*
X56931200Y4846700D02*
X57531200Y5246700D01*
X57531200Y4446700D02*
X56931200Y4846700D01*
X56531200Y4846700D02*
X56931200Y4846700D01*
%TO.C,D11*%
X37531200Y16846700D02*
X37931200Y16846700D01*
X38531200Y16446700D02*
X37931200Y16846700D01*
X37931200Y16846700D02*
X37931200Y16296700D01*
X37931200Y16846700D02*
X38531200Y17246700D01*
X38531200Y17246700D02*
X38531200Y16446700D01*
X37931200Y16846700D02*
X37931200Y17396700D01*
X38531200Y16846700D02*
X39031200Y16846700D01*
%TO.C,D13*%
X56531200Y-12153300D02*
X56931200Y-12153300D01*
X56931200Y-12153300D02*
X56931200Y-11603300D01*
X57531200Y-11753300D02*
X57531200Y-12553300D01*
X57531200Y-12553300D02*
X56931200Y-12153300D01*
X56931200Y-12153300D02*
X57531200Y-11753300D01*
X56931200Y-12153300D02*
X56931200Y-12703300D01*
X57531200Y-12153300D02*
X58031200Y-12153300D01*
%TO.C,D16*%
X57531200Y38446700D02*
X56931200Y38846700D01*
X56931200Y38846700D02*
X57531200Y39246700D01*
X57531200Y38846700D02*
X58031200Y38846700D01*
X56931200Y38846700D02*
X56931200Y39396700D01*
X57531200Y39246700D02*
X57531200Y38446700D01*
X56531200Y38846700D02*
X56931200Y38846700D01*
X56931200Y38846700D02*
X56931200Y38296700D01*
%TO.C,D19*%
X75931200Y15846700D02*
X76531200Y16246700D01*
X76531200Y15446700D02*
X75931200Y15846700D01*
X75931200Y15846700D02*
X75931200Y15296700D01*
X75531200Y15846700D02*
X75931200Y15846700D01*
X76531200Y15846700D02*
X77031200Y15846700D01*
X76531200Y16246700D02*
X76531200Y15446700D01*
X75931200Y15846700D02*
X75931200Y16396700D01*
%TO.C,D24*%
X94531200Y30846700D02*
X94931200Y30846700D01*
X94931200Y30846700D02*
X94931200Y30296700D01*
X95531200Y30846700D02*
X96031200Y30846700D01*
X94931200Y30846700D02*
X95531200Y31246700D01*
X95531200Y31246700D02*
X95531200Y30446700D01*
X94931200Y30846700D02*
X94931200Y31396700D01*
X95531200Y30446700D02*
X94931200Y30846700D01*
%TD*%
M02*
