%TF.GenerationSoftware,KiCad,Pcbnew,(6.0.9-0)*%
%TF.CreationDate,2023-01-27T10:49:09-06:00*%
%TF.ProjectId,boardv3,626f6172-6476-4332-9e6b-696361645f70,v1.0.0*%
%TF.SameCoordinates,Original*%
%TF.FileFunction,Drillmap*%
%TF.FilePolarity,Positive*%
%FSLAX45Y45*%
G04 Gerber Fmt 4.5, Leading zero omitted, Abs format (unit mm)*
G04 Created by KiCad (PCBNEW (6.0.9-0)) date 2023-01-27 10:49:09*
%MOMM*%
%LPD*%
G01*
G04 APERTURE LIST*
%ADD10C,0.150000*%
%ADD11C,0.200000*%
%ADD12C,0.090000*%
%ADD13C,0.170180*%
%ADD14C,0.300000*%
%ADD15C,0.342900*%
G04 APERTURE END LIST*
D10*
X10227121Y4859671D02*
G75*
G03*
X10227121Y4859671I-105000J0D01*
G01*
X6193121Y-2755329D02*
G75*
G03*
X6193121Y-2755329I-105000J0D01*
G01*
X5557991Y-3169436D02*
X-732674Y-3211096D01*
X6210844Y-4245181D02*
G75*
G03*
X6796850Y-4859077I634706J19231D01*
G01*
X-856879Y-2794829D02*
G75*
G03*
X-856879Y-2794829I-105000J0D01*
G01*
X-736879Y5384671D02*
G75*
G03*
X-1371879Y4749671I0J-635000D01*
G01*
X-736879Y5384671D02*
X12697861Y5384671D01*
X10248380Y-5181402D02*
G75*
G03*
X9991310Y-5104805I-305770J-556528D01*
G01*
X13537156Y-2278796D02*
X15175019Y-4172564D01*
X13332843Y4754429D02*
X13382464Y-1868165D01*
X-1371879Y-2576110D02*
G75*
G03*
X-732674Y-3211096I635000J0D01*
G01*
X15220697Y-4943737D02*
X14080595Y-6629184D01*
X15220696Y-4943736D02*
G75*
G03*
X15175019Y-4172564I-525966J355786D01*
G01*
X14994094Y-4566779D02*
G75*
G03*
X14994094Y-4566779I-105000J0D01*
G01*
X6196905Y-3785188D02*
G75*
G03*
X5557991Y-3169436I-634709J-19234D01*
G01*
X13248856Y-6829932D02*
X10248380Y-5181402D01*
X6210844Y-4245181D02*
X6196905Y-3785188D01*
X9534121Y-4660329D02*
G75*
G03*
X9534121Y-4660329I-105000J0D01*
G01*
X13382464Y-1868165D02*
G75*
G03*
X13537156Y-2278796I634976J4755D01*
G01*
X13332843Y4754429D02*
G75*
G03*
X12697861Y5384671I-634983J-4759D01*
G01*
X-586879Y4829671D02*
G75*
G03*
X-586879Y4829671I-105000J0D01*
G01*
X9991310Y-5104805D02*
X6796850Y-4859077D01*
X-1371879Y-2576110D02*
X-1371879Y4749671D01*
X13248857Y-6829929D02*
G75*
G03*
X14080595Y-6629184I305773J556529D01*
G01*
D11*
D12*
X13133120Y-1320330D02*
X13223120Y-1410330D01*
X13223120Y-1320330D02*
X13133120Y-1410330D01*
X13133120Y-1320330D02*
X13223120Y-1410330D01*
X13223120Y-1320330D02*
X13133120Y-1410330D01*
X13133120Y-1620330D02*
X13223120Y-1710330D01*
X13223120Y-1620330D02*
X13133120Y-1710330D01*
X13133120Y-1620330D02*
X13223120Y-1710330D01*
X13223120Y-1620330D02*
X13133120Y-1710330D01*
D13*
X-436790Y3384670D02*
G75*
G03*
X-436790Y3384670I-85090J0D01*
G01*
X-436790Y1684670D02*
G75*
G03*
X-436790Y1684670I-85090J0D01*
G01*
X-436790Y-15330D02*
G75*
G03*
X-436790Y-15330I-85090J0D01*
G01*
X-436790Y-1715330D02*
G75*
G03*
X-436790Y-1715330I-85090J0D01*
G01*
X663210Y3384670D02*
G75*
G03*
X663210Y3384670I-85090J0D01*
G01*
X663210Y1684670D02*
G75*
G03*
X663210Y1684670I-85090J0D01*
G01*
X663210Y-15330D02*
G75*
G03*
X663210Y-15330I-85090J0D01*
G01*
X663210Y-1715330D02*
G75*
G03*
X663210Y-1715330I-85090J0D01*
G01*
X1463210Y3384670D02*
G75*
G03*
X1463210Y3384670I-85090J0D01*
G01*
X1463210Y1684670D02*
G75*
G03*
X1463210Y1684670I-85090J0D01*
G01*
X1463210Y-15330D02*
G75*
G03*
X1463210Y-15330I-85090J0D01*
G01*
X1463210Y-1715330D02*
G75*
G03*
X1463210Y-1715330I-85090J0D01*
G01*
X2563210Y3384670D02*
G75*
G03*
X2563210Y3384670I-85090J0D01*
G01*
X2563210Y1684670D02*
G75*
G03*
X2563210Y1684670I-85090J0D01*
G01*
X2563210Y-15330D02*
G75*
G03*
X2563210Y-15330I-85090J0D01*
G01*
X2563210Y-1715330D02*
G75*
G03*
X2563210Y-1715330I-85090J0D01*
G01*
X3363210Y3884670D02*
G75*
G03*
X3363210Y3884670I-85090J0D01*
G01*
X3363210Y2184670D02*
G75*
G03*
X3363210Y2184670I-85090J0D01*
G01*
X3363210Y484670D02*
G75*
G03*
X3363210Y484670I-85090J0D01*
G01*
X3363210Y-1215330D02*
G75*
G03*
X3363210Y-1215330I-85090J0D01*
G01*
X4463210Y3884670D02*
G75*
G03*
X4463210Y3884670I-85090J0D01*
G01*
X4463210Y2184670D02*
G75*
G03*
X4463210Y2184670I-85090J0D01*
G01*
X4463210Y484670D02*
G75*
G03*
X4463210Y484670I-85090J0D01*
G01*
X4463210Y-1215330D02*
G75*
G03*
X4463210Y-1215330I-85090J0D01*
G01*
X5263210Y4384670D02*
G75*
G03*
X5263210Y4384670I-85090J0D01*
G01*
X5263210Y2684670D02*
G75*
G03*
X5263210Y2684670I-85090J0D01*
G01*
X5263210Y984670D02*
G75*
G03*
X5263210Y984670I-85090J0D01*
G01*
X5263210Y-715330D02*
G75*
G03*
X5263210Y-715330I-85090J0D01*
G01*
X6363210Y4384670D02*
G75*
G03*
X6363210Y4384670I-85090J0D01*
G01*
X6363210Y2684670D02*
G75*
G03*
X6363210Y2684670I-85090J0D01*
G01*
X6363210Y984670D02*
G75*
G03*
X6363210Y984670I-85090J0D01*
G01*
X6363210Y-715330D02*
G75*
G03*
X6363210Y-715330I-85090J0D01*
G01*
X7063210Y-3515330D02*
G75*
G03*
X7063210Y-3515330I-85090J0D01*
G01*
X7163210Y3784670D02*
G75*
G03*
X7163210Y3784670I-85090J0D01*
G01*
X7163210Y2084670D02*
G75*
G03*
X7163210Y2084670I-85090J0D01*
G01*
X7163210Y384670D02*
G75*
G03*
X7163210Y384670I-85090J0D01*
G01*
X7163210Y-1315330D02*
G75*
G03*
X7163210Y-1315330I-85090J0D01*
G01*
X8163210Y-3515330D02*
G75*
G03*
X8163210Y-3515330I-85090J0D01*
G01*
X8263210Y3784670D02*
G75*
G03*
X8263210Y3784670I-85090J0D01*
G01*
X8263210Y2084670D02*
G75*
G03*
X8263210Y2084670I-85090J0D01*
G01*
X8263210Y384670D02*
G75*
G03*
X8263210Y384670I-85090J0D01*
G01*
X8263210Y-1315330D02*
G75*
G03*
X8263210Y-1315330I-85090J0D01*
G01*
X8963210Y-3515330D02*
G75*
G03*
X8963210Y-3515330I-85090J0D01*
G01*
X9063210Y3584670D02*
G75*
G03*
X9063210Y3584670I-85090J0D01*
G01*
X9063210Y1884670D02*
G75*
G03*
X9063210Y1884670I-85090J0D01*
G01*
X9063210Y184670D02*
G75*
G03*
X9063210Y184670I-85090J0D01*
G01*
X9063210Y-1515330D02*
G75*
G03*
X9063210Y-1515330I-85090J0D01*
G01*
X10063210Y-3515330D02*
G75*
G03*
X10063210Y-3515330I-85090J0D01*
G01*
X10163210Y3584670D02*
G75*
G03*
X10163210Y3584670I-85090J0D01*
G01*
X10163210Y1884670D02*
G75*
G03*
X10163210Y1884670I-85090J0D01*
G01*
X10163210Y184670D02*
G75*
G03*
X10163210Y184670I-85090J0D01*
G01*
X10163210Y-1515330D02*
G75*
G03*
X10163210Y-1515330I-85090J0D01*
G01*
X11020919Y-4296939D02*
G75*
G03*
X11020919Y-4296939I-85090J0D01*
G01*
X11602359Y-2699459D02*
G75*
G03*
X11602359Y-2699459I-85090J0D01*
G01*
X12054581Y-4673161D02*
G75*
G03*
X12054581Y-4673161I-85090J0D01*
G01*
X12636021Y-3075681D02*
G75*
G03*
X12636021Y-3075681I-85090J0D01*
G01*
X12997786Y-5175193D02*
G75*
G03*
X12997786Y-5175193I-85090J0D01*
G01*
X13898854Y-5806127D02*
G75*
G03*
X13898854Y-5806127I-85090J0D01*
G01*
D14*
X-471880Y3909670D02*
X-471880Y3609670D01*
X-621880Y3759670D02*
X-321880Y3759670D01*
X-471880Y2209670D02*
X-471880Y1909670D01*
X-621880Y2059670D02*
X-321880Y2059670D01*
X-471880Y509670D02*
X-471880Y209670D01*
X-621880Y359670D02*
X-321880Y359670D01*
X-471880Y-1190330D02*
X-471880Y-1490330D01*
X-621880Y-1340330D02*
X-321880Y-1340330D01*
X28120Y4129670D02*
X28120Y3829670D01*
X-121880Y3979670D02*
X178120Y3979670D01*
X28120Y4129670D02*
X28120Y3829670D01*
X-121880Y3979670D02*
X178120Y3979670D01*
X28120Y2429670D02*
X28120Y2129670D01*
X-121880Y2279670D02*
X178120Y2279670D01*
X28120Y2429670D02*
X28120Y2129670D01*
X-121880Y2279670D02*
X178120Y2279670D01*
X28120Y729670D02*
X28120Y429670D01*
X-121880Y579670D02*
X178120Y579670D01*
X28120Y729670D02*
X28120Y429670D01*
X-121880Y579670D02*
X178120Y579670D01*
X28120Y-970330D02*
X28120Y-1270330D01*
X-121880Y-1120330D02*
X178120Y-1120330D01*
X28120Y-970330D02*
X28120Y-1270330D01*
X-121880Y-1120330D02*
X178120Y-1120330D01*
X528120Y3909670D02*
X528120Y3609670D01*
X378120Y3759670D02*
X678120Y3759670D01*
X528120Y2209670D02*
X528120Y1909670D01*
X378120Y2059670D02*
X678120Y2059670D01*
X528120Y509670D02*
X528120Y209670D01*
X378120Y359670D02*
X678120Y359670D01*
X528120Y-1190330D02*
X528120Y-1490330D01*
X378120Y-1340330D02*
X678120Y-1340330D01*
X1428120Y3909670D02*
X1428120Y3609670D01*
X1278120Y3759670D02*
X1578120Y3759670D01*
X1428120Y2209670D02*
X1428120Y1909670D01*
X1278120Y2059670D02*
X1578120Y2059670D01*
X1428120Y509670D02*
X1428120Y209670D01*
X1278120Y359670D02*
X1578120Y359670D01*
X1428120Y-1190330D02*
X1428120Y-1490330D01*
X1278120Y-1340330D02*
X1578120Y-1340330D01*
X1928120Y4129670D02*
X1928120Y3829670D01*
X1778120Y3979670D02*
X2078120Y3979670D01*
X1928120Y4129670D02*
X1928120Y3829670D01*
X1778120Y3979670D02*
X2078120Y3979670D01*
X1928120Y2429670D02*
X1928120Y2129670D01*
X1778120Y2279670D02*
X2078120Y2279670D01*
X1928120Y2429670D02*
X1928120Y2129670D01*
X1778120Y2279670D02*
X2078120Y2279670D01*
X1928120Y729670D02*
X1928120Y429670D01*
X1778120Y579670D02*
X2078120Y579670D01*
X1928120Y729670D02*
X1928120Y429670D01*
X1778120Y579670D02*
X2078120Y579670D01*
X1928120Y-970330D02*
X1928120Y-1270330D01*
X1778120Y-1120330D02*
X2078120Y-1120330D01*
X1928120Y-970330D02*
X1928120Y-1270330D01*
X1778120Y-1120330D02*
X2078120Y-1120330D01*
X2428120Y3909670D02*
X2428120Y3609670D01*
X2278120Y3759670D02*
X2578120Y3759670D01*
X2428120Y2209670D02*
X2428120Y1909670D01*
X2278120Y2059670D02*
X2578120Y2059670D01*
X2428120Y509670D02*
X2428120Y209670D01*
X2278120Y359670D02*
X2578120Y359670D01*
X2428120Y-1190330D02*
X2428120Y-1490330D01*
X2278120Y-1340330D02*
X2578120Y-1340330D01*
X3328120Y4409670D02*
X3328120Y4109670D01*
X3178120Y4259670D02*
X3478120Y4259670D01*
X3328120Y2709670D02*
X3328120Y2409670D01*
X3178120Y2559670D02*
X3478120Y2559670D01*
X3328120Y1009670D02*
X3328120Y709670D01*
X3178120Y859670D02*
X3478120Y859670D01*
X3328120Y-690330D02*
X3328120Y-990330D01*
X3178120Y-840330D02*
X3478120Y-840330D01*
X3828120Y4629670D02*
X3828120Y4329670D01*
X3678120Y4479670D02*
X3978120Y4479670D01*
X3828120Y4629670D02*
X3828120Y4329670D01*
X3678120Y4479670D02*
X3978120Y4479670D01*
X3828120Y2929670D02*
X3828120Y2629670D01*
X3678120Y2779670D02*
X3978120Y2779670D01*
X3828120Y2929670D02*
X3828120Y2629670D01*
X3678120Y2779670D02*
X3978120Y2779670D01*
X3828120Y1229670D02*
X3828120Y929670D01*
X3678120Y1079670D02*
X3978120Y1079670D01*
X3828120Y1229670D02*
X3828120Y929670D01*
X3678120Y1079670D02*
X3978120Y1079670D01*
X3828120Y-470330D02*
X3828120Y-770330D01*
X3678120Y-620330D02*
X3978120Y-620330D01*
X3828120Y-470330D02*
X3828120Y-770330D01*
X3678120Y-620330D02*
X3978120Y-620330D01*
X4328120Y4409670D02*
X4328120Y4109670D01*
X4178120Y4259670D02*
X4478120Y4259670D01*
X4328120Y2709670D02*
X4328120Y2409670D01*
X4178120Y2559670D02*
X4478120Y2559670D01*
X4328120Y1009670D02*
X4328120Y709670D01*
X4178120Y859670D02*
X4478120Y859670D01*
X4328120Y-690330D02*
X4328120Y-990330D01*
X4178120Y-840330D02*
X4478120Y-840330D01*
X5228120Y4909670D02*
X5228120Y4609670D01*
X5078120Y4759670D02*
X5378120Y4759670D01*
X5228120Y3209670D02*
X5228120Y2909670D01*
X5078120Y3059670D02*
X5378120Y3059670D01*
X5228120Y1509670D02*
X5228120Y1209670D01*
X5078120Y1359670D02*
X5378120Y1359670D01*
X5228120Y-190330D02*
X5228120Y-490330D01*
X5078120Y-340330D02*
X5378120Y-340330D01*
X5728120Y5129670D02*
X5728120Y4829670D01*
X5578120Y4979670D02*
X5878120Y4979670D01*
X5728120Y5129670D02*
X5728120Y4829670D01*
X5578120Y4979670D02*
X5878120Y4979670D01*
X5728120Y3429670D02*
X5728120Y3129670D01*
X5578120Y3279670D02*
X5878120Y3279670D01*
X5728120Y3429670D02*
X5728120Y3129670D01*
X5578120Y3279670D02*
X5878120Y3279670D01*
X5728120Y1729670D02*
X5728120Y1429670D01*
X5578120Y1579670D02*
X5878120Y1579670D01*
X5728120Y1729670D02*
X5728120Y1429670D01*
X5578120Y1579670D02*
X5878120Y1579670D01*
X5728120Y29670D02*
X5728120Y-270330D01*
X5578120Y-120330D02*
X5878120Y-120330D01*
X5728120Y29670D02*
X5728120Y-270330D01*
X5578120Y-120330D02*
X5878120Y-120330D01*
X6228120Y4909670D02*
X6228120Y4609670D01*
X6078120Y4759670D02*
X6378120Y4759670D01*
X6228120Y3209670D02*
X6228120Y2909670D01*
X6078120Y3059670D02*
X6378120Y3059670D01*
X6228120Y1509670D02*
X6228120Y1209670D01*
X6078120Y1359670D02*
X6378120Y1359670D01*
X6228120Y-190330D02*
X6228120Y-490330D01*
X6078120Y-340330D02*
X6378120Y-340330D01*
X7028120Y-2990330D02*
X7028120Y-3290330D01*
X6878120Y-3140330D02*
X7178120Y-3140330D01*
X7128120Y4309670D02*
X7128120Y4009670D01*
X6978120Y4159670D02*
X7278120Y4159670D01*
X7128120Y2609670D02*
X7128120Y2309670D01*
X6978120Y2459670D02*
X7278120Y2459670D01*
X7128120Y909670D02*
X7128120Y609670D01*
X6978120Y759670D02*
X7278120Y759670D01*
X7128120Y-790330D02*
X7128120Y-1090330D01*
X6978120Y-940330D02*
X7278120Y-940330D01*
X7528120Y-2770330D02*
X7528120Y-3070330D01*
X7378120Y-2920330D02*
X7678120Y-2920330D01*
X7528120Y-2770330D02*
X7528120Y-3070330D01*
X7378120Y-2920330D02*
X7678120Y-2920330D01*
X7628120Y4529670D02*
X7628120Y4229670D01*
X7478120Y4379670D02*
X7778120Y4379670D01*
X7628120Y4529670D02*
X7628120Y4229670D01*
X7478120Y4379670D02*
X7778120Y4379670D01*
X7628120Y2829670D02*
X7628120Y2529670D01*
X7478120Y2679670D02*
X7778120Y2679670D01*
X7628120Y2829670D02*
X7628120Y2529670D01*
X7478120Y2679670D02*
X7778120Y2679670D01*
X7628120Y1129670D02*
X7628120Y829670D01*
X7478120Y979670D02*
X7778120Y979670D01*
X7628120Y1129670D02*
X7628120Y829670D01*
X7478120Y979670D02*
X7778120Y979670D01*
X7628120Y-570330D02*
X7628120Y-870330D01*
X7478120Y-720330D02*
X7778120Y-720330D01*
X7628120Y-570330D02*
X7628120Y-870330D01*
X7478120Y-720330D02*
X7778120Y-720330D01*
X8028120Y-2990330D02*
X8028120Y-3290330D01*
X7878120Y-3140330D02*
X8178120Y-3140330D01*
X8128120Y4309670D02*
X8128120Y4009670D01*
X7978120Y4159670D02*
X8278120Y4159670D01*
X8128120Y2609670D02*
X8128120Y2309670D01*
X7978120Y2459670D02*
X8278120Y2459670D01*
X8128120Y909670D02*
X8128120Y609670D01*
X7978120Y759670D02*
X8278120Y759670D01*
X8128120Y-790330D02*
X8128120Y-1090330D01*
X7978120Y-940330D02*
X8278120Y-940330D01*
X8928120Y-2990330D02*
X8928120Y-3290330D01*
X8778120Y-3140330D02*
X9078120Y-3140330D01*
X9028120Y4109670D02*
X9028120Y3809670D01*
X8878120Y3959670D02*
X9178120Y3959670D01*
X9028120Y2409670D02*
X9028120Y2109670D01*
X8878120Y2259670D02*
X9178120Y2259670D01*
X9028120Y709670D02*
X9028120Y409670D01*
X8878120Y559670D02*
X9178120Y559670D01*
X9028120Y-990330D02*
X9028120Y-1290330D01*
X8878120Y-1140330D02*
X9178120Y-1140330D01*
X9428120Y-2770330D02*
X9428120Y-3070330D01*
X9278120Y-2920330D02*
X9578120Y-2920330D01*
X9428120Y-2770330D02*
X9428120Y-3070330D01*
X9278120Y-2920330D02*
X9578120Y-2920330D01*
X9528120Y4329670D02*
X9528120Y4029670D01*
X9378120Y4179670D02*
X9678120Y4179670D01*
X9528120Y4329670D02*
X9528120Y4029670D01*
X9378120Y4179670D02*
X9678120Y4179670D01*
X9528120Y2629670D02*
X9528120Y2329670D01*
X9378120Y2479670D02*
X9678120Y2479670D01*
X9528120Y2629670D02*
X9528120Y2329670D01*
X9378120Y2479670D02*
X9678120Y2479670D01*
X9528120Y929670D02*
X9528120Y629670D01*
X9378120Y779670D02*
X9678120Y779670D01*
X9528120Y929670D02*
X9528120Y629670D01*
X9378120Y779670D02*
X9678120Y779670D01*
X9528120Y-770330D02*
X9528120Y-1070330D01*
X9378120Y-920330D02*
X9678120Y-920330D01*
X9528120Y-770330D02*
X9528120Y-1070330D01*
X9378120Y-920330D02*
X9678120Y-920330D01*
X9928120Y-2990330D02*
X9928120Y-3290330D01*
X9778120Y-3140330D02*
X10078120Y-3140330D01*
X10028120Y4109670D02*
X10028120Y3809670D01*
X9878120Y3959670D02*
X10178120Y3959670D01*
X10028120Y2409670D02*
X10028120Y2109670D01*
X9878120Y2259670D02*
X10178120Y2259670D01*
X10028120Y709670D02*
X10028120Y409670D01*
X9878120Y559670D02*
X10178120Y559670D01*
X10028120Y-990330D02*
X10028120Y-1290330D01*
X9878120Y-1140330D02*
X10178120Y-1140330D01*
X11111071Y-3811655D02*
X11111071Y-4111655D01*
X10961071Y-3961655D02*
X11261071Y-3961655D01*
X11656162Y-3775933D02*
X11656162Y-4075933D01*
X11506162Y-3925933D02*
X11806162Y-3925933D01*
X11656162Y-3775933D02*
X11656162Y-4075933D01*
X11506162Y-3925933D02*
X11806162Y-3925933D01*
X11692511Y-2214175D02*
X11692511Y-2514175D01*
X11542511Y-2364175D02*
X11842511Y-2364175D01*
X12050764Y-4153675D02*
X12050764Y-4453675D01*
X11900764Y-4303675D02*
X12200764Y-4303675D01*
X12237602Y-2178453D02*
X12237602Y-2478453D01*
X12087602Y-2328453D02*
X12387602Y-2328453D01*
X12237602Y-2178453D02*
X12237602Y-2478453D01*
X12087602Y-2328453D02*
X12387602Y-2328453D01*
X12632204Y-2556195D02*
X12632204Y-2856195D01*
X12482204Y-2706195D02*
X12782204Y-2706195D01*
X13168745Y-4746690D02*
X13168745Y-5046690D01*
X13018745Y-4896690D02*
X13318745Y-4896690D01*
X13704508Y-4853265D02*
X13704508Y-5153265D01*
X13554508Y-5003265D02*
X13854508Y-5003265D01*
X13704508Y-4853265D02*
X13704508Y-5153265D01*
X13554508Y-5003265D02*
X13854508Y-5003265D01*
X13987897Y-5320266D02*
X13987897Y-5620266D01*
X13837897Y-5470266D02*
X14137897Y-5470266D01*
D15*
X149355Y3263435D02*
X149355Y3505905D01*
X-93115Y3505905D01*
X-93115Y3263435D01*
X149355Y3263435D01*
X149355Y1563435D02*
X149355Y1805905D01*
X-93115Y1805905D01*
X-93115Y1563435D01*
X149355Y1563435D01*
X149355Y-136565D02*
X149355Y105905D01*
X-93115Y105905D01*
X-93115Y-136565D01*
X149355Y-136565D01*
X149355Y-1836565D02*
X149355Y-1594095D01*
X-93115Y-1594095D01*
X-93115Y-1836565D01*
X149355Y-1836565D01*
X2049355Y3263435D02*
X2049355Y3505905D01*
X1806885Y3505905D01*
X1806885Y3263435D01*
X2049355Y3263435D01*
X2049355Y1563435D02*
X2049355Y1805905D01*
X1806885Y1805905D01*
X1806885Y1563435D01*
X2049355Y1563435D01*
X2049355Y-136565D02*
X2049355Y105905D01*
X1806885Y105905D01*
X1806885Y-136565D01*
X2049355Y-136565D01*
X2049355Y-1836565D02*
X2049355Y-1594095D01*
X1806885Y-1594095D01*
X1806885Y-1836565D01*
X2049355Y-1836565D01*
X3949355Y3763435D02*
X3949355Y4005905D01*
X3706885Y4005905D01*
X3706885Y3763435D01*
X3949355Y3763435D01*
X3949355Y2063435D02*
X3949355Y2305905D01*
X3706885Y2305905D01*
X3706885Y2063435D01*
X3949355Y2063435D01*
X3949355Y363435D02*
X3949355Y605905D01*
X3706885Y605905D01*
X3706885Y363435D01*
X3949355Y363435D01*
X3949355Y-1336565D02*
X3949355Y-1094095D01*
X3706885Y-1094095D01*
X3706885Y-1336565D01*
X3949355Y-1336565D01*
X5849355Y4263435D02*
X5849355Y4505905D01*
X5606885Y4505905D01*
X5606885Y4263435D01*
X5849355Y4263435D01*
X5849355Y2563435D02*
X5849355Y2805905D01*
X5606885Y2805905D01*
X5606885Y2563435D01*
X5849355Y2563435D01*
X5849355Y863435D02*
X5849355Y1105905D01*
X5606885Y1105905D01*
X5606885Y863435D01*
X5849355Y863435D01*
X5849355Y-836565D02*
X5849355Y-594095D01*
X5606885Y-594095D01*
X5606885Y-836565D01*
X5849355Y-836565D01*
X7649355Y-3636565D02*
X7649355Y-3394095D01*
X7406885Y-3394095D01*
X7406885Y-3636565D01*
X7649355Y-3636565D01*
X7749355Y3663435D02*
X7749355Y3905905D01*
X7506885Y3905905D01*
X7506885Y3663435D01*
X7749355Y3663435D01*
X7749355Y1963435D02*
X7749355Y2205905D01*
X7506885Y2205905D01*
X7506885Y1963435D01*
X7749355Y1963435D01*
X7749355Y263435D02*
X7749355Y505905D01*
X7506885Y505905D01*
X7506885Y263435D01*
X7749355Y263435D01*
X7749355Y-1436565D02*
X7749355Y-1194095D01*
X7506885Y-1194095D01*
X7506885Y-1436565D01*
X7749355Y-1436565D01*
X9549355Y-3636565D02*
X9549355Y-3394095D01*
X9306885Y-3394095D01*
X9306885Y-3636565D01*
X9549355Y-3636565D01*
X9649355Y3463435D02*
X9649355Y3705905D01*
X9406885Y3705905D01*
X9406885Y3463435D01*
X9649355Y3463435D01*
X9649355Y1763435D02*
X9649355Y2005905D01*
X9406885Y2005905D01*
X9406885Y1763435D01*
X9649355Y1763435D01*
X9649355Y63435D02*
X9649355Y305905D01*
X9406885Y305905D01*
X9406885Y63435D01*
X9649355Y63435D01*
X9649355Y-1636565D02*
X9649355Y-1394095D01*
X9406885Y-1394095D01*
X9406885Y-1636565D01*
X9649355Y-1636565D01*
X11573895Y-4606285D02*
X11573895Y-4363815D01*
X11331425Y-4363815D01*
X11331425Y-4606285D01*
X11573895Y-4606285D01*
X12155335Y-3008805D02*
X12155335Y-2766335D01*
X11912865Y-2766335D01*
X11912865Y-3008805D01*
X12155335Y-3008805D01*
X13484465Y-5611895D02*
X13484465Y-5369425D01*
X13241995Y-5369425D01*
X13241995Y-5611895D01*
X13484465Y-5611895D01*
D11*
X-1121760Y-7226374D02*
X-1121760Y-7026374D01*
X-1074141Y-7026374D01*
X-1045569Y-7035898D01*
X-1026522Y-7054945D01*
X-1016998Y-7073993D01*
X-1007474Y-7112088D01*
X-1007474Y-7140659D01*
X-1016998Y-7178755D01*
X-1026522Y-7197802D01*
X-1045569Y-7216850D01*
X-1074141Y-7226374D01*
X-1121760Y-7226374D01*
X-921760Y-7226374D02*
X-921760Y-7093040D01*
X-921760Y-7131136D02*
X-912236Y-7112088D01*
X-902712Y-7102564D01*
X-883665Y-7093040D01*
X-864617Y-7093040D01*
X-797950Y-7226374D02*
X-797950Y-7093040D01*
X-797950Y-7026374D02*
X-807474Y-7035898D01*
X-797950Y-7045421D01*
X-788427Y-7035898D01*
X-797950Y-7026374D01*
X-797950Y-7045421D01*
X-674141Y-7226374D02*
X-693189Y-7216850D01*
X-702712Y-7197802D01*
X-702712Y-7026374D01*
X-569379Y-7226374D02*
X-588427Y-7216850D01*
X-597950Y-7197802D01*
X-597950Y-7026374D01*
X-340808Y-7226374D02*
X-340808Y-7026374D01*
X-274141Y-7169231D01*
X-207474Y-7026374D01*
X-207474Y-7226374D01*
X-26522Y-7226374D02*
X-26522Y-7121612D01*
X-36046Y-7102564D01*
X-55093Y-7093040D01*
X-93188Y-7093040D01*
X-112236Y-7102564D01*
X-26522Y-7216850D02*
X-45569Y-7226374D01*
X-93188Y-7226374D01*
X-112236Y-7216850D01*
X-121760Y-7197802D01*
X-121760Y-7178755D01*
X-112236Y-7159707D01*
X-93188Y-7150183D01*
X-45569Y-7150183D01*
X-26522Y-7140659D01*
X68716Y-7093040D02*
X68716Y-7293040D01*
X68716Y-7102564D02*
X87764Y-7093040D01*
X125859Y-7093040D01*
X144907Y-7102564D01*
X154431Y-7112088D01*
X163954Y-7131136D01*
X163954Y-7188278D01*
X154431Y-7207326D01*
X144907Y-7216850D01*
X125859Y-7226374D01*
X87764Y-7226374D01*
X68716Y-7216850D01*
X249669Y-7207326D02*
X259192Y-7216850D01*
X249669Y-7226374D01*
X240145Y-7216850D01*
X249669Y-7207326D01*
X249669Y-7226374D01*
X249669Y-7102564D02*
X259192Y-7112088D01*
X249669Y-7121612D01*
X240145Y-7112088D01*
X249669Y-7102564D01*
X249669Y-7121612D01*
D12*
X-1469379Y-7510898D02*
X-1379379Y-7600898D01*
X-1379379Y-7510898D02*
X-1469379Y-7600898D01*
D11*
X-1083665Y-7446374D02*
X-1064617Y-7446374D01*
X-1045569Y-7455898D01*
X-1036046Y-7465421D01*
X-1026522Y-7484469D01*
X-1016998Y-7522564D01*
X-1016998Y-7570183D01*
X-1026522Y-7608278D01*
X-1036046Y-7627326D01*
X-1045569Y-7636850D01*
X-1064617Y-7646374D01*
X-1083665Y-7646374D01*
X-1102712Y-7636850D01*
X-1112236Y-7627326D01*
X-1121760Y-7608278D01*
X-1131284Y-7570183D01*
X-1131284Y-7522564D01*
X-1121760Y-7484469D01*
X-1112236Y-7465421D01*
X-1102712Y-7455898D01*
X-1083665Y-7446374D01*
X-931284Y-7627326D02*
X-921760Y-7636850D01*
X-931284Y-7646374D01*
X-940807Y-7636850D01*
X-931284Y-7627326D01*
X-931284Y-7646374D01*
X-826522Y-7646374D02*
X-788427Y-7646374D01*
X-769379Y-7636850D01*
X-759855Y-7627326D01*
X-740807Y-7598755D01*
X-731284Y-7560659D01*
X-731284Y-7484469D01*
X-740807Y-7465421D01*
X-750331Y-7455898D01*
X-769379Y-7446374D01*
X-807474Y-7446374D01*
X-826522Y-7455898D01*
X-836046Y-7465421D01*
X-845569Y-7484469D01*
X-845569Y-7532088D01*
X-836046Y-7551136D01*
X-826522Y-7560659D01*
X-807474Y-7570183D01*
X-769379Y-7570183D01*
X-750331Y-7560659D01*
X-740807Y-7551136D01*
X-731284Y-7532088D01*
X-607474Y-7446374D02*
X-588427Y-7446374D01*
X-569379Y-7455898D01*
X-559855Y-7465421D01*
X-550331Y-7484469D01*
X-540808Y-7522564D01*
X-540808Y-7570183D01*
X-550331Y-7608278D01*
X-559855Y-7627326D01*
X-569379Y-7636850D01*
X-588427Y-7646374D01*
X-607474Y-7646374D01*
X-626522Y-7636850D01*
X-636046Y-7627326D01*
X-645569Y-7608278D01*
X-655093Y-7570183D01*
X-655093Y-7522564D01*
X-645569Y-7484469D01*
X-636046Y-7465421D01*
X-626522Y-7455898D01*
X-607474Y-7446374D01*
X-416998Y-7446374D02*
X-397950Y-7446374D01*
X-378903Y-7455898D01*
X-369379Y-7465421D01*
X-359855Y-7484469D01*
X-350331Y-7522564D01*
X-350331Y-7570183D01*
X-359855Y-7608278D01*
X-369379Y-7627326D01*
X-378903Y-7636850D01*
X-397950Y-7646374D01*
X-416998Y-7646374D01*
X-436046Y-7636850D01*
X-445569Y-7627326D01*
X-455093Y-7608278D01*
X-464617Y-7570183D01*
X-464617Y-7522564D01*
X-455093Y-7484469D01*
X-445569Y-7465421D01*
X-436046Y-7455898D01*
X-416998Y-7446374D01*
X-264617Y-7646374D02*
X-264617Y-7513040D01*
X-264617Y-7532088D02*
X-255093Y-7522564D01*
X-236046Y-7513040D01*
X-207474Y-7513040D01*
X-188427Y-7522564D01*
X-178903Y-7541612D01*
X-178903Y-7646374D01*
X-178903Y-7541612D02*
X-169379Y-7522564D01*
X-150331Y-7513040D01*
X-121760Y-7513040D01*
X-102712Y-7522564D01*
X-93188Y-7541612D01*
X-93188Y-7646374D01*
X2050Y-7646374D02*
X2050Y-7513040D01*
X2050Y-7532088D02*
X11573Y-7522564D01*
X30621Y-7513040D01*
X59192Y-7513040D01*
X78240Y-7522564D01*
X87764Y-7541612D01*
X87764Y-7646374D01*
X87764Y-7541612D02*
X97288Y-7522564D01*
X116335Y-7513040D01*
X144907Y-7513040D01*
X163954Y-7522564D01*
X173478Y-7541612D01*
X173478Y-7646374D01*
X563954Y-7436850D02*
X392526Y-7693993D01*
X821097Y-7446374D02*
X840145Y-7446374D01*
X859192Y-7455898D01*
X868716Y-7465421D01*
X878240Y-7484469D01*
X887764Y-7522564D01*
X887764Y-7570183D01*
X878240Y-7608278D01*
X868716Y-7627326D01*
X859192Y-7636850D01*
X840145Y-7646374D01*
X821097Y-7646374D01*
X802049Y-7636850D01*
X792526Y-7627326D01*
X783002Y-7608278D01*
X773478Y-7570183D01*
X773478Y-7522564D01*
X783002Y-7484469D01*
X792526Y-7465421D01*
X802049Y-7455898D01*
X821097Y-7446374D01*
X973478Y-7627326D02*
X983002Y-7636850D01*
X973478Y-7646374D01*
X963954Y-7636850D01*
X973478Y-7627326D01*
X973478Y-7646374D01*
X1106811Y-7446374D02*
X1125859Y-7446374D01*
X1144907Y-7455898D01*
X1154431Y-7465421D01*
X1163954Y-7484469D01*
X1173478Y-7522564D01*
X1173478Y-7570183D01*
X1163954Y-7608278D01*
X1154431Y-7627326D01*
X1144907Y-7636850D01*
X1125859Y-7646374D01*
X1106811Y-7646374D01*
X1087764Y-7636850D01*
X1078240Y-7627326D01*
X1068716Y-7608278D01*
X1059192Y-7570183D01*
X1059192Y-7522564D01*
X1068716Y-7484469D01*
X1078240Y-7465421D01*
X1087764Y-7455898D01*
X1106811Y-7446374D01*
X1240145Y-7446374D02*
X1363954Y-7446374D01*
X1297288Y-7522564D01*
X1325859Y-7522564D01*
X1344907Y-7532088D01*
X1354431Y-7541612D01*
X1363954Y-7560659D01*
X1363954Y-7608278D01*
X1354431Y-7627326D01*
X1344907Y-7636850D01*
X1325859Y-7646374D01*
X1268716Y-7646374D01*
X1249669Y-7636850D01*
X1240145Y-7627326D01*
X1544907Y-7446374D02*
X1449669Y-7446374D01*
X1440145Y-7541612D01*
X1449669Y-7532088D01*
X1468716Y-7522564D01*
X1516335Y-7522564D01*
X1535383Y-7532088D01*
X1544907Y-7541612D01*
X1554430Y-7560659D01*
X1554430Y-7608278D01*
X1544907Y-7627326D01*
X1535383Y-7636850D01*
X1516335Y-7646374D01*
X1468716Y-7646374D01*
X1449669Y-7636850D01*
X1440145Y-7627326D01*
X1725859Y-7513040D02*
X1725859Y-7646374D01*
X1678240Y-7436850D02*
X1630621Y-7579707D01*
X1754430Y-7579707D01*
X1821097Y-7446374D02*
X1821097Y-7484469D01*
X1897288Y-7446374D02*
X1897288Y-7484469D01*
X2192526Y-7722564D02*
X2183002Y-7713040D01*
X2163954Y-7684469D01*
X2154431Y-7665421D01*
X2144907Y-7636850D01*
X2135383Y-7589231D01*
X2135383Y-7551136D01*
X2144907Y-7503517D01*
X2154431Y-7474945D01*
X2163954Y-7455898D01*
X2183002Y-7427326D01*
X2192526Y-7417802D01*
X2354431Y-7513040D02*
X2354431Y-7646374D01*
X2306811Y-7436850D02*
X2259192Y-7579707D01*
X2383002Y-7579707D01*
X2611573Y-7646374D02*
X2611573Y-7446374D01*
X2697288Y-7646374D02*
X2697288Y-7541612D01*
X2687764Y-7522564D01*
X2668716Y-7513040D01*
X2640145Y-7513040D01*
X2621097Y-7522564D01*
X2611573Y-7532088D01*
X2821097Y-7646374D02*
X2802049Y-7636850D01*
X2792526Y-7627326D01*
X2783002Y-7608278D01*
X2783002Y-7551136D01*
X2792526Y-7532088D01*
X2802049Y-7522564D01*
X2821097Y-7513040D01*
X2849669Y-7513040D01*
X2868716Y-7522564D01*
X2878240Y-7532088D01*
X2887764Y-7551136D01*
X2887764Y-7608278D01*
X2878240Y-7627326D01*
X2868716Y-7636850D01*
X2849669Y-7646374D01*
X2821097Y-7646374D01*
X3002049Y-7646374D02*
X2983002Y-7636850D01*
X2973478Y-7617802D01*
X2973478Y-7446374D01*
X3154430Y-7636850D02*
X3135383Y-7646374D01*
X3097288Y-7646374D01*
X3078240Y-7636850D01*
X3068716Y-7617802D01*
X3068716Y-7541612D01*
X3078240Y-7522564D01*
X3097288Y-7513040D01*
X3135383Y-7513040D01*
X3154430Y-7522564D01*
X3163954Y-7541612D01*
X3163954Y-7560659D01*
X3068716Y-7579707D01*
X3240145Y-7636850D02*
X3259192Y-7646374D01*
X3297288Y-7646374D01*
X3316335Y-7636850D01*
X3325859Y-7617802D01*
X3325859Y-7608278D01*
X3316335Y-7589231D01*
X3297288Y-7579707D01*
X3268716Y-7579707D01*
X3249669Y-7570183D01*
X3240145Y-7551136D01*
X3240145Y-7541612D01*
X3249669Y-7522564D01*
X3268716Y-7513040D01*
X3297288Y-7513040D01*
X3316335Y-7522564D01*
X3392526Y-7722564D02*
X3402049Y-7713040D01*
X3421097Y-7684469D01*
X3430621Y-7665421D01*
X3440145Y-7636850D01*
X3449669Y-7589231D01*
X3449669Y-7551136D01*
X3440145Y-7503517D01*
X3430621Y-7474945D01*
X3421097Y-7455898D01*
X3402049Y-7427326D01*
X3392526Y-7417802D01*
X3754430Y-7722564D02*
X3744907Y-7713040D01*
X3725859Y-7684469D01*
X3716335Y-7665421D01*
X3706811Y-7636850D01*
X3697288Y-7589231D01*
X3697288Y-7551136D01*
X3706811Y-7503517D01*
X3716335Y-7474945D01*
X3725859Y-7455898D01*
X3744907Y-7427326D01*
X3754430Y-7417802D01*
X3830621Y-7513040D02*
X3830621Y-7646374D01*
X3830621Y-7532088D02*
X3840145Y-7522564D01*
X3859192Y-7513040D01*
X3887764Y-7513040D01*
X3906811Y-7522564D01*
X3916335Y-7541612D01*
X3916335Y-7646374D01*
X4040145Y-7646374D02*
X4021097Y-7636850D01*
X4011573Y-7627326D01*
X4002049Y-7608278D01*
X4002049Y-7551136D01*
X4011573Y-7532088D01*
X4021097Y-7522564D01*
X4040145Y-7513040D01*
X4068716Y-7513040D01*
X4087764Y-7522564D01*
X4097288Y-7532088D01*
X4106811Y-7551136D01*
X4106811Y-7608278D01*
X4097288Y-7627326D01*
X4087764Y-7636850D01*
X4068716Y-7646374D01*
X4040145Y-7646374D01*
X4163954Y-7513040D02*
X4240145Y-7513040D01*
X4192526Y-7446374D02*
X4192526Y-7617802D01*
X4202050Y-7636850D01*
X4221097Y-7646374D01*
X4240145Y-7646374D01*
X4459192Y-7513040D02*
X4459192Y-7713040D01*
X4459192Y-7522564D02*
X4478240Y-7513040D01*
X4516335Y-7513040D01*
X4535383Y-7522564D01*
X4544907Y-7532088D01*
X4554431Y-7551136D01*
X4554431Y-7608278D01*
X4544907Y-7627326D01*
X4535383Y-7636850D01*
X4516335Y-7646374D01*
X4478240Y-7646374D01*
X4459192Y-7636850D01*
X4668716Y-7646374D02*
X4649669Y-7636850D01*
X4640145Y-7617802D01*
X4640145Y-7446374D01*
X4830621Y-7646374D02*
X4830621Y-7541612D01*
X4821097Y-7522564D01*
X4802050Y-7513040D01*
X4763954Y-7513040D01*
X4744907Y-7522564D01*
X4830621Y-7636850D02*
X4811573Y-7646374D01*
X4763954Y-7646374D01*
X4744907Y-7636850D01*
X4735383Y-7617802D01*
X4735383Y-7598755D01*
X4744907Y-7579707D01*
X4763954Y-7570183D01*
X4811573Y-7570183D01*
X4830621Y-7560659D01*
X4897288Y-7513040D02*
X4973478Y-7513040D01*
X4925859Y-7446374D02*
X4925859Y-7617802D01*
X4935383Y-7636850D01*
X4954431Y-7646374D01*
X4973478Y-7646374D01*
X5116335Y-7636850D02*
X5097288Y-7646374D01*
X5059192Y-7646374D01*
X5040145Y-7636850D01*
X5030621Y-7617802D01*
X5030621Y-7541612D01*
X5040145Y-7522564D01*
X5059192Y-7513040D01*
X5097288Y-7513040D01*
X5116335Y-7522564D01*
X5125859Y-7541612D01*
X5125859Y-7560659D01*
X5030621Y-7579707D01*
X5297288Y-7646374D02*
X5297288Y-7446374D01*
X5297288Y-7636850D02*
X5278240Y-7646374D01*
X5240145Y-7646374D01*
X5221097Y-7636850D01*
X5211573Y-7627326D01*
X5202050Y-7608278D01*
X5202050Y-7551136D01*
X5211573Y-7532088D01*
X5221097Y-7522564D01*
X5240145Y-7513040D01*
X5278240Y-7513040D01*
X5297288Y-7522564D01*
X5373478Y-7722564D02*
X5383002Y-7713040D01*
X5402050Y-7684469D01*
X5411573Y-7665421D01*
X5421097Y-7636850D01*
X5430621Y-7589231D01*
X5430621Y-7551136D01*
X5421097Y-7503517D01*
X5411573Y-7474945D01*
X5402050Y-7455898D01*
X5383002Y-7427326D01*
X5373478Y-7417802D01*
D13*
X-1379379Y-7819898D02*
G75*
G03*
X-1379379Y-7819898I-85090J0D01*
G01*
D11*
X-1016998Y-7910374D02*
X-1131284Y-7910374D01*
X-1074141Y-7910374D02*
X-1074141Y-7710374D01*
X-1093189Y-7738945D01*
X-1112236Y-7757993D01*
X-1131284Y-7767517D01*
X-931284Y-7891326D02*
X-921760Y-7900850D01*
X-931284Y-7910374D01*
X-940807Y-7900850D01*
X-931284Y-7891326D01*
X-931284Y-7910374D01*
X-855093Y-7710374D02*
X-721760Y-7710374D01*
X-807474Y-7910374D01*
X-607474Y-7710374D02*
X-588427Y-7710374D01*
X-569379Y-7719898D01*
X-559855Y-7729421D01*
X-550331Y-7748469D01*
X-540808Y-7786564D01*
X-540808Y-7834183D01*
X-550331Y-7872278D01*
X-559855Y-7891326D01*
X-569379Y-7900850D01*
X-588427Y-7910374D01*
X-607474Y-7910374D01*
X-626522Y-7900850D01*
X-636046Y-7891326D01*
X-645569Y-7872278D01*
X-655093Y-7834183D01*
X-655093Y-7786564D01*
X-645569Y-7748469D01*
X-636046Y-7729421D01*
X-626522Y-7719898D01*
X-607474Y-7710374D01*
X-464617Y-7729421D02*
X-455093Y-7719898D01*
X-436046Y-7710374D01*
X-388427Y-7710374D01*
X-369379Y-7719898D01*
X-359855Y-7729421D01*
X-350331Y-7748469D01*
X-350331Y-7767517D01*
X-359855Y-7796088D01*
X-474141Y-7910374D01*
X-350331Y-7910374D01*
X-264617Y-7910374D02*
X-264617Y-7777040D01*
X-264617Y-7796088D02*
X-255093Y-7786564D01*
X-236046Y-7777040D01*
X-207474Y-7777040D01*
X-188427Y-7786564D01*
X-178903Y-7805612D01*
X-178903Y-7910374D01*
X-178903Y-7805612D02*
X-169379Y-7786564D01*
X-150331Y-7777040D01*
X-121760Y-7777040D01*
X-102712Y-7786564D01*
X-93188Y-7805612D01*
X-93188Y-7910374D01*
X2050Y-7910374D02*
X2050Y-7777040D01*
X2050Y-7796088D02*
X11573Y-7786564D01*
X30621Y-7777040D01*
X59192Y-7777040D01*
X78240Y-7786564D01*
X87764Y-7805612D01*
X87764Y-7910374D01*
X87764Y-7805612D02*
X97288Y-7786564D01*
X116335Y-7777040D01*
X144907Y-7777040D01*
X163954Y-7786564D01*
X173478Y-7805612D01*
X173478Y-7910374D01*
X563954Y-7700850D02*
X392526Y-7957993D01*
X821097Y-7710374D02*
X840145Y-7710374D01*
X859192Y-7719898D01*
X868716Y-7729421D01*
X878240Y-7748469D01*
X887764Y-7786564D01*
X887764Y-7834183D01*
X878240Y-7872278D01*
X868716Y-7891326D01*
X859192Y-7900850D01*
X840145Y-7910374D01*
X821097Y-7910374D01*
X802049Y-7900850D01*
X792526Y-7891326D01*
X783002Y-7872278D01*
X773478Y-7834183D01*
X773478Y-7786564D01*
X783002Y-7748469D01*
X792526Y-7729421D01*
X802049Y-7719898D01*
X821097Y-7710374D01*
X973478Y-7891326D02*
X983002Y-7900850D01*
X973478Y-7910374D01*
X963954Y-7900850D01*
X973478Y-7891326D01*
X973478Y-7910374D01*
X1106811Y-7710374D02*
X1125859Y-7710374D01*
X1144907Y-7719898D01*
X1154431Y-7729421D01*
X1163954Y-7748469D01*
X1173478Y-7786564D01*
X1173478Y-7834183D01*
X1163954Y-7872278D01*
X1154431Y-7891326D01*
X1144907Y-7900850D01*
X1125859Y-7910374D01*
X1106811Y-7910374D01*
X1087764Y-7900850D01*
X1078240Y-7891326D01*
X1068716Y-7872278D01*
X1059192Y-7834183D01*
X1059192Y-7786564D01*
X1068716Y-7748469D01*
X1078240Y-7729421D01*
X1087764Y-7719898D01*
X1106811Y-7710374D01*
X1344907Y-7710374D02*
X1306811Y-7710374D01*
X1287764Y-7719898D01*
X1278240Y-7729421D01*
X1259192Y-7757993D01*
X1249669Y-7796088D01*
X1249669Y-7872278D01*
X1259192Y-7891326D01*
X1268716Y-7900850D01*
X1287764Y-7910374D01*
X1325859Y-7910374D01*
X1344907Y-7900850D01*
X1354431Y-7891326D01*
X1363954Y-7872278D01*
X1363954Y-7824659D01*
X1354431Y-7805612D01*
X1344907Y-7796088D01*
X1325859Y-7786564D01*
X1287764Y-7786564D01*
X1268716Y-7796088D01*
X1259192Y-7805612D01*
X1249669Y-7824659D01*
X1430621Y-7710374D02*
X1563954Y-7710374D01*
X1478240Y-7910374D01*
X1678240Y-7710374D02*
X1697288Y-7710374D01*
X1716335Y-7719898D01*
X1725859Y-7729421D01*
X1735383Y-7748469D01*
X1744907Y-7786564D01*
X1744907Y-7834183D01*
X1735383Y-7872278D01*
X1725859Y-7891326D01*
X1716335Y-7900850D01*
X1697288Y-7910374D01*
X1678240Y-7910374D01*
X1659192Y-7900850D01*
X1649669Y-7891326D01*
X1640145Y-7872278D01*
X1630621Y-7834183D01*
X1630621Y-7786564D01*
X1640145Y-7748469D01*
X1649669Y-7729421D01*
X1659192Y-7719898D01*
X1678240Y-7710374D01*
X1821097Y-7710374D02*
X1821097Y-7748469D01*
X1897288Y-7710374D02*
X1897288Y-7748469D01*
X2192526Y-7986564D02*
X2183002Y-7977040D01*
X2163954Y-7948469D01*
X2154431Y-7929421D01*
X2144907Y-7900850D01*
X2135383Y-7853231D01*
X2135383Y-7815136D01*
X2144907Y-7767517D01*
X2154431Y-7738945D01*
X2163954Y-7719898D01*
X2183002Y-7691326D01*
X2192526Y-7681802D01*
X2363954Y-7710374D02*
X2268716Y-7710374D01*
X2259192Y-7805612D01*
X2268716Y-7796088D01*
X2287764Y-7786564D01*
X2335383Y-7786564D01*
X2354431Y-7796088D01*
X2363954Y-7805612D01*
X2373478Y-7824659D01*
X2373478Y-7872278D01*
X2363954Y-7891326D01*
X2354431Y-7900850D01*
X2335383Y-7910374D01*
X2287764Y-7910374D01*
X2268716Y-7900850D01*
X2259192Y-7891326D01*
X2487764Y-7796088D02*
X2468716Y-7786564D01*
X2459192Y-7777040D01*
X2449669Y-7757993D01*
X2449669Y-7748469D01*
X2459192Y-7729421D01*
X2468716Y-7719898D01*
X2487764Y-7710374D01*
X2525859Y-7710374D01*
X2544907Y-7719898D01*
X2554431Y-7729421D01*
X2563954Y-7748469D01*
X2563954Y-7757993D01*
X2554431Y-7777040D01*
X2544907Y-7786564D01*
X2525859Y-7796088D01*
X2487764Y-7796088D01*
X2468716Y-7805612D01*
X2459192Y-7815136D01*
X2449669Y-7834183D01*
X2449669Y-7872278D01*
X2459192Y-7891326D01*
X2468716Y-7900850D01*
X2487764Y-7910374D01*
X2525859Y-7910374D01*
X2544907Y-7900850D01*
X2554431Y-7891326D01*
X2563954Y-7872278D01*
X2563954Y-7834183D01*
X2554431Y-7815136D01*
X2544907Y-7805612D01*
X2525859Y-7796088D01*
X2802049Y-7910374D02*
X2802049Y-7710374D01*
X2887764Y-7910374D02*
X2887764Y-7805612D01*
X2878240Y-7786564D01*
X2859192Y-7777040D01*
X2830621Y-7777040D01*
X2811573Y-7786564D01*
X2802049Y-7796088D01*
X3011573Y-7910374D02*
X2992526Y-7900850D01*
X2983002Y-7891326D01*
X2973478Y-7872278D01*
X2973478Y-7815136D01*
X2983002Y-7796088D01*
X2992526Y-7786564D01*
X3011573Y-7777040D01*
X3040145Y-7777040D01*
X3059192Y-7786564D01*
X3068716Y-7796088D01*
X3078240Y-7815136D01*
X3078240Y-7872278D01*
X3068716Y-7891326D01*
X3059192Y-7900850D01*
X3040145Y-7910374D01*
X3011573Y-7910374D01*
X3192526Y-7910374D02*
X3173478Y-7900850D01*
X3163954Y-7881802D01*
X3163954Y-7710374D01*
X3344907Y-7900850D02*
X3325859Y-7910374D01*
X3287764Y-7910374D01*
X3268716Y-7900850D01*
X3259192Y-7881802D01*
X3259192Y-7805612D01*
X3268716Y-7786564D01*
X3287764Y-7777040D01*
X3325859Y-7777040D01*
X3344907Y-7786564D01*
X3354430Y-7805612D01*
X3354430Y-7824659D01*
X3259192Y-7843707D01*
X3430621Y-7900850D02*
X3449669Y-7910374D01*
X3487764Y-7910374D01*
X3506811Y-7900850D01*
X3516335Y-7881802D01*
X3516335Y-7872278D01*
X3506811Y-7853231D01*
X3487764Y-7843707D01*
X3459192Y-7843707D01*
X3440145Y-7834183D01*
X3430621Y-7815136D01*
X3430621Y-7805612D01*
X3440145Y-7786564D01*
X3459192Y-7777040D01*
X3487764Y-7777040D01*
X3506811Y-7786564D01*
X3583002Y-7986564D02*
X3592526Y-7977040D01*
X3611573Y-7948469D01*
X3621097Y-7929421D01*
X3630621Y-7900850D01*
X3640145Y-7853231D01*
X3640145Y-7815136D01*
X3630621Y-7767517D01*
X3621097Y-7738945D01*
X3611573Y-7719898D01*
X3592526Y-7691326D01*
X3583002Y-7681802D01*
X3944907Y-7986564D02*
X3935383Y-7977040D01*
X3916335Y-7948469D01*
X3906811Y-7929421D01*
X3897288Y-7900850D01*
X3887764Y-7853231D01*
X3887764Y-7815136D01*
X3897288Y-7767517D01*
X3906811Y-7738945D01*
X3916335Y-7719898D01*
X3935383Y-7691326D01*
X3944907Y-7681802D01*
X4021097Y-7777040D02*
X4021097Y-7910374D01*
X4021097Y-7796088D02*
X4030621Y-7786564D01*
X4049669Y-7777040D01*
X4078240Y-7777040D01*
X4097288Y-7786564D01*
X4106811Y-7805612D01*
X4106811Y-7910374D01*
X4230621Y-7910374D02*
X4211573Y-7900850D01*
X4202050Y-7891326D01*
X4192526Y-7872278D01*
X4192526Y-7815136D01*
X4202050Y-7796088D01*
X4211573Y-7786564D01*
X4230621Y-7777040D01*
X4259192Y-7777040D01*
X4278240Y-7786564D01*
X4287764Y-7796088D01*
X4297288Y-7815136D01*
X4297288Y-7872278D01*
X4287764Y-7891326D01*
X4278240Y-7900850D01*
X4259192Y-7910374D01*
X4230621Y-7910374D01*
X4354431Y-7777040D02*
X4430621Y-7777040D01*
X4383002Y-7710374D02*
X4383002Y-7881802D01*
X4392526Y-7900850D01*
X4411573Y-7910374D01*
X4430621Y-7910374D01*
X4649669Y-7777040D02*
X4649669Y-7977040D01*
X4649669Y-7786564D02*
X4668716Y-7777040D01*
X4706811Y-7777040D01*
X4725859Y-7786564D01*
X4735383Y-7796088D01*
X4744907Y-7815136D01*
X4744907Y-7872278D01*
X4735383Y-7891326D01*
X4725859Y-7900850D01*
X4706811Y-7910374D01*
X4668716Y-7910374D01*
X4649669Y-7900850D01*
X4859192Y-7910374D02*
X4840145Y-7900850D01*
X4830621Y-7881802D01*
X4830621Y-7710374D01*
X5021097Y-7910374D02*
X5021097Y-7805612D01*
X5011573Y-7786564D01*
X4992526Y-7777040D01*
X4954431Y-7777040D01*
X4935383Y-7786564D01*
X5021097Y-7900850D02*
X5002050Y-7910374D01*
X4954431Y-7910374D01*
X4935383Y-7900850D01*
X4925859Y-7881802D01*
X4925859Y-7862755D01*
X4935383Y-7843707D01*
X4954431Y-7834183D01*
X5002050Y-7834183D01*
X5021097Y-7824659D01*
X5087764Y-7777040D02*
X5163954Y-7777040D01*
X5116335Y-7710374D02*
X5116335Y-7881802D01*
X5125859Y-7900850D01*
X5144907Y-7910374D01*
X5163954Y-7910374D01*
X5306811Y-7900850D02*
X5287764Y-7910374D01*
X5249669Y-7910374D01*
X5230621Y-7900850D01*
X5221097Y-7881802D01*
X5221097Y-7805612D01*
X5230621Y-7786564D01*
X5249669Y-7777040D01*
X5287764Y-7777040D01*
X5306811Y-7786564D01*
X5316335Y-7805612D01*
X5316335Y-7824659D01*
X5221097Y-7843707D01*
X5487764Y-7910374D02*
X5487764Y-7710374D01*
X5487764Y-7900850D02*
X5468716Y-7910374D01*
X5430621Y-7910374D01*
X5411573Y-7900850D01*
X5402050Y-7891326D01*
X5392526Y-7872278D01*
X5392526Y-7815136D01*
X5402050Y-7796088D01*
X5411573Y-7786564D01*
X5430621Y-7777040D01*
X5468716Y-7777040D01*
X5487764Y-7786564D01*
X5563954Y-7986564D02*
X5573478Y-7977040D01*
X5592526Y-7948469D01*
X5602049Y-7929421D01*
X5611573Y-7900850D01*
X5621097Y-7853231D01*
X5621097Y-7815136D01*
X5611573Y-7767517D01*
X5602049Y-7738945D01*
X5592526Y-7719898D01*
X5573478Y-7691326D01*
X5563954Y-7681802D01*
X-1479379Y-8010078D02*
X-1479379Y-8210078D01*
X-1579379Y-8110078D02*
X-1379379Y-8110078D01*
X-1140808Y-8000554D02*
X-1016998Y-8000554D01*
X-1083665Y-8076744D01*
X-1055093Y-8076744D01*
X-1036046Y-8086268D01*
X-1026522Y-8095792D01*
X-1016998Y-8114839D01*
X-1016998Y-8162458D01*
X-1026522Y-8181506D01*
X-1036046Y-8191030D01*
X-1055093Y-8200554D01*
X-1112236Y-8200554D01*
X-1131284Y-8191030D01*
X-1140808Y-8181506D01*
X-931284Y-8181506D02*
X-921760Y-8191030D01*
X-931284Y-8200554D01*
X-940807Y-8191030D01*
X-931284Y-8181506D01*
X-931284Y-8200554D01*
X-797950Y-8000554D02*
X-778903Y-8000554D01*
X-759855Y-8010078D01*
X-750331Y-8019601D01*
X-740807Y-8038649D01*
X-731284Y-8076744D01*
X-731284Y-8124363D01*
X-740807Y-8162458D01*
X-750331Y-8181506D01*
X-759855Y-8191030D01*
X-778903Y-8200554D01*
X-797950Y-8200554D01*
X-816998Y-8191030D01*
X-826522Y-8181506D01*
X-836046Y-8162458D01*
X-845569Y-8124363D01*
X-845569Y-8076744D01*
X-836046Y-8038649D01*
X-826522Y-8019601D01*
X-816998Y-8010078D01*
X-797950Y-8000554D01*
X-607474Y-8000554D02*
X-588427Y-8000554D01*
X-569379Y-8010078D01*
X-559855Y-8019601D01*
X-550331Y-8038649D01*
X-540808Y-8076744D01*
X-540808Y-8124363D01*
X-550331Y-8162458D01*
X-559855Y-8181506D01*
X-569379Y-8191030D01*
X-588427Y-8200554D01*
X-607474Y-8200554D01*
X-626522Y-8191030D01*
X-636046Y-8181506D01*
X-645569Y-8162458D01*
X-655093Y-8124363D01*
X-655093Y-8076744D01*
X-645569Y-8038649D01*
X-636046Y-8019601D01*
X-626522Y-8010078D01*
X-607474Y-8000554D01*
X-416998Y-8000554D02*
X-397950Y-8000554D01*
X-378903Y-8010078D01*
X-369379Y-8019601D01*
X-359855Y-8038649D01*
X-350331Y-8076744D01*
X-350331Y-8124363D01*
X-359855Y-8162458D01*
X-369379Y-8181506D01*
X-378903Y-8191030D01*
X-397950Y-8200554D01*
X-416998Y-8200554D01*
X-436046Y-8191030D01*
X-445569Y-8181506D01*
X-455093Y-8162458D01*
X-464617Y-8124363D01*
X-464617Y-8076744D01*
X-455093Y-8038649D01*
X-445569Y-8019601D01*
X-436046Y-8010078D01*
X-416998Y-8000554D01*
X-264617Y-8200554D02*
X-264617Y-8067220D01*
X-264617Y-8086268D02*
X-255093Y-8076744D01*
X-236046Y-8067220D01*
X-207474Y-8067220D01*
X-188427Y-8076744D01*
X-178903Y-8095792D01*
X-178903Y-8200554D01*
X-178903Y-8095792D02*
X-169379Y-8076744D01*
X-150331Y-8067220D01*
X-121760Y-8067220D01*
X-102712Y-8076744D01*
X-93188Y-8095792D01*
X-93188Y-8200554D01*
X2050Y-8200554D02*
X2050Y-8067220D01*
X2050Y-8086268D02*
X11573Y-8076744D01*
X30621Y-8067220D01*
X59192Y-8067220D01*
X78240Y-8076744D01*
X87764Y-8095792D01*
X87764Y-8200554D01*
X87764Y-8095792D02*
X97288Y-8076744D01*
X116335Y-8067220D01*
X144907Y-8067220D01*
X163954Y-8076744D01*
X173478Y-8095792D01*
X173478Y-8200554D01*
X563954Y-7991030D02*
X392526Y-8248173D01*
X821097Y-8000554D02*
X840145Y-8000554D01*
X859192Y-8010078D01*
X868716Y-8019601D01*
X878240Y-8038649D01*
X887764Y-8076744D01*
X887764Y-8124363D01*
X878240Y-8162458D01*
X868716Y-8181506D01*
X859192Y-8191030D01*
X840145Y-8200554D01*
X821097Y-8200554D01*
X802049Y-8191030D01*
X792526Y-8181506D01*
X783002Y-8162458D01*
X773478Y-8124363D01*
X773478Y-8076744D01*
X783002Y-8038649D01*
X792526Y-8019601D01*
X802049Y-8010078D01*
X821097Y-8000554D01*
X973478Y-8181506D02*
X983002Y-8191030D01*
X973478Y-8200554D01*
X963954Y-8191030D01*
X973478Y-8181506D01*
X973478Y-8200554D01*
X1173478Y-8200554D02*
X1059192Y-8200554D01*
X1116335Y-8200554D02*
X1116335Y-8000554D01*
X1097288Y-8029125D01*
X1078240Y-8048173D01*
X1059192Y-8057697D01*
X1363954Y-8200554D02*
X1249669Y-8200554D01*
X1306811Y-8200554D02*
X1306811Y-8000554D01*
X1287764Y-8029125D01*
X1268716Y-8048173D01*
X1249669Y-8057697D01*
X1478240Y-8086268D02*
X1459192Y-8076744D01*
X1449669Y-8067220D01*
X1440145Y-8048173D01*
X1440145Y-8038649D01*
X1449669Y-8019601D01*
X1459192Y-8010078D01*
X1478240Y-8000554D01*
X1516335Y-8000554D01*
X1535383Y-8010078D01*
X1544907Y-8019601D01*
X1554430Y-8038649D01*
X1554430Y-8048173D01*
X1544907Y-8067220D01*
X1535383Y-8076744D01*
X1516335Y-8086268D01*
X1478240Y-8086268D01*
X1459192Y-8095792D01*
X1449669Y-8105316D01*
X1440145Y-8124363D01*
X1440145Y-8162458D01*
X1449669Y-8181506D01*
X1459192Y-8191030D01*
X1478240Y-8200554D01*
X1516335Y-8200554D01*
X1535383Y-8191030D01*
X1544907Y-8181506D01*
X1554430Y-8162458D01*
X1554430Y-8124363D01*
X1544907Y-8105316D01*
X1535383Y-8095792D01*
X1516335Y-8086268D01*
X1744907Y-8200554D02*
X1630621Y-8200554D01*
X1687764Y-8200554D02*
X1687764Y-8000554D01*
X1668716Y-8029125D01*
X1649669Y-8048173D01*
X1630621Y-8057697D01*
X1821097Y-8000554D02*
X1821097Y-8038649D01*
X1897288Y-8000554D02*
X1897288Y-8038649D01*
X2192526Y-8276744D02*
X2183002Y-8267220D01*
X2163954Y-8238649D01*
X2154431Y-8219601D01*
X2144907Y-8191030D01*
X2135383Y-8143411D01*
X2135383Y-8105316D01*
X2144907Y-8057697D01*
X2154431Y-8029125D01*
X2163954Y-8010078D01*
X2183002Y-7981506D01*
X2192526Y-7971982D01*
X2373478Y-8200554D02*
X2259192Y-8200554D01*
X2316335Y-8200554D02*
X2316335Y-8000554D01*
X2297288Y-8029125D01*
X2278240Y-8048173D01*
X2259192Y-8057697D01*
X2563954Y-8200554D02*
X2449669Y-8200554D01*
X2506811Y-8200554D02*
X2506811Y-8000554D01*
X2487764Y-8029125D01*
X2468716Y-8048173D01*
X2449669Y-8057697D01*
X2735383Y-8000554D02*
X2697288Y-8000554D01*
X2678240Y-8010078D01*
X2668716Y-8019601D01*
X2649669Y-8048173D01*
X2640145Y-8086268D01*
X2640145Y-8162458D01*
X2649669Y-8181506D01*
X2659192Y-8191030D01*
X2678240Y-8200554D01*
X2716335Y-8200554D01*
X2735383Y-8191030D01*
X2744907Y-8181506D01*
X2754431Y-8162458D01*
X2754431Y-8114839D01*
X2744907Y-8095792D01*
X2735383Y-8086268D01*
X2716335Y-8076744D01*
X2678240Y-8076744D01*
X2659192Y-8086268D01*
X2649669Y-8095792D01*
X2640145Y-8114839D01*
X2992526Y-8200554D02*
X2992526Y-8000554D01*
X3078240Y-8200554D02*
X3078240Y-8095792D01*
X3068716Y-8076744D01*
X3049669Y-8067220D01*
X3021097Y-8067220D01*
X3002049Y-8076744D01*
X2992526Y-8086268D01*
X3202049Y-8200554D02*
X3183002Y-8191030D01*
X3173478Y-8181506D01*
X3163954Y-8162458D01*
X3163954Y-8105316D01*
X3173478Y-8086268D01*
X3183002Y-8076744D01*
X3202049Y-8067220D01*
X3230621Y-8067220D01*
X3249669Y-8076744D01*
X3259192Y-8086268D01*
X3268716Y-8105316D01*
X3268716Y-8162458D01*
X3259192Y-8181506D01*
X3249669Y-8191030D01*
X3230621Y-8200554D01*
X3202049Y-8200554D01*
X3383002Y-8200554D02*
X3363954Y-8191030D01*
X3354430Y-8171982D01*
X3354430Y-8000554D01*
X3535383Y-8191030D02*
X3516335Y-8200554D01*
X3478240Y-8200554D01*
X3459192Y-8191030D01*
X3449669Y-8171982D01*
X3449669Y-8095792D01*
X3459192Y-8076744D01*
X3478240Y-8067220D01*
X3516335Y-8067220D01*
X3535383Y-8076744D01*
X3544907Y-8095792D01*
X3544907Y-8114839D01*
X3449669Y-8133887D01*
X3621097Y-8191030D02*
X3640145Y-8200554D01*
X3678240Y-8200554D01*
X3697288Y-8191030D01*
X3706811Y-8171982D01*
X3706811Y-8162458D01*
X3697288Y-8143411D01*
X3678240Y-8133887D01*
X3649669Y-8133887D01*
X3630621Y-8124363D01*
X3621097Y-8105316D01*
X3621097Y-8095792D01*
X3630621Y-8076744D01*
X3649669Y-8067220D01*
X3678240Y-8067220D01*
X3697288Y-8076744D01*
X3773478Y-8276744D02*
X3783002Y-8267220D01*
X3802049Y-8238649D01*
X3811573Y-8219601D01*
X3821097Y-8191030D01*
X3830621Y-8143411D01*
X3830621Y-8105316D01*
X3821097Y-8057697D01*
X3811573Y-8029125D01*
X3802049Y-8010078D01*
X3783002Y-7981506D01*
X3773478Y-7971982D01*
X4135383Y-8276744D02*
X4125859Y-8267220D01*
X4106811Y-8238649D01*
X4097288Y-8219601D01*
X4087764Y-8191030D01*
X4078240Y-8143411D01*
X4078240Y-8105316D01*
X4087764Y-8057697D01*
X4097288Y-8029125D01*
X4106811Y-8010078D01*
X4125859Y-7981506D01*
X4135383Y-7971982D01*
X4211573Y-8067220D02*
X4211573Y-8200554D01*
X4211573Y-8086268D02*
X4221097Y-8076744D01*
X4240145Y-8067220D01*
X4268716Y-8067220D01*
X4287764Y-8076744D01*
X4297288Y-8095792D01*
X4297288Y-8200554D01*
X4421097Y-8200554D02*
X4402050Y-8191030D01*
X4392526Y-8181506D01*
X4383002Y-8162458D01*
X4383002Y-8105316D01*
X4392526Y-8086268D01*
X4402050Y-8076744D01*
X4421097Y-8067220D01*
X4449669Y-8067220D01*
X4468716Y-8076744D01*
X4478240Y-8086268D01*
X4487764Y-8105316D01*
X4487764Y-8162458D01*
X4478240Y-8181506D01*
X4468716Y-8191030D01*
X4449669Y-8200554D01*
X4421097Y-8200554D01*
X4544907Y-8067220D02*
X4621097Y-8067220D01*
X4573478Y-8000554D02*
X4573478Y-8171982D01*
X4583002Y-8191030D01*
X4602050Y-8200554D01*
X4621097Y-8200554D01*
X4840145Y-8067220D02*
X4840145Y-8267220D01*
X4840145Y-8076744D02*
X4859192Y-8067220D01*
X4897288Y-8067220D01*
X4916335Y-8076744D01*
X4925859Y-8086268D01*
X4935383Y-8105316D01*
X4935383Y-8162458D01*
X4925859Y-8181506D01*
X4916335Y-8191030D01*
X4897288Y-8200554D01*
X4859192Y-8200554D01*
X4840145Y-8191030D01*
X5049669Y-8200554D02*
X5030621Y-8191030D01*
X5021097Y-8171982D01*
X5021097Y-8000554D01*
X5211573Y-8200554D02*
X5211573Y-8095792D01*
X5202050Y-8076744D01*
X5183002Y-8067220D01*
X5144907Y-8067220D01*
X5125859Y-8076744D01*
X5211573Y-8191030D02*
X5192526Y-8200554D01*
X5144907Y-8200554D01*
X5125859Y-8191030D01*
X5116335Y-8171982D01*
X5116335Y-8152935D01*
X5125859Y-8133887D01*
X5144907Y-8124363D01*
X5192526Y-8124363D01*
X5211573Y-8114839D01*
X5278240Y-8067220D02*
X5354431Y-8067220D01*
X5306811Y-8000554D02*
X5306811Y-8171982D01*
X5316335Y-8191030D01*
X5335383Y-8200554D01*
X5354431Y-8200554D01*
X5497288Y-8191030D02*
X5478240Y-8200554D01*
X5440145Y-8200554D01*
X5421097Y-8191030D01*
X5411573Y-8171982D01*
X5411573Y-8095792D01*
X5421097Y-8076744D01*
X5440145Y-8067220D01*
X5478240Y-8067220D01*
X5497288Y-8076744D01*
X5506811Y-8095792D01*
X5506811Y-8114839D01*
X5411573Y-8133887D01*
X5678240Y-8200554D02*
X5678240Y-8000554D01*
X5678240Y-8191030D02*
X5659192Y-8200554D01*
X5621097Y-8200554D01*
X5602049Y-8191030D01*
X5592526Y-8181506D01*
X5583002Y-8162458D01*
X5583002Y-8105316D01*
X5592526Y-8086268D01*
X5602049Y-8076744D01*
X5621097Y-8067220D01*
X5659192Y-8067220D01*
X5678240Y-8076744D01*
X5754430Y-8276744D02*
X5763954Y-8267220D01*
X5783002Y-8238649D01*
X5792526Y-8219601D01*
X5802049Y-8191030D01*
X5811573Y-8143411D01*
X5811573Y-8105316D01*
X5802049Y-8057697D01*
X5792526Y-8029125D01*
X5783002Y-8010078D01*
X5763954Y-7981506D01*
X5754430Y-7971982D01*
X-1408668Y-8500789D02*
X-1408668Y-8359366D01*
X-1550090Y-8359366D01*
X-1550090Y-8500789D01*
X-1408668Y-8500789D01*
X-1140808Y-8320554D02*
X-1016998Y-8320554D01*
X-1083665Y-8396744D01*
X-1055093Y-8396744D01*
X-1036046Y-8406268D01*
X-1026522Y-8415792D01*
X-1016998Y-8434840D01*
X-1016998Y-8482459D01*
X-1026522Y-8501506D01*
X-1036046Y-8511030D01*
X-1055093Y-8520554D01*
X-1112236Y-8520554D01*
X-1131284Y-8511030D01*
X-1140808Y-8501506D01*
X-931284Y-8501506D02*
X-921760Y-8511030D01*
X-931284Y-8520554D01*
X-940807Y-8511030D01*
X-931284Y-8501506D01*
X-931284Y-8520554D01*
X-750331Y-8387220D02*
X-750331Y-8520554D01*
X-797950Y-8311030D02*
X-845569Y-8453887D01*
X-721760Y-8453887D01*
X-655093Y-8339601D02*
X-645569Y-8330078D01*
X-626522Y-8320554D01*
X-578903Y-8320554D01*
X-559855Y-8330078D01*
X-550331Y-8339601D01*
X-540808Y-8358649D01*
X-540808Y-8377697D01*
X-550331Y-8406268D01*
X-664617Y-8520554D01*
X-540808Y-8520554D01*
X-445569Y-8520554D02*
X-407474Y-8520554D01*
X-388427Y-8511030D01*
X-378903Y-8501506D01*
X-359855Y-8472935D01*
X-350331Y-8434840D01*
X-350331Y-8358649D01*
X-359855Y-8339601D01*
X-369379Y-8330078D01*
X-388427Y-8320554D01*
X-426522Y-8320554D01*
X-445569Y-8330078D01*
X-455093Y-8339601D01*
X-464617Y-8358649D01*
X-464617Y-8406268D01*
X-455093Y-8425316D01*
X-445569Y-8434840D01*
X-426522Y-8444363D01*
X-388427Y-8444363D01*
X-369379Y-8434840D01*
X-359855Y-8425316D01*
X-350331Y-8406268D01*
X-264617Y-8520554D02*
X-264617Y-8387220D01*
X-264617Y-8406268D02*
X-255093Y-8396744D01*
X-236046Y-8387220D01*
X-207474Y-8387220D01*
X-188427Y-8396744D01*
X-178903Y-8415792D01*
X-178903Y-8520554D01*
X-178903Y-8415792D02*
X-169379Y-8396744D01*
X-150331Y-8387220D01*
X-121760Y-8387220D01*
X-102712Y-8396744D01*
X-93188Y-8415792D01*
X-93188Y-8520554D01*
X2050Y-8520554D02*
X2050Y-8387220D01*
X2050Y-8406268D02*
X11573Y-8396744D01*
X30621Y-8387220D01*
X59192Y-8387220D01*
X78240Y-8396744D01*
X87764Y-8415792D01*
X87764Y-8520554D01*
X87764Y-8415792D02*
X97288Y-8396744D01*
X116335Y-8387220D01*
X144907Y-8387220D01*
X163954Y-8396744D01*
X173478Y-8415792D01*
X173478Y-8520554D01*
X563954Y-8311030D02*
X392526Y-8568173D01*
X821097Y-8320554D02*
X840145Y-8320554D01*
X859192Y-8330078D01*
X868716Y-8339601D01*
X878240Y-8358649D01*
X887764Y-8396744D01*
X887764Y-8444363D01*
X878240Y-8482459D01*
X868716Y-8501506D01*
X859192Y-8511030D01*
X840145Y-8520554D01*
X821097Y-8520554D01*
X802049Y-8511030D01*
X792526Y-8501506D01*
X783002Y-8482459D01*
X773478Y-8444363D01*
X773478Y-8396744D01*
X783002Y-8358649D01*
X792526Y-8339601D01*
X802049Y-8330078D01*
X821097Y-8320554D01*
X973478Y-8501506D02*
X983002Y-8511030D01*
X973478Y-8520554D01*
X963954Y-8511030D01*
X973478Y-8501506D01*
X973478Y-8520554D01*
X1173478Y-8520554D02*
X1059192Y-8520554D01*
X1116335Y-8520554D02*
X1116335Y-8320554D01*
X1097288Y-8349125D01*
X1078240Y-8368173D01*
X1059192Y-8377697D01*
X1240145Y-8320554D02*
X1363954Y-8320554D01*
X1297288Y-8396744D01*
X1325859Y-8396744D01*
X1344907Y-8406268D01*
X1354431Y-8415792D01*
X1363954Y-8434840D01*
X1363954Y-8482459D01*
X1354431Y-8501506D01*
X1344907Y-8511030D01*
X1325859Y-8520554D01*
X1268716Y-8520554D01*
X1249669Y-8511030D01*
X1240145Y-8501506D01*
X1544907Y-8320554D02*
X1449669Y-8320554D01*
X1440145Y-8415792D01*
X1449669Y-8406268D01*
X1468716Y-8396744D01*
X1516335Y-8396744D01*
X1535383Y-8406268D01*
X1544907Y-8415792D01*
X1554430Y-8434840D01*
X1554430Y-8482459D01*
X1544907Y-8501506D01*
X1535383Y-8511030D01*
X1516335Y-8520554D01*
X1468716Y-8520554D01*
X1449669Y-8511030D01*
X1440145Y-8501506D01*
X1678240Y-8320554D02*
X1697288Y-8320554D01*
X1716335Y-8330078D01*
X1725859Y-8339601D01*
X1735383Y-8358649D01*
X1744907Y-8396744D01*
X1744907Y-8444363D01*
X1735383Y-8482459D01*
X1725859Y-8501506D01*
X1716335Y-8511030D01*
X1697288Y-8520554D01*
X1678240Y-8520554D01*
X1659192Y-8511030D01*
X1649669Y-8501506D01*
X1640145Y-8482459D01*
X1630621Y-8444363D01*
X1630621Y-8396744D01*
X1640145Y-8358649D01*
X1649669Y-8339601D01*
X1659192Y-8330078D01*
X1678240Y-8320554D01*
X1821097Y-8320554D02*
X1821097Y-8358649D01*
X1897288Y-8320554D02*
X1897288Y-8358649D01*
X2192526Y-8596744D02*
X2183002Y-8587220D01*
X2163954Y-8558649D01*
X2154431Y-8539601D01*
X2144907Y-8511030D01*
X2135383Y-8463411D01*
X2135383Y-8425316D01*
X2144907Y-8377697D01*
X2154431Y-8349125D01*
X2163954Y-8330078D01*
X2183002Y-8301506D01*
X2192526Y-8291982D01*
X2259192Y-8339601D02*
X2268716Y-8330078D01*
X2287764Y-8320554D01*
X2335383Y-8320554D01*
X2354431Y-8330078D01*
X2363954Y-8339601D01*
X2373478Y-8358649D01*
X2373478Y-8377697D01*
X2363954Y-8406268D01*
X2249669Y-8520554D01*
X2373478Y-8520554D01*
X2468716Y-8520554D02*
X2506811Y-8520554D01*
X2525859Y-8511030D01*
X2535383Y-8501506D01*
X2554431Y-8472935D01*
X2563954Y-8434840D01*
X2563954Y-8358649D01*
X2554431Y-8339601D01*
X2544907Y-8330078D01*
X2525859Y-8320554D01*
X2487764Y-8320554D01*
X2468716Y-8330078D01*
X2459192Y-8339601D01*
X2449669Y-8358649D01*
X2449669Y-8406268D01*
X2459192Y-8425316D01*
X2468716Y-8434840D01*
X2487764Y-8444363D01*
X2525859Y-8444363D01*
X2544907Y-8434840D01*
X2554431Y-8425316D01*
X2563954Y-8406268D01*
X2802049Y-8520554D02*
X2802049Y-8320554D01*
X2887764Y-8520554D02*
X2887764Y-8415792D01*
X2878240Y-8396744D01*
X2859192Y-8387220D01*
X2830621Y-8387220D01*
X2811573Y-8396744D01*
X2802049Y-8406268D01*
X3011573Y-8520554D02*
X2992526Y-8511030D01*
X2983002Y-8501506D01*
X2973478Y-8482459D01*
X2973478Y-8425316D01*
X2983002Y-8406268D01*
X2992526Y-8396744D01*
X3011573Y-8387220D01*
X3040145Y-8387220D01*
X3059192Y-8396744D01*
X3068716Y-8406268D01*
X3078240Y-8425316D01*
X3078240Y-8482459D01*
X3068716Y-8501506D01*
X3059192Y-8511030D01*
X3040145Y-8520554D01*
X3011573Y-8520554D01*
X3192526Y-8520554D02*
X3173478Y-8511030D01*
X3163954Y-8491982D01*
X3163954Y-8320554D01*
X3344907Y-8511030D02*
X3325859Y-8520554D01*
X3287764Y-8520554D01*
X3268716Y-8511030D01*
X3259192Y-8491982D01*
X3259192Y-8415792D01*
X3268716Y-8396744D01*
X3287764Y-8387220D01*
X3325859Y-8387220D01*
X3344907Y-8396744D01*
X3354430Y-8415792D01*
X3354430Y-8434840D01*
X3259192Y-8453887D01*
X3430621Y-8511030D02*
X3449669Y-8520554D01*
X3487764Y-8520554D01*
X3506811Y-8511030D01*
X3516335Y-8491982D01*
X3516335Y-8482459D01*
X3506811Y-8463411D01*
X3487764Y-8453887D01*
X3459192Y-8453887D01*
X3440145Y-8444363D01*
X3430621Y-8425316D01*
X3430621Y-8415792D01*
X3440145Y-8396744D01*
X3459192Y-8387220D01*
X3487764Y-8387220D01*
X3506811Y-8396744D01*
X3583002Y-8596744D02*
X3592526Y-8587220D01*
X3611573Y-8558649D01*
X3621097Y-8539601D01*
X3630621Y-8511030D01*
X3640145Y-8463411D01*
X3640145Y-8425316D01*
X3630621Y-8377697D01*
X3621097Y-8349125D01*
X3611573Y-8330078D01*
X3592526Y-8301506D01*
X3583002Y-8291982D01*
X3944907Y-8596744D02*
X3935383Y-8587220D01*
X3916335Y-8558649D01*
X3906811Y-8539601D01*
X3897288Y-8511030D01*
X3887764Y-8463411D01*
X3887764Y-8425316D01*
X3897288Y-8377697D01*
X3906811Y-8349125D01*
X3916335Y-8330078D01*
X3935383Y-8301506D01*
X3944907Y-8291982D01*
X4021097Y-8387220D02*
X4021097Y-8520554D01*
X4021097Y-8406268D02*
X4030621Y-8396744D01*
X4049669Y-8387220D01*
X4078240Y-8387220D01*
X4097288Y-8396744D01*
X4106811Y-8415792D01*
X4106811Y-8520554D01*
X4230621Y-8520554D02*
X4211573Y-8511030D01*
X4202050Y-8501506D01*
X4192526Y-8482459D01*
X4192526Y-8425316D01*
X4202050Y-8406268D01*
X4211573Y-8396744D01*
X4230621Y-8387220D01*
X4259192Y-8387220D01*
X4278240Y-8396744D01*
X4287764Y-8406268D01*
X4297288Y-8425316D01*
X4297288Y-8482459D01*
X4287764Y-8501506D01*
X4278240Y-8511030D01*
X4259192Y-8520554D01*
X4230621Y-8520554D01*
X4354431Y-8387220D02*
X4430621Y-8387220D01*
X4383002Y-8320554D02*
X4383002Y-8491982D01*
X4392526Y-8511030D01*
X4411573Y-8520554D01*
X4430621Y-8520554D01*
X4649669Y-8387220D02*
X4649669Y-8587220D01*
X4649669Y-8396744D02*
X4668716Y-8387220D01*
X4706811Y-8387220D01*
X4725859Y-8396744D01*
X4735383Y-8406268D01*
X4744907Y-8425316D01*
X4744907Y-8482459D01*
X4735383Y-8501506D01*
X4725859Y-8511030D01*
X4706811Y-8520554D01*
X4668716Y-8520554D01*
X4649669Y-8511030D01*
X4859192Y-8520554D02*
X4840145Y-8511030D01*
X4830621Y-8491982D01*
X4830621Y-8320554D01*
X5021097Y-8520554D02*
X5021097Y-8415792D01*
X5011573Y-8396744D01*
X4992526Y-8387220D01*
X4954431Y-8387220D01*
X4935383Y-8396744D01*
X5021097Y-8511030D02*
X5002050Y-8520554D01*
X4954431Y-8520554D01*
X4935383Y-8511030D01*
X4925859Y-8491982D01*
X4925859Y-8472935D01*
X4935383Y-8453887D01*
X4954431Y-8444363D01*
X5002050Y-8444363D01*
X5021097Y-8434840D01*
X5087764Y-8387220D02*
X5163954Y-8387220D01*
X5116335Y-8320554D02*
X5116335Y-8491982D01*
X5125859Y-8511030D01*
X5144907Y-8520554D01*
X5163954Y-8520554D01*
X5306811Y-8511030D02*
X5287764Y-8520554D01*
X5249669Y-8520554D01*
X5230621Y-8511030D01*
X5221097Y-8491982D01*
X5221097Y-8415792D01*
X5230621Y-8396744D01*
X5249669Y-8387220D01*
X5287764Y-8387220D01*
X5306811Y-8396744D01*
X5316335Y-8415792D01*
X5316335Y-8434840D01*
X5221097Y-8453887D01*
X5487764Y-8520554D02*
X5487764Y-8320554D01*
X5487764Y-8511030D02*
X5468716Y-8520554D01*
X5430621Y-8520554D01*
X5411573Y-8511030D01*
X5402050Y-8501506D01*
X5392526Y-8482459D01*
X5392526Y-8425316D01*
X5402050Y-8406268D01*
X5411573Y-8396744D01*
X5430621Y-8387220D01*
X5468716Y-8387220D01*
X5487764Y-8396744D01*
X5563954Y-8596744D02*
X5573478Y-8587220D01*
X5592526Y-8558649D01*
X5602049Y-8539601D01*
X5611573Y-8511030D01*
X5621097Y-8463411D01*
X5621097Y-8425316D01*
X5611573Y-8377697D01*
X5602049Y-8349125D01*
X5592526Y-8330078D01*
X5573478Y-8301506D01*
X5563954Y-8291982D01*
M02*
