%TF.GenerationSoftware,KiCad,Pcbnew,(6.0.9-0)*%
%TF.CreationDate,2023-01-27T10:49:12-06:00*%
%TF.ProjectId,boardv3,626f6172-6476-4332-9e6b-696361645f70,v1.0.0*%
%TF.SameCoordinates,Original*%
%TF.FileFunction,Legend,Top*%
%TF.FilePolarity,Positive*%
%FSLAX46Y46*%
G04 Gerber Fmt 4.6, Leading zero omitted, Abs format (unit mm)*
G04 Created by KiCad (PCBNEW (6.0.9-0)) date 2023-01-27 10:49:12*
%MOMM*%
%LPD*%
G01*
G04 APERTURE LIST*
%ADD10C,0.000000*%
%ADD11C,0.150000*%
%ADD12C,0.100000*%
G04 APERTURE END LIST*
D10*
G36*
X50629596Y-30471488D02*
G01*
X50626562Y-30471056D01*
X50626953Y-30468842D01*
X50629596Y-30471488D01*
G37*
G36*
X21872632Y-24046742D02*
G01*
X21880524Y-24047387D01*
X21888027Y-24048308D01*
X21895146Y-24049513D01*
X21901889Y-24051008D01*
X21908263Y-24052802D01*
X21914276Y-24054900D01*
X21919935Y-24057311D01*
X21925247Y-24060042D01*
X21930219Y-24063099D01*
X21934859Y-24066491D01*
X21939174Y-24070225D01*
X21943171Y-24074307D01*
X21946858Y-24078746D01*
X21950241Y-24083548D01*
X21953328Y-24088720D01*
X21956127Y-24094270D01*
X21958644Y-24100206D01*
X21960887Y-24106534D01*
X21962862Y-24113261D01*
X21964579Y-24120396D01*
X21966042Y-24127944D01*
X21967261Y-24135915D01*
X21968242Y-24144313D01*
X21969519Y-24162427D01*
X21969932Y-24182342D01*
X21967947Y-25563467D01*
X21969932Y-26944592D01*
X21969932Y-27140383D01*
X21998834Y-27125542D01*
X22026032Y-27112437D01*
X22075435Y-27089451D01*
X22097702Y-27078578D01*
X22108241Y-27073080D01*
X22118388Y-27067458D01*
X22128148Y-27061649D01*
X22137524Y-27055593D01*
X22146520Y-27049226D01*
X22155141Y-27042488D01*
X22215990Y-26992982D01*
X22275815Y-26942111D01*
X22394258Y-26838758D01*
X22453805Y-26787516D01*
X22514188Y-26737390D01*
X22544840Y-26712939D01*
X22575875Y-26689000D01*
X22607351Y-26665650D01*
X22639328Y-26642967D01*
X22728214Y-26585647D01*
X22818227Y-26534653D01*
X22909317Y-26489860D01*
X23001435Y-26451144D01*
X23094530Y-26418381D01*
X23188550Y-26391447D01*
X23283447Y-26370219D01*
X23379169Y-26354571D01*
X23475666Y-26344380D01*
X23572889Y-26339523D01*
X23670785Y-26339874D01*
X23769305Y-26345311D01*
X23868400Y-26355708D01*
X23968017Y-26370942D01*
X24068107Y-26390889D01*
X24168620Y-26415425D01*
X24208247Y-26426677D01*
X24246769Y-26439089D01*
X24284196Y-26452642D01*
X24320538Y-26467319D01*
X24355807Y-26483100D01*
X24390013Y-26499967D01*
X24423167Y-26517901D01*
X24455279Y-26536886D01*
X24486361Y-26556901D01*
X24516422Y-26577928D01*
X24545473Y-26599950D01*
X24573525Y-26622947D01*
X24600589Y-26646902D01*
X24626676Y-26671796D01*
X24675958Y-26724326D01*
X24721458Y-26780391D01*
X24763260Y-26839844D01*
X24801451Y-26902536D01*
X24836114Y-26968322D01*
X24867335Y-27037053D01*
X24895201Y-27108582D01*
X24919795Y-27182762D01*
X24941203Y-27259446D01*
X24942088Y-27263709D01*
X24942763Y-27268059D01*
X24943518Y-27277001D01*
X24943528Y-27286229D01*
X24942856Y-27295702D01*
X24941564Y-27305377D01*
X24939714Y-27315210D01*
X24937368Y-27325160D01*
X24934588Y-27335183D01*
X24931435Y-27345237D01*
X24927973Y-27355280D01*
X24920366Y-27375160D01*
X24912264Y-27394482D01*
X24904161Y-27412904D01*
X24833808Y-27580704D01*
X24773683Y-27747732D01*
X24723968Y-27913961D01*
X24684846Y-28079365D01*
X24656498Y-28243916D01*
X24639107Y-28407588D01*
X24632855Y-28570352D01*
X24637924Y-28732183D01*
X24654496Y-28893052D01*
X24682753Y-29052934D01*
X24722878Y-29211799D01*
X24775053Y-29369622D01*
X24839459Y-29526376D01*
X24916279Y-29682032D01*
X25005696Y-29836565D01*
X25107891Y-29989946D01*
X25131401Y-30021682D01*
X25156198Y-30052464D01*
X25182142Y-30082394D01*
X25209094Y-30111572D01*
X25236914Y-30140098D01*
X25265462Y-30168075D01*
X25324187Y-30222779D01*
X25444242Y-30330018D01*
X25503339Y-30384165D01*
X25532166Y-30411723D01*
X25560327Y-30439738D01*
X25568555Y-30448389D01*
X25576419Y-30457478D01*
X25583989Y-30467010D01*
X25591333Y-30476986D01*
X25598523Y-30487413D01*
X25605627Y-30498292D01*
X25619859Y-30521428D01*
X25650368Y-30573311D01*
X25667763Y-30602120D01*
X25677239Y-30617256D01*
X25687327Y-30632883D01*
X23181723Y-30632883D01*
X23173933Y-30604321D01*
X23167523Y-30579011D01*
X23162631Y-30556731D01*
X23159399Y-30537261D01*
X23158448Y-30528511D01*
X23157965Y-30520381D01*
X23157966Y-30512842D01*
X23158469Y-30505868D01*
X23159491Y-30499431D01*
X23161050Y-30493502D01*
X23163163Y-30488056D01*
X23165848Y-30483063D01*
X23169122Y-30478497D01*
X23173003Y-30474329D01*
X23177507Y-30470533D01*
X23182653Y-30467080D01*
X23188458Y-30463942D01*
X23194939Y-30461094D01*
X23202114Y-30458505D01*
X23210001Y-30456150D01*
X23227976Y-30452028D01*
X23249006Y-30448507D01*
X23273229Y-30445366D01*
X23300786Y-30442383D01*
X23350212Y-30436173D01*
X23396310Y-30427428D01*
X23418116Y-30422088D01*
X23439097Y-30416094D01*
X23459256Y-30409440D01*
X23478594Y-30402117D01*
X23497115Y-30394120D01*
X23514820Y-30385443D01*
X23531712Y-30376077D01*
X23547794Y-30366016D01*
X23563068Y-30355254D01*
X23577536Y-30343784D01*
X23591201Y-30331598D01*
X23604065Y-30318691D01*
X23616130Y-30305055D01*
X23627400Y-30290684D01*
X23637876Y-30275570D01*
X23647561Y-30259707D01*
X23656457Y-30243089D01*
X23664567Y-30225708D01*
X23671893Y-30207558D01*
X23678437Y-30188632D01*
X23684203Y-30168923D01*
X23689192Y-30148424D01*
X23693407Y-30127128D01*
X23696850Y-30105030D01*
X23699523Y-30082121D01*
X23701430Y-30058396D01*
X23702953Y-30008467D01*
X23708575Y-28876050D01*
X23707045Y-28309594D01*
X23700307Y-27743634D01*
X23698250Y-27681877D01*
X23693904Y-27620784D01*
X23687022Y-27560581D01*
X23677362Y-27501499D01*
X23664679Y-27443765D01*
X23648728Y-27387609D01*
X23629266Y-27333259D01*
X23606049Y-27280944D01*
X23578831Y-27230892D01*
X23547370Y-27183332D01*
X23529972Y-27160558D01*
X23511421Y-27138493D01*
X23491687Y-27117165D01*
X23470739Y-27096604D01*
X23448547Y-27076836D01*
X23425081Y-27057892D01*
X23400310Y-27039800D01*
X23374202Y-27022587D01*
X23346729Y-27006284D01*
X23317859Y-26990918D01*
X23287562Y-26976518D01*
X23255807Y-26963113D01*
X23199848Y-26943493D01*
X23144113Y-26928195D01*
X23088643Y-26917075D01*
X23033474Y-26909990D01*
X22978647Y-26906796D01*
X22924199Y-26907349D01*
X22870170Y-26911507D01*
X22816598Y-26919126D01*
X22763523Y-26930063D01*
X22710982Y-26944174D01*
X22659015Y-26961316D01*
X22607660Y-26981345D01*
X22556957Y-27004118D01*
X22506943Y-27029492D01*
X22457658Y-27057323D01*
X22409140Y-27087467D01*
X22382127Y-27105810D01*
X22355634Y-27125067D01*
X22329621Y-27145161D01*
X22304051Y-27166015D01*
X22278883Y-27187552D01*
X22254080Y-27209692D01*
X22205411Y-27255478D01*
X22157734Y-27302751D01*
X22110739Y-27350893D01*
X22017556Y-27447301D01*
X22014634Y-27450361D01*
X22011819Y-27453585D01*
X22006508Y-27460494D01*
X22001615Y-27467968D01*
X21997134Y-27475950D01*
X21993055Y-27484382D01*
X21989372Y-27493205D01*
X21986076Y-27502361D01*
X21983160Y-27511793D01*
X21980617Y-27521441D01*
X21978437Y-27531249D01*
X21976614Y-27541157D01*
X21975140Y-27551108D01*
X21974007Y-27561044D01*
X21973208Y-27570905D01*
X21972734Y-27580635D01*
X21972577Y-27590176D01*
X21972577Y-29881467D01*
X21973843Y-29940285D01*
X21977745Y-29994829D01*
X21984437Y-30045288D01*
X21988878Y-30069045D01*
X21994075Y-30091852D01*
X22000047Y-30113732D01*
X22006813Y-30134710D01*
X22014393Y-30154809D01*
X22022807Y-30174053D01*
X22032073Y-30192466D01*
X22042211Y-30210071D01*
X22053241Y-30226893D01*
X22065182Y-30242954D01*
X22078052Y-30258278D01*
X22091872Y-30272891D01*
X22106662Y-30286814D01*
X22122439Y-30300072D01*
X22139224Y-30312688D01*
X22157036Y-30324687D01*
X22175895Y-30336092D01*
X22195820Y-30346927D01*
X22216829Y-30357215D01*
X22238944Y-30366980D01*
X22286564Y-30385038D01*
X22338834Y-30401290D01*
X22395911Y-30415925D01*
X22419573Y-30422170D01*
X22440967Y-30429046D01*
X22450823Y-30432744D01*
X22460122Y-30436628D01*
X22468868Y-30440706D01*
X22477063Y-30444988D01*
X22484713Y-30449484D01*
X22491819Y-30454201D01*
X22498385Y-30459151D01*
X22504416Y-30464341D01*
X22509913Y-30469781D01*
X22514881Y-30475480D01*
X22519322Y-30481448D01*
X22523241Y-30487694D01*
X22526641Y-30494226D01*
X22529524Y-30501054D01*
X22531896Y-30508187D01*
X22533757Y-30515635D01*
X22535113Y-30523406D01*
X22535967Y-30531511D01*
X22536322Y-30539957D01*
X22536181Y-30548754D01*
X22535548Y-30557912D01*
X22534426Y-30567440D01*
X22532819Y-30577346D01*
X22530729Y-30587641D01*
X22528161Y-30598332D01*
X22525118Y-30609431D01*
X22517619Y-30632883D01*
X20027890Y-30632883D01*
X20022599Y-30638175D01*
X20020366Y-30616967D01*
X20019808Y-30606828D01*
X20019622Y-30596999D01*
X20019808Y-30587480D01*
X20020366Y-30578272D01*
X20021296Y-30569373D01*
X20022599Y-30560784D01*
X20024273Y-30552506D01*
X20026319Y-30544537D01*
X20028738Y-30536879D01*
X20031528Y-30529530D01*
X20034691Y-30522492D01*
X20038226Y-30515764D01*
X20042132Y-30509346D01*
X20046411Y-30503238D01*
X20051062Y-30497439D01*
X20056085Y-30491951D01*
X20061480Y-30486773D01*
X20067247Y-30481906D01*
X20073386Y-30477348D01*
X20079897Y-30473100D01*
X20086781Y-30469162D01*
X20094036Y-30465535D01*
X20101664Y-30462217D01*
X20109663Y-30459209D01*
X20118035Y-30456512D01*
X20126778Y-30454124D01*
X20135894Y-30452047D01*
X20145382Y-30450280D01*
X20165474Y-30447675D01*
X20228615Y-30439905D01*
X20287120Y-30429413D01*
X20341068Y-30416084D01*
X20366357Y-30408320D01*
X20390535Y-30399802D01*
X20413613Y-30390518D01*
X20435599Y-30380451D01*
X20456505Y-30369588D01*
X20476338Y-30357913D01*
X20495110Y-30345414D01*
X20512830Y-30332074D01*
X20529507Y-30317880D01*
X20545151Y-30302816D01*
X20559772Y-30286869D01*
X20573379Y-30270023D01*
X20585982Y-30252265D01*
X20597592Y-30233580D01*
X20608217Y-30213953D01*
X20617867Y-30193369D01*
X20626552Y-30171815D01*
X20634282Y-30149275D01*
X20641066Y-30125735D01*
X20646914Y-30101181D01*
X20651836Y-30075598D01*
X20655841Y-30048971D01*
X20661141Y-29992528D01*
X20662890Y-29931738D01*
X20660244Y-25073988D01*
X20657970Y-24995243D01*
X20651103Y-24921646D01*
X20645926Y-24886738D01*
X20639577Y-24853071D01*
X20632046Y-24820629D01*
X20623327Y-24789395D01*
X20613409Y-24759356D01*
X20602286Y-24730495D01*
X20589949Y-24702796D01*
X20576389Y-24676245D01*
X20561599Y-24650825D01*
X20545570Y-24626522D01*
X20528294Y-24603319D01*
X20509763Y-24581201D01*
X20489968Y-24560154D01*
X20468901Y-24540160D01*
X20446555Y-24521205D01*
X20422920Y-24503273D01*
X20397989Y-24486349D01*
X20371754Y-24470417D01*
X20344205Y-24455462D01*
X20315335Y-24441468D01*
X20285136Y-24428420D01*
X20253599Y-24416302D01*
X20186480Y-24394794D01*
X20113912Y-24376821D01*
X20035828Y-24362259D01*
X20016961Y-24359158D01*
X19998001Y-24355809D01*
X19959429Y-24348368D01*
X19919370Y-24339934D01*
X19877078Y-24330509D01*
X19877078Y-24153238D01*
X20596744Y-24110905D01*
X21211901Y-24081139D01*
X21519479Y-24065512D01*
X21827057Y-24047405D01*
X21846538Y-24046391D01*
X21864341Y-24046366D01*
X21872632Y-24046742D01*
G37*
G36*
X34241066Y-25537557D02*
G01*
X34240395Y-25511460D01*
X34239351Y-25485240D01*
X34237997Y-25458957D01*
X34234607Y-25406454D01*
X34230720Y-25354447D01*
X34227190Y-25319442D01*
X34221579Y-25285872D01*
X34213913Y-25253744D01*
X34204220Y-25223065D01*
X34192528Y-25193843D01*
X34178863Y-25166086D01*
X34163252Y-25139802D01*
X34145723Y-25114999D01*
X34126302Y-25091684D01*
X34105017Y-25069865D01*
X34081896Y-25049549D01*
X34056964Y-25030746D01*
X34030249Y-25013461D01*
X34001779Y-24997704D01*
X33971580Y-24983481D01*
X33939680Y-24970801D01*
X33866991Y-24945929D01*
X33793745Y-24922639D01*
X33719878Y-24900526D01*
X33645330Y-24879189D01*
X33339077Y-24793530D01*
X33339077Y-24603030D01*
X36823641Y-24603030D01*
X36984339Y-24605232D01*
X37144820Y-24612208D01*
X37304867Y-24624517D01*
X37464262Y-24642718D01*
X37622790Y-24667367D01*
X37701661Y-24682285D01*
X37780233Y-24699024D01*
X37858480Y-24717655D01*
X37936374Y-24738247D01*
X38013888Y-24760869D01*
X38090996Y-24785593D01*
X38151733Y-24807292D01*
X38210406Y-24830696D01*
X38266997Y-24855777D01*
X38321488Y-24882501D01*
X38373860Y-24910841D01*
X38424097Y-24940763D01*
X38472180Y-24972239D01*
X38518090Y-25005238D01*
X38561811Y-25039729D01*
X38603325Y-25075681D01*
X38642612Y-25113065D01*
X38679657Y-25151849D01*
X38714439Y-25192004D01*
X38746943Y-25233497D01*
X38777148Y-25276300D01*
X38805039Y-25320382D01*
X38830597Y-25365711D01*
X38853803Y-25412258D01*
X38874640Y-25459992D01*
X38893091Y-25508882D01*
X38909136Y-25558898D01*
X38922759Y-25610009D01*
X38933941Y-25662186D01*
X38942664Y-25715396D01*
X38948911Y-25769611D01*
X38952663Y-25824798D01*
X38953902Y-25880929D01*
X38952612Y-25937972D01*
X38948773Y-25995896D01*
X38942368Y-26054672D01*
X38933378Y-26114268D01*
X38921787Y-26174655D01*
X38906236Y-26238000D01*
X38887417Y-26299050D01*
X38865412Y-26357807D01*
X38840303Y-26414268D01*
X38812171Y-26468435D01*
X38781098Y-26520308D01*
X38747164Y-26569887D01*
X38710451Y-26617170D01*
X38671040Y-26662160D01*
X38629013Y-26704855D01*
X38584452Y-26745256D01*
X38537437Y-26783362D01*
X38488051Y-26819174D01*
X38436373Y-26852691D01*
X38382487Y-26883914D01*
X38326473Y-26912842D01*
X38217384Y-26963651D01*
X38106621Y-27011234D01*
X37994494Y-27056089D01*
X37881312Y-27098712D01*
X37767386Y-27139599D01*
X37653026Y-27179245D01*
X37424244Y-27256801D01*
X37408171Y-27262361D01*
X37393641Y-27268170D01*
X37386933Y-27271186D01*
X37380584Y-27274288D01*
X37374585Y-27277483D01*
X37368929Y-27280779D01*
X37363607Y-27284183D01*
X37358608Y-27287703D01*
X37353926Y-27291348D01*
X37349551Y-27295124D01*
X37345474Y-27299040D01*
X37341687Y-27303103D01*
X37338181Y-27307321D01*
X37334947Y-27311702D01*
X37331977Y-27316253D01*
X37329262Y-27320983D01*
X37326792Y-27325899D01*
X37324560Y-27331008D01*
X37322557Y-27336319D01*
X37320774Y-27341839D01*
X37319202Y-27347577D01*
X37317832Y-27353539D01*
X37316657Y-27359734D01*
X37315666Y-27366169D01*
X37314205Y-27379791D01*
X37313379Y-27394467D01*
X37313120Y-27410259D01*
X37313334Y-27419821D01*
X37313966Y-27428683D01*
X37315001Y-27436872D01*
X37316422Y-27444417D01*
X37318213Y-27451346D01*
X37320358Y-27457686D01*
X37322841Y-27463467D01*
X37325646Y-27468715D01*
X37328757Y-27473460D01*
X37332159Y-27477729D01*
X37335835Y-27481550D01*
X37339769Y-27484952D01*
X37343945Y-27487962D01*
X37348348Y-27490609D01*
X37352961Y-27492921D01*
X37357768Y-27494926D01*
X37362753Y-27496651D01*
X37367901Y-27498126D01*
X37373195Y-27499377D01*
X37378619Y-27500434D01*
X37389795Y-27502076D01*
X37401300Y-27503277D01*
X37424787Y-27505251D01*
X37436513Y-27506474D01*
X37448057Y-27508155D01*
X37636568Y-27539827D01*
X37729930Y-27558169D01*
X37822567Y-27578476D01*
X37914382Y-27600969D01*
X38005279Y-27625869D01*
X38095161Y-27653396D01*
X38183930Y-27683772D01*
X38271490Y-27717218D01*
X38357743Y-27753954D01*
X38442594Y-27794201D01*
X38525945Y-27838181D01*
X38607699Y-27886114D01*
X38687759Y-27938221D01*
X38766029Y-27994724D01*
X38842411Y-28055842D01*
X38854814Y-28066765D01*
X38866234Y-28077743D01*
X38876676Y-28088828D01*
X38886150Y-28100077D01*
X38894662Y-28111543D01*
X38898560Y-28117374D01*
X38902221Y-28123280D01*
X38905645Y-28129267D01*
X38908834Y-28135342D01*
X38911789Y-28141513D01*
X38914509Y-28147785D01*
X38916998Y-28154165D01*
X38919255Y-28160661D01*
X38921281Y-28167279D01*
X38923077Y-28174026D01*
X38924645Y-28180909D01*
X38925985Y-28187934D01*
X38927098Y-28195108D01*
X38927986Y-28202438D01*
X38928649Y-28209931D01*
X38929088Y-28217593D01*
X38929298Y-28233454D01*
X38928625Y-28250075D01*
X38927076Y-28267509D01*
X38920585Y-28353207D01*
X38916074Y-28438641D01*
X38913665Y-28523796D01*
X38913475Y-28608656D01*
X38915627Y-28693207D01*
X38920240Y-28777431D01*
X38927434Y-28861315D01*
X38937329Y-28944842D01*
X38950046Y-29027997D01*
X38965705Y-29110765D01*
X38984425Y-29193129D01*
X39006328Y-29275075D01*
X39031532Y-29356587D01*
X39060159Y-29437649D01*
X39092328Y-29518247D01*
X39128160Y-29598363D01*
X39131385Y-29606627D01*
X39134114Y-29615489D01*
X39136346Y-29624862D01*
X39138083Y-29634661D01*
X39139323Y-29644801D01*
X39140067Y-29655197D01*
X39140315Y-29665764D01*
X39140067Y-29676415D01*
X39139323Y-29687067D01*
X39138083Y-29697634D01*
X39136346Y-29708030D01*
X39134114Y-29718170D01*
X39131385Y-29727969D01*
X39128161Y-29737342D01*
X39124440Y-29746203D01*
X39120224Y-29754467D01*
X39097221Y-29795460D01*
X39072878Y-29835108D01*
X39047217Y-29873431D01*
X39020261Y-29910448D01*
X38992034Y-29946177D01*
X38962559Y-29980640D01*
X38931859Y-30013854D01*
X38899958Y-30045840D01*
X38866879Y-30076616D01*
X38832645Y-30106203D01*
X38797279Y-30134619D01*
X38760804Y-30161884D01*
X38723245Y-30188018D01*
X38684623Y-30213039D01*
X38644963Y-30236967D01*
X38604288Y-30259822D01*
X38530498Y-30298361D01*
X38455986Y-30334603D01*
X38380778Y-30368542D01*
X38304894Y-30400175D01*
X38228360Y-30429498D01*
X38151198Y-30456507D01*
X38073432Y-30481199D01*
X37995084Y-30503569D01*
X37916177Y-30523613D01*
X37836737Y-30541329D01*
X37756784Y-30556711D01*
X37676343Y-30569756D01*
X37595437Y-30580460D01*
X37514090Y-30588820D01*
X37432324Y-30594830D01*
X37350162Y-30598489D01*
X36530616Y-30616348D01*
X35711069Y-30628254D01*
X34071975Y-30646114D01*
X33545456Y-30646114D01*
X33545452Y-30648758D01*
X33545452Y-30426508D01*
X33591547Y-30418157D01*
X33638386Y-30409310D01*
X33685721Y-30400463D01*
X33733305Y-30392112D01*
X33796942Y-30379848D01*
X33855948Y-30364817D01*
X33883740Y-30356232D01*
X33910405Y-30346918D01*
X33935952Y-30336861D01*
X33960392Y-30326049D01*
X33983735Y-30314471D01*
X34005992Y-30302112D01*
X34027172Y-30288960D01*
X34047286Y-30275004D01*
X34066343Y-30260229D01*
X34084355Y-30244624D01*
X34101331Y-30228176D01*
X34117281Y-30210873D01*
X34132216Y-30192702D01*
X34146146Y-30173649D01*
X34159080Y-30153704D01*
X34171030Y-30132852D01*
X34182005Y-30111082D01*
X34192015Y-30088381D01*
X34201071Y-30064736D01*
X34209182Y-30040134D01*
X34216360Y-30014564D01*
X34222614Y-29988012D01*
X34227954Y-29960466D01*
X34232390Y-29931913D01*
X34238593Y-29871738D01*
X34241304Y-29807384D01*
X34241304Y-28807258D01*
X35635660Y-28807258D01*
X35640951Y-28804613D01*
X35644589Y-29302029D01*
X35644299Y-29550986D01*
X35642216Y-29675309D01*
X35638303Y-29799446D01*
X35638172Y-29842526D01*
X35640722Y-29883508D01*
X35645908Y-29922468D01*
X35653683Y-29959478D01*
X35664000Y-29994612D01*
X35676813Y-30027944D01*
X35692076Y-30059547D01*
X35709742Y-30089496D01*
X35729764Y-30117863D01*
X35752095Y-30144722D01*
X35776691Y-30170148D01*
X35803503Y-30194213D01*
X35832486Y-30216991D01*
X35863592Y-30238556D01*
X35896776Y-30258982D01*
X35931991Y-30278342D01*
X35978158Y-30300964D01*
X36025314Y-30321222D01*
X36073361Y-30339138D01*
X36122202Y-30354735D01*
X36171741Y-30368036D01*
X36221881Y-30379062D01*
X36323575Y-30394386D01*
X36426509Y-30400889D01*
X36529908Y-30398753D01*
X36632998Y-30388160D01*
X36735002Y-30369292D01*
X36835146Y-30342332D01*
X36932654Y-30307461D01*
X37026752Y-30264862D01*
X37116663Y-30214718D01*
X37201614Y-30157209D01*
X37241987Y-30125750D01*
X37280829Y-30092518D01*
X37318044Y-30057537D01*
X37353533Y-30020828D01*
X37387201Y-29982415D01*
X37418951Y-29942321D01*
X37459074Y-29886209D01*
X37495241Y-29829031D01*
X37527647Y-29770837D01*
X37556492Y-29711679D01*
X37581973Y-29651605D01*
X37604288Y-29590668D01*
X37623634Y-29528916D01*
X37640208Y-29466402D01*
X37654209Y-29403173D01*
X37665835Y-29339283D01*
X37675282Y-29274780D01*
X37682748Y-29209714D01*
X37688432Y-29144138D01*
X37692531Y-29078100D01*
X37696764Y-28944842D01*
X37694593Y-28832706D01*
X37684238Y-28723687D01*
X37665882Y-28618048D01*
X37639713Y-28516051D01*
X37605917Y-28417962D01*
X37564679Y-28324042D01*
X37516186Y-28234557D01*
X37460624Y-28149769D01*
X37398178Y-28069942D01*
X37329035Y-27995339D01*
X37253381Y-27926224D01*
X37171402Y-27862861D01*
X37083283Y-27805513D01*
X36989211Y-27754444D01*
X36889372Y-27709917D01*
X36783952Y-27672196D01*
X36721383Y-27654271D01*
X36658694Y-27639056D01*
X36595888Y-27626344D01*
X36532970Y-27615931D01*
X36469944Y-27607610D01*
X36406812Y-27601177D01*
X36343580Y-27596426D01*
X36280252Y-27593152D01*
X36153319Y-27590211D01*
X36026045Y-27590713D01*
X35770597Y-27595467D01*
X35752513Y-27595878D01*
X35735933Y-27597146D01*
X35728192Y-27598117D01*
X35720810Y-27599321D01*
X35713781Y-27600765D01*
X35707098Y-27602453D01*
X35700756Y-27604394D01*
X35694750Y-27606593D01*
X35689073Y-27609057D01*
X35683719Y-27611791D01*
X35678684Y-27614803D01*
X35673960Y-27618098D01*
X35669543Y-27621683D01*
X35665426Y-27625563D01*
X35661603Y-27629746D01*
X35658070Y-27634238D01*
X35654819Y-27639044D01*
X35651845Y-27644172D01*
X35649143Y-27649627D01*
X35646706Y-27655416D01*
X35644529Y-27661545D01*
X35642605Y-27668021D01*
X35640930Y-27674849D01*
X35639497Y-27682036D01*
X35638300Y-27689588D01*
X35637334Y-27697512D01*
X35636071Y-27714500D01*
X35635660Y-27733050D01*
X35637892Y-28000982D01*
X35637644Y-28269162D01*
X35635660Y-28807258D01*
X34241304Y-28807258D01*
X34241304Y-27304425D01*
X35640951Y-27304425D01*
X35640953Y-27309717D01*
X35640953Y-27304425D01*
X35764808Y-27305542D01*
X35883705Y-27307402D01*
X35941914Y-27307914D01*
X35999626Y-27307774D01*
X36057090Y-27306704D01*
X36114555Y-27304425D01*
X36168237Y-27300059D01*
X36222042Y-27294793D01*
X36275848Y-27288473D01*
X36329529Y-27280944D01*
X36382962Y-27272050D01*
X36436024Y-27261637D01*
X36488589Y-27249550D01*
X36540535Y-27235634D01*
X36596782Y-27218124D01*
X36651403Y-27198373D01*
X36704366Y-27176433D01*
X36755643Y-27152357D01*
X36805203Y-27126198D01*
X36853016Y-27098008D01*
X36899051Y-27067841D01*
X36943280Y-27035749D01*
X36985672Y-27001785D01*
X37026196Y-26966002D01*
X37064824Y-26928453D01*
X37101524Y-26889190D01*
X37136267Y-26848266D01*
X37169022Y-26805734D01*
X37199760Y-26761647D01*
X37228451Y-26716058D01*
X37255065Y-26669019D01*
X37279571Y-26620584D01*
X37301940Y-26570805D01*
X37322141Y-26519734D01*
X37340144Y-26467425D01*
X37355920Y-26413931D01*
X37369439Y-26359304D01*
X37380670Y-26303597D01*
X37389583Y-26246864D01*
X37396148Y-26189156D01*
X37400336Y-26130526D01*
X37402115Y-26071028D01*
X37401457Y-26010714D01*
X37398331Y-25949637D01*
X37392707Y-25887849D01*
X37384556Y-25825404D01*
X37366429Y-25725619D01*
X37343721Y-25631608D01*
X37316315Y-25543317D01*
X37284096Y-25460693D01*
X37266145Y-25421489D01*
X37246948Y-25383681D01*
X37226488Y-25347262D01*
X37204752Y-25312227D01*
X37181726Y-25278567D01*
X37157395Y-25246276D01*
X37131744Y-25215347D01*
X37104759Y-25185774D01*
X37076425Y-25157550D01*
X37046727Y-25130668D01*
X37015652Y-25105121D01*
X36983185Y-25080902D01*
X36949310Y-25058005D01*
X36914015Y-25036423D01*
X36877283Y-25016149D01*
X36839101Y-24997176D01*
X36799453Y-24979498D01*
X36758327Y-24963107D01*
X36671576Y-24934162D01*
X36578733Y-24910286D01*
X36479681Y-24891425D01*
X36436400Y-24885200D01*
X36392895Y-24880320D01*
X36349188Y-24876641D01*
X36305304Y-24874021D01*
X36217092Y-24871380D01*
X36128447Y-24871251D01*
X35950598Y-24873938D01*
X35861766Y-24874460D01*
X35773245Y-24872905D01*
X35763554Y-24872789D01*
X35754318Y-24872939D01*
X35745528Y-24873357D01*
X35737174Y-24874047D01*
X35729247Y-24875009D01*
X35721736Y-24876247D01*
X35714632Y-24877764D01*
X35707926Y-24879561D01*
X35701607Y-24881640D01*
X35695665Y-24884005D01*
X35690092Y-24886658D01*
X35684878Y-24889601D01*
X35680012Y-24892837D01*
X35675486Y-24896368D01*
X35671289Y-24900196D01*
X35667411Y-24904324D01*
X35663844Y-24908754D01*
X35660577Y-24913489D01*
X35657601Y-24918532D01*
X35654906Y-24923883D01*
X35652482Y-24929547D01*
X35650319Y-24935525D01*
X35648409Y-24941821D01*
X35646741Y-24948435D01*
X35645305Y-24955371D01*
X35644092Y-24962631D01*
X35642296Y-24978133D01*
X35641276Y-24994961D01*
X35640953Y-25013134D01*
X35643185Y-25392563D01*
X35642937Y-25772488D01*
X35640953Y-26531842D01*
X35640953Y-27304425D01*
X35640951Y-27304425D01*
X34241304Y-27304425D01*
X34241304Y-25563468D01*
X34241066Y-25537557D01*
G37*
G36*
X51276847Y-26365573D02*
G01*
X51335833Y-26370322D01*
X51395262Y-26378109D01*
X51455097Y-26388967D01*
X51507122Y-26401182D01*
X51557020Y-26415994D01*
X51604770Y-26433394D01*
X51650353Y-26453376D01*
X51693751Y-26475932D01*
X51734943Y-26501053D01*
X51773910Y-26528732D01*
X51810634Y-26558962D01*
X51845094Y-26591733D01*
X51877271Y-26627040D01*
X51907146Y-26664874D01*
X51934699Y-26705226D01*
X51959911Y-26748091D01*
X51982763Y-26793459D01*
X52003235Y-26841323D01*
X52021309Y-26891675D01*
X52023483Y-26899412D01*
X52025060Y-26907679D01*
X52026064Y-26916389D01*
X52026518Y-26925451D01*
X52026444Y-26934776D01*
X52025867Y-26944276D01*
X52024809Y-26953862D01*
X52023293Y-26963443D01*
X52021344Y-26972932D01*
X52018984Y-26982238D01*
X52016236Y-26991273D01*
X52013124Y-26999947D01*
X52009670Y-27008172D01*
X52005899Y-27015859D01*
X52001834Y-27022917D01*
X51997497Y-27029258D01*
X51960852Y-27076173D01*
X51925351Y-27123661D01*
X51891020Y-27171738D01*
X51857886Y-27220420D01*
X51825978Y-27269722D01*
X51795321Y-27319659D01*
X51765943Y-27370248D01*
X51737872Y-27421503D01*
X51711134Y-27473441D01*
X51685756Y-27526076D01*
X51661766Y-27579424D01*
X51639191Y-27633501D01*
X51618057Y-27688322D01*
X51598393Y-27743902D01*
X51580224Y-27800258D01*
X51563579Y-27857404D01*
X51559826Y-27870363D01*
X51555512Y-27882447D01*
X51553142Y-27888157D01*
X51550631Y-27893646D01*
X51547978Y-27898912D01*
X51545181Y-27903954D01*
X51542241Y-27908772D01*
X51539158Y-27913363D01*
X51535930Y-27917728D01*
X51532557Y-27921865D01*
X51529039Y-27925774D01*
X51525375Y-27929453D01*
X51521564Y-27932901D01*
X51517607Y-27936118D01*
X51513503Y-27939102D01*
X51509251Y-27941853D01*
X51504850Y-27944369D01*
X51500301Y-27946649D01*
X51495603Y-27948694D01*
X51490755Y-27950501D01*
X51485757Y-27952069D01*
X51480608Y-27953398D01*
X51475308Y-27954487D01*
X51469856Y-27955335D01*
X51464252Y-27955940D01*
X51458495Y-27956303D01*
X51452586Y-27956421D01*
X51446522Y-27956293D01*
X51440305Y-27955920D01*
X51433933Y-27955300D01*
X51245416Y-27933803D01*
X51198442Y-27926956D01*
X51151901Y-27918465D01*
X51128852Y-27913439D01*
X51105981Y-27907804D01*
X51083312Y-27901495D01*
X51060867Y-27894446D01*
X51035055Y-27884897D01*
X51010204Y-27874611D01*
X50986314Y-27863595D01*
X50963385Y-27851854D01*
X50941418Y-27839397D01*
X50920411Y-27826229D01*
X50900366Y-27812358D01*
X50881282Y-27797790D01*
X50863159Y-27782533D01*
X50845997Y-27766592D01*
X50829797Y-27749975D01*
X50814558Y-27732688D01*
X50800279Y-27714739D01*
X50786962Y-27696134D01*
X50774607Y-27676879D01*
X50763212Y-27656982D01*
X50752778Y-27636450D01*
X50743306Y-27615289D01*
X50734795Y-27593505D01*
X50727245Y-27571107D01*
X50720656Y-27548099D01*
X50715028Y-27524491D01*
X50710362Y-27500287D01*
X50706657Y-27475495D01*
X50703912Y-27450122D01*
X50702129Y-27424174D01*
X50701308Y-27397658D01*
X50701447Y-27370581D01*
X50702548Y-27342951D01*
X50704609Y-27314772D01*
X50707632Y-27286053D01*
X50711616Y-27256800D01*
X50718163Y-27217051D01*
X50725795Y-27176929D01*
X50734358Y-27136063D01*
X50743696Y-27094082D01*
X50764077Y-27005281D01*
X50785698Y-26907550D01*
X50736823Y-26916816D01*
X50689374Y-26925120D01*
X50598507Y-26940954D01*
X50554964Y-26949538D01*
X50512600Y-26959268D01*
X50491841Y-26964728D01*
X50471353Y-26970673D01*
X50451128Y-26977168D01*
X50431160Y-26984280D01*
X50409920Y-26992490D01*
X50388863Y-27001224D01*
X50367984Y-27010446D01*
X50347279Y-27020122D01*
X50306377Y-27040695D01*
X50266126Y-27062662D01*
X50226495Y-27085746D01*
X50187453Y-27109667D01*
X50148968Y-27134146D01*
X50111011Y-27158905D01*
X50072130Y-27185211D01*
X50035853Y-27212591D01*
X50018691Y-27226709D01*
X50002180Y-27241126D01*
X49986321Y-27255852D01*
X49971112Y-27270898D01*
X49956555Y-27286272D01*
X49942649Y-27301987D01*
X49929394Y-27318051D01*
X49916790Y-27334475D01*
X49904837Y-27351269D01*
X49893535Y-27368444D01*
X49882885Y-27386009D01*
X49872885Y-27403975D01*
X49863537Y-27422351D01*
X49854840Y-27441149D01*
X49846794Y-27460377D01*
X49839399Y-27480048D01*
X49832655Y-27500169D01*
X49826563Y-27520752D01*
X49821121Y-27541808D01*
X49816331Y-27563345D01*
X49812192Y-27585374D01*
X49808703Y-27607906D01*
X49805867Y-27630950D01*
X49803681Y-27654518D01*
X49802146Y-27678618D01*
X49801262Y-27703261D01*
X49801030Y-27728457D01*
X49801449Y-27754217D01*
X49808626Y-28016154D01*
X49812734Y-28278092D01*
X49814347Y-28801967D01*
X49809387Y-29849717D01*
X49810929Y-29913864D01*
X49815645Y-29973461D01*
X49823671Y-30028671D01*
X49828968Y-30054682D01*
X49835143Y-30079656D01*
X49842213Y-30103616D01*
X49850195Y-30126580D01*
X49859107Y-30148569D01*
X49868965Y-30169604D01*
X49879786Y-30189705D01*
X49891587Y-30208893D01*
X49904385Y-30227187D01*
X49918197Y-30244608D01*
X49933040Y-30261176D01*
X49948931Y-30276912D01*
X49965887Y-30291836D01*
X49983925Y-30305968D01*
X50003061Y-30319329D01*
X50023314Y-30331940D01*
X50044699Y-30343819D01*
X50067233Y-30354989D01*
X50090934Y-30365468D01*
X50115819Y-30375278D01*
X50169207Y-30392971D01*
X50227532Y-30408230D01*
X50290931Y-30421217D01*
X50330768Y-30427935D01*
X50371008Y-30434281D01*
X50453317Y-30446353D01*
X50626562Y-30471056D01*
X50605123Y-30592535D01*
X50595698Y-30648924D01*
X50587265Y-30704321D01*
X48171621Y-30704321D01*
X48171953Y-30677379D01*
X48173037Y-30651131D01*
X48175004Y-30625588D01*
X48177987Y-30600762D01*
X48182117Y-30576664D01*
X48187527Y-30553307D01*
X48194346Y-30530702D01*
X48202709Y-30508860D01*
X48212746Y-30487794D01*
X48224589Y-30467514D01*
X48231228Y-30457672D01*
X48238369Y-30448032D01*
X48246028Y-30438595D01*
X48254220Y-30429361D01*
X48262962Y-30420333D01*
X48272271Y-30411511D01*
X48282164Y-30402898D01*
X48292657Y-30394495D01*
X48303765Y-30386303D01*
X48315507Y-30378323D01*
X48327897Y-30370558D01*
X48340954Y-30363008D01*
X48353109Y-30356141D01*
X48364775Y-30348940D01*
X48375959Y-30341410D01*
X48386667Y-30333558D01*
X48396906Y-30325390D01*
X48406683Y-30316912D01*
X48416004Y-30308131D01*
X48424877Y-30299054D01*
X48433308Y-30289685D01*
X48441304Y-30280032D01*
X48448871Y-30270101D01*
X48456017Y-30259898D01*
X48462748Y-30249430D01*
X48469072Y-30238703D01*
X48474994Y-30227722D01*
X48480522Y-30216495D01*
X48485662Y-30205028D01*
X48490422Y-30193327D01*
X48494807Y-30181398D01*
X48498825Y-30169247D01*
X48505787Y-30144308D01*
X48511362Y-30118558D01*
X48515603Y-30092049D01*
X48518565Y-30064830D01*
X48520303Y-30036952D01*
X48520870Y-30008466D01*
X48520870Y-27402321D01*
X48520252Y-27370589D01*
X48518405Y-27339401D01*
X48515341Y-27308773D01*
X48511072Y-27278721D01*
X48505609Y-27249262D01*
X48498964Y-27220413D01*
X48491149Y-27192190D01*
X48482175Y-27164609D01*
X48472053Y-27137687D01*
X48460796Y-27111441D01*
X48448415Y-27085886D01*
X48434922Y-27061039D01*
X48420328Y-27036918D01*
X48404645Y-27013537D01*
X48387884Y-26990914D01*
X48370058Y-26969066D01*
X48351177Y-26948008D01*
X48331254Y-26927757D01*
X48310299Y-26908330D01*
X48288326Y-26889742D01*
X48265345Y-26872012D01*
X48241368Y-26855154D01*
X48216406Y-26839186D01*
X48190471Y-26824124D01*
X48163576Y-26809984D01*
X48135730Y-26796783D01*
X48106947Y-26784537D01*
X48077238Y-26773264D01*
X48046614Y-26762978D01*
X48015086Y-26753698D01*
X47982668Y-26745438D01*
X47949369Y-26738217D01*
X47925646Y-26732962D01*
X47904075Y-26727060D01*
X47894090Y-26723838D01*
X47884635Y-26720421D01*
X47875708Y-26716798D01*
X47867307Y-26712957D01*
X47859429Y-26708888D01*
X47852072Y-26704578D01*
X47845234Y-26700018D01*
X47838911Y-26695196D01*
X47833102Y-26690100D01*
X47827804Y-26684721D01*
X47823015Y-26679045D01*
X47818731Y-26673063D01*
X47814952Y-26666763D01*
X47811674Y-26660134D01*
X47808896Y-26653165D01*
X47806613Y-26645845D01*
X47804825Y-26638162D01*
X47803529Y-26630106D01*
X47802722Y-26621666D01*
X47802402Y-26612829D01*
X47802566Y-26603585D01*
X47803212Y-26593924D01*
X47804338Y-26583833D01*
X47805941Y-26573302D01*
X47808019Y-26562319D01*
X47810570Y-26550873D01*
X47817077Y-26526550D01*
X48038668Y-26509683D01*
X48151198Y-26501621D01*
X48264225Y-26494800D01*
X48977276Y-26456105D01*
X49690330Y-26415425D01*
X49706986Y-26414784D01*
X49722255Y-26414887D01*
X49736175Y-26415797D01*
X49742641Y-26416573D01*
X49748785Y-26417575D01*
X49754611Y-26418808D01*
X49760124Y-26420282D01*
X49765329Y-26422005D01*
X49770231Y-26423982D01*
X49774834Y-26426224D01*
X49779143Y-26428737D01*
X49783164Y-26431528D01*
X49786901Y-26434607D01*
X49790359Y-26437980D01*
X49793543Y-26441656D01*
X49796457Y-26445641D01*
X49799107Y-26449945D01*
X49801497Y-26454574D01*
X49803633Y-26459536D01*
X49805518Y-26464839D01*
X49807159Y-26470491D01*
X49808559Y-26476500D01*
X49809723Y-26482873D01*
X49810657Y-26489618D01*
X49811366Y-26496743D01*
X49812124Y-26512163D01*
X49812038Y-26529196D01*
X49810519Y-26600845D01*
X49809806Y-26673270D01*
X49810054Y-26822553D01*
X49812038Y-27153612D01*
X49843576Y-27133825D01*
X49872850Y-27115868D01*
X49925476Y-27083828D01*
X49949263Y-27068941D01*
X49971655Y-27054270D01*
X49992869Y-27039413D01*
X50013122Y-27023967D01*
X50081919Y-26966425D01*
X50149754Y-26907426D01*
X50284649Y-26788157D01*
X50352763Y-26729437D01*
X50422024Y-26672360D01*
X50457250Y-26644680D01*
X50492960Y-26617702D01*
X50529220Y-26591522D01*
X50566097Y-26566238D01*
X50616166Y-26534307D01*
X50667130Y-26505011D01*
X50718954Y-26478382D01*
X50771604Y-26454451D01*
X50825045Y-26433248D01*
X50879241Y-26414805D01*
X50934158Y-26399152D01*
X50989762Y-26386321D01*
X51046016Y-26376342D01*
X51102886Y-26369247D01*
X51160338Y-26365066D01*
X51218337Y-26363831D01*
X51276847Y-26365573D01*
G37*
G36*
X51627046Y-28250051D02*
G01*
X51642377Y-28145170D01*
X51662382Y-28040659D01*
X51687194Y-27936749D01*
X51716942Y-27833671D01*
X51751761Y-27731656D01*
X51791780Y-27630937D01*
X51837133Y-27531746D01*
X51887950Y-27434313D01*
X51944364Y-27338870D01*
X52006507Y-27245648D01*
X52074509Y-27154880D01*
X52148503Y-27066797D01*
X52228621Y-26981631D01*
X52314994Y-26899613D01*
X52435135Y-26798114D01*
X52557403Y-26707743D01*
X52681756Y-26628216D01*
X52808152Y-26559251D01*
X52936548Y-26500564D01*
X53066901Y-26451873D01*
X53199169Y-26412894D01*
X53333308Y-26383344D01*
X53469278Y-26362942D01*
X53607033Y-26351403D01*
X53746534Y-26348445D01*
X53887735Y-26353785D01*
X54030596Y-26367141D01*
X54175072Y-26388228D01*
X54321123Y-26416764D01*
X54468704Y-26452467D01*
X54499841Y-26461263D01*
X54530772Y-26470745D01*
X54592190Y-26491534D01*
X54653297Y-26514370D01*
X54714436Y-26538787D01*
X54838170Y-26590505D01*
X54901448Y-26616875D01*
X54966121Y-26642967D01*
X54974056Y-26521259D01*
X54974056Y-25171884D01*
X54971691Y-25091350D01*
X54964563Y-25015397D01*
X54959197Y-24979117D01*
X54952621Y-24943956D01*
X54944830Y-24909905D01*
X54935816Y-24876956D01*
X54925573Y-24845100D01*
X54914096Y-24814328D01*
X54901377Y-24784631D01*
X54887411Y-24756002D01*
X54872191Y-24728430D01*
X54855711Y-24701908D01*
X54837964Y-24676427D01*
X54818945Y-24651977D01*
X54798647Y-24628551D01*
X54777063Y-24606139D01*
X54754188Y-24584733D01*
X54730015Y-24564324D01*
X54704538Y-24544903D01*
X54677750Y-24526462D01*
X54649646Y-24508991D01*
X54620218Y-24492483D01*
X54589461Y-24476928D01*
X54557369Y-24462318D01*
X54489151Y-24435897D01*
X54415515Y-24413151D01*
X54336410Y-24394009D01*
X54252903Y-24377017D01*
X54168401Y-24361266D01*
X53992450Y-24330509D01*
X53992450Y-24150592D01*
X56265220Y-24042113D01*
X56265220Y-29635404D01*
X56265303Y-29684972D01*
X56265882Y-29734292D01*
X56266513Y-29758782D01*
X56267454Y-29783116D01*
X56268767Y-29807265D01*
X56270515Y-29831196D01*
X56277494Y-29885707D01*
X56287527Y-29937133D01*
X56293693Y-29961693D01*
X56300629Y-29985489D01*
X56308336Y-30008521D01*
X56316816Y-30030791D01*
X56326072Y-30052301D01*
X56336105Y-30073054D01*
X56346916Y-30093052D01*
X56358509Y-30112295D01*
X56370885Y-30130786D01*
X56384045Y-30148528D01*
X56397992Y-30165521D01*
X56412728Y-30181769D01*
X56428255Y-30197272D01*
X56444574Y-30212033D01*
X56461687Y-30226054D01*
X56479597Y-30239336D01*
X56498306Y-30251882D01*
X56517815Y-30263694D01*
X56538126Y-30274773D01*
X56559241Y-30285122D01*
X56581162Y-30294741D01*
X56603892Y-30303635D01*
X56627431Y-30311803D01*
X56651783Y-30319249D01*
X56702929Y-30331979D01*
X56757347Y-30341842D01*
X56825477Y-30351350D01*
X56895592Y-30360362D01*
X57045742Y-30378883D01*
X57040455Y-30378884D01*
X57040455Y-30558800D01*
X54974056Y-30680508D01*
X54974800Y-30602084D01*
X54976042Y-30525396D01*
X54976383Y-30487626D01*
X54976290Y-30450197D01*
X54975576Y-30413078D01*
X54974056Y-30376238D01*
X54972823Y-30366346D01*
X54971137Y-30356508D01*
X54969039Y-30346716D01*
X54966574Y-30336964D01*
X54963783Y-30327242D01*
X54960709Y-30317544D01*
X54953883Y-30298186D01*
X54946437Y-30278828D01*
X54938711Y-30259408D01*
X54931047Y-30239864D01*
X54923786Y-30220133D01*
X54914214Y-30223987D01*
X54904387Y-30227642D01*
X54884182Y-30234562D01*
X54843089Y-30248246D01*
X54832990Y-30251928D01*
X54823069Y-30255816D01*
X54813381Y-30259960D01*
X54803980Y-30264410D01*
X54794920Y-30269216D01*
X54786255Y-30274430D01*
X54778040Y-30280101D01*
X54770328Y-30286279D01*
X54718763Y-30331131D01*
X54666251Y-30374346D01*
X54612779Y-30415841D01*
X54558330Y-30455530D01*
X54502889Y-30493328D01*
X54446440Y-30529148D01*
X54388968Y-30562907D01*
X54330457Y-30594519D01*
X54270892Y-30623898D01*
X54210257Y-30650960D01*
X54148538Y-30675619D01*
X54085717Y-30697789D01*
X54021781Y-30717386D01*
X53956713Y-30734324D01*
X53890498Y-30748518D01*
X53823120Y-30759883D01*
X53679253Y-30776018D01*
X53539359Y-30782802D01*
X53403441Y-30780306D01*
X53271504Y-30768606D01*
X53143551Y-30747775D01*
X53019586Y-30717886D01*
X52899613Y-30679013D01*
X52783637Y-30631230D01*
X52671660Y-30574610D01*
X52563687Y-30509227D01*
X52459721Y-30435154D01*
X52359767Y-30352466D01*
X52263828Y-30261236D01*
X52171908Y-30161537D01*
X52084011Y-30053444D01*
X52000141Y-29937029D01*
X51909903Y-29789378D01*
X51829401Y-29627456D01*
X51759690Y-29453117D01*
X51701822Y-29268212D01*
X51656853Y-29074595D01*
X51625837Y-28874117D01*
X51609828Y-28668633D01*
X51609879Y-28459993D01*
X51610509Y-28449637D01*
X53026798Y-28449637D01*
X53027548Y-28548422D01*
X53030716Y-28647378D01*
X53036147Y-28746461D01*
X53053180Y-28944842D01*
X53064606Y-29039405D01*
X53079102Y-29134309D01*
X53096760Y-29229150D01*
X53117673Y-29323527D01*
X53141935Y-29417035D01*
X53169639Y-29509273D01*
X53200878Y-29599836D01*
X53217852Y-29644363D01*
X53235744Y-29688321D01*
X53266672Y-29755500D01*
X53300793Y-29818641D01*
X53337921Y-29877772D01*
X53377869Y-29932916D01*
X53420451Y-29984099D01*
X53465479Y-30031347D01*
X53512768Y-30074684D01*
X53562131Y-30114135D01*
X53613382Y-30149726D01*
X53666333Y-30181482D01*
X53720799Y-30209429D01*
X53776593Y-30233590D01*
X53833529Y-30253992D01*
X53891419Y-30270660D01*
X53950078Y-30283619D01*
X54009318Y-30292894D01*
X54068954Y-30298510D01*
X54128798Y-30300493D01*
X54188665Y-30298868D01*
X54248368Y-30293659D01*
X54307720Y-30284892D01*
X54366535Y-30272593D01*
X54424626Y-30256786D01*
X54481806Y-30237497D01*
X54537890Y-30214751D01*
X54592690Y-30188572D01*
X54646021Y-30158987D01*
X54697695Y-30126021D01*
X54747526Y-30089698D01*
X54795328Y-30050044D01*
X54840914Y-30007083D01*
X54884098Y-29960842D01*
X54892402Y-29950589D01*
X54900428Y-29939712D01*
X54908143Y-29928269D01*
X54915517Y-29916318D01*
X54922519Y-29903917D01*
X54929118Y-29891125D01*
X54935284Y-29878000D01*
X54940983Y-29864600D01*
X54946187Y-29850982D01*
X54950864Y-29837206D01*
X54954982Y-29823329D01*
X54958512Y-29809409D01*
X54961421Y-29795505D01*
X54963679Y-29781674D01*
X54965255Y-29767976D01*
X54966118Y-29754467D01*
X54969878Y-29470246D01*
X54970415Y-29185282D01*
X54968761Y-28614113D01*
X54968765Y-28616759D01*
X54966119Y-28092884D01*
X54966531Y-27830946D01*
X54968257Y-27699978D01*
X54971409Y-27569009D01*
X54971883Y-27526217D01*
X54970365Y-27484151D01*
X54966909Y-27442790D01*
X54961570Y-27402115D01*
X54954401Y-27362106D01*
X54945457Y-27322745D01*
X54934792Y-27284011D01*
X54922461Y-27245886D01*
X54908518Y-27208351D01*
X54893016Y-27171385D01*
X54876011Y-27134969D01*
X54857556Y-27099084D01*
X54837706Y-27063711D01*
X54816516Y-27028830D01*
X54794038Y-26994422D01*
X54770328Y-26960467D01*
X54743409Y-26924953D01*
X54714807Y-26891344D01*
X54684624Y-26859657D01*
X54652961Y-26829907D01*
X54619917Y-26802108D01*
X54585595Y-26776275D01*
X54550094Y-26752424D01*
X54513517Y-26730569D01*
X54475962Y-26710726D01*
X54437531Y-26692909D01*
X54398326Y-26677134D01*
X54358446Y-26663416D01*
X54317992Y-26651769D01*
X54277065Y-26642208D01*
X54235767Y-26634749D01*
X54194197Y-26629407D01*
X54152456Y-26626197D01*
X54110646Y-26625133D01*
X54068867Y-26626231D01*
X54027220Y-26629505D01*
X53985805Y-26634972D01*
X53944723Y-26642645D01*
X53904076Y-26652540D01*
X53863963Y-26664671D01*
X53824486Y-26679055D01*
X53785746Y-26695705D01*
X53747842Y-26714637D01*
X53710877Y-26735866D01*
X53674950Y-26759407D01*
X53640162Y-26785274D01*
X53606615Y-26813484D01*
X53574409Y-26844051D01*
X53546941Y-26872815D01*
X53520113Y-26902517D01*
X53493943Y-26933103D01*
X53468452Y-26964519D01*
X53443658Y-26996709D01*
X53419582Y-27029621D01*
X53396241Y-27063199D01*
X53373657Y-27097389D01*
X53351848Y-27132138D01*
X53330833Y-27167390D01*
X53310632Y-27203092D01*
X53291264Y-27239189D01*
X53272750Y-27275628D01*
X53255107Y-27312353D01*
X53238355Y-27349310D01*
X53222515Y-27386446D01*
X53186429Y-27480542D01*
X53154466Y-27575277D01*
X53126473Y-27670609D01*
X53102293Y-27766496D01*
X53081772Y-27862893D01*
X53064755Y-27959760D01*
X53051086Y-28057053D01*
X53040611Y-28154730D01*
X53033175Y-28252748D01*
X53028622Y-28351064D01*
X53026798Y-28449637D01*
X51610509Y-28449637D01*
X51616257Y-28355069D01*
X51627046Y-28250051D01*
G37*
G36*
X43769712Y-29330039D02*
G01*
X43801361Y-29250767D01*
X43839149Y-29175122D01*
X43883031Y-29103442D01*
X43932958Y-29036065D01*
X43988885Y-28973326D01*
X44050765Y-28915564D01*
X44083922Y-28888655D01*
X44118551Y-28863116D01*
X44154645Y-28838990D01*
X44192198Y-28816319D01*
X44231204Y-28795144D01*
X44271658Y-28775509D01*
X44423751Y-28708748D01*
X44578077Y-28646731D01*
X44734140Y-28588497D01*
X44891443Y-28533084D01*
X45523138Y-28320426D01*
X45724014Y-28251841D01*
X45925635Y-28184496D01*
X46330118Y-28050551D01*
X46345872Y-28044810D01*
X46353290Y-28041722D01*
X46360405Y-28038484D01*
X46367220Y-28035093D01*
X46373737Y-28031546D01*
X46379959Y-28027839D01*
X46385887Y-28023968D01*
X46391525Y-28019931D01*
X46396874Y-28015724D01*
X46401938Y-28011343D01*
X46406718Y-28006786D01*
X46411217Y-28002048D01*
X46415438Y-27997127D01*
X46419382Y-27992019D01*
X46423053Y-27986720D01*
X46426452Y-27981227D01*
X46429583Y-27975538D01*
X46432447Y-27969648D01*
X46435047Y-27963553D01*
X46437385Y-27957252D01*
X46439464Y-27950739D01*
X46441287Y-27944013D01*
X46442855Y-27937069D01*
X46444171Y-27929904D01*
X46445238Y-27922515D01*
X46446058Y-27914898D01*
X46446633Y-27907050D01*
X46446966Y-27898968D01*
X46447059Y-27890648D01*
X46446535Y-27873280D01*
X46422723Y-27246217D01*
X46418338Y-27194932D01*
X46411667Y-27145279D01*
X46402768Y-27097295D01*
X46391697Y-27051015D01*
X46378510Y-27006475D01*
X46363262Y-26963712D01*
X46346011Y-26922760D01*
X46326812Y-26883656D01*
X46305722Y-26846435D01*
X46282797Y-26811134D01*
X46258093Y-26777789D01*
X46231666Y-26746434D01*
X46203572Y-26717107D01*
X46173868Y-26689842D01*
X46142610Y-26664676D01*
X46109854Y-26641645D01*
X46075656Y-26620784D01*
X46040073Y-26602129D01*
X46003160Y-26585716D01*
X45964974Y-26571582D01*
X45925571Y-26559761D01*
X45885007Y-26550290D01*
X45843339Y-26543204D01*
X45800622Y-26538540D01*
X45756913Y-26536333D01*
X45712268Y-26536619D01*
X45666743Y-26539434D01*
X45620395Y-26544813D01*
X45573279Y-26552794D01*
X45525452Y-26563410D01*
X45476969Y-26576699D01*
X45427889Y-26592697D01*
X45373768Y-26612104D01*
X45326318Y-26630012D01*
X45285263Y-26646967D01*
X45250328Y-26663514D01*
X45235070Y-26671806D01*
X45221238Y-26680201D01*
X45208798Y-26688767D01*
X45197717Y-26697574D01*
X45187959Y-26706688D01*
X45179490Y-26716179D01*
X45172276Y-26726115D01*
X45166282Y-26736564D01*
X45161474Y-26747594D01*
X45157818Y-26759274D01*
X45155279Y-26771671D01*
X45153823Y-26784855D01*
X45153415Y-26798894D01*
X45154021Y-26813855D01*
X45155607Y-26829808D01*
X45158138Y-26846821D01*
X45165898Y-26884297D01*
X45177025Y-26926831D01*
X45191246Y-26974970D01*
X45208284Y-27029259D01*
X45227880Y-27095198D01*
X45237212Y-27128462D01*
X45245987Y-27161881D01*
X45254017Y-27195425D01*
X45261117Y-27229061D01*
X45267102Y-27262759D01*
X45271784Y-27296488D01*
X45275260Y-27350920D01*
X45274791Y-27403030D01*
X45273084Y-27428186D01*
X45270400Y-27452729D01*
X45266741Y-27476646D01*
X45262110Y-27499928D01*
X45256510Y-27522562D01*
X45249944Y-27544538D01*
X45242415Y-27565845D01*
X45233926Y-27586470D01*
X45224479Y-27606404D01*
X45214078Y-27625635D01*
X45202726Y-27644152D01*
X45190425Y-27661944D01*
X45177178Y-27678999D01*
X45162988Y-27695307D01*
X45147859Y-27710856D01*
X45131793Y-27725635D01*
X45114792Y-27739633D01*
X45096861Y-27752839D01*
X45078001Y-27765242D01*
X45058216Y-27776831D01*
X45037508Y-27787594D01*
X45015881Y-27797520D01*
X44993338Y-27806599D01*
X44969880Y-27814818D01*
X44945512Y-27822168D01*
X44920236Y-27828636D01*
X44894055Y-27834212D01*
X44866972Y-27838884D01*
X44800929Y-27847545D01*
X44734018Y-27853601D01*
X44666611Y-27856929D01*
X44632838Y-27857531D01*
X44599081Y-27857405D01*
X44565385Y-27856534D01*
X44531798Y-27854904D01*
X44498366Y-27852498D01*
X44465135Y-27849302D01*
X44432153Y-27845300D01*
X44399465Y-27840476D01*
X44367118Y-27834814D01*
X44335159Y-27828301D01*
X44296786Y-27818729D01*
X44260069Y-27806951D01*
X44225036Y-27793067D01*
X44191715Y-27777182D01*
X44160134Y-27759398D01*
X44130322Y-27739818D01*
X44102306Y-27718543D01*
X44076115Y-27695678D01*
X44051776Y-27671325D01*
X44029318Y-27645586D01*
X44008768Y-27618564D01*
X43990156Y-27590362D01*
X43973508Y-27561082D01*
X43958854Y-27530828D01*
X43946221Y-27499701D01*
X43935637Y-27467806D01*
X43927131Y-27435244D01*
X43920730Y-27402117D01*
X43916462Y-27368530D01*
X43914357Y-27334584D01*
X43914441Y-27300382D01*
X43916743Y-27266028D01*
X43921291Y-27231622D01*
X43928113Y-27197269D01*
X43937237Y-27163072D01*
X43948692Y-27129132D01*
X43962504Y-27095552D01*
X43978704Y-27062435D01*
X43997318Y-27029885D01*
X44018374Y-26998003D01*
X44041902Y-26966892D01*
X44067928Y-26936655D01*
X44104289Y-26898444D01*
X44141893Y-26862148D01*
X44180684Y-26827696D01*
X44220602Y-26795020D01*
X44261590Y-26764049D01*
X44303589Y-26734714D01*
X44346542Y-26706944D01*
X44390390Y-26680671D01*
X44435076Y-26655823D01*
X44480540Y-26632332D01*
X44526725Y-26610128D01*
X44573573Y-26589141D01*
X44621025Y-26569301D01*
X44669025Y-26550539D01*
X44717512Y-26532784D01*
X44766430Y-26515967D01*
X44892589Y-26475864D01*
X45019039Y-26440830D01*
X45145761Y-26410788D01*
X45272734Y-26385660D01*
X45399940Y-26365369D01*
X45527359Y-26349838D01*
X45654972Y-26338989D01*
X45782760Y-26332743D01*
X45910702Y-26331025D01*
X46038780Y-26333756D01*
X46166975Y-26340859D01*
X46295266Y-26352256D01*
X46423635Y-26367871D01*
X46552062Y-26387624D01*
X46680528Y-26411439D01*
X46809013Y-26439238D01*
X46864504Y-26453181D01*
X46918360Y-26468707D01*
X46970573Y-26485804D01*
X47021134Y-26504459D01*
X47070037Y-26524658D01*
X47117273Y-26546389D01*
X47162835Y-26569637D01*
X47206714Y-26594392D01*
X47248904Y-26620638D01*
X47289397Y-26648363D01*
X47328184Y-26677554D01*
X47365257Y-26708199D01*
X47400611Y-26740283D01*
X47434235Y-26773793D01*
X47466123Y-26808718D01*
X47496267Y-26845043D01*
X47524660Y-26882755D01*
X47551293Y-26921842D01*
X47576158Y-26962291D01*
X47599248Y-27004087D01*
X47620556Y-27047219D01*
X47640073Y-27091673D01*
X47657791Y-27137436D01*
X47673704Y-27184495D01*
X47687802Y-27232837D01*
X47700079Y-27282448D01*
X47710527Y-27333317D01*
X47719137Y-27385429D01*
X47725903Y-27438771D01*
X47730816Y-27493331D01*
X47733869Y-27549095D01*
X47735054Y-27606051D01*
X47732036Y-28120004D01*
X47724801Y-28633957D01*
X47708597Y-29661863D01*
X47706612Y-29806061D01*
X47707046Y-29842265D01*
X47708596Y-29878408D01*
X47709906Y-29896437D01*
X47711635Y-29914426D01*
X47713828Y-29932370D01*
X47716533Y-29950259D01*
X47723885Y-29987768D01*
X47733054Y-30023867D01*
X47744061Y-30058508D01*
X47756923Y-30091646D01*
X47771662Y-30123233D01*
X47788296Y-30153223D01*
X47806845Y-30181570D01*
X47827327Y-30208228D01*
X47849763Y-30233149D01*
X47874172Y-30256287D01*
X47900573Y-30277596D01*
X47928985Y-30297029D01*
X47959428Y-30314539D01*
X47991922Y-30330081D01*
X48026485Y-30343607D01*
X48063137Y-30355072D01*
X48060493Y-30355071D01*
X48065782Y-30376238D01*
X48053501Y-30447898D01*
X48044678Y-30509610D01*
X48032875Y-30606301D01*
X48027633Y-30642840D01*
X48021321Y-30672545D01*
X48017410Y-30685079D01*
X48012807Y-30696197D01*
X48007371Y-30705996D01*
X48000960Y-30714574D01*
X47993433Y-30722028D01*
X47984649Y-30728455D01*
X47974465Y-30733953D01*
X47962740Y-30738619D01*
X47949334Y-30742551D01*
X47934104Y-30745845D01*
X47897607Y-30750913D01*
X47852119Y-30754600D01*
X47796507Y-30757687D01*
X47650387Y-30765175D01*
X47607634Y-30767166D01*
X47564723Y-30768203D01*
X47478532Y-30767573D01*
X47392031Y-30763594D01*
X47305437Y-30756576D01*
X47218966Y-30746830D01*
X47132837Y-30734665D01*
X47047266Y-30720392D01*
X46962471Y-30704321D01*
X46919742Y-30694071D01*
X46878853Y-30681232D01*
X46839787Y-30665882D01*
X46802522Y-30648097D01*
X46767041Y-30627956D01*
X46733323Y-30605536D01*
X46701348Y-30580915D01*
X46671099Y-30554170D01*
X46642555Y-30525378D01*
X46615696Y-30494618D01*
X46590505Y-30461966D01*
X46566960Y-30427501D01*
X46545044Y-30391299D01*
X46524735Y-30353438D01*
X46506016Y-30313996D01*
X46488866Y-30273050D01*
X46477739Y-30245977D01*
X46467064Y-30222284D01*
X46461845Y-30211694D01*
X46456677Y-30201939D01*
X46451538Y-30193012D01*
X46446409Y-30184911D01*
X46441269Y-30177632D01*
X46436095Y-30171170D01*
X46430869Y-30165523D01*
X46425568Y-30160685D01*
X46420173Y-30156654D01*
X46414662Y-30153425D01*
X46409014Y-30150994D01*
X46403208Y-30149358D01*
X46397225Y-30148512D01*
X46391042Y-30148453D01*
X46384639Y-30149178D01*
X46377995Y-30150681D01*
X46371090Y-30152959D01*
X46363903Y-30156009D01*
X46356412Y-30159825D01*
X46348597Y-30164406D01*
X46340437Y-30169746D01*
X46331911Y-30175842D01*
X46322999Y-30182690D01*
X46313679Y-30190285D01*
X46293734Y-30207706D01*
X46271909Y-30228071D01*
X46184010Y-30310057D01*
X46093956Y-30385385D01*
X46001763Y-30454092D01*
X45907445Y-30516219D01*
X45811019Y-30571803D01*
X45712501Y-30620884D01*
X45611905Y-30663501D01*
X45509247Y-30699691D01*
X45404543Y-30729494D01*
X45297808Y-30752949D01*
X45189057Y-30770094D01*
X45078307Y-30780968D01*
X44965572Y-30785610D01*
X44850868Y-30784058D01*
X44734211Y-30776352D01*
X44615616Y-30762530D01*
X44530897Y-30747043D01*
X44448597Y-30725581D01*
X44369026Y-30698429D01*
X44292493Y-30665874D01*
X44219309Y-30628203D01*
X44149783Y-30585703D01*
X44084227Y-30538661D01*
X44022949Y-30487363D01*
X43966260Y-30432096D01*
X43914470Y-30373148D01*
X43867888Y-30310804D01*
X43826826Y-30245352D01*
X43791593Y-30177078D01*
X43776260Y-30141973D01*
X43762500Y-30106270D01*
X43750352Y-30070005D01*
X43739855Y-30033214D01*
X43731048Y-29995932D01*
X43723970Y-29958196D01*
X43711343Y-29862972D01*
X43705180Y-29769014D01*
X43705436Y-29676661D01*
X43712064Y-29586250D01*
X43725017Y-29498118D01*
X43727644Y-29486436D01*
X45065527Y-29486436D01*
X45065541Y-29529417D01*
X45067127Y-29572923D01*
X45070286Y-29616933D01*
X45075020Y-29661432D01*
X45081332Y-29706401D01*
X45089224Y-29751821D01*
X45099182Y-29796586D01*
X45111222Y-29839573D01*
X45125378Y-29880738D01*
X45141685Y-29920038D01*
X45160178Y-29957432D01*
X45180892Y-29992876D01*
X45203862Y-30026328D01*
X45229122Y-30057745D01*
X45256707Y-30087085D01*
X45286653Y-30114305D01*
X45318994Y-30139363D01*
X45353765Y-30162215D01*
X45391001Y-30182819D01*
X45430737Y-30201132D01*
X45473008Y-30217112D01*
X45517849Y-30230717D01*
X45546147Y-30237488D01*
X45574947Y-30242932D01*
X45633821Y-30249935D01*
X45694012Y-30251907D01*
X45755064Y-30249031D01*
X45816519Y-30241488D01*
X45877920Y-30229461D01*
X45938809Y-30213132D01*
X45998729Y-30192683D01*
X46057223Y-30168296D01*
X46113833Y-30140154D01*
X46168102Y-30108438D01*
X46219574Y-30073331D01*
X46267789Y-30035015D01*
X46312291Y-29993672D01*
X46352624Y-29949484D01*
X46388328Y-29902633D01*
X46392173Y-29897026D01*
X46395775Y-29891141D01*
X46399135Y-29885007D01*
X46402260Y-29878655D01*
X46405152Y-29872118D01*
X46407815Y-29865426D01*
X46410253Y-29858610D01*
X46412471Y-29851701D01*
X46414472Y-29844730D01*
X46416259Y-29837728D01*
X46417837Y-29830726D01*
X46419210Y-29823755D01*
X46420381Y-29816845D01*
X46421354Y-29810029D01*
X46422134Y-29803337D01*
X46422723Y-29796800D01*
X46434298Y-29082756D01*
X46443889Y-28370696D01*
X46443828Y-28365230D01*
X46443646Y-28359705D01*
X46442939Y-28348248D01*
X46441797Y-28335861D01*
X46440252Y-28322079D01*
X46436076Y-28288469D01*
X46430660Y-28243696D01*
X46430660Y-28238404D01*
X46009642Y-28418983D01*
X45907411Y-28464127D01*
X45806698Y-28510760D01*
X45707661Y-28559625D01*
X45610452Y-28611467D01*
X45570284Y-28634540D01*
X45531638Y-28658603D01*
X45494514Y-28683638D01*
X45458916Y-28709626D01*
X45424845Y-28736551D01*
X45392303Y-28764394D01*
X45361291Y-28793137D01*
X45331813Y-28822762D01*
X45303869Y-28853251D01*
X45277462Y-28884587D01*
X45252594Y-28916751D01*
X45229266Y-28949725D01*
X45207481Y-28983493D01*
X45187240Y-29018035D01*
X45168546Y-29053333D01*
X45151400Y-29089371D01*
X45135805Y-29126129D01*
X45121761Y-29163590D01*
X45109272Y-29201737D01*
X45098339Y-29240550D01*
X45088964Y-29280013D01*
X45081149Y-29320106D01*
X45074896Y-29360814D01*
X45070207Y-29402116D01*
X45067083Y-29443996D01*
X45065527Y-29486436D01*
X43727644Y-29486436D01*
X43744248Y-29412602D01*
X43769712Y-29330039D01*
G37*
G36*
X39062013Y-28357467D02*
G01*
X39070683Y-28253336D01*
X39083741Y-28151323D01*
X39101115Y-28051485D01*
X39122728Y-27953880D01*
X39148506Y-27858563D01*
X39178373Y-27765591D01*
X39212254Y-27675021D01*
X39250075Y-27586910D01*
X39291759Y-27501314D01*
X39337233Y-27418290D01*
X39386420Y-27337895D01*
X39439247Y-27260186D01*
X39495637Y-27185218D01*
X39555515Y-27113049D01*
X39618808Y-27043736D01*
X39685438Y-26977335D01*
X39755332Y-26913902D01*
X39828415Y-26853495D01*
X39904610Y-26796171D01*
X39983844Y-26741985D01*
X40066041Y-26690994D01*
X40151125Y-26643256D01*
X40239022Y-26598827D01*
X40329657Y-26557763D01*
X40422955Y-26520122D01*
X40518840Y-26485960D01*
X40617238Y-26455333D01*
X40718073Y-26428298D01*
X40821270Y-26404913D01*
X40926755Y-26385233D01*
X41034451Y-26369316D01*
X41144285Y-26357217D01*
X41254257Y-26348126D01*
X41363884Y-26341782D01*
X41473131Y-26338329D01*
X41581964Y-26337911D01*
X41690347Y-26340671D01*
X41798245Y-26346753D01*
X41905624Y-26356300D01*
X42012449Y-26369454D01*
X42118684Y-26386361D01*
X42224296Y-26407163D01*
X42329249Y-26432003D01*
X42433508Y-26461025D01*
X42537038Y-26494373D01*
X42639805Y-26532189D01*
X42741773Y-26574617D01*
X42842909Y-26621801D01*
X42924546Y-26664465D01*
X43002795Y-26709550D01*
X43077694Y-26756964D01*
X43149283Y-26806616D01*
X43217598Y-26858416D01*
X43282678Y-26912271D01*
X43344562Y-26968092D01*
X43403288Y-27025787D01*
X43458894Y-27085264D01*
X43511418Y-27146433D01*
X43560898Y-27209203D01*
X43607374Y-27273482D01*
X43650882Y-27339180D01*
X43691462Y-27406205D01*
X43729152Y-27474467D01*
X43763990Y-27543874D01*
X43796013Y-27614335D01*
X43825262Y-27685759D01*
X43851773Y-27758055D01*
X43875585Y-27831133D01*
X43896736Y-27904900D01*
X43915265Y-27979266D01*
X43944609Y-28129430D01*
X43963923Y-28280896D01*
X43973512Y-28432936D01*
X43973683Y-28584820D01*
X43964742Y-28735821D01*
X43964002Y-28743846D01*
X43962789Y-28752017D01*
X43961126Y-28760297D01*
X43959037Y-28768646D01*
X43956544Y-28777027D01*
X43953672Y-28785400D01*
X43950444Y-28793726D01*
X43946882Y-28801967D01*
X43943010Y-28810084D01*
X43938852Y-28818039D01*
X43934430Y-28825791D01*
X43929767Y-28833304D01*
X43924888Y-28840537D01*
X43919814Y-28847453D01*
X43914571Y-28854012D01*
X43909179Y-28860175D01*
X43865290Y-28907454D01*
X43824839Y-28956004D01*
X43787728Y-29005794D01*
X43753861Y-29056794D01*
X43723142Y-29108972D01*
X43695472Y-29162297D01*
X43670756Y-29216738D01*
X43648896Y-29272264D01*
X43629796Y-29328845D01*
X43613358Y-29386448D01*
X43599486Y-29445044D01*
X43588083Y-29504602D01*
X43579051Y-29565089D01*
X43572295Y-29626475D01*
X43567717Y-29688730D01*
X43565220Y-29751822D01*
X43564851Y-29765886D01*
X43563757Y-29780249D01*
X43561958Y-29794836D01*
X43559473Y-29809575D01*
X43556322Y-29824392D01*
X43552523Y-29839212D01*
X43548096Y-29853962D01*
X43543061Y-29868569D01*
X43537437Y-29882959D01*
X43531243Y-29897058D01*
X43524498Y-29910793D01*
X43517223Y-29924090D01*
X43509436Y-29936876D01*
X43501157Y-29949076D01*
X43492405Y-29960617D01*
X43483200Y-29971426D01*
X43404302Y-30059258D01*
X43322440Y-30141281D01*
X43237686Y-30217637D01*
X43150115Y-30288471D01*
X43059800Y-30353925D01*
X42966814Y-30414143D01*
X42871231Y-30469268D01*
X42773125Y-30519444D01*
X42672570Y-30564814D01*
X42569639Y-30605521D01*
X42464406Y-30641710D01*
X42356944Y-30673522D01*
X42247327Y-30701103D01*
X42135629Y-30724594D01*
X42021924Y-30744140D01*
X41906284Y-30759884D01*
X41854680Y-30765367D01*
X41803510Y-30770013D01*
X41705201Y-30777413D01*
X41616813Y-30783324D01*
X41543804Y-30788988D01*
X41541160Y-30788988D01*
X41425538Y-30786288D01*
X41311831Y-30781035D01*
X41200030Y-30773029D01*
X41090128Y-30762075D01*
X40982118Y-30747973D01*
X40875991Y-30730526D01*
X40771740Y-30709537D01*
X40669358Y-30684808D01*
X40568835Y-30656141D01*
X40470166Y-30623339D01*
X40373341Y-30586203D01*
X40278353Y-30544537D01*
X40185195Y-30498143D01*
X40093858Y-30446822D01*
X40004335Y-30390378D01*
X39916618Y-30328613D01*
X39855594Y-30282168D01*
X39797027Y-30234620D01*
X39740892Y-30185980D01*
X39687164Y-30136263D01*
X39635820Y-30085479D01*
X39586836Y-30033642D01*
X39540186Y-29980765D01*
X39495848Y-29926859D01*
X39453796Y-29871938D01*
X39414007Y-29816015D01*
X39376455Y-29759101D01*
X39341118Y-29701209D01*
X39307971Y-29642352D01*
X39276989Y-29582543D01*
X39221425Y-29460118D01*
X39174233Y-29334034D01*
X39135219Y-29204392D01*
X39104188Y-29071293D01*
X39080948Y-28934838D01*
X39065304Y-28795127D01*
X39057063Y-28652261D01*
X39056456Y-28566488D01*
X40466951Y-28566488D01*
X40473897Y-28566607D01*
X40480842Y-28566943D01*
X40487788Y-28567465D01*
X40494733Y-28568142D01*
X40501679Y-28568943D01*
X40508624Y-28569837D01*
X40522514Y-28571779D01*
X40521026Y-28722551D01*
X40518545Y-28873074D01*
X40517863Y-28948165D01*
X40518049Y-29023101D01*
X40519475Y-29097851D01*
X40522514Y-29172384D01*
X40531779Y-29295007D01*
X40538251Y-29355971D01*
X40546037Y-29416669D01*
X40555202Y-29477071D01*
X40565814Y-29537152D01*
X40577936Y-29596884D01*
X40591636Y-29656241D01*
X40606980Y-29715194D01*
X40624032Y-29773717D01*
X40642860Y-29831782D01*
X40663528Y-29889363D01*
X40686104Y-29946433D01*
X40710652Y-30002964D01*
X40737239Y-30058929D01*
X40765930Y-30114300D01*
X40795698Y-30166910D01*
X40827467Y-30216558D01*
X40861250Y-30263198D01*
X40897065Y-30306785D01*
X40915738Y-30327418D01*
X40934925Y-30347271D01*
X40954628Y-30366336D01*
X40974848Y-30384609D01*
X40995588Y-30402084D01*
X41016848Y-30418755D01*
X41038632Y-30434615D01*
X41060941Y-30449660D01*
X41083777Y-30463883D01*
X41107142Y-30477278D01*
X41131039Y-30489840D01*
X41155468Y-30501564D01*
X41180432Y-30512442D01*
X41205932Y-30522469D01*
X41231972Y-30531640D01*
X41258552Y-30539949D01*
X41285674Y-30547389D01*
X41313341Y-30553956D01*
X41341555Y-30559642D01*
X41370317Y-30564443D01*
X41399630Y-30568353D01*
X41429494Y-30571365D01*
X41459913Y-30573475D01*
X41490888Y-30574675D01*
X41553364Y-30574307D01*
X41613785Y-30570242D01*
X41672145Y-30562502D01*
X41728435Y-30551111D01*
X41782647Y-30536092D01*
X41834775Y-30517470D01*
X41884809Y-30495265D01*
X41932743Y-30469503D01*
X41978568Y-30440207D01*
X42022277Y-30407399D01*
X42063863Y-30371102D01*
X42103317Y-30331341D01*
X42140631Y-30288138D01*
X42175798Y-30241517D01*
X42208810Y-30191501D01*
X42239660Y-30138113D01*
X42265808Y-30087904D01*
X42290591Y-30036579D01*
X42313887Y-29984262D01*
X42335570Y-29931077D01*
X42355517Y-29877147D01*
X42373604Y-29822597D01*
X42389707Y-29767552D01*
X42403701Y-29712134D01*
X42432372Y-29578624D01*
X42456955Y-29444997D01*
X42477576Y-29311263D01*
X42494363Y-29177427D01*
X42507446Y-29043499D01*
X42516951Y-28909485D01*
X42523007Y-28775394D01*
X42525741Y-28641233D01*
X42525282Y-28507010D01*
X42521757Y-28372732D01*
X42506021Y-28104046D01*
X42479558Y-27835236D01*
X42443390Y-27566363D01*
X42426662Y-27468803D01*
X42416792Y-27420575D01*
X42405810Y-27372762D01*
X42393634Y-27325399D01*
X42380184Y-27278520D01*
X42365376Y-27232161D01*
X42349131Y-27186355D01*
X42331367Y-27141139D01*
X42312002Y-27096547D01*
X42290954Y-27052613D01*
X42268144Y-27009374D01*
X42243488Y-26966863D01*
X42216906Y-26925115D01*
X42188317Y-26884166D01*
X42157638Y-26844050D01*
X42130096Y-26811239D01*
X42101104Y-26780278D01*
X42070748Y-26751171D01*
X42039113Y-26723923D01*
X42006285Y-26698540D01*
X41972348Y-26675026D01*
X41937387Y-26653386D01*
X41901489Y-26633624D01*
X41864738Y-26615746D01*
X41827220Y-26599757D01*
X41789019Y-26585660D01*
X41750222Y-26573462D01*
X41710913Y-26563167D01*
X41671177Y-26554780D01*
X41631101Y-26548305D01*
X41590769Y-26543748D01*
X41550266Y-26541114D01*
X41509678Y-26540406D01*
X41469090Y-26541631D01*
X41428588Y-26544792D01*
X41388256Y-26549895D01*
X41348179Y-26556945D01*
X41308444Y-26565947D01*
X41269135Y-26576904D01*
X41230338Y-26589823D01*
X41192137Y-26604707D01*
X41154619Y-26621563D01*
X41117868Y-26640394D01*
X41081970Y-26661205D01*
X41047009Y-26684002D01*
X41013072Y-26708789D01*
X40980243Y-26735571D01*
X40945363Y-26767288D01*
X40912165Y-26799924D01*
X40880656Y-26833466D01*
X40850846Y-26867904D01*
X40822740Y-26903226D01*
X40796348Y-26939419D01*
X40771676Y-26976473D01*
X40748733Y-27014376D01*
X40727527Y-27053116D01*
X40708064Y-27092681D01*
X40690353Y-27133060D01*
X40674402Y-27174242D01*
X40660218Y-27216214D01*
X40647809Y-27258965D01*
X40637183Y-27302484D01*
X40628347Y-27346759D01*
X40603073Y-27497804D01*
X40580433Y-27649252D01*
X40540705Y-27952985D01*
X40466951Y-28561196D01*
X40466951Y-28566488D01*
X39056456Y-28566488D01*
X39056031Y-28506341D01*
X39062013Y-28357467D01*
G37*
G36*
X27435230Y-26341398D02*
G01*
X27546202Y-26348009D01*
X27656568Y-26358293D01*
X27766292Y-26372431D01*
X27875333Y-26390599D01*
X27983653Y-26412976D01*
X28091214Y-26439741D01*
X28197976Y-26471071D01*
X28303901Y-26507145D01*
X28408950Y-26548141D01*
X28513085Y-26594238D01*
X28616266Y-26645613D01*
X28698612Y-26691103D01*
X28777951Y-26739282D01*
X28854251Y-26790174D01*
X28927482Y-26843803D01*
X28997612Y-26900191D01*
X29064611Y-26959361D01*
X29128446Y-27021338D01*
X29189089Y-27086144D01*
X29246506Y-27153803D01*
X29300668Y-27224338D01*
X29351544Y-27297771D01*
X29399102Y-27374127D01*
X29443311Y-27453428D01*
X29484140Y-27535698D01*
X29521559Y-27620960D01*
X29555536Y-27709238D01*
X29559347Y-27720301D01*
X29562833Y-27731635D01*
X29565978Y-27743201D01*
X29568766Y-27754961D01*
X29571181Y-27766877D01*
X29573210Y-27778908D01*
X29574835Y-27791017D01*
X29576042Y-27803165D01*
X29576814Y-27815313D01*
X29577137Y-27827422D01*
X29576995Y-27839454D01*
X29576372Y-27851369D01*
X29575253Y-27863129D01*
X29573623Y-27874696D01*
X29571465Y-27886029D01*
X29568765Y-27897092D01*
X29546493Y-27977519D01*
X29527264Y-28058059D01*
X29511019Y-28138699D01*
X29497700Y-28219429D01*
X29487249Y-28300236D01*
X29479608Y-28381109D01*
X29474719Y-28462036D01*
X29472523Y-28543006D01*
X29472963Y-28624007D01*
X29475981Y-28705027D01*
X29481517Y-28786055D01*
X29489515Y-28867079D01*
X29499915Y-28948088D01*
X29512660Y-29029070D01*
X29527693Y-29110012D01*
X29544953Y-29190905D01*
X29549015Y-29211064D01*
X29552270Y-29230887D01*
X29554720Y-29250407D01*
X29556363Y-29269660D01*
X29557200Y-29288680D01*
X29557231Y-29307502D01*
X29556456Y-29326162D01*
X29554875Y-29344694D01*
X29552487Y-29363133D01*
X29549294Y-29381513D01*
X29545294Y-29399871D01*
X29540488Y-29418240D01*
X29534876Y-29436655D01*
X29528458Y-29455152D01*
X29521234Y-29473765D01*
X29513203Y-29492530D01*
X29452855Y-29615987D01*
X29386989Y-29732453D01*
X29315727Y-29842066D01*
X29239194Y-29944967D01*
X29157514Y-30041294D01*
X29070811Y-30131188D01*
X28979210Y-30214788D01*
X28882833Y-30292232D01*
X28781806Y-30363662D01*
X28676251Y-30429216D01*
X28566294Y-30489034D01*
X28452058Y-30543256D01*
X28333668Y-30592020D01*
X28211246Y-30635467D01*
X28084918Y-30673736D01*
X27954807Y-30706967D01*
X27864296Y-30725906D01*
X27774436Y-30741404D01*
X27686870Y-30753987D01*
X27603242Y-30764183D01*
X27340974Y-30791633D01*
X27338328Y-30791633D01*
X27216516Y-30789062D01*
X27098048Y-30784213D01*
X26982797Y-30776913D01*
X26870635Y-30766994D01*
X26761434Y-30754284D01*
X26655067Y-30738613D01*
X26551404Y-30719811D01*
X26450319Y-30697706D01*
X26351684Y-30672129D01*
X26255370Y-30642909D01*
X26161250Y-30609875D01*
X26069196Y-30572856D01*
X25979079Y-30531683D01*
X25890772Y-30486185D01*
X25804148Y-30436190D01*
X25719078Y-30381530D01*
X25654598Y-30336278D01*
X25592608Y-30289830D01*
X25533088Y-30242195D01*
X25476018Y-30193386D01*
X25421375Y-30143414D01*
X25369140Y-30092291D01*
X25319291Y-30040029D01*
X25271808Y-29986639D01*
X25226670Y-29932133D01*
X25183855Y-29876522D01*
X25143344Y-29819818D01*
X25105115Y-29762033D01*
X25069148Y-29703178D01*
X25035421Y-29643265D01*
X25003914Y-29582305D01*
X24974607Y-29520311D01*
X24947477Y-29457294D01*
X24922505Y-29393265D01*
X24899669Y-29328236D01*
X24878948Y-29262218D01*
X24843772Y-29127265D01*
X24816808Y-28988499D01*
X24797890Y-28846011D01*
X24786851Y-28699896D01*
X24784121Y-28577071D01*
X26195327Y-28577071D01*
X26197974Y-28579717D01*
X26198281Y-28577122D01*
X26202159Y-28577190D01*
X26208805Y-28577526D01*
X26215327Y-28578048D01*
X26221786Y-28578725D01*
X26228246Y-28579526D01*
X26234767Y-28580420D01*
X26248245Y-28582363D01*
X26246757Y-28723253D01*
X26244276Y-28864144D01*
X26243594Y-28934589D01*
X26243780Y-29005035D01*
X26245206Y-29075480D01*
X26248245Y-29145926D01*
X26260280Y-29292299D01*
X26277556Y-29437339D01*
X26288633Y-29509175D01*
X26301590Y-29580457D01*
X26316617Y-29651111D01*
X26333903Y-29721063D01*
X26353639Y-29790241D01*
X26376015Y-29858569D01*
X26401219Y-29925975D01*
X26429443Y-29992385D01*
X26460876Y-30057726D01*
X26495708Y-30121923D01*
X26534129Y-30184903D01*
X26576329Y-30246592D01*
X26608096Y-30287690D01*
X26641793Y-30326150D01*
X26677288Y-30361969D01*
X26714450Y-30395146D01*
X26753146Y-30425678D01*
X26793246Y-30453562D01*
X26834617Y-30478796D01*
X26877127Y-30501377D01*
X26920645Y-30521304D01*
X26965039Y-30538573D01*
X27010177Y-30553183D01*
X27055927Y-30565131D01*
X27102158Y-30574413D01*
X27148738Y-30581029D01*
X27195535Y-30584976D01*
X27242417Y-30586251D01*
X27289253Y-30584851D01*
X27335910Y-30580775D01*
X27382258Y-30574020D01*
X27428163Y-30564583D01*
X27473495Y-30552462D01*
X27518121Y-30537655D01*
X27561911Y-30520159D01*
X27604731Y-30499972D01*
X27646451Y-30477091D01*
X27686938Y-30451514D01*
X27726061Y-30423239D01*
X27763688Y-30392263D01*
X27799687Y-30358583D01*
X27833926Y-30322198D01*
X27866274Y-30283104D01*
X27896599Y-30241300D01*
X27919015Y-30206616D01*
X27940612Y-30171067D01*
X27961380Y-30134719D01*
X27981307Y-30097640D01*
X28000382Y-30059893D01*
X28018592Y-30021546D01*
X28035926Y-29982664D01*
X28052373Y-29943313D01*
X28067921Y-29903559D01*
X28082557Y-29863468D01*
X28096272Y-29823105D01*
X28109052Y-29782537D01*
X28120886Y-29741830D01*
X28131763Y-29701049D01*
X28141672Y-29660260D01*
X28150599Y-29619529D01*
X28175952Y-29493431D01*
X28197527Y-29367162D01*
X28215450Y-29240739D01*
X28229850Y-29114175D01*
X28240856Y-28987488D01*
X28248593Y-28860692D01*
X28253192Y-28733803D01*
X28254779Y-28606837D01*
X28253483Y-28479808D01*
X28249431Y-28352733D01*
X28233571Y-28098506D01*
X28208224Y-27844279D01*
X28174412Y-27590175D01*
X28157809Y-27493484D01*
X28148094Y-27445597D01*
X28137329Y-27398063D01*
X28125432Y-27350917D01*
X28112323Y-27304193D01*
X28097919Y-27257926D01*
X28082138Y-27212152D01*
X28064901Y-27166905D01*
X28046125Y-27122219D01*
X28025729Y-27078131D01*
X28003632Y-27034674D01*
X27979751Y-26991884D01*
X27954007Y-26949796D01*
X27926317Y-26908444D01*
X27896599Y-26867863D01*
X27868816Y-26833595D01*
X27839596Y-26801240D01*
X27809022Y-26770804D01*
X27777175Y-26742294D01*
X27744139Y-26715717D01*
X27709995Y-26691077D01*
X27674825Y-26668382D01*
X27638713Y-26647639D01*
X27601741Y-26628852D01*
X27563991Y-26612029D01*
X27525544Y-26597176D01*
X27486485Y-26584299D01*
X27446894Y-26573404D01*
X27406855Y-26564498D01*
X27366450Y-26557588D01*
X27325761Y-26552678D01*
X27284870Y-26549776D01*
X27243860Y-26548888D01*
X27202813Y-26550021D01*
X27161812Y-26553179D01*
X27120939Y-26558371D01*
X27080276Y-26565602D01*
X27039905Y-26574878D01*
X26999910Y-26586206D01*
X26960372Y-26599592D01*
X26921373Y-26615042D01*
X26882997Y-26632563D01*
X26845325Y-26652160D01*
X26808440Y-26673841D01*
X26772424Y-26697612D01*
X26737359Y-26723478D01*
X26703329Y-26751446D01*
X26668945Y-26782231D01*
X26636242Y-26814042D01*
X26605230Y-26846853D01*
X26575915Y-26880637D01*
X26548306Y-26915367D01*
X26522409Y-26951016D01*
X26498234Y-26987555D01*
X26475787Y-27024959D01*
X26455076Y-27063201D01*
X26436110Y-27102252D01*
X26418895Y-27142086D01*
X26403440Y-27182676D01*
X26389752Y-27223994D01*
X26377839Y-27266014D01*
X26367709Y-27308709D01*
X26359370Y-27352050D01*
X26333987Y-27504966D01*
X26311084Y-27658099D01*
X26270735Y-27964892D01*
X26198281Y-28577122D01*
X26195327Y-28577071D01*
X24784121Y-28577071D01*
X24783525Y-28550246D01*
X24787745Y-28397154D01*
X24795528Y-28288253D01*
X24807904Y-28181844D01*
X24824784Y-28077968D01*
X24846078Y-27976669D01*
X24871697Y-27877987D01*
X24901552Y-27781965D01*
X24935555Y-27688646D01*
X24973615Y-27598072D01*
X25015644Y-27510284D01*
X25061553Y-27425324D01*
X25111252Y-27343236D01*
X25164652Y-27264061D01*
X25221665Y-27187841D01*
X25282201Y-27114619D01*
X25346170Y-27044436D01*
X25413485Y-26977334D01*
X25484054Y-26913357D01*
X25557791Y-26852546D01*
X25634605Y-26794942D01*
X25714407Y-26740589D01*
X25797108Y-26689529D01*
X25882618Y-26641803D01*
X25970850Y-26597453D01*
X26061713Y-26556523D01*
X26155119Y-26519054D01*
X26250978Y-26485087D01*
X26349202Y-26454667D01*
X26449700Y-26427833D01*
X26552384Y-26404629D01*
X26657165Y-26385097D01*
X26763954Y-26369279D01*
X26872661Y-26357217D01*
X26986074Y-26348131D01*
X27099076Y-26341828D01*
X27211629Y-26338486D01*
X27323693Y-26338283D01*
X27435230Y-26341398D01*
G37*
G36*
X32152398Y-26345389D02*
G01*
X32288681Y-26354571D01*
X32388974Y-26364240D01*
X32489268Y-26377350D01*
X32589313Y-26393871D01*
X32688863Y-26413772D01*
X32787668Y-26437021D01*
X32885482Y-26463588D01*
X32982055Y-26493441D01*
X33077141Y-26526550D01*
X33117920Y-26542430D01*
X33157411Y-26559297D01*
X33195608Y-26577132D01*
X33232510Y-26595915D01*
X33268114Y-26615627D01*
X33302417Y-26636247D01*
X33335415Y-26657755D01*
X33367107Y-26680132D01*
X33397488Y-26703358D01*
X33426556Y-26727413D01*
X33454309Y-26752277D01*
X33480743Y-26777930D01*
X33505855Y-26804353D01*
X33529643Y-26831524D01*
X33552104Y-26859426D01*
X33573234Y-26888037D01*
X33593030Y-26917338D01*
X33611491Y-26947309D01*
X33628612Y-26977931D01*
X33644392Y-27009182D01*
X33658827Y-27041044D01*
X33671913Y-27073497D01*
X33683650Y-27106520D01*
X33694032Y-27140094D01*
X33703058Y-27174199D01*
X33710725Y-27208815D01*
X33717029Y-27243923D01*
X33721968Y-27279502D01*
X33725539Y-27315532D01*
X33727739Y-27351994D01*
X33728565Y-27388868D01*
X33728014Y-27426133D01*
X33726208Y-27461339D01*
X33723274Y-27495516D01*
X33719213Y-27528657D01*
X33714030Y-27560756D01*
X33707727Y-27591806D01*
X33700306Y-27621802D01*
X33691771Y-27650736D01*
X33682125Y-27678604D01*
X33671370Y-27705398D01*
X33659510Y-27731112D01*
X33646547Y-27755739D01*
X33632485Y-27779275D01*
X33617325Y-27801711D01*
X33601072Y-27823043D01*
X33583727Y-27843263D01*
X33565295Y-27862365D01*
X33545777Y-27880344D01*
X33525177Y-27897192D01*
X33503498Y-27912904D01*
X33480742Y-27927472D01*
X33456913Y-27940892D01*
X33432013Y-27953156D01*
X33406045Y-27964259D01*
X33379012Y-27974193D01*
X33350918Y-27982953D01*
X33321764Y-27990532D01*
X33291554Y-27996925D01*
X33260291Y-28002124D01*
X33227978Y-28006124D01*
X33194617Y-28008918D01*
X33160212Y-28010499D01*
X33124765Y-28010863D01*
X33075936Y-28010335D01*
X33026828Y-28008630D01*
X32977658Y-28005561D01*
X32928642Y-28000941D01*
X32879999Y-27994584D01*
X32831946Y-27986306D01*
X32808207Y-27981388D01*
X32784698Y-27975919D01*
X32761444Y-27969877D01*
X32738474Y-27963237D01*
X32710738Y-27954231D01*
X32684086Y-27944574D01*
X32658514Y-27934269D01*
X32634020Y-27923317D01*
X32610602Y-27911720D01*
X32588256Y-27899480D01*
X32566981Y-27886597D01*
X32546775Y-27873072D01*
X32527634Y-27858909D01*
X32509557Y-27844107D01*
X32492540Y-27828669D01*
X32476583Y-27812595D01*
X32461681Y-27795888D01*
X32447833Y-27778549D01*
X32435036Y-27760579D01*
X32423289Y-27741980D01*
X32412587Y-27722752D01*
X32402930Y-27702899D01*
X32394314Y-27682420D01*
X32386738Y-27661318D01*
X32380198Y-27639594D01*
X32374693Y-27617249D01*
X32370219Y-27594285D01*
X32366775Y-27570703D01*
X32364358Y-27546505D01*
X32362966Y-27521693D01*
X32362596Y-27496267D01*
X32363246Y-27470229D01*
X32364913Y-27443581D01*
X32367596Y-27416323D01*
X32371290Y-27388459D01*
X32375995Y-27359988D01*
X32387834Y-27304539D01*
X32401255Y-27249276D01*
X32415853Y-27194137D01*
X32431227Y-27139060D01*
X32462687Y-27028845D01*
X32477967Y-26973582D01*
X32492410Y-26918133D01*
X32499077Y-26886424D01*
X32503201Y-26855827D01*
X32504309Y-26840964D01*
X32504782Y-26826401D01*
X32504619Y-26812144D01*
X32503821Y-26798203D01*
X32502387Y-26784583D01*
X32500317Y-26771292D01*
X32497612Y-26758337D01*
X32494271Y-26745725D01*
X32490295Y-26733465D01*
X32485683Y-26721562D01*
X32480435Y-26710025D01*
X32474552Y-26698860D01*
X32468033Y-26688075D01*
X32460878Y-26677677D01*
X32453088Y-26667674D01*
X32444662Y-26658072D01*
X32435601Y-26648879D01*
X32425904Y-26640102D01*
X32415571Y-26631749D01*
X32404603Y-26623826D01*
X32392999Y-26616341D01*
X32380759Y-26609301D01*
X32367884Y-26602714D01*
X32354373Y-26596587D01*
X32340227Y-26590927D01*
X32325445Y-26585741D01*
X32310027Y-26581037D01*
X32293974Y-26576821D01*
X32236371Y-26564236D01*
X32179670Y-26555267D01*
X32123908Y-26549933D01*
X32069119Y-26548254D01*
X32015337Y-26550250D01*
X31962598Y-26555939D01*
X31910937Y-26565340D01*
X31860387Y-26578475D01*
X31810985Y-26595361D01*
X31762765Y-26616018D01*
X31715762Y-26640465D01*
X31670011Y-26668722D01*
X31625547Y-26700809D01*
X31582404Y-26736744D01*
X31540618Y-26776547D01*
X31500223Y-26820238D01*
X31459523Y-26869526D01*
X31421680Y-26920113D01*
X31386573Y-26971932D01*
X31354083Y-27024918D01*
X31324088Y-27079004D01*
X31296469Y-27134126D01*
X31271105Y-27190216D01*
X31247877Y-27247209D01*
X31226665Y-27305040D01*
X31207347Y-27363641D01*
X31189805Y-27422948D01*
X31173918Y-27482895D01*
X31159565Y-27543415D01*
X31146628Y-27604443D01*
X31134984Y-27665913D01*
X31124515Y-27727759D01*
X31098321Y-27914393D01*
X31078172Y-28101152D01*
X31070782Y-28194539D01*
X31065403Y-28287910D01*
X31062202Y-28381251D01*
X31061346Y-28474545D01*
X31063002Y-28567777D01*
X31067335Y-28660931D01*
X31074514Y-28753993D01*
X31084704Y-28846946D01*
X31098072Y-28939775D01*
X31114785Y-29032464D01*
X31135009Y-29124999D01*
X31158911Y-29217363D01*
X31172396Y-29262665D01*
X31187044Y-29307300D01*
X31202839Y-29351285D01*
X31219765Y-29394633D01*
X31237808Y-29437362D01*
X31256952Y-29479486D01*
X31277180Y-29521021D01*
X31298479Y-29561982D01*
X31320832Y-29602385D01*
X31344223Y-29642246D01*
X31368637Y-29681580D01*
X31394060Y-29720401D01*
X31420474Y-29758727D01*
X31447865Y-29796572D01*
X31476218Y-29833953D01*
X31505516Y-29870883D01*
X31554042Y-29927882D01*
X31604753Y-29980380D01*
X31657475Y-30028484D01*
X31712036Y-30072297D01*
X31768263Y-30111925D01*
X31825985Y-30147471D01*
X31885028Y-30179041D01*
X31945221Y-30206738D01*
X32006390Y-30230669D01*
X32068363Y-30250937D01*
X32130968Y-30267648D01*
X32194033Y-30280904D01*
X32257384Y-30290813D01*
X32320849Y-30297477D01*
X32384257Y-30301002D01*
X32447433Y-30301492D01*
X32510207Y-30299053D01*
X32572405Y-30293787D01*
X32694385Y-30275199D01*
X32811993Y-30246565D01*
X32923849Y-30208723D01*
X33028574Y-30162509D01*
X33124788Y-30108760D01*
X33211111Y-30048314D01*
X33250132Y-30015841D01*
X33286163Y-29982008D01*
X33338072Y-29928466D01*
X33388895Y-29873157D01*
X33439037Y-29816297D01*
X33488900Y-29758105D01*
X33589400Y-29638587D01*
X33640844Y-29577697D01*
X33693620Y-29516341D01*
X33688326Y-29511050D01*
X33774646Y-29571243D01*
X33878826Y-29643342D01*
X33856127Y-29685724D01*
X33832669Y-29727533D01*
X33808436Y-29768753D01*
X33783412Y-29809368D01*
X33757581Y-29849363D01*
X33730929Y-29888722D01*
X33703440Y-29927430D01*
X33675098Y-29965472D01*
X33645888Y-30002831D01*
X33615794Y-30039493D01*
X33584801Y-30075442D01*
X33552894Y-30110662D01*
X33520056Y-30145138D01*
X33486272Y-30178854D01*
X33451527Y-30211796D01*
X33415806Y-30243946D01*
X33335157Y-30310878D01*
X33252942Y-30373721D01*
X33169146Y-30432417D01*
X33083753Y-30486908D01*
X32996748Y-30537136D01*
X32908115Y-30583042D01*
X32817839Y-30624568D01*
X32725904Y-30661657D01*
X32632295Y-30694250D01*
X32536996Y-30722289D01*
X32439992Y-30745716D01*
X32341267Y-30764472D01*
X32240805Y-30778500D01*
X32138592Y-30787742D01*
X32034611Y-30792139D01*
X31928848Y-30791633D01*
X31772614Y-30784063D01*
X31617590Y-30770756D01*
X31540600Y-30761710D01*
X31463993Y-30750938D01*
X31387796Y-30738345D01*
X31312038Y-30723834D01*
X31236745Y-30707307D01*
X31161944Y-30688668D01*
X31087663Y-30667820D01*
X31013927Y-30644666D01*
X30940766Y-30619109D01*
X30868205Y-30591051D01*
X30796272Y-30560398D01*
X30724994Y-30527050D01*
X30616895Y-30470196D01*
X30514800Y-30408820D01*
X30418635Y-30342986D01*
X30328326Y-30272761D01*
X30243799Y-30198210D01*
X30164982Y-30119401D01*
X30091799Y-30036397D01*
X30024179Y-29949266D01*
X29962046Y-29858074D01*
X29905328Y-29762885D01*
X29853951Y-29663766D01*
X29807841Y-29560784D01*
X29766924Y-29454003D01*
X29731127Y-29343489D01*
X29700377Y-29229310D01*
X29674598Y-29111530D01*
X29648453Y-28956887D01*
X29630632Y-28804561D01*
X29621276Y-28654639D01*
X29620524Y-28507205D01*
X29628516Y-28362344D01*
X29645391Y-28220142D01*
X29671288Y-28080684D01*
X29706348Y-27944056D01*
X29750710Y-27810341D01*
X29804513Y-27679627D01*
X29867896Y-27551998D01*
X29941000Y-27427539D01*
X30023964Y-27306336D01*
X30116928Y-27188474D01*
X30220030Y-27074038D01*
X30333411Y-26963113D01*
X30437603Y-26872301D01*
X30544721Y-26789268D01*
X30654653Y-26713855D01*
X30767286Y-26645902D01*
X30882509Y-26585252D01*
X31000208Y-26531744D01*
X31120271Y-26485220D01*
X31242585Y-26445522D01*
X31367040Y-26412489D01*
X31493521Y-26385965D01*
X31621917Y-26365788D01*
X31752115Y-26351801D01*
X31884003Y-26343845D01*
X32017468Y-26341760D01*
X32152398Y-26345389D01*
G37*
G36*
X18738024Y-26343209D02*
G01*
X18874307Y-26351925D01*
X18974709Y-26361485D01*
X19075266Y-26374332D01*
X19175638Y-26390527D01*
X19275482Y-26410133D01*
X19374458Y-26433212D01*
X19472224Y-26459825D01*
X19568441Y-26490035D01*
X19662766Y-26523904D01*
X19734171Y-26552719D01*
X19802406Y-26584639D01*
X19867276Y-26619730D01*
X19928589Y-26658056D01*
X19986150Y-26699685D01*
X20039766Y-26744681D01*
X20065034Y-26768463D01*
X20089242Y-26793112D01*
X20112368Y-26818635D01*
X20134385Y-26845042D01*
X20155272Y-26872340D01*
X20175002Y-26900538D01*
X20193552Y-26929644D01*
X20210898Y-26959666D01*
X20227015Y-26990612D01*
X20241879Y-27022491D01*
X20255466Y-27055310D01*
X20267752Y-27089079D01*
X20278712Y-27123805D01*
X20288323Y-27159496D01*
X20296560Y-27196162D01*
X20303398Y-27233809D01*
X20308814Y-27272447D01*
X20312784Y-27312083D01*
X20315283Y-27352725D01*
X20316286Y-27394383D01*
X20315667Y-27431775D01*
X20313811Y-27468046D01*
X20310723Y-27503190D01*
X20306406Y-27537201D01*
X20300864Y-27570075D01*
X20294102Y-27601806D01*
X20286122Y-27632389D01*
X20276930Y-27661819D01*
X20266528Y-27690090D01*
X20254921Y-27717196D01*
X20242112Y-27743133D01*
X20228106Y-27767895D01*
X20212906Y-27791477D01*
X20196516Y-27813874D01*
X20178940Y-27835079D01*
X20160182Y-27855089D01*
X20140246Y-27873897D01*
X20119136Y-27891498D01*
X20096855Y-27907887D01*
X20073407Y-27923059D01*
X20048797Y-27937008D01*
X20023028Y-27949728D01*
X19996104Y-27961216D01*
X19968029Y-27971464D01*
X19938806Y-27980469D01*
X19908441Y-27988223D01*
X19876935Y-27994724D01*
X19844295Y-27999964D01*
X19810522Y-28003938D01*
X19775622Y-28006642D01*
X19739598Y-28008070D01*
X19702453Y-28008216D01*
X19652513Y-28007565D01*
X19602077Y-28005488D01*
X19551393Y-28001798D01*
X19500708Y-27996310D01*
X19450272Y-27988838D01*
X19425225Y-27984299D01*
X19400332Y-27979195D01*
X19375626Y-27973501D01*
X19351136Y-27967196D01*
X19326895Y-27960254D01*
X19302932Y-27952654D01*
X19277135Y-27943663D01*
X19252329Y-27934054D01*
X19228512Y-27923829D01*
X19205683Y-27912992D01*
X19183840Y-27901545D01*
X19162982Y-27889489D01*
X19143107Y-27876828D01*
X19124215Y-27863564D01*
X19106303Y-27849699D01*
X19089370Y-27835235D01*
X19073415Y-27820176D01*
X19058436Y-27804523D01*
X19044431Y-27788280D01*
X19031400Y-27771447D01*
X19019341Y-27754029D01*
X19008253Y-27736026D01*
X18998133Y-27717443D01*
X18988981Y-27698280D01*
X18980794Y-27678541D01*
X18973573Y-27658227D01*
X18967314Y-27637342D01*
X18962017Y-27615888D01*
X18957680Y-27593867D01*
X18954303Y-27571282D01*
X18951882Y-27548134D01*
X18950417Y-27524427D01*
X18949907Y-27500163D01*
X18950349Y-27475345D01*
X18951743Y-27449973D01*
X18954088Y-27424052D01*
X18957380Y-27397584D01*
X18961620Y-27370571D01*
X18972586Y-27314362D01*
X18985350Y-27258743D01*
X18999478Y-27203558D01*
X19014537Y-27148651D01*
X19045708Y-27039056D01*
X19060952Y-26984057D01*
X19075391Y-26928716D01*
X19083417Y-26893310D01*
X19086377Y-26876217D01*
X19088630Y-26859532D01*
X19090174Y-26843258D01*
X19091006Y-26827397D01*
X19091123Y-26811951D01*
X19090522Y-26796921D01*
X19089200Y-26782310D01*
X19087154Y-26768119D01*
X19084381Y-26754351D01*
X19080879Y-26741007D01*
X19076644Y-26728090D01*
X19071674Y-26715600D01*
X19065966Y-26703541D01*
X19059516Y-26691914D01*
X19052322Y-26680722D01*
X19044381Y-26669965D01*
X19035690Y-26659646D01*
X19026247Y-26649767D01*
X19016047Y-26640330D01*
X19005089Y-26631337D01*
X18993369Y-26622789D01*
X18980885Y-26614689D01*
X18967633Y-26607039D01*
X18953611Y-26599840D01*
X18938816Y-26593095D01*
X18923245Y-26586805D01*
X18906895Y-26580972D01*
X18889763Y-26575599D01*
X18871846Y-26570686D01*
X18853141Y-26566237D01*
X18797056Y-26555543D01*
X18741928Y-26548275D01*
X18687785Y-26544448D01*
X18634653Y-26544078D01*
X18582560Y-26547182D01*
X18531532Y-26553773D01*
X18481598Y-26563868D01*
X18432784Y-26577482D01*
X18385117Y-26594631D01*
X18338624Y-26615330D01*
X18293333Y-26639595D01*
X18249271Y-26667440D01*
X18206464Y-26698883D01*
X18164940Y-26733938D01*
X18124726Y-26772620D01*
X18085849Y-26814946D01*
X18045149Y-26864234D01*
X18007306Y-26914821D01*
X17972199Y-26966640D01*
X17939708Y-27019626D01*
X17909713Y-27073712D01*
X17882094Y-27128833D01*
X17856731Y-27184924D01*
X17833503Y-27241917D01*
X17812290Y-27299747D01*
X17792973Y-27358349D01*
X17775431Y-27417656D01*
X17759544Y-27477603D01*
X17745191Y-27538123D01*
X17732253Y-27599151D01*
X17720610Y-27660621D01*
X17710141Y-27722466D01*
X17683078Y-27909974D01*
X17662309Y-28097389D01*
X17654702Y-28191033D01*
X17649168Y-28284618D01*
X17645874Y-28378134D01*
X17644987Y-28471568D01*
X17646674Y-28564909D01*
X17651100Y-28658146D01*
X17658434Y-28751266D01*
X17668841Y-28844258D01*
X17682488Y-28937111D01*
X17699542Y-29029813D01*
X17720169Y-29122352D01*
X17744537Y-29214716D01*
X17764914Y-29281033D01*
X17787376Y-29346016D01*
X17811963Y-29409635D01*
X17838712Y-29471858D01*
X17867662Y-29532655D01*
X17898853Y-29591996D01*
X17932322Y-29649847D01*
X17968110Y-29706180D01*
X18006253Y-29760962D01*
X18046792Y-29814163D01*
X18089765Y-29865751D01*
X18135210Y-29915697D01*
X18183167Y-29963968D01*
X18233675Y-30010533D01*
X18286771Y-30055363D01*
X18342495Y-30098425D01*
X18382444Y-30126244D01*
X18424800Y-30152121D01*
X18469412Y-30176005D01*
X18516128Y-30197845D01*
X18564797Y-30217590D01*
X18615269Y-30235190D01*
X18667392Y-30250592D01*
X18721014Y-30263748D01*
X18832155Y-30283113D01*
X18947481Y-30292878D01*
X19006336Y-30294033D01*
X19065784Y-30292636D01*
X19125674Y-30288635D01*
X19185854Y-30281979D01*
X19246174Y-30272619D01*
X19306483Y-30260502D01*
X19366628Y-30245578D01*
X19426460Y-30227797D01*
X19485826Y-30207106D01*
X19544577Y-30183456D01*
X19602559Y-30156796D01*
X19659624Y-30127074D01*
X19715618Y-30094240D01*
X19770392Y-30058243D01*
X19823794Y-30019032D01*
X19875673Y-29976556D01*
X19925877Y-29930765D01*
X19974256Y-29881606D01*
X20020658Y-29829031D01*
X20064932Y-29772987D01*
X20113839Y-29707296D01*
X20162497Y-29640365D01*
X20212644Y-29570953D01*
X20266016Y-29497821D01*
X20268661Y-29500467D01*
X20320999Y-29538873D01*
X20371849Y-29575542D01*
X20475036Y-29648633D01*
X20405698Y-29762940D01*
X20332585Y-29871658D01*
X20255643Y-29974718D01*
X20174817Y-30072049D01*
X20090053Y-30163582D01*
X20001298Y-30249248D01*
X19908496Y-30328975D01*
X19811594Y-30402696D01*
X19710537Y-30470339D01*
X19605270Y-30531835D01*
X19495741Y-30587115D01*
X19381894Y-30636108D01*
X19263675Y-30678745D01*
X19141030Y-30714956D01*
X19013904Y-30744671D01*
X18882245Y-30767821D01*
X18808330Y-30777594D01*
X18734435Y-30785117D01*
X18660578Y-30790429D01*
X18586779Y-30793576D01*
X18513059Y-30794598D01*
X18439434Y-30793540D01*
X18365927Y-30790442D01*
X18292555Y-30785349D01*
X18219337Y-30778302D01*
X18146295Y-30769345D01*
X18073446Y-30758519D01*
X18000810Y-30745868D01*
X17928407Y-30731435D01*
X17856256Y-30715261D01*
X17784376Y-30697389D01*
X17712786Y-30677862D01*
X17567936Y-30631350D01*
X17430085Y-30578122D01*
X17299288Y-30518157D01*
X17175600Y-30451437D01*
X17059073Y-30377942D01*
X16949763Y-30297653D01*
X16847724Y-30210550D01*
X16753010Y-30116615D01*
X16665676Y-30015827D01*
X16585775Y-29908167D01*
X16513362Y-29793617D01*
X16448491Y-29672156D01*
X16391217Y-29543765D01*
X16341594Y-29408425D01*
X16299675Y-29266117D01*
X16265516Y-29116820D01*
X16238904Y-28962177D01*
X16220671Y-28809847D01*
X16210949Y-28659912D01*
X16209870Y-28512454D01*
X16217566Y-28367554D01*
X16234169Y-28225294D01*
X16259809Y-28085754D01*
X16294620Y-27949016D01*
X16338732Y-27815162D01*
X16392278Y-27684273D01*
X16455389Y-27556430D01*
X16528197Y-27431714D01*
X16610834Y-27310208D01*
X16703432Y-27191993D01*
X16806122Y-27077149D01*
X16919036Y-26965758D01*
X17023228Y-26874480D01*
X17130347Y-26791035D01*
X17240278Y-26715256D01*
X17352912Y-26646977D01*
X17468134Y-26586030D01*
X17585833Y-26532250D01*
X17705896Y-26485469D01*
X17828211Y-26445521D01*
X17952665Y-26412240D01*
X18079146Y-26385458D01*
X18207542Y-26365009D01*
X18337740Y-26350726D01*
X18469628Y-26342443D01*
X18603094Y-26339993D01*
X18738024Y-26343209D01*
G37*
G36*
X117631683Y-4929618D02*
G01*
X117631564Y-4915727D01*
X117631228Y-4901837D01*
X117630706Y-4887946D01*
X117630029Y-4874055D01*
X117628334Y-4846274D01*
X117626392Y-4818493D01*
X117624377Y-4799985D01*
X117621312Y-4782175D01*
X117617200Y-4765077D01*
X117612046Y-4748709D01*
X117605853Y-4733084D01*
X117598625Y-4718220D01*
X117590367Y-4704130D01*
X117581081Y-4690831D01*
X117570772Y-4678338D01*
X117559444Y-4666667D01*
X117547101Y-4655833D01*
X117533746Y-4645852D01*
X117519383Y-4636739D01*
X117504017Y-4628509D01*
X117487651Y-4621179D01*
X117470289Y-4614763D01*
X117431464Y-4601447D01*
X117392361Y-4589091D01*
X117352947Y-4577417D01*
X117313192Y-4566146D01*
X117232536Y-4543698D01*
X117191572Y-4531962D01*
X117150142Y-4519513D01*
X117150142Y-4418972D01*
X119007518Y-4418972D01*
X119092831Y-4420140D01*
X119178051Y-4423850D01*
X119263085Y-4430413D01*
X119347839Y-4440138D01*
X119390083Y-4446284D01*
X119432222Y-4453336D01*
X119474244Y-4461335D01*
X119516139Y-4470317D01*
X119557894Y-4480323D01*
X119599498Y-4491390D01*
X119640940Y-4503559D01*
X119682207Y-4516867D01*
X119714645Y-4528484D01*
X119745974Y-4541000D01*
X119776183Y-4554399D01*
X119805264Y-4568667D01*
X119833207Y-4583788D01*
X119860004Y-4599746D01*
X119885645Y-4616525D01*
X119910121Y-4634111D01*
X119933422Y-4652487D01*
X119955540Y-4671638D01*
X119976465Y-4691549D01*
X119996188Y-4712204D01*
X120014700Y-4733588D01*
X120031991Y-4755685D01*
X120048053Y-4778479D01*
X120062876Y-4801956D01*
X120076451Y-4826099D01*
X120088769Y-4850893D01*
X120099821Y-4876323D01*
X120109597Y-4902373D01*
X120118088Y-4929028D01*
X120125285Y-4956272D01*
X120131179Y-4984089D01*
X120135761Y-5012465D01*
X120139021Y-5041383D01*
X120140950Y-5070828D01*
X120141539Y-5100785D01*
X120140778Y-5131238D01*
X120138660Y-5162171D01*
X120135174Y-5193570D01*
X120130310Y-5225418D01*
X120124061Y-5257700D01*
X120115728Y-5291341D01*
X120105644Y-5323799D01*
X120093854Y-5355072D01*
X120080405Y-5385155D01*
X120065344Y-5414044D01*
X120048717Y-5441735D01*
X120030571Y-5468225D01*
X120010952Y-5493510D01*
X119989907Y-5517585D01*
X119967482Y-5540448D01*
X119943724Y-5562093D01*
X119918679Y-5582517D01*
X119892394Y-5601717D01*
X119864915Y-5619689D01*
X119836289Y-5636427D01*
X119806562Y-5651930D01*
X119748539Y-5678765D01*
X119689649Y-5703895D01*
X119630014Y-5727599D01*
X119569760Y-5750156D01*
X119509009Y-5771844D01*
X119447886Y-5792944D01*
X119325019Y-5834492D01*
X119316517Y-5837506D01*
X119308845Y-5840621D01*
X119305307Y-5842228D01*
X119301963Y-5843875D01*
X119298806Y-5845567D01*
X119295833Y-5847308D01*
X119293037Y-5849103D01*
X119290416Y-5850957D01*
X119287963Y-5852876D01*
X119285673Y-5854863D01*
X119283543Y-5856924D01*
X119281566Y-5859063D01*
X119279739Y-5861286D01*
X119278056Y-5863596D01*
X119276513Y-5866000D01*
X119275104Y-5868502D01*
X119273825Y-5871106D01*
X119272671Y-5873818D01*
X119271637Y-5876643D01*
X119270719Y-5879584D01*
X119269911Y-5882648D01*
X119269209Y-5885838D01*
X119268607Y-5889161D01*
X119268102Y-5892620D01*
X119267359Y-5899967D01*
X119266941Y-5907918D01*
X119266811Y-5916513D01*
X119266926Y-5921538D01*
X119267264Y-5926205D01*
X119267818Y-5930527D01*
X119268578Y-5934517D01*
X119269536Y-5938190D01*
X119270683Y-5941558D01*
X119272010Y-5944635D01*
X119273508Y-5947436D01*
X119275170Y-5949973D01*
X119276985Y-5952260D01*
X119278946Y-5954310D01*
X119281043Y-5956138D01*
X119283268Y-5957757D01*
X119285612Y-5959179D01*
X119288067Y-5960420D01*
X119290624Y-5961492D01*
X119293273Y-5962409D01*
X119296007Y-5963184D01*
X119298817Y-5963832D01*
X119301693Y-5964365D01*
X119307611Y-5965143D01*
X119313692Y-5965626D01*
X119326064Y-5966143D01*
X119332214Y-5966393D01*
X119338249Y-5966784D01*
X119438888Y-5983305D01*
X119488710Y-5992962D01*
X119538132Y-6003701D01*
X119587105Y-6015634D01*
X119635578Y-6028873D01*
X119683501Y-6043530D01*
X119730823Y-6059718D01*
X119777493Y-6077550D01*
X119823463Y-6097137D01*
X119868680Y-6118592D01*
X119913096Y-6142028D01*
X119956658Y-6167556D01*
X119999317Y-6195290D01*
X120041023Y-6225342D01*
X120081726Y-6257824D01*
X120088393Y-6263752D01*
X120094511Y-6269658D01*
X120100085Y-6275579D01*
X120105125Y-6281554D01*
X120107447Y-6284574D01*
X120109638Y-6287622D01*
X120111699Y-6290703D01*
X120113631Y-6293822D01*
X120115436Y-6296984D01*
X120117113Y-6300193D01*
X120118665Y-6303454D01*
X120120091Y-6306772D01*
X120121393Y-6310153D01*
X120122573Y-6313600D01*
X120123630Y-6317119D01*
X120124566Y-6320715D01*
X120125382Y-6324392D01*
X120126079Y-6328155D01*
X120126657Y-6332009D01*
X120127119Y-6335960D01*
X120127464Y-6340011D01*
X120127694Y-6344167D01*
X120127811Y-6352816D01*
X120127479Y-6361946D01*
X120126705Y-6371595D01*
X120123243Y-6417173D01*
X120120840Y-6462618D01*
X120119560Y-6507924D01*
X120119470Y-6553083D01*
X120120636Y-6598087D01*
X120123124Y-6642928D01*
X120126999Y-6687598D01*
X120132328Y-6732090D01*
X120139175Y-6776396D01*
X120147608Y-6820509D01*
X120157692Y-6864420D01*
X120169493Y-6908121D01*
X120183077Y-6951606D01*
X120198510Y-6994865D01*
X120215857Y-7037892D01*
X120235185Y-7080679D01*
X120237016Y-7084856D01*
X120238544Y-7089412D01*
X120239778Y-7094294D01*
X120240725Y-7099447D01*
X120241393Y-7104818D01*
X120241789Y-7110351D01*
X120241922Y-7115993D01*
X120241800Y-7121689D01*
X120241429Y-7127385D01*
X120240818Y-7133027D01*
X120239974Y-7138560D01*
X120238906Y-7143930D01*
X120237620Y-7149084D01*
X120236126Y-7153966D01*
X120234430Y-7158522D01*
X120232540Y-7162699D01*
X120220264Y-7184652D01*
X120207260Y-7205874D01*
X120193542Y-7226374D01*
X120179127Y-7246166D01*
X120164030Y-7265259D01*
X120148266Y-7283667D01*
X120131851Y-7301401D01*
X120114800Y-7318471D01*
X120097129Y-7334891D01*
X120078854Y-7350671D01*
X120059989Y-7365823D01*
X120040551Y-7380359D01*
X120020555Y-7394291D01*
X120000016Y-7407629D01*
X119978950Y-7420386D01*
X119957372Y-7432573D01*
X119917996Y-7453284D01*
X119878256Y-7472751D01*
X119838159Y-7490970D01*
X119797713Y-7507938D01*
X119756926Y-7523649D01*
X119715806Y-7538101D01*
X119674360Y-7551290D01*
X119632597Y-7563211D01*
X119590523Y-7573861D01*
X119548147Y-7583236D01*
X119505476Y-7591332D01*
X119462519Y-7598144D01*
X119419283Y-7603671D01*
X119375775Y-7607906D01*
X119332004Y-7610847D01*
X119287977Y-7612490D01*
X118851414Y-7622163D01*
X118414852Y-7628364D01*
X117541727Y-7636301D01*
X117261270Y-7636301D01*
X117261268Y-7638948D01*
X117261268Y-7519888D01*
X117273293Y-7517790D01*
X117285535Y-7515506D01*
X117310546Y-7510627D01*
X117336053Y-7505749D01*
X117348915Y-7503465D01*
X117361808Y-7501368D01*
X117395768Y-7494722D01*
X117427231Y-7486650D01*
X117442041Y-7482059D01*
X117456245Y-7477089D01*
X117469847Y-7471732D01*
X117482855Y-7465979D01*
X117495274Y-7459823D01*
X117507110Y-7453256D01*
X117518368Y-7446270D01*
X117529054Y-7438859D01*
X117539175Y-7431013D01*
X117548735Y-7422725D01*
X117557741Y-7413988D01*
X117566199Y-7404793D01*
X117574114Y-7395134D01*
X117581493Y-7385001D01*
X117588340Y-7374388D01*
X117594662Y-7363287D01*
X117600465Y-7351689D01*
X117605755Y-7339588D01*
X117610536Y-7326975D01*
X117614816Y-7313843D01*
X117618600Y-7300183D01*
X117621893Y-7285989D01*
X117624702Y-7271252D01*
X117627032Y-7255965D01*
X117630280Y-7223708D01*
X117630866Y-7209276D01*
X118377557Y-7209276D01*
X118378765Y-7230959D01*
X118381408Y-7251595D01*
X118385457Y-7271220D01*
X118390886Y-7289868D01*
X118397668Y-7307574D01*
X118405776Y-7324374D01*
X118415181Y-7340301D01*
X118425858Y-7355391D01*
X118437779Y-7369679D01*
X118450917Y-7383200D01*
X118465245Y-7395988D01*
X118480735Y-7408078D01*
X118497362Y-7419505D01*
X118515096Y-7430305D01*
X118533912Y-7440512D01*
X118558499Y-7452528D01*
X118583609Y-7463286D01*
X118609191Y-7472797D01*
X118635193Y-7481072D01*
X118661566Y-7488125D01*
X118688258Y-7493968D01*
X118742396Y-7502068D01*
X118797201Y-7505472D01*
X118852266Y-7504275D01*
X118907183Y-7498574D01*
X118961546Y-7488467D01*
X119014948Y-7474050D01*
X119066981Y-7455420D01*
X119117240Y-7432674D01*
X119165316Y-7405909D01*
X119210804Y-7375221D01*
X119232450Y-7358437D01*
X119253295Y-7340709D01*
X119273291Y-7322048D01*
X119292384Y-7302468D01*
X119310525Y-7281979D01*
X119327663Y-7260595D01*
X119348918Y-7230554D01*
X119368104Y-7199979D01*
X119385322Y-7168891D01*
X119400671Y-7137316D01*
X119414252Y-7105275D01*
X119426168Y-7072793D01*
X119436517Y-7039892D01*
X119445402Y-7006595D01*
X119452922Y-6972927D01*
X119459179Y-6938909D01*
X119464273Y-6904567D01*
X119468305Y-6869921D01*
X119471375Y-6834997D01*
X119473586Y-6799817D01*
X119475828Y-6728783D01*
X119474633Y-6669028D01*
X119469125Y-6610909D01*
X119459393Y-6554572D01*
X119445525Y-6500166D01*
X119427611Y-6447837D01*
X119405739Y-6397733D01*
X119380000Y-6350000D01*
X119350482Y-6304787D01*
X119317274Y-6262241D01*
X119280466Y-6222508D01*
X119240146Y-6185736D01*
X119196404Y-6152073D01*
X119149329Y-6121665D01*
X119099010Y-6094660D01*
X119045536Y-6071206D01*
X118988996Y-6051449D01*
X118955727Y-6041788D01*
X118922395Y-6033569D01*
X118889002Y-6026683D01*
X118855547Y-6021022D01*
X118822029Y-6016477D01*
X118788450Y-6012939D01*
X118754809Y-6010301D01*
X118721105Y-6008454D01*
X118653513Y-6006697D01*
X118585672Y-6006800D01*
X118449245Y-6009115D01*
X118439723Y-6009337D01*
X118430983Y-6010020D01*
X118426899Y-6010542D01*
X118423003Y-6011191D01*
X118419291Y-6011968D01*
X118415759Y-6012877D01*
X118412406Y-6013922D01*
X118409229Y-6015106D01*
X118406224Y-6016433D01*
X118403388Y-6017905D01*
X118400719Y-6019527D01*
X118398214Y-6021301D01*
X118395870Y-6023231D01*
X118393684Y-6025321D01*
X118391652Y-6027573D01*
X118389773Y-6029992D01*
X118388043Y-6032580D01*
X118386460Y-6035341D01*
X118385019Y-6038278D01*
X118383719Y-6041395D01*
X118382557Y-6044696D01*
X118381530Y-6048182D01*
X118380634Y-6051859D01*
X118379867Y-6055729D01*
X118379226Y-6059796D01*
X118378708Y-6064063D01*
X118378030Y-6073210D01*
X118377809Y-6083199D01*
X118378926Y-6226073D01*
X118378802Y-6368948D01*
X118377809Y-6654699D01*
X118377809Y-6657345D01*
X118379793Y-6922920D01*
X118380041Y-7055088D01*
X118379328Y-7120909D01*
X118377809Y-7186512D01*
X118377557Y-7209276D01*
X117630866Y-7209276D01*
X117631683Y-7189157D01*
X117631683Y-5858303D01*
X118377809Y-5858303D01*
X118443872Y-5859047D01*
X118507455Y-5860288D01*
X118538471Y-5860629D01*
X118569054Y-5860536D01*
X118599264Y-5859823D01*
X118629163Y-5858303D01*
X118657931Y-5856061D01*
X118686669Y-5853260D01*
X118715344Y-5849839D01*
X118743926Y-5845736D01*
X118772384Y-5840889D01*
X118800687Y-5835235D01*
X118828804Y-5828714D01*
X118856704Y-5821262D01*
X118886777Y-5811973D01*
X118915967Y-5801487D01*
X118944259Y-5789833D01*
X118971638Y-5777038D01*
X118998088Y-5763131D01*
X119023595Y-5748139D01*
X119048144Y-5732091D01*
X119071720Y-5715016D01*
X119094307Y-5696940D01*
X119115891Y-5677893D01*
X119136456Y-5657901D01*
X119155988Y-5636995D01*
X119174472Y-5615200D01*
X119191892Y-5592546D01*
X119208234Y-5569061D01*
X119223483Y-5544773D01*
X119237623Y-5519709D01*
X119250639Y-5493898D01*
X119262518Y-5467369D01*
X119273242Y-5440148D01*
X119282798Y-5412265D01*
X119291170Y-5383747D01*
X119298344Y-5354623D01*
X119304305Y-5324920D01*
X119309036Y-5294667D01*
X119312524Y-5263891D01*
X119314754Y-5232622D01*
X119315709Y-5200886D01*
X119315376Y-5168713D01*
X119313740Y-5136129D01*
X119310784Y-5103164D01*
X119306495Y-5069845D01*
X119296872Y-5016820D01*
X119284827Y-4966864D01*
X119270294Y-4919947D01*
X119253207Y-4876038D01*
X119243684Y-4855201D01*
X119233499Y-4835105D01*
X119222642Y-4815745D01*
X119211106Y-4797118D01*
X119198881Y-4779219D01*
X119185961Y-4762045D01*
X119172336Y-4745592D01*
X119157998Y-4729856D01*
X119142939Y-4714833D01*
X119127152Y-4700519D01*
X119110627Y-4686911D01*
X119093356Y-4674004D01*
X119075331Y-4661795D01*
X119056545Y-4650279D01*
X119036988Y-4639453D01*
X119016653Y-4629314D01*
X118995531Y-4619857D01*
X118973614Y-4611077D01*
X118927361Y-4595538D01*
X118877830Y-4582666D01*
X118824955Y-4572429D01*
X118802044Y-4569316D01*
X118778967Y-4566873D01*
X118755743Y-4565028D01*
X118732391Y-4563705D01*
X118685381Y-4562336D01*
X118638092Y-4562176D01*
X118543297Y-4563127D01*
X118496100Y-4563059D01*
X118449245Y-4561845D01*
X118439287Y-4562095D01*
X118434647Y-4562412D01*
X118430229Y-4562858D01*
X118426027Y-4563435D01*
X118422038Y-4564147D01*
X118418259Y-4564994D01*
X118414685Y-4565979D01*
X118411312Y-4567103D01*
X118408137Y-4568369D01*
X118405156Y-4569778D01*
X118402365Y-4571333D01*
X118399760Y-4573034D01*
X118397337Y-4574885D01*
X118395092Y-4576888D01*
X118393022Y-4579043D01*
X118391122Y-4581353D01*
X118389389Y-4583820D01*
X118387819Y-4586446D01*
X118386407Y-4589233D01*
X118385151Y-4592183D01*
X118384046Y-4595298D01*
X118383088Y-4598579D01*
X118382273Y-4602028D01*
X118381598Y-4605649D01*
X118381058Y-4609441D01*
X118380371Y-4617552D01*
X118380179Y-4626376D01*
X118380453Y-4635928D01*
X118380453Y-5858303D01*
X118377809Y-5858303D01*
X117631683Y-5858303D01*
X117631683Y-4929618D01*
G37*
G36*
X111042402Y-4122560D02*
G01*
X111051089Y-4123260D01*
X111055117Y-4123809D01*
X111058939Y-4124498D01*
X111062560Y-4125330D01*
X111065983Y-4126310D01*
X111069212Y-4127442D01*
X111072251Y-4128730D01*
X111075104Y-4130180D01*
X111077775Y-4131794D01*
X111080268Y-4133578D01*
X111082586Y-4135536D01*
X111084734Y-4137672D01*
X111086715Y-4139991D01*
X111088533Y-4142497D01*
X111090193Y-4145194D01*
X111091697Y-4148087D01*
X111093051Y-4151180D01*
X111094257Y-4154478D01*
X111095319Y-4157984D01*
X111096242Y-4161704D01*
X111097030Y-4165641D01*
X111097685Y-4169800D01*
X111098213Y-4174185D01*
X111098900Y-4183652D01*
X111099123Y-4194076D01*
X111099123Y-5768347D01*
X111114507Y-5760869D01*
X111128930Y-5754166D01*
X111155016Y-5742219D01*
X111166741Y-5736539D01*
X111177629Y-5730767D01*
X111182769Y-5727778D01*
X111187711Y-5724685D01*
X111192460Y-5721459D01*
X111197018Y-5718075D01*
X111229430Y-5691725D01*
X111261345Y-5664539D01*
X111324680Y-5609266D01*
X111356595Y-5581986D01*
X111389007Y-5555481D01*
X111405476Y-5542646D01*
X111422162Y-5530155D01*
X111439097Y-5518059D01*
X111456310Y-5506410D01*
X111503744Y-5475858D01*
X111551772Y-5448656D01*
X111600365Y-5424740D01*
X111649497Y-5404049D01*
X111699141Y-5386520D01*
X111749269Y-5372092D01*
X111799854Y-5360702D01*
X111850869Y-5352289D01*
X111902288Y-5346791D01*
X111954083Y-5344145D01*
X112006226Y-5344290D01*
X112058691Y-5347163D01*
X112111451Y-5352703D01*
X112164478Y-5360847D01*
X112217745Y-5371534D01*
X112271225Y-5384701D01*
X112292264Y-5390714D01*
X112312719Y-5397339D01*
X112332597Y-5404565D01*
X112351903Y-5412384D01*
X112370643Y-5420786D01*
X112388823Y-5429762D01*
X112406449Y-5439303D01*
X112423526Y-5449400D01*
X112440061Y-5460043D01*
X112456059Y-5471223D01*
X112471526Y-5482932D01*
X112486468Y-5495159D01*
X112500891Y-5507896D01*
X112514800Y-5521134D01*
X112541101Y-5549073D01*
X112565417Y-5578904D01*
X112587795Y-5610553D01*
X112608283Y-5643946D01*
X112626925Y-5679009D01*
X112643769Y-5715669D01*
X112658861Y-5753852D01*
X112672248Y-5793485D01*
X112683976Y-5834494D01*
X112684756Y-5839048D01*
X112685133Y-5843769D01*
X112685139Y-5848638D01*
X112684803Y-5853634D01*
X112684157Y-5858739D01*
X112683232Y-5863933D01*
X112682059Y-5869197D01*
X112680669Y-5874511D01*
X112679093Y-5879856D01*
X112677362Y-5885213D01*
X112673558Y-5895884D01*
X112669507Y-5906369D01*
X112665455Y-5916513D01*
X112627984Y-6005651D01*
X112595997Y-6094456D01*
X112569583Y-6182904D01*
X112548832Y-6270972D01*
X112533832Y-6358638D01*
X112524673Y-6445877D01*
X112521444Y-6532666D01*
X112524234Y-6618983D01*
X112533132Y-6704803D01*
X112548227Y-6790104D01*
X112569609Y-6874862D01*
X112597367Y-6959055D01*
X112631589Y-7042659D01*
X112672365Y-7125650D01*
X112719784Y-7208005D01*
X112773935Y-7289701D01*
X112786231Y-7306329D01*
X112799256Y-7322510D01*
X112812933Y-7338296D01*
X112827182Y-7353738D01*
X112841928Y-7368885D01*
X112857093Y-7383788D01*
X112888367Y-7413062D01*
X112952529Y-7470899D01*
X112984175Y-7500268D01*
X112999618Y-7515241D01*
X113014705Y-7530474D01*
X113019082Y-7535062D01*
X113023304Y-7539899D01*
X113027402Y-7544984D01*
X113031407Y-7550317D01*
X113035350Y-7555898D01*
X113039262Y-7561727D01*
X113047117Y-7574130D01*
X113063819Y-7601911D01*
X113073162Y-7617290D01*
X113083497Y-7633661D01*
X111747351Y-7633661D01*
X111743239Y-7618667D01*
X111739879Y-7605358D01*
X111737340Y-7593623D01*
X111735693Y-7583349D01*
X111735225Y-7578724D01*
X111735007Y-7574423D01*
X111735046Y-7570431D01*
X111735352Y-7566734D01*
X111735932Y-7563319D01*
X111736797Y-7560170D01*
X111737955Y-7557273D01*
X111739413Y-7554616D01*
X111741182Y-7552184D01*
X111743270Y-7549962D01*
X111745685Y-7547937D01*
X111748436Y-7546095D01*
X111751532Y-7544421D01*
X111754982Y-7542902D01*
X111758795Y-7541523D01*
X111762978Y-7540271D01*
X111772493Y-7538089D01*
X111783597Y-7536245D01*
X111796360Y-7534626D01*
X111810852Y-7533119D01*
X111837239Y-7529517D01*
X111861841Y-7524639D01*
X111873475Y-7521711D01*
X111884667Y-7518451D01*
X111895418Y-7514855D01*
X111905729Y-7510919D01*
X111915603Y-7506637D01*
X111925040Y-7502007D01*
X111934042Y-7497022D01*
X111942611Y-7491680D01*
X111950747Y-7485975D01*
X111958453Y-7479903D01*
X111965729Y-7473461D01*
X111972578Y-7466642D01*
X111979000Y-7459444D01*
X111984998Y-7451862D01*
X111990572Y-7443891D01*
X111995724Y-7435528D01*
X112000455Y-7426767D01*
X112004768Y-7417604D01*
X112008663Y-7408036D01*
X112012142Y-7398057D01*
X112015206Y-7387664D01*
X112017856Y-7376851D01*
X112020095Y-7365615D01*
X112021924Y-7353951D01*
X112023344Y-7341855D01*
X112024356Y-7329323D01*
X112025164Y-7302931D01*
X112027149Y-6699682D01*
X112027397Y-6398057D01*
X112025164Y-6096432D01*
X112024118Y-6063803D01*
X112021878Y-6031485D01*
X112018304Y-5999600D01*
X112013258Y-5968274D01*
X112006600Y-5937629D01*
X111998189Y-5907791D01*
X111987888Y-5878883D01*
X111975555Y-5851030D01*
X111961052Y-5824354D01*
X111952943Y-5811497D01*
X111944239Y-5798981D01*
X111934923Y-5786822D01*
X111924977Y-5775034D01*
X111914383Y-5763634D01*
X111903125Y-5752638D01*
X111891185Y-5742059D01*
X111878545Y-5731915D01*
X111865188Y-5722221D01*
X111851097Y-5712991D01*
X111836254Y-5704243D01*
X111820641Y-5695990D01*
X111804242Y-5688249D01*
X111787038Y-5681035D01*
X111757308Y-5670325D01*
X111727662Y-5661956D01*
X111698125Y-5655850D01*
X111668720Y-5651931D01*
X111639470Y-5650119D01*
X111610398Y-5650339D01*
X111581528Y-5652512D01*
X111552883Y-5656561D01*
X111524485Y-5662408D01*
X111496359Y-5669976D01*
X111468527Y-5679188D01*
X111441014Y-5689965D01*
X111413841Y-5702230D01*
X111387033Y-5715906D01*
X111360612Y-5730916D01*
X111334602Y-5747181D01*
X111320337Y-5756879D01*
X111306304Y-5767092D01*
X111292488Y-5777778D01*
X111278874Y-5788894D01*
X111265446Y-5800398D01*
X111252188Y-5812247D01*
X111226122Y-5836809D01*
X111200553Y-5862239D01*
X111175355Y-5888196D01*
X111125580Y-5940327D01*
X111124115Y-5941868D01*
X111122697Y-5943514D01*
X111119999Y-5947096D01*
X111117488Y-5951035D01*
X111115162Y-5955292D01*
X111113023Y-5959828D01*
X111111070Y-5964604D01*
X111109302Y-5969582D01*
X111107721Y-5974722D01*
X111106326Y-5979987D01*
X111105117Y-5985336D01*
X111104093Y-5990733D01*
X111103256Y-5996137D01*
X111102605Y-6001510D01*
X111102140Y-6006813D01*
X111101861Y-6012008D01*
X111101768Y-6017055D01*
X111101768Y-7236786D01*
X111102433Y-7267871D01*
X111104486Y-7296705D01*
X111108012Y-7323391D01*
X111110354Y-7335962D01*
X111113095Y-7348035D01*
X111116248Y-7359624D01*
X111119822Y-7370741D01*
X111123829Y-7381400D01*
X111128278Y-7391614D01*
X111133181Y-7401395D01*
X111138547Y-7410758D01*
X111144389Y-7419714D01*
X111150716Y-7428278D01*
X111157539Y-7436462D01*
X111164869Y-7444279D01*
X111172716Y-7451742D01*
X111181091Y-7458865D01*
X111190005Y-7465660D01*
X111199468Y-7472141D01*
X111209492Y-7478321D01*
X111220086Y-7484212D01*
X111231262Y-7489828D01*
X111243029Y-7495182D01*
X111268383Y-7505156D01*
X111296233Y-7514239D01*
X111326664Y-7522535D01*
X111339004Y-7525703D01*
X111344755Y-7527436D01*
X111350228Y-7529274D01*
X111355421Y-7531220D01*
X111360336Y-7533279D01*
X111364971Y-7535454D01*
X111369327Y-7537749D01*
X111373405Y-7540168D01*
X111377203Y-7542715D01*
X111380722Y-7545394D01*
X111383962Y-7548209D01*
X111386923Y-7551163D01*
X111389605Y-7554260D01*
X111392008Y-7557505D01*
X111394132Y-7560900D01*
X111395977Y-7564451D01*
X111397543Y-7568161D01*
X111398830Y-7572034D01*
X111399837Y-7576073D01*
X111400566Y-7580282D01*
X111401016Y-7584667D01*
X111401186Y-7589229D01*
X111401078Y-7593974D01*
X111400690Y-7598904D01*
X111400024Y-7604025D01*
X111399078Y-7609339D01*
X111397853Y-7614851D01*
X111396349Y-7620564D01*
X111394567Y-7626483D01*
X111392505Y-7632611D01*
X111390164Y-7638952D01*
X110064601Y-7638952D01*
X110059309Y-7633657D01*
X110058058Y-7622413D01*
X110057735Y-7617039D01*
X110057614Y-7611830D01*
X110057694Y-7606786D01*
X110057976Y-7601908D01*
X110058459Y-7597195D01*
X110059144Y-7592648D01*
X110060030Y-7588265D01*
X110061118Y-7584049D01*
X110062407Y-7579997D01*
X110063898Y-7576111D01*
X110065591Y-7572391D01*
X110067485Y-7568835D01*
X110069580Y-7565445D01*
X110071877Y-7562221D01*
X110074376Y-7559162D01*
X110077076Y-7556268D01*
X110079977Y-7553539D01*
X110083081Y-7550976D01*
X110086385Y-7548578D01*
X110089891Y-7546346D01*
X110093599Y-7544279D01*
X110097509Y-7542377D01*
X110101619Y-7540641D01*
X110105932Y-7539070D01*
X110110446Y-7537665D01*
X110115161Y-7536424D01*
X110120078Y-7535350D01*
X110125197Y-7534440D01*
X110136038Y-7533117D01*
X110169531Y-7528952D01*
X110200582Y-7523356D01*
X110229230Y-7516264D01*
X110242665Y-7512136D01*
X110255514Y-7507610D01*
X110267782Y-7502677D01*
X110279473Y-7497328D01*
X110290592Y-7491557D01*
X110301145Y-7485353D01*
X110311135Y-7478710D01*
X110320569Y-7471618D01*
X110329450Y-7464070D01*
X110337783Y-7456058D01*
X110345574Y-7447572D01*
X110352828Y-7438606D01*
X110359548Y-7429150D01*
X110365740Y-7419197D01*
X110371409Y-7408738D01*
X110376560Y-7397765D01*
X110381197Y-7386269D01*
X110385326Y-7374243D01*
X110388950Y-7361679D01*
X110392076Y-7348567D01*
X110394707Y-7334900D01*
X110396850Y-7320670D01*
X110398507Y-7305868D01*
X110399685Y-7290486D01*
X110400622Y-7257950D01*
X110400622Y-4670326D01*
X110399407Y-4628114D01*
X110395738Y-4588739D01*
X110392973Y-4570091D01*
X110389582Y-4552124D01*
X110385560Y-4534827D01*
X110380902Y-4518190D01*
X110375605Y-4502205D01*
X110369664Y-4486862D01*
X110363076Y-4472150D01*
X110355834Y-4458060D01*
X110347935Y-4444582D01*
X110339376Y-4431707D01*
X110330150Y-4419425D01*
X110320255Y-4407727D01*
X110309685Y-4396602D01*
X110298436Y-4386041D01*
X110286505Y-4376034D01*
X110273885Y-4366572D01*
X110260574Y-4357644D01*
X110246567Y-4349242D01*
X110231860Y-4341355D01*
X110216447Y-4333974D01*
X110200325Y-4327089D01*
X110183490Y-4320691D01*
X110147661Y-4309314D01*
X110108925Y-4299767D01*
X110067247Y-4291972D01*
X110026898Y-4284034D01*
X110005484Y-4280065D01*
X109982581Y-4276096D01*
X109982581Y-4180846D01*
X110366227Y-4157034D01*
X110694310Y-4141820D01*
X110858103Y-4133221D01*
X111022393Y-4122638D01*
X111032847Y-4122365D01*
X111042402Y-4122560D01*
G37*
G36*
X126702280Y-5356681D02*
G01*
X126733634Y-5359136D01*
X126765166Y-5363181D01*
X126796850Y-5368826D01*
X126824567Y-5375460D01*
X126851156Y-5383455D01*
X126876606Y-5392807D01*
X126900905Y-5403511D01*
X126924041Y-5415564D01*
X126946003Y-5428961D01*
X126966779Y-5443700D01*
X126986357Y-5459776D01*
X127004727Y-5477185D01*
X127021875Y-5495924D01*
X127037791Y-5515988D01*
X127052462Y-5537373D01*
X127065878Y-5560076D01*
X127078027Y-5584094D01*
X127088897Y-5609421D01*
X127098476Y-5636054D01*
X127099781Y-5640171D01*
X127100729Y-5644555D01*
X127101336Y-5649164D01*
X127101617Y-5653955D01*
X127101589Y-5658886D01*
X127101266Y-5663913D01*
X127100664Y-5668995D01*
X127099798Y-5674089D01*
X127098685Y-5679151D01*
X127097338Y-5684140D01*
X127095775Y-5689012D01*
X127094010Y-5693726D01*
X127092059Y-5698238D01*
X127089938Y-5702506D01*
X127087661Y-5706487D01*
X127085245Y-5710138D01*
X127065684Y-5735099D01*
X127046705Y-5760378D01*
X127028330Y-5785982D01*
X127010583Y-5811919D01*
X126993487Y-5838198D01*
X126977066Y-5864825D01*
X126961342Y-5891809D01*
X126946339Y-5919158D01*
X126932080Y-5946878D01*
X126918589Y-5974979D01*
X126905888Y-6003466D01*
X126894001Y-6032350D01*
X126882951Y-6061636D01*
X126872761Y-6091333D01*
X126863455Y-6121449D01*
X126855056Y-6151991D01*
X126852947Y-6159154D01*
X126850582Y-6165763D01*
X126849301Y-6168861D01*
X126847953Y-6171821D01*
X126846537Y-6174645D01*
X126845052Y-6177333D01*
X126843498Y-6179886D01*
X126841873Y-6182303D01*
X126840176Y-6184585D01*
X126838407Y-6186733D01*
X126836564Y-6188748D01*
X126834646Y-6190629D01*
X126832653Y-6192378D01*
X126830583Y-6193994D01*
X126828436Y-6195478D01*
X126826210Y-6196831D01*
X126823904Y-6198054D01*
X126821519Y-6199146D01*
X126819051Y-6200108D01*
X126816502Y-6200941D01*
X126813869Y-6201645D01*
X126811152Y-6202220D01*
X126808350Y-6202668D01*
X126805461Y-6202988D01*
X126802485Y-6203182D01*
X126799421Y-6203248D01*
X126796268Y-6203189D01*
X126793025Y-6203005D01*
X126789690Y-6202695D01*
X126786264Y-6202261D01*
X126686054Y-6191347D01*
X126661078Y-6187766D01*
X126636320Y-6183285D01*
X126624052Y-6180621D01*
X126611872Y-6177627D01*
X126599793Y-6174269D01*
X126587827Y-6170511D01*
X126574185Y-6165357D01*
X126561039Y-6159819D01*
X126548392Y-6153900D01*
X126536244Y-6147603D01*
X126524595Y-6140933D01*
X126513448Y-6133892D01*
X126502802Y-6126484D01*
X126492660Y-6118711D01*
X126483021Y-6110579D01*
X126473887Y-6102089D01*
X126465259Y-6093246D01*
X126457137Y-6084052D01*
X126449523Y-6074512D01*
X126442418Y-6064628D01*
X126435823Y-6054404D01*
X126429738Y-6043843D01*
X126424165Y-6032949D01*
X126419105Y-6021725D01*
X126414558Y-6010174D01*
X126410525Y-5998301D01*
X126407008Y-5986107D01*
X126404007Y-5973598D01*
X126401524Y-5960775D01*
X126399559Y-5947642D01*
X126398114Y-5934204D01*
X126397189Y-5920463D01*
X126396785Y-5906422D01*
X126396904Y-5892085D01*
X126397546Y-5877456D01*
X126398711Y-5862537D01*
X126400403Y-5847333D01*
X126402620Y-5831846D01*
X126405953Y-5810865D01*
X126409937Y-5789513D01*
X126414479Y-5767664D01*
X126419486Y-5745195D01*
X126442308Y-5646637D01*
X126343089Y-5664827D01*
X126319524Y-5669762D01*
X126296456Y-5675287D01*
X126273884Y-5681617D01*
X126262784Y-5685152D01*
X126251808Y-5688971D01*
X126240458Y-5693557D01*
X126229225Y-5698375D01*
X126207076Y-5708648D01*
X126185299Y-5719666D01*
X126163833Y-5731303D01*
X126142615Y-5743437D01*
X126121582Y-5755943D01*
X126079828Y-5781574D01*
X126059178Y-5795721D01*
X126039897Y-5810410D01*
X126030771Y-5817972D01*
X126021988Y-5825688D01*
X126013549Y-5833562D01*
X126005455Y-5841601D01*
X125997706Y-5849811D01*
X125990302Y-5858197D01*
X125983243Y-5866766D01*
X125976532Y-5875522D01*
X125970167Y-5884472D01*
X125964150Y-5893621D01*
X125958480Y-5902976D01*
X125953159Y-5912543D01*
X125948186Y-5922326D01*
X125943563Y-5932332D01*
X125939290Y-5942567D01*
X125935367Y-5953036D01*
X125931794Y-5963746D01*
X125928573Y-5974701D01*
X125925704Y-5985909D01*
X125923187Y-5997374D01*
X125921022Y-6009103D01*
X125919211Y-6021101D01*
X125917753Y-6033375D01*
X125916649Y-6045929D01*
X125915901Y-6058771D01*
X125915507Y-6071905D01*
X125915468Y-6085337D01*
X125915786Y-6099073D01*
X125919703Y-6238099D01*
X125921822Y-6377341D01*
X125922401Y-6656353D01*
X125920994Y-6935860D01*
X125921075Y-7215616D01*
X125921894Y-7249613D01*
X125924398Y-7281214D01*
X125928662Y-7310506D01*
X125931477Y-7324312D01*
X125934759Y-7337573D01*
X125938519Y-7350299D01*
X125942764Y-7362500D01*
X125947504Y-7374188D01*
X125952748Y-7385373D01*
X125958506Y-7396066D01*
X125964787Y-7406278D01*
X125971600Y-7416018D01*
X125978953Y-7425299D01*
X125986858Y-7434129D01*
X125995321Y-7442521D01*
X126004354Y-7450485D01*
X126013964Y-7458031D01*
X126024162Y-7465169D01*
X126034956Y-7471912D01*
X126046356Y-7478269D01*
X126058370Y-7484251D01*
X126071009Y-7489869D01*
X126084280Y-7495133D01*
X126112760Y-7504643D01*
X126143883Y-7512866D01*
X126177723Y-7519888D01*
X126221090Y-7527371D01*
X126264704Y-7534109D01*
X126309808Y-7540351D01*
X126357639Y-7546345D01*
X126360288Y-7541054D01*
X126354376Y-7574996D01*
X126348712Y-7606208D01*
X126343544Y-7635933D01*
X126341224Y-7650624D01*
X126339120Y-7665409D01*
X125053245Y-7665409D01*
X125053412Y-7651180D01*
X125053963Y-7637277D01*
X125054972Y-7623714D01*
X125056511Y-7610508D01*
X125058655Y-7597675D01*
X125061477Y-7585228D01*
X125065051Y-7573185D01*
X125069451Y-7561561D01*
X125074750Y-7550370D01*
X125081021Y-7539629D01*
X125084545Y-7534432D01*
X125088339Y-7529353D01*
X125092414Y-7524395D01*
X125096777Y-7519558D01*
X125101439Y-7514845D01*
X125106409Y-7510259D01*
X125111696Y-7505800D01*
X125117308Y-7501471D01*
X125123256Y-7497274D01*
X125129549Y-7493211D01*
X125136194Y-7489283D01*
X125143203Y-7485493D01*
X125149529Y-7481927D01*
X125155610Y-7478180D01*
X125161448Y-7474253D01*
X125167047Y-7470150D01*
X125172410Y-7465874D01*
X125177539Y-7461430D01*
X125182437Y-7456820D01*
X125187108Y-7452047D01*
X125191554Y-7447116D01*
X125195778Y-7442029D01*
X125199783Y-7436790D01*
X125203572Y-7431402D01*
X125207148Y-7425869D01*
X125210513Y-7420194D01*
X125213671Y-7414380D01*
X125216625Y-7408432D01*
X125219377Y-7402351D01*
X125221931Y-7396142D01*
X125224289Y-7389809D01*
X125226454Y-7383353D01*
X125230217Y-7370091D01*
X125233244Y-7356383D01*
X125235557Y-7342257D01*
X125237181Y-7327739D01*
X125238139Y-7312857D01*
X125238452Y-7297638D01*
X125238452Y-5908575D01*
X125238120Y-5891608D01*
X125237128Y-5874944D01*
X125235483Y-5858590D01*
X125233192Y-5842553D01*
X125230261Y-5826843D01*
X125226697Y-5811465D01*
X125222508Y-5796429D01*
X125217699Y-5781741D01*
X125212278Y-5767410D01*
X125206251Y-5753443D01*
X125199626Y-5739848D01*
X125192409Y-5726633D01*
X125184606Y-5713806D01*
X125176225Y-5701374D01*
X125167272Y-5689345D01*
X125157754Y-5677727D01*
X125147678Y-5666527D01*
X125137051Y-5655754D01*
X125125880Y-5645415D01*
X125114170Y-5635518D01*
X125101930Y-5626070D01*
X125089165Y-5617080D01*
X125075883Y-5608554D01*
X125062091Y-5600502D01*
X125047794Y-5592930D01*
X125033000Y-5585846D01*
X125017717Y-5579259D01*
X125001949Y-5573175D01*
X124985705Y-5567603D01*
X124968991Y-5562551D01*
X124934181Y-5554034D01*
X124921374Y-5551361D01*
X124909733Y-5548277D01*
X124904347Y-5546569D01*
X124899247Y-5544744D01*
X124894434Y-5542797D01*
X124889905Y-5540722D01*
X124885659Y-5538516D01*
X124881695Y-5536173D01*
X124878010Y-5533689D01*
X124874604Y-5531059D01*
X124871475Y-5528277D01*
X124868622Y-5525339D01*
X124866043Y-5522241D01*
X124863736Y-5518977D01*
X124861701Y-5515542D01*
X124859936Y-5511932D01*
X124858440Y-5508142D01*
X124857210Y-5504166D01*
X124856245Y-5500001D01*
X124855545Y-5495641D01*
X124855107Y-5491081D01*
X124854931Y-5486317D01*
X124855014Y-5481344D01*
X124855355Y-5476157D01*
X124855953Y-5470750D01*
X124856807Y-5465120D01*
X124857914Y-5459261D01*
X124859274Y-5453169D01*
X124862745Y-5440264D01*
X124979822Y-5431334D01*
X125039850Y-5427241D01*
X125070236Y-5425613D01*
X125100870Y-5424388D01*
X125480547Y-5404214D01*
X125860225Y-5382054D01*
X125869252Y-5381750D01*
X125877496Y-5381848D01*
X125884980Y-5382380D01*
X125888444Y-5382819D01*
X125891728Y-5383378D01*
X125894832Y-5384061D01*
X125897762Y-5384871D01*
X125900519Y-5385814D01*
X125903107Y-5386892D01*
X125905527Y-5388110D01*
X125907784Y-5389471D01*
X125909881Y-5390979D01*
X125911819Y-5392638D01*
X125913602Y-5394453D01*
X125915233Y-5396426D01*
X125916715Y-5398562D01*
X125918051Y-5400865D01*
X125919243Y-5403338D01*
X125920295Y-5405986D01*
X125921209Y-5408812D01*
X125921988Y-5411820D01*
X125922636Y-5415014D01*
X125923155Y-5418399D01*
X125923548Y-5421976D01*
X125923818Y-5425752D01*
X125924000Y-5433912D01*
X125923725Y-5442908D01*
X125922965Y-5480782D01*
X125922608Y-5519183D01*
X125922732Y-5598682D01*
X125923725Y-5776283D01*
X125956632Y-5756233D01*
X125984579Y-5738911D01*
X125997002Y-5730886D01*
X126008557Y-5723078D01*
X126019368Y-5715332D01*
X126029558Y-5707493D01*
X126066052Y-5676414D01*
X126102236Y-5644902D01*
X126174418Y-5581815D01*
X126210787Y-5550861D01*
X126247591Y-5520713D01*
X126285015Y-5491681D01*
X126304018Y-5477681D01*
X126323246Y-5464076D01*
X126349813Y-5446932D01*
X126376912Y-5431225D01*
X126404514Y-5416968D01*
X126432593Y-5404173D01*
X126461122Y-5392850D01*
X126490073Y-5383011D01*
X126519420Y-5374668D01*
X126549134Y-5367834D01*
X126579190Y-5362518D01*
X126609560Y-5358733D01*
X126640216Y-5356491D01*
X126671132Y-5355803D01*
X126702280Y-5356681D01*
G37*
G36*
X126891294Y-6359207D02*
G01*
X126899445Y-6303280D01*
X126910084Y-6247545D01*
X126923280Y-6192126D01*
X126939105Y-6137147D01*
X126957627Y-6082730D01*
X126978916Y-6029000D01*
X127003043Y-5976080D01*
X127030076Y-5924094D01*
X127060086Y-5873165D01*
X127093142Y-5823416D01*
X127129314Y-5774971D01*
X127168672Y-5727955D01*
X127211286Y-5682489D01*
X127257225Y-5638699D01*
X127321280Y-5584661D01*
X127386436Y-5536550D01*
X127452678Y-5494213D01*
X127519989Y-5457500D01*
X127588354Y-5426260D01*
X127657758Y-5400341D01*
X127728186Y-5379592D01*
X127799620Y-5363863D01*
X127872047Y-5353001D01*
X127945451Y-5346856D01*
X128019816Y-5345277D01*
X128095127Y-5348112D01*
X128171367Y-5355210D01*
X128248523Y-5366421D01*
X128326577Y-5381592D01*
X128405515Y-5400574D01*
X128421858Y-5405249D01*
X128438154Y-5410320D01*
X128470669Y-5421492D01*
X128503184Y-5433781D01*
X128535823Y-5446876D01*
X128601969Y-5474244D01*
X128635724Y-5487897D01*
X128670099Y-5501116D01*
X128672744Y-5434970D01*
X128672744Y-4715302D01*
X128671469Y-4672384D01*
X128667628Y-4631907D01*
X128664739Y-4612572D01*
X128661199Y-4593833D01*
X128657006Y-4575685D01*
X128652157Y-4558124D01*
X128646649Y-4541143D01*
X128640479Y-4524740D01*
X128633645Y-4508907D01*
X128626143Y-4493642D01*
X128617970Y-4478939D01*
X128609124Y-4464792D01*
X128599602Y-4451198D01*
X128589401Y-4438152D01*
X128578517Y-4425648D01*
X128566949Y-4413682D01*
X128554692Y-4402248D01*
X128541745Y-4391343D01*
X128528104Y-4380961D01*
X128513766Y-4371098D01*
X128498729Y-4361748D01*
X128482989Y-4352906D01*
X128466544Y-4344569D01*
X128449390Y-4336730D01*
X128412946Y-4322531D01*
X128373635Y-4310269D01*
X128331432Y-4299907D01*
X128309480Y-4295173D01*
X128287280Y-4290812D01*
X128242136Y-4282709D01*
X128195999Y-4274606D01*
X128172559Y-4270244D01*
X128148870Y-4265511D01*
X128148870Y-4170260D01*
X129360662Y-4112052D01*
X129360662Y-7091259D01*
X129360703Y-7117097D01*
X129360993Y-7143184D01*
X129361308Y-7156398D01*
X129361778Y-7169767D01*
X129362434Y-7183322D01*
X129363308Y-7197094D01*
X129367092Y-7226054D01*
X129372496Y-7253405D01*
X129375808Y-7266479D01*
X129379527Y-7279152D01*
X129383656Y-7291425D01*
X129388195Y-7303299D01*
X129393144Y-7314773D01*
X129398506Y-7325848D01*
X129404280Y-7336526D01*
X129410468Y-7346805D01*
X129417070Y-7356687D01*
X129424088Y-7366173D01*
X129431523Y-7375262D01*
X129439375Y-7383955D01*
X129447646Y-7392254D01*
X129456337Y-7400157D01*
X129465448Y-7407666D01*
X129474981Y-7414781D01*
X129484936Y-7421502D01*
X129495314Y-7427831D01*
X129506117Y-7433767D01*
X129517345Y-7439311D01*
X129529000Y-7444464D01*
X129541082Y-7449226D01*
X129553592Y-7453597D01*
X129566531Y-7457579D01*
X129593701Y-7464374D01*
X129622600Y-7469614D01*
X129640589Y-7472471D01*
X129658857Y-7475112D01*
X129677435Y-7477567D01*
X129696354Y-7479866D01*
X129735339Y-7484125D01*
X129776060Y-7488134D01*
X129776060Y-7588680D01*
X129228703Y-7620761D01*
X128675392Y-7654825D01*
X128675764Y-7613608D01*
X128676384Y-7573135D01*
X128676508Y-7533158D01*
X128676151Y-7513278D01*
X128675392Y-7493429D01*
X128675182Y-7488002D01*
X128674580Y-7482634D01*
X128673630Y-7477320D01*
X128672374Y-7472056D01*
X128670854Y-7466839D01*
X128669113Y-7461664D01*
X128667194Y-7456528D01*
X128665139Y-7451427D01*
X128656416Y-7431294D01*
X128652349Y-7421336D01*
X128650538Y-7416371D01*
X128648933Y-7411409D01*
X128643884Y-7413336D01*
X128638681Y-7415166D01*
X128627932Y-7418644D01*
X128616936Y-7422060D01*
X128605939Y-7425631D01*
X128600518Y-7427542D01*
X128595190Y-7429574D01*
X128589986Y-7431752D01*
X128584938Y-7434105D01*
X128580075Y-7436660D01*
X128575429Y-7439443D01*
X128571032Y-7442483D01*
X128566913Y-7445805D01*
X128539379Y-7469701D01*
X128511340Y-7492742D01*
X128482790Y-7514875D01*
X128453721Y-7536052D01*
X128424125Y-7556220D01*
X128393993Y-7575331D01*
X128363320Y-7593333D01*
X128332095Y-7610176D01*
X128300313Y-7625810D01*
X128267965Y-7640185D01*
X128235043Y-7653249D01*
X128201540Y-7664953D01*
X128167448Y-7675246D01*
X128132759Y-7684078D01*
X128097465Y-7691398D01*
X128061559Y-7697157D01*
X127984757Y-7706032D01*
X127910121Y-7709865D01*
X127837648Y-7708698D01*
X127767334Y-7702573D01*
X127699175Y-7691535D01*
X127633167Y-7675624D01*
X127569306Y-7654885D01*
X127507588Y-7629358D01*
X127448009Y-7599088D01*
X127390566Y-7564117D01*
X127335255Y-7524486D01*
X127282071Y-7480240D01*
X127231012Y-7431421D01*
X127182072Y-7378070D01*
X127135249Y-7320232D01*
X127090538Y-7257948D01*
X127042355Y-7179389D01*
X126999380Y-7093198D01*
X126962174Y-7000365D01*
X126931292Y-6901877D01*
X126907293Y-6798722D01*
X126890736Y-6691890D01*
X126882178Y-6582367D01*
X126882178Y-6471143D01*
X126882454Y-6466585D01*
X127637573Y-6466585D01*
X127637977Y-6519391D01*
X127639653Y-6572306D01*
X127642514Y-6625302D01*
X127651455Y-6731430D01*
X127657289Y-6782125D01*
X127664891Y-6832882D01*
X127674291Y-6883514D01*
X127685520Y-6933837D01*
X127698610Y-6983663D01*
X127713591Y-7032807D01*
X127730494Y-7081083D01*
X127739676Y-7104838D01*
X127749351Y-7128305D01*
X127765861Y-7164174D01*
X127784069Y-7197871D01*
X127803877Y-7229413D01*
X127825186Y-7258814D01*
X127847896Y-7286089D01*
X127871907Y-7311253D01*
X127897121Y-7334321D01*
X127923438Y-7355309D01*
X127950759Y-7374231D01*
X127978985Y-7391102D01*
X128008015Y-7405938D01*
X128037752Y-7418752D01*
X128068095Y-7429561D01*
X128098945Y-7438380D01*
X128130203Y-7445222D01*
X128161770Y-7450104D01*
X128193546Y-7453041D01*
X128225432Y-7454047D01*
X128257329Y-7453137D01*
X128289137Y-7450327D01*
X128320757Y-7445631D01*
X128352090Y-7439065D01*
X128383036Y-7430643D01*
X128413497Y-7420381D01*
X128443372Y-7408293D01*
X128472563Y-7394394D01*
X128500969Y-7378701D01*
X128528493Y-7361227D01*
X128555034Y-7341987D01*
X128580493Y-7320997D01*
X128604771Y-7298272D01*
X128627769Y-7273827D01*
X128632168Y-7268219D01*
X128636425Y-7262329D01*
X128640518Y-7256182D01*
X128644429Y-7249808D01*
X128648139Y-7243231D01*
X128651628Y-7236480D01*
X128654876Y-7229582D01*
X128657865Y-7222564D01*
X128660575Y-7215453D01*
X128662986Y-7208275D01*
X128665080Y-7201059D01*
X128666836Y-7193832D01*
X128668236Y-7186619D01*
X128669260Y-7179449D01*
X128669889Y-7172349D01*
X128670103Y-7165346D01*
X128672335Y-7014120D01*
X128672087Y-6862398D01*
X128670103Y-6559450D01*
X128672746Y-6554159D01*
X128670763Y-6275023D01*
X128670515Y-6135208D01*
X128671228Y-6065455D01*
X128672746Y-5995888D01*
X128672750Y-5972816D01*
X128671780Y-5950222D01*
X128669858Y-5928084D01*
X128667001Y-5906385D01*
X128663229Y-5885104D01*
X128658562Y-5864222D01*
X128653019Y-5843720D01*
X128646620Y-5823578D01*
X128639383Y-5803778D01*
X128631328Y-5784299D01*
X128622476Y-5765122D01*
X128612844Y-5746229D01*
X128602452Y-5727599D01*
X128591320Y-5709213D01*
X128579467Y-5691051D01*
X128566913Y-5673096D01*
X128552559Y-5654246D01*
X128537312Y-5636397D01*
X128521226Y-5619559D01*
X128504354Y-5603741D01*
X128486749Y-5588952D01*
X128468466Y-5575201D01*
X128449556Y-5562497D01*
X128430074Y-5550850D01*
X128410072Y-5540269D01*
X128389605Y-5530763D01*
X128368724Y-5522341D01*
X128347485Y-5515013D01*
X128325939Y-5508787D01*
X128304140Y-5503673D01*
X128282141Y-5499680D01*
X128259996Y-5496818D01*
X128237759Y-5495095D01*
X128215481Y-5494520D01*
X128193217Y-5495103D01*
X128171020Y-5496854D01*
X128148943Y-5499781D01*
X128127039Y-5503893D01*
X128105363Y-5509200D01*
X128083966Y-5515711D01*
X128062902Y-5523434D01*
X128042226Y-5532381D01*
X128021989Y-5542558D01*
X128002245Y-5553977D01*
X127983048Y-5566645D01*
X127964450Y-5580573D01*
X127946506Y-5595768D01*
X127929267Y-5612242D01*
X127914542Y-5627398D01*
X127900142Y-5643082D01*
X127886083Y-5659262D01*
X127872381Y-5675907D01*
X127859051Y-5692986D01*
X127846109Y-5710468D01*
X127833569Y-5728322D01*
X127821448Y-5746518D01*
X127809762Y-5765023D01*
X127798525Y-5783808D01*
X127787753Y-5802840D01*
X127777461Y-5822090D01*
X127767666Y-5841525D01*
X127758383Y-5861116D01*
X127749626Y-5880831D01*
X127741413Y-5900639D01*
X127722206Y-5950460D01*
X127705208Y-6000689D01*
X127690334Y-6051297D01*
X127677499Y-6102259D01*
X127666617Y-6153546D01*
X127657603Y-6205131D01*
X127650373Y-6256988D01*
X127644839Y-6309088D01*
X127640918Y-6361406D01*
X127638525Y-6413914D01*
X127637573Y-6466585D01*
X126882454Y-6466585D01*
X126885562Y-6415202D01*
X126891294Y-6359207D01*
G37*
G36*
X122704429Y-6933416D02*
G01*
X122721276Y-6891170D01*
X122741379Y-6850877D01*
X122764710Y-6812719D01*
X122791242Y-6776880D01*
X122820949Y-6743540D01*
X122853803Y-6712882D01*
X122871402Y-6698616D01*
X122889777Y-6685088D01*
X122908925Y-6672323D01*
X122928843Y-6660341D01*
X122949528Y-6649167D01*
X122970975Y-6638823D01*
X123052040Y-6603512D01*
X123134314Y-6570652D01*
X123217518Y-6539713D01*
X123301374Y-6510170D01*
X123469922Y-6453161D01*
X123637725Y-6395407D01*
X123744882Y-6358572D01*
X123761437Y-6353073D01*
X124121913Y-6353073D01*
X124122431Y-6356669D01*
X124124559Y-6355721D01*
X124121913Y-6353073D01*
X123761437Y-6353073D01*
X123852038Y-6322978D01*
X124066350Y-6252533D01*
X124070723Y-6251005D01*
X124074911Y-6249399D01*
X124078919Y-6247712D01*
X124082747Y-6245944D01*
X124086400Y-6244092D01*
X124089878Y-6242155D01*
X124093185Y-6240132D01*
X124096323Y-6238021D01*
X124099294Y-6235822D01*
X124102101Y-6233531D01*
X124104746Y-6231149D01*
X124107231Y-6228673D01*
X124109560Y-6226102D01*
X124111734Y-6223435D01*
X124113757Y-6220670D01*
X124115629Y-6217806D01*
X124117354Y-6214840D01*
X124118934Y-6211773D01*
X124120372Y-6208602D01*
X124121670Y-6205326D01*
X124122830Y-6201943D01*
X124123856Y-6198452D01*
X124124748Y-6194852D01*
X124125510Y-6191141D01*
X124126144Y-6187317D01*
X124126653Y-6183379D01*
X124127039Y-6179327D01*
X124127304Y-6175157D01*
X124127482Y-6166462D01*
X124127206Y-6157282D01*
X124124023Y-6073939D01*
X124121584Y-5990595D01*
X124118648Y-5907251D01*
X124116606Y-5865579D01*
X124113975Y-5823908D01*
X124111616Y-5796556D01*
X124108032Y-5770076D01*
X124103255Y-5744486D01*
X124097315Y-5719806D01*
X124090243Y-5696053D01*
X124082070Y-5673248D01*
X124072828Y-5651409D01*
X124062547Y-5630555D01*
X124051259Y-5610705D01*
X124038993Y-5591877D01*
X124025782Y-5574091D01*
X124011657Y-5557366D01*
X123996647Y-5541720D01*
X123980785Y-5527172D01*
X123964102Y-5513741D01*
X123946627Y-5501447D01*
X123928393Y-5490307D01*
X123909431Y-5480341D01*
X123889770Y-5471568D01*
X123869443Y-5464007D01*
X123848481Y-5457676D01*
X123826914Y-5452595D01*
X123804773Y-5448782D01*
X123782090Y-5446256D01*
X123758895Y-5445036D01*
X123735219Y-5445142D01*
X123711094Y-5446591D01*
X123686550Y-5449403D01*
X123661619Y-5453597D01*
X123636331Y-5459191D01*
X123610718Y-5466205D01*
X123584810Y-5474657D01*
X123555888Y-5485062D01*
X123530539Y-5494646D01*
X123508616Y-5503702D01*
X123489972Y-5512526D01*
X123481834Y-5516943D01*
X123474460Y-5521412D01*
X123467832Y-5525970D01*
X123461932Y-5530654D01*
X123456742Y-5535501D01*
X123452242Y-5540547D01*
X123448414Y-5545830D01*
X123445241Y-5551387D01*
X123442703Y-5557253D01*
X123440782Y-5563466D01*
X123439460Y-5570063D01*
X123438719Y-5577080D01*
X123438540Y-5584555D01*
X123438904Y-5592524D01*
X123439793Y-5601023D01*
X123441189Y-5610091D01*
X123445428Y-5630077D01*
X123451472Y-5652776D01*
X123459176Y-5678482D01*
X123468391Y-5707491D01*
X123474210Y-5724482D01*
X123479718Y-5741721D01*
X123484855Y-5759209D01*
X123489558Y-5776944D01*
X123493764Y-5794927D01*
X123497412Y-5813159D01*
X123500440Y-5831639D01*
X123502786Y-5850367D01*
X123504710Y-5879505D01*
X123504533Y-5907360D01*
X123503659Y-5920793D01*
X123502263Y-5933890D01*
X123500346Y-5946645D01*
X123497908Y-5959052D01*
X123494951Y-5971106D01*
X123491475Y-5982803D01*
X123487483Y-5994136D01*
X123482973Y-6005101D01*
X123477949Y-6015691D01*
X123472409Y-6025902D01*
X123466357Y-6035729D01*
X123459791Y-6045166D01*
X123452715Y-6054207D01*
X123445127Y-6062847D01*
X123437030Y-6071082D01*
X123428424Y-6078905D01*
X123419310Y-6086312D01*
X123409690Y-6093296D01*
X123399564Y-6099854D01*
X123388933Y-6105978D01*
X123377798Y-6111665D01*
X123366161Y-6116909D01*
X123354021Y-6121703D01*
X123341381Y-6126044D01*
X123328240Y-6129926D01*
X123314601Y-6133343D01*
X123300464Y-6136290D01*
X123285829Y-6138761D01*
X123250767Y-6143092D01*
X123215177Y-6146120D01*
X123179277Y-6147784D01*
X123143284Y-6148022D01*
X123107416Y-6146772D01*
X123089596Y-6145569D01*
X123071888Y-6143971D01*
X123054320Y-6141970D01*
X123036919Y-6139558D01*
X123019712Y-6136727D01*
X123002725Y-6133471D01*
X122982326Y-6128395D01*
X122962809Y-6122134D01*
X122944189Y-6114744D01*
X122926482Y-6106278D01*
X122909700Y-6096794D01*
X122893860Y-6086346D01*
X122878974Y-6074988D01*
X122865059Y-6062777D01*
X122852128Y-6049768D01*
X122840196Y-6036015D01*
X122829277Y-6021575D01*
X122819387Y-6006502D01*
X122810539Y-5990851D01*
X122802748Y-5974678D01*
X122796029Y-5958038D01*
X122790396Y-5940986D01*
X122785864Y-5923578D01*
X122782447Y-5905868D01*
X122780160Y-5887912D01*
X122779017Y-5869766D01*
X122779033Y-5851483D01*
X122780222Y-5833121D01*
X122782599Y-5814733D01*
X122786179Y-5796375D01*
X122790976Y-5778102D01*
X122797004Y-5759970D01*
X122804278Y-5742034D01*
X122812813Y-5724348D01*
X122822623Y-5706969D01*
X122833723Y-5689951D01*
X122846127Y-5673350D01*
X122859849Y-5657221D01*
X122879503Y-5636906D01*
X122899754Y-5617606D01*
X122920578Y-5599283D01*
X122941953Y-5581897D01*
X122963855Y-5565411D01*
X122986260Y-5549786D01*
X123009146Y-5534982D01*
X123032490Y-5520960D01*
X123056267Y-5507683D01*
X123080456Y-5495112D01*
X123105032Y-5483207D01*
X123129973Y-5471930D01*
X123155254Y-5461242D01*
X123180854Y-5451104D01*
X123206748Y-5441478D01*
X123232914Y-5432325D01*
X123299977Y-5410893D01*
X123367215Y-5392204D01*
X123434616Y-5376213D01*
X123502168Y-5362872D01*
X123569859Y-5352137D01*
X123637679Y-5343959D01*
X123705614Y-5338292D01*
X123773655Y-5335091D01*
X123841788Y-5334308D01*
X123910003Y-5335897D01*
X123978288Y-5339811D01*
X124046631Y-5346005D01*
X124115020Y-5354431D01*
X124183444Y-5365042D01*
X124251891Y-5377793D01*
X124320350Y-5392637D01*
X124349929Y-5400008D01*
X124378636Y-5408224D01*
X124406465Y-5417280D01*
X124433413Y-5427167D01*
X124459476Y-5437881D01*
X124484649Y-5449413D01*
X124508927Y-5461757D01*
X124532306Y-5474906D01*
X124554783Y-5488854D01*
X124576352Y-5503593D01*
X124597010Y-5519117D01*
X124616751Y-5535419D01*
X124635572Y-5552493D01*
X124653468Y-5570331D01*
X124670434Y-5588926D01*
X124686467Y-5608273D01*
X124701563Y-5628363D01*
X124715716Y-5649191D01*
X124728922Y-5670750D01*
X124741177Y-5693032D01*
X124752477Y-5716032D01*
X124762817Y-5739742D01*
X124772193Y-5764155D01*
X124780601Y-5789264D01*
X124788036Y-5815064D01*
X124794493Y-5841547D01*
X124799970Y-5868706D01*
X124804460Y-5896534D01*
X124807960Y-5925026D01*
X124810465Y-5954173D01*
X124811972Y-5983969D01*
X124812475Y-6014408D01*
X124810739Y-6288252D01*
X124806522Y-6562096D01*
X124796602Y-7109783D01*
X124796312Y-7147899D01*
X124796183Y-7167175D01*
X124796270Y-7186512D01*
X124796730Y-7205849D01*
X124797717Y-7225125D01*
X124799386Y-7244276D01*
X124800525Y-7253785D01*
X124801893Y-7263241D01*
X124805833Y-7283205D01*
X124810719Y-7302402D01*
X124816566Y-7320807D01*
X124823390Y-7338399D01*
X124831206Y-7355154D01*
X124840030Y-7371048D01*
X124849877Y-7386059D01*
X124860762Y-7400163D01*
X124872702Y-7413336D01*
X124885711Y-7425556D01*
X124899806Y-7436800D01*
X124915002Y-7447043D01*
X124931313Y-7456263D01*
X124948756Y-7464437D01*
X124967347Y-7471541D01*
X124987100Y-7477552D01*
X124992393Y-7482845D01*
X124995039Y-7493429D01*
X124988705Y-7531355D01*
X124984186Y-7564045D01*
X124978171Y-7615345D01*
X124975466Y-7634768D01*
X124972156Y-7650583D01*
X124970085Y-7657265D01*
X124967637Y-7663197D01*
X124964735Y-7668430D01*
X124961304Y-7673016D01*
X124957268Y-7677005D01*
X124952552Y-7680448D01*
X124947081Y-7683396D01*
X124940778Y-7685899D01*
X124933568Y-7688009D01*
X124925376Y-7689777D01*
X124905742Y-7692488D01*
X124881271Y-7694439D01*
X124851358Y-7696038D01*
X124772790Y-7699804D01*
X124749941Y-7701017D01*
X124727041Y-7701695D01*
X124681136Y-7701540D01*
X124635170Y-7699525D01*
X124589235Y-7695835D01*
X124543424Y-7690657D01*
X124497830Y-7684177D01*
X124452546Y-7676580D01*
X124407665Y-7668053D01*
X124384843Y-7662852D01*
X124363001Y-7656209D01*
X124342129Y-7648171D01*
X124322213Y-7638784D01*
X124303244Y-7628095D01*
X124285208Y-7616150D01*
X124268095Y-7602995D01*
X124251892Y-7588678D01*
X124236589Y-7573245D01*
X124222173Y-7556742D01*
X124208633Y-7539216D01*
X124195958Y-7520713D01*
X124184135Y-7501280D01*
X124173153Y-7480963D01*
X124163000Y-7459809D01*
X124153665Y-7437864D01*
X124147852Y-7423383D01*
X124142260Y-7410688D01*
X124139519Y-7405007D01*
X124136800Y-7399768D01*
X124134091Y-7394970D01*
X124131382Y-7390612D01*
X124128662Y-7386691D01*
X124125918Y-7383207D01*
X124123141Y-7380158D01*
X124120319Y-7377543D01*
X124117440Y-7375360D01*
X124114494Y-7373607D01*
X124111470Y-7372284D01*
X124108356Y-7371388D01*
X124105141Y-7370919D01*
X124101814Y-7370875D01*
X124098364Y-7371254D01*
X124094780Y-7372055D01*
X124091051Y-7373276D01*
X124087165Y-7374917D01*
X124083111Y-7376975D01*
X124078879Y-7379450D01*
X124074457Y-7382339D01*
X124069834Y-7385641D01*
X124064998Y-7389356D01*
X124059940Y-7393480D01*
X124049107Y-7402955D01*
X124037248Y-7414053D01*
X123990524Y-7457899D01*
X123942634Y-7498167D01*
X123893588Y-7534877D01*
X123843399Y-7568049D01*
X123792079Y-7597702D01*
X123739638Y-7623855D01*
X123686089Y-7646527D01*
X123631443Y-7665739D01*
X123575712Y-7681508D01*
X123518907Y-7693856D01*
X123461040Y-7702800D01*
X123402123Y-7708361D01*
X123342168Y-7710558D01*
X123281185Y-7709410D01*
X123219187Y-7704936D01*
X123156185Y-7697157D01*
X123111129Y-7689030D01*
X123067353Y-7677654D01*
X123025019Y-7663194D01*
X122984288Y-7645812D01*
X122945326Y-7625669D01*
X122908293Y-7602931D01*
X122873353Y-7577758D01*
X122840669Y-7550314D01*
X122810404Y-7520761D01*
X122782719Y-7489263D01*
X122757779Y-7455982D01*
X122735745Y-7421081D01*
X122716781Y-7384723D01*
X122708501Y-7366048D01*
X122701050Y-7347070D01*
X122694447Y-7327809D01*
X122688713Y-7308285D01*
X122683869Y-7288519D01*
X122679935Y-7268532D01*
X122673233Y-7217713D01*
X122669977Y-7167572D01*
X122670139Y-7118291D01*
X122673693Y-7070053D01*
X122680610Y-7023040D01*
X122681578Y-7018736D01*
X123397202Y-7018736D01*
X123397247Y-7041619D01*
X123398138Y-7064782D01*
X123399875Y-7088217D01*
X123402461Y-7111914D01*
X123405896Y-7135862D01*
X123410183Y-7160053D01*
X123415238Y-7183893D01*
X123421479Y-7206779D01*
X123428914Y-7228689D01*
X123437550Y-7249598D01*
X123447396Y-7269485D01*
X123458458Y-7288325D01*
X123470746Y-7306095D01*
X123484266Y-7322772D01*
X123499026Y-7338333D01*
X123515034Y-7352755D01*
X123532298Y-7366014D01*
X123550826Y-7378087D01*
X123570624Y-7388950D01*
X123591702Y-7398581D01*
X123614067Y-7406957D01*
X123637725Y-7414053D01*
X123652758Y-7417667D01*
X123668069Y-7420580D01*
X123699401Y-7424348D01*
X123731469Y-7425449D01*
X123764022Y-7423976D01*
X123796807Y-7420023D01*
X123829573Y-7413682D01*
X123862068Y-7405047D01*
X123894040Y-7394210D01*
X123925236Y-7381265D01*
X123955406Y-7366305D01*
X123984296Y-7349422D01*
X124011656Y-7330710D01*
X124037232Y-7310261D01*
X124060774Y-7288169D01*
X124082029Y-7264527D01*
X124091721Y-7252154D01*
X124100746Y-7239428D01*
X124102698Y-7236390D01*
X124104580Y-7233237D01*
X124106385Y-7229975D01*
X124108105Y-7226612D01*
X124109731Y-7223156D01*
X124111257Y-7219615D01*
X124112674Y-7215996D01*
X124113975Y-7212308D01*
X124115152Y-7208558D01*
X124116197Y-7204753D01*
X124117102Y-7200902D01*
X124117861Y-7197012D01*
X124118464Y-7193091D01*
X124118904Y-7189147D01*
X124119174Y-7185187D01*
X124119266Y-7181219D01*
X124125550Y-6800550D01*
X124129850Y-6421865D01*
X124129726Y-6415871D01*
X124129354Y-6409629D01*
X124128734Y-6402890D01*
X124127866Y-6395407D01*
X124126750Y-6386932D01*
X124125386Y-6377217D01*
X124122431Y-6356669D01*
X124068144Y-6380850D01*
X124012070Y-6404957D01*
X123901317Y-6451962D01*
X123846824Y-6475790D01*
X123793044Y-6500455D01*
X123740070Y-6526423D01*
X123687995Y-6554157D01*
X123666571Y-6566333D01*
X123645954Y-6579042D01*
X123626146Y-6592274D01*
X123607148Y-6606020D01*
X123588963Y-6620269D01*
X123571590Y-6635013D01*
X123555033Y-6650241D01*
X123539292Y-6665944D01*
X123524369Y-6682112D01*
X123510265Y-6698735D01*
X123496982Y-6715804D01*
X123484521Y-6733309D01*
X123472883Y-6751241D01*
X123462071Y-6769589D01*
X123452085Y-6788344D01*
X123442926Y-6807496D01*
X123434598Y-6827036D01*
X123427100Y-6846953D01*
X123420434Y-6867239D01*
X123414603Y-6887884D01*
X123409606Y-6908877D01*
X123405446Y-6930209D01*
X123402124Y-6951871D01*
X123399642Y-6973852D01*
X123398001Y-6996144D01*
X123397202Y-7018736D01*
X122681578Y-7018736D01*
X122690865Y-6977433D01*
X122704429Y-6933416D01*
G37*
G36*
X112596664Y-6437740D02*
G01*
X112600881Y-6379849D01*
X112607545Y-6323267D01*
X112616610Y-6268020D01*
X112628026Y-6214131D01*
X112641747Y-6161624D01*
X112657724Y-6110522D01*
X112675909Y-6060849D01*
X112696255Y-6012629D01*
X112718712Y-5965886D01*
X112743234Y-5920643D01*
X112769773Y-5876925D01*
X112798279Y-5834754D01*
X112828707Y-5794155D01*
X112861006Y-5755151D01*
X112895130Y-5717766D01*
X112931031Y-5682024D01*
X112968660Y-5647949D01*
X113007970Y-5615564D01*
X113048913Y-5584893D01*
X113091440Y-5555960D01*
X113135504Y-5528788D01*
X113181056Y-5503402D01*
X113228050Y-5479824D01*
X113276436Y-5458079D01*
X113326168Y-5438191D01*
X113377196Y-5420183D01*
X113429473Y-5404079D01*
X113482951Y-5389903D01*
X113537582Y-5377678D01*
X113593318Y-5367428D01*
X113650111Y-5359177D01*
X113707914Y-5352949D01*
X113768341Y-5348190D01*
X113828558Y-5344893D01*
X113888543Y-5343153D01*
X113948271Y-5343069D01*
X114007721Y-5344736D01*
X114066869Y-5348252D01*
X114125691Y-5353713D01*
X114184164Y-5361217D01*
X114242265Y-5370861D01*
X114299971Y-5382741D01*
X114357258Y-5396954D01*
X114414104Y-5413597D01*
X114470484Y-5432767D01*
X114526376Y-5454561D01*
X114581756Y-5479075D01*
X114636602Y-5506408D01*
X114680442Y-5530469D01*
X114722659Y-5556023D01*
X114763239Y-5583072D01*
X114802173Y-5611622D01*
X114839448Y-5641675D01*
X114875052Y-5673235D01*
X114908974Y-5706308D01*
X114941203Y-5740896D01*
X114971726Y-5777002D01*
X115000532Y-5814633D01*
X115027610Y-5853790D01*
X115052948Y-5894478D01*
X115076533Y-5936701D01*
X115098355Y-5980462D01*
X115118403Y-6025766D01*
X115136663Y-6072617D01*
X115138583Y-6078193D01*
X115140363Y-6083990D01*
X115141988Y-6089982D01*
X115143443Y-6096140D01*
X115144712Y-6102437D01*
X115145779Y-6108847D01*
X115146629Y-6115342D01*
X115147246Y-6121895D01*
X115147616Y-6128479D01*
X115147722Y-6135067D01*
X115147548Y-6141632D01*
X115147081Y-6148147D01*
X115146303Y-6154584D01*
X115145199Y-6160916D01*
X115143755Y-6167117D01*
X115141954Y-6173159D01*
X115129917Y-6216289D01*
X115119573Y-6259365D01*
X115110880Y-6302395D01*
X115103796Y-6345385D01*
X115098278Y-6388345D01*
X115094282Y-6431282D01*
X115091768Y-6474203D01*
X115090691Y-6517117D01*
X115091009Y-6560030D01*
X115092681Y-6602952D01*
X115095662Y-6645888D01*
X115099910Y-6688848D01*
X115105383Y-6731840D01*
X115112038Y-6774869D01*
X115119833Y-6817946D01*
X115128725Y-6861076D01*
X115130959Y-6871899D01*
X115132709Y-6882548D01*
X115133986Y-6893034D01*
X115134802Y-6903368D01*
X115135168Y-6913563D01*
X115135096Y-6923630D01*
X115134598Y-6933581D01*
X115133685Y-6943428D01*
X115132370Y-6953181D01*
X115130662Y-6962852D01*
X115128575Y-6972455D01*
X115126120Y-6981998D01*
X115123308Y-6991496D01*
X115120151Y-7000958D01*
X115116661Y-7010397D01*
X115112850Y-7019825D01*
X115080614Y-7085881D01*
X115045464Y-7148169D01*
X115007461Y-7206767D01*
X114966667Y-7261754D01*
X114923146Y-7313205D01*
X114876957Y-7361200D01*
X114828164Y-7405815D01*
X114776829Y-7447127D01*
X114723013Y-7485215D01*
X114666779Y-7520156D01*
X114608188Y-7552027D01*
X114547303Y-7580907D01*
X114484185Y-7606871D01*
X114418897Y-7629999D01*
X114351501Y-7650367D01*
X114282058Y-7668053D01*
X114234211Y-7678016D01*
X114186519Y-7686243D01*
X114139881Y-7692982D01*
X114095197Y-7698480D01*
X113954348Y-7712993D01*
X113891561Y-7711932D01*
X113828294Y-7709570D01*
X113766756Y-7705858D01*
X113706881Y-7700712D01*
X113648602Y-7694048D01*
X113591854Y-7685778D01*
X113536571Y-7675819D01*
X113482687Y-7664085D01*
X113430137Y-7650490D01*
X113378854Y-7634950D01*
X113328772Y-7617378D01*
X113279827Y-7597691D01*
X113231950Y-7575802D01*
X113185078Y-7551627D01*
X113139144Y-7525079D01*
X113094081Y-7496075D01*
X113059772Y-7471945D01*
X113026784Y-7447186D01*
X112995107Y-7421801D01*
X112964730Y-7395797D01*
X112935642Y-7369178D01*
X112907831Y-7341950D01*
X112881287Y-7314119D01*
X112855998Y-7285690D01*
X112831953Y-7256667D01*
X112809141Y-7227057D01*
X112787550Y-7196864D01*
X112767171Y-7166095D01*
X112747991Y-7134753D01*
X112729999Y-7102846D01*
X112713185Y-7070377D01*
X112697537Y-7037353D01*
X112683044Y-7003778D01*
X112669694Y-6969659D01*
X112657478Y-6934999D01*
X112646382Y-6899806D01*
X112627512Y-6827836D01*
X112612994Y-6753794D01*
X112602740Y-6677720D01*
X112596659Y-6599658D01*
X112594996Y-6532991D01*
X113348081Y-6532991D01*
X113377185Y-6532991D01*
X113376441Y-6608357D01*
X113375201Y-6683473D01*
X113374860Y-6720861D01*
X113374953Y-6758093D01*
X113375666Y-6795139D01*
X113377185Y-6831968D01*
X113383278Y-6910057D01*
X113387330Y-6948828D01*
X113392192Y-6987370D01*
X113397969Y-7025649D01*
X113404765Y-7063629D01*
X113412685Y-7101276D01*
X113421833Y-7138555D01*
X113432315Y-7175431D01*
X113444235Y-7211868D01*
X113457697Y-7247833D01*
X113472807Y-7283290D01*
X113489668Y-7318205D01*
X113508386Y-7352542D01*
X113529065Y-7386266D01*
X113551810Y-7419344D01*
X113568720Y-7441218D01*
X113586660Y-7461696D01*
X113605560Y-7480774D01*
X113625350Y-7498451D01*
X113645961Y-7514724D01*
X113667320Y-7529593D01*
X113689359Y-7543056D01*
X113712007Y-7555109D01*
X113735193Y-7565751D01*
X113758848Y-7574981D01*
X113782901Y-7582796D01*
X113807282Y-7589194D01*
X113831921Y-7594174D01*
X113856748Y-7597734D01*
X113881691Y-7599871D01*
X113906682Y-7600584D01*
X113931650Y-7599870D01*
X113956523Y-7597729D01*
X113981234Y-7594157D01*
X114005710Y-7589153D01*
X114029882Y-7582715D01*
X114053679Y-7574841D01*
X114077032Y-7565529D01*
X114099869Y-7554778D01*
X114122122Y-7542584D01*
X114143719Y-7528947D01*
X114164590Y-7513864D01*
X114184665Y-7497334D01*
X114203874Y-7479354D01*
X114222147Y-7459923D01*
X114239413Y-7439038D01*
X114255601Y-7416698D01*
X114267756Y-7398101D01*
X114279414Y-7379047D01*
X114290576Y-7359574D01*
X114301242Y-7339721D01*
X114311412Y-7319527D01*
X114321086Y-7299031D01*
X114330264Y-7278271D01*
X114338945Y-7257286D01*
X114347131Y-7236116D01*
X114354820Y-7214798D01*
X114362013Y-7193371D01*
X114368710Y-7171875D01*
X114374912Y-7150348D01*
X114380617Y-7128829D01*
X114385826Y-7107356D01*
X114390539Y-7085968D01*
X114403913Y-7018935D01*
X114415307Y-6951786D01*
X114424786Y-6884528D01*
X114432417Y-6817169D01*
X114438265Y-6749717D01*
X114442396Y-6682180D01*
X114444875Y-6614565D01*
X114445770Y-6546881D01*
X114445145Y-6479134D01*
X114443067Y-6411333D01*
X114434815Y-6275600D01*
X114421539Y-6139742D01*
X114403768Y-6003822D01*
X114394905Y-5952503D01*
X114389716Y-5927077D01*
X114383965Y-5901834D01*
X114377610Y-5876792D01*
X114370607Y-5851971D01*
X114362914Y-5827391D01*
X114354489Y-5803070D01*
X114345289Y-5779028D01*
X114335271Y-5755285D01*
X114324392Y-5731859D01*
X114312611Y-5708771D01*
X114299884Y-5686039D01*
X114286168Y-5663684D01*
X114271422Y-5641723D01*
X114255601Y-5620177D01*
X114240819Y-5601838D01*
X114225274Y-5584525D01*
X114209010Y-5568242D01*
X114192070Y-5552993D01*
X114174499Y-5538780D01*
X114156340Y-5525607D01*
X114137636Y-5513478D01*
X114118431Y-5502396D01*
X114098769Y-5492365D01*
X114078693Y-5483387D01*
X114058247Y-5475466D01*
X114037475Y-5468605D01*
X114016419Y-5462809D01*
X113995125Y-5458079D01*
X113973634Y-5454421D01*
X113951991Y-5451836D01*
X113930240Y-5450329D01*
X113908424Y-5449903D01*
X113886587Y-5450561D01*
X113864772Y-5452306D01*
X113843023Y-5455143D01*
X113821383Y-5459074D01*
X113799897Y-5464103D01*
X113778607Y-5470233D01*
X113757557Y-5477468D01*
X113736791Y-5485810D01*
X113716353Y-5495264D01*
X113696286Y-5505833D01*
X113676633Y-5517520D01*
X113657439Y-5530328D01*
X113638747Y-5544262D01*
X113620600Y-5559323D01*
X113602214Y-5575941D01*
X113584757Y-5593047D01*
X113568231Y-5610634D01*
X113552635Y-5628694D01*
X113537969Y-5647219D01*
X113524234Y-5666201D01*
X113511428Y-5685632D01*
X113499553Y-5705506D01*
X113488608Y-5725813D01*
X113478593Y-5746547D01*
X113469509Y-5767700D01*
X113461354Y-5789263D01*
X113454130Y-5811229D01*
X113447836Y-5833591D01*
X113442472Y-5856340D01*
X113438038Y-5879469D01*
X113424845Y-5960942D01*
X113412862Y-6042601D01*
X113391405Y-6206229D01*
X113350725Y-6532989D01*
X113348081Y-6532991D01*
X112594996Y-6532991D01*
X112594664Y-6519651D01*
X112596664Y-6437740D01*
G37*
G36*
X120200788Y-6416573D02*
G01*
X120205440Y-6361069D01*
X120212424Y-6306697D01*
X120221701Y-6253485D01*
X120233230Y-6201464D01*
X120246973Y-6150664D01*
X120262889Y-6101115D01*
X120280938Y-6052847D01*
X120301081Y-6005890D01*
X120323279Y-5960274D01*
X120347490Y-5916029D01*
X120373677Y-5873184D01*
X120401798Y-5831771D01*
X120431815Y-5791820D01*
X120463687Y-5753359D01*
X120497375Y-5716420D01*
X120532840Y-5681031D01*
X120570040Y-5647224D01*
X120608937Y-5615029D01*
X120649491Y-5584475D01*
X120691662Y-5555592D01*
X120735411Y-5528411D01*
X120780697Y-5502961D01*
X120827481Y-5479273D01*
X120875723Y-5457376D01*
X120925384Y-5437301D01*
X120976424Y-5419077D01*
X121028803Y-5402735D01*
X121082481Y-5388305D01*
X121137419Y-5375817D01*
X121193576Y-5365300D01*
X121250914Y-5356786D01*
X121309392Y-5350303D01*
X121367866Y-5345541D01*
X121426191Y-5342220D01*
X121484347Y-5340420D01*
X121542308Y-5340215D01*
X121600053Y-5341686D01*
X121657557Y-5344908D01*
X121714797Y-5349959D01*
X121771751Y-5356917D01*
X121828395Y-5365860D01*
X121884705Y-5376864D01*
X121940659Y-5390008D01*
X121996234Y-5405369D01*
X122051405Y-5423024D01*
X122106149Y-5443052D01*
X122160445Y-5465528D01*
X122214267Y-5490532D01*
X122257757Y-5513267D01*
X122299437Y-5537287D01*
X122339330Y-5562544D01*
X122377456Y-5588991D01*
X122413836Y-5616579D01*
X122448491Y-5645261D01*
X122481442Y-5674988D01*
X122512709Y-5705713D01*
X122542313Y-5737387D01*
X122570276Y-5769963D01*
X122596618Y-5803392D01*
X122621359Y-5837627D01*
X122644521Y-5872620D01*
X122666124Y-5908322D01*
X122686190Y-5944687D01*
X122704739Y-5981665D01*
X122721792Y-6019209D01*
X122737369Y-6057270D01*
X122751493Y-6095802D01*
X122764182Y-6134756D01*
X122775460Y-6174084D01*
X122785345Y-6213738D01*
X122801023Y-6293832D01*
X122811383Y-6374654D01*
X122816593Y-6455822D01*
X122816819Y-6536950D01*
X122812227Y-6617657D01*
X122812074Y-6622149D01*
X122811627Y-6626684D01*
X122810901Y-6631243D01*
X122809911Y-6635805D01*
X122808674Y-6640352D01*
X122807203Y-6644864D01*
X122805516Y-6649322D01*
X122803627Y-6653706D01*
X122801552Y-6657998D01*
X122799307Y-6662176D01*
X122796906Y-6666223D01*
X122794367Y-6670119D01*
X122791703Y-6673845D01*
X122788930Y-6677380D01*
X122786065Y-6680706D01*
X122783123Y-6683804D01*
X122759736Y-6708947D01*
X122738164Y-6734762D01*
X122718359Y-6761235D01*
X122700274Y-6788355D01*
X122683864Y-6816111D01*
X122669082Y-6844492D01*
X122655881Y-6873484D01*
X122644215Y-6903077D01*
X122634038Y-6933259D01*
X122625302Y-6964019D01*
X122617961Y-6995345D01*
X122611969Y-7027224D01*
X122607279Y-7059647D01*
X122603845Y-7092600D01*
X122601621Y-7126073D01*
X122600559Y-7160053D01*
X122600345Y-7167581D01*
X122599716Y-7175257D01*
X122598693Y-7183040D01*
X122597293Y-7190894D01*
X122595537Y-7198779D01*
X122593443Y-7206655D01*
X122591032Y-7214486D01*
X122588322Y-7222231D01*
X122585333Y-7229852D01*
X122582085Y-7237310D01*
X122578596Y-7244567D01*
X122574886Y-7251584D01*
X122570975Y-7258321D01*
X122566881Y-7264741D01*
X122562625Y-7270804D01*
X122558225Y-7276472D01*
X122516221Y-7323054D01*
X122472592Y-7366606D01*
X122427390Y-7407196D01*
X122380665Y-7444896D01*
X122332467Y-7479773D01*
X122282846Y-7511899D01*
X122231854Y-7541343D01*
X122179540Y-7568175D01*
X122125954Y-7592464D01*
X122071148Y-7614280D01*
X122015172Y-7633694D01*
X121958075Y-7650774D01*
X121899909Y-7665590D01*
X121840723Y-7678213D01*
X121780568Y-7688712D01*
X121719495Y-7697157D01*
X121526350Y-7713032D01*
X121521059Y-7713032D01*
X121459543Y-7711838D01*
X121399020Y-7709187D01*
X121339489Y-7704986D01*
X121280950Y-7699141D01*
X121223403Y-7691560D01*
X121166848Y-7682150D01*
X121111286Y-7670818D01*
X121056716Y-7657470D01*
X121003138Y-7642013D01*
X120950552Y-7624356D01*
X120898958Y-7604403D01*
X120848357Y-7582064D01*
X120798747Y-7557244D01*
X120750130Y-7529850D01*
X120702505Y-7499790D01*
X120655872Y-7466970D01*
X120623298Y-7442128D01*
X120592044Y-7416717D01*
X120562096Y-7390743D01*
X120533441Y-7364212D01*
X120506064Y-7337128D01*
X120479953Y-7309497D01*
X120455094Y-7281325D01*
X120431473Y-7252616D01*
X120409077Y-7223377D01*
X120387891Y-7193611D01*
X120367904Y-7163326D01*
X120349100Y-7132525D01*
X120331467Y-7101215D01*
X120314991Y-7069401D01*
X120285456Y-7004280D01*
X120260385Y-6937206D01*
X120239670Y-6868221D01*
X120223203Y-6797368D01*
X120210875Y-6724689D01*
X120202579Y-6650228D01*
X120198204Y-6574026D01*
X120197871Y-6527698D01*
X120946910Y-6527698D01*
X120949558Y-6530344D01*
X120978662Y-6530344D01*
X120977918Y-6610133D01*
X120976678Y-6690417D01*
X120976337Y-6730590D01*
X120976430Y-6770702D01*
X120977143Y-6810689D01*
X120978662Y-6850491D01*
X120983799Y-6915825D01*
X120991478Y-6980757D01*
X120996368Y-7013023D01*
X121002010Y-7045130D01*
X121008442Y-7077059D01*
X121015704Y-7108790D01*
X121023834Y-7140304D01*
X121032870Y-7171582D01*
X121042853Y-7202604D01*
X121053820Y-7233351D01*
X121065810Y-7263803D01*
X121078862Y-7293941D01*
X121093014Y-7323747D01*
X121108306Y-7353199D01*
X121124214Y-7381193D01*
X121141183Y-7407614D01*
X121159222Y-7432438D01*
X121178338Y-7455642D01*
X121188303Y-7466629D01*
X121198540Y-7477203D01*
X121209050Y-7487360D01*
X121219835Y-7497097D01*
X121230894Y-7506412D01*
X121242230Y-7515302D01*
X121253843Y-7523763D01*
X121265734Y-7531793D01*
X121277904Y-7539389D01*
X121290354Y-7546548D01*
X121303085Y-7553267D01*
X121316098Y-7559543D01*
X121329394Y-7565374D01*
X121342973Y-7570756D01*
X121356838Y-7575686D01*
X121370989Y-7580162D01*
X121385426Y-7584180D01*
X121400151Y-7587739D01*
X121415165Y-7590834D01*
X121430468Y-7593463D01*
X121446062Y-7595623D01*
X121461948Y-7597311D01*
X121478126Y-7598525D01*
X121494598Y-7599260D01*
X121527804Y-7599232D01*
X121559948Y-7597178D01*
X121591022Y-7593115D01*
X121621019Y-7587064D01*
X121649931Y-7579045D01*
X121677750Y-7569076D01*
X121704468Y-7557177D01*
X121730078Y-7543367D01*
X121754571Y-7527666D01*
X121777941Y-7510093D01*
X121800179Y-7490667D01*
X121821277Y-7469408D01*
X121841228Y-7446336D01*
X121860024Y-7421469D01*
X121877658Y-7394826D01*
X121894121Y-7366428D01*
X121907747Y-7339397D01*
X121920785Y-7311900D01*
X121933141Y-7283969D01*
X121944721Y-7255635D01*
X121955434Y-7226928D01*
X121965186Y-7197881D01*
X121973883Y-7168524D01*
X121977807Y-7153738D01*
X121981433Y-7138887D01*
X121996699Y-7067886D01*
X122009799Y-6996772D01*
X122020797Y-6925557D01*
X122029761Y-6854253D01*
X122036756Y-6782872D01*
X122041848Y-6711424D01*
X122045103Y-6639923D01*
X122046587Y-6568379D01*
X122046365Y-6496804D01*
X122044504Y-6425209D01*
X122036127Y-6282009D01*
X122021983Y-6138871D01*
X122002599Y-5995888D01*
X121998376Y-5969691D01*
X121993618Y-5943699D01*
X121988287Y-5917933D01*
X121982343Y-5892410D01*
X121975747Y-5867151D01*
X121968462Y-5842175D01*
X121960449Y-5817502D01*
X121951668Y-5793150D01*
X121942080Y-5769139D01*
X121931648Y-5745489D01*
X121920332Y-5722218D01*
X121908094Y-5699347D01*
X121894895Y-5676894D01*
X121880695Y-5654879D01*
X121865457Y-5633322D01*
X121849142Y-5612241D01*
X121834359Y-5594863D01*
X121818816Y-5578450D01*
X121802556Y-5563005D01*
X121785626Y-5548534D01*
X121768069Y-5535039D01*
X121749932Y-5522525D01*
X121731259Y-5510996D01*
X121712095Y-5500454D01*
X121692486Y-5490905D01*
X121672475Y-5482352D01*
X121652110Y-5474799D01*
X121631433Y-5468250D01*
X121610492Y-5462708D01*
X121589329Y-5458178D01*
X121567992Y-5454663D01*
X121546524Y-5452168D01*
X121524971Y-5450696D01*
X121503377Y-5450251D01*
X121481789Y-5450837D01*
X121460250Y-5452457D01*
X121438806Y-5455117D01*
X121417503Y-5458819D01*
X121396384Y-5463567D01*
X121375495Y-5469366D01*
X121354882Y-5476219D01*
X121334589Y-5484130D01*
X121314661Y-5493103D01*
X121295144Y-5503141D01*
X121276081Y-5514250D01*
X121257520Y-5526432D01*
X121239504Y-5539691D01*
X121222078Y-5554032D01*
X121203196Y-5570681D01*
X121185248Y-5587875D01*
X121168238Y-5605605D01*
X121152170Y-5623858D01*
X121137048Y-5642622D01*
X121122875Y-5661886D01*
X121109655Y-5681639D01*
X121097393Y-5701868D01*
X121086092Y-5722563D01*
X121075756Y-5743711D01*
X121066389Y-5765300D01*
X121057995Y-5787320D01*
X121050577Y-5809759D01*
X121044140Y-5832604D01*
X121038687Y-5855845D01*
X121034223Y-5879469D01*
X121021030Y-5959955D01*
X121009047Y-6040659D01*
X120987591Y-6202592D01*
X120946910Y-6527698D01*
X120197871Y-6527698D01*
X120197644Y-6496127D01*
X120200788Y-6416573D01*
G37*
G36*
X113956623Y-7713032D02*
G01*
X113953975Y-7713032D01*
X113954348Y-7712993D01*
X113956623Y-7713032D01*
G37*
G36*
X109375518Y-5345325D02*
G01*
X109448123Y-5350304D01*
X109501685Y-5355254D01*
X109555155Y-5362127D01*
X109608438Y-5370861D01*
X109661443Y-5381393D01*
X109714075Y-5393661D01*
X109766242Y-5407603D01*
X109817851Y-5423158D01*
X109868809Y-5440263D01*
X109906712Y-5455492D01*
X109942960Y-5472426D01*
X109977448Y-5491097D01*
X110010072Y-5511535D01*
X110040727Y-5533771D01*
X110055284Y-5545573D01*
X110069309Y-5557836D01*
X110082790Y-5570565D01*
X110095713Y-5583762D01*
X110108065Y-5597433D01*
X110119833Y-5611580D01*
X110131005Y-5626207D01*
X110141567Y-5641319D01*
X110151505Y-5656920D01*
X110160808Y-5673012D01*
X110169461Y-5689601D01*
X110177452Y-5706690D01*
X110184768Y-5724282D01*
X110191395Y-5742383D01*
X110197321Y-5760994D01*
X110202532Y-5780122D01*
X110207016Y-5799768D01*
X110210758Y-5819938D01*
X110213747Y-5840635D01*
X110215969Y-5861863D01*
X110217411Y-5883626D01*
X110218060Y-5905928D01*
X110217727Y-5925732D01*
X110216730Y-5944959D01*
X110215071Y-5963605D01*
X110212753Y-5981665D01*
X110209778Y-5999136D01*
X110206148Y-6016014D01*
X110201866Y-6032296D01*
X110196935Y-6047976D01*
X110191356Y-6063052D01*
X110185132Y-6077520D01*
X110178266Y-6091375D01*
X110170760Y-6104614D01*
X110162617Y-6117233D01*
X110153838Y-6129228D01*
X110144427Y-6140595D01*
X110134385Y-6151330D01*
X110123716Y-6161429D01*
X110112421Y-6170889D01*
X110100503Y-6179706D01*
X110087964Y-6187875D01*
X110074807Y-6195394D01*
X110061035Y-6202257D01*
X110046649Y-6208462D01*
X110031652Y-6214003D01*
X110016047Y-6218878D01*
X109999836Y-6223083D01*
X109983021Y-6226613D01*
X109965605Y-6229465D01*
X109947590Y-6231635D01*
X109928978Y-6233119D01*
X109909773Y-6233912D01*
X109889976Y-6234013D01*
X109863084Y-6233630D01*
X109836067Y-6232442D01*
X109809051Y-6230385D01*
X109782158Y-6227398D01*
X109755514Y-6223418D01*
X109729241Y-6218385D01*
X109716283Y-6215454D01*
X109703465Y-6212236D01*
X109690802Y-6208723D01*
X109678309Y-6204908D01*
X109664674Y-6200040D01*
X109651551Y-6194863D01*
X109638939Y-6189375D01*
X109626839Y-6183576D01*
X109615251Y-6177468D01*
X109604174Y-6171050D01*
X109593609Y-6164322D01*
X109583555Y-6157283D01*
X109574013Y-6149935D01*
X109564983Y-6142277D01*
X109556464Y-6134308D01*
X109548457Y-6126029D01*
X109540961Y-6117441D01*
X109533977Y-6108542D01*
X109527504Y-6099333D01*
X109521544Y-6089814D01*
X109516094Y-6079985D01*
X109511157Y-6069847D01*
X109506731Y-6059398D01*
X109502816Y-6048638D01*
X109499413Y-6037569D01*
X109496522Y-6026190D01*
X109494142Y-6014501D01*
X109492274Y-6002502D01*
X109490918Y-5990192D01*
X109490073Y-5977573D01*
X109489740Y-5964643D01*
X109489918Y-5951404D01*
X109490608Y-5937854D01*
X109491809Y-5923995D01*
X109493522Y-5909825D01*
X109495747Y-5895346D01*
X109501292Y-5865694D01*
X109507860Y-5836228D01*
X109515235Y-5806887D01*
X109523198Y-5777607D01*
X109540024Y-5718985D01*
X109548452Y-5689519D01*
X109556601Y-5659867D01*
X109560817Y-5640955D01*
X109563536Y-5622919D01*
X109564332Y-5614231D01*
X109564752Y-5605766D01*
X109564793Y-5597523D01*
X109564456Y-5589505D01*
X109563739Y-5581711D01*
X109562641Y-5574142D01*
X109561161Y-5566801D01*
X109559299Y-5559687D01*
X109557052Y-5552802D01*
X109554422Y-5546147D01*
X109551405Y-5539722D01*
X109548002Y-5533529D01*
X109544212Y-5527568D01*
X109540032Y-5521841D01*
X109535464Y-5516348D01*
X109530505Y-5511091D01*
X109525154Y-5506070D01*
X109519411Y-5501286D01*
X109513275Y-5496741D01*
X109506744Y-5492436D01*
X109499818Y-5488370D01*
X109492496Y-5484546D01*
X109484776Y-5480964D01*
X109476658Y-5477625D01*
X109468141Y-5474531D01*
X109459224Y-5471681D01*
X109449906Y-5469078D01*
X109440185Y-5466722D01*
X109410203Y-5460737D01*
X109380783Y-5456670D01*
X109351929Y-5454519D01*
X109323644Y-5454278D01*
X109295933Y-5455944D01*
X109268800Y-5459512D01*
X109242248Y-5464980D01*
X109216281Y-5472344D01*
X109190904Y-5481598D01*
X109166119Y-5492740D01*
X109141931Y-5505766D01*
X109118344Y-5520671D01*
X109095362Y-5537453D01*
X109072988Y-5556106D01*
X109051226Y-5576628D01*
X109030081Y-5599013D01*
X109008522Y-5625176D01*
X108988456Y-5652049D01*
X108969823Y-5679596D01*
X108952566Y-5707782D01*
X108936627Y-5736573D01*
X108921948Y-5765933D01*
X108908470Y-5795829D01*
X108896135Y-5826224D01*
X108884886Y-5857085D01*
X108874664Y-5888375D01*
X108865411Y-5920061D01*
X108857068Y-5952108D01*
X108849578Y-5984480D01*
X108842883Y-6017142D01*
X108836924Y-6050061D01*
X108831644Y-6083200D01*
X108817247Y-6182533D01*
X108806260Y-6282051D01*
X108802259Y-6331861D01*
X108799367Y-6381694D01*
X108797668Y-6431542D01*
X108797248Y-6481399D01*
X108798192Y-6531255D01*
X108800586Y-6581103D01*
X108804515Y-6630936D01*
X108810064Y-6680746D01*
X108817318Y-6730524D01*
X108826362Y-6780264D01*
X108837283Y-6829958D01*
X108850164Y-6879597D01*
X108861113Y-6914942D01*
X108873139Y-6949536D01*
X108886267Y-6983369D01*
X108900518Y-7016436D01*
X108915916Y-7048727D01*
X108932485Y-7080235D01*
X108950248Y-7110953D01*
X108969227Y-7140872D01*
X108989447Y-7169985D01*
X109010930Y-7198284D01*
X109033700Y-7225762D01*
X109057780Y-7252410D01*
X109083193Y-7278221D01*
X109109962Y-7303187D01*
X109138112Y-7327300D01*
X109167664Y-7350554D01*
X109188921Y-7365424D01*
X109211461Y-7379260D01*
X109235205Y-7392034D01*
X109260072Y-7403719D01*
X109285982Y-7414287D01*
X109312853Y-7423712D01*
X109340607Y-7431967D01*
X109369161Y-7439024D01*
X109428353Y-7449437D01*
X109489785Y-7454734D01*
X109521139Y-7455396D01*
X109552813Y-7454698D01*
X109584725Y-7452612D01*
X109616795Y-7449111D01*
X109648942Y-7444169D01*
X109681087Y-7437758D01*
X109713148Y-7429851D01*
X109745046Y-7420420D01*
X109776699Y-7409440D01*
X109808027Y-7396882D01*
X109838951Y-7382719D01*
X109869389Y-7366925D01*
X109899262Y-7349472D01*
X109928488Y-7330333D01*
X109956987Y-7309481D01*
X109984680Y-7286889D01*
X110011484Y-7262529D01*
X110037321Y-7236375D01*
X110062110Y-7208400D01*
X110085769Y-7178575D01*
X110111608Y-7143187D01*
X110137694Y-7107799D01*
X110164276Y-7071418D01*
X110191602Y-7033052D01*
X110188955Y-7025116D01*
X110244187Y-7065795D01*
X110270439Y-7085019D01*
X110297434Y-7104492D01*
X110260253Y-7165506D01*
X110221113Y-7223508D01*
X110179982Y-7278464D01*
X110136824Y-7330339D01*
X110091604Y-7379098D01*
X110044287Y-7424705D01*
X109994839Y-7467127D01*
X109943224Y-7506328D01*
X109889407Y-7542273D01*
X109833354Y-7574928D01*
X109775031Y-7604258D01*
X109714401Y-7630227D01*
X109651430Y-7652801D01*
X109586083Y-7671945D01*
X109518326Y-7687625D01*
X109448123Y-7699804D01*
X109408467Y-7705141D01*
X109368882Y-7709261D01*
X109329374Y-7712187D01*
X109289951Y-7713943D01*
X109250621Y-7714551D01*
X109211393Y-7714036D01*
X109172272Y-7712420D01*
X109133268Y-7709726D01*
X109094388Y-7705979D01*
X109055640Y-7701200D01*
X109017031Y-7695413D01*
X108978570Y-7688643D01*
X108940263Y-7680910D01*
X108902120Y-7672240D01*
X108864147Y-7662656D01*
X108826352Y-7652180D01*
X108749308Y-7627560D01*
X108675958Y-7599335D01*
X108606336Y-7567499D01*
X108540478Y-7532042D01*
X108478418Y-7492958D01*
X108420191Y-7450239D01*
X108365831Y-7403876D01*
X108315375Y-7353862D01*
X108268857Y-7300190D01*
X108226311Y-7242851D01*
X108187773Y-7181838D01*
X108153277Y-7117143D01*
X108122858Y-7048758D01*
X108096551Y-6976676D01*
X108074392Y-6900888D01*
X108056414Y-6821388D01*
X108042256Y-6739137D01*
X108032571Y-6658106D01*
X108027428Y-6578339D01*
X108026897Y-6499878D01*
X108031047Y-6422765D01*
X108039950Y-6347045D01*
X108053674Y-6272758D01*
X108072289Y-6199947D01*
X108095865Y-6128656D01*
X108124472Y-6058927D01*
X108158179Y-5990803D01*
X108197057Y-5924326D01*
X108241174Y-5859538D01*
X108290601Y-5796483D01*
X108345408Y-5735203D01*
X108405664Y-5675741D01*
X108461060Y-5627234D01*
X108518065Y-5582863D01*
X108576613Y-5542546D01*
X108636637Y-5506201D01*
X108698072Y-5473748D01*
X108760852Y-5445104D01*
X108824910Y-5420189D01*
X108890182Y-5398921D01*
X108956602Y-5381218D01*
X109024102Y-5367000D01*
X109092618Y-5356185D01*
X109162083Y-5348691D01*
X109232432Y-5344438D01*
X109303599Y-5343343D01*
X109375518Y-5345325D01*
G37*
G36*
X116519297Y-5348406D02*
G01*
X116591873Y-5352948D01*
X116645435Y-5357899D01*
X116698904Y-5364772D01*
X116752188Y-5373505D01*
X116805192Y-5384037D01*
X116857824Y-5396305D01*
X116909991Y-5410247D01*
X116961600Y-5425802D01*
X117012558Y-5442906D01*
X117034292Y-5451361D01*
X117055343Y-5460348D01*
X117075708Y-5469855D01*
X117095385Y-5479871D01*
X117114371Y-5490385D01*
X117132667Y-5501386D01*
X117150268Y-5512862D01*
X117167174Y-5524804D01*
X117183381Y-5537198D01*
X117198890Y-5550035D01*
X117213697Y-5563303D01*
X117227800Y-5576991D01*
X117241198Y-5591089D01*
X117253889Y-5605583D01*
X117265871Y-5620465D01*
X117277141Y-5635722D01*
X117287698Y-5651343D01*
X117297540Y-5667317D01*
X117306665Y-5683633D01*
X117315071Y-5700281D01*
X117322757Y-5717248D01*
X117329719Y-5734523D01*
X117335957Y-5752097D01*
X117341467Y-5769956D01*
X117346250Y-5788091D01*
X117350301Y-5806489D01*
X117353621Y-5825141D01*
X117356205Y-5844034D01*
X117358054Y-5863158D01*
X117359164Y-5882502D01*
X117359533Y-5902054D01*
X117359161Y-5921803D01*
X117358122Y-5940623D01*
X117356495Y-5958882D01*
X117354280Y-5976579D01*
X117351477Y-5993710D01*
X117348087Y-6010274D01*
X117344110Y-6026267D01*
X117339547Y-6041688D01*
X117334398Y-6056533D01*
X117328664Y-6070802D01*
X117322345Y-6084490D01*
X117315442Y-6097596D01*
X117307955Y-6110117D01*
X117299885Y-6122051D01*
X117291232Y-6133395D01*
X117281997Y-6144147D01*
X117272180Y-6154305D01*
X117261781Y-6163866D01*
X117250802Y-6172828D01*
X117239242Y-6181188D01*
X117227102Y-6188944D01*
X117214383Y-6196093D01*
X117201085Y-6202634D01*
X117187209Y-6208562D01*
X117172754Y-6213878D01*
X117157723Y-6218577D01*
X117142114Y-6222657D01*
X117125928Y-6226116D01*
X117109167Y-6228952D01*
X117091830Y-6231161D01*
X117073918Y-6232743D01*
X117055431Y-6233693D01*
X117036371Y-6234011D01*
X117010465Y-6233742D01*
X116984405Y-6232853D01*
X116958282Y-6231220D01*
X116932190Y-6228719D01*
X116906223Y-6225226D01*
X116893315Y-6223069D01*
X116880473Y-6220617D01*
X116867708Y-6217855D01*
X116855033Y-6214768D01*
X116842458Y-6211339D01*
X116829996Y-6207554D01*
X116815159Y-6202678D01*
X116800910Y-6197476D01*
X116787245Y-6191948D01*
X116774164Y-6186093D01*
X116761665Y-6179910D01*
X116749745Y-6173399D01*
X116738402Y-6166560D01*
X116727635Y-6159392D01*
X116717441Y-6151894D01*
X116707820Y-6144066D01*
X116698767Y-6135908D01*
X116690283Y-6127419D01*
X116682365Y-6118599D01*
X116675010Y-6109447D01*
X116668217Y-6099962D01*
X116661985Y-6090145D01*
X116656311Y-6079994D01*
X116651192Y-6069510D01*
X116646628Y-6058691D01*
X116642616Y-6047537D01*
X116639155Y-6036049D01*
X116636242Y-6024224D01*
X116633875Y-6012063D01*
X116632053Y-5999566D01*
X116630774Y-5986731D01*
X116630035Y-5973559D01*
X116629835Y-5960049D01*
X116630172Y-5946200D01*
X116631044Y-5932011D01*
X116632448Y-5917484D01*
X116634384Y-5902616D01*
X116636848Y-5887407D01*
X116643261Y-5857756D01*
X116650450Y-5828290D01*
X116658196Y-5798948D01*
X116666284Y-5769668D01*
X116682614Y-5711047D01*
X116690423Y-5681581D01*
X116697704Y-5651929D01*
X116701457Y-5634880D01*
X116702801Y-5626595D01*
X116703791Y-5618474D01*
X116704429Y-5610519D01*
X116704715Y-5602734D01*
X116704650Y-5595122D01*
X116704235Y-5587685D01*
X116703472Y-5580426D01*
X116702361Y-5573349D01*
X116700902Y-5566455D01*
X116699098Y-5559749D01*
X116696950Y-5553232D01*
X116694457Y-5546909D01*
X116691621Y-5540781D01*
X116688443Y-5534851D01*
X116684924Y-5529123D01*
X116681065Y-5523600D01*
X116676866Y-5518284D01*
X116672330Y-5513178D01*
X116667456Y-5508286D01*
X116662247Y-5503609D01*
X116656701Y-5499151D01*
X116650822Y-5494916D01*
X116644609Y-5490905D01*
X116638064Y-5487122D01*
X116631188Y-5483569D01*
X116623981Y-5480250D01*
X116616445Y-5477167D01*
X116608580Y-5474324D01*
X116600388Y-5471723D01*
X116591869Y-5469367D01*
X116561331Y-5462422D01*
X116531247Y-5457466D01*
X116501636Y-5454502D01*
X116472517Y-5453533D01*
X116443910Y-5454565D01*
X116415834Y-5457600D01*
X116388308Y-5462643D01*
X116361352Y-5469698D01*
X116334984Y-5478768D01*
X116309226Y-5489857D01*
X116284095Y-5502969D01*
X116259611Y-5518108D01*
X116235794Y-5535279D01*
X116212663Y-5554484D01*
X116190238Y-5575727D01*
X116168537Y-5599013D01*
X116146978Y-5625176D01*
X116126911Y-5652049D01*
X116108279Y-5679596D01*
X116091022Y-5707782D01*
X116075083Y-5736573D01*
X116060404Y-5765933D01*
X116046926Y-5795829D01*
X116034591Y-5826224D01*
X116023342Y-5857085D01*
X116013120Y-5888375D01*
X116003866Y-5920061D01*
X115995524Y-5952108D01*
X115988034Y-5984480D01*
X115981339Y-6017142D01*
X115975380Y-6050061D01*
X115970100Y-6083200D01*
X115955702Y-6182528D01*
X115944716Y-6282010D01*
X115940714Y-6331780D01*
X115937822Y-6381555D01*
X115936123Y-6431321D01*
X115935703Y-6481068D01*
X115936648Y-6530784D01*
X115939042Y-6580457D01*
X115942970Y-6630076D01*
X115948519Y-6679630D01*
X115955773Y-6729105D01*
X115964818Y-6778492D01*
X115975739Y-6827778D01*
X115988620Y-6876951D01*
X115995874Y-6901076D01*
X116003740Y-6924840D01*
X116012211Y-6948255D01*
X116021279Y-6971333D01*
X116030936Y-6994086D01*
X116041174Y-7016525D01*
X116051986Y-7038661D01*
X116063364Y-7060507D01*
X116075300Y-7082073D01*
X116087786Y-7103372D01*
X116100815Y-7124416D01*
X116114379Y-7145215D01*
X116128470Y-7165781D01*
X116143080Y-7186127D01*
X116158202Y-7206263D01*
X116173828Y-7226202D01*
X116199733Y-7256488D01*
X116226788Y-7284381D01*
X116254901Y-7309936D01*
X116283981Y-7333208D01*
X116313937Y-7354254D01*
X116344677Y-7373129D01*
X116376112Y-7389888D01*
X116408149Y-7404588D01*
X116440698Y-7417285D01*
X116473667Y-7428033D01*
X116506965Y-7436889D01*
X116540502Y-7443909D01*
X116574187Y-7449148D01*
X116607927Y-7452661D01*
X116641633Y-7454505D01*
X116675212Y-7454735D01*
X116708575Y-7453407D01*
X116741630Y-7450577D01*
X116806450Y-7440633D01*
X116868945Y-7425348D01*
X116928386Y-7405168D01*
X116984044Y-7380538D01*
X117035191Y-7351905D01*
X117081098Y-7319714D01*
X117101859Y-7302423D01*
X117121036Y-7284410D01*
X117148481Y-7256143D01*
X117175400Y-7226946D01*
X117202008Y-7196881D01*
X117228523Y-7166009D01*
X117337995Y-7035702D01*
X117337997Y-7033052D01*
X117349045Y-7040246D01*
X117360404Y-7047936D01*
X117372134Y-7056122D01*
X117384299Y-7064804D01*
X117410178Y-7083655D01*
X117438537Y-7104490D01*
X117426443Y-7127154D01*
X117413965Y-7149500D01*
X117401092Y-7171521D01*
X117387812Y-7193208D01*
X117374113Y-7214555D01*
X117359984Y-7235552D01*
X117345413Y-7256193D01*
X117330389Y-7276469D01*
X117314899Y-7296374D01*
X117298933Y-7315899D01*
X117282479Y-7335036D01*
X117265525Y-7353777D01*
X117248059Y-7372116D01*
X117230070Y-7390043D01*
X117211546Y-7407552D01*
X117192476Y-7424635D01*
X117149407Y-7460256D01*
X117105525Y-7493680D01*
X117060821Y-7524879D01*
X117015287Y-7553826D01*
X116968917Y-7580494D01*
X116921701Y-7604856D01*
X116873633Y-7626885D01*
X116824705Y-7646554D01*
X116774908Y-7663835D01*
X116724236Y-7678702D01*
X116672679Y-7691127D01*
X116620232Y-7701083D01*
X116566885Y-7708543D01*
X116512632Y-7713481D01*
X116457463Y-7715868D01*
X116401372Y-7715677D01*
X116318292Y-7712148D01*
X116276967Y-7709160D01*
X116235801Y-7705301D01*
X116194805Y-7700526D01*
X116153992Y-7694794D01*
X116113372Y-7688063D01*
X116072957Y-7680289D01*
X116032760Y-7671429D01*
X115992791Y-7661442D01*
X115953063Y-7650284D01*
X115913587Y-7637913D01*
X115874374Y-7624287D01*
X115835437Y-7609362D01*
X115796786Y-7593096D01*
X115758434Y-7575447D01*
X115700975Y-7545003D01*
X115646647Y-7512226D01*
X115595420Y-7477140D01*
X115547263Y-7439766D01*
X115502144Y-7400129D01*
X115460033Y-7358252D01*
X115420898Y-7314158D01*
X115384709Y-7267870D01*
X115351434Y-7219412D01*
X115321044Y-7168807D01*
X115293505Y-7116077D01*
X115268789Y-7061247D01*
X115246862Y-7004340D01*
X115227696Y-6945379D01*
X115211258Y-6884386D01*
X115197517Y-6821386D01*
X115183360Y-6739135D01*
X115173679Y-6658109D01*
X115168548Y-6578354D01*
X115168041Y-6499917D01*
X115172231Y-6422844D01*
X115181192Y-6347182D01*
X115194998Y-6272977D01*
X115213723Y-6200276D01*
X115237439Y-6129125D01*
X115266221Y-6059572D01*
X115300142Y-5991661D01*
X115339276Y-5925440D01*
X115383696Y-5860956D01*
X115433477Y-5798254D01*
X115488691Y-5737382D01*
X115549413Y-5678386D01*
X115605246Y-5629908D01*
X115662574Y-5585616D01*
X115721345Y-5545417D01*
X115781503Y-5509218D01*
X115842994Y-5476925D01*
X115905764Y-5448446D01*
X115969759Y-5423688D01*
X116034924Y-5402557D01*
X116101205Y-5384962D01*
X116168549Y-5370808D01*
X116236900Y-5360002D01*
X116306205Y-5352452D01*
X116376409Y-5348065D01*
X116447457Y-5346747D01*
X116519297Y-5348406D01*
G37*
D11*
%TO.C,MCU1*%
%TO.C,PAD2*%
X124593104Y15903842D02*
X124707390Y15865747D01*
X124745485Y15827652D01*
X124783580Y15751461D01*
X124783580Y15637176D01*
X124745485Y15560985D01*
X124707390Y15522890D01*
X124631200Y15484795D01*
X124326438Y15484795D01*
X124326438Y16284795D01*
X124593104Y16284795D01*
X124669295Y16246700D01*
X124707390Y16208604D01*
X124745485Y16132414D01*
X124745485Y16056223D01*
X124707390Y15980033D01*
X124669295Y15941938D01*
X124593104Y15903842D01*
X124326438Y15903842D01*
X125126438Y15789557D02*
X125735961Y15789557D01*
%TO.C,PAD1*%
X124593104Y12903842D02*
X124707390Y12865747D01*
X124745485Y12827652D01*
X124783580Y12751461D01*
X124783580Y12637176D01*
X124745485Y12560985D01*
X124707390Y12522890D01*
X124631200Y12484795D01*
X124326438Y12484795D01*
X124326438Y13284795D01*
X124593104Y13284795D01*
X124669295Y13246700D01*
X124707390Y13208604D01*
X124745485Y13132414D01*
X124745485Y13056223D01*
X124707390Y12980033D01*
X124669295Y12941938D01*
X124593104Y12903842D01*
X124326438Y12903842D01*
X125126438Y12789557D02*
X125735961Y12789557D01*
X125431200Y12484795D02*
X125431200Y13094319D01*
%TO.C,B1*%
X132060000Y4020000D02*
X133560000Y2520000D01*
X132060000Y-1480000D02*
X129560000Y-1480000D01*
X128060000Y2520000D02*
X128060000Y20000D01*
X132060000Y-1480000D02*
X133560000Y20000D01*
X129560000Y-1480000D02*
X128060000Y20000D01*
X129560000Y4020000D02*
X128060000Y2520000D01*
X132060000Y4020000D02*
X129560000Y4020000D01*
X133560000Y2520000D02*
X133560000Y20000D01*
D12*
%TO.C,D15*%
X56931200Y21846700D02*
X57531200Y22246700D01*
X57531200Y21846700D02*
X58031200Y21846700D01*
X56931200Y21846700D02*
X56931200Y21296700D01*
X56931200Y21846700D02*
X56931200Y22396700D01*
X57531200Y21446700D02*
X56931200Y21846700D01*
X56531200Y21846700D02*
X56931200Y21846700D01*
X57531200Y22246700D02*
X57531200Y21446700D01*
%TO.C,D26*%
X93931200Y-40153300D02*
X94531200Y-39753300D01*
X94531200Y-39753300D02*
X94531200Y-40553300D01*
X94531200Y-40153300D02*
X95031200Y-40153300D01*
X93931200Y-40153300D02*
X93931200Y-39603300D01*
X94531200Y-40553300D02*
X93931200Y-40153300D01*
X93931200Y-40153300D02*
X93931200Y-40703300D01*
X93531200Y-40153300D02*
X93931200Y-40153300D01*
%TO.C,D5*%
X19531200Y-22153300D02*
X20031200Y-22153300D01*
X18931200Y-22153300D02*
X18931200Y-21603300D01*
X18531200Y-22153300D02*
X18931200Y-22153300D01*
X19531200Y-22553300D02*
X18931200Y-22153300D01*
X18931200Y-22153300D02*
X18931200Y-22703300D01*
X18931200Y-22153300D02*
X19531200Y-21753300D01*
X19531200Y-21753300D02*
X19531200Y-22553300D01*
%TO.C,D27*%
X112111731Y-49292385D02*
X112487608Y-49429193D01*
X112487608Y-49429193D02*
X112299497Y-49946024D01*
X113051423Y-49634405D02*
X113521269Y-49805415D01*
X112914615Y-50010282D02*
X112487608Y-49429193D01*
X112487608Y-49429193D02*
X112675719Y-48912362D01*
X112487608Y-49429193D02*
X113188231Y-49258528D01*
X113188231Y-49258528D02*
X112914615Y-50010282D01*
%TO.C,D17*%
X76531200Y-18153300D02*
X77031200Y-18153300D01*
X75931200Y-18153300D02*
X75931200Y-18703300D01*
X76531200Y-18553300D02*
X75931200Y-18153300D01*
X75531200Y-18153300D02*
X75931200Y-18153300D01*
X75931200Y-18153300D02*
X76531200Y-17753300D01*
X76531200Y-17753300D02*
X76531200Y-18553300D01*
X75931200Y-18153300D02*
X75931200Y-17603300D01*
%TO.C,D4*%
X-68800Y28846700D02*
X531200Y29246700D01*
X531200Y28846700D02*
X1031200Y28846700D01*
X531200Y28446700D02*
X-68800Y28846700D01*
X531200Y29246700D02*
X531200Y28446700D01*
X-68800Y28846700D02*
X-68800Y28296700D01*
X-468800Y28846700D02*
X-68800Y28846700D01*
X-68800Y28846700D02*
X-68800Y29396700D01*
%TO.C,D10*%
X37931200Y-153300D02*
X38531200Y246700D01*
X38531200Y246700D02*
X38531200Y-553300D01*
X37931200Y-153300D02*
X37931200Y396700D01*
X38531200Y-153300D02*
X39031200Y-153300D01*
X37531200Y-153300D02*
X37931200Y-153300D01*
X38531200Y-553300D02*
X37931200Y-153300D01*
X37931200Y-153300D02*
X37931200Y-703300D01*
D11*
%TO.C,MCU1*%
X110931200Y50586700D02*
X108391200Y50586700D01*
X110931200Y50586700D02*
X110931200Y48046700D01*
X108391200Y48046700D02*
X108391200Y50586700D01*
X110931200Y48046700D02*
X108391200Y48046700D01*
D12*
%TO.C,D2*%
X-468800Y-5153300D02*
X-68800Y-5153300D01*
X531200Y-5153300D02*
X1031200Y-5153300D01*
X531200Y-5553300D02*
X-68800Y-5153300D01*
X531200Y-4753300D02*
X531200Y-5553300D01*
X-68800Y-5153300D02*
X531200Y-4753300D01*
X-68800Y-5153300D02*
X-68800Y-5703300D01*
X-68800Y-5153300D02*
X-68800Y-4603300D01*
D11*
%TO.C,T2*%
X133131200Y-15153300D02*
X133131200Y-18453300D01*
X133131200Y-11853300D02*
X130281200Y-11853300D01*
X133131200Y-15153300D02*
X133131200Y-11853300D01*
X130281200Y-11853300D02*
X130281200Y-18453300D01*
X130281200Y-18453300D02*
X133131200Y-18453300D01*
X133131200Y-17103300D02*
X133131200Y-13203300D01*
D12*
%TO.C,D8*%
X18931200Y28846700D02*
X18931200Y29396700D01*
X19531200Y29246700D02*
X19531200Y28446700D01*
X19531200Y28846700D02*
X20031200Y28846700D01*
X18531200Y28846700D02*
X18931200Y28846700D01*
X18931200Y28846700D02*
X19531200Y29246700D01*
X18931200Y28846700D02*
X18931200Y28296700D01*
X19531200Y28446700D02*
X18931200Y28846700D01*
%TO.C,D7*%
X19531200Y11846700D02*
X20031200Y11846700D01*
X18531200Y11846700D02*
X18931200Y11846700D01*
X19531200Y11446700D02*
X18931200Y11846700D01*
X19531200Y12246700D02*
X19531200Y11446700D01*
X18931200Y11846700D02*
X18931200Y12396700D01*
X18931200Y11846700D02*
X18931200Y11296700D01*
X18931200Y11846700D02*
X19531200Y12246700D01*
%TO.C,D29*%
X130477697Y-58801648D02*
X130162230Y-59252182D01*
X130150036Y-58572218D02*
X130477697Y-58801648D01*
X130477697Y-58801648D02*
X131198619Y-58818133D01*
X130477697Y-58801648D02*
X130793164Y-58351115D01*
X130739757Y-59473455D02*
X130477697Y-58801648D01*
X130969188Y-59145794D02*
X131378764Y-59432582D01*
X131198619Y-58818133D02*
X130739757Y-59473455D01*
%TO.C,D3*%
X-468800Y11846700D02*
X-68800Y11846700D01*
X531200Y11846700D02*
X1031200Y11846700D01*
X-68800Y11846700D02*
X531200Y12246700D01*
X531200Y12246700D02*
X531200Y11446700D01*
X-68800Y11846700D02*
X-68800Y12396700D01*
X-68800Y11846700D02*
X-68800Y11296700D01*
X531200Y11446700D02*
X-68800Y11846700D01*
%TO.C,D22*%
X95531200Y-3553300D02*
X94931200Y-3153300D01*
X95531200Y-3153300D02*
X96031200Y-3153300D01*
X94931200Y-3153300D02*
X94931200Y-2603300D01*
X94531200Y-3153300D02*
X94931200Y-3153300D01*
X94931200Y-3153300D02*
X94931200Y-3703300D01*
X95531200Y-2753300D02*
X95531200Y-3553300D01*
X94931200Y-3153300D02*
X95531200Y-2753300D01*
%TO.C,D12*%
X38531200Y33446700D02*
X37931200Y33846700D01*
X38531200Y34246700D02*
X38531200Y33446700D01*
X37931200Y33846700D02*
X37931200Y33296700D01*
X38531200Y33846700D02*
X39031200Y33846700D01*
X37931200Y33846700D02*
X38531200Y34246700D01*
X37931200Y33846700D02*
X37931200Y34396700D01*
X37531200Y33846700D02*
X37931200Y33846700D01*
%TO.C,D6*%
X19531200Y-5153300D02*
X20031200Y-5153300D01*
X18931200Y-5153300D02*
X18931200Y-4603300D01*
X19531200Y-4753300D02*
X19531200Y-5553300D01*
X19531200Y-5553300D02*
X18931200Y-5153300D01*
X18931200Y-5153300D02*
X18931200Y-5703300D01*
X18931200Y-5153300D02*
X19531200Y-4753300D01*
X18531200Y-5153300D02*
X18931200Y-5153300D01*
%TO.C,D23*%
X94931200Y13846700D02*
X94931200Y14396700D01*
X95531200Y14246700D02*
X95531200Y13446700D01*
X94931200Y13846700D02*
X94931200Y13296700D01*
X94931200Y13846700D02*
X95531200Y14246700D01*
X94531200Y13846700D02*
X94931200Y13846700D01*
X95531200Y13846700D02*
X96031200Y13846700D01*
X95531200Y13446700D02*
X94931200Y13846700D01*
%TO.C,D28*%
X119002631Y-33283828D02*
X118729015Y-34035582D01*
X118865823Y-33659705D02*
X119335669Y-33830715D01*
X118302008Y-33454493D02*
X118490119Y-32937662D01*
X118302008Y-33454493D02*
X119002631Y-33283828D01*
X118729015Y-34035582D02*
X118302008Y-33454493D01*
X117926131Y-33317685D02*
X118302008Y-33454493D01*
X118302008Y-33454493D02*
X118113897Y-33971324D01*
%TO.C,D9*%
X37531200Y-17153300D02*
X37931200Y-17153300D01*
X37931200Y-17153300D02*
X37931200Y-17703300D01*
X38531200Y-17153300D02*
X39031200Y-17153300D01*
X37931200Y-17153300D02*
X37931200Y-16603300D01*
X38531200Y-17553300D02*
X37931200Y-17153300D01*
X37931200Y-17153300D02*
X38531200Y-16753300D01*
X38531200Y-16753300D02*
X38531200Y-17553300D01*
%TO.C,D25*%
X74931200Y-40153300D02*
X74931200Y-39603300D01*
X74931200Y-40153300D02*
X75531200Y-39753300D01*
X74531200Y-40153300D02*
X74931200Y-40153300D01*
X75531200Y-40553300D02*
X74931200Y-40153300D01*
X75531200Y-40153300D02*
X76031200Y-40153300D01*
X74931200Y-40153300D02*
X74931200Y-40703300D01*
X75531200Y-39753300D02*
X75531200Y-40553300D01*
%TO.C,D20*%
X76531200Y32846700D02*
X77031200Y32846700D01*
X75931200Y32846700D02*
X75931200Y33396700D01*
X76531200Y32446700D02*
X75931200Y32846700D01*
X76531200Y33246700D02*
X76531200Y32446700D01*
X75531200Y32846700D02*
X75931200Y32846700D01*
X75931200Y32846700D02*
X76531200Y33246700D01*
X75931200Y32846700D02*
X75931200Y32296700D01*
%TO.C,D21*%
X95531200Y-20153300D02*
X96031200Y-20153300D01*
X95531200Y-20553300D02*
X94931200Y-20153300D01*
X94931200Y-20153300D02*
X94931200Y-20703300D01*
X95531200Y-19753300D02*
X95531200Y-20553300D01*
X94931200Y-20153300D02*
X95531200Y-19753300D01*
X94531200Y-20153300D02*
X94931200Y-20153300D01*
X94931200Y-20153300D02*
X94931200Y-19603300D01*
%TO.C,D1*%
X531200Y-21753300D02*
X531200Y-22553300D01*
X-468800Y-22153300D02*
X-68800Y-22153300D01*
X531200Y-22153300D02*
X1031200Y-22153300D01*
X-68800Y-22153300D02*
X531200Y-21753300D01*
X-68800Y-22153300D02*
X-68800Y-21603300D01*
X-68800Y-22153300D02*
X-68800Y-22703300D01*
X531200Y-22553300D02*
X-68800Y-22153300D01*
%TO.C,D18*%
X76531200Y-753300D02*
X76531200Y-1553300D01*
X75931200Y-1153300D02*
X75931200Y-603300D01*
X75931200Y-1153300D02*
X76531200Y-753300D01*
X75931200Y-1153300D02*
X75931200Y-1703300D01*
X75531200Y-1153300D02*
X75931200Y-1153300D01*
X76531200Y-1553300D02*
X75931200Y-1153300D01*
X76531200Y-1153300D02*
X77031200Y-1153300D01*
%TO.C,D14*%
X56931200Y4846700D02*
X56931200Y4296700D01*
X57531200Y4846700D02*
X58031200Y4846700D01*
X57531200Y5246700D02*
X57531200Y4446700D01*
X56931200Y4846700D02*
X57531200Y5246700D01*
X57531200Y4446700D02*
X56931200Y4846700D01*
X56931200Y4846700D02*
X56931200Y5396700D01*
X56531200Y4846700D02*
X56931200Y4846700D01*
%TO.C,D11*%
X37531200Y16846700D02*
X37931200Y16846700D01*
X38531200Y16846700D02*
X39031200Y16846700D01*
X38531200Y17246700D02*
X38531200Y16446700D01*
X37931200Y16846700D02*
X37931200Y17396700D01*
X37931200Y16846700D02*
X38531200Y17246700D01*
X37931200Y16846700D02*
X37931200Y16296700D01*
X38531200Y16446700D02*
X37931200Y16846700D01*
%TO.C,D13*%
X57531200Y-12153300D02*
X58031200Y-12153300D01*
X57531200Y-12553300D02*
X56931200Y-12153300D01*
X56931200Y-12153300D02*
X56931200Y-11603300D01*
X56531200Y-12153300D02*
X56931200Y-12153300D01*
X56931200Y-12153300D02*
X56931200Y-12703300D01*
X56931200Y-12153300D02*
X57531200Y-11753300D01*
X57531200Y-11753300D02*
X57531200Y-12553300D01*
%TO.C,D16*%
X57531200Y38446700D02*
X56931200Y38846700D01*
X56931200Y38846700D02*
X57531200Y39246700D01*
X56931200Y38846700D02*
X56931200Y39396700D01*
X56531200Y38846700D02*
X56931200Y38846700D01*
X57531200Y39246700D02*
X57531200Y38446700D01*
X57531200Y38846700D02*
X58031200Y38846700D01*
X56931200Y38846700D02*
X56931200Y38296700D01*
%TO.C,D19*%
X76531200Y16246700D02*
X76531200Y15446700D01*
X75931200Y15846700D02*
X75931200Y15296700D01*
X75531200Y15846700D02*
X75931200Y15846700D01*
X75931200Y15846700D02*
X76531200Y16246700D01*
X76531200Y15446700D02*
X75931200Y15846700D01*
X75931200Y15846700D02*
X75931200Y16396700D01*
X76531200Y15846700D02*
X77031200Y15846700D01*
%TO.C,D24*%
X95531200Y31246700D02*
X95531200Y30446700D01*
X94931200Y30846700D02*
X95531200Y31246700D01*
X94931200Y30846700D02*
X94931200Y31396700D01*
X94531200Y30846700D02*
X94931200Y30846700D01*
X95531200Y30846700D02*
X96031200Y30846700D01*
X94931200Y30846700D02*
X94931200Y30296700D01*
X95531200Y30446700D02*
X94931200Y30846700D01*
%TD*%
M02*
