%TF.GenerationSoftware,KiCad,Pcbnew,(6.0.9-0)*%
%TF.CreationDate,2023-01-27T10:49:12-06:00*%
%TF.ProjectId,boardv3,626f6172-6476-4332-9e6b-696361645f70,v1.0.0*%
%TF.SameCoordinates,Original*%
%TF.FileFunction,Copper,L1,Top*%
%TF.FilePolarity,Positive*%
%FSLAX46Y46*%
G04 Gerber Fmt 4.6, Leading zero omitted, Abs format (unit mm)*
G04 Created by KiCad (PCBNEW (6.0.9-0)) date 2023-01-27 10:49:12*
%MOMM*%
%LPD*%
G01*
G04 APERTURE LIST*
G04 Aperture macros list*
%AMRotRect*
0 Rectangle, with rotation*
0 The origin of the aperture is its center*
0 $1 length*
0 $2 width*
0 $3 Rotation angle, in degrees counterclockwise*
0 Add horizontal line*
21,1,$1,$2,0,0,$3*%
%AMFreePoly0*
4,1,5,0.125000,-0.500000,-0.125000,-0.500000,-0.125000,0.500000,0.125000,0.500000,0.125000,-0.500000,0.125000,-0.500000,$1*%
%AMFreePoly1*
4,1,6,0.600000,0.200000,0.000000,-0.400000,-0.600000,0.200000,-0.600000,0.400000,0.600000,0.400000,0.600000,0.200000,0.600000,0.200000,$1*%
%AMFreePoly2*
4,1,49,0.088388,4.152388,0.854389,3.386388,0.867708,3.368551,0.871189,3.365530,0.871982,3.362827,0.875852,3.357644,0.882333,3.327543,0.891000,3.298000,0.891000,0.766000,0.887805,0.743969,0.888131,0.739371,0.886780,0.736898,0.885852,0.730498,0.869154,0.704638,0.854389,0.677612,0.088388,-0.088388,0.064607,-0.106146,0.062500,-0.108253,0.061385,-0.108552,0.059644,-0.109852,
0.043810,-0.113261,0.000000,-0.125000,-0.004774,-0.123721,-0.009154,-0.124664,-0.028953,-0.117242,-0.062500,-0.108253,-0.068237,-0.102516,-0.075052,-0.099961,-0.087614,-0.083139,-0.108253,-0.062500,-0.111178,-0.051584,-0.117161,-0.043572,-0.118539,-0.024114,-0.125000,0.000000,-0.121239,0.014035,-0.122131,0.026629,-0.113759,0.041953,-0.108253,0.062500,-0.095642,0.075111,-0.088388,0.088388,
0.641000,0.817777,0.641000,3.246223,-0.088388,3.975612,-0.109852,4.004356,-0.124664,4.073154,-0.099961,4.139052,-0.043572,4.181161,0.026629,4.186131,0.088388,4.152388,0.088388,4.152388,$1*%
%AMFreePoly3*
4,1,6,0.600000,-0.250000,-0.600000,-0.250000,-0.600000,1.000000,0.000000,0.400000,0.600000,1.000000,0.600000,-0.250000,0.600000,-0.250000,$1*%
%AMFreePoly4*
4,1,49,0.088388,4.152388,0.850389,3.390388,0.863708,3.372551,0.867189,3.369530,0.867982,3.366827,0.871852,3.361644,0.878333,3.331543,0.887000,3.302000,0.887000,0.762000,0.883805,0.739969,0.884131,0.735371,0.882780,0.732898,0.881852,0.726498,0.865154,0.700638,0.850389,0.673612,0.088388,-0.088388,0.064607,-0.106146,0.062500,-0.108253,0.061385,-0.108552,0.059644,-0.109852,
0.043810,-0.113261,0.000000,-0.125000,-0.004774,-0.123721,-0.009154,-0.124664,-0.028953,-0.117242,-0.062500,-0.108253,-0.068237,-0.102516,-0.075052,-0.099961,-0.087614,-0.083139,-0.108253,-0.062500,-0.111178,-0.051584,-0.117161,-0.043572,-0.118539,-0.024114,-0.125000,0.000000,-0.121239,0.014035,-0.122131,0.026629,-0.113759,0.041953,-0.108253,0.062500,-0.095642,0.075111,-0.088388,0.088388,
0.637000,0.813777,0.637000,3.250223,-0.088388,3.975612,-0.109852,4.004356,-0.124664,4.073154,-0.099961,4.139052,-0.043572,4.181161,0.026629,4.186131,0.088388,4.152388,0.088388,4.152388,$1*%
G04 Aperture macros list end*
%TA.AperFunction,SMDPad,CuDef*%
%ADD10R,1.100000X1.800000*%
%TD*%
%TA.AperFunction,SMDPad,CuDef*%
%ADD11R,2.600000X2.600000*%
%TD*%
%TA.AperFunction,WasherPad*%
%ADD12C,1.000000*%
%TD*%
%TA.AperFunction,ComponentPad*%
%ADD13R,1.778000X1.778000*%
%TD*%
%TA.AperFunction,SMDPad,CuDef*%
%ADD14R,0.900000X1.200000*%
%TD*%
%TA.AperFunction,ComponentPad*%
%ADD15C,1.905000*%
%TD*%
%TA.AperFunction,ComponentPad*%
%ADD16RotRect,1.778000X1.778000X340.000000*%
%TD*%
%TA.AperFunction,SMDPad,CuDef*%
%ADD17RotRect,0.900000X1.200000X340.000000*%
%TD*%
%TA.AperFunction,SMDPad,CuDef*%
%ADD18RotRect,2.600000X2.600000X340.000000*%
%TD*%
%TA.AperFunction,ComponentPad*%
%ADD19C,1.600000*%
%TD*%
%TA.AperFunction,SMDPad,CuDef*%
%ADD20FreePoly0,270.000000*%
%TD*%
%TA.AperFunction,SMDPad,CuDef*%
%ADD21FreePoly0,90.000000*%
%TD*%
%TA.AperFunction,SMDPad,CuDef*%
%ADD22FreePoly1,90.000000*%
%TD*%
%TA.AperFunction,SMDPad,CuDef*%
%ADD23FreePoly1,270.000000*%
%TD*%
%TA.AperFunction,ComponentPad*%
%ADD24R,1.600000X1.600000*%
%TD*%
%TA.AperFunction,ComponentPad*%
%ADD25C,0.800000*%
%TD*%
%TA.AperFunction,SMDPad,CuDef*%
%ADD26FreePoly2,270.000000*%
%TD*%
%TA.AperFunction,SMDPad,CuDef*%
%ADD27FreePoly3,270.000000*%
%TD*%
%TA.AperFunction,SMDPad,CuDef*%
%ADD28FreePoly4,90.000000*%
%TD*%
%TA.AperFunction,SMDPad,CuDef*%
%ADD29FreePoly3,90.000000*%
%TD*%
%TA.AperFunction,SMDPad,CuDef*%
%ADD30R,1.500000X1.500000*%
%TD*%
%TA.AperFunction,SMDPad,CuDef*%
%ADD31R,0.900000X0.900000*%
%TD*%
%TA.AperFunction,SMDPad,CuDef*%
%ADD32R,1.250000X0.900000*%
%TD*%
%TA.AperFunction,SMDPad,CuDef*%
%ADD33RotRect,0.900000X1.200000X325.000000*%
%TD*%
%TA.AperFunction,ComponentPad*%
%ADD34RotRect,1.778000X1.778000X325.000000*%
%TD*%
%TA.AperFunction,ComponentPad*%
%ADD35O,1.700000X1.700000*%
%TD*%
%TA.AperFunction,ComponentPad*%
%ADD36R,1.700000X1.700000*%
%TD*%
%TA.AperFunction,SMDPad,CuDef*%
%ADD37RotRect,2.600000X2.600000X325.000000*%
%TD*%
%TA.AperFunction,ViaPad*%
%ADD38C,0.800000*%
%TD*%
%TA.AperFunction,Conductor*%
%ADD39C,0.250000*%
%TD*%
G04 APERTURE END LIST*
D10*
%TO.P,B1,2*%
%TO.N,RST*%
X130760000Y-1830000D03*
X130760000Y4370000D03*
%TO.P,B1,1*%
%TO.N,GND*%
X132660000Y-1830000D03*
X132660000Y4370000D03*
%TO.P,B1,2*%
%TO.N,RST*%
X128960000Y-1830000D03*
X128960000Y4370000D03*
%TD*%
D11*
%TO.P,S24,1*%
%TO.N,inner_num*%
X98556200Y41796700D03*
%TO.P,S24,2*%
%TO.N,P16*%
X87006200Y39596700D03*
%TD*%
%TO.P,S25,1*%
%TO.N,near1_home*%
X78556200Y-29203300D03*
%TO.P,S25,2*%
%TO.N,P20*%
X67006200Y-31403300D03*
%TD*%
%TO.P,S11,1*%
%TO.N,ring_top*%
X41556200Y27796700D03*
%TO.P,S11,2*%
%TO.N,P18*%
X30006200Y25596700D03*
%TD*%
%TO.P,S6,1*%
%TO.N,pinky_home*%
X22556200Y5796700D03*
%TO.P,S6,2*%
%TO.N,P19*%
X11006200Y3596700D03*
%TD*%
D12*
%TO.P,T1,*%
%TO.N,*%
X131781200Y-16653300D03*
X131781200Y-13653300D03*
%TD*%
D13*
%TO.P,D15,1*%
%TO.N,P5*%
X53471200Y21846700D03*
D14*
X55631200Y21846700D03*
D15*
%TO.P,D15,2*%
%TO.N,middle_top*%
X61091200Y21846700D03*
D14*
X58931200Y21846700D03*
%TD*%
%TO.P,D26,1*%
%TO.N,P3*%
X92631200Y-40153300D03*
D13*
X90471200Y-40153300D03*
D15*
%TO.P,D26,2*%
%TO.N,near2_home*%
X98091200Y-40153300D03*
D14*
X95931200Y-40153300D03*
%TD*%
%TO.P,D5,1*%
%TO.N,P7*%
X17631200Y-22153300D03*
D13*
X15471200Y-22153300D03*
D15*
%TO.P,D5,2*%
%TO.N,pinky_bottom*%
X23091200Y-22153300D03*
D14*
X20931200Y-22153300D03*
%TD*%
D16*
%TO.P,D27,1*%
%TO.N,P3*%
X109236271Y-48245803D03*
D17*
X111266007Y-48984567D03*
%TO.P,D27,2*%
%TO.N,home_home*%
X114366993Y-50113233D03*
D15*
X116396729Y-50851997D03*
%TD*%
D13*
%TO.P,D17,1*%
%TO.N,P7*%
X72471200Y-18153300D03*
D14*
X74631200Y-18153300D03*
D15*
%TO.P,D17,2*%
%TO.N,index_bottom*%
X80091200Y-18153300D03*
D14*
X77931200Y-18153300D03*
%TD*%
D11*
%TO.P,S21,1*%
%TO.N,inner_bottom*%
X98556200Y-9203300D03*
%TO.P,S21,2*%
%TO.N,P16*%
X87006200Y-11403300D03*
%TD*%
D14*
%TO.P,D4,1*%
%TO.N,P4*%
X-1368800Y28846700D03*
D13*
X-3528800Y28846700D03*
D14*
%TO.P,D4,2*%
%TO.N,outer_num*%
X1931200Y28846700D03*
D15*
X4091200Y28846700D03*
%TD*%
D18*
%TO.P,S27,1*%
%TO.N,home_home*%
X119639113Y-40379445D03*
%TO.P,S27,2*%
%TO.N,P18*%
X108033219Y-38496436D03*
%TD*%
D14*
%TO.P,D10,1*%
%TO.N,P6*%
X36631200Y-153300D03*
D13*
X34471200Y-153300D03*
D14*
%TO.P,D10,2*%
%TO.N,ring_home*%
X39931200Y-153300D03*
D15*
X42091200Y-153300D03*
%TD*%
D19*
%TO.P,MCU1,*%
%TO.N,*%
X124901200Y26456700D03*
X109661200Y34076700D03*
D20*
X123631200Y34076700D03*
D19*
X124901200Y21376700D03*
D20*
X123631200Y23916700D03*
D21*
X110931200Y44236700D03*
D22*
X111439200Y28996700D03*
D21*
X110931200Y23916700D03*
D19*
X124901200Y36616700D03*
D22*
X111439200Y46776700D03*
D21*
X110931200Y26456700D03*
D23*
X123123200Y39156700D03*
D22*
X111439200Y21376700D03*
X111439200Y26456700D03*
D21*
X110931200Y34076700D03*
D20*
X123631200Y26456700D03*
D22*
X111439200Y23916700D03*
D19*
X124901200Y28996700D03*
X124901200Y23916700D03*
D20*
X123631200Y21376700D03*
D22*
X111439200Y49316700D03*
D23*
X123123200Y26456700D03*
D19*
X109661200Y23916700D03*
D23*
X123123200Y36616700D03*
D22*
X111439200Y44236700D03*
D20*
X123631200Y44236700D03*
D19*
X124901200Y46776700D03*
X124901200Y39156700D03*
D23*
X123123200Y23916700D03*
X123123200Y34076700D03*
D19*
X109661200Y26456700D03*
X124901200Y41696700D03*
X109661200Y21376700D03*
X109661200Y49316700D03*
X109661200Y36616700D03*
X109661200Y31536700D03*
D22*
X111439200Y41696700D03*
X111439200Y34076700D03*
D23*
X123123200Y41696700D03*
D21*
X110931200Y28996700D03*
D19*
X109661200Y44236700D03*
X124901200Y49316700D03*
X124901200Y44236700D03*
D23*
X123123200Y21376700D03*
D19*
X109661200Y28996700D03*
D21*
X110931200Y39156700D03*
D19*
X109661200Y46776700D03*
D21*
X110931200Y21376700D03*
X110931200Y41696700D03*
D24*
X109661200Y49316700D03*
D19*
X109661200Y39156700D03*
D21*
X110931200Y31536700D03*
D20*
X123631200Y39156700D03*
D19*
X109661200Y41696700D03*
D22*
X111439200Y31536700D03*
D19*
X124901200Y31536700D03*
D20*
X123631200Y41696700D03*
X123631200Y36616700D03*
D21*
X110931200Y49316700D03*
D23*
X123123200Y31536700D03*
D20*
X123631200Y28996700D03*
D23*
X123123200Y44236700D03*
D20*
X123631200Y31536700D03*
D23*
X123123200Y46776700D03*
X123123200Y28996700D03*
D21*
X110931200Y36616700D03*
D20*
X123631200Y49316700D03*
X123631200Y46776700D03*
D22*
X111439200Y39156700D03*
D21*
X110931200Y46776700D03*
D23*
X123123200Y49316700D03*
D22*
X111439200Y36616700D03*
D19*
X124901200Y34076700D03*
D25*
%TO.P,MCU1,1*%
%TO.N,RAW*%
X118043200Y49316700D03*
D26*
X118043200Y49316700D03*
D27*
X122107200Y49316700D03*
%TO.P,MCU1,2*%
%TO.N,GND*%
X122107200Y46776700D03*
D26*
X118043200Y46776700D03*
D25*
X118043200Y46776700D03*
D27*
%TO.P,MCU1,3*%
%TO.N,RST*%
X122107200Y44236700D03*
D25*
X118043200Y44236700D03*
D26*
X118043200Y44236700D03*
D25*
%TO.P,MCU1,4*%
%TO.N,VCC*%
X118043200Y41696700D03*
D26*
X118043200Y41696700D03*
D27*
X122107200Y41696700D03*
%TO.P,MCU1,5*%
%TO.N,P21*%
X122107200Y39156700D03*
D26*
X118043200Y39156700D03*
D25*
X118043200Y39156700D03*
D26*
%TO.P,MCU1,6*%
%TO.N,P20*%
X118043200Y36616700D03*
D27*
X122107200Y36616700D03*
D25*
X118043200Y36616700D03*
D27*
%TO.P,MCU1,7*%
%TO.N,P19*%
X122107200Y34076700D03*
D26*
X118043200Y34076700D03*
D25*
X118043200Y34076700D03*
%TO.P,MCU1,8*%
%TO.N,P18*%
X118043200Y31536700D03*
D26*
X118043200Y31536700D03*
D27*
X122107200Y31536700D03*
D25*
%TO.P,MCU1,9*%
%TO.N,P15*%
X118043200Y28996700D03*
D27*
X122107200Y28996700D03*
D26*
X118043200Y28996700D03*
D25*
%TO.P,MCU1,10*%
%TO.N,P14*%
X118043200Y26456700D03*
D26*
X118043200Y26456700D03*
D27*
X122107200Y26456700D03*
D25*
%TO.P,MCU1,11*%
%TO.N,P16*%
X118043200Y23916700D03*
D27*
X122107200Y23916700D03*
D26*
X118043200Y23916700D03*
%TO.P,MCU1,12*%
%TO.N,P10*%
X118043200Y21376700D03*
D27*
X122107200Y21376700D03*
D25*
X118043200Y21376700D03*
%TO.P,MCU1,13*%
%TO.N,P9*%
X116519200Y21376700D03*
D28*
X116519200Y21376700D03*
D29*
X112455200Y21376700D03*
D28*
%TO.P,MCU1,14*%
%TO.N,P8*%
X116519200Y23916700D03*
D29*
X112455200Y23916700D03*
D25*
X116519200Y23916700D03*
D29*
%TO.P,MCU1,15*%
%TO.N,P7*%
X112455200Y26456700D03*
D28*
X116519200Y26456700D03*
D25*
X116519200Y26456700D03*
%TO.P,MCU1,16*%
%TO.N,P6*%
X116519200Y28996700D03*
D28*
X116519200Y28996700D03*
D29*
X112455200Y28996700D03*
D28*
%TO.P,MCU1,17*%
%TO.N,P5*%
X116519200Y31536700D03*
D25*
X116519200Y31536700D03*
D29*
X112455200Y31536700D03*
D25*
%TO.P,MCU1,18*%
%TO.N,P4*%
X116519200Y34076700D03*
D28*
X116519200Y34076700D03*
D29*
X112455200Y34076700D03*
D25*
%TO.P,MCU1,19*%
%TO.N,P3*%
X116519200Y36616700D03*
D28*
X116519200Y36616700D03*
D29*
X112455200Y36616700D03*
D25*
%TO.P,MCU1,20*%
%TO.N,P2*%
X116519200Y39156700D03*
D29*
X112455200Y39156700D03*
D28*
X116519200Y39156700D03*
%TO.P,MCU1,21*%
%TO.N,GND*%
X116519200Y41696700D03*
D25*
X116519200Y41696700D03*
D29*
X112455200Y41696700D03*
D28*
%TO.P,MCU1,22*%
X116519200Y44236700D03*
D25*
X116519200Y44236700D03*
D29*
X112455200Y44236700D03*
%TO.P,MCU1,23*%
%TO.N,P0*%
X112455200Y46776700D03*
D28*
X116519200Y46776700D03*
D25*
X116519200Y46776700D03*
D28*
%TO.P,MCU1,24*%
%TO.N,P1*%
X116519200Y49316700D03*
D25*
X116519200Y49316700D03*
D29*
X112455200Y49316700D03*
%TD*%
D11*
%TO.P,S18,1*%
%TO.N,index_home*%
X79556200Y9796700D03*
%TO.P,S18,2*%
%TO.N,P14*%
X68006200Y7596700D03*
%TD*%
D30*
%TO.P,PAD2,1*%
%TO.N,GND*%
X127281200Y15846700D03*
%TD*%
D11*
%TO.P,S16,1*%
%TO.N,middle_num*%
X60556200Y49796700D03*
%TO.P,S16,2*%
%TO.N,P15*%
X49006200Y47596700D03*
%TD*%
D14*
%TO.P,D2,1*%
%TO.N,P6*%
X-1368800Y-5153300D03*
D13*
X-3528800Y-5153300D03*
D15*
%TO.P,D2,2*%
%TO.N,outer_home*%
X4091200Y-5153300D03*
D14*
X1931200Y-5153300D03*
%TD*%
D31*
%TO.P,T2,*%
%TO.N,*%
X132881200Y-11453300D03*
X130681200Y-18853300D03*
X130681200Y-11453300D03*
X132881200Y-18853300D03*
D12*
X131781200Y-16653300D03*
X131781200Y-13653300D03*
D32*
%TO.P,T2,1*%
%TO.N,Bplus*%
X129706200Y-17403300D03*
%TO.P,T2,2*%
%TO.N,RAW*%
X129706200Y-14403300D03*
%TO.P,T2,3*%
%TO.N,N/C*%
X129706200Y-12903300D03*
%TD*%
D11*
%TO.P,S23,1*%
%TO.N,inner_top*%
X98556200Y24796700D03*
%TO.P,S23,2*%
%TO.N,P16*%
X87006200Y22596700D03*
%TD*%
%TO.P,S7,1*%
%TO.N,pinky_top*%
X22556200Y22796700D03*
%TO.P,S7,2*%
%TO.N,P19*%
X11006200Y20596700D03*
%TD*%
%TO.P,S4,1*%
%TO.N,outer_num*%
X3556200Y39796700D03*
%TO.P,S4,2*%
%TO.N,P20*%
X-7993800Y37596700D03*
%TD*%
D13*
%TO.P,D8,1*%
%TO.N,P4*%
X15471200Y28846700D03*
D14*
X17631200Y28846700D03*
D15*
%TO.P,D8,2*%
%TO.N,pinky_num*%
X23091200Y28846700D03*
D14*
X20931200Y28846700D03*
%TD*%
D11*
%TO.P,S14,1*%
%TO.N,middle_home*%
X60556200Y15796700D03*
%TO.P,S14,2*%
%TO.N,P15*%
X49006200Y13596700D03*
%TD*%
D14*
%TO.P,D7,1*%
%TO.N,P5*%
X17631200Y11846700D03*
D13*
X15471200Y11846700D03*
D15*
%TO.P,D7,2*%
%TO.N,pinky_top*%
X23091200Y11846700D03*
D14*
X20931200Y11846700D03*
%TD*%
D11*
%TO.P,S19,1*%
%TO.N,index_top*%
X79556200Y26796700D03*
%TO.P,S19,2*%
%TO.N,P14*%
X68006200Y24596700D03*
%TD*%
%TO.P,S10,1*%
%TO.N,ring_home*%
X41556200Y10796700D03*
%TO.P,S10,2*%
%TO.N,P18*%
X30006200Y8596700D03*
%TD*%
D33*
%TO.P,D29,1*%
%TO.N,P3*%
X129412799Y-58055999D03*
D34*
X127643431Y-56817074D03*
D15*
%TO.P,D29,2*%
%TO.N,far_home*%
X133885369Y-61187726D03*
D33*
X132116001Y-59948801D03*
%TD*%
D11*
%TO.P,S2,1*%
%TO.N,outer_home*%
X3556200Y5796700D03*
%TO.P,S2,2*%
%TO.N,P20*%
X-7993800Y3596700D03*
%TD*%
D14*
%TO.P,D3,1*%
%TO.N,P5*%
X-1368800Y11846700D03*
D13*
X-3528800Y11846700D03*
D14*
%TO.P,D3,2*%
%TO.N,outer_top*%
X1931200Y11846700D03*
D15*
X4091200Y11846700D03*
%TD*%
D14*
%TO.P,D22,1*%
%TO.N,P6*%
X93631200Y-3153300D03*
D13*
X91471200Y-3153300D03*
D15*
%TO.P,D22,2*%
%TO.N,inner_home*%
X99091200Y-3153300D03*
D14*
X96931200Y-3153300D03*
%TD*%
D11*
%TO.P,S22,1*%
%TO.N,inner_home*%
X98556200Y7796700D03*
%TO.P,S22,2*%
%TO.N,P16*%
X87006200Y5596700D03*
%TD*%
D13*
%TO.P,D12,1*%
%TO.N,P4*%
X34471200Y33846700D03*
D14*
X36631200Y33846700D03*
%TO.P,D12,2*%
%TO.N,ring_num*%
X39931200Y33846700D03*
D15*
X42091200Y33846700D03*
%TD*%
D14*
%TO.P,D6,1*%
%TO.N,P6*%
X17631200Y-5153300D03*
D13*
X15471200Y-5153300D03*
D14*
%TO.P,D6,2*%
%TO.N,pinky_home*%
X20931200Y-5153300D03*
D15*
X23091200Y-5153300D03*
%TD*%
D11*
%TO.P,S20,1*%
%TO.N,index_num*%
X79556200Y43796700D03*
%TO.P,S20,2*%
%TO.N,P14*%
X68006200Y41596700D03*
%TD*%
%TO.P,S26,1*%
%TO.N,near2_home*%
X97556200Y-29203300D03*
%TO.P,S26,2*%
%TO.N,P19*%
X86006200Y-31403300D03*
%TD*%
D30*
%TO.P,PAD1,1*%
%TO.N,Bplus*%
X127281200Y12846700D03*
%TD*%
D11*
%TO.P,S9,1*%
%TO.N,ring_bottom*%
X41556200Y-6203300D03*
%TO.P,S9,2*%
%TO.N,P18*%
X30006200Y-8403300D03*
%TD*%
D14*
%TO.P,D23,1*%
%TO.N,P5*%
X93631200Y13846700D03*
D13*
X91471200Y13846700D03*
D14*
%TO.P,D23,2*%
%TO.N,inner_top*%
X96931200Y13846700D03*
D15*
X99091200Y13846700D03*
%TD*%
D35*
%TO.P,OLED2,0*%
%TO.N,P1*%
X111941200Y12746700D03*
D36*
%TO.P,OLED2,1*%
%TO.N,GND*%
X114481200Y12746700D03*
D35*
%TO.P,OLED2,2*%
%TO.N,VCC*%
X117021200Y12746700D03*
%TO.P,OLED2,3*%
%TO.N,P2*%
X119561200Y12746700D03*
%TO.P,OLED2,4*%
%TO.N,P0*%
X122101200Y12746700D03*
%TD*%
%TO.P,OLED1,0*%
%TO.N,P1*%
X122121200Y15946700D03*
D36*
%TO.P,OLED1,1*%
%TO.N,GND*%
X119581200Y15946700D03*
D35*
%TO.P,OLED1,2*%
%TO.N,VCC*%
X117041200Y15946700D03*
%TO.P,OLED1,3*%
%TO.N,P2*%
X114501200Y15946700D03*
%TO.P,OLED1,4*%
%TO.N,P0*%
X111961200Y15946700D03*
%TD*%
D11*
%TO.P,S5,1*%
%TO.N,pinky_bottom*%
X22556200Y-11203300D03*
%TO.P,S5,2*%
%TO.N,P19*%
X11006200Y-13403300D03*
%TD*%
D17*
%TO.P,D28,1*%
%TO.N,P3*%
X117080407Y-33009867D03*
D16*
X115050671Y-32271103D03*
D15*
%TO.P,D28,2*%
%TO.N,home_top*%
X122211129Y-34877297D03*
D17*
X120181393Y-34138533D03*
%TD*%
D11*
%TO.P,S3,1*%
%TO.N,outer_top*%
X3556200Y22796700D03*
%TO.P,S3,2*%
%TO.N,P20*%
X-7993800Y20596700D03*
%TD*%
%TO.P,S15,1*%
%TO.N,middle_top*%
X60556200Y32796700D03*
%TO.P,S15,2*%
%TO.N,P15*%
X49006200Y30596700D03*
%TD*%
%TO.P,S1,1*%
%TO.N,outer_bottom*%
X3556200Y-11203300D03*
%TO.P,S1,2*%
%TO.N,P20*%
X-7993800Y-13403300D03*
%TD*%
D13*
%TO.P,D9,1*%
%TO.N,P7*%
X34471200Y-17153300D03*
D14*
X36631200Y-17153300D03*
D15*
%TO.P,D9,2*%
%TO.N,ring_bottom*%
X42091200Y-17153300D03*
D14*
X39931200Y-17153300D03*
%TD*%
D11*
%TO.P,S12,1*%
%TO.N,ring_num*%
X41556200Y44796700D03*
%TO.P,S12,2*%
%TO.N,P18*%
X30006200Y42596700D03*
%TD*%
%TO.P,S8,1*%
%TO.N,pinky_num*%
X22556200Y39796700D03*
%TO.P,S8,2*%
%TO.N,P19*%
X11006200Y37596700D03*
%TD*%
D13*
%TO.P,D25,1*%
%TO.N,P3*%
X71471200Y-40153300D03*
D14*
X73631200Y-40153300D03*
D15*
%TO.P,D25,2*%
%TO.N,near1_home*%
X79091200Y-40153300D03*
D14*
X76931200Y-40153300D03*
%TD*%
%TO.P,D20,1*%
%TO.N,P4*%
X74631200Y32846700D03*
D13*
X72471200Y32846700D03*
D15*
%TO.P,D20,2*%
%TO.N,index_num*%
X80091200Y32846700D03*
D14*
X77931200Y32846700D03*
%TD*%
D13*
%TO.P,D21,1*%
%TO.N,P7*%
X91471200Y-20153300D03*
D14*
X93631200Y-20153300D03*
D15*
%TO.P,D21,2*%
%TO.N,inner_bottom*%
X99091200Y-20153300D03*
D14*
X96931200Y-20153300D03*
%TD*%
D13*
%TO.P,D1,1*%
%TO.N,P7*%
X-3528800Y-22153300D03*
D14*
X-1368800Y-22153300D03*
D15*
%TO.P,D1,2*%
%TO.N,outer_bottom*%
X4091200Y-22153300D03*
D14*
X1931200Y-22153300D03*
%TD*%
%TO.P,D18,1*%
%TO.N,P6*%
X74631200Y-1153300D03*
D13*
X72471200Y-1153300D03*
D15*
%TO.P,D18,2*%
%TO.N,index_home*%
X80091200Y-1153300D03*
D14*
X77931200Y-1153300D03*
%TD*%
D13*
%TO.P,D14,1*%
%TO.N,P6*%
X53471200Y4846700D03*
D14*
X55631200Y4846700D03*
%TO.P,D14,2*%
%TO.N,middle_home*%
X58931200Y4846700D03*
D15*
X61091200Y4846700D03*
%TD*%
D13*
%TO.P,D11,1*%
%TO.N,P5*%
X34471200Y16846700D03*
D14*
X36631200Y16846700D03*
D15*
%TO.P,D11,2*%
%TO.N,ring_top*%
X42091200Y16846700D03*
D14*
X39931200Y16846700D03*
%TD*%
D11*
%TO.P,S13,1*%
%TO.N,middle_bottom*%
X60556200Y-1203300D03*
%TO.P,S13,2*%
%TO.N,P15*%
X49006200Y-3403300D03*
%TD*%
D13*
%TO.P,D13,1*%
%TO.N,P7*%
X53471200Y-12153300D03*
D14*
X55631200Y-12153300D03*
%TO.P,D13,2*%
%TO.N,middle_bottom*%
X58931200Y-12153300D03*
D15*
X61091200Y-12153300D03*
%TD*%
D11*
%TO.P,S17,1*%
%TO.N,index_bottom*%
X79556200Y-7203300D03*
%TO.P,S17,2*%
%TO.N,P14*%
X68006200Y-9403300D03*
%TD*%
D14*
%TO.P,D16,1*%
%TO.N,P4*%
X55631200Y38846700D03*
D13*
X53471200Y38846700D03*
D14*
%TO.P,D16,2*%
%TO.N,middle_num*%
X58931200Y38846700D03*
D15*
X61091200Y38846700D03*
%TD*%
D18*
%TO.P,S28,1*%
%TO.N,home_top*%
X125453513Y-24404645D03*
%TO.P,S28,2*%
%TO.N,P15*%
X113847619Y-22521636D03*
%TD*%
D37*
%TO.P,S29,1*%
%TO.N,far_home*%
X139727803Y-51911108D03*
%TO.P,S29,2*%
%TO.N,P14*%
X129004728Y-47088435D03*
%TD*%
D14*
%TO.P,D19,1*%
%TO.N,P5*%
X74631200Y15846700D03*
D13*
X72471200Y15846700D03*
D14*
%TO.P,D19,2*%
%TO.N,index_top*%
X77931200Y15846700D03*
D15*
X80091200Y15846700D03*
%TD*%
D13*
%TO.P,D24,1*%
%TO.N,P4*%
X91471200Y30846700D03*
D14*
X93631200Y30846700D03*
D15*
%TO.P,D24,2*%
%TO.N,inner_num*%
X99091200Y30846700D03*
D14*
X96931200Y30846700D03*
%TD*%
D38*
%TO.N,RST*%
X129713000Y6523000D03*
%TO.N,GND*%
X132660000Y7040000D03*
%TO.N,P20*%
X80484100Y-27378200D03*
X1674600Y-14882700D03*
%TO.N,P19*%
X26232100Y27140800D03*
X83851600Y-27629300D03*
%TO.N,P18*%
X46556200Y328300D03*
X115028300Y-42256300D03*
%TO.N,P15*%
X125058200Y-21061500D03*
X55764700Y36036200D03*
%TO.N,P14*%
X137508000Y-47088400D03*
X85343800Y-18903900D03*
%TO.N,P16*%
X103556200Y37669900D03*
X97692000Y15928000D03*
%TO.N,RAW*%
X128468000Y-14397000D03*
%TO.N,GND*%
X127281200Y17211900D03*
%TO.N,VCC*%
X120650000Y19050000D03*
%TO.N,P1*%
X127545800Y41484400D03*
%TO.N,P0*%
X126654201Y45374201D03*
X123050700Y8890000D03*
%TO.N,P2*%
X114300000Y19774500D03*
%TO.N,Bplus*%
X127281200Y11490100D03*
%TD*%
D39*
%TO.N,RST*%
X130760000Y-1830000D02*
X128960000Y-1830000D01*
X130760000Y4370000D02*
X128960000Y4370000D01*
X118043200Y44236700D02*
X117244200Y45035700D01*
X117244200Y49934200D02*
X118560000Y51250000D01*
X129713000Y5123000D02*
X128960000Y4370000D01*
X117244200Y45035700D02*
X117244200Y49934200D01*
X129713000Y49993396D02*
X129713000Y5123000D01*
X118560000Y51250000D02*
X128456396Y51250000D01*
X128456396Y51250000D02*
X129713000Y49993396D01*
X128960000Y4370000D02*
X128960000Y-1830000D01*
%TO.N,GND*%
X132660000Y4370000D02*
X132660000Y-1830000D01*
X132660000Y7040000D02*
X132660000Y4370000D01*
%TO.N,RAW*%
X122107200Y49316700D02*
X123590500Y50800000D01*
X123590500Y50800000D02*
X128270000Y50800000D01*
X128270000Y50800000D02*
X129263000Y49807000D01*
X129263000Y49807000D02*
X129263000Y10387400D01*
X129263000Y10387400D02*
X127731200Y8855600D01*
X127731200Y8855600D02*
X127731200Y-13660200D01*
X127731200Y-13660200D02*
X128468000Y-14397000D01*
%TO.N,P18*%
X43730200Y-2497700D02*
X43730200Y-4388100D01*
X43758100Y-4388100D02*
X45720000Y-6350000D01*
X45720000Y-12700000D02*
X48260000Y-15240000D01*
X43730200Y-4388100D02*
X43758100Y-4388100D01*
X48260000Y-15240000D02*
X54582100Y-15240000D01*
X73846396Y-21140000D02*
X78631296Y-25924900D01*
X54582100Y-15240000D02*
X60482100Y-21140000D01*
X78631296Y-25924900D02*
X97356500Y-25924900D01*
X60482100Y-21140000D02*
X73846396Y-21140000D01*
X97356500Y-25924900D02*
X108033219Y-36601619D01*
X45720000Y-6350000D02*
X45720000Y-12700000D01*
X108033219Y-36601619D02*
X108033219Y-38496436D01*
%TO.N,P16*%
X101600000Y44450000D02*
X103556200Y42493800D01*
X90170000Y44450000D02*
X101600000Y44450000D01*
X87006200Y39596700D02*
X87006200Y41286200D01*
X103556200Y42493800D02*
X103556200Y37669900D01*
X87006200Y41286200D02*
X90170000Y44450000D01*
%TO.N,P18*%
X108033200Y-38496400D02*
X108033200Y-39120300D01*
%TO.N,P20*%
X-2540000Y-15240000D02*
X-2540000Y-17064200D01*
X-2540000Y-17064200D02*
X-3073200Y-17597400D01*
X73660000Y-21590000D02*
X78740000Y-26670000D01*
X-3073200Y-17597400D02*
X-3073200Y-18691100D01*
X80010000Y-26670000D02*
X80484100Y-27144100D01*
X-3073200Y-18691100D02*
X8013900Y-29778200D01*
X8013900Y-29778200D02*
X36261800Y-29778200D01*
X44450000Y-21590000D02*
X73660000Y-21590000D01*
X36261800Y-29778200D02*
X44450000Y-21590000D01*
X78740000Y-26670000D02*
X80010000Y-26670000D01*
X80484100Y-27144100D02*
X80484100Y-27378200D01*
%TO.N,pinky_num*%
X22556200Y39796700D02*
X22406199Y39646699D01*
X22406199Y39646699D02*
X22406199Y29531701D01*
X22406199Y29531701D02*
X23091200Y28846700D01*
%TO.N,pinky_top*%
X23091200Y11846700D02*
X23091200Y17548800D01*
X23091200Y17548800D02*
X21590000Y19050000D01*
X21590000Y21830500D02*
X22556200Y22796700D01*
X21590000Y19050000D02*
X21590000Y21830500D01*
%TO.N,P18*%
X109220000Y-45720000D02*
X107950000Y-45720000D01*
X115028300Y-42256300D02*
X112683700Y-42256300D01*
X112683700Y-42256300D02*
X109220000Y-45720000D01*
X107950000Y-45720000D02*
X106680000Y-44450000D01*
X106680000Y-44450000D02*
X106680000Y-39849655D01*
X106680000Y-39849655D02*
X108033219Y-38496436D01*
%TO.N,home_home*%
X114366993Y-50113233D02*
X118110000Y-46370226D01*
X118110000Y-41908558D02*
X119639113Y-40379445D01*
X118110000Y-46370226D02*
X118110000Y-41908558D01*
%TO.N,near2_home*%
X98091200Y-40153300D02*
X98091200Y-34591200D01*
X96520000Y-30239500D02*
X97556200Y-29203300D01*
X98091200Y-34591200D02*
X96520000Y-33020000D01*
X96520000Y-33020000D02*
X96520000Y-30239500D01*
%TO.N,near1_home*%
X79091200Y-35911200D02*
X77470000Y-34290000D01*
X79091200Y-40153300D02*
X79091200Y-35911200D01*
X77470000Y-30289500D02*
X78556200Y-29203300D01*
X77470000Y-34290000D02*
X77470000Y-30289500D01*
%TO.N,P20*%
X67006200Y-28243800D02*
X68580000Y-26670000D01*
X67006200Y-31403300D02*
X67006200Y-28243800D01*
X68580000Y-26670000D02*
X79775900Y-26670000D01*
X79775900Y-26670000D02*
X80484100Y-27378200D01*
%TO.N,P5*%
X112455200Y31536700D02*
X111049400Y30130900D01*
X104909700Y27584100D02*
X87274100Y27584100D01*
X87274100Y27584100D02*
X84243700Y24553700D01*
X111049400Y30130900D02*
X107456500Y30130900D01*
X107456500Y30130900D02*
X104909700Y27584100D01*
X84243700Y24553700D02*
X84243700Y14534200D01*
%TO.N,inner_num*%
X98556200Y41796700D02*
X97790000Y41030500D01*
X97790000Y41030500D02*
X97790000Y36830000D01*
X97790000Y36830000D02*
X99091200Y35528800D01*
X99091200Y35528800D02*
X99091200Y30846700D01*
%TO.N,inner_top*%
X98556200Y24796700D02*
X97790000Y24030500D01*
X97790000Y24030500D02*
X97790000Y20320000D01*
X97790000Y20320000D02*
X99091200Y19018800D01*
X99091200Y19018800D02*
X99091200Y13846700D01*
%TO.N,P6*%
X93631200Y-3153300D02*
X93631200Y-921200D01*
X105716400Y24392891D02*
X109195209Y27871700D01*
X93631200Y-921200D02*
X92710000Y0D01*
X92710000Y10160000D02*
X94343300Y11793300D01*
X98898700Y11793300D02*
X105716400Y18611000D01*
X92710000Y0D02*
X92710000Y10160000D01*
X94343300Y11793300D02*
X98898700Y11793300D01*
X109195209Y27871700D02*
X111330200Y27871700D01*
X105716400Y18611000D02*
X105716400Y24392891D01*
X111330200Y27871700D02*
X112455200Y28996700D01*
X74631200Y-1153300D02*
X75406300Y-1153300D01*
X75406300Y-1153300D02*
X79323700Y-5070700D01*
X92710000Y-5606200D02*
X91471200Y-4367400D01*
X79323700Y-5070700D02*
X81270700Y-5070700D01*
X92710000Y-16510000D02*
X92710000Y-5606200D01*
X81270700Y-5070700D02*
X83820000Y-7620000D01*
X83820000Y-7620000D02*
X83820000Y-16510000D01*
X91440000Y-17780000D02*
X92710000Y-16510000D01*
X83820000Y-16510000D02*
X85090000Y-17780000D01*
X85090000Y-17780000D02*
X91440000Y-17780000D01*
X91471200Y-4367400D02*
X91471200Y-3153300D01*
X93631200Y-3153300D02*
X91471200Y-3153300D01*
%TO.N,index_bottom*%
X80091200Y-18153300D02*
X79138700Y-17200800D01*
X79138700Y-17200800D02*
X79138700Y-7620800D01*
X79138700Y-7620800D02*
X79556200Y-7203300D01*
%TO.N,middle_bottom*%
X59706300Y-2053200D02*
X59706300Y-10143700D01*
X61091200Y-12153300D02*
X59706300Y-10768400D01*
X59706300Y-10768400D02*
X59706300Y-10143700D01*
%TO.N,P14*%
X73464300Y-15240000D02*
X69850000Y-15240000D01*
X77678800Y-19454500D02*
X73464300Y-15240000D01*
X69850000Y-15240000D02*
X68006200Y-13396200D01*
X68006200Y-13396200D02*
X68006200Y-9403300D01*
%TO.N,index_num*%
X80091200Y32846700D02*
X79138700Y33799200D01*
X79138700Y43379200D02*
X79556200Y43796700D01*
X79138700Y33799200D02*
X79138700Y43379200D01*
%TO.N,middle_home*%
X60556200Y15796700D02*
X59690000Y14930500D01*
X59690000Y14930500D02*
X59690000Y11430000D01*
X59690000Y11430000D02*
X61091200Y10028800D01*
X61091200Y10028800D02*
X61091200Y4846700D01*
%TO.N,middle_top*%
X61091200Y26538800D02*
X59690000Y27940000D01*
X61091200Y21846700D02*
X61091200Y26538800D01*
X59690000Y27940000D02*
X59690000Y31930500D01*
X59690000Y31930500D02*
X60556200Y32796700D01*
%TO.N,P15*%
X53087900Y17780000D02*
X52070000Y17780000D01*
X52070000Y17780000D02*
X49006200Y14716200D01*
X57150000Y21842100D02*
X53087900Y17780000D01*
X49006200Y14716200D02*
X49006200Y13596700D01*
X55880000Y24130000D02*
X50800000Y24130000D01*
X57150000Y22860000D02*
X55880000Y24130000D01*
X57150000Y21842100D02*
X57150000Y22860000D01*
X50800000Y24130000D02*
X49006200Y25923800D01*
X49006200Y25923800D02*
X49006200Y30596700D01*
X55764700Y36036200D02*
X56406400Y36677900D01*
X56406400Y36677900D02*
X56406400Y40196500D01*
X49006200Y42433800D02*
X49006200Y47596700D01*
X56406400Y40196500D02*
X55962900Y40640000D01*
X55962900Y40640000D02*
X50800000Y40640000D01*
X50800000Y40640000D02*
X49006200Y42433800D01*
%TO.N,P18*%
X36756700Y2540000D02*
X30480000Y2540000D01*
X30480000Y2540000D02*
X30006200Y3013800D01*
X37406400Y1890300D02*
X36756700Y2540000D01*
X30006200Y3013800D02*
X30006200Y8596700D01*
%TO.N,ring_bottom*%
X41556200Y-6203300D02*
X40640000Y-7119500D01*
X40640000Y-10160000D02*
X42091200Y-11611200D01*
X40640000Y-7119500D02*
X40640000Y-10160000D01*
X42091200Y-11611200D02*
X42091200Y-17153300D01*
%TO.N,ring_top*%
X41556200Y27796700D02*
X40640000Y26880500D01*
X40640000Y26880500D02*
X40640000Y22860000D01*
X42091200Y21408800D02*
X42091200Y16846700D01*
X40640000Y22860000D02*
X42091200Y21408800D01*
%TO.N,P5*%
X36631200Y16846700D02*
X37406300Y16846700D01*
X37406300Y16846700D02*
X40283000Y13970000D01*
X40283000Y13970000D02*
X44380400Y13970000D01*
X44380400Y13970000D02*
X52257100Y21846700D01*
X52257100Y21846700D02*
X53471200Y21846700D01*
%TO.N,P19*%
X18406400Y11098000D02*
X18406400Y13343600D01*
X17780000Y13970000D02*
X11430000Y13970000D01*
X18406400Y13343600D02*
X17780000Y13970000D01*
X11006200Y14393800D02*
X11430000Y13970000D01*
X11006200Y20596700D02*
X11006200Y14393800D01*
%TO.N,pinky_num*%
X20931200Y28846700D02*
X23091200Y28846700D01*
%TO.N,P19*%
X18406400Y27140800D02*
X18406400Y30890300D01*
X18406400Y30890300D02*
X16510000Y32786700D01*
X16510000Y32786700D02*
X16510000Y34290000D01*
X16510000Y34290000D02*
X15240000Y35560000D01*
X15240000Y35560000D02*
X13042900Y35560000D01*
X13042900Y35560000D02*
X11006200Y37596700D01*
%TO.N,P6*%
X18406300Y-6445900D02*
X16645800Y-8206400D01*
X16645800Y-8206400D02*
X16645800Y-17644200D01*
X16645800Y-17644200D02*
X13970000Y-20320000D01*
X-1368800Y-6251200D02*
X-1368800Y-5153300D01*
X13970000Y-20320000D02*
X7620000Y-20320000D01*
X7620000Y-20320000D02*
X7620000Y-10160000D01*
X7620000Y-10160000D02*
X5080000Y-7620000D01*
X5080000Y-7620000D02*
X0Y-7620000D01*
X0Y-7620000D02*
X-1368800Y-6251200D01*
%TO.N,pinky_bottom*%
X22556200Y-11203300D02*
X21590000Y-12169500D01*
X21590000Y-12169500D02*
X21590000Y-16510000D01*
X23091200Y-18011200D02*
X23091200Y-22153300D01*
X21590000Y-16510000D02*
X23091200Y-18011200D01*
%TO.N,pinky_home*%
X22556200Y5796700D02*
X21590000Y4830500D01*
X21590000Y4830500D02*
X21590000Y0D01*
X21590000Y0D02*
X23091200Y-1501200D01*
X23091200Y-1501200D02*
X23091200Y-5153300D01*
%TO.N,outer_home*%
X3556200Y5796700D02*
X3556200Y4826200D01*
X3556200Y4826200D02*
X2540000Y3810000D01*
X2540000Y3810000D02*
X2540000Y2540000D01*
X2540000Y2540000D02*
X4091200Y988800D01*
X4091200Y988800D02*
X4091200Y-5153300D01*
%TO.N,P20*%
X-3013900Y-15713900D02*
X-2540000Y-15240000D01*
X-4956700Y-15713900D02*
X-3013900Y-15713900D01*
X-2182700Y-14882700D02*
X1674600Y-14882700D01*
X-2540000Y-15240000D02*
X-2182700Y-14882700D01*
%TO.N,P6*%
X-1368800Y-5153300D02*
X-1196700Y-5153300D01*
%TO.N,outer_bottom*%
X2706300Y-12053200D02*
X2706300Y-22153300D01*
X2706300Y-22153300D02*
X4091200Y-22153300D01*
X3556200Y-11203300D02*
X2706300Y-12053200D01*
X1931200Y-22153300D02*
X2706300Y-22153300D01*
%TO.N,P20*%
X-7993800Y-13403300D02*
X-7993800Y3596700D01*
X-7993800Y20596700D02*
X-7993800Y37596700D01*
X-7993800Y-13403300D02*
X-5683200Y-15713900D01*
X-5683200Y-15713900D02*
X-4956700Y-15713900D01*
X-7993800Y3596700D02*
X-7993800Y20596700D01*
%TO.N,outer_home*%
X2318800Y-5153300D02*
X3450000Y-5153300D01*
X3450000Y-5153300D02*
X4091200Y-5153300D01*
X3556200Y5796700D02*
X3450000Y5690500D01*
X1931200Y-5153300D02*
X2318800Y-5153300D01*
%TO.N,outer_top*%
X3556200Y22796700D02*
X2706300Y21946800D01*
X4091200Y11846700D02*
X2706300Y11846700D01*
X1931200Y11846700D02*
X2706300Y11846700D01*
X2706300Y21946800D02*
X2706300Y11846700D01*
%TO.N,outer_num*%
X3398700Y39639200D02*
X3398700Y29539200D01*
X2706300Y28846700D02*
X3398800Y29539200D01*
X3556200Y39796700D02*
X3398700Y39639200D01*
X1931200Y28846700D02*
X2706300Y28846700D01*
X3398800Y29539200D02*
X4091200Y28846700D01*
X3398700Y29539200D02*
X3398800Y29539200D01*
%TO.N,pinky_bottom*%
X21318800Y-22153300D02*
X22450000Y-22153300D01*
X20931200Y-22153300D02*
X21318800Y-22153300D01*
X22450000Y-22153300D02*
X23091200Y-22153300D01*
%TO.N,P19*%
X12530200Y5221800D02*
X18406400Y11098000D01*
X83851600Y-27629300D02*
X86000500Y-29778200D01*
X11006200Y20596700D02*
X11006200Y22221800D01*
X11006200Y4102900D02*
X11006200Y5221800D01*
X11700000Y37596700D02*
X11006200Y37596700D01*
X18406400Y27140800D02*
X26232100Y27140800D01*
X11006200Y22221800D02*
X15925200Y27140800D01*
X86006200Y-31403300D02*
X86006200Y-29778200D01*
X11006200Y4102900D02*
X11006200Y3596700D01*
X15925200Y27140800D02*
X18406400Y27140800D01*
X11006200Y3596700D02*
X11006200Y-13403300D01*
X86000500Y-29778200D02*
X86006200Y-29778200D01*
X11006200Y5221800D02*
X12530200Y5221800D01*
%TO.N,pinky_home*%
X23091200Y-5153300D02*
X22440500Y-5153300D01*
X22440500Y-5153300D02*
X20931200Y-5153300D01*
%TO.N,pinky_top*%
X20931200Y11846700D02*
X22440500Y11846700D01*
X22440500Y11846700D02*
X23091200Y11846700D01*
%TO.N,pinky_num*%
X22556200Y39796700D02*
X22402300Y39642800D01*
%TO.N,ring_bottom*%
X39931200Y-17153300D02*
X41440500Y-17153300D01*
X41440500Y-17153300D02*
X42091200Y-17153300D01*
%TO.N,P18*%
X32222900Y-6778200D02*
X37406400Y-1594700D01*
X30006200Y-6778200D02*
X32222900Y-6778200D01*
X30700000Y8596700D02*
X30006200Y8596700D01*
X43730200Y-2497700D02*
X46556200Y328300D01*
X37406400Y-1594700D02*
X37406400Y1890300D01*
X37406400Y-1594700D02*
X42827200Y-1594700D01*
X42827200Y-1594700D02*
X43730200Y-2497700D01*
X30006200Y25596700D02*
X30006200Y40971600D01*
X30006200Y25596700D02*
X30006200Y8596700D01*
X30006200Y42596700D02*
X30006200Y40971600D01*
X30006200Y-8403300D02*
X30006200Y-6778200D01*
%TO.N,ring_home*%
X42091200Y-153300D02*
X39931200Y-153300D01*
X41402300Y10642800D02*
X41402300Y535600D01*
X41402300Y535600D02*
X42091200Y-153300D01*
X41556200Y10796700D02*
X41402300Y10642800D01*
%TO.N,ring_top*%
X39931200Y16846700D02*
X41440500Y16846700D01*
X41440500Y16846700D02*
X42091200Y16846700D01*
%TO.N,ring_num*%
X42091200Y33846700D02*
X40706300Y33846700D01*
X41556200Y44796700D02*
X40706300Y43946800D01*
X40706300Y43946800D02*
X40706300Y33846700D01*
X39931200Y33846700D02*
X40706300Y33846700D01*
%TO.N,middle_bottom*%
X58931200Y-12153300D02*
X59706300Y-12153300D01*
X61091200Y-12153300D02*
X59706300Y-12153300D01*
X60556200Y-1203300D02*
X59706300Y-2053200D01*
%TO.N,P15*%
X114379000Y-21061500D02*
X114605700Y-20438600D01*
X113116200Y-18949200D02*
X113116200Y7533800D01*
X108400000Y19500000D02*
X112210000Y19500000D01*
X114605600Y-20438600D02*
X113116200Y-18949200D01*
X125058200Y-21061500D02*
X114379000Y-21061500D01*
X117318200Y28271700D02*
X118043200Y28996700D01*
X117318200Y21076395D02*
X117318200Y28271700D01*
X49006200Y32221800D02*
X52820600Y36036200D01*
X112210000Y19500000D02*
X113209500Y20499500D01*
X113209500Y20499500D02*
X116741305Y20499500D01*
X116741305Y20499500D02*
X117318200Y21076395D01*
X113847600Y-22521600D02*
X114379000Y-21061500D01*
X49006200Y-3403300D02*
X49006200Y13596700D01*
X52820600Y36036200D02*
X55764700Y36036200D01*
X107950000Y19050000D02*
X108400000Y19500000D01*
X49006200Y30596700D02*
X49006200Y32221800D01*
X114605700Y-20438600D02*
X114605600Y-20438600D01*
X113116200Y7533800D02*
X107950000Y12700000D01*
X107950000Y12700000D02*
X107950000Y19050000D01*
%TO.N,middle_home*%
X61091200Y4846700D02*
X60440500Y4846700D01*
X60440500Y4846700D02*
X58931200Y4846700D01*
%TO.N,middle_top*%
X59318800Y21846700D02*
X60450000Y21846700D01*
X58931200Y21846700D02*
X59318800Y21846700D01*
X60450000Y21846700D02*
X61091200Y21846700D01*
%TO.N,middle_num*%
X61091200Y38846700D02*
X59706300Y38846700D01*
X60556200Y49796700D02*
X59706300Y48946800D01*
X58931200Y38846700D02*
X59706300Y38846700D01*
X59706300Y48946800D02*
X59706300Y38846700D01*
%TO.N,index_bottom*%
X79450000Y-18153300D02*
X80091200Y-18153300D01*
X78318800Y-18153300D02*
X79450000Y-18153300D01*
X77931200Y-18153300D02*
X78318800Y-18153300D01*
%TO.N,P14*%
X129004700Y-47088400D02*
X127438800Y-45991900D01*
X105349800Y-29485300D02*
X104713100Y-29485300D01*
X97958800Y-22969700D02*
X93893000Y-18903900D01*
X104713100Y-29485300D02*
X98197500Y-22969700D01*
X137508000Y-47088400D02*
X129004700Y-47088400D01*
X85343800Y-18903900D02*
X84793200Y-19454500D01*
X127438800Y-45225500D02*
X116881500Y-34668200D01*
X68006200Y-9403300D02*
X68006200Y7596700D01*
X98197500Y-22969700D02*
X97958800Y-22969700D01*
X93893000Y-18903900D02*
X85343800Y-18903900D01*
X110532700Y-34668200D02*
X105349800Y-29485300D01*
X84793200Y-19454500D02*
X77678800Y-19454500D01*
X116881500Y-34668200D02*
X110532700Y-34668200D01*
X68006200Y41596700D02*
X68006200Y24596700D01*
X68006200Y24596700D02*
X68006200Y7596700D01*
X127438800Y-45991900D02*
X127438800Y-45225500D01*
%TO.N,index_home*%
X79556200Y9796700D02*
X78706300Y8946800D01*
X78706300Y-1153300D02*
X80091200Y-1153300D01*
X78706300Y8946800D02*
X78706300Y-1153300D01*
X77931200Y-1153300D02*
X78706300Y-1153300D01*
%TO.N,index_top*%
X78706300Y25946800D02*
X78706300Y15846700D01*
X80091200Y15846700D02*
X78706300Y15846700D01*
X77931200Y15846700D02*
X78706300Y15846700D01*
X79556200Y26796700D02*
X78706300Y25946800D01*
%TO.N,index_num*%
X77931200Y32846700D02*
X79455900Y32846700D01*
X79455900Y32846700D02*
X80091200Y32846700D01*
%TO.N,inner_bottom*%
X96931200Y-20153300D02*
X97706300Y-20153300D01*
X97706300Y-20153300D02*
X99091200Y-20153300D01*
X98556200Y-9203300D02*
X97706300Y-10053200D01*
X97706300Y-10053200D02*
X97706300Y-20153300D01*
%TO.N,P16*%
X88529700Y7221800D02*
X87006200Y7221800D01*
X97692000Y15928000D02*
X94457200Y15928000D01*
X94457200Y13149300D02*
X88529700Y7221800D01*
X87006200Y5596700D02*
X87006200Y-11403300D01*
X89316800Y20286100D02*
X87006200Y22596700D01*
X94457200Y15928000D02*
X90099100Y20286100D01*
X90099100Y20286100D02*
X89316800Y20286100D01*
X94457200Y15928000D02*
X94457200Y13149300D01*
X87006200Y5596700D02*
X87006200Y7221800D01*
%TO.N,inner_home*%
X97318800Y-3153300D02*
X98450000Y-3153300D01*
X98450000Y-3153300D02*
X99091200Y-3153300D01*
X96931200Y-3153300D02*
X97318800Y-3153300D01*
X98138700Y7379200D02*
X98556200Y7796700D01*
X99091200Y-3153300D02*
X98138700Y-2200800D01*
X98138700Y-2200800D02*
X98138700Y7379200D01*
%TO.N,inner_top*%
X98440500Y13846700D02*
X96931200Y13846700D01*
X99091200Y13846700D02*
X98440500Y13846700D01*
%TO.N,inner_num*%
X96931200Y30846700D02*
X98440500Y30846700D01*
X98440500Y30846700D02*
X99091200Y30846700D01*
%TO.N,near1_home*%
X79091200Y-40153300D02*
X78440500Y-40153300D01*
X78440500Y-40153300D02*
X76931200Y-40153300D01*
%TO.N,near2_home*%
X95931200Y-40153300D02*
X96318800Y-40153300D01*
X96318800Y-40153300D02*
X97410300Y-40153300D01*
X97410300Y-40153300D02*
X98091200Y-40153300D01*
%TO.N,home_home*%
X114367000Y-50113200D02*
X115411900Y-50493500D01*
X115770400Y-50852000D02*
X115411900Y-50493500D01*
X116396700Y-50852000D02*
X115770400Y-50852000D01*
%TO.N,home_top*%
X120181400Y-34138500D02*
X121226300Y-34518800D01*
X122211100Y-34877300D02*
X121584800Y-34877300D01*
X122825500Y-30772800D02*
X120594300Y-33004000D01*
X125453500Y-24404600D02*
X122825500Y-27032600D01*
X121584800Y-34877300D02*
X121226300Y-34518800D01*
X122825500Y-27032600D02*
X122825500Y-30772800D01*
X120181400Y-34138500D02*
X120594300Y-33004000D01*
%TO.N,far_home*%
X139727800Y-51911100D02*
X132725000Y-58913900D01*
X133585300Y-61187700D02*
X132884600Y-60487000D01*
X132725000Y-59078900D02*
X132725100Y-59079000D01*
X132116000Y-59948800D02*
X132884600Y-60487000D01*
X132116000Y-59948800D02*
X132725100Y-59079000D01*
X132725000Y-58913900D02*
X132725000Y-59078900D01*
X133885400Y-61187700D02*
X133585300Y-61187700D01*
%TO.N,P7*%
X74631200Y-18153300D02*
X75406300Y-18153300D01*
X55631200Y-12153300D02*
X56406300Y-12153300D01*
X75406300Y-18153300D02*
X77406300Y-20153300D01*
X-3528800Y-22153300D02*
X-1368800Y-22153300D01*
X36631200Y-17153300D02*
X34471200Y-17153300D01*
X26971200Y-23439200D02*
X33257100Y-17153300D01*
X19692200Y-23439200D02*
X26971200Y-23439200D01*
X18406300Y-22153300D02*
X19692200Y-23439200D01*
X77406300Y-20153300D02*
X91471200Y-20153300D01*
X62406300Y-18153300D02*
X56406300Y-12153300D01*
X72471200Y-18153300D02*
X62406300Y-18153300D01*
X72471200Y-18153300D02*
X74631200Y-18153300D01*
X53471200Y-12153300D02*
X55631200Y-12153300D01*
X15471200Y-22153300D02*
X17631200Y-22153300D01*
X93631200Y-20153300D02*
X91471200Y-20153300D01*
X17631200Y-22153300D02*
X18406300Y-22153300D01*
X34471200Y-17153300D02*
X33257100Y-17153300D01*
%TO.N,P6*%
X15471200Y-5153300D02*
X17631200Y-5153300D01*
X73685300Y-1153300D02*
X74631200Y-1153300D01*
X36631200Y-153300D02*
X34471200Y-153300D01*
X-3528800Y-5153300D02*
X-1368800Y-5153300D01*
X72471200Y-1153300D02*
X73685300Y-1153300D01*
X18406300Y-6445900D02*
X18406300Y-5153300D01*
X55631200Y4846700D02*
X53471200Y4846700D01*
X33257100Y-153300D02*
X26964500Y-6445900D01*
X34471200Y-153300D02*
X33257100Y-153300D01*
X26964500Y-6445900D02*
X18406300Y-6445900D01*
X17631200Y-5153300D02*
X18406300Y-5153300D01*
%TO.N,P5*%
X15471200Y11846700D02*
X14257100Y11846700D01*
X12968800Y10558400D02*
X694600Y10558400D01*
X75406300Y15846700D02*
X76718800Y14534200D01*
X84931200Y13846700D02*
X84243700Y14534200D01*
X55631200Y21846700D02*
X53471200Y21846700D01*
X17631200Y11846700D02*
X15471200Y11846700D01*
X91471200Y13846700D02*
X93631200Y13846700D01*
X14257100Y11846700D02*
X12968800Y10558400D01*
X91471200Y13846700D02*
X84931200Y13846700D01*
X34471200Y16846700D02*
X36631200Y16846700D01*
X-1368800Y11846700D02*
X-593700Y11846700D01*
X72471200Y15846700D02*
X74631200Y15846700D01*
X694600Y10558400D02*
X-593700Y11846700D01*
X74631200Y15846700D02*
X75406300Y15846700D01*
X76718800Y14534200D02*
X84243700Y14534200D01*
X-3528800Y11846700D02*
X-1368800Y11846700D01*
%TO.N,P4*%
X94406300Y30846700D02*
X95738100Y29514900D01*
X15471200Y28846700D02*
X14257100Y28846700D01*
X95738100Y29514900D02*
X101674900Y29514900D01*
X104966700Y32806700D02*
X111185200Y32806700D01*
X38694600Y32558400D02*
X37406300Y33846700D01*
X111185200Y32806700D02*
X112455200Y34076700D01*
X55631200Y38846700D02*
X53471200Y38846700D01*
X12968800Y27558400D02*
X694600Y27558400D01*
X93631200Y30846700D02*
X91471200Y30846700D01*
X-3528800Y28846700D02*
X-1368800Y28846700D01*
X101674900Y29514900D02*
X104966700Y32806700D01*
X77406300Y30846700D02*
X75406300Y32846700D01*
X36631200Y33846700D02*
X34471200Y33846700D01*
X36631200Y33846700D02*
X37406300Y33846700D01*
X17631200Y28846700D02*
X15471200Y28846700D01*
X91471200Y30846700D02*
X77406300Y30846700D01*
X74631200Y32846700D02*
X75406300Y32846700D01*
X93631200Y30846700D02*
X94406300Y30846700D01*
X53471200Y38846700D02*
X52257100Y38846700D01*
X74631200Y32846700D02*
X72471200Y32846700D01*
X-1368800Y28846700D02*
X-593700Y28846700D01*
X45968800Y32558400D02*
X38694600Y32558400D01*
X694600Y27558400D02*
X-593700Y28846700D01*
X14257100Y28846700D02*
X12968800Y27558400D01*
X52257100Y38846700D02*
X45968800Y32558400D01*
%TO.N,P3*%
X116606900Y-32837400D02*
X116907900Y-32837400D01*
X115050700Y-32271100D02*
X116606900Y-32837500D01*
X90471200Y-40153300D02*
X89257100Y-40153300D01*
X110792500Y-48812100D02*
X111093500Y-48812100D01*
X128813400Y-57636200D02*
X128993000Y-57636200D01*
X128993000Y-57636200D02*
X129412800Y-58056000D01*
X109236300Y-48245800D02*
X110792500Y-48812200D01*
X116907900Y-32837400D02*
X117080400Y-33009900D01*
X116606900Y-32837500D02*
X116606900Y-32837400D01*
X110792500Y-48812200D02*
X110792500Y-48812100D01*
X71471200Y-40153300D02*
X73631200Y-40153300D01*
X87975500Y-41434900D02*
X75687900Y-41434900D01*
X127643400Y-56817100D02*
X128813300Y-57636300D01*
X73631200Y-40153300D02*
X74406300Y-40153300D01*
X111093500Y-48812100D02*
X111266000Y-48984600D01*
X90471200Y-40153300D02*
X92631200Y-40153300D01*
X89257100Y-40153300D02*
X87975500Y-41434900D01*
X75687900Y-41434900D02*
X74406300Y-40153300D01*
X128813300Y-57636300D02*
X128813400Y-57636200D01*
%TO.N,RAW*%
X128756100Y-14397000D02*
X128468000Y-14397000D01*
X128756100Y-14403300D02*
X128756100Y-14397000D01*
X129706200Y-14403300D02*
X128756100Y-14403300D01*
%TO.N,GND*%
X126206100Y15846700D02*
X125131000Y14771600D01*
X127281200Y17211900D02*
X128295200Y18225900D01*
X127281200Y15846700D02*
X126743700Y15846700D01*
X128295200Y18225900D02*
X128295200Y42501700D01*
X126743700Y15846700D02*
X127281200Y16384200D01*
X114837500Y12390400D02*
X114481200Y12746700D01*
X120756300Y14771600D02*
X119581200Y15946700D01*
X128295200Y42501700D02*
X125426100Y45370800D01*
X123513100Y45370800D02*
X122107200Y46776700D01*
X125131000Y14771600D02*
X120756300Y14771600D01*
X127281200Y16384200D02*
X127281200Y17211900D01*
X125426100Y45370800D02*
X123513100Y45370800D01*
X126743700Y15846700D02*
X126206100Y15846700D01*
%TO.N,VCC*%
X125386000Y40290800D02*
X123513100Y40290800D01*
X124934587Y19182700D02*
X126489000Y20737113D01*
X120644400Y19055600D02*
X120644400Y19182700D01*
X123513100Y40290800D02*
X122107200Y41696700D01*
X126489000Y20737113D02*
X126489000Y39187800D01*
X120650000Y19050000D02*
X120644400Y19055600D01*
X120644400Y19182700D02*
X124934587Y19182700D01*
X126489000Y39187800D02*
X125386000Y40290800D01*
%TO.N,P1*%
X124533096Y15946700D02*
X127545800Y18959404D01*
X122121200Y15946700D02*
X124533096Y15946700D01*
X109220000Y17780000D02*
X110490000Y19050000D01*
X110490000Y19050000D02*
X119017900Y19050000D01*
X127545800Y18959404D02*
X127545800Y41484400D01*
X119017900Y19050000D02*
X122121200Y15946700D01*
X111941200Y12746700D02*
X109220000Y15467900D01*
X109220000Y15467900D02*
X109220000Y17780000D01*
%TO.N,P0*%
X123050700Y8890000D02*
X123050700Y10766200D01*
X128745200Y15160700D02*
X128745200Y43283202D01*
X123050700Y10766200D02*
X127056200Y14771700D01*
X127056200Y14771700D02*
X128356200Y14771700D01*
X128356200Y14771700D02*
X128745200Y15160700D01*
X128745200Y43283202D02*
X126654201Y45374201D01*
%TO.N,P2*%
X125389900Y37781600D02*
X121564800Y37781600D01*
X118334200Y37341700D02*
X116519200Y39156700D01*
X114300000Y19774500D02*
X114810900Y19774500D01*
X121124900Y37341700D02*
X118334200Y37341700D01*
X117536200Y14771700D02*
X115676200Y14771700D01*
X114828200Y19791800D02*
X124907291Y19791800D01*
X126026900Y22955500D02*
X126026900Y37144600D01*
X114810900Y19774500D02*
X114828200Y19791800D01*
X115676200Y14771700D02*
X114501200Y15946700D01*
X121564800Y37781600D02*
X121124900Y37341700D01*
X126026900Y37144600D02*
X125389900Y37781600D01*
X119561200Y12746700D02*
X117536200Y14771700D01*
X124907291Y19791800D02*
X126026900Y20911409D01*
X126026900Y20911409D02*
X126026900Y23156900D01*
%TO.N,Bplus*%
X129706200Y-17403300D02*
X129706200Y-16628200D01*
X127281200Y11771600D02*
X127281200Y11490100D01*
X127281200Y12846700D02*
X127281200Y11771600D01*
X127281200Y-14300100D02*
X127281200Y11490100D01*
X129609300Y-16628200D02*
X127281200Y-14300100D01*
X129706200Y-16628200D02*
X129609300Y-16628200D01*
%TD*%
M02*
