0
SECTION
2
HEADER
9
$INSUNITS
70
4
0
ENDSEC
0
SECTION
2
TABLES
0
TABLE
2
LTYPE
0
LTYPE
72
65
70
64
2
CONTINUOUS
3
______
73
0
40
0
0
ENDTAB
0
TABLE
2
LAYER
0
ENDTAB
0
ENDSEC
0
SECTION
2
ENTITIES
0
LINE
8
0
10
-10.5871081
20
-5.7042214
11
6.3165939
21
-10.2335547
0
LINE
8
0
10
6.3165939
20
-10.2335547
11
10.5871081
21
5.7042214
0
LINE
8
0
10
10.5871081
20
5.7042214
11
-6.3165939
21
10.2335547
0
LINE
8
0
10
-6.3165939
20
10.2335547
11
-10.5871081
21
-5.7042214
0
LINE
8
0
10
-6.1871843
20
10.7165177
11
10.7165177
21
6.1871844
0
LINE
8
0
10
10.7165177
20
6.1871844
11
14.9870319
21
22.1249605
0
LINE
8
0
10
14.9870319
20
22.1249605
11
-1.9166701
21
26.6542938
0
LINE
8
0
10
-1.9166701
20
26.6542938
11
-6.1871843
21
10.7165177
0
LINE
8
0
10
-1.7872606
20
27.1372567
11
15.1164414
21
22.6079234
0
LINE
8
0
10
15.1164414
20
22.6079234
11
19.3869556
21
38.5456995
0
LINE
8
0
10
19.3869556
20
38.5456995
11
2.4832536
21
43.0750328
0
LINE
8
0
10
2.4832536
20
43.0750328
11
-1.7872606
21
27.1372567
0
LINE
8
0
10
2.6126632
20
43.5579957
11
19.5163652
21
39.0286624
0
LINE
8
0
10
19.5163652
20
39.0286624
11
23.7868794
21
54.9664385
0
LINE
8
0
10
23.7868794
20
54.9664385
11
6.8831774
21
59.4957718
0
LINE
8
0
10
6.8831774
20
59.4957718
11
2.6126632
21
43.5579957
0
LINE
8
0
10
7.7654826
20
-10.6217833
11
24.6691846
21
-15.1511166
0
LINE
8
0
10
24.6691846
20
-15.1511166
11
28.9396988
21
0.7866595
0
LINE
8
0
10
28.9396988
20
0.7866595
11
12.0359968
21
5.3159928
0
LINE
8
0
10
12.0359968
20
5.3159928
11
7.7654826
21
-10.6217833
0
LINE
8
0
10
12.1654063
20
5.7989558
11
29.0691083
21
1.2696225
0
LINE
8
0
10
29.0691083
20
1.2696225
11
33.3396225
21
17.2073986
0
LINE
8
0
10
33.3396225
20
17.2073986
11
16.4359205
21
21.7367319
0
LINE
8
0
10
16.4359205
20
21.7367319
11
12.1654063
21
5.7989558
0
LINE
8
0
10
16.5653301
20
22.2196948
11
33.4690321
21
17.6903615
0
LINE
8
0
10
33.4690321
20
17.6903615
11
37.7395463
21
33.6281376
0
LINE
8
0
10
37.7395463
20
33.6281376
11
20.8358443
21
38.1574709
0
LINE
8
0
10
20.8358443
20
38.1574709
11
16.5653301
21
22.2196948
0
LINE
8
0
10
20.9652539
20
38.6404339
11
37.8689559
21
34.1111006
0
LINE
8
0
10
37.8689559
20
34.1111006
11
42.1394701
21
50.0488767
0
LINE
8
0
10
42.1394701
20
50.0488767
11
25.2357681
21
54.57821
0
LINE
8
0
10
25.2357681
20
54.57821
11
20.9652539
21
38.6404339
0
LINE
8
0
10
27.4121685
20
-10.709716
11
44.3158705
21
-15.2390493
0
LINE
8
0
10
44.3158705
20
-15.2390493
11
48.5863847
21
0.6987268
0
LINE
8
0
10
48.5863847
20
0.6987268
11
31.6826827
21
5.2280601
0
LINE
8
0
10
31.6826827
20
5.2280601
11
27.4121685
21
-10.709716
0
LINE
8
0
10
31.8120923
20
5.7110231
11
48.7157943
21
1.1816898
0
LINE
8
0
10
48.7157943
20
1.1816898
11
52.9863085
21
17.1194659
0
LINE
8
0
10
52.9863085
20
17.1194659
11
36.0826065
21
21.6487992
0
LINE
8
0
10
36.0826065
20
21.6487992
11
31.8120923
21
5.7110231
0
LINE
8
0
10
36.2120161
20
22.1317621
11
53.1157181
21
17.6024288
0
LINE
8
0
10
53.1157181
20
17.6024288
11
57.3862323
21
33.5402049
0
LINE
8
0
10
57.3862323
20
33.5402049
11
40.4825303
21
38.0695382
0
LINE
8
0
10
40.4825303
20
38.0695382
11
36.2120161
21
22.1317621
0
LINE
8
0
10
40.6119398
20
38.5525012
11
57.5156418
21
34.0231679
0
LINE
8
0
10
57.5156418
20
34.0231679
11
61.786156
21
49.960944
0
LINE
8
0
10
61.786156
20
49.960944
11
44.882454
21
54.4902773
0
LINE
8
0
10
44.882454
20
54.4902773
11
40.6119398
21
38.5525012
0
LINE
8
0
10
47.0588545
20
-10.7976487
11
63.9625565
21
-15.326982
0
LINE
8
0
10
63.9625565
20
-15.326982
11
68.2330707
21
0.6107941
0
LINE
8
0
10
68.2330707
20
0.6107941
11
51.3293687
21
5.1401274
0
LINE
8
0
10
51.3293687
20
5.1401274
11
47.0588545
21
-10.7976487
0
LINE
8
0
10
51.4587782
20
5.6230904
11
68.3624802
21
1.0937571
0
LINE
8
0
10
68.3624802
20
1.0937571
11
72.6329944
21
17.0315332
0
LINE
8
0
10
72.6329944
20
17.0315332
11
55.7292924
21
21.5608665
0
LINE
8
0
10
55.7292924
20
21.5608665
11
51.4587782
21
5.6230904
0
LINE
8
0
10
55.858702
20
22.0438294
11
72.762404
21
17.5144961
0
LINE
8
0
10
72.762404
20
17.5144961
11
77.0329182
21
33.4522722
0
LINE
8
0
10
77.0329182
20
33.4522722
11
60.1292162
21
37.9816055
0
LINE
8
0
10
60.1292162
20
37.9816055
11
55.858702
21
22.0438294
0
LINE
8
0
10
60.2586258
20
38.4645684
11
77.1623278
21
33.9352351
0
LINE
8
0
10
77.1623278
20
33.9352351
11
81.432842
21
49.8730112
0
LINE
8
0
10
81.432842
20
49.8730112
11
64.52914
21
54.4023445
0
LINE
8
0
10
64.52914
20
54.4023445
11
60.2586258
21
38.4645684
0
LINE
8
0
10
63.8585309
20
-21.5107656
11
80.7622329
21
-26.0400989
0
LINE
8
0
10
80.7622329
20
-26.0400989
11
85.0327471
21
-10.1023228
0
LINE
8
0
10
85.0327471
20
-10.1023228
11
68.1290451
21
-5.5729895
0
LINE
8
0
10
68.1290451
20
-5.5729895
11
63.8585309
21
-21.5107656
0
LINE
8
0
10
68.2584547
20
-5.0900265
11
85.1621567
21
-9.6193598
0
LINE
8
0
10
85.1621567
20
-9.6193598
11
89.4326709
21
6.3184163
0
LINE
8
0
10
89.4326709
20
6.3184163
11
72.5289689
21
10.8477496
0
LINE
8
0
10
72.5289689
20
10.8477496
11
68.2584547
21
-5.0900265
0
LINE
8
0
10
72.6583784
20
11.3307126
11
89.5620804
21
6.8013793
0
LINE
8
0
10
89.5620804
20
6.8013793
11
93.8325946
21
22.7391554
0
LINE
8
0
10
93.8325946
20
22.7391554
11
76.9288926
21
27.2684887
0
LINE
8
0
10
76.9288926
20
27.2684887
11
72.6583784
21
11.3307126
0
LINE
8
0
10
77.0583022
20
27.7514516
11
93.9620042
21
23.2221183
0
LINE
8
0
10
93.9620042
20
23.2221183
11
98.2325184
21
39.1598944
0
LINE
8
0
10
98.2325184
20
39.1598944
11
81.3288164
21
43.6892277
0
LINE
8
0
10
81.3288164
20
43.6892277
11
77.0583022
21
27.7514516
0
LINE
8
0
10
81.6934835
20
-28.360179
11
98.5971855
21
-32.8895123
0
LINE
8
0
10
98.5971855
20
-32.8895123
11
102.8676997
21
-16.9517362
0
LINE
8
0
10
102.8676997
20
-16.9517362
11
85.9639977
21
-12.4224029
0
LINE
8
0
10
85.9639977
20
-12.4224029
11
81.6934835
21
-28.360179
0
LINE
8
0
10
86.0934072
20
-11.93944
11
102.9971092
21
-16.4687733
0
LINE
8
0
10
102.9971092
20
-16.4687733
11
107.2676234
21
-0.5309972
0
LINE
8
0
10
107.2676234
20
-0.5309972
11
90.3639214
21
3.9983361
0
LINE
8
0
10
90.3639214
20
3.9983361
11
86.0934072
21
-11.93944
0
LINE
8
0
10
90.493331
20
4.4812991
11
107.397033
21
-0.0480342
0
LINE
8
0
10
107.397033
20
-0.0480342
11
111.6675472
21
15.8897419
0
LINE
8
0
10
111.6675472
20
15.8897419
11
94.7638452
21
20.4190752
0
LINE
8
0
10
94.7638452
20
20.4190752
11
90.493331
21
4.4812991
0
LINE
8
0
10
94.8932548
20
20.9020381
11
111.7969568
21
16.3727048
0
LINE
8
0
10
111.7969568
20
16.3727048
11
116.067471
21
32.3104809
0
LINE
8
0
10
116.067471
20
32.3104809
11
99.163769
21
36.8398142
0
LINE
8
0
10
99.163769
20
36.8398142
11
94.8932548
21
20.9020381
0
LINE
8
0
10
57.1985861
20
-42.5023146
11
74.1022881
21
-47.0316479
0
LINE
8
0
10
74.1022881
20
-47.0316479
11
78.3728023
21
-31.0938718
0
LINE
8
0
10
78.3728023
20
-31.0938718
11
61.4691003
21
-26.5645385
0
LINE
8
0
10
61.4691003
20
-26.5645385
11
57.1985861
21
-42.5023146
0
LINE
8
0
10
75.5511768
20
-47.4198765
11
92.4548788
21
-51.9492098
0
LINE
8
0
10
92.4548788
20
-51.9492098
11
96.725393
21
-36.0114337
0
LINE
8
0
10
96.725393
20
-36.0114337
11
79.821691
21
-31.4821004
0
LINE
8
0
10
79.821691
20
-31.4821004
11
75.5511768
21
-47.4198765
0
LINE
8
0
10
91.2844715
20
-58.0615248
11
105.6196323
21
-68.0991125
0
LINE
8
0
10
105.6196323
20
-68.0991125
11
115.0836435
21
-54.5831038
0
LINE
8
0
10
115.0836435
20
-54.5831038
11
100.7484827
21
-44.5455161
0
LINE
8
0
10
100.7484827
20
-44.5455161
11
91.2844715
21
-58.0615248
0
LINE
8
0
10
101.0352709
20
-44.13594
11
115.3704317
21
-54.1735277
0
LINE
8
0
10
115.3704317
20
-54.1735277
11
124.8344429
21
-40.657519
0
LINE
8
0
10
124.8344429
20
-40.657519
11
110.4992821
21
-30.6199313
0
LINE
8
0
10
110.4992821
20
-30.6199313
11
101.0352709
21
-44.13594
0
LINE
8
0
10
107.0917075
20
-69.5807994
11
118.3404906
21
-82.9865772
0
LINE
8
0
10
118.3404906
20
-82.9865772
11
130.9802239
21
-72.3805816
0
LINE
8
0
10
130.9802239
20
-72.3805816
11
119.7314408
21
-58.9748038
0
LINE
8
0
10
119.7314408
20
-58.9748038
11
107.0917075
21
-69.5807994
0
ENDSEC
0
EOF