0
SECTION
2
HEADER
9
$INSUNITS
70
4
0
ENDSEC
0
SECTION
2
TABLES
0
TABLE
2
LTYPE
0
LTYPE
72
65
70
64
2
CONTINUOUS
3
______
73
0
40
0
0
ENDTAB
0
TABLE
2
LAYER
0
ENDTAB
0
ENDSEC
0
SECTION
2
ENTITIES
0
LINE
8
0
10
-10.1861875
20
-7.105743
11
5.2686257
21
-11.2468477
0
ARC
8
0
10
5.7862638
20
-9.3149961
40
2
50
255
51
303.5903777
0
ARC
8
0
10
-5.7862638
20
9.3149961
40
2
50
134.9999959
51
165
0
LINE
8
0
10
-7.7181154
20
9.8326341
11
-11.6004011
21
-4.6562532
0
ARC
8
0
10
-9.6685494
20
-5.1738913
40
2
50
165
51
255
0
ARC
8
0
10
-1.38634
20
25.7357352
40
2
50
134.999998
51
165
0
LINE
8
0
10
-3.3181916
20
26.2533732
11
-7.2004773
21
11.7644859
0
ARC
8
0
10
-5.2686256
20
11.2468478
40
2
50
165
51
194.9999999
0
ARC
8
0
10
3.0135837
20
42.1564742
40
2
50
134.999998
51
165
0
LINE
8
0
10
1.0817321
20
42.6741122
11
-2.8005536
21
28.1852249
0
ARC
8
0
10
-0.8687019
20
27.6675868
40
2
50
165
51
194.9999999
0
ARC
8
0
10
22.8683207
20
54.4361084
40
2
50
386.4096255
51
75
0
LINE
8
0
10
23.3859588
20
56.3679601
11
7.9311456
21
60.5090648
0
ARC
8
0
10
7.4135075
20
58.5772132
40
2
50
75
51
165
0
LINE
8
0
10
5.4816559
20
59.0948512
11
1.5993702
21
44.6059639
0
ARC
8
0
10
3.5312219
20
44.0883258
40
2
50
165
51
194.9999972
0
LINE
8
0
10
8.1664032
20
-12.0233049
11
23.6212164
21
-16.1644096
0
ARC
8
0
10
24.1388545
20
-14.232558
40
2
50
255
51
345
0
LINE
8
0
10
26.0707061
20
-14.750196
11
26.9165136
21
-11.5935995
0
ARC
8
0
10
8.6840413
20
-10.0914532
40
2
50
206.409623
51
255
0
ARC
8
0
10
41.2209114
20
49.5185466
40
2
50
405
51
75
0
LINE
8
0
10
41.7385495
20
51.4503983
11
26.2837363
21
55.591503
0
ARC
8
0
10
25.7660982
20
53.6596514
40
2
50
75
51
123.5903801
0
LINE
8
0
10
27.8130891
20
-12.1112376
11
43.2679023
21
-16.2523423
0
ARC
8
0
10
43.7855404
20
-14.3204907
40
2
50
255
51
345
0
LINE
8
0
10
45.717392
20
-14.8381287
11
46.5631996
21
-11.6815321
0
ARC
8
0
10
28.3307272
20
-10.1793859
40
2
50
225
51
255
0
ARC
8
0
10
60.8675973
20
49.4306139
40
2
50
404.999998
51
75
0
LINE
8
0
10
61.3852354
20
51.3624656
11
45.9304222
21
55.5035703
0
ARC
8
0
10
45.4127841
20
53.5717187
40
2
50
75
51
165
0
LINE
8
0
10
43.4809325
20
54.0893567
11
42.635125
21
50.9327602
0
LINE
8
0
10
47.4597751
20
-12.1991703
11
62.9145883
21
-16.340275
0
ARC
8
0
10
63.4322264
20
-14.4084234
40
2
50
255
51
284.9999999
0
ARC
8
0
10
47.9774132
20
-10.2673186
40
2
50
224.999998
51
255
0
LINE
8
0
10
81.3415085
20
44.7025208
11
82.446135
21
48.825043
0
ARC
8
0
10
80.5142833
20
49.3426811
40
2
50
345
51
75
0
LINE
8
0
10
81.0319214
20
51.2745328
11
65.5771082
21
55.4156375
0
ARC
8
0
10
65.0594701
20
53.4837859
40
2
50
75
51
165
0
LINE
8
0
10
63.1276185
20
54.0014239
11
62.2818109
21
50.8448274
0
LINE
8
0
10
64.2594515
20
-22.9122872
11
79.7142647
21
-27.0533919
0
ARC
8
0
10
80.2319028
20
-25.1215403
40
2
50
255
51
284.9999972
0
LINE
8
0
10
63.9498645
20
-16.3402751
11
62.8452379
21
-20.4627974
0
ARC
8
0
10
64.7770896
20
-20.9804355
40
2
50
165
51
255
0
LINE
8
0
10
99.1764611
20
37.8531073
11
99.2458114
21
38.1119262
0
ARC
8
0
10
97.3139597
20
38.6295643
40
2
50
345
51
75
0
LINE
8
0
10
97.8315978
20
40.561416
11
82.3767846
21
44.7025207
0
ARC
8
0
10
81.8591465
20
42.7706691
40
2
50
75
51
104.9999972
0
LINE
8
0
10
82.0944041
20
-29.7617006
11
97.5492173
21
-33.9028053
0
ARC
8
0
10
98.0668554
20
-31.9709537
40
2
50
255
51
345
0
LINE
8
0
10
99.998707
20
-32.4885917
11
103.8809927
21
-17.9997044
0
ARC
8
0
10
101.949141
20
-17.4820663
40
2
50
345
51
374.9999999
0
LINE
8
0
10
80.7495408
20
-27.053392
11
80.6801905
21
-27.3122108
0
ARC
8
0
10
82.6120422
20
-27.8298489
40
2
50
165
51
255
0
ARC
8
0
10
102.4667791
20
-15.5502147
40
2
50
314.999998
51
345
0
LINE
8
0
10
104.3986307
20
-16.0678527
11
108.2809164
21
-1.5789654
0
ARC
8
0
10
106.3490647
20
-1.0613273
40
2
50
345
51
374.9999999
0
ARC
8
0
10
106.8667029
20
0.8705244
40
2
50
314.9999959
51
345
0
LINE
8
0
10
108.7985545
20
0.3528864
11
112.6808402
21
14.8417737
0
ARC
8
0
10
110.7489885
20
15.3594118
40
2
50
345
51
374.9999972
0
ARC
8
0
10
111.2666267
20
17.2912634
40
2
50
314.999998
51
345
0
LINE
8
0
10
113.1984783
20
16.7736254
11
117.080764
21
31.2625127
0
ARC
8
0
10
115.1489123
20
31.7801508
40
2
50
345
51
75
0
LINE
8
0
10
115.6665504
20
33.7120025
11
100.2117372
21
37.8531072
0
ARC
8
0
10
99.6940991
20
35.9212556
40
2
50
75
51
104.9999972
0
LINE
8
0
10
57.5995067
20
-43.9038362
11
73.0543199
21
-48.0449409
0
ARC
8
0
10
73.571958
20
-46.1130893
40
2
50
255
51
303.5903777
0
ARC
8
0
10
77.4542436
20
-31.6242019
40
2
50
386.409623
51
75
0
LINE
8
0
10
77.9718817
20
-29.6923502
11
62.5170685
21
-25.5512455
0
ARC
8
0
10
61.9994304
20
-27.4830971
40
2
50
75
51
165
0
LINE
8
0
10
60.0675788
20
-26.9654591
11
56.1852931
21
-41.4543464
0
ARC
8
0
10
58.1171448
20
-41.9719845
40
2
50
165
51
255
0
LINE
8
0
10
75.9520974
20
-48.8213981
11
91.4069106
21
-52.9625028
0
ARC
8
0
10
91.9245487
20
-51.0306512
40
2
50
255
51
345
0
LINE
8
0
10
93.8564003
20
-51.5482892
11
97.738686
21
-37.0594019
0
ARC
8
0
10
95.8068343
20
-36.5417638
40
2
50
345
51
75
0
LINE
8
0
10
96.3244724
20
-34.6099121
11
80.8696592
21
-30.4688074
0
ARC
8
0
10
80.3520211
20
-32.400659
40
2
50
75
51
123.5903777
0
ARC
8
0
10
76.4697355
20
-46.8895464
40
2
50
206.409623
51
255
0
LINE
8
0
10
91.181865
20
-59.5156472
11
104.2882977
21
-68.6928702
0
ARC
8
0
10
105.4354506
20
-67.0545661
40
2
50
235
51
296.5123758
0
LINE
8
0
10
107.4771419
20
-67.6256224
11
115.6774012
21
-55.9144383
0
ARC
8
0
10
114.0390971
20
-54.7672855
40
2
50
325
51
355.0000024
0
ARC
8
0
10
100.9326644
20
-45.5900625
40
2
50
114.9999991
51
145
0
LINE
8
0
10
99.2943603
20
-44.4429096
11
90.6907138
21
-56.7301903
0
ARC
8
0
10
92.3290179
20
-57.8773431
40
2
50
145
51
235
0
ARC
8
0
10
115.18625
20
-53.1289813
40
2
50
294.9999991
51
325
0
LINE
8
0
10
116.8245541
20
-54.2761342
11
125.4282006
21
-41.9888535
0
ARC
8
0
10
123.7898965
20
-40.8417007
40
2
50
325
51
55
0
LINE
8
0
10
124.9370494
20
-39.2033966
11
111.8306167
21
-30.0261736
0
ARC
8
0
10
110.6834638
20
-31.6644777
40
2
50
55
51
145
0
LINE
8
0
10
109.0451597
20
-30.5173248
11
100.4415132
21
-42.8046055
0
ARC
8
0
10
102.0798173
20
-43.9517583
40
2
50
145
51
175.0000024
0
LINE
8
0
10
106.6162426
20
-70.9588172
11
116.9008444
21
-83.2155283
0
ARC
8
0
10
118.4329333
20
-81.9299531
40
2
50
220
51
310
0
LINE
8
0
10
119.7185085
20
-83.462042
11
131.2091751
21
-73.8202279
0
ARC
8
0
10
129.9235999
20
-72.288139
40
2
50
310
51
40
0
LINE
8
0
10
131.4556888
20
-71.0025638
11
121.171087
21
-58.7458527
0
ARC
8
0
10
119.6389981
20
-60.0314279
40
2
50
40
51
130
0
LINE
8
0
10
118.3534229
20
-58.499339
11
107.4771419
21
-67.6256224
0
ARC
8
0
10
108.1483315
20
-69.673242
40
2
50
155.5121667
51
220
0
ENDSEC
0
EOF