%TF.GenerationSoftware,KiCad,Pcbnew,(6.0.9-0)*%
%TF.CreationDate,2023-01-10T21:03:52-06:00*%
%TF.ProjectId,board,626f6172-642e-46b6-9963-61645f706362,v1.0.0*%
%TF.SameCoordinates,Original*%
%TF.FileFunction,Drillmap*%
%TF.FilePolarity,Positive*%
%FSLAX45Y45*%
G04 Gerber Fmt 4.5, Leading zero omitted, Abs format (unit mm)*
G04 Created by KiCad (PCBNEW (6.0.9-0)) date 2023-01-10 21:03:52*
%MOMM*%
%LPD*%
G01*
G04 APERTURE LIST*
%ADD10C,0.150000*%
%ADD11C,0.200000*%
%ADD12C,0.170180*%
%ADD13C,0.300000*%
%ADD14C,0.342900*%
G04 APERTURE END LIST*
D10*
X1176500Y-9705000D02*
X1176500Y-1205000D01*
X1176500Y-1205000D02*
X15676500Y-1205000D01*
X15676500Y-1205000D02*
X15764190Y-8879568D01*
X15764190Y-8879568D02*
X17777912Y-11015603D01*
X17777912Y-11015603D02*
X16057182Y-13473059D01*
X16057182Y-13473059D02*
X12576500Y-11705000D01*
X12576500Y-11705000D02*
X8876500Y-11305000D01*
X8876500Y-11305000D02*
X8876500Y-9655000D01*
X8876500Y-9655000D02*
X1176500Y-9705000D01*
D11*
D12*
X1841410Y-3119910D02*
X2011590Y-3290090D01*
X2011590Y-3119910D02*
X1841410Y-3290090D01*
X1841410Y-4819910D02*
X2011590Y-4990090D01*
X2011590Y-4819910D02*
X1841410Y-4990090D01*
X1841410Y-6519910D02*
X2011590Y-6690090D01*
X2011590Y-6519910D02*
X1841410Y-6690090D01*
X1841410Y-8219910D02*
X2011590Y-8390090D01*
X2011590Y-8219910D02*
X1841410Y-8390090D01*
X2941410Y-3119910D02*
X3111590Y-3290090D01*
X3111590Y-3119910D02*
X2941410Y-3290090D01*
X2941410Y-4819910D02*
X3111590Y-4990090D01*
X3111590Y-4819910D02*
X2941410Y-4990090D01*
X2941410Y-6519910D02*
X3111590Y-6690090D01*
X3111590Y-6519910D02*
X2941410Y-6690090D01*
X2941410Y-8219910D02*
X3111590Y-8390090D01*
X3111590Y-8219910D02*
X2941410Y-8390090D01*
X3741410Y-3119910D02*
X3911590Y-3290090D01*
X3911590Y-3119910D02*
X3741410Y-3290090D01*
X3741410Y-4819910D02*
X3911590Y-4990090D01*
X3911590Y-4819910D02*
X3741410Y-4990090D01*
X3741410Y-8219910D02*
X3911590Y-8390090D01*
X3911590Y-8219910D02*
X3741410Y-8390090D01*
X3741410Y-6519910D02*
X3911590Y-6690090D01*
X3911590Y-6519910D02*
X3741410Y-6690090D01*
X4841410Y-3119910D02*
X5011590Y-3290090D01*
X5011590Y-3119910D02*
X4841410Y-3290090D01*
X4841410Y-4819910D02*
X5011590Y-4990090D01*
X5011590Y-4819910D02*
X4841410Y-4990090D01*
X4841410Y-8219910D02*
X5011590Y-8390090D01*
X5011590Y-8219910D02*
X4841410Y-8390090D01*
X4841410Y-6519910D02*
X5011590Y-6690090D01*
X5011590Y-6519910D02*
X4841410Y-6690090D01*
X5641410Y-2619910D02*
X5811590Y-2790090D01*
X5811590Y-2619910D02*
X5641410Y-2790090D01*
X5641410Y-4319910D02*
X5811590Y-4490090D01*
X5811590Y-4319910D02*
X5641410Y-4490090D01*
X5641410Y-6019910D02*
X5811590Y-6190090D01*
X5811590Y-6019910D02*
X5641410Y-6190090D01*
X5641410Y-7719910D02*
X5811590Y-7890090D01*
X5811590Y-7719910D02*
X5641410Y-7890090D01*
X6741410Y-2619910D02*
X6911590Y-2790090D01*
X6911590Y-2619910D02*
X6741410Y-2790090D01*
X6741410Y-4319910D02*
X6911590Y-4490090D01*
X6911590Y-4319910D02*
X6741410Y-4490090D01*
X6741410Y-6019910D02*
X6911590Y-6190090D01*
X6911590Y-6019910D02*
X6741410Y-6190090D01*
X6741410Y-7719910D02*
X6911590Y-7890090D01*
X6911590Y-7719910D02*
X6741410Y-7890090D01*
X7541410Y-2119910D02*
X7711590Y-2290090D01*
X7711590Y-2119910D02*
X7541410Y-2290090D01*
X7541410Y-3819910D02*
X7711590Y-3990090D01*
X7711590Y-3819910D02*
X7541410Y-3990090D01*
X7541410Y-5519910D02*
X7711590Y-5690090D01*
X7711590Y-5519910D02*
X7541410Y-5690090D01*
X7541410Y-7219910D02*
X7711590Y-7390090D01*
X7711590Y-7219910D02*
X7541410Y-7390090D01*
X8641410Y-2119910D02*
X8811590Y-2290090D01*
X8811590Y-2119910D02*
X8641410Y-2290090D01*
X8641410Y-3819910D02*
X8811590Y-3990090D01*
X8811590Y-3819910D02*
X8641410Y-3990090D01*
X8641410Y-5519910D02*
X8811590Y-5690090D01*
X8811590Y-5519910D02*
X8641410Y-5690090D01*
X8641410Y-7219910D02*
X8811590Y-7390090D01*
X8811590Y-7219910D02*
X8641410Y-7390090D01*
X9341410Y-10019910D02*
X9511590Y-10190090D01*
X9511590Y-10019910D02*
X9341410Y-10190090D01*
X9441410Y-2719910D02*
X9611590Y-2890090D01*
X9611590Y-2719910D02*
X9441410Y-2890090D01*
X9441410Y-4419910D02*
X9611590Y-4590090D01*
X9611590Y-4419910D02*
X9441410Y-4590090D01*
X9441410Y-7819910D02*
X9611590Y-7990090D01*
X9611590Y-7819910D02*
X9441410Y-7990090D01*
X9441410Y-6119910D02*
X9611590Y-6290090D01*
X9611590Y-6119910D02*
X9441410Y-6290090D01*
X10441410Y-10019910D02*
X10611590Y-10190090D01*
X10611590Y-10019910D02*
X10441410Y-10190090D01*
X10541410Y-2719910D02*
X10711590Y-2890090D01*
X10711590Y-2719910D02*
X10541410Y-2890090D01*
X10541410Y-4419910D02*
X10711590Y-4590090D01*
X10711590Y-4419910D02*
X10541410Y-4590090D01*
X10541410Y-7819910D02*
X10711590Y-7990090D01*
X10711590Y-7819910D02*
X10541410Y-7990090D01*
X10541410Y-6119910D02*
X10711590Y-6290090D01*
X10711590Y-6119910D02*
X10541410Y-6290090D01*
X11241410Y-10019910D02*
X11411590Y-10190090D01*
X11411590Y-10019910D02*
X11241410Y-10190090D01*
X11341410Y-4619910D02*
X11511590Y-4790090D01*
X11511590Y-4619910D02*
X11341410Y-4790090D01*
X11341410Y-6319910D02*
X11511590Y-6490090D01*
X11511590Y-6319910D02*
X11341410Y-6490090D01*
X11341410Y-2919910D02*
X11511590Y-3090090D01*
X11511590Y-2919910D02*
X11341410Y-3090090D01*
X11341410Y-8019910D02*
X11511590Y-8190090D01*
X11511590Y-8019910D02*
X11341410Y-8190090D01*
X12341410Y-10019910D02*
X12511590Y-10190090D01*
X12511590Y-10019910D02*
X12341410Y-10190090D01*
X12441410Y-4619910D02*
X12611590Y-4790090D01*
X12611590Y-4619910D02*
X12441410Y-4790090D01*
X12441410Y-6319910D02*
X12611590Y-6490090D01*
X12611590Y-6319910D02*
X12441410Y-6490090D01*
X12441410Y-2919910D02*
X12611590Y-3090090D01*
X12611590Y-2919910D02*
X12441410Y-3090090D01*
X12441410Y-8019910D02*
X12611590Y-8190090D01*
X12611590Y-8019910D02*
X12441410Y-8190090D01*
X13299122Y-10801517D02*
X13469302Y-10971697D01*
X13469302Y-10801517D02*
X13299122Y-10971697D01*
X13880557Y-9204039D02*
X14050737Y-9374219D01*
X14050737Y-9204039D02*
X13880557Y-9374219D01*
X14332784Y-11177739D02*
X14502964Y-11347919D01*
X14502964Y-11177739D02*
X14332784Y-11347919D01*
X14914218Y-9580262D02*
X15084398Y-9750442D01*
X15084398Y-9580262D02*
X14914218Y-9750442D01*
X15275983Y-11679774D02*
X15446163Y-11849954D01*
X15446163Y-11679774D02*
X15275983Y-11849954D01*
X16177050Y-12310708D02*
X16347230Y-12480888D01*
X16347230Y-12310708D02*
X16177050Y-12480888D01*
D13*
X2126500Y-2830000D02*
G75*
G03*
X2126500Y-2830000I-150000J0D01*
G01*
X2126500Y-4530000D02*
G75*
G03*
X2126500Y-4530000I-150000J0D01*
G01*
X2126500Y-6230000D02*
G75*
G03*
X2126500Y-6230000I-150000J0D01*
G01*
X2126500Y-7930000D02*
G75*
G03*
X2126500Y-7930000I-150000J0D01*
G01*
X2626500Y-2610000D02*
G75*
G03*
X2626500Y-2610000I-150000J0D01*
G01*
X2626500Y-2610000D02*
G75*
G03*
X2626500Y-2610000I-150000J0D01*
G01*
X2626500Y-4310000D02*
G75*
G03*
X2626500Y-4310000I-150000J0D01*
G01*
X2626500Y-4310000D02*
G75*
G03*
X2626500Y-4310000I-150000J0D01*
G01*
X2626500Y-6010000D02*
G75*
G03*
X2626500Y-6010000I-150000J0D01*
G01*
X2626500Y-6010000D02*
G75*
G03*
X2626500Y-6010000I-150000J0D01*
G01*
X2626500Y-7710000D02*
G75*
G03*
X2626500Y-7710000I-150000J0D01*
G01*
X2626500Y-7710000D02*
G75*
G03*
X2626500Y-7710000I-150000J0D01*
G01*
X3126500Y-2830000D02*
G75*
G03*
X3126500Y-2830000I-150000J0D01*
G01*
X3126500Y-4530000D02*
G75*
G03*
X3126500Y-4530000I-150000J0D01*
G01*
X3126500Y-6230000D02*
G75*
G03*
X3126500Y-6230000I-150000J0D01*
G01*
X3126500Y-7930000D02*
G75*
G03*
X3126500Y-7930000I-150000J0D01*
G01*
X4026500Y-2830000D02*
G75*
G03*
X4026500Y-2830000I-150000J0D01*
G01*
X4026500Y-4530000D02*
G75*
G03*
X4026500Y-4530000I-150000J0D01*
G01*
X4026500Y-7930000D02*
G75*
G03*
X4026500Y-7930000I-150000J0D01*
G01*
X4026500Y-6230000D02*
G75*
G03*
X4026500Y-6230000I-150000J0D01*
G01*
X4526500Y-2610000D02*
G75*
G03*
X4526500Y-2610000I-150000J0D01*
G01*
X4526500Y-2610000D02*
G75*
G03*
X4526500Y-2610000I-150000J0D01*
G01*
X4526500Y-4310000D02*
G75*
G03*
X4526500Y-4310000I-150000J0D01*
G01*
X4526500Y-4310000D02*
G75*
G03*
X4526500Y-4310000I-150000J0D01*
G01*
X4526500Y-7710000D02*
G75*
G03*
X4526500Y-7710000I-150000J0D01*
G01*
X4526500Y-7710000D02*
G75*
G03*
X4526500Y-7710000I-150000J0D01*
G01*
X4526500Y-6010000D02*
G75*
G03*
X4526500Y-6010000I-150000J0D01*
G01*
X4526500Y-6010000D02*
G75*
G03*
X4526500Y-6010000I-150000J0D01*
G01*
X5026500Y-2830000D02*
G75*
G03*
X5026500Y-2830000I-150000J0D01*
G01*
X5026500Y-4530000D02*
G75*
G03*
X5026500Y-4530000I-150000J0D01*
G01*
X5026500Y-7930000D02*
G75*
G03*
X5026500Y-7930000I-150000J0D01*
G01*
X5026500Y-6230000D02*
G75*
G03*
X5026500Y-6230000I-150000J0D01*
G01*
X5926500Y-2330000D02*
G75*
G03*
X5926500Y-2330000I-150000J0D01*
G01*
X5926500Y-4030000D02*
G75*
G03*
X5926500Y-4030000I-150000J0D01*
G01*
X5926500Y-5730000D02*
G75*
G03*
X5926500Y-5730000I-150000J0D01*
G01*
X5926500Y-7430000D02*
G75*
G03*
X5926500Y-7430000I-150000J0D01*
G01*
X6426500Y-2110000D02*
G75*
G03*
X6426500Y-2110000I-150000J0D01*
G01*
X6426500Y-2110000D02*
G75*
G03*
X6426500Y-2110000I-150000J0D01*
G01*
X6426500Y-3810000D02*
G75*
G03*
X6426500Y-3810000I-150000J0D01*
G01*
X6426500Y-3810000D02*
G75*
G03*
X6426500Y-3810000I-150000J0D01*
G01*
X6426500Y-5510000D02*
G75*
G03*
X6426500Y-5510000I-150000J0D01*
G01*
X6426500Y-5510000D02*
G75*
G03*
X6426500Y-5510000I-150000J0D01*
G01*
X6426500Y-7210000D02*
G75*
G03*
X6426500Y-7210000I-150000J0D01*
G01*
X6426500Y-7210000D02*
G75*
G03*
X6426500Y-7210000I-150000J0D01*
G01*
X6926500Y-2330000D02*
G75*
G03*
X6926500Y-2330000I-150000J0D01*
G01*
X6926500Y-4030000D02*
G75*
G03*
X6926500Y-4030000I-150000J0D01*
G01*
X6926500Y-5730000D02*
G75*
G03*
X6926500Y-5730000I-150000J0D01*
G01*
X6926500Y-7430000D02*
G75*
G03*
X6926500Y-7430000I-150000J0D01*
G01*
X7826500Y-1830000D02*
G75*
G03*
X7826500Y-1830000I-150000J0D01*
G01*
X7826500Y-3530000D02*
G75*
G03*
X7826500Y-3530000I-150000J0D01*
G01*
X7826500Y-5230000D02*
G75*
G03*
X7826500Y-5230000I-150000J0D01*
G01*
X7826500Y-6930000D02*
G75*
G03*
X7826500Y-6930000I-150000J0D01*
G01*
X8326500Y-1610000D02*
G75*
G03*
X8326500Y-1610000I-150000J0D01*
G01*
X8326500Y-1610000D02*
G75*
G03*
X8326500Y-1610000I-150000J0D01*
G01*
X8326500Y-3310000D02*
G75*
G03*
X8326500Y-3310000I-150000J0D01*
G01*
X8326500Y-3310000D02*
G75*
G03*
X8326500Y-3310000I-150000J0D01*
G01*
X8326500Y-5010000D02*
G75*
G03*
X8326500Y-5010000I-150000J0D01*
G01*
X8326500Y-5010000D02*
G75*
G03*
X8326500Y-5010000I-150000J0D01*
G01*
X8326500Y-6710000D02*
G75*
G03*
X8326500Y-6710000I-150000J0D01*
G01*
X8326500Y-6710000D02*
G75*
G03*
X8326500Y-6710000I-150000J0D01*
G01*
X8826500Y-1830000D02*
G75*
G03*
X8826500Y-1830000I-150000J0D01*
G01*
X8826500Y-3530000D02*
G75*
G03*
X8826500Y-3530000I-150000J0D01*
G01*
X8826500Y-5230000D02*
G75*
G03*
X8826500Y-5230000I-150000J0D01*
G01*
X8826500Y-6930000D02*
G75*
G03*
X8826500Y-6930000I-150000J0D01*
G01*
X9626500Y-9730000D02*
G75*
G03*
X9626500Y-9730000I-150000J0D01*
G01*
X9726500Y-2430000D02*
G75*
G03*
X9726500Y-2430000I-150000J0D01*
G01*
X9726500Y-4130000D02*
G75*
G03*
X9726500Y-4130000I-150000J0D01*
G01*
X9726500Y-7530000D02*
G75*
G03*
X9726500Y-7530000I-150000J0D01*
G01*
X9726500Y-5830000D02*
G75*
G03*
X9726500Y-5830000I-150000J0D01*
G01*
X10126500Y-9510000D02*
G75*
G03*
X10126500Y-9510000I-150000J0D01*
G01*
X10126500Y-9510000D02*
G75*
G03*
X10126500Y-9510000I-150000J0D01*
G01*
X10226500Y-2210000D02*
G75*
G03*
X10226500Y-2210000I-150000J0D01*
G01*
X10226500Y-2210000D02*
G75*
G03*
X10226500Y-2210000I-150000J0D01*
G01*
X10226500Y-3910000D02*
G75*
G03*
X10226500Y-3910000I-150000J0D01*
G01*
X10226500Y-3910000D02*
G75*
G03*
X10226500Y-3910000I-150000J0D01*
G01*
X10226500Y-7310000D02*
G75*
G03*
X10226500Y-7310000I-150000J0D01*
G01*
X10226500Y-7310000D02*
G75*
G03*
X10226500Y-7310000I-150000J0D01*
G01*
X10226500Y-5610000D02*
G75*
G03*
X10226500Y-5610000I-150000J0D01*
G01*
X10226500Y-5610000D02*
G75*
G03*
X10226500Y-5610000I-150000J0D01*
G01*
X10626500Y-9730000D02*
G75*
G03*
X10626500Y-9730000I-150000J0D01*
G01*
X10726500Y-2430000D02*
G75*
G03*
X10726500Y-2430000I-150000J0D01*
G01*
X10726500Y-4130000D02*
G75*
G03*
X10726500Y-4130000I-150000J0D01*
G01*
X10726500Y-7530000D02*
G75*
G03*
X10726500Y-7530000I-150000J0D01*
G01*
X10726500Y-5830000D02*
G75*
G03*
X10726500Y-5830000I-150000J0D01*
G01*
X11526500Y-9730000D02*
G75*
G03*
X11526500Y-9730000I-150000J0D01*
G01*
X11626500Y-4330000D02*
G75*
G03*
X11626500Y-4330000I-150000J0D01*
G01*
X11626500Y-6030000D02*
G75*
G03*
X11626500Y-6030000I-150000J0D01*
G01*
X11626500Y-2630000D02*
G75*
G03*
X11626500Y-2630000I-150000J0D01*
G01*
X11626500Y-7730000D02*
G75*
G03*
X11626500Y-7730000I-150000J0D01*
G01*
X12026500Y-9510000D02*
G75*
G03*
X12026500Y-9510000I-150000J0D01*
G01*
X12026500Y-9510000D02*
G75*
G03*
X12026500Y-9510000I-150000J0D01*
G01*
X12126500Y-4110000D02*
G75*
G03*
X12126500Y-4110000I-150000J0D01*
G01*
X12126500Y-4110000D02*
G75*
G03*
X12126500Y-4110000I-150000J0D01*
G01*
X12126500Y-5810000D02*
G75*
G03*
X12126500Y-5810000I-150000J0D01*
G01*
X12126500Y-5810000D02*
G75*
G03*
X12126500Y-5810000I-150000J0D01*
G01*
X12126500Y-2410000D02*
G75*
G03*
X12126500Y-2410000I-150000J0D01*
G01*
X12126500Y-2410000D02*
G75*
G03*
X12126500Y-2410000I-150000J0D01*
G01*
X12126500Y-7510000D02*
G75*
G03*
X12126500Y-7510000I-150000J0D01*
G01*
X12126500Y-7510000D02*
G75*
G03*
X12126500Y-7510000I-150000J0D01*
G01*
X12526500Y-9730000D02*
G75*
G03*
X12526500Y-9730000I-150000J0D01*
G01*
X12626500Y-4330000D02*
G75*
G03*
X12626500Y-4330000I-150000J0D01*
G01*
X12626500Y-6030000D02*
G75*
G03*
X12626500Y-6030000I-150000J0D01*
G01*
X12626500Y-2630000D02*
G75*
G03*
X12626500Y-2630000I-150000J0D01*
G01*
X12626500Y-7730000D02*
G75*
G03*
X12626500Y-7730000I-150000J0D01*
G01*
X13709455Y-10551323D02*
G75*
G03*
X13709455Y-10551323I-150000J0D01*
G01*
X14254545Y-10515601D02*
G75*
G03*
X14254545Y-10515601I-150000J0D01*
G01*
X14254545Y-10515601D02*
G75*
G03*
X14254545Y-10515601I-150000J0D01*
G01*
X14290889Y-8953846D02*
G75*
G03*
X14290889Y-8953846I-150000J0D01*
G01*
X14649147Y-10893343D02*
G75*
G03*
X14649147Y-10893343I-150000J0D01*
G01*
X14835980Y-8918123D02*
G75*
G03*
X14835980Y-8918123I-150000J0D01*
G01*
X14835980Y-8918123D02*
G75*
G03*
X14835980Y-8918123I-150000J0D01*
G01*
X15230581Y-9295866D02*
G75*
G03*
X15230581Y-9295866I-150000J0D01*
G01*
X15767122Y-11486361D02*
G75*
G03*
X15767122Y-11486361I-150000J0D01*
G01*
X16302885Y-11592935D02*
G75*
G03*
X16302885Y-11592935I-150000J0D01*
G01*
X16302885Y-11592935D02*
G75*
G03*
X16302885Y-11592935I-150000J0D01*
G01*
X16586274Y-12059937D02*
G75*
G03*
X16586274Y-12059937I-150000J0D01*
G01*
D14*
X2476500Y-3033550D02*
X2476500Y-3376450D01*
X2305050Y-3205000D02*
X2647950Y-3205000D01*
X2476500Y-4733550D02*
X2476500Y-5076450D01*
X2305050Y-4905000D02*
X2647950Y-4905000D01*
X2476500Y-6433550D02*
X2476500Y-6776450D01*
X2305050Y-6605000D02*
X2647950Y-6605000D01*
X2476500Y-8133550D02*
X2476500Y-8476450D01*
X2305050Y-8305000D02*
X2647950Y-8305000D01*
X4376500Y-3033550D02*
X4376500Y-3376450D01*
X4205050Y-3205000D02*
X4547950Y-3205000D01*
X4376500Y-4733550D02*
X4376500Y-5076450D01*
X4205050Y-4905000D02*
X4547950Y-4905000D01*
X4376500Y-8133550D02*
X4376500Y-8476450D01*
X4205050Y-8305000D02*
X4547950Y-8305000D01*
X4376500Y-6433550D02*
X4376500Y-6776450D01*
X4205050Y-6605000D02*
X4547950Y-6605000D01*
X6276500Y-2533550D02*
X6276500Y-2876450D01*
X6105050Y-2705000D02*
X6447950Y-2705000D01*
X6276500Y-4233550D02*
X6276500Y-4576450D01*
X6105050Y-4405000D02*
X6447950Y-4405000D01*
X6276500Y-5933550D02*
X6276500Y-6276450D01*
X6105050Y-6105000D02*
X6447950Y-6105000D01*
X6276500Y-7633550D02*
X6276500Y-7976450D01*
X6105050Y-7805000D02*
X6447950Y-7805000D01*
X8176500Y-2033550D02*
X8176500Y-2376450D01*
X8005050Y-2205000D02*
X8347950Y-2205000D01*
X8176500Y-3733550D02*
X8176500Y-4076450D01*
X8005050Y-3905000D02*
X8347950Y-3905000D01*
X8176500Y-5433550D02*
X8176500Y-5776450D01*
X8005050Y-5605000D02*
X8347950Y-5605000D01*
X8176500Y-7133550D02*
X8176500Y-7476450D01*
X8005050Y-7305000D02*
X8347950Y-7305000D01*
X9976500Y-9933550D02*
X9976500Y-10276450D01*
X9805050Y-10105000D02*
X10147950Y-10105000D01*
X10076500Y-2633550D02*
X10076500Y-2976450D01*
X9905050Y-2805000D02*
X10247950Y-2805000D01*
X10076500Y-4333550D02*
X10076500Y-4676450D01*
X9905050Y-4505000D02*
X10247950Y-4505000D01*
X10076500Y-7733550D02*
X10076500Y-8076450D01*
X9905050Y-7905000D02*
X10247950Y-7905000D01*
X10076500Y-6033550D02*
X10076500Y-6376450D01*
X9905050Y-6205000D02*
X10247950Y-6205000D01*
X11876500Y-9933550D02*
X11876500Y-10276450D01*
X11705050Y-10105000D02*
X12047950Y-10105000D01*
X11976500Y-4533550D02*
X11976500Y-4876450D01*
X11805050Y-4705000D02*
X12147950Y-4705000D01*
X11976500Y-6233550D02*
X11976500Y-6576450D01*
X11805050Y-6405000D02*
X12147950Y-6405000D01*
X11976500Y-2833550D02*
X11976500Y-3176450D01*
X11805050Y-3005000D02*
X12147950Y-3005000D01*
X11976500Y-7933550D02*
X11976500Y-8276450D01*
X11805050Y-8105000D02*
X12147950Y-8105000D01*
X13901043Y-10903268D02*
X13901043Y-11246168D01*
X13729593Y-11074718D02*
X14072493Y-11074718D01*
X14482478Y-9305791D02*
X14482478Y-9648691D01*
X14311028Y-9477241D02*
X14653928Y-9477241D01*
X15811607Y-11908881D02*
X15811607Y-12251781D01*
X15640157Y-12080331D02*
X15983057Y-12080331D01*
D11*
X1426619Y-13791035D02*
X1426619Y-13591035D01*
X1474238Y-13591035D01*
X1502810Y-13600559D01*
X1521857Y-13619607D01*
X1531381Y-13638654D01*
X1540905Y-13676750D01*
X1540905Y-13705321D01*
X1531381Y-13743416D01*
X1521857Y-13762464D01*
X1502810Y-13781512D01*
X1474238Y-13791035D01*
X1426619Y-13791035D01*
X1626619Y-13791035D02*
X1626619Y-13657702D01*
X1626619Y-13695797D02*
X1636143Y-13676750D01*
X1645667Y-13667226D01*
X1664714Y-13657702D01*
X1683762Y-13657702D01*
X1750429Y-13791035D02*
X1750429Y-13657702D01*
X1750429Y-13591035D02*
X1740905Y-13600559D01*
X1750429Y-13610083D01*
X1759952Y-13600559D01*
X1750429Y-13591035D01*
X1750429Y-13610083D01*
X1874238Y-13791035D02*
X1855190Y-13781512D01*
X1845667Y-13762464D01*
X1845667Y-13591035D01*
X1979000Y-13791035D02*
X1959952Y-13781512D01*
X1950429Y-13762464D01*
X1950429Y-13591035D01*
X2207572Y-13791035D02*
X2207572Y-13591035D01*
X2274238Y-13733893D01*
X2340905Y-13591035D01*
X2340905Y-13791035D01*
X2521857Y-13791035D02*
X2521857Y-13686273D01*
X2512333Y-13667226D01*
X2493286Y-13657702D01*
X2455191Y-13657702D01*
X2436143Y-13667226D01*
X2521857Y-13781512D02*
X2502810Y-13791035D01*
X2455191Y-13791035D01*
X2436143Y-13781512D01*
X2426619Y-13762464D01*
X2426619Y-13743416D01*
X2436143Y-13724369D01*
X2455191Y-13714845D01*
X2502810Y-13714845D01*
X2521857Y-13705321D01*
X2617095Y-13657702D02*
X2617095Y-13857702D01*
X2617095Y-13667226D02*
X2636143Y-13657702D01*
X2674238Y-13657702D01*
X2693286Y-13667226D01*
X2702810Y-13676750D01*
X2712333Y-13695797D01*
X2712333Y-13752940D01*
X2702810Y-13771988D01*
X2693286Y-13781512D01*
X2674238Y-13791035D01*
X2636143Y-13791035D01*
X2617095Y-13781512D01*
X2798048Y-13771988D02*
X2807571Y-13781512D01*
X2798048Y-13791035D01*
X2788524Y-13781512D01*
X2798048Y-13771988D01*
X2798048Y-13791035D01*
X2798048Y-13667226D02*
X2807571Y-13676750D01*
X2798048Y-13686273D01*
X2788524Y-13676750D01*
X2798048Y-13667226D01*
X2798048Y-13686273D01*
D12*
X998820Y-14035469D02*
X1169000Y-14205649D01*
X1169000Y-14035469D02*
X998820Y-14205649D01*
D11*
X1531381Y-14211035D02*
X1417095Y-14211035D01*
X1474238Y-14211035D02*
X1474238Y-14011035D01*
X1455190Y-14039607D01*
X1436143Y-14058654D01*
X1417095Y-14068178D01*
X1617095Y-14191988D02*
X1626619Y-14201512D01*
X1617095Y-14211035D01*
X1607571Y-14201512D01*
X1617095Y-14191988D01*
X1617095Y-14211035D01*
X1693286Y-14011035D02*
X1826619Y-14011035D01*
X1740905Y-14211035D01*
X1940905Y-14011035D02*
X1959952Y-14011035D01*
X1979000Y-14020559D01*
X1988524Y-14030083D01*
X1998048Y-14049131D01*
X2007571Y-14087226D01*
X2007571Y-14134845D01*
X1998048Y-14172940D01*
X1988524Y-14191988D01*
X1979000Y-14201512D01*
X1959952Y-14211035D01*
X1940905Y-14211035D01*
X1921857Y-14201512D01*
X1912333Y-14191988D01*
X1902810Y-14172940D01*
X1893286Y-14134845D01*
X1893286Y-14087226D01*
X1902810Y-14049131D01*
X1912333Y-14030083D01*
X1921857Y-14020559D01*
X1940905Y-14011035D01*
X2083762Y-14030083D02*
X2093286Y-14020559D01*
X2112333Y-14011035D01*
X2159952Y-14011035D01*
X2179000Y-14020559D01*
X2188524Y-14030083D01*
X2198048Y-14049131D01*
X2198048Y-14068178D01*
X2188524Y-14096750D01*
X2074238Y-14211035D01*
X2198048Y-14211035D01*
X2283762Y-14211035D02*
X2283762Y-14077702D01*
X2283762Y-14096750D02*
X2293286Y-14087226D01*
X2312333Y-14077702D01*
X2340905Y-14077702D01*
X2359952Y-14087226D01*
X2369476Y-14106273D01*
X2369476Y-14211035D01*
X2369476Y-14106273D02*
X2379000Y-14087226D01*
X2398048Y-14077702D01*
X2426619Y-14077702D01*
X2445667Y-14087226D01*
X2455191Y-14106273D01*
X2455191Y-14211035D01*
X2550429Y-14211035D02*
X2550429Y-14077702D01*
X2550429Y-14096750D02*
X2559952Y-14087226D01*
X2579000Y-14077702D01*
X2607572Y-14077702D01*
X2626619Y-14087226D01*
X2636143Y-14106273D01*
X2636143Y-14211035D01*
X2636143Y-14106273D02*
X2645667Y-14087226D01*
X2664714Y-14077702D01*
X2693286Y-14077702D01*
X2712333Y-14087226D01*
X2721857Y-14106273D01*
X2721857Y-14211035D01*
X3112333Y-14001512D02*
X2940905Y-14258654D01*
X3369476Y-14011035D02*
X3388524Y-14011035D01*
X3407571Y-14020559D01*
X3417095Y-14030083D01*
X3426619Y-14049131D01*
X3436143Y-14087226D01*
X3436143Y-14134845D01*
X3426619Y-14172940D01*
X3417095Y-14191988D01*
X3407571Y-14201512D01*
X3388524Y-14211035D01*
X3369476Y-14211035D01*
X3350429Y-14201512D01*
X3340905Y-14191988D01*
X3331381Y-14172940D01*
X3321857Y-14134845D01*
X3321857Y-14087226D01*
X3331381Y-14049131D01*
X3340905Y-14030083D01*
X3350429Y-14020559D01*
X3369476Y-14011035D01*
X3521857Y-14191988D02*
X3531381Y-14201512D01*
X3521857Y-14211035D01*
X3512333Y-14201512D01*
X3521857Y-14191988D01*
X3521857Y-14211035D01*
X3655190Y-14011035D02*
X3674238Y-14011035D01*
X3693286Y-14020559D01*
X3702810Y-14030083D01*
X3712333Y-14049131D01*
X3721857Y-14087226D01*
X3721857Y-14134845D01*
X3712333Y-14172940D01*
X3702810Y-14191988D01*
X3693286Y-14201512D01*
X3674238Y-14211035D01*
X3655190Y-14211035D01*
X3636143Y-14201512D01*
X3626619Y-14191988D01*
X3617095Y-14172940D01*
X3607571Y-14134845D01*
X3607571Y-14087226D01*
X3617095Y-14049131D01*
X3626619Y-14030083D01*
X3636143Y-14020559D01*
X3655190Y-14011035D01*
X3893286Y-14011035D02*
X3855190Y-14011035D01*
X3836143Y-14020559D01*
X3826619Y-14030083D01*
X3807571Y-14058654D01*
X3798048Y-14096750D01*
X3798048Y-14172940D01*
X3807571Y-14191988D01*
X3817095Y-14201512D01*
X3836143Y-14211035D01*
X3874238Y-14211035D01*
X3893286Y-14201512D01*
X3902810Y-14191988D01*
X3912333Y-14172940D01*
X3912333Y-14125321D01*
X3902810Y-14106273D01*
X3893286Y-14096750D01*
X3874238Y-14087226D01*
X3836143Y-14087226D01*
X3817095Y-14096750D01*
X3807571Y-14106273D01*
X3798048Y-14125321D01*
X3979000Y-14011035D02*
X4112333Y-14011035D01*
X4026619Y-14211035D01*
X4226619Y-14011035D02*
X4245667Y-14011035D01*
X4264714Y-14020559D01*
X4274238Y-14030083D01*
X4283762Y-14049131D01*
X4293286Y-14087226D01*
X4293286Y-14134845D01*
X4283762Y-14172940D01*
X4274238Y-14191988D01*
X4264714Y-14201512D01*
X4245667Y-14211035D01*
X4226619Y-14211035D01*
X4207572Y-14201512D01*
X4198048Y-14191988D01*
X4188524Y-14172940D01*
X4179000Y-14134845D01*
X4179000Y-14087226D01*
X4188524Y-14049131D01*
X4198048Y-14030083D01*
X4207572Y-14020559D01*
X4226619Y-14011035D01*
X4369476Y-14011035D02*
X4369476Y-14049131D01*
X4445667Y-14011035D02*
X4445667Y-14049131D01*
X4740905Y-14287226D02*
X4731381Y-14277702D01*
X4712333Y-14249131D01*
X4702810Y-14230083D01*
X4693286Y-14201512D01*
X4683762Y-14153893D01*
X4683762Y-14115797D01*
X4693286Y-14068178D01*
X4702810Y-14039607D01*
X4712333Y-14020559D01*
X4731381Y-13991988D01*
X4740905Y-13982464D01*
X4912333Y-14011035D02*
X4817095Y-14011035D01*
X4807572Y-14106273D01*
X4817095Y-14096750D01*
X4836143Y-14087226D01*
X4883762Y-14087226D01*
X4902810Y-14096750D01*
X4912333Y-14106273D01*
X4921857Y-14125321D01*
X4921857Y-14172940D01*
X4912333Y-14191988D01*
X4902810Y-14201512D01*
X4883762Y-14211035D01*
X4836143Y-14211035D01*
X4817095Y-14201512D01*
X4807572Y-14191988D01*
X5036143Y-14096750D02*
X5017095Y-14087226D01*
X5007572Y-14077702D01*
X4998048Y-14058654D01*
X4998048Y-14049131D01*
X5007572Y-14030083D01*
X5017095Y-14020559D01*
X5036143Y-14011035D01*
X5074238Y-14011035D01*
X5093286Y-14020559D01*
X5102810Y-14030083D01*
X5112333Y-14049131D01*
X5112333Y-14058654D01*
X5102810Y-14077702D01*
X5093286Y-14087226D01*
X5074238Y-14096750D01*
X5036143Y-14096750D01*
X5017095Y-14106273D01*
X5007572Y-14115797D01*
X4998048Y-14134845D01*
X4998048Y-14172940D01*
X5007572Y-14191988D01*
X5017095Y-14201512D01*
X5036143Y-14211035D01*
X5074238Y-14211035D01*
X5093286Y-14201512D01*
X5102810Y-14191988D01*
X5112333Y-14172940D01*
X5112333Y-14134845D01*
X5102810Y-14115797D01*
X5093286Y-14106273D01*
X5074238Y-14096750D01*
X5350429Y-14211035D02*
X5350429Y-14011035D01*
X5436143Y-14211035D02*
X5436143Y-14106273D01*
X5426619Y-14087226D01*
X5407572Y-14077702D01*
X5379000Y-14077702D01*
X5359952Y-14087226D01*
X5350429Y-14096750D01*
X5559952Y-14211035D02*
X5540905Y-14201512D01*
X5531381Y-14191988D01*
X5521857Y-14172940D01*
X5521857Y-14115797D01*
X5531381Y-14096750D01*
X5540905Y-14087226D01*
X5559952Y-14077702D01*
X5588524Y-14077702D01*
X5607571Y-14087226D01*
X5617095Y-14096750D01*
X5626619Y-14115797D01*
X5626619Y-14172940D01*
X5617095Y-14191988D01*
X5607571Y-14201512D01*
X5588524Y-14211035D01*
X5559952Y-14211035D01*
X5740905Y-14211035D02*
X5721857Y-14201512D01*
X5712333Y-14182464D01*
X5712333Y-14011035D01*
X5893286Y-14201512D02*
X5874238Y-14211035D01*
X5836143Y-14211035D01*
X5817095Y-14201512D01*
X5807571Y-14182464D01*
X5807571Y-14106273D01*
X5817095Y-14087226D01*
X5836143Y-14077702D01*
X5874238Y-14077702D01*
X5893286Y-14087226D01*
X5902810Y-14106273D01*
X5902810Y-14125321D01*
X5807571Y-14144369D01*
X5979000Y-14201512D02*
X5998048Y-14211035D01*
X6036143Y-14211035D01*
X6055190Y-14201512D01*
X6064714Y-14182464D01*
X6064714Y-14172940D01*
X6055190Y-14153893D01*
X6036143Y-14144369D01*
X6007571Y-14144369D01*
X5988524Y-14134845D01*
X5979000Y-14115797D01*
X5979000Y-14106273D01*
X5988524Y-14087226D01*
X6007571Y-14077702D01*
X6036143Y-14077702D01*
X6055190Y-14087226D01*
X6131381Y-14287226D02*
X6140905Y-14277702D01*
X6159952Y-14249131D01*
X6169476Y-14230083D01*
X6179000Y-14201512D01*
X6188524Y-14153893D01*
X6188524Y-14115797D01*
X6179000Y-14068178D01*
X6169476Y-14039607D01*
X6159952Y-14020559D01*
X6140905Y-13991988D01*
X6131381Y-13982464D01*
X6493286Y-14287226D02*
X6483762Y-14277702D01*
X6464714Y-14249131D01*
X6455190Y-14230083D01*
X6445667Y-14201512D01*
X6436143Y-14153893D01*
X6436143Y-14115797D01*
X6445667Y-14068178D01*
X6455190Y-14039607D01*
X6464714Y-14020559D01*
X6483762Y-13991988D01*
X6493286Y-13982464D01*
X6569476Y-14077702D02*
X6569476Y-14211035D01*
X6569476Y-14096750D02*
X6579000Y-14087226D01*
X6598048Y-14077702D01*
X6626619Y-14077702D01*
X6645667Y-14087226D01*
X6655190Y-14106273D01*
X6655190Y-14211035D01*
X6779000Y-14211035D02*
X6759952Y-14201512D01*
X6750429Y-14191988D01*
X6740905Y-14172940D01*
X6740905Y-14115797D01*
X6750429Y-14096750D01*
X6759952Y-14087226D01*
X6779000Y-14077702D01*
X6807571Y-14077702D01*
X6826619Y-14087226D01*
X6836143Y-14096750D01*
X6845667Y-14115797D01*
X6845667Y-14172940D01*
X6836143Y-14191988D01*
X6826619Y-14201512D01*
X6807571Y-14211035D01*
X6779000Y-14211035D01*
X6902810Y-14077702D02*
X6979000Y-14077702D01*
X6931381Y-14011035D02*
X6931381Y-14182464D01*
X6940905Y-14201512D01*
X6959952Y-14211035D01*
X6979000Y-14211035D01*
X7198048Y-14077702D02*
X7198048Y-14277702D01*
X7198048Y-14087226D02*
X7217095Y-14077702D01*
X7255190Y-14077702D01*
X7274238Y-14087226D01*
X7283762Y-14096750D01*
X7293286Y-14115797D01*
X7293286Y-14172940D01*
X7283762Y-14191988D01*
X7274238Y-14201512D01*
X7255190Y-14211035D01*
X7217095Y-14211035D01*
X7198048Y-14201512D01*
X7407571Y-14211035D02*
X7388524Y-14201512D01*
X7379000Y-14182464D01*
X7379000Y-14011035D01*
X7569476Y-14211035D02*
X7569476Y-14106273D01*
X7559952Y-14087226D01*
X7540905Y-14077702D01*
X7502810Y-14077702D01*
X7483762Y-14087226D01*
X7569476Y-14201512D02*
X7550429Y-14211035D01*
X7502810Y-14211035D01*
X7483762Y-14201512D01*
X7474238Y-14182464D01*
X7474238Y-14163416D01*
X7483762Y-14144369D01*
X7502810Y-14134845D01*
X7550429Y-14134845D01*
X7569476Y-14125321D01*
X7636143Y-14077702D02*
X7712333Y-14077702D01*
X7664714Y-14011035D02*
X7664714Y-14182464D01*
X7674238Y-14201512D01*
X7693286Y-14211035D01*
X7712333Y-14211035D01*
X7855190Y-14201512D02*
X7836143Y-14211035D01*
X7798048Y-14211035D01*
X7779000Y-14201512D01*
X7769476Y-14182464D01*
X7769476Y-14106273D01*
X7779000Y-14087226D01*
X7798048Y-14077702D01*
X7836143Y-14077702D01*
X7855190Y-14087226D01*
X7864714Y-14106273D01*
X7864714Y-14125321D01*
X7769476Y-14144369D01*
X8036143Y-14211035D02*
X8036143Y-14011035D01*
X8036143Y-14201512D02*
X8017095Y-14211035D01*
X7979000Y-14211035D01*
X7959952Y-14201512D01*
X7950429Y-14191988D01*
X7940905Y-14172940D01*
X7940905Y-14115797D01*
X7950429Y-14096750D01*
X7959952Y-14087226D01*
X7979000Y-14077702D01*
X8017095Y-14077702D01*
X8036143Y-14087226D01*
X8112333Y-14287226D02*
X8121857Y-14277702D01*
X8140905Y-14249131D01*
X8150429Y-14230083D01*
X8159952Y-14201512D01*
X8169476Y-14153893D01*
X8169476Y-14115797D01*
X8159952Y-14068178D01*
X8150429Y-14039607D01*
X8140905Y-14020559D01*
X8121857Y-13991988D01*
X8112333Y-13982464D01*
X1169000Y-14410739D02*
G75*
G03*
X1169000Y-14410739I-100000J0D01*
G01*
X1407571Y-14301215D02*
X1531381Y-14301215D01*
X1464714Y-14377406D01*
X1493286Y-14377406D01*
X1512333Y-14386930D01*
X1521857Y-14396453D01*
X1531381Y-14415501D01*
X1531381Y-14463120D01*
X1521857Y-14482168D01*
X1512333Y-14491692D01*
X1493286Y-14501215D01*
X1436143Y-14501215D01*
X1417095Y-14491692D01*
X1407571Y-14482168D01*
X1617095Y-14482168D02*
X1626619Y-14491692D01*
X1617095Y-14501215D01*
X1607571Y-14491692D01*
X1617095Y-14482168D01*
X1617095Y-14501215D01*
X1750429Y-14301215D02*
X1769476Y-14301215D01*
X1788524Y-14310739D01*
X1798048Y-14320263D01*
X1807571Y-14339311D01*
X1817095Y-14377406D01*
X1817095Y-14425025D01*
X1807571Y-14463120D01*
X1798048Y-14482168D01*
X1788524Y-14491692D01*
X1769476Y-14501215D01*
X1750429Y-14501215D01*
X1731381Y-14491692D01*
X1721857Y-14482168D01*
X1712333Y-14463120D01*
X1702810Y-14425025D01*
X1702810Y-14377406D01*
X1712333Y-14339311D01*
X1721857Y-14320263D01*
X1731381Y-14310739D01*
X1750429Y-14301215D01*
X1940905Y-14301215D02*
X1959952Y-14301215D01*
X1979000Y-14310739D01*
X1988524Y-14320263D01*
X1998048Y-14339311D01*
X2007571Y-14377406D01*
X2007571Y-14425025D01*
X1998048Y-14463120D01*
X1988524Y-14482168D01*
X1979000Y-14491692D01*
X1959952Y-14501215D01*
X1940905Y-14501215D01*
X1921857Y-14491692D01*
X1912333Y-14482168D01*
X1902810Y-14463120D01*
X1893286Y-14425025D01*
X1893286Y-14377406D01*
X1902810Y-14339311D01*
X1912333Y-14320263D01*
X1921857Y-14310739D01*
X1940905Y-14301215D01*
X2131381Y-14301215D02*
X2150429Y-14301215D01*
X2169476Y-14310739D01*
X2179000Y-14320263D01*
X2188524Y-14339311D01*
X2198048Y-14377406D01*
X2198048Y-14425025D01*
X2188524Y-14463120D01*
X2179000Y-14482168D01*
X2169476Y-14491692D01*
X2150429Y-14501215D01*
X2131381Y-14501215D01*
X2112333Y-14491692D01*
X2102810Y-14482168D01*
X2093286Y-14463120D01*
X2083762Y-14425025D01*
X2083762Y-14377406D01*
X2093286Y-14339311D01*
X2102810Y-14320263D01*
X2112333Y-14310739D01*
X2131381Y-14301215D01*
X2283762Y-14501215D02*
X2283762Y-14367882D01*
X2283762Y-14386930D02*
X2293286Y-14377406D01*
X2312333Y-14367882D01*
X2340905Y-14367882D01*
X2359952Y-14377406D01*
X2369476Y-14396453D01*
X2369476Y-14501215D01*
X2369476Y-14396453D02*
X2379000Y-14377406D01*
X2398048Y-14367882D01*
X2426619Y-14367882D01*
X2445667Y-14377406D01*
X2455191Y-14396453D01*
X2455191Y-14501215D01*
X2550429Y-14501215D02*
X2550429Y-14367882D01*
X2550429Y-14386930D02*
X2559952Y-14377406D01*
X2579000Y-14367882D01*
X2607572Y-14367882D01*
X2626619Y-14377406D01*
X2636143Y-14396453D01*
X2636143Y-14501215D01*
X2636143Y-14396453D02*
X2645667Y-14377406D01*
X2664714Y-14367882D01*
X2693286Y-14367882D01*
X2712333Y-14377406D01*
X2721857Y-14396453D01*
X2721857Y-14501215D01*
X3112333Y-14291692D02*
X2940905Y-14548834D01*
X3369476Y-14301215D02*
X3388524Y-14301215D01*
X3407571Y-14310739D01*
X3417095Y-14320263D01*
X3426619Y-14339311D01*
X3436143Y-14377406D01*
X3436143Y-14425025D01*
X3426619Y-14463120D01*
X3417095Y-14482168D01*
X3407571Y-14491692D01*
X3388524Y-14501215D01*
X3369476Y-14501215D01*
X3350429Y-14491692D01*
X3340905Y-14482168D01*
X3331381Y-14463120D01*
X3321857Y-14425025D01*
X3321857Y-14377406D01*
X3331381Y-14339311D01*
X3340905Y-14320263D01*
X3350429Y-14310739D01*
X3369476Y-14301215D01*
X3521857Y-14482168D02*
X3531381Y-14491692D01*
X3521857Y-14501215D01*
X3512333Y-14491692D01*
X3521857Y-14482168D01*
X3521857Y-14501215D01*
X3721857Y-14501215D02*
X3607571Y-14501215D01*
X3664714Y-14501215D02*
X3664714Y-14301215D01*
X3645667Y-14329787D01*
X3626619Y-14348834D01*
X3607571Y-14358358D01*
X3912333Y-14501215D02*
X3798048Y-14501215D01*
X3855190Y-14501215D02*
X3855190Y-14301215D01*
X3836143Y-14329787D01*
X3817095Y-14348834D01*
X3798048Y-14358358D01*
X4026619Y-14386930D02*
X4007571Y-14377406D01*
X3998048Y-14367882D01*
X3988524Y-14348834D01*
X3988524Y-14339311D01*
X3998048Y-14320263D01*
X4007571Y-14310739D01*
X4026619Y-14301215D01*
X4064714Y-14301215D01*
X4083762Y-14310739D01*
X4093286Y-14320263D01*
X4102810Y-14339311D01*
X4102810Y-14348834D01*
X4093286Y-14367882D01*
X4083762Y-14377406D01*
X4064714Y-14386930D01*
X4026619Y-14386930D01*
X4007571Y-14396453D01*
X3998048Y-14405977D01*
X3988524Y-14425025D01*
X3988524Y-14463120D01*
X3998048Y-14482168D01*
X4007571Y-14491692D01*
X4026619Y-14501215D01*
X4064714Y-14501215D01*
X4083762Y-14491692D01*
X4093286Y-14482168D01*
X4102810Y-14463120D01*
X4102810Y-14425025D01*
X4093286Y-14405977D01*
X4083762Y-14396453D01*
X4064714Y-14386930D01*
X4293286Y-14501215D02*
X4179000Y-14501215D01*
X4236143Y-14501215D02*
X4236143Y-14301215D01*
X4217095Y-14329787D01*
X4198048Y-14348834D01*
X4179000Y-14358358D01*
X4369476Y-14301215D02*
X4369476Y-14339311D01*
X4445667Y-14301215D02*
X4445667Y-14339311D01*
X4740905Y-14577406D02*
X4731381Y-14567882D01*
X4712333Y-14539311D01*
X4702810Y-14520263D01*
X4693286Y-14491692D01*
X4683762Y-14444073D01*
X4683762Y-14405977D01*
X4693286Y-14358358D01*
X4702810Y-14329787D01*
X4712333Y-14310739D01*
X4731381Y-14282168D01*
X4740905Y-14272644D01*
X4921857Y-14501215D02*
X4807572Y-14501215D01*
X4864714Y-14501215D02*
X4864714Y-14301215D01*
X4845667Y-14329787D01*
X4826619Y-14348834D01*
X4807572Y-14358358D01*
X5112333Y-14501215D02*
X4998048Y-14501215D01*
X5055191Y-14501215D02*
X5055191Y-14301215D01*
X5036143Y-14329787D01*
X5017095Y-14348834D01*
X4998048Y-14358358D01*
X5283762Y-14301215D02*
X5245667Y-14301215D01*
X5226619Y-14310739D01*
X5217095Y-14320263D01*
X5198048Y-14348834D01*
X5188524Y-14386930D01*
X5188524Y-14463120D01*
X5198048Y-14482168D01*
X5207572Y-14491692D01*
X5226619Y-14501215D01*
X5264714Y-14501215D01*
X5283762Y-14491692D01*
X5293286Y-14482168D01*
X5302810Y-14463120D01*
X5302810Y-14415501D01*
X5293286Y-14396453D01*
X5283762Y-14386930D01*
X5264714Y-14377406D01*
X5226619Y-14377406D01*
X5207572Y-14386930D01*
X5198048Y-14396453D01*
X5188524Y-14415501D01*
X5540905Y-14501215D02*
X5540905Y-14301215D01*
X5626619Y-14501215D02*
X5626619Y-14396453D01*
X5617095Y-14377406D01*
X5598048Y-14367882D01*
X5569476Y-14367882D01*
X5550429Y-14377406D01*
X5540905Y-14386930D01*
X5750429Y-14501215D02*
X5731381Y-14491692D01*
X5721857Y-14482168D01*
X5712333Y-14463120D01*
X5712333Y-14405977D01*
X5721857Y-14386930D01*
X5731381Y-14377406D01*
X5750429Y-14367882D01*
X5779000Y-14367882D01*
X5798048Y-14377406D01*
X5807571Y-14386930D01*
X5817095Y-14405977D01*
X5817095Y-14463120D01*
X5807571Y-14482168D01*
X5798048Y-14491692D01*
X5779000Y-14501215D01*
X5750429Y-14501215D01*
X5931381Y-14501215D02*
X5912333Y-14491692D01*
X5902810Y-14472644D01*
X5902810Y-14301215D01*
X6083762Y-14491692D02*
X6064714Y-14501215D01*
X6026619Y-14501215D01*
X6007571Y-14491692D01*
X5998048Y-14472644D01*
X5998048Y-14396453D01*
X6007571Y-14377406D01*
X6026619Y-14367882D01*
X6064714Y-14367882D01*
X6083762Y-14377406D01*
X6093286Y-14396453D01*
X6093286Y-14415501D01*
X5998048Y-14434549D01*
X6169476Y-14491692D02*
X6188524Y-14501215D01*
X6226619Y-14501215D01*
X6245667Y-14491692D01*
X6255190Y-14472644D01*
X6255190Y-14463120D01*
X6245667Y-14444073D01*
X6226619Y-14434549D01*
X6198048Y-14434549D01*
X6179000Y-14425025D01*
X6169476Y-14405977D01*
X6169476Y-14396453D01*
X6179000Y-14377406D01*
X6198048Y-14367882D01*
X6226619Y-14367882D01*
X6245667Y-14377406D01*
X6321857Y-14577406D02*
X6331381Y-14567882D01*
X6350429Y-14539311D01*
X6359952Y-14520263D01*
X6369476Y-14491692D01*
X6379000Y-14444073D01*
X6379000Y-14405977D01*
X6369476Y-14358358D01*
X6359952Y-14329787D01*
X6350429Y-14310739D01*
X6331381Y-14282168D01*
X6321857Y-14272644D01*
X6683762Y-14577406D02*
X6674238Y-14567882D01*
X6655190Y-14539311D01*
X6645667Y-14520263D01*
X6636143Y-14491692D01*
X6626619Y-14444073D01*
X6626619Y-14405977D01*
X6636143Y-14358358D01*
X6645667Y-14329787D01*
X6655190Y-14310739D01*
X6674238Y-14282168D01*
X6683762Y-14272644D01*
X6759952Y-14367882D02*
X6759952Y-14501215D01*
X6759952Y-14386930D02*
X6769476Y-14377406D01*
X6788524Y-14367882D01*
X6817095Y-14367882D01*
X6836143Y-14377406D01*
X6845667Y-14396453D01*
X6845667Y-14501215D01*
X6969476Y-14501215D02*
X6950429Y-14491692D01*
X6940905Y-14482168D01*
X6931381Y-14463120D01*
X6931381Y-14405977D01*
X6940905Y-14386930D01*
X6950429Y-14377406D01*
X6969476Y-14367882D01*
X6998048Y-14367882D01*
X7017095Y-14377406D01*
X7026619Y-14386930D01*
X7036143Y-14405977D01*
X7036143Y-14463120D01*
X7026619Y-14482168D01*
X7017095Y-14491692D01*
X6998048Y-14501215D01*
X6969476Y-14501215D01*
X7093286Y-14367882D02*
X7169476Y-14367882D01*
X7121857Y-14301215D02*
X7121857Y-14472644D01*
X7131381Y-14491692D01*
X7150429Y-14501215D01*
X7169476Y-14501215D01*
X7388524Y-14367882D02*
X7388524Y-14567882D01*
X7388524Y-14377406D02*
X7407571Y-14367882D01*
X7445667Y-14367882D01*
X7464714Y-14377406D01*
X7474238Y-14386930D01*
X7483762Y-14405977D01*
X7483762Y-14463120D01*
X7474238Y-14482168D01*
X7464714Y-14491692D01*
X7445667Y-14501215D01*
X7407571Y-14501215D01*
X7388524Y-14491692D01*
X7598048Y-14501215D02*
X7579000Y-14491692D01*
X7569476Y-14472644D01*
X7569476Y-14301215D01*
X7759952Y-14501215D02*
X7759952Y-14396453D01*
X7750429Y-14377406D01*
X7731381Y-14367882D01*
X7693286Y-14367882D01*
X7674238Y-14377406D01*
X7759952Y-14491692D02*
X7740905Y-14501215D01*
X7693286Y-14501215D01*
X7674238Y-14491692D01*
X7664714Y-14472644D01*
X7664714Y-14453596D01*
X7674238Y-14434549D01*
X7693286Y-14425025D01*
X7740905Y-14425025D01*
X7759952Y-14415501D01*
X7826619Y-14367882D02*
X7902810Y-14367882D01*
X7855190Y-14301215D02*
X7855190Y-14472644D01*
X7864714Y-14491692D01*
X7883762Y-14501215D01*
X7902810Y-14501215D01*
X8045667Y-14491692D02*
X8026619Y-14501215D01*
X7988524Y-14501215D01*
X7969476Y-14491692D01*
X7959952Y-14472644D01*
X7959952Y-14396453D01*
X7969476Y-14377406D01*
X7988524Y-14367882D01*
X8026619Y-14367882D01*
X8045667Y-14377406D01*
X8055190Y-14396453D01*
X8055190Y-14415501D01*
X7959952Y-14434549D01*
X8226619Y-14501215D02*
X8226619Y-14301215D01*
X8226619Y-14491692D02*
X8207571Y-14501215D01*
X8169476Y-14501215D01*
X8150429Y-14491692D01*
X8140905Y-14482168D01*
X8131381Y-14463120D01*
X8131381Y-14405977D01*
X8140905Y-14386930D01*
X8150429Y-14377406D01*
X8169476Y-14367882D01*
X8207571Y-14367882D01*
X8226619Y-14377406D01*
X8302810Y-14577406D02*
X8312333Y-14567882D01*
X8331381Y-14539311D01*
X8340905Y-14520263D01*
X8350429Y-14491692D01*
X8359952Y-14444073D01*
X8359952Y-14405977D01*
X8350429Y-14358358D01*
X8340905Y-14329787D01*
X8331381Y-14310739D01*
X8312333Y-14282168D01*
X8302810Y-14272644D01*
X1069000Y-14630739D02*
X1069000Y-14830739D01*
X969000Y-14730739D02*
X1169000Y-14730739D01*
X1407571Y-14621215D02*
X1531381Y-14621215D01*
X1464714Y-14697406D01*
X1493286Y-14697406D01*
X1512333Y-14706930D01*
X1521857Y-14716453D01*
X1531381Y-14735501D01*
X1531381Y-14783120D01*
X1521857Y-14802168D01*
X1512333Y-14811692D01*
X1493286Y-14821215D01*
X1436143Y-14821215D01*
X1417095Y-14811692D01*
X1407571Y-14802168D01*
X1617095Y-14802168D02*
X1626619Y-14811692D01*
X1617095Y-14821215D01*
X1607571Y-14811692D01*
X1617095Y-14802168D01*
X1617095Y-14821215D01*
X1798048Y-14687882D02*
X1798048Y-14821215D01*
X1750429Y-14611692D02*
X1702810Y-14754549D01*
X1826619Y-14754549D01*
X1893286Y-14640263D02*
X1902810Y-14630739D01*
X1921857Y-14621215D01*
X1969476Y-14621215D01*
X1988524Y-14630739D01*
X1998048Y-14640263D01*
X2007571Y-14659311D01*
X2007571Y-14678358D01*
X1998048Y-14706930D01*
X1883762Y-14821215D01*
X2007571Y-14821215D01*
X2102810Y-14821215D02*
X2140905Y-14821215D01*
X2159952Y-14811692D01*
X2169476Y-14802168D01*
X2188524Y-14773596D01*
X2198048Y-14735501D01*
X2198048Y-14659311D01*
X2188524Y-14640263D01*
X2179000Y-14630739D01*
X2159952Y-14621215D01*
X2121857Y-14621215D01*
X2102810Y-14630739D01*
X2093286Y-14640263D01*
X2083762Y-14659311D01*
X2083762Y-14706930D01*
X2093286Y-14725977D01*
X2102810Y-14735501D01*
X2121857Y-14745025D01*
X2159952Y-14745025D01*
X2179000Y-14735501D01*
X2188524Y-14725977D01*
X2198048Y-14706930D01*
X2283762Y-14821215D02*
X2283762Y-14687882D01*
X2283762Y-14706930D02*
X2293286Y-14697406D01*
X2312333Y-14687882D01*
X2340905Y-14687882D01*
X2359952Y-14697406D01*
X2369476Y-14716453D01*
X2369476Y-14821215D01*
X2369476Y-14716453D02*
X2379000Y-14697406D01*
X2398048Y-14687882D01*
X2426619Y-14687882D01*
X2445667Y-14697406D01*
X2455191Y-14716453D01*
X2455191Y-14821215D01*
X2550429Y-14821215D02*
X2550429Y-14687882D01*
X2550429Y-14706930D02*
X2559952Y-14697406D01*
X2579000Y-14687882D01*
X2607572Y-14687882D01*
X2626619Y-14697406D01*
X2636143Y-14716453D01*
X2636143Y-14821215D01*
X2636143Y-14716453D02*
X2645667Y-14697406D01*
X2664714Y-14687882D01*
X2693286Y-14687882D01*
X2712333Y-14697406D01*
X2721857Y-14716453D01*
X2721857Y-14821215D01*
X3112333Y-14611692D02*
X2940905Y-14868834D01*
X3369476Y-14621215D02*
X3388524Y-14621215D01*
X3407571Y-14630739D01*
X3417095Y-14640263D01*
X3426619Y-14659311D01*
X3436143Y-14697406D01*
X3436143Y-14745025D01*
X3426619Y-14783120D01*
X3417095Y-14802168D01*
X3407571Y-14811692D01*
X3388524Y-14821215D01*
X3369476Y-14821215D01*
X3350429Y-14811692D01*
X3340905Y-14802168D01*
X3331381Y-14783120D01*
X3321857Y-14745025D01*
X3321857Y-14697406D01*
X3331381Y-14659311D01*
X3340905Y-14640263D01*
X3350429Y-14630739D01*
X3369476Y-14621215D01*
X3521857Y-14802168D02*
X3531381Y-14811692D01*
X3521857Y-14821215D01*
X3512333Y-14811692D01*
X3521857Y-14802168D01*
X3521857Y-14821215D01*
X3721857Y-14821215D02*
X3607571Y-14821215D01*
X3664714Y-14821215D02*
X3664714Y-14621215D01*
X3645667Y-14649787D01*
X3626619Y-14668834D01*
X3607571Y-14678358D01*
X3788524Y-14621215D02*
X3912333Y-14621215D01*
X3845667Y-14697406D01*
X3874238Y-14697406D01*
X3893286Y-14706930D01*
X3902810Y-14716453D01*
X3912333Y-14735501D01*
X3912333Y-14783120D01*
X3902810Y-14802168D01*
X3893286Y-14811692D01*
X3874238Y-14821215D01*
X3817095Y-14821215D01*
X3798048Y-14811692D01*
X3788524Y-14802168D01*
X4093286Y-14621215D02*
X3998048Y-14621215D01*
X3988524Y-14716453D01*
X3998048Y-14706930D01*
X4017095Y-14697406D01*
X4064714Y-14697406D01*
X4083762Y-14706930D01*
X4093286Y-14716453D01*
X4102810Y-14735501D01*
X4102810Y-14783120D01*
X4093286Y-14802168D01*
X4083762Y-14811692D01*
X4064714Y-14821215D01*
X4017095Y-14821215D01*
X3998048Y-14811692D01*
X3988524Y-14802168D01*
X4226619Y-14621215D02*
X4245667Y-14621215D01*
X4264714Y-14630739D01*
X4274238Y-14640263D01*
X4283762Y-14659311D01*
X4293286Y-14697406D01*
X4293286Y-14745025D01*
X4283762Y-14783120D01*
X4274238Y-14802168D01*
X4264714Y-14811692D01*
X4245667Y-14821215D01*
X4226619Y-14821215D01*
X4207572Y-14811692D01*
X4198048Y-14802168D01*
X4188524Y-14783120D01*
X4179000Y-14745025D01*
X4179000Y-14697406D01*
X4188524Y-14659311D01*
X4198048Y-14640263D01*
X4207572Y-14630739D01*
X4226619Y-14621215D01*
X4369476Y-14621215D02*
X4369476Y-14659311D01*
X4445667Y-14621215D02*
X4445667Y-14659311D01*
X4740905Y-14897406D02*
X4731381Y-14887882D01*
X4712333Y-14859311D01*
X4702810Y-14840263D01*
X4693286Y-14811692D01*
X4683762Y-14764073D01*
X4683762Y-14725977D01*
X4693286Y-14678358D01*
X4702810Y-14649787D01*
X4712333Y-14630739D01*
X4731381Y-14602168D01*
X4740905Y-14592644D01*
X4807572Y-14640263D02*
X4817095Y-14630739D01*
X4836143Y-14621215D01*
X4883762Y-14621215D01*
X4902810Y-14630739D01*
X4912333Y-14640263D01*
X4921857Y-14659311D01*
X4921857Y-14678358D01*
X4912333Y-14706930D01*
X4798048Y-14821215D01*
X4921857Y-14821215D01*
X5017095Y-14821215D02*
X5055191Y-14821215D01*
X5074238Y-14811692D01*
X5083762Y-14802168D01*
X5102810Y-14773596D01*
X5112333Y-14735501D01*
X5112333Y-14659311D01*
X5102810Y-14640263D01*
X5093286Y-14630739D01*
X5074238Y-14621215D01*
X5036143Y-14621215D01*
X5017095Y-14630739D01*
X5007572Y-14640263D01*
X4998048Y-14659311D01*
X4998048Y-14706930D01*
X5007572Y-14725977D01*
X5017095Y-14735501D01*
X5036143Y-14745025D01*
X5074238Y-14745025D01*
X5093286Y-14735501D01*
X5102810Y-14725977D01*
X5112333Y-14706930D01*
X5350429Y-14821215D02*
X5350429Y-14621215D01*
X5436143Y-14821215D02*
X5436143Y-14716453D01*
X5426619Y-14697406D01*
X5407572Y-14687882D01*
X5379000Y-14687882D01*
X5359952Y-14697406D01*
X5350429Y-14706930D01*
X5559952Y-14821215D02*
X5540905Y-14811692D01*
X5531381Y-14802168D01*
X5521857Y-14783120D01*
X5521857Y-14725977D01*
X5531381Y-14706930D01*
X5540905Y-14697406D01*
X5559952Y-14687882D01*
X5588524Y-14687882D01*
X5607571Y-14697406D01*
X5617095Y-14706930D01*
X5626619Y-14725977D01*
X5626619Y-14783120D01*
X5617095Y-14802168D01*
X5607571Y-14811692D01*
X5588524Y-14821215D01*
X5559952Y-14821215D01*
X5740905Y-14821215D02*
X5721857Y-14811692D01*
X5712333Y-14792644D01*
X5712333Y-14621215D01*
X5893286Y-14811692D02*
X5874238Y-14821215D01*
X5836143Y-14821215D01*
X5817095Y-14811692D01*
X5807571Y-14792644D01*
X5807571Y-14716453D01*
X5817095Y-14697406D01*
X5836143Y-14687882D01*
X5874238Y-14687882D01*
X5893286Y-14697406D01*
X5902810Y-14716453D01*
X5902810Y-14735501D01*
X5807571Y-14754549D01*
X5979000Y-14811692D02*
X5998048Y-14821215D01*
X6036143Y-14821215D01*
X6055190Y-14811692D01*
X6064714Y-14792644D01*
X6064714Y-14783120D01*
X6055190Y-14764073D01*
X6036143Y-14754549D01*
X6007571Y-14754549D01*
X5988524Y-14745025D01*
X5979000Y-14725977D01*
X5979000Y-14716453D01*
X5988524Y-14697406D01*
X6007571Y-14687882D01*
X6036143Y-14687882D01*
X6055190Y-14697406D01*
X6131381Y-14897406D02*
X6140905Y-14887882D01*
X6159952Y-14859311D01*
X6169476Y-14840263D01*
X6179000Y-14811692D01*
X6188524Y-14764073D01*
X6188524Y-14725977D01*
X6179000Y-14678358D01*
X6169476Y-14649787D01*
X6159952Y-14630739D01*
X6140905Y-14602168D01*
X6131381Y-14592644D01*
X6493286Y-14897406D02*
X6483762Y-14887882D01*
X6464714Y-14859311D01*
X6455190Y-14840263D01*
X6445667Y-14811692D01*
X6436143Y-14764073D01*
X6436143Y-14725977D01*
X6445667Y-14678358D01*
X6455190Y-14649787D01*
X6464714Y-14630739D01*
X6483762Y-14602168D01*
X6493286Y-14592644D01*
X6569476Y-14687882D02*
X6569476Y-14821215D01*
X6569476Y-14706930D02*
X6579000Y-14697406D01*
X6598048Y-14687882D01*
X6626619Y-14687882D01*
X6645667Y-14697406D01*
X6655190Y-14716453D01*
X6655190Y-14821215D01*
X6779000Y-14821215D02*
X6759952Y-14811692D01*
X6750429Y-14802168D01*
X6740905Y-14783120D01*
X6740905Y-14725977D01*
X6750429Y-14706930D01*
X6759952Y-14697406D01*
X6779000Y-14687882D01*
X6807571Y-14687882D01*
X6826619Y-14697406D01*
X6836143Y-14706930D01*
X6845667Y-14725977D01*
X6845667Y-14783120D01*
X6836143Y-14802168D01*
X6826619Y-14811692D01*
X6807571Y-14821215D01*
X6779000Y-14821215D01*
X6902810Y-14687882D02*
X6979000Y-14687882D01*
X6931381Y-14621215D02*
X6931381Y-14792644D01*
X6940905Y-14811692D01*
X6959952Y-14821215D01*
X6979000Y-14821215D01*
X7198048Y-14687882D02*
X7198048Y-14887882D01*
X7198048Y-14697406D02*
X7217095Y-14687882D01*
X7255190Y-14687882D01*
X7274238Y-14697406D01*
X7283762Y-14706930D01*
X7293286Y-14725977D01*
X7293286Y-14783120D01*
X7283762Y-14802168D01*
X7274238Y-14811692D01*
X7255190Y-14821215D01*
X7217095Y-14821215D01*
X7198048Y-14811692D01*
X7407571Y-14821215D02*
X7388524Y-14811692D01*
X7379000Y-14792644D01*
X7379000Y-14621215D01*
X7569476Y-14821215D02*
X7569476Y-14716453D01*
X7559952Y-14697406D01*
X7540905Y-14687882D01*
X7502810Y-14687882D01*
X7483762Y-14697406D01*
X7569476Y-14811692D02*
X7550429Y-14821215D01*
X7502810Y-14821215D01*
X7483762Y-14811692D01*
X7474238Y-14792644D01*
X7474238Y-14773596D01*
X7483762Y-14754549D01*
X7502810Y-14745025D01*
X7550429Y-14745025D01*
X7569476Y-14735501D01*
X7636143Y-14687882D02*
X7712333Y-14687882D01*
X7664714Y-14621215D02*
X7664714Y-14792644D01*
X7674238Y-14811692D01*
X7693286Y-14821215D01*
X7712333Y-14821215D01*
X7855190Y-14811692D02*
X7836143Y-14821215D01*
X7798048Y-14821215D01*
X7779000Y-14811692D01*
X7769476Y-14792644D01*
X7769476Y-14716453D01*
X7779000Y-14697406D01*
X7798048Y-14687882D01*
X7836143Y-14687882D01*
X7855190Y-14697406D01*
X7864714Y-14716453D01*
X7864714Y-14735501D01*
X7769476Y-14754549D01*
X8036143Y-14821215D02*
X8036143Y-14621215D01*
X8036143Y-14811692D02*
X8017095Y-14821215D01*
X7979000Y-14821215D01*
X7959952Y-14811692D01*
X7950429Y-14802168D01*
X7940905Y-14783120D01*
X7940905Y-14725977D01*
X7950429Y-14706930D01*
X7959952Y-14697406D01*
X7979000Y-14687882D01*
X8017095Y-14687882D01*
X8036143Y-14697406D01*
X8112333Y-14897406D02*
X8121857Y-14887882D01*
X8140905Y-14859311D01*
X8150429Y-14840263D01*
X8159952Y-14811692D01*
X8169476Y-14764073D01*
X8169476Y-14725977D01*
X8159952Y-14678358D01*
X8150429Y-14649787D01*
X8140905Y-14630739D01*
X8121857Y-14602168D01*
X8112333Y-14592644D01*
M02*
