%TF.GenerationSoftware,KiCad,Pcbnew,(6.0.9-0)*%
%TF.CreationDate,2023-01-10T21:03:57-06:00*%
%TF.ProjectId,board,626f6172-642e-46b6-9963-61645f706362,v1.0.0*%
%TF.SameCoordinates,Original*%
%TF.FileFunction,Soldermask,Top*%
%TF.FilePolarity,Negative*%
%FSLAX46Y46*%
G04 Gerber Fmt 4.6, Leading zero omitted, Abs format (unit mm)*
G04 Created by KiCad (PCBNEW (6.0.9-0)) date 2023-01-10 21:03:57*
%MOMM*%
%LPD*%
G01*
G04 APERTURE LIST*
G04 Aperture macros list*
%AMRoundRect*
0 Rectangle with rounded corners*
0 $1 Rounding radius*
0 $2 $3 $4 $5 $6 $7 $8 $9 X,Y pos of 4 corners*
0 Add a 4 corners polygon primitive as box body*
4,1,4,$2,$3,$4,$5,$6,$7,$8,$9,$2,$3,0*
0 Add four circle primitives for the rounded corners*
1,1,$1+$1,$2,$3*
1,1,$1+$1,$4,$5*
1,1,$1+$1,$6,$7*
1,1,$1+$1,$8,$9*
0 Add four rect primitives between the rounded corners*
20,1,$1+$1,$2,$3,$4,$5,0*
20,1,$1+$1,$4,$5,$6,$7,0*
20,1,$1+$1,$6,$7,$8,$9,0*
20,1,$1+$1,$8,$9,$2,$3,0*%
%AMFreePoly0*
4,1,14,0.635355,0.435355,0.650000,0.400000,0.650000,0.200000,0.635355,0.164645,0.035355,-0.435355,0.000000,-0.450000,-0.035355,-0.435355,-0.635355,0.164645,-0.650000,0.200000,-0.650000,0.400000,-0.635355,0.435355,-0.600000,0.450000,0.600000,0.450000,0.635355,0.435355,0.635355,0.435355,$1*%
%AMFreePoly1*
4,1,16,0.635355,1.035355,0.650000,1.000000,0.650000,-0.250000,0.635355,-0.285355,0.600000,-0.300000,-0.600000,-0.300000,-0.635355,-0.285355,-0.650000,-0.250000,-0.650000,1.000000,-0.635355,1.035355,-0.600000,1.050000,-0.564645,1.035355,0.000000,0.470710,0.564645,1.035355,0.600000,1.050000,0.635355,1.035355,0.635355,1.035355,$1*%
G04 Aperture macros list end*
%ADD10C,0.250000*%
%ADD11C,0.100000*%
%ADD12C,3.529000*%
%ADD13C,1.801800*%
%ADD14C,3.100000*%
%ADD15RoundRect,0.050000X-1.300000X-1.300000X1.300000X-1.300000X1.300000X1.300000X-1.300000X1.300000X0*%
%ADD16RoundRect,0.050000X-1.666227X-0.776974X0.776974X-1.666227X1.666227X0.776974X-0.776974X1.666227X0*%
%ADD17RoundRect,0.050000X-1.810547X-0.319248X0.319248X-1.810547X1.810547X0.319248X-0.319248X1.810547X0*%
%ADD18RoundRect,0.050000X-0.450000X-0.600000X0.450000X-0.600000X0.450000X0.600000X-0.450000X0.600000X0*%
%ADD19RoundRect,0.050000X-0.889000X-0.889000X0.889000X-0.889000X0.889000X0.889000X-0.889000X0.889000X0*%
%ADD20C,2.005000*%
%ADD21RoundRect,0.050000X-0.628074X-0.409907X0.217650X-0.717725X0.628074X0.409907X-0.217650X0.717725X0*%
%ADD22RoundRect,0.050000X-1.139443X-0.531331X0.531331X-1.139443X1.139443X0.531331X-0.531331X1.139443X0*%
%ADD23RoundRect,0.050000X-0.712764X-0.233382X0.024473X-0.749601X0.712764X0.233382X-0.024473X0.749601X0*%
%ADD24RoundRect,0.050000X-1.238136X-0.218317X0.218317X-1.238136X1.238136X0.218317X-0.218317X1.238136X0*%
%ADD25C,1.700000*%
%ADD26FreePoly0,90.000000*%
%ADD27FreePoly1,90.000000*%
%ADD28RoundRect,0.050000X-0.800000X0.800000X-0.800000X-0.800000X0.800000X-0.800000X0.800000X0.800000X0*%
%ADD29FreePoly1,270.000000*%
%ADD30FreePoly0,270.000000*%
%ADD31O,1.800000X1.800000*%
%ADD32RoundRect,0.050000X-0.850000X-0.850000X0.850000X-0.850000X0.850000X0.850000X-0.850000X0.850000X0*%
%ADD33RoundRect,0.050000X0.850000X0.850000X-0.850000X0.850000X-0.850000X-0.850000X0.850000X-0.850000X0*%
%ADD34RoundRect,0.050000X-0.750000X-0.750000X0.750000X-0.750000X0.750000X0.750000X-0.750000X0.750000X0*%
%ADD35RoundRect,0.050000X-0.571500X0.317500X-0.571500X-0.317500X0.571500X-0.317500X0.571500X0.317500X0*%
%ADD36RoundRect,0.050000X-0.550000X0.900000X-0.550000X-0.900000X0.550000X-0.900000X0.550000X0.900000X0*%
G04 APERTURE END LIST*
D10*
%TO.C,MCU1*%
X139128000Y-72020001D02*
G75*
G03*
X139128000Y-72020001I-125000J0D01*
G01*
X140652000Y-72020001D02*
G75*
G03*
X140652000Y-72020001I-125000J0D01*
G01*
X139128000Y-69480001D02*
G75*
G03*
X139128000Y-69480001I-125000J0D01*
G01*
X140652000Y-69480001D02*
G75*
G03*
X140652000Y-69480001I-125000J0D01*
G01*
X139128000Y-66940001D02*
G75*
G03*
X139128000Y-66940001I-125000J0D01*
G01*
X140652000Y-66940001D02*
G75*
G03*
X140652000Y-66940001I-125000J0D01*
G01*
X139128000Y-64400001D02*
G75*
G03*
X139128000Y-64400001I-125000J0D01*
G01*
X140652000Y-64400001D02*
G75*
G03*
X140652000Y-64400001I-125000J0D01*
G01*
X139128000Y-61860001D02*
G75*
G03*
X139128000Y-61860001I-125000J0D01*
G01*
X140652000Y-61860001D02*
G75*
G03*
X140652000Y-61860001I-125000J0D01*
G01*
X139128000Y-59320001D02*
G75*
G03*
X139128000Y-59320001I-125000J0D01*
G01*
X140652000Y-59320001D02*
G75*
G03*
X140652000Y-59320001I-125000J0D01*
G01*
X139128000Y-56780001D02*
G75*
G03*
X139128000Y-56780001I-125000J0D01*
G01*
X140652000Y-56780001D02*
G75*
G03*
X140652000Y-56780001I-125000J0D01*
G01*
X139128000Y-54240001D02*
G75*
G03*
X139128000Y-54240001I-125000J0D01*
G01*
X140652000Y-54240001D02*
G75*
G03*
X140652000Y-54240001I-125000J0D01*
G01*
X139128000Y-51700001D02*
G75*
G03*
X139128000Y-51700001I-125000J0D01*
G01*
X140652000Y-51700001D02*
G75*
G03*
X140652000Y-51700001I-125000J0D01*
G01*
X139128000Y-49160001D02*
G75*
G03*
X139128000Y-49160001I-125000J0D01*
G01*
X140652000Y-49160001D02*
G75*
G03*
X140652000Y-49160001I-125000J0D01*
G01*
X140652000Y-46620001D02*
G75*
G03*
X140652000Y-46620001I-125000J0D01*
G01*
X139128000Y-46620001D02*
G75*
G03*
X139128000Y-46620001I-125000J0D01*
G01*
X139128000Y-44080001D02*
G75*
G03*
X139128000Y-44080001I-125000J0D01*
G01*
X140652000Y-44080001D02*
G75*
G03*
X140652000Y-44080001I-125000J0D01*
G01*
G36*
X145861000Y-44588001D02*
G01*
X144845000Y-44588001D01*
X144845000Y-43572001D01*
X145861000Y-43572001D01*
X145861000Y-44588001D01*
G37*
D11*
X145861000Y-44588001D02*
X144845000Y-44588001D01*
X144845000Y-43572001D01*
X145861000Y-43572001D01*
X145861000Y-44588001D01*
G36*
X145861000Y-59828001D02*
G01*
X144845000Y-59828001D01*
X144845000Y-58812001D01*
X145861000Y-58812001D01*
X145861000Y-59828001D01*
G37*
X145861000Y-59828001D02*
X144845000Y-59828001D01*
X144845000Y-58812001D01*
X145861000Y-58812001D01*
X145861000Y-59828001D01*
G36*
X145861000Y-47128001D02*
G01*
X144845000Y-47128001D01*
X144845000Y-46112001D01*
X145861000Y-46112001D01*
X145861000Y-47128001D01*
G37*
X145861000Y-47128001D02*
X144845000Y-47128001D01*
X144845000Y-46112001D01*
X145861000Y-46112001D01*
X145861000Y-47128001D01*
G36*
X145861000Y-49668001D02*
G01*
X144845000Y-49668001D01*
X144845000Y-48652001D01*
X145861000Y-48652001D01*
X145861000Y-49668001D01*
G37*
X145861000Y-49668001D02*
X144845000Y-49668001D01*
X144845000Y-48652001D01*
X145861000Y-48652001D01*
X145861000Y-49668001D01*
G36*
X145861000Y-54748001D02*
G01*
X144845000Y-54748001D01*
X144845000Y-53732001D01*
X145861000Y-53732001D01*
X145861000Y-54748001D01*
G37*
X145861000Y-54748001D02*
X144845000Y-54748001D01*
X144845000Y-53732001D01*
X145861000Y-53732001D01*
X145861000Y-54748001D01*
G36*
X145861000Y-57288001D02*
G01*
X144845000Y-57288001D01*
X144845000Y-56272001D01*
X145861000Y-56272001D01*
X145861000Y-57288001D01*
G37*
X145861000Y-57288001D02*
X144845000Y-57288001D01*
X144845000Y-56272001D01*
X145861000Y-56272001D01*
X145861000Y-57288001D01*
G36*
X145861000Y-64908001D02*
G01*
X144845000Y-64908001D01*
X144845000Y-63892001D01*
X145861000Y-63892001D01*
X145861000Y-64908001D01*
G37*
X145861000Y-64908001D02*
X144845000Y-64908001D01*
X144845000Y-63892001D01*
X145861000Y-63892001D01*
X145861000Y-64908001D01*
G36*
X145861000Y-69988001D02*
G01*
X144845000Y-69988001D01*
X144845000Y-68972001D01*
X145861000Y-68972001D01*
X145861000Y-69988001D01*
G37*
X145861000Y-69988001D02*
X144845000Y-69988001D01*
X144845000Y-68972001D01*
X145861000Y-68972001D01*
X145861000Y-69988001D01*
G36*
X145861000Y-52208001D02*
G01*
X144845000Y-52208001D01*
X144845000Y-51192001D01*
X145861000Y-51192001D01*
X145861000Y-52208001D01*
G37*
X145861000Y-52208001D02*
X144845000Y-52208001D01*
X144845000Y-51192001D01*
X145861000Y-51192001D01*
X145861000Y-52208001D01*
G36*
X145861000Y-62368001D02*
G01*
X144845000Y-62368001D01*
X144845000Y-61352001D01*
X145861000Y-61352001D01*
X145861000Y-62368001D01*
G37*
X145861000Y-62368001D02*
X144845000Y-62368001D01*
X144845000Y-61352001D01*
X145861000Y-61352001D01*
X145861000Y-62368001D01*
G36*
X145861000Y-67448001D02*
G01*
X144845000Y-67448001D01*
X144845000Y-66432001D01*
X145861000Y-66432001D01*
X145861000Y-67448001D01*
G37*
X145861000Y-67448001D02*
X144845000Y-67448001D01*
X144845000Y-66432001D01*
X145861000Y-66432001D01*
X145861000Y-67448001D01*
G36*
X145861000Y-72528001D02*
G01*
X144845000Y-72528001D01*
X144845000Y-71512001D01*
X145861000Y-71512001D01*
X145861000Y-72528001D01*
G37*
X145861000Y-72528001D02*
X144845000Y-72528001D01*
X144845000Y-71512001D01*
X145861000Y-71512001D01*
X145861000Y-72528001D01*
G36*
X134685000Y-72528001D02*
G01*
X133669000Y-72528001D01*
X133669000Y-71512001D01*
X134685000Y-71512001D01*
X134685000Y-72528001D01*
G37*
X134685000Y-72528001D02*
X133669000Y-72528001D01*
X133669000Y-71512001D01*
X134685000Y-71512001D01*
X134685000Y-72528001D01*
G36*
X134685000Y-69988001D02*
G01*
X133669000Y-69988001D01*
X133669000Y-68972001D01*
X134685000Y-68972001D01*
X134685000Y-69988001D01*
G37*
X134685000Y-69988001D02*
X133669000Y-69988001D01*
X133669000Y-68972001D01*
X134685000Y-68972001D01*
X134685000Y-69988001D01*
G36*
X134685000Y-67448001D02*
G01*
X133669000Y-67448001D01*
X133669000Y-66432001D01*
X134685000Y-66432001D01*
X134685000Y-67448001D01*
G37*
X134685000Y-67448001D02*
X133669000Y-67448001D01*
X133669000Y-66432001D01*
X134685000Y-66432001D01*
X134685000Y-67448001D01*
G36*
X134685000Y-64908001D02*
G01*
X133669000Y-64908001D01*
X133669000Y-63892001D01*
X134685000Y-63892001D01*
X134685000Y-64908001D01*
G37*
X134685000Y-64908001D02*
X133669000Y-64908001D01*
X133669000Y-63892001D01*
X134685000Y-63892001D01*
X134685000Y-64908001D01*
G36*
X134685000Y-62368001D02*
G01*
X133669000Y-62368001D01*
X133669000Y-61352001D01*
X134685000Y-61352001D01*
X134685000Y-62368001D01*
G37*
X134685000Y-62368001D02*
X133669000Y-62368001D01*
X133669000Y-61352001D01*
X134685000Y-61352001D01*
X134685000Y-62368001D01*
G36*
X134685000Y-59828001D02*
G01*
X133669000Y-59828001D01*
X133669000Y-58812001D01*
X134685000Y-58812001D01*
X134685000Y-59828001D01*
G37*
X134685000Y-59828001D02*
X133669000Y-59828001D01*
X133669000Y-58812001D01*
X134685000Y-58812001D01*
X134685000Y-59828001D01*
G36*
X134685000Y-57288001D02*
G01*
X133669000Y-57288001D01*
X133669000Y-56272001D01*
X134685000Y-56272001D01*
X134685000Y-57288001D01*
G37*
X134685000Y-57288001D02*
X133669000Y-57288001D01*
X133669000Y-56272001D01*
X134685000Y-56272001D01*
X134685000Y-57288001D01*
G36*
X134685000Y-54748001D02*
G01*
X133669000Y-54748001D01*
X133669000Y-53732001D01*
X134685000Y-53732001D01*
X134685000Y-54748001D01*
G37*
X134685000Y-54748001D02*
X133669000Y-54748001D01*
X133669000Y-53732001D01*
X134685000Y-53732001D01*
X134685000Y-54748001D01*
G36*
X134685000Y-52208001D02*
G01*
X133669000Y-52208001D01*
X133669000Y-51192001D01*
X134685000Y-51192001D01*
X134685000Y-52208001D01*
G37*
X134685000Y-52208001D02*
X133669000Y-52208001D01*
X133669000Y-51192001D01*
X134685000Y-51192001D01*
X134685000Y-52208001D01*
G36*
X134685000Y-49668001D02*
G01*
X133669000Y-49668001D01*
X133669000Y-48652001D01*
X134685000Y-48652001D01*
X134685000Y-49668001D01*
G37*
X134685000Y-49668001D02*
X133669000Y-49668001D01*
X133669000Y-48652001D01*
X134685000Y-48652001D01*
X134685000Y-49668001D01*
G36*
X134685000Y-47128001D02*
G01*
X133669000Y-47128001D01*
X133669000Y-46112001D01*
X134685000Y-46112001D01*
X134685000Y-47128001D01*
G37*
X134685000Y-47128001D02*
X133669000Y-47128001D01*
X133669000Y-46112001D01*
X134685000Y-46112001D01*
X134685000Y-47128001D01*
G36*
X134685000Y-44588001D02*
G01*
X133669000Y-44588001D01*
X133669000Y-43572001D01*
X134685000Y-43572001D01*
X134685000Y-44588001D01*
G37*
X134685000Y-44588001D02*
X133669000Y-44588001D01*
X133669000Y-43572001D01*
X134685000Y-43572001D01*
X134685000Y-44588001D01*
%TD*%
D12*
%TO.C,S1*%
X24765001Y-83050001D03*
D13*
X30265001Y-83050001D03*
X19265001Y-83050001D03*
D14*
X29765001Y-79300001D03*
X24765001Y-77100001D03*
X19765001Y-79300001D03*
X24765001Y-77100001D03*
D15*
X28040001Y-77100001D03*
X16490001Y-79300001D03*
%TD*%
D12*
%TO.C,S2*%
X24765001Y-66050001D03*
D13*
X30265001Y-66050001D03*
X19265001Y-66050001D03*
D14*
X29765001Y-62300001D03*
X24765001Y-60100001D03*
X19765001Y-62300001D03*
X24765001Y-60100001D03*
D15*
X28040001Y-60100001D03*
X16490001Y-62300001D03*
%TD*%
D12*
%TO.C,S3*%
X24765000Y-49050001D03*
D13*
X30265000Y-49050001D03*
X19265000Y-49050001D03*
D14*
X29765000Y-45300001D03*
X24765000Y-43100001D03*
X19765000Y-45300001D03*
X24765000Y-43100001D03*
D15*
X28040000Y-43100001D03*
X16490000Y-45300001D03*
%TD*%
D12*
%TO.C,S4*%
X24765000Y-32050001D03*
D13*
X30265000Y-32050001D03*
X19265000Y-32050001D03*
D14*
X29765000Y-28300001D03*
X24765000Y-26100001D03*
X19765000Y-28300001D03*
X24765000Y-26100001D03*
D15*
X28040000Y-26100001D03*
X16490000Y-28300001D03*
%TD*%
D12*
%TO.C,S5*%
X43765000Y-83050001D03*
D13*
X49265000Y-83050001D03*
X38265000Y-83050001D03*
D14*
X48765000Y-79300001D03*
X43765000Y-77100001D03*
X38765000Y-79300001D03*
X43765000Y-77100001D03*
D15*
X47040000Y-77100001D03*
X35490000Y-79300001D03*
%TD*%
D12*
%TO.C,S6*%
X43765001Y-66050001D03*
D13*
X49265001Y-66050001D03*
X38265001Y-66050001D03*
D14*
X48765001Y-62300001D03*
X43765001Y-60100001D03*
X38765001Y-62300001D03*
X43765001Y-60100001D03*
D15*
X47040001Y-60100001D03*
X35490001Y-62300001D03*
%TD*%
D12*
%TO.C,S7*%
X43765000Y-49050002D03*
D13*
X49265000Y-49050002D03*
X38265000Y-49050002D03*
D14*
X48765000Y-45300002D03*
X43765000Y-43100002D03*
X38765000Y-45300002D03*
X43765000Y-43100002D03*
D15*
X47040000Y-43100002D03*
X35490000Y-45300002D03*
%TD*%
D12*
%TO.C,S8*%
X43765000Y-32050002D03*
D13*
X49265000Y-32050002D03*
X38265000Y-32050002D03*
D14*
X48765000Y-28300002D03*
X43765000Y-26100002D03*
X38765000Y-28300002D03*
X43765000Y-26100002D03*
D15*
X47040000Y-26100002D03*
X35490000Y-28300002D03*
%TD*%
D12*
%TO.C,S9*%
X62765000Y-78050001D03*
D13*
X68265000Y-78050001D03*
X57265000Y-78050001D03*
D14*
X67765000Y-74300001D03*
X62765000Y-72100001D03*
X57765000Y-74300001D03*
X62765000Y-72100001D03*
D15*
X66040000Y-72100001D03*
X54490000Y-74300001D03*
%TD*%
D12*
%TO.C,S10*%
X62765000Y-61050000D03*
D13*
X68265000Y-61050000D03*
X57265000Y-61050000D03*
D14*
X67765000Y-57300000D03*
X62765000Y-55100000D03*
X57765000Y-57300000D03*
X62765000Y-55100000D03*
D15*
X66040000Y-55100000D03*
X54490000Y-57300000D03*
%TD*%
D12*
%TO.C,S11*%
X62765000Y-44050000D03*
D13*
X68265000Y-44050000D03*
X57265000Y-44050000D03*
D14*
X67765000Y-40300000D03*
X62765000Y-38100000D03*
X57765000Y-40300000D03*
X62765000Y-38100000D03*
D15*
X66040000Y-38100000D03*
X54490000Y-40300000D03*
%TD*%
D12*
%TO.C,S12*%
X62765000Y-27050001D03*
D13*
X68265000Y-27050001D03*
X57265000Y-27050001D03*
D14*
X67765000Y-23300001D03*
X62765000Y-21100001D03*
X57765000Y-23300001D03*
X62765000Y-21100001D03*
D15*
X66040000Y-21100001D03*
X54490000Y-23300001D03*
%TD*%
D12*
%TO.C,S13*%
X81765001Y-73050001D03*
D13*
X87265001Y-73050001D03*
X76265001Y-73050001D03*
D14*
X86765001Y-69300001D03*
X81765001Y-67100001D03*
X76765001Y-69300001D03*
X81765001Y-67100001D03*
D15*
X85040001Y-67100001D03*
X73490001Y-69300001D03*
%TD*%
D12*
%TO.C,S14*%
X81765000Y-56050001D03*
D13*
X87265000Y-56050001D03*
X76265000Y-56050001D03*
D14*
X86765000Y-52300001D03*
X81765000Y-50100001D03*
X76765000Y-52300001D03*
X81765000Y-50100001D03*
D15*
X85040000Y-50100001D03*
X73490000Y-52300001D03*
%TD*%
D12*
%TO.C,S15*%
X81765000Y-39050001D03*
D13*
X87265000Y-39050001D03*
X76265000Y-39050001D03*
D14*
X86765000Y-35300001D03*
X81765000Y-33100001D03*
X76765000Y-35300001D03*
X81765000Y-33100001D03*
D15*
X85040000Y-33100001D03*
X73490000Y-35300001D03*
%TD*%
D12*
%TO.C,S16*%
X81764999Y-22050001D03*
D13*
X87264999Y-22050001D03*
X76264999Y-22050001D03*
D14*
X86764999Y-18300001D03*
X81764999Y-16100001D03*
X76764999Y-18300001D03*
X81764999Y-16100001D03*
D15*
X85039999Y-16100001D03*
X73489999Y-18300001D03*
%TD*%
D12*
%TO.C,S17*%
X100765000Y-79050000D03*
D13*
X106265000Y-79050000D03*
X95265000Y-79050000D03*
D14*
X105765000Y-75300000D03*
X100765000Y-73100000D03*
X95765000Y-75300000D03*
X100765000Y-73100000D03*
D15*
X104040000Y-73100000D03*
X92490000Y-75300000D03*
%TD*%
D12*
%TO.C,S18*%
X100765001Y-62050000D03*
D13*
X106265001Y-62050000D03*
X95265001Y-62050000D03*
D14*
X105765001Y-58300000D03*
X100765001Y-56100000D03*
X95765001Y-58300000D03*
X100765001Y-56100000D03*
D15*
X104040001Y-56100000D03*
X92490001Y-58300000D03*
%TD*%
D12*
%TO.C,S19*%
X100765000Y-45050000D03*
D13*
X106265000Y-45050000D03*
X95265000Y-45050000D03*
D14*
X105765000Y-41300000D03*
X100765000Y-39100000D03*
X95765000Y-41300000D03*
X100765000Y-39100000D03*
D15*
X104040000Y-39100000D03*
X92490000Y-41300000D03*
%TD*%
D12*
%TO.C,S20*%
X100765000Y-28050001D03*
D13*
X106265000Y-28050001D03*
X95265000Y-28050001D03*
D14*
X105765000Y-24300001D03*
X100765000Y-22100001D03*
X95765000Y-24300001D03*
X100765000Y-22100001D03*
D15*
X104040000Y-22100001D03*
X92490000Y-24300001D03*
%TD*%
D12*
%TO.C,S21*%
X119765001Y-81050001D03*
D13*
X125265001Y-81050001D03*
X114265001Y-81050001D03*
D14*
X124765001Y-77300001D03*
X119765001Y-75100001D03*
X114765001Y-77300001D03*
X119765001Y-75100001D03*
D15*
X123040001Y-75100001D03*
X111490001Y-77300001D03*
%TD*%
D12*
%TO.C,S22*%
X119765000Y-64050002D03*
D13*
X125265000Y-64050002D03*
X114265000Y-64050002D03*
D14*
X124765000Y-60300002D03*
X119765000Y-58100002D03*
X114765000Y-60300002D03*
X119765000Y-58100002D03*
D15*
X123040000Y-58100002D03*
X111490000Y-60300002D03*
%TD*%
D12*
%TO.C,S23*%
X119764999Y-47050001D03*
D13*
X125264999Y-47050001D03*
X114264999Y-47050001D03*
D14*
X124764999Y-43300001D03*
X119764999Y-41100001D03*
X114764999Y-43300001D03*
X119764999Y-41100001D03*
D15*
X123039999Y-41100001D03*
X111489999Y-43300001D03*
%TD*%
D12*
%TO.C,S24*%
X119765001Y-30050000D03*
D13*
X125265001Y-30050000D03*
X114265001Y-30050000D03*
D14*
X124765001Y-26300000D03*
X119765001Y-24100000D03*
X114765001Y-26300000D03*
X119765001Y-24100000D03*
D15*
X123040001Y-24100000D03*
X111490001Y-26300000D03*
%TD*%
D12*
%TO.C,S25*%
X99765000Y-101050001D03*
D13*
X105265000Y-101050001D03*
X94265000Y-101050001D03*
D14*
X104765000Y-97300001D03*
X99765000Y-95100001D03*
X94765000Y-97300001D03*
X99765000Y-95100001D03*
D15*
X103040000Y-95100001D03*
X91490000Y-97300001D03*
%TD*%
D12*
%TO.C,S26*%
X118765000Y-101050001D03*
D13*
X124265000Y-101050001D03*
X113265000Y-101050001D03*
D14*
X123765000Y-97300001D03*
X118765000Y-95100001D03*
X113765000Y-97300001D03*
X118765000Y-95100001D03*
D15*
X122040000Y-95100001D03*
X110490000Y-97300001D03*
%TD*%
D12*
%TO.C,S27*%
X139010434Y-110747180D03*
D13*
X144178743Y-112628291D03*
X133842125Y-108866069D03*
D14*
X144991473Y-108933433D03*
X141045454Y-105156009D03*
X135594546Y-105513232D03*
X141045454Y-105156009D03*
D16*
X144122947Y-106276125D03*
X132517053Y-104393116D03*
%TD*%
D12*
%TO.C,S28*%
X144824776Y-94772405D03*
D13*
X149993085Y-96653516D03*
X139656467Y-92891294D03*
D14*
X150805815Y-92958658D03*
X146859796Y-89181234D03*
X141408888Y-89538457D03*
X146859796Y-89181234D03*
D16*
X149937289Y-90301350D03*
X138331395Y-88418341D03*
%TD*%
D12*
%TO.C,S29*%
X158116069Y-120803308D03*
D13*
X162621405Y-123957978D03*
X153610733Y-117648638D03*
D14*
X164362741Y-120599370D03*
X161528849Y-115929353D03*
X156171220Y-114863606D03*
X161528849Y-115929353D03*
D17*
X164211572Y-117807816D03*
X153488497Y-112985143D03*
%TD*%
D18*
%TO.C,D1*%
X23115000Y-88050001D03*
X26415000Y-88050001D03*
D19*
X20955000Y-88050001D03*
D20*
X28575000Y-88050001D03*
%TD*%
D18*
%TO.C,D2*%
X23115001Y-71050000D03*
X26415001Y-71050000D03*
D19*
X20955001Y-71050000D03*
D20*
X28575001Y-71050000D03*
%TD*%
D18*
%TO.C,D3*%
X23114999Y-54050001D03*
X26414999Y-54050001D03*
D19*
X20954999Y-54050001D03*
D20*
X28574999Y-54050001D03*
%TD*%
D18*
%TO.C,D4*%
X23115000Y-37050001D03*
X26415000Y-37050001D03*
D19*
X20955000Y-37050001D03*
D20*
X28575000Y-37050001D03*
%TD*%
D18*
%TO.C,D5*%
X42115001Y-88050001D03*
X45415001Y-88050001D03*
D19*
X39955001Y-88050001D03*
D20*
X47575001Y-88050001D03*
%TD*%
D18*
%TO.C,D6*%
X42115000Y-71050001D03*
X45415000Y-71050001D03*
D19*
X39955000Y-71050001D03*
D20*
X47575000Y-71050001D03*
%TD*%
D18*
%TO.C,D7*%
X42115000Y-54050000D03*
X45415000Y-54050000D03*
D19*
X39955000Y-54050000D03*
D20*
X47575000Y-54050000D03*
%TD*%
D18*
%TO.C,D8*%
X42115000Y-37050000D03*
X45415000Y-37050000D03*
D19*
X39955000Y-37050000D03*
D20*
X47575000Y-37050000D03*
%TD*%
D18*
%TO.C,D9*%
X61115000Y-83050002D03*
X64415000Y-83050002D03*
D19*
X58955000Y-83050002D03*
D20*
X66575000Y-83050002D03*
%TD*%
D18*
%TO.C,D10*%
X61115000Y-66050002D03*
X64415000Y-66050002D03*
D19*
X58955000Y-66050002D03*
D20*
X66575000Y-66050002D03*
%TD*%
D18*
%TO.C,D11*%
X61115000Y-49050002D03*
X64415000Y-49050002D03*
D19*
X58955000Y-49050002D03*
D20*
X66575000Y-49050002D03*
%TD*%
D18*
%TO.C,D12*%
X61115000Y-32050000D03*
X64415000Y-32050000D03*
D19*
X58955000Y-32050000D03*
D20*
X66575000Y-32050000D03*
%TD*%
D18*
%TO.C,D13*%
X80115000Y-78050000D03*
X83415000Y-78050000D03*
D19*
X77955000Y-78050000D03*
D20*
X85575000Y-78050000D03*
%TD*%
D18*
%TO.C,D14*%
X80114999Y-61050001D03*
X83414999Y-61050001D03*
D19*
X77954999Y-61050001D03*
D20*
X85574999Y-61050001D03*
%TD*%
D18*
%TO.C,D15*%
X80115001Y-44050000D03*
X83415001Y-44050000D03*
D19*
X77955001Y-44050000D03*
D20*
X85575001Y-44050000D03*
%TD*%
D18*
%TO.C,D16*%
X80115001Y-27050000D03*
X83415001Y-27050000D03*
D19*
X77955001Y-27050000D03*
D20*
X85575001Y-27050000D03*
%TD*%
D18*
%TO.C,D17*%
X99115000Y-84050000D03*
X102415000Y-84050000D03*
D19*
X96955000Y-84050000D03*
D20*
X104575000Y-84050000D03*
%TD*%
D18*
%TO.C,D18*%
X99115001Y-67050001D03*
X102415001Y-67050001D03*
D19*
X96955001Y-67050001D03*
D20*
X104575001Y-67050001D03*
%TD*%
D18*
%TO.C,D19*%
X99114999Y-50050001D03*
X102414999Y-50050001D03*
D19*
X96954999Y-50050001D03*
D20*
X104574999Y-50050001D03*
%TD*%
D18*
%TO.C,D20*%
X99115000Y-33050001D03*
X102415000Y-33050001D03*
D19*
X96955000Y-33050001D03*
D20*
X104575000Y-33050001D03*
%TD*%
D18*
%TO.C,D21*%
X118114999Y-86050002D03*
X121414999Y-86050002D03*
D19*
X115954999Y-86050002D03*
D20*
X123574999Y-86050002D03*
%TD*%
D18*
%TO.C,D22*%
X118115000Y-69050001D03*
X121415000Y-69050001D03*
D19*
X115955000Y-69050001D03*
D20*
X123575000Y-69050001D03*
%TD*%
D18*
%TO.C,D23*%
X118115000Y-52050000D03*
X121415000Y-52050000D03*
D19*
X115955000Y-52050000D03*
D20*
X123575000Y-52050000D03*
%TD*%
D18*
%TO.C,D24*%
X118115000Y-35050000D03*
X121415000Y-35050000D03*
D19*
X115955000Y-35050000D03*
D20*
X123575000Y-35050000D03*
%TD*%
D18*
%TO.C,D25*%
X98115000Y-106050000D03*
X101415000Y-106050000D03*
D19*
X95955000Y-106050000D03*
D20*
X103575000Y-106050000D03*
%TD*%
D18*
%TO.C,D26*%
X117115001Y-106050000D03*
X120415001Y-106050000D03*
D19*
X114955001Y-106050000D03*
D20*
X122575001Y-106050000D03*
%TD*%
D21*
%TO.C,D27*%
X135749840Y-114881311D03*
X138850826Y-116009977D03*
D22*
X133720104Y-114142547D03*
D20*
X140880562Y-116748741D03*
%TD*%
D21*
%TO.C,D28*%
X141564183Y-98906536D03*
X144665169Y-100035202D03*
D22*
X139534447Y-98167772D03*
D20*
X146694905Y-100773966D03*
%TD*%
D23*
%TO.C,D29*%
X153896586Y-123952667D03*
X156599788Y-125845469D03*
D24*
X152127218Y-122713742D03*
D20*
X158369156Y-127084394D03*
%TD*%
D25*
%TO.C,MCU1*%
X132145000Y-44080001D03*
X132145000Y-46620001D03*
X132145000Y-49160001D03*
X132145000Y-51700001D03*
X132145000Y-54240001D03*
X132145000Y-56780001D03*
X132145000Y-59320001D03*
X132145000Y-61860001D03*
X132145000Y-64400001D03*
X132145000Y-66940001D03*
X132145000Y-69480001D03*
X132145000Y-72020001D03*
X147385000Y-72020001D03*
X147385000Y-69480001D03*
X147385000Y-66940001D03*
X147385000Y-64400001D03*
X147385000Y-61860001D03*
X147385000Y-59320001D03*
X147385000Y-56780001D03*
X147385000Y-54240001D03*
X147385000Y-51700001D03*
X147385000Y-49160001D03*
X147385000Y-46620001D03*
X147385000Y-44080001D03*
D26*
X133923000Y-44080001D03*
D27*
X134939000Y-44080001D03*
D28*
X132145000Y-44080001D03*
D26*
X133923000Y-46620001D03*
D27*
X134939000Y-46620001D03*
D26*
X133923000Y-49160001D03*
D27*
X134939000Y-49160001D03*
D26*
X133923000Y-51700001D03*
D27*
X134939000Y-51700001D03*
D26*
X133923000Y-54240001D03*
D27*
X134939000Y-54240001D03*
D26*
X133923000Y-56780001D03*
D27*
X134939000Y-56780001D03*
D26*
X133923000Y-59320001D03*
D27*
X134939000Y-59320001D03*
D26*
X133923000Y-61860001D03*
D27*
X134939000Y-61860001D03*
D26*
X133923000Y-64400001D03*
D27*
X134939000Y-64400001D03*
D26*
X133923000Y-66940001D03*
D27*
X134939000Y-66940001D03*
D26*
X133923000Y-69480001D03*
D27*
X134939000Y-69480001D03*
D26*
X133923000Y-72020001D03*
D27*
X134939000Y-72020001D03*
D29*
X144591000Y-44080001D03*
X144591000Y-49160001D03*
D30*
X145607000Y-49160001D03*
X145607000Y-44080001D03*
D29*
X144591000Y-46620001D03*
X144591000Y-51700001D03*
D30*
X145607000Y-46620001D03*
X145607000Y-51700001D03*
D29*
X144591000Y-56780001D03*
X144591000Y-59320001D03*
D30*
X145607000Y-59320001D03*
D29*
X144591000Y-61860001D03*
X144591000Y-72020001D03*
D30*
X145607000Y-61860001D03*
X145607000Y-72020001D03*
D29*
X144591000Y-64400001D03*
D30*
X145607000Y-54240001D03*
X145607000Y-56780001D03*
X145607000Y-64400001D03*
D29*
X144591000Y-66940001D03*
D30*
X145607000Y-66940001D03*
X145607000Y-69480001D03*
D29*
X144591000Y-69480001D03*
X144591000Y-54240001D03*
%TD*%
D31*
%TO.C,OLED1*%
X134445000Y-75450001D03*
X136985000Y-75450001D03*
X139525000Y-75450001D03*
D32*
X142065000Y-75450001D03*
D31*
X144605000Y-75450001D03*
%TD*%
%TO.C,OLED2*%
X144585000Y-78650000D03*
X142045000Y-78650000D03*
X139505000Y-78650000D03*
D33*
X136965000Y-78650000D03*
D31*
X134425000Y-78650000D03*
%TD*%
D34*
%TO.C,PAD1*%
X151765000Y-53050002D03*
%TD*%
%TO.C,PAD2*%
X151765000Y-50050001D03*
%TD*%
D35*
%TO.C,J2*%
X143265000Y-80549621D03*
X143265000Y-81550381D03*
%TD*%
D36*
%TO.C,B1*%
X154115001Y-77950001D03*
X154115001Y-84150001D03*
X150415001Y-77950001D03*
X150415001Y-84150001D03*
%TD*%
M02*
