%TF.GenerationSoftware,KiCad,Pcbnew,(6.0.9-0)*%
%TF.CreationDate,2023-01-10T21:03:56-06:00*%
%TF.ProjectId,board,626f6172-642e-46b6-9963-61645f706362,v1.0.0*%
%TF.SameCoordinates,Original*%
%TF.FileFunction,Copper,L2,Bot*%
%TF.FilePolarity,Positive*%
%FSLAX46Y46*%
G04 Gerber Fmt 4.6, Leading zero omitted, Abs format (unit mm)*
G04 Created by KiCad (PCBNEW (6.0.9-0)) date 2023-01-10 21:03:56*
%MOMM*%
%LPD*%
G01*
G04 APERTURE LIST*
G04 Aperture macros list*
%AMRotRect*
0 Rectangle, with rotation*
0 The origin of the aperture is its center*
0 $1 length*
0 $2 width*
0 $3 Rotation angle, in degrees counterclockwise*
0 Add horizontal line*
21,1,$1,$2,0,0,$3*%
%AMFreePoly0*
4,1,5,0.125000,-0.500000,-0.125000,-0.500000,-0.125000,0.500000,0.125000,0.500000,0.125000,-0.500000,0.125000,-0.500000,$1*%
%AMFreePoly1*
4,1,6,0.600000,-0.250000,-0.600000,-0.250000,-0.600000,1.000000,0.000000,0.400000,0.600000,1.000000,0.600000,-0.250000,0.600000,-0.250000,$1*%
%AMFreePoly2*
4,1,6,0.600000,0.200000,0.000000,-0.400000,-0.600000,0.200000,-0.600000,0.400000,0.600000,0.400000,0.600000,0.200000,0.600000,0.200000,$1*%
%AMFreePoly3*
4,1,49,0.004773,0.123721,0.009154,0.124665,0.028961,0.117240,0.062500,0.108253,0.068237,0.102516,0.075053,0.099961,0.087617,0.083136,0.108253,0.062500,0.111178,0.051584,0.117161,0.043572,0.118539,0.024114,0.125000,0.000000,0.121239,-0.014035,0.122131,-0.026629,0.113759,-0.041951,0.108253,-0.062500,0.095644,-0.075109,0.088389,-0.088388,-0.641000,-0.817776,-0.641000,-4.770224,
0.088389,-5.499612,0.109852,-5.528356,0.124665,-5.597154,0.099961,-5.663053,0.043572,-5.705161,-0.026629,-5.710131,-0.088388,-5.676389,-0.854388,-4.910388,-0.867707,-4.892552,-0.871189,-4.889530,-0.871982,-4.886826,-0.875852,-4.881644,-0.882331,-4.851549,-0.891000,-4.822000,-0.891000,-0.766000,-0.887805,-0.743969,-0.888131,-0.739371,-0.886780,-0.736898,-0.885852,-0.730498,-0.869151,-0.704632,
-0.854388,-0.677612,-0.088388,0.088389,-0.064606,0.106147,-0.062500,0.108253,-0.061385,0.108552,-0.059644,0.109852,-0.043806,0.113262,0.000000,0.125000,0.004773,0.123721,0.004773,0.123721,$1*%
G04 Aperture macros list end*
%TA.AperFunction,SMDPad,CuDef*%
%ADD10R,2.600000X2.600000*%
%TD*%
%TA.AperFunction,SMDPad,CuDef*%
%ADD11RotRect,2.600000X2.600000X340.000000*%
%TD*%
%TA.AperFunction,SMDPad,CuDef*%
%ADD12RotRect,2.600000X2.600000X325.000000*%
%TD*%
%TA.AperFunction,SMDPad,CuDef*%
%ADD13R,0.900000X1.200000*%
%TD*%
%TA.AperFunction,ComponentPad*%
%ADD14R,1.778000X1.778000*%
%TD*%
%TA.AperFunction,ComponentPad*%
%ADD15C,1.905000*%
%TD*%
%TA.AperFunction,SMDPad,CuDef*%
%ADD16RotRect,0.900000X1.200000X340.000000*%
%TD*%
%TA.AperFunction,ComponentPad*%
%ADD17RotRect,1.778000X1.778000X340.000000*%
%TD*%
%TA.AperFunction,SMDPad,CuDef*%
%ADD18RotRect,0.900000X1.200000X325.000000*%
%TD*%
%TA.AperFunction,ComponentPad*%
%ADD19RotRect,1.778000X1.778000X325.000000*%
%TD*%
%TA.AperFunction,ComponentPad*%
%ADD20C,1.600000*%
%TD*%
%TA.AperFunction,ComponentPad*%
%ADD21R,1.600000X1.600000*%
%TD*%
%TA.AperFunction,SMDPad,CuDef*%
%ADD22FreePoly0,90.000000*%
%TD*%
%TA.AperFunction,SMDPad,CuDef*%
%ADD23FreePoly1,90.000000*%
%TD*%
%TA.AperFunction,SMDPad,CuDef*%
%ADD24FreePoly2,90.000000*%
%TD*%
%TA.AperFunction,SMDPad,CuDef*%
%ADD25FreePoly0,270.000000*%
%TD*%
%TA.AperFunction,SMDPad,CuDef*%
%ADD26FreePoly2,270.000000*%
%TD*%
%TA.AperFunction,SMDPad,CuDef*%
%ADD27FreePoly1,270.000000*%
%TD*%
%TA.AperFunction,SMDPad,CuDef*%
%ADD28FreePoly3,90.000000*%
%TD*%
%TA.AperFunction,SMDPad,CuDef*%
%ADD29FreePoly3,270.000000*%
%TD*%
%TA.AperFunction,ComponentPad*%
%ADD30C,0.800000*%
%TD*%
%TA.AperFunction,ComponentPad*%
%ADD31O,1.700000X1.700000*%
%TD*%
%TA.AperFunction,ComponentPad*%
%ADD32R,1.700000X1.700000*%
%TD*%
%TA.AperFunction,SMDPad,CuDef*%
%ADD33R,1.500000X1.500000*%
%TD*%
%TA.AperFunction,SMDPad,CuDef*%
%ADD34R,1.143000X0.635000*%
%TD*%
%TA.AperFunction,ViaPad*%
%ADD35C,0.800000*%
%TD*%
%TA.AperFunction,Conductor*%
%ADD36C,0.250000*%
%TD*%
G04 APERTURE END LIST*
D10*
%TO.P,S1,1*%
%TO.N,outer_bottom*%
X21490001Y-77100001D03*
%TO.P,S1,2*%
%TO.N,P20*%
X33040001Y-79300001D03*
%TD*%
%TO.P,S2,1*%
%TO.N,outer_home*%
X21490001Y-60100001D03*
%TO.P,S2,2*%
%TO.N,P20*%
X33040001Y-62300001D03*
%TD*%
%TO.P,S3,1*%
%TO.N,outer_top*%
X21490000Y-43100001D03*
%TO.P,S3,2*%
%TO.N,P20*%
X33040000Y-45300001D03*
%TD*%
%TO.P,S4,1*%
%TO.N,outer_num*%
X21490000Y-26100001D03*
%TO.P,S4,2*%
%TO.N,P20*%
X33040000Y-28300001D03*
%TD*%
%TO.P,S5,1*%
%TO.N,pinky_bottom*%
X40490000Y-77100001D03*
%TO.P,S5,2*%
%TO.N,P19*%
X52040000Y-79300001D03*
%TD*%
%TO.P,S6,1*%
%TO.N,pinky_home*%
X40490001Y-60100001D03*
%TO.P,S6,2*%
%TO.N,P19*%
X52040001Y-62300001D03*
%TD*%
%TO.P,S7,1*%
%TO.N,pinky_top*%
X40490000Y-43100002D03*
%TO.P,S7,2*%
%TO.N,P19*%
X52040000Y-45300002D03*
%TD*%
%TO.P,S8,1*%
%TO.N,pinky_num*%
X40490000Y-26100002D03*
%TO.P,S8,2*%
%TO.N,P19*%
X52040000Y-28300002D03*
%TD*%
%TO.P,S9,1*%
%TO.N,ring_bottom*%
X59490000Y-72100001D03*
%TO.P,S9,2*%
%TO.N,P18*%
X71040000Y-74300001D03*
%TD*%
%TO.P,S10,1*%
%TO.N,ring_home*%
X59490000Y-55100000D03*
%TO.P,S10,2*%
%TO.N,P18*%
X71040000Y-57300000D03*
%TD*%
%TO.P,S11,1*%
%TO.N,ring_top*%
X59490000Y-38100000D03*
%TO.P,S11,2*%
%TO.N,P18*%
X71040000Y-40300000D03*
%TD*%
%TO.P,S12,1*%
%TO.N,ring_num*%
X59490000Y-21100001D03*
%TO.P,S12,2*%
%TO.N,P18*%
X71040000Y-23300001D03*
%TD*%
%TO.P,S13,1*%
%TO.N,middle_bottom*%
X78490001Y-67100001D03*
%TO.P,S13,2*%
%TO.N,P15*%
X90040001Y-69300001D03*
%TD*%
%TO.P,S14,1*%
%TO.N,middle_home*%
X78490000Y-50100001D03*
%TO.P,S14,2*%
%TO.N,P15*%
X90040000Y-52300001D03*
%TD*%
%TO.P,S15,1*%
%TO.N,middle_top*%
X78490000Y-33100001D03*
%TO.P,S15,2*%
%TO.N,P15*%
X90040000Y-35300001D03*
%TD*%
%TO.P,S16,1*%
%TO.N,middle_num*%
X78489999Y-16100001D03*
%TO.P,S16,2*%
%TO.N,P15*%
X90039999Y-18300001D03*
%TD*%
%TO.P,S17,1*%
%TO.N,index_bottom*%
X97490000Y-73100000D03*
%TO.P,S17,2*%
%TO.N,P14*%
X109040000Y-75300000D03*
%TD*%
%TO.P,S18,1*%
%TO.N,index_home*%
X97490001Y-56100000D03*
%TO.P,S18,2*%
%TO.N,P14*%
X109040001Y-58300000D03*
%TD*%
%TO.P,S19,1*%
%TO.N,index_top*%
X97490000Y-39100000D03*
%TO.P,S19,2*%
%TO.N,P14*%
X109040000Y-41300000D03*
%TD*%
%TO.P,S20,1*%
%TO.N,index_num*%
X97490000Y-22100001D03*
%TO.P,S20,2*%
%TO.N,P14*%
X109040000Y-24300001D03*
%TD*%
%TO.P,S21,1*%
%TO.N,inner_bottom*%
X116490001Y-75100001D03*
%TO.P,S21,2*%
%TO.N,P16*%
X128040001Y-77300001D03*
%TD*%
%TO.P,S22,1*%
%TO.N,inner_home*%
X116490000Y-58100002D03*
%TO.P,S22,2*%
%TO.N,P16*%
X128040000Y-60300002D03*
%TD*%
%TO.P,S23,1*%
%TO.N,inner_top*%
X116489999Y-41100001D03*
%TO.P,S23,2*%
%TO.N,P16*%
X128039999Y-43300001D03*
%TD*%
%TO.P,S24,1*%
%TO.N,inner_num*%
X116490001Y-24100000D03*
%TO.P,S24,2*%
%TO.N,P16*%
X128040001Y-26300000D03*
%TD*%
%TO.P,S25,1*%
%TO.N,near1_home*%
X96490000Y-95100001D03*
%TO.P,S25,2*%
%TO.N,P20*%
X108040000Y-97300001D03*
%TD*%
%TO.P,S26,1*%
%TO.N,near2_home*%
X115490000Y-95100001D03*
%TO.P,S26,2*%
%TO.N,P19*%
X127040000Y-97300001D03*
%TD*%
D11*
%TO.P,S27,1*%
%TO.N,home_home*%
X137967961Y-104035893D03*
%TO.P,S27,2*%
%TO.N,P18*%
X148068966Y-110053549D03*
%TD*%
%TO.P,S28,1*%
%TO.N,home_top*%
X143782303Y-88061118D03*
%TO.P,S28,2*%
%TO.N,P15*%
X153883308Y-94078774D03*
%TD*%
D12*
%TO.P,S29,1*%
%TO.N,far_home*%
X158846126Y-114050891D03*
%TO.P,S29,2*%
%TO.N,P14*%
X167045464Y-122477833D03*
%TD*%
D13*
%TO.P,D1,2*%
%TO.N,outer_bottom*%
X26415000Y-88050001D03*
%TO.P,D1,1*%
%TO.N,P7*%
X23115000Y-88050001D03*
D14*
X20955000Y-88050001D03*
D15*
%TO.P,D1,2*%
%TO.N,outer_bottom*%
X28575000Y-88050001D03*
%TD*%
D13*
%TO.P,D2,2*%
%TO.N,outer_home*%
X26415001Y-71050000D03*
%TO.P,D2,1*%
%TO.N,P6*%
X23115001Y-71050000D03*
D14*
X20955001Y-71050000D03*
D15*
%TO.P,D2,2*%
%TO.N,outer_home*%
X28575001Y-71050000D03*
%TD*%
D13*
%TO.P,D3,2*%
%TO.N,outer_top*%
X26414999Y-54050001D03*
%TO.P,D3,1*%
%TO.N,P5*%
X23114999Y-54050001D03*
D14*
X20954999Y-54050001D03*
D15*
%TO.P,D3,2*%
%TO.N,outer_top*%
X28574999Y-54050001D03*
%TD*%
D13*
%TO.P,D4,2*%
%TO.N,outer_num*%
X26415000Y-37050001D03*
%TO.P,D4,1*%
%TO.N,P4*%
X23115000Y-37050001D03*
D14*
X20955000Y-37050001D03*
D15*
%TO.P,D4,2*%
%TO.N,outer_num*%
X28575000Y-37050001D03*
%TD*%
D13*
%TO.P,D5,2*%
%TO.N,pinky_bottom*%
X45415001Y-88050001D03*
%TO.P,D5,1*%
%TO.N,P7*%
X42115001Y-88050001D03*
D14*
X39955001Y-88050001D03*
D15*
%TO.P,D5,2*%
%TO.N,pinky_bottom*%
X47575001Y-88050001D03*
%TD*%
D13*
%TO.P,D6,2*%
%TO.N,pinky_home*%
X45415000Y-71050001D03*
%TO.P,D6,1*%
%TO.N,P6*%
X42115000Y-71050001D03*
D14*
X39955000Y-71050001D03*
D15*
%TO.P,D6,2*%
%TO.N,pinky_home*%
X47575000Y-71050001D03*
%TD*%
D13*
%TO.P,D7,2*%
%TO.N,pinky_top*%
X45415000Y-54050000D03*
%TO.P,D7,1*%
%TO.N,P5*%
X42115000Y-54050000D03*
D14*
X39955000Y-54050000D03*
D15*
%TO.P,D7,2*%
%TO.N,pinky_top*%
X47575000Y-54050000D03*
%TD*%
D13*
%TO.P,D8,2*%
%TO.N,pinky_num*%
X45415000Y-37050000D03*
%TO.P,D8,1*%
%TO.N,P4*%
X42115000Y-37050000D03*
D14*
X39955000Y-37050000D03*
D15*
%TO.P,D8,2*%
%TO.N,pinky_num*%
X47575000Y-37050000D03*
%TD*%
D13*
%TO.P,D9,2*%
%TO.N,ring_bottom*%
X64415000Y-83050002D03*
%TO.P,D9,1*%
%TO.N,P7*%
X61115000Y-83050002D03*
D14*
X58955000Y-83050002D03*
D15*
%TO.P,D9,2*%
%TO.N,ring_bottom*%
X66575000Y-83050002D03*
%TD*%
D13*
%TO.P,D10,2*%
%TO.N,ring_home*%
X64415000Y-66050002D03*
%TO.P,D10,1*%
%TO.N,P6*%
X61115000Y-66050002D03*
D14*
X58955000Y-66050002D03*
D15*
%TO.P,D10,2*%
%TO.N,ring_home*%
X66575000Y-66050002D03*
%TD*%
D13*
%TO.P,D11,2*%
%TO.N,ring_top*%
X64415000Y-49050002D03*
%TO.P,D11,1*%
%TO.N,P5*%
X61115000Y-49050002D03*
D14*
X58955000Y-49050002D03*
D15*
%TO.P,D11,2*%
%TO.N,ring_top*%
X66575000Y-49050002D03*
%TD*%
D13*
%TO.P,D12,2*%
%TO.N,ring_num*%
X64415000Y-32050000D03*
%TO.P,D12,1*%
%TO.N,P4*%
X61115000Y-32050000D03*
D14*
X58955000Y-32050000D03*
D15*
%TO.P,D12,2*%
%TO.N,ring_num*%
X66575000Y-32050000D03*
%TD*%
D13*
%TO.P,D13,2*%
%TO.N,middle_bottom*%
X83415000Y-78050000D03*
%TO.P,D13,1*%
%TO.N,P7*%
X80115000Y-78050000D03*
D14*
X77955000Y-78050000D03*
D15*
%TO.P,D13,2*%
%TO.N,middle_bottom*%
X85575000Y-78050000D03*
%TD*%
D13*
%TO.P,D14,2*%
%TO.N,middle_home*%
X83414999Y-61050001D03*
%TO.P,D14,1*%
%TO.N,P6*%
X80114999Y-61050001D03*
D14*
X77954999Y-61050001D03*
D15*
%TO.P,D14,2*%
%TO.N,middle_home*%
X85574999Y-61050001D03*
%TD*%
D13*
%TO.P,D15,2*%
%TO.N,middle_top*%
X83415001Y-44050000D03*
%TO.P,D15,1*%
%TO.N,P5*%
X80115001Y-44050000D03*
D14*
X77955001Y-44050000D03*
D15*
%TO.P,D15,2*%
%TO.N,middle_top*%
X85575001Y-44050000D03*
%TD*%
D13*
%TO.P,D16,2*%
%TO.N,middle_num*%
X83415001Y-27050000D03*
%TO.P,D16,1*%
%TO.N,P4*%
X80115001Y-27050000D03*
D14*
X77955001Y-27050000D03*
D15*
%TO.P,D16,2*%
%TO.N,middle_num*%
X85575001Y-27050000D03*
%TD*%
D13*
%TO.P,D17,2*%
%TO.N,index_bottom*%
X102415000Y-84050000D03*
%TO.P,D17,1*%
%TO.N,P7*%
X99115000Y-84050000D03*
D14*
X96955000Y-84050000D03*
D15*
%TO.P,D17,2*%
%TO.N,index_bottom*%
X104575000Y-84050000D03*
%TD*%
D13*
%TO.P,D18,2*%
%TO.N,index_home*%
X102415001Y-67050001D03*
%TO.P,D18,1*%
%TO.N,P6*%
X99115001Y-67050001D03*
D14*
X96955001Y-67050001D03*
D15*
%TO.P,D18,2*%
%TO.N,index_home*%
X104575001Y-67050001D03*
%TD*%
D13*
%TO.P,D19,2*%
%TO.N,index_top*%
X102414999Y-50050001D03*
%TO.P,D19,1*%
%TO.N,P5*%
X99114999Y-50050001D03*
D14*
X96954999Y-50050001D03*
D15*
%TO.P,D19,2*%
%TO.N,index_top*%
X104574999Y-50050001D03*
%TD*%
D13*
%TO.P,D20,2*%
%TO.N,index_num*%
X102415000Y-33050001D03*
%TO.P,D20,1*%
%TO.N,P4*%
X99115000Y-33050001D03*
D14*
X96955000Y-33050001D03*
D15*
%TO.P,D20,2*%
%TO.N,index_num*%
X104575000Y-33050001D03*
%TD*%
D13*
%TO.P,D21,2*%
%TO.N,inner_bottom*%
X121414999Y-86050002D03*
%TO.P,D21,1*%
%TO.N,P7*%
X118114999Y-86050002D03*
D14*
X115954999Y-86050002D03*
D15*
%TO.P,D21,2*%
%TO.N,inner_bottom*%
X123574999Y-86050002D03*
%TD*%
D13*
%TO.P,D22,2*%
%TO.N,inner_home*%
X121415000Y-69050001D03*
%TO.P,D22,1*%
%TO.N,P6*%
X118115000Y-69050001D03*
D14*
X115955000Y-69050001D03*
D15*
%TO.P,D22,2*%
%TO.N,inner_home*%
X123575000Y-69050001D03*
%TD*%
D13*
%TO.P,D23,2*%
%TO.N,inner_top*%
X121415000Y-52050000D03*
%TO.P,D23,1*%
%TO.N,P5*%
X118115000Y-52050000D03*
D14*
X115955000Y-52050000D03*
D15*
%TO.P,D23,2*%
%TO.N,inner_top*%
X123575000Y-52050000D03*
%TD*%
D13*
%TO.P,D24,2*%
%TO.N,inner_num*%
X121415000Y-35050000D03*
%TO.P,D24,1*%
%TO.N,P4*%
X118115000Y-35050000D03*
D14*
X115955000Y-35050000D03*
D15*
%TO.P,D24,2*%
%TO.N,inner_num*%
X123575000Y-35050000D03*
%TD*%
D13*
%TO.P,D25,2*%
%TO.N,near1_home*%
X101415000Y-106050000D03*
%TO.P,D25,1*%
%TO.N,P3*%
X98115000Y-106050000D03*
D14*
X95955000Y-106050000D03*
D15*
%TO.P,D25,2*%
%TO.N,near1_home*%
X103575000Y-106050000D03*
%TD*%
D13*
%TO.P,D26,2*%
%TO.N,near2_home*%
X120415001Y-106050000D03*
%TO.P,D26,1*%
%TO.N,P3*%
X117115001Y-106050000D03*
D14*
X114955001Y-106050000D03*
D15*
%TO.P,D26,2*%
%TO.N,near2_home*%
X122575001Y-106050000D03*
%TD*%
D16*
%TO.P,D27,2*%
%TO.N,home_home*%
X138850826Y-116009977D03*
%TO.P,D27,1*%
%TO.N,P3*%
X135749840Y-114881311D03*
D17*
X133720104Y-114142547D03*
D15*
%TO.P,D27,2*%
%TO.N,home_home*%
X140880562Y-116748741D03*
%TD*%
D16*
%TO.P,D28,2*%
%TO.N,home_top*%
X144665169Y-100035202D03*
%TO.P,D28,1*%
%TO.N,P3*%
X141564183Y-98906536D03*
D17*
X139534447Y-98167772D03*
D15*
%TO.P,D28,2*%
%TO.N,home_top*%
X146694905Y-100773966D03*
%TD*%
D18*
%TO.P,D29,2*%
%TO.N,far_home*%
X156599788Y-125845469D03*
%TO.P,D29,1*%
%TO.N,P3*%
X153896586Y-123952667D03*
D19*
X152127218Y-122713742D03*
D15*
%TO.P,D29,2*%
%TO.N,far_home*%
X158369156Y-127084394D03*
%TD*%
D20*
%TO.P,MCU1,*%
%TO.N,*%
X132145000Y-44080001D03*
X132145000Y-46620001D03*
X132145000Y-49160001D03*
X132145000Y-51700001D03*
X132145000Y-54240001D03*
X132145000Y-56780001D03*
X132145000Y-59320001D03*
X132145000Y-61860001D03*
X132145000Y-64400001D03*
X132145000Y-66940001D03*
X132145000Y-69480001D03*
X132145000Y-72020001D03*
X147385000Y-72020001D03*
X147385000Y-69480001D03*
X147385000Y-66940001D03*
X147385000Y-64400001D03*
X147385000Y-61860001D03*
X147385000Y-59320001D03*
X147385000Y-56780001D03*
X147385000Y-54240001D03*
X147385000Y-51700001D03*
X147385000Y-49160001D03*
X147385000Y-46620001D03*
X147385000Y-44080001D03*
D21*
X147385000Y-44080001D03*
D22*
X133415000Y-44080001D03*
D23*
%TO.P,MCU1,1*%
%TO.N,RAW*%
X134939000Y-44080001D03*
D24*
%TO.P,MCU1,*%
%TO.N,*%
X133923000Y-44080001D03*
D22*
X133415000Y-46620001D03*
D24*
X133923000Y-46620001D03*
D23*
%TO.P,MCU1,2*%
%TO.N,N/C*%
X134939000Y-46620001D03*
D22*
%TO.P,MCU1,*%
%TO.N,*%
X133415000Y-49160001D03*
D24*
X133923000Y-49160001D03*
D23*
%TO.P,MCU1,3*%
%TO.N,RST*%
X134939000Y-49160001D03*
D22*
%TO.P,MCU1,*%
%TO.N,*%
X133415000Y-51700001D03*
D24*
X133923000Y-51700001D03*
D23*
%TO.P,MCU1,4*%
%TO.N,VCC*%
X134939000Y-51700001D03*
D22*
%TO.P,MCU1,*%
%TO.N,*%
X133415000Y-54240001D03*
D24*
X133923000Y-54240001D03*
D23*
%TO.P,MCU1,5*%
%TO.N,P21*%
X134939000Y-54240001D03*
D22*
%TO.P,MCU1,*%
%TO.N,*%
X133415000Y-56780001D03*
D24*
X133923000Y-56780001D03*
D23*
%TO.P,MCU1,6*%
%TO.N,P20*%
X134939000Y-56780001D03*
D22*
%TO.P,MCU1,*%
%TO.N,*%
X133415000Y-59320001D03*
D24*
X133923000Y-59320001D03*
D23*
%TO.P,MCU1,7*%
%TO.N,P19*%
X134939000Y-59320001D03*
D22*
%TO.P,MCU1,*%
%TO.N,*%
X133415000Y-61860001D03*
D24*
X133923000Y-61860001D03*
D23*
%TO.P,MCU1,8*%
%TO.N,P18*%
X134939000Y-61860001D03*
D22*
%TO.P,MCU1,*%
%TO.N,*%
X133415000Y-64400001D03*
D24*
X133923000Y-64400001D03*
D23*
%TO.P,MCU1,9*%
%TO.N,P15*%
X134939000Y-64400001D03*
D22*
%TO.P,MCU1,*%
%TO.N,*%
X133415000Y-66940001D03*
D24*
X133923000Y-66940001D03*
D23*
%TO.P,MCU1,10*%
%TO.N,P14*%
X134939000Y-66940001D03*
D22*
%TO.P,MCU1,*%
%TO.N,*%
X133415000Y-69480001D03*
D24*
X133923000Y-69480001D03*
D23*
%TO.P,MCU1,11*%
%TO.N,P16*%
X134939000Y-69480001D03*
D22*
%TO.P,MCU1,*%
%TO.N,*%
X133415000Y-72020001D03*
D24*
X133923000Y-72020001D03*
D23*
%TO.P,MCU1,12*%
%TO.N,P10*%
X134939000Y-72020001D03*
D25*
%TO.P,MCU1,*%
%TO.N,*%
X146115000Y-44080001D03*
D26*
X145607000Y-44080001D03*
D27*
%TO.P,MCU1,24*%
%TO.N,P1*%
X144591000Y-44080001D03*
%TO.P,MCU1,23*%
%TO.N,P0*%
X144591000Y-46620001D03*
D25*
%TO.P,MCU1,*%
%TO.N,*%
X146115000Y-46620001D03*
D26*
X145607000Y-46620001D03*
D27*
%TO.P,MCU1,22*%
%TO.N,GND*%
X144591000Y-49160001D03*
D25*
%TO.P,MCU1,*%
%TO.N,*%
X146115000Y-49160001D03*
D26*
X145607000Y-49160001D03*
D27*
%TO.P,MCU1,21*%
%TO.N,GND*%
X144591000Y-51700001D03*
D25*
%TO.P,MCU1,*%
%TO.N,*%
X146115000Y-51700001D03*
D26*
X145607000Y-51700001D03*
D27*
%TO.P,MCU1,20*%
%TO.N,P2*%
X144591000Y-54240001D03*
D25*
%TO.P,MCU1,*%
%TO.N,*%
X146115000Y-54240001D03*
D26*
X145607000Y-54240001D03*
D27*
%TO.P,MCU1,19*%
%TO.N,P3*%
X144591000Y-56780001D03*
D25*
%TO.P,MCU1,*%
%TO.N,*%
X146115000Y-56780001D03*
D26*
X145607000Y-56780001D03*
D27*
%TO.P,MCU1,18*%
%TO.N,P4*%
X144591000Y-59320001D03*
D25*
%TO.P,MCU1,*%
%TO.N,*%
X146115000Y-59320001D03*
D26*
X145607000Y-59320001D03*
D27*
%TO.P,MCU1,17*%
%TO.N,P5*%
X144591000Y-61860001D03*
D25*
%TO.P,MCU1,*%
%TO.N,*%
X146115000Y-61860001D03*
D26*
X145607000Y-61860001D03*
D27*
%TO.P,MCU1,16*%
%TO.N,P6*%
X144591000Y-64400001D03*
D25*
%TO.P,MCU1,*%
%TO.N,*%
X146115000Y-64400001D03*
D26*
X145607000Y-64400001D03*
D27*
%TO.P,MCU1,15*%
%TO.N,P7*%
X144591000Y-66940001D03*
D25*
%TO.P,MCU1,*%
%TO.N,*%
X146115000Y-66940001D03*
D26*
X145607000Y-66940001D03*
D27*
%TO.P,MCU1,14*%
%TO.N,P8*%
X144591000Y-69480001D03*
D25*
%TO.P,MCU1,*%
%TO.N,*%
X146115000Y-69480001D03*
D26*
X145607000Y-69480001D03*
D27*
%TO.P,MCU1,13*%
%TO.N,P9*%
X144591000Y-72020001D03*
D25*
%TO.P,MCU1,*%
%TO.N,*%
X146115000Y-72020001D03*
D26*
X145607000Y-72020001D03*
D28*
%TO.P,MCU1,23*%
%TO.N,P0*%
X139003000Y-46620001D03*
D29*
%TO.P,MCU1,2*%
%TO.N,GND*%
X140527000Y-46620001D03*
D30*
X140527000Y-46620001D03*
%TO.P,MCU1,23*%
%TO.N,P0*%
X139003000Y-46620001D03*
%TO.P,MCU1,24*%
%TO.N,P1*%
X139003000Y-44080001D03*
%TO.P,MCU1,1*%
%TO.N,RAW*%
X140527000Y-44080001D03*
D28*
%TO.P,MCU1,24*%
%TO.N,P1*%
X139003000Y-44080001D03*
D29*
%TO.P,MCU1,1*%
%TO.N,RAW*%
X140527000Y-44080001D03*
D30*
%TO.P,MCU1,22*%
%TO.N,GND*%
X139003000Y-49160001D03*
%TO.P,MCU1,3*%
%TO.N,RST*%
X140527000Y-49160001D03*
D28*
%TO.P,MCU1,22*%
%TO.N,GND*%
X139003000Y-49160001D03*
D29*
%TO.P,MCU1,3*%
%TO.N,RST*%
X140527000Y-49160001D03*
D30*
%TO.P,MCU1,21*%
%TO.N,GND*%
X139003000Y-51700001D03*
%TO.P,MCU1,4*%
%TO.N,VCC*%
X140527000Y-51700001D03*
D28*
%TO.P,MCU1,21*%
%TO.N,GND*%
X139003000Y-51700001D03*
D29*
%TO.P,MCU1,4*%
%TO.N,VCC*%
X140527000Y-51700001D03*
D30*
%TO.P,MCU1,20*%
%TO.N,P2*%
X139003000Y-54240001D03*
%TO.P,MCU1,5*%
%TO.N,P21*%
X140527000Y-54240001D03*
D28*
%TO.P,MCU1,20*%
%TO.N,P2*%
X139003000Y-54240001D03*
D29*
%TO.P,MCU1,5*%
%TO.N,P21*%
X140527000Y-54240001D03*
D30*
%TO.P,MCU1,19*%
%TO.N,P3*%
X139003000Y-56780001D03*
%TO.P,MCU1,6*%
%TO.N,P20*%
X140527000Y-56780001D03*
D28*
%TO.P,MCU1,19*%
%TO.N,P3*%
X139003000Y-56780001D03*
D29*
%TO.P,MCU1,6*%
%TO.N,P20*%
X140527000Y-56780001D03*
D30*
%TO.P,MCU1,18*%
%TO.N,P4*%
X139003000Y-59320001D03*
%TO.P,MCU1,7*%
%TO.N,P19*%
X140527000Y-59320001D03*
D28*
%TO.P,MCU1,18*%
%TO.N,P4*%
X139003000Y-59320001D03*
D29*
%TO.P,MCU1,7*%
%TO.N,P19*%
X140527000Y-59320001D03*
D30*
%TO.P,MCU1,17*%
%TO.N,P5*%
X139003000Y-61860001D03*
%TO.P,MCU1,8*%
%TO.N,P18*%
X140527000Y-61860001D03*
D28*
%TO.P,MCU1,17*%
%TO.N,P5*%
X139003000Y-61860001D03*
D29*
%TO.P,MCU1,8*%
%TO.N,P18*%
X140527000Y-61860001D03*
D30*
%TO.P,MCU1,16*%
%TO.N,P6*%
X139003000Y-64400001D03*
%TO.P,MCU1,9*%
%TO.N,P15*%
X140527000Y-64400001D03*
D28*
%TO.P,MCU1,16*%
%TO.N,P6*%
X139003000Y-64400001D03*
D29*
%TO.P,MCU1,9*%
%TO.N,P15*%
X140527000Y-64400001D03*
D30*
%TO.P,MCU1,15*%
%TO.N,P7*%
X139003000Y-66940001D03*
%TO.P,MCU1,10*%
%TO.N,P14*%
X140527000Y-66940001D03*
D28*
%TO.P,MCU1,15*%
%TO.N,P7*%
X139003000Y-66940001D03*
D29*
%TO.P,MCU1,10*%
%TO.N,P14*%
X140527000Y-66940001D03*
D30*
%TO.P,MCU1,14*%
%TO.N,P8*%
X139003000Y-69480001D03*
%TO.P,MCU1,11*%
%TO.N,P16*%
X140527000Y-69480001D03*
D28*
%TO.P,MCU1,14*%
%TO.N,P8*%
X139003000Y-69480001D03*
D29*
%TO.P,MCU1,11*%
%TO.N,P16*%
X140527000Y-69480001D03*
D30*
%TO.P,MCU1,13*%
%TO.N,P9*%
X139003000Y-72020001D03*
%TO.P,MCU1,12*%
%TO.N,P10*%
X140527000Y-72020001D03*
D28*
%TO.P,MCU1,13*%
%TO.N,P9*%
X139003000Y-72020001D03*
D29*
%TO.P,MCU1,12*%
%TO.N,P10*%
X140527000Y-72020001D03*
%TD*%
D31*
%TO.P,OLED1,4*%
%TO.N,P0*%
X134445000Y-75450001D03*
%TO.P,OLED1,3*%
%TO.N,P2*%
X136985000Y-75450001D03*
%TO.P,OLED1,2*%
%TO.N,VCC*%
X139525000Y-75450001D03*
D32*
%TO.P,OLED1,1*%
%TO.N,GND*%
X142065000Y-75450001D03*
D31*
%TO.P,OLED1,0*%
%TO.N,P1*%
X144605000Y-75450001D03*
%TD*%
%TO.P,OLED2,4*%
%TO.N,P0*%
X144585000Y-78650000D03*
%TO.P,OLED2,3*%
%TO.N,P2*%
X142045000Y-78650000D03*
%TO.P,OLED2,2*%
%TO.N,VCC*%
X139505000Y-78650000D03*
D32*
%TO.P,OLED2,1*%
%TO.N,GND*%
X136965000Y-78650000D03*
D31*
%TO.P,OLED2,0*%
%TO.N,P1*%
X134425000Y-78650000D03*
%TD*%
D33*
%TO.P,PAD1,1*%
%TO.N,Bplus*%
X151765000Y-53050002D03*
%TD*%
%TO.P,PAD2,1*%
%TO.N,GND*%
X151765000Y-50050001D03*
%TD*%
D34*
%TO.P,J1,1*%
%TO.N,Bplus*%
X143265000Y-80549621D03*
%TO.P,J1,2*%
%TO.N,RAW*%
X143265000Y-81550381D03*
%TD*%
D35*
%TO.N,GND*%
X144761577Y-47964826D03*
%TO.N,P4*%
X128764500Y-57150000D03*
X128764500Y-54610000D03*
X34290000Y-39370000D03*
X53340000Y-36830000D03*
X72390000Y-30480000D03*
X91440000Y-30480000D03*
X110490000Y-34290000D03*
%TO.N,home_top*%
X147647405Y-93037405D03*
%TO.N,P16*%
X125730000Y-20320000D03*
%TO.N,P14*%
X109040000Y-24300001D03*
%TO.N,P15*%
X85090000Y-13970000D03*
%TO.N,P18*%
X68580000Y-17780000D03*
%TO.N,P19*%
X40640000Y-20320000D03*
%TO.N,P20*%
X27940000Y-21590000D03*
%TO.N,P14*%
X147320000Y-75475500D03*
X157480000Y-90170000D03*
X147320000Y-81280000D03*
X152400000Y-86360000D03*
%TO.N,P18*%
X148590000Y-107950000D03*
%TO.N,RST*%
X152400000Y-83820000D03*
X151854500Y-79036570D03*
%TO.N,P15*%
X144780000Y-85090000D03*
X148618276Y-75475500D03*
%TO.N,P18*%
X149860000Y-74999501D03*
X154940000Y-90170000D03*
%TO.N,P19*%
X133350000Y-100330000D03*
X132080000Y-93980000D03*
X129540000Y-88900000D03*
X130810000Y-68580000D03*
X118110000Y-97790000D03*
%TO.N,P20*%
X113030000Y-83820000D03*
X130810000Y-55880000D03*
X113030000Y-87630000D03*
X127000000Y-55880000D03*
X92710000Y-92710000D03*
%TO.N,P6*%
X34290000Y-71120000D03*
X53340000Y-71120000D03*
X72390000Y-67310000D03*
X91440000Y-64770000D03*
X110490000Y-68580000D03*
%TO.N,P5*%
X34290000Y-55880000D03*
X53340000Y-52070000D03*
X72390000Y-45720000D03*
X91440000Y-48260000D03*
X110490000Y-50800000D03*
%TO.N,P14*%
X163830000Y-110490000D03*
X110490000Y-88900000D03*
X152400000Y-107950000D03*
%TO.N,P16*%
X130810000Y-71120000D03*
%TO.N,P3*%
X152945500Y-68580000D03*
X149265499Y-77470000D03*
%TO.N,P0*%
X129540000Y-46990000D03*
%TO.N,GND*%
X153670000Y-49530000D03*
X154215500Y-54610000D03*
X152400000Y-77470000D03*
X154940000Y-81280000D03*
%TO.N,P1*%
X153670000Y-46990000D03*
X154761000Y-49530000D03*
X151130000Y-73550501D03*
%TO.N,P0*%
X140970000Y-81280000D03*
X140970000Y-81280000D03*
%TO.N,VCC*%
X155485500Y-74930000D03*
X148590000Y-50800000D03*
X153670000Y-45720000D03*
%TO.N,RST*%
X152400000Y-76200000D03*
X149860000Y-48260000D03*
%TD*%
D36*
%TO.N,GND*%
X144591000Y-49160001D02*
X144591000Y-51700001D01*
X144761577Y-47964826D02*
X144761577Y-48989424D01*
X144761577Y-48989424D02*
X144591000Y-49160001D01*
%TO.N,P4*%
X128764500Y-54610000D02*
X128764500Y-57150000D01*
%TO.N,outer_num*%
X28575000Y-37050001D02*
X26809999Y-37050001D01*
X21640001Y-31880003D02*
X21640001Y-26250002D01*
X26809999Y-37050001D02*
X21640001Y-31880003D01*
X21640001Y-26250002D02*
X21490000Y-26100001D01*
%TO.N,outer_top*%
X28574999Y-54050001D02*
X26809999Y-54050001D01*
X26809999Y-54050001D02*
X22675499Y-49915501D01*
X22675499Y-49915501D02*
X22675499Y-44285500D01*
X22675499Y-44285500D02*
X21490000Y-43100001D01*
%TO.N,outer_home*%
X28575001Y-71050000D02*
X26809999Y-71050000D01*
X22675500Y-66915501D02*
X22675500Y-61285500D01*
X26809999Y-71050000D02*
X22675500Y-66915501D01*
X22675500Y-61285500D02*
X21490001Y-60100001D01*
%TO.N,outer_bottom*%
X28575000Y-88050001D02*
X26810000Y-88050001D01*
X26810000Y-88050001D02*
X22675500Y-83915501D01*
X22675500Y-83915501D02*
X22675500Y-78285500D01*
X22675500Y-78285500D02*
X21490001Y-77100001D01*
%TO.N,pinky_num*%
X47575000Y-37050000D02*
X45809997Y-37050000D01*
X45809997Y-37050000D02*
X40640001Y-31880004D01*
X40640001Y-26250003D02*
X40490000Y-26100002D01*
X40640001Y-31880004D02*
X40640001Y-26250003D01*
%TO.N,pinky_top*%
X47575000Y-54050000D02*
X45809997Y-54050000D01*
X45809997Y-54050000D02*
X40640000Y-48880003D01*
X40640000Y-48880003D02*
X40640000Y-43250002D01*
X40640000Y-43250002D02*
X40490000Y-43100002D01*
%TO.N,pinky_home*%
X47575000Y-71050001D02*
X45810000Y-71050001D01*
X45810000Y-71050001D02*
X40640000Y-65880001D01*
X40640000Y-65880001D02*
X40640000Y-60250000D01*
X40640000Y-60250000D02*
X40490001Y-60100001D01*
%TO.N,pinky_bottom*%
X47575001Y-88050001D02*
X45809999Y-88050001D01*
X45809999Y-88050001D02*
X40640000Y-82880002D01*
X40640000Y-82880002D02*
X40640000Y-77250001D01*
X40640000Y-77250001D02*
X40490000Y-77100001D01*
%TO.N,ring_num*%
X66575000Y-32050000D02*
X64809998Y-32050000D01*
X64809998Y-32050000D02*
X59640001Y-26880003D01*
X59640001Y-26880003D02*
X59640001Y-21250002D01*
X59640001Y-21250002D02*
X59490000Y-21100001D01*
%TO.N,ring_top*%
X66575000Y-49050002D02*
X64810001Y-49050002D01*
X64810001Y-49050002D02*
X59690000Y-43930001D01*
X59690000Y-38300000D02*
X59490000Y-38100000D01*
X59690000Y-43930001D02*
X59690000Y-38300000D01*
%TO.N,ring_home*%
X66575000Y-66050002D02*
X64810001Y-66050002D01*
X64810001Y-66050002D02*
X59640001Y-60880002D01*
X59640001Y-60880002D02*
X59640001Y-55250001D01*
X59640001Y-55250001D02*
X59490000Y-55100000D01*
%TO.N,ring_bottom*%
X66575000Y-83050002D02*
X64810000Y-83050002D01*
X64810000Y-83050002D02*
X59690000Y-77930002D01*
X59690000Y-77930002D02*
X59690000Y-72300001D01*
X59690000Y-72300001D02*
X59490000Y-72100001D01*
%TO.N,middle_num*%
X85575001Y-27050000D02*
X83809997Y-27050000D01*
X83809997Y-27050000D02*
X78740000Y-21980003D01*
X78740000Y-21980003D02*
X78740000Y-16350002D01*
X78740000Y-16350002D02*
X78489999Y-16100001D01*
%TO.N,middle_top*%
X85575001Y-44050000D02*
X83809998Y-44050000D01*
X83809998Y-44050000D02*
X78740000Y-38980002D01*
X78740000Y-38980002D02*
X78740000Y-33350001D01*
X78740000Y-33350001D02*
X78490000Y-33100001D01*
%TO.N,middle_home*%
X85574999Y-61050001D02*
X83809999Y-61050001D01*
X83809999Y-61050001D02*
X78740000Y-55980002D01*
X78740000Y-55980002D02*
X78740000Y-50350001D01*
X78740000Y-50350001D02*
X78490000Y-50100001D01*
%TO.N,middle_bottom*%
X85575000Y-78050000D02*
X83809999Y-78050000D01*
X78740000Y-67350000D02*
X78490001Y-67100001D01*
X83809999Y-78050000D02*
X78740000Y-72980001D01*
X78740000Y-72980001D02*
X78740000Y-67350000D01*
%TO.N,index_num*%
X104575000Y-33050001D02*
X102809999Y-33050001D01*
X102809999Y-33050001D02*
X98675499Y-28915501D01*
X98675499Y-28915501D02*
X98675499Y-23285500D01*
X98675499Y-23285500D02*
X97490000Y-22100001D01*
%TO.N,index_top*%
X104574999Y-50050001D02*
X102810000Y-50050001D01*
X102810000Y-50050001D02*
X97640001Y-44880002D01*
X97640001Y-39250001D02*
X97490000Y-39100000D01*
X97640001Y-44880002D02*
X97640001Y-39250001D01*
%TO.N,index_home*%
X104575001Y-67050001D02*
X101340001Y-67050001D01*
X101340001Y-67050001D02*
X97640002Y-63350002D01*
X97640002Y-63350002D02*
X97640002Y-56250001D01*
X97640002Y-56250001D02*
X97490001Y-56100000D01*
%TO.N,index_bottom*%
X104575000Y-84050000D02*
X102809999Y-84050000D01*
X102809999Y-84050000D02*
X97640001Y-78880002D01*
X97640001Y-78880002D02*
X97640001Y-73250001D01*
X97640001Y-73250001D02*
X97490000Y-73100000D01*
%TO.N,P4*%
X36610000Y-37050000D02*
X34290000Y-39370000D01*
X39955000Y-37050000D02*
X36610000Y-37050000D01*
X58955000Y-32050000D02*
X58120000Y-32050000D01*
X58120000Y-32050000D02*
X53340000Y-36830000D01*
X75820000Y-27050000D02*
X72390000Y-30480000D01*
X77955001Y-27050000D02*
X75820000Y-27050000D01*
X93980000Y-30480000D02*
X91440000Y-30480000D01*
X96520000Y-33020000D02*
X93980000Y-30480000D01*
X96955000Y-33050001D02*
X96550001Y-33050001D01*
X96550001Y-33050001D02*
X96520000Y-33020000D01*
X111250000Y-35050000D02*
X110490000Y-34290000D01*
X115955000Y-35050000D02*
X111250000Y-35050000D01*
%TO.N,inner_num*%
X121415000Y-35050000D02*
X116640002Y-30275002D01*
X116640002Y-30275002D02*
X116640002Y-24250001D01*
X116640002Y-24250001D02*
X116490001Y-24100000D01*
X123575000Y-35050000D02*
X121415000Y-35050000D01*
%TO.N,inner_top*%
X123575000Y-52050000D02*
X121809997Y-52050000D01*
X121809997Y-52050000D02*
X116840000Y-47080003D01*
X116840000Y-47080003D02*
X116840000Y-41450002D01*
X116840000Y-41450002D02*
X116489999Y-41100001D01*
X121940000Y-52050000D02*
X121920000Y-52070000D01*
X123575000Y-52050000D02*
X121940000Y-52050000D01*
X121920000Y-52070000D02*
X121435000Y-52070000D01*
X121435000Y-52070000D02*
X121415000Y-52050000D01*
%TO.N,inner_home*%
X123575000Y-69050001D02*
X121809998Y-69050001D01*
X116840000Y-64080003D02*
X116840000Y-58450002D01*
X116840000Y-58450002D02*
X116490000Y-58100002D01*
X121809998Y-69050001D02*
X116840000Y-64080003D01*
%TO.N,inner_bottom*%
X123574999Y-86050002D02*
X121810001Y-86050002D01*
X121810001Y-86050002D02*
X116840000Y-81080001D01*
X116840000Y-81080001D02*
X116840000Y-75450000D01*
X116840000Y-75450000D02*
X116490001Y-75100001D01*
X123574999Y-86050002D02*
X121414999Y-86050002D01*
%TO.N,near1_home*%
X103575000Y-106050000D02*
X101809998Y-106050000D01*
X96640001Y-100880003D02*
X96640001Y-95250002D01*
X101809998Y-106050000D02*
X96640001Y-100880003D01*
X96640001Y-95250002D02*
X96490000Y-95100001D01*
X103575000Y-106050000D02*
X101415000Y-106050000D01*
%TO.N,near2_home*%
X122575001Y-106050000D02*
X120809998Y-106050000D01*
X115640001Y-95250002D02*
X115490000Y-95100001D01*
X120809998Y-106050000D02*
X115640001Y-100880003D01*
X115640001Y-100880003D02*
X115640001Y-95250002D01*
%TO.N,home_top*%
X146694905Y-100773966D02*
X147647405Y-99821466D01*
X147647405Y-99821466D02*
X147647405Y-93037405D01*
X147647405Y-93037405D02*
X143782303Y-89172303D01*
X143782303Y-89172303D02*
X143782303Y-88061118D01*
%TO.N,P3*%
X158750000Y-104140000D02*
X156210000Y-106680000D01*
X156210000Y-106680000D02*
X149860000Y-113030000D01*
X139534447Y-98167772D02*
X142966675Y-101600000D01*
X151316396Y-106230000D02*
X151766396Y-106680000D01*
X142966675Y-101600000D02*
X143510000Y-101600000D01*
X143510000Y-101600000D02*
X143961466Y-102051466D01*
X143961466Y-102051466D02*
X144597862Y-102051466D01*
X144597862Y-102051466D02*
X148776396Y-106230000D01*
X148776396Y-106230000D02*
X151316396Y-106230000D01*
X151766396Y-106680000D02*
X156210000Y-106680000D01*
%TO.N,far_home*%
X158369156Y-127084394D02*
X160205570Y-125247980D01*
X160205570Y-125247980D02*
X160205570Y-118295570D01*
X160205570Y-118295570D02*
X158846126Y-116936126D01*
X158846126Y-116936126D02*
X158846126Y-114050891D01*
%TO.N,home_home*%
X138850826Y-116009977D02*
X140141798Y-116009977D01*
X140141798Y-116009977D02*
X140880562Y-116748741D01*
X137967961Y-104035893D02*
X137967961Y-106749706D01*
X137967961Y-106749706D02*
X142240000Y-111021745D01*
X142240000Y-111021745D02*
X142240000Y-115389303D01*
X142240000Y-115389303D02*
X140880562Y-116748741D01*
%TO.N,P16*%
X125730000Y-20320000D02*
X128040001Y-22630001D01*
X128040001Y-22630001D02*
X128040001Y-26300000D01*
%TO.N,P15*%
X85090000Y-13970000D02*
X85709998Y-13970000D01*
X85709998Y-13970000D02*
X90039999Y-18300001D01*
%TO.N,P18*%
X68580000Y-17780000D02*
X71040000Y-20240000D01*
X71040000Y-20240000D02*
X71040000Y-23300001D01*
%TO.N,P19*%
X40640000Y-20320000D02*
X50800000Y-20320000D01*
X50800000Y-20320000D02*
X52040000Y-21560000D01*
X52040000Y-21560000D02*
X52040000Y-28300002D01*
%TO.N,P20*%
X33040000Y-28300001D02*
X33040000Y-26690000D01*
X33040000Y-26690000D02*
X27940000Y-21590000D01*
%TO.N,P14*%
X157480000Y-90170000D02*
X153670000Y-86360000D01*
X153670000Y-86360000D02*
X152400000Y-86360000D01*
X147320000Y-81280000D02*
X147320000Y-75475500D01*
%TO.N,P18*%
X148068966Y-110053549D02*
X148068966Y-108471034D01*
X148068966Y-108471034D02*
X148590000Y-107950000D01*
%TO.N,P15*%
X153883308Y-91653308D02*
X147320000Y-85090000D01*
X153883308Y-94078774D02*
X153883308Y-91653308D01*
X147320000Y-85090000D02*
X144780000Y-85090000D01*
%TO.N,RST*%
X151854500Y-79036570D02*
X152400000Y-79582070D01*
X152400000Y-79582070D02*
X152400000Y-83820000D01*
%TO.N,P15*%
X144780000Y-85090000D02*
X146050000Y-83820000D01*
X148140000Y-75953776D02*
X148618276Y-75475500D01*
X146050000Y-83820000D02*
X147320000Y-83820000D01*
X147320000Y-83820000D02*
X148140000Y-83000000D01*
X148140000Y-82550000D02*
X148140000Y-75953776D01*
X148140000Y-83000000D02*
X148140000Y-82550000D01*
%TO.N,P18*%
X149929501Y-74930000D02*
X149860000Y-74999501D01*
X151130000Y-74930000D02*
X149929501Y-74930000D01*
X151130000Y-86360000D02*
X151130000Y-74930000D01*
X154940000Y-90170000D02*
X151130000Y-86360000D01*
%TO.N,P1*%
X155760000Y-73660000D02*
X155760000Y-50529000D01*
X151130000Y-73550501D02*
X151239499Y-73660000D01*
X151239499Y-73660000D02*
X155760000Y-73660000D01*
X155760000Y-50529000D02*
X154761000Y-49530000D01*
%TO.N,P3*%
X149265499Y-77470000D02*
X148590000Y-78145499D01*
X148590000Y-78145499D02*
X148590000Y-85090000D01*
X148590000Y-85090000D02*
X154940000Y-91440000D01*
X154940000Y-91440000D02*
X156210000Y-91440000D01*
X156210000Y-91440000D02*
X158750000Y-93980000D01*
X158750000Y-93980000D02*
X158750000Y-104140000D01*
X149860000Y-113030000D02*
X149860000Y-121920000D01*
X149860000Y-121920000D02*
X150653742Y-122713742D01*
X150653742Y-122713742D02*
X152127218Y-122713742D01*
%TO.N,P19*%
X130810000Y-68580000D02*
X130810000Y-58420000D01*
X130320001Y-97300001D02*
X133350000Y-100330000D01*
X132080000Y-93980000D02*
X129540000Y-91440000D01*
X127040000Y-97300001D02*
X130320001Y-97300001D01*
X129540000Y-91440000D02*
X129540000Y-88900000D01*
X130810000Y-58420000D02*
X131034999Y-58195001D01*
X133814000Y-58195001D02*
X134939000Y-59320001D01*
X131034999Y-58195001D02*
X133814000Y-58195001D01*
X122988349Y-99175002D02*
X125164999Y-99175002D01*
X118110000Y-97790000D02*
X121603347Y-97790000D01*
X121603347Y-97790000D02*
X122988349Y-99175002D01*
X125164999Y-99175002D02*
X127040000Y-97300001D01*
%TO.N,P20*%
X104140000Y-92710000D02*
X109220000Y-87630000D01*
X92710000Y-92710000D02*
X104140000Y-92710000D01*
X130810000Y-55880000D02*
X131034999Y-55655001D01*
X111760000Y-70875305D02*
X109490000Y-68605305D01*
X109220000Y-87630000D02*
X113030000Y-87630000D01*
X109490000Y-68605305D02*
X109490000Y-61850002D01*
X111760000Y-82550000D02*
X111760000Y-70875305D01*
X109490000Y-61850002D02*
X115460002Y-55880000D01*
X115460002Y-55880000D02*
X127000000Y-55880000D01*
X113030000Y-83820000D02*
X111760000Y-82550000D01*
X131034999Y-55655001D02*
X133814000Y-55655001D01*
X133814000Y-55655001D02*
X134939000Y-56780001D01*
X103449999Y-92710000D02*
X108040000Y-97300001D01*
X92710000Y-92710000D02*
X103449999Y-92710000D01*
%TO.N,P7*%
X20955000Y-88050001D02*
X23115000Y-88050001D01*
X36565002Y-91440000D02*
X24130000Y-91440000D01*
X39955001Y-88050001D02*
X36565002Y-91440000D01*
X24130000Y-91440000D02*
X20955000Y-88265000D01*
X20955000Y-88265000D02*
X20955000Y-88050001D01*
X39955001Y-88050001D02*
X42115001Y-88050001D01*
X58955000Y-84555000D02*
X52070000Y-91440000D01*
X58955000Y-83050002D02*
X58955000Y-84555000D01*
X52070000Y-91440000D02*
X43345000Y-91440000D01*
X43345000Y-91440000D02*
X39955001Y-88050001D01*
X58955000Y-83050002D02*
X61115000Y-83050002D01*
X77955000Y-82065000D02*
X73660000Y-86360000D01*
X77955000Y-78050000D02*
X77955000Y-82065000D01*
X73660000Y-86360000D02*
X62264998Y-86360000D01*
X62264998Y-86360000D02*
X58955000Y-83050002D01*
X77955000Y-78050000D02*
X80115000Y-78050000D01*
X96955000Y-84050000D02*
X83955000Y-84050000D01*
X83955000Y-84050000D02*
X77955000Y-78050000D01*
X96955000Y-84050000D02*
X99115000Y-84050000D01*
X115954999Y-86050002D02*
X98955002Y-86050002D01*
X98955002Y-86050002D02*
X96955000Y-84050000D01*
%TO.N,P6*%
X34359999Y-71050001D02*
X34290000Y-71120000D01*
X39955000Y-71050001D02*
X34359999Y-71050001D01*
X58409998Y-66050002D02*
X53340000Y-71120000D01*
X58955000Y-66050002D02*
X58409998Y-66050002D01*
X77954999Y-61745001D02*
X72390000Y-67310000D01*
X77954999Y-61050001D02*
X77954999Y-61745001D01*
X93720001Y-67050001D02*
X91440000Y-64770000D01*
X96955001Y-67050001D02*
X93720001Y-67050001D01*
X110960001Y-69050001D02*
X110490000Y-68580000D01*
X115955000Y-69050001D02*
X110960001Y-69050001D01*
%TO.N,P5*%
X36120000Y-54050000D02*
X34290000Y-55880000D01*
X39955000Y-54050000D02*
X36120000Y-54050000D01*
X58955000Y-49050002D02*
X56359998Y-49050002D01*
X56359998Y-49050002D02*
X53340000Y-52070000D01*
X74060000Y-44050000D02*
X72390000Y-45720000D01*
X77955001Y-44050000D02*
X74060000Y-44050000D01*
X93230001Y-50050001D02*
X91440000Y-48260000D01*
X96954999Y-50050001D02*
X93230001Y-50050001D01*
X111740000Y-52050000D02*
X110490000Y-50800000D01*
X115955000Y-52050000D02*
X111740000Y-52050000D01*
%TO.N,P14*%
X167045464Y-113705464D02*
X165100000Y-111760000D01*
X165100000Y-111760000D02*
X163830000Y-110490000D01*
X167045464Y-122477833D02*
X167045464Y-113705464D01*
X138430000Y-100330000D02*
X139700000Y-101600000D01*
X110490000Y-88900000D02*
X113030000Y-91440000D01*
X132080000Y-95250000D02*
X133350000Y-96520000D01*
X133350000Y-99060000D02*
X134620000Y-100330000D01*
X147320000Y-105410000D02*
X148590000Y-106680000D01*
X151130000Y-106680000D02*
X152400000Y-107950000D01*
X143510000Y-102870000D02*
X144780000Y-102870000D01*
X144780000Y-102870000D02*
X147320000Y-105410000D01*
X135890000Y-100330000D02*
X138430000Y-100330000D01*
X133350000Y-96520000D02*
X133350000Y-99060000D01*
X134620000Y-100330000D02*
X135890000Y-100330000D01*
X128270000Y-91440000D02*
X132080000Y-95250000D01*
X139700000Y-101600000D02*
X140970000Y-102870000D01*
X148590000Y-106680000D02*
X151130000Y-106680000D01*
X113030000Y-91440000D02*
X128270000Y-91440000D01*
X140970000Y-102870000D02*
X143510000Y-102870000D01*
%TO.N,P16*%
X128039999Y-43300001D02*
X128039999Y-26300002D01*
X128039999Y-26300002D02*
X128040001Y-26300000D01*
X128040000Y-60300002D02*
X128039999Y-43300001D01*
X128040001Y-77300001D02*
X128040000Y-60300002D01*
%TO.N,P14*%
X109040000Y-75300000D02*
X109040001Y-58300000D01*
%TO.N,P15*%
X90040000Y-35300001D02*
X90039999Y-18300001D01*
X90040000Y-52300001D02*
X90040000Y-35300001D01*
%TO.N,P16*%
X130810000Y-71120000D02*
X131324999Y-70605001D01*
X131324999Y-70605001D02*
X133814000Y-70605001D01*
X133814000Y-70605001D02*
X134939000Y-69480001D01*
%TO.N,P14*%
X109040000Y-41300000D02*
X109040000Y-24300001D01*
X109040001Y-58300000D02*
X109040000Y-41300000D01*
%TO.N,P15*%
X90040001Y-69300001D02*
X90040000Y-52300001D01*
%TO.N,P18*%
X71040000Y-40300000D02*
X71040000Y-23300001D01*
X71040000Y-57300000D02*
X71040000Y-40300000D01*
X71040000Y-74300001D02*
X71040000Y-57300000D01*
%TO.N,P19*%
X52040001Y-62300001D02*
X52040000Y-79300001D01*
X52040000Y-45300002D02*
X52040001Y-62300001D01*
X52040000Y-28300002D02*
X52040000Y-45300002D01*
%TO.N,P20*%
X33040000Y-45300001D02*
X33040000Y-28300001D01*
X33040001Y-62300001D02*
X33040000Y-45300001D01*
X33040001Y-79300001D02*
X33040001Y-62300001D01*
%TO.N,P3*%
X98115000Y-106050000D02*
X95955000Y-106050000D01*
X114955001Y-106050000D02*
X113677501Y-107327500D01*
X113677501Y-107327500D02*
X99392500Y-107327500D01*
X99392500Y-107327500D02*
X98115000Y-106050000D01*
X117115001Y-106050000D02*
X114955001Y-106050000D01*
X133720104Y-114142547D02*
X125207548Y-114142547D01*
X125207548Y-114142547D02*
X117115001Y-106050000D01*
X135749840Y-114881311D02*
X134458868Y-114881311D01*
X134458868Y-114881311D02*
X133720104Y-114142547D01*
X152127218Y-122713742D02*
X143582271Y-122713742D01*
X143582271Y-122713742D02*
X135749840Y-114881311D01*
X152127218Y-122713742D02*
X152657661Y-122713742D01*
X152657661Y-122713742D02*
X153896586Y-123952667D01*
X153220000Y-68305500D02*
X152945500Y-68580000D01*
X144591000Y-56780001D02*
X146006000Y-58195001D01*
X148814999Y-58195001D02*
X151130000Y-55880000D01*
X147095001Y-58195001D02*
X148814999Y-58195001D01*
X153220000Y-58420000D02*
X153220000Y-68305500D01*
X153220000Y-56700000D02*
X153220000Y-58420000D01*
X152400000Y-55880000D02*
X153220000Y-56700000D01*
X146006000Y-58195001D02*
X147095001Y-58195001D01*
X151130000Y-55880000D02*
X152400000Y-55880000D01*
%TO.N,P2*%
X136985000Y-75450001D02*
X138775001Y-73660000D01*
X153670000Y-55880000D02*
X153155001Y-55365001D01*
X138775001Y-73660000D02*
X149860000Y-73660000D01*
X145716000Y-55365001D02*
X144591000Y-54240001D01*
X149860000Y-73660000D02*
X153670000Y-69850000D01*
X153670000Y-69850000D02*
X153670000Y-55880000D01*
X153155001Y-55365001D02*
X145716000Y-55365001D01*
%TO.N,P0*%
X129665000Y-47115000D02*
X129540000Y-46990000D01*
X129665000Y-73535000D02*
X129665000Y-47115000D01*
X129540000Y-73660000D02*
X129665000Y-73535000D01*
X134445000Y-75450001D02*
X132654999Y-73660000D01*
X132654999Y-73660000D02*
X129540000Y-73660000D01*
%TO.N,GND*%
X153670000Y-49530000D02*
X152285001Y-49530000D01*
X152285001Y-49530000D02*
X151765000Y-50050001D01*
X154215500Y-54610000D02*
X154215500Y-51345500D01*
X154215500Y-51345500D02*
X152920001Y-50050001D01*
X152920001Y-50050001D02*
X151765000Y-50050001D01*
X154940000Y-80010000D02*
X152400000Y-77470000D01*
X154940000Y-81280000D02*
X154940000Y-80010000D01*
%TO.N,P1*%
X154940000Y-40640000D02*
X154940000Y-45720000D01*
X154940000Y-45720000D02*
X153670000Y-46990000D01*
X144591000Y-44080001D02*
X144591000Y-43369000D01*
X147320000Y-40640000D02*
X154940000Y-40640000D01*
X144591000Y-43369000D02*
X147320000Y-40640000D01*
%TO.N,P0*%
X142240000Y-82550000D02*
X144780000Y-82550000D01*
X140970000Y-81280000D02*
X142240000Y-82550000D01*
X144780000Y-82550000D02*
X144585000Y-82355000D01*
X144585000Y-82355000D02*
X144585000Y-78650000D01*
%TO.N,GND*%
X136965000Y-78650000D02*
X138140000Y-79825000D01*
X138140000Y-79825000D02*
X139991701Y-79825000D01*
X140870000Y-78946701D02*
X140870000Y-76645001D01*
X139991701Y-79825000D02*
X140870000Y-78946701D01*
X140870000Y-76645001D02*
X142065000Y-75450001D01*
%TO.N,VCC*%
X139525000Y-75450001D02*
X139525000Y-78630000D01*
X139525000Y-78630000D02*
X139505000Y-78650000D01*
X148590000Y-48260000D02*
X151130000Y-45720000D01*
X148590000Y-50800000D02*
X148590000Y-48260000D01*
X151130000Y-45720000D02*
X153670000Y-45720000D01*
X155485500Y-74930000D02*
X154830501Y-74275001D01*
X154830501Y-74275001D02*
X140700000Y-74275001D01*
X140700000Y-74275001D02*
X139525000Y-75450001D01*
%TO.N,RST*%
X149860000Y-48260000D02*
X156210000Y-48260000D01*
X156210000Y-76200000D02*
X152400000Y-76200000D01*
X156210000Y-48260000D02*
X156210000Y-76200000D01*
%TD*%
M02*
