M48
; DRILL file {KiCad (6.0.9-0)} date Tuesday, January 10, 2023 at 09:03:54 PM
; FORMAT={-:-/ absolute / inch / decimal}
; #@! TF.CreationDate,2023-01-10T21:03:54-06:00
; #@! TF.GenerationSoftware,Kicad,Pcbnew,(6.0.9-0)
; #@! TF.FileFunction,Plated,1,2,PTH
FMAT,2
INCH
; #@! TA.AperFunction,Plated,PTH,ViaDrill
T1C0.0157
; #@! TA.AperFunction,Plated,PTH,ComponentDrill
T2C0.0157
; #@! TA.AperFunction,Plated,PTH,ComponentDrill
T3C0.0390
; #@! TA.AperFunction,Plated,PTH,ComponentDrill
T4C0.0394
; #@! TA.AperFunction,Plated,PTH,ComponentDrill
T5C0.0433
%
G90
G05
T1
X1.1Y-0.85
X1.35Y-1.55
X1.35Y-2.2
X1.35Y-2.8
X1.6Y-0.8
X2.1Y-1.45
X2.1Y-2.05
X2.1Y-2.8
X2.7Y-0.7
X2.85Y-1.2
X2.85Y-1.8
X2.85Y-2.65
X3.35Y-0.55
X3.6Y-1.2
X3.6Y-1.9
X3.6Y-2.55
X3.65Y-3.65
X4.2929Y-0.9567
X4.35Y-1.35
X4.35Y-2.0
X4.35Y-2.7
X4.35Y-3.5
X4.45Y-3.3
X4.45Y-3.45
X4.65Y-3.85
X4.95Y-0.8
X5.0Y-2.2
X5.0695Y-2.15
X5.0695Y-2.25
X5.1Y-1.85
X5.1Y-3.5
X5.15Y-2.2
X5.15Y-2.7
X5.15Y-2.8
X5.2Y-3.7
X5.25Y-3.95
X5.55Y-3.2
X5.55Y-3.2
X5.6993Y-1.8884
X5.7Y-3.35
X5.8Y-2.9715
X5.8Y-3.2
X5.8129Y-3.6629
X5.85Y-2.0
X5.85Y-4.25
X5.8511Y-2.9715
X5.8766Y-3.05
X5.9Y-1.9
X5.9Y-2.9527
X5.95Y-2.8957
X5.9785Y-3.1117
X6.0Y-3.0
X6.0Y-3.05
X6.0Y-3.3
X6.0Y-3.4
X6.0Y-4.25
X6.0215Y-2.7
X6.05Y-1.8
X6.05Y-1.85
X6.05Y-1.95
X6.0715Y-2.15
X6.093Y-1.95
X6.1Y-3.2
X6.1Y-3.55
X6.1215Y-2.95
X6.2Y-3.55
X6.45Y-4.35
T2
X5.4726Y-1.7354
X5.4726Y-1.8354
X5.4726Y-1.9354
X5.4726Y-2.0354
X5.4726Y-2.1354
X5.4726Y-2.2354
X5.4726Y-2.3354
X5.4726Y-2.4354
X5.4726Y-2.5354
X5.4726Y-2.6354
X5.4726Y-2.7354
X5.4726Y-2.8354
X5.5326Y-1.7354
X5.5326Y-1.8354
X5.5326Y-1.9354
X5.5326Y-2.0354
X5.5326Y-2.1354
X5.5326Y-2.2354
X5.5326Y-2.3354
X5.5326Y-2.4354
X5.5326Y-2.5354
X5.5326Y-2.6354
X5.5326Y-2.7354
X5.5326Y-2.8354
T3
X0.825Y-2.128
X0.825Y-1.4587
X0.825Y-3.4665
X0.825Y-2.7972
X1.125Y-2.128
X1.125Y-1.4587
X1.125Y-3.4665
X1.125Y-2.7972
X1.573Y-1.4587
X1.573Y-2.128
X1.573Y-2.7972
X1.573Y-3.4665
X1.873Y-1.4587
X1.873Y-2.128
X1.873Y-2.7972
X1.873Y-3.4665
X2.3211Y-1.2618
X2.3211Y-1.9311
X2.3211Y-2.6004
X2.3211Y-3.2697
X2.6211Y-1.2618
X2.6211Y-1.9311
X2.6211Y-2.6004
X2.6211Y-3.2697
X3.0691Y-2.4035
X3.0691Y-3.0728
X3.0691Y-1.065
X3.0691Y-1.7343
X3.3691Y-2.4035
X3.3691Y-3.0728
X3.3691Y-1.065
X3.3691Y-1.7343
X3.7778Y-4.1752
X3.8171Y-1.9705
X3.8171Y-1.3012
X3.8171Y-3.3091
X3.8171Y-2.6398
X4.0778Y-4.1752
X4.1171Y-1.9705
X4.1171Y-1.3012
X4.1171Y-3.3091
X4.1171Y-2.6398
X4.5258Y-4.1752
X4.5652Y-3.3878
X4.5652Y-1.3799
X4.5652Y-2.0492
X4.5652Y-2.7185
X4.8258Y-4.1752
X4.8652Y-3.3878
X4.8652Y-1.3799
X4.8652Y-2.0492
X4.8652Y-2.7185
X5.2646Y-4.4938
X5.4935Y-3.8649
X5.5465Y-4.5964
X5.7754Y-3.9675
X5.9893Y-4.8312
X6.235Y-5.0033
T4
X5.2923Y-3.0965
X5.2931Y-2.9705
X5.3923Y-3.0965
X5.3931Y-2.9705
X5.4923Y-3.0965
X5.4931Y-2.9705
X5.5923Y-3.0965
X5.5931Y-2.9705
X5.6923Y-3.0965
X5.6931Y-2.9705
T5
X5.2026Y-1.7354
X5.2026Y-1.7354
X5.2026Y-1.8354
X5.2026Y-1.9354
X5.2026Y-2.0354
X5.2026Y-2.1354
X5.2026Y-2.2354
X5.2026Y-2.3354
X5.2026Y-2.4354
X5.2026Y-2.5354
X5.2026Y-2.6354
X5.2026Y-2.7354
X5.2026Y-2.8354
X5.8026Y-1.7354
X5.8026Y-1.7354
X5.8026Y-1.8354
X5.8026Y-1.9354
X5.8026Y-2.0354
X5.8026Y-2.1354
X5.8026Y-2.2354
X5.8026Y-2.3354
X5.8026Y-2.4354
X5.8026Y-2.5354
X5.8026Y-2.6354
X5.8026Y-2.7354
X5.8026Y-2.8354
T0
M30
