%TF.GenerationSoftware,KiCad,Pcbnew,(6.0.9-0)*%
%TF.CreationDate,2023-01-10T20:54:14-06:00*%
%TF.ProjectId,board,626f6172-642e-46b6-9963-61645f706362,v1.0.0*%
%TF.SameCoordinates,Original*%
%TF.FileFunction,Copper,L1,Top*%
%TF.FilePolarity,Positive*%
%FSLAX46Y46*%
G04 Gerber Fmt 4.6, Leading zero omitted, Abs format (unit mm)*
G04 Created by KiCad (PCBNEW (6.0.9-0)) date 2023-01-10 20:54:14*
%MOMM*%
%LPD*%
G01*
G04 APERTURE LIST*
G04 Aperture macros list*
%AMRotRect*
0 Rectangle, with rotation*
0 The origin of the aperture is its center*
0 $1 length*
0 $2 width*
0 $3 Rotation angle, in degrees counterclockwise*
0 Add horizontal line*
21,1,$1,$2,0,0,$3*%
%AMFreePoly0*
4,1,49,0.088388,4.152388,0.854389,3.386388,0.867708,3.368551,0.871189,3.365530,0.871982,3.362827,0.875852,3.357644,0.882333,3.327543,0.891000,3.298000,0.891000,0.766000,0.887805,0.743969,0.888131,0.739371,0.886780,0.736898,0.885852,0.730498,0.869154,0.704638,0.854389,0.677612,0.088388,-0.088388,0.064607,-0.106146,0.062500,-0.108253,0.061385,-0.108552,0.059644,-0.109852,
0.043810,-0.113261,0.000000,-0.125000,-0.004774,-0.123721,-0.009154,-0.124664,-0.028953,-0.117242,-0.062500,-0.108253,-0.068237,-0.102516,-0.075052,-0.099961,-0.087614,-0.083139,-0.108253,-0.062500,-0.111178,-0.051584,-0.117161,-0.043572,-0.118539,-0.024114,-0.125000,0.000000,-0.121239,0.014035,-0.122131,0.026629,-0.113759,0.041953,-0.108253,0.062500,-0.095642,0.075111,-0.088388,0.088388,
0.641000,0.817777,0.641000,3.246223,-0.088388,3.975612,-0.109852,4.004356,-0.124664,4.073154,-0.099961,4.139052,-0.043572,4.181161,0.026629,4.186131,0.088388,4.152388,0.088388,4.152388,$1*%
%AMFreePoly1*
4,1,6,0.600000,0.200000,0.000000,-0.400000,-0.600000,0.200000,-0.600000,0.400000,0.600000,0.400000,0.600000,0.200000,0.600000,0.200000,$1*%
%AMFreePoly2*
4,1,6,0.600000,-0.250000,-0.600000,-0.250000,-0.600000,1.000000,0.000000,0.400000,0.600000,1.000000,0.600000,-0.250000,0.600000,-0.250000,$1*%
%AMFreePoly3*
4,1,5,0.125000,-0.500000,-0.125000,-0.500000,-0.125000,0.500000,0.125000,0.500000,0.125000,-0.500000,0.125000,-0.500000,$1*%
%AMFreePoly4*
4,1,49,0.088388,4.152388,0.850389,3.390388,0.863708,3.372551,0.867189,3.369530,0.867982,3.366827,0.871852,3.361644,0.878333,3.331543,0.887000,3.302000,0.887000,0.762000,0.883805,0.739969,0.884131,0.735371,0.882780,0.732898,0.881852,0.726498,0.865154,0.700638,0.850389,0.673612,0.088388,-0.088388,0.064607,-0.106146,0.062500,-0.108253,0.061385,-0.108552,0.059644,-0.109852,
0.043810,-0.113261,0.000000,-0.125000,-0.004774,-0.123721,-0.009154,-0.124664,-0.028953,-0.117242,-0.062500,-0.108253,-0.068237,-0.102516,-0.075052,-0.099961,-0.087614,-0.083139,-0.108253,-0.062500,-0.111178,-0.051584,-0.117161,-0.043572,-0.118539,-0.024114,-0.125000,0.000000,-0.121239,0.014035,-0.122131,0.026629,-0.113759,0.041953,-0.108253,0.062500,-0.095642,0.075111,-0.088388,0.088388,
0.637000,0.813777,0.637000,3.250223,-0.088388,3.975612,-0.109852,4.004356,-0.124664,4.073154,-0.099961,4.139052,-0.043572,4.181161,0.026629,4.186131,0.088388,4.152388,0.088388,4.152388,$1*%
G04 Aperture macros list end*
%TA.AperFunction,SMDPad,CuDef*%
%ADD10R,2.600000X2.600000*%
%TD*%
%TA.AperFunction,SMDPad,CuDef*%
%ADD11RotRect,2.600000X2.600000X340.000000*%
%TD*%
%TA.AperFunction,SMDPad,CuDef*%
%ADD12RotRect,2.600000X2.600000X325.000000*%
%TD*%
%TA.AperFunction,SMDPad,CuDef*%
%ADD13R,0.900000X1.200000*%
%TD*%
%TA.AperFunction,ComponentPad*%
%ADD14R,1.778000X1.778000*%
%TD*%
%TA.AperFunction,ComponentPad*%
%ADD15C,1.905000*%
%TD*%
%TA.AperFunction,SMDPad,CuDef*%
%ADD16RotRect,0.900000X1.200000X340.000000*%
%TD*%
%TA.AperFunction,ComponentPad*%
%ADD17RotRect,1.778000X1.778000X340.000000*%
%TD*%
%TA.AperFunction,SMDPad,CuDef*%
%ADD18RotRect,0.900000X1.200000X325.000000*%
%TD*%
%TA.AperFunction,ComponentPad*%
%ADD19RotRect,1.778000X1.778000X325.000000*%
%TD*%
%TA.AperFunction,SMDPad,CuDef*%
%ADD20FreePoly0,270.000000*%
%TD*%
%TA.AperFunction,ComponentPad*%
%ADD21C,1.600000*%
%TD*%
%TA.AperFunction,SMDPad,CuDef*%
%ADD22FreePoly1,90.000000*%
%TD*%
%TA.AperFunction,SMDPad,CuDef*%
%ADD23FreePoly2,90.000000*%
%TD*%
%TA.AperFunction,SMDPad,CuDef*%
%ADD24FreePoly3,90.000000*%
%TD*%
%TA.AperFunction,ComponentPad*%
%ADD25R,1.600000X1.600000*%
%TD*%
%TA.AperFunction,SMDPad,CuDef*%
%ADD26FreePoly2,270.000000*%
%TD*%
%TA.AperFunction,SMDPad,CuDef*%
%ADD27FreePoly3,270.000000*%
%TD*%
%TA.AperFunction,SMDPad,CuDef*%
%ADD28FreePoly1,270.000000*%
%TD*%
%TA.AperFunction,SMDPad,CuDef*%
%ADD29FreePoly4,90.000000*%
%TD*%
%TA.AperFunction,ComponentPad*%
%ADD30C,0.800000*%
%TD*%
%TA.AperFunction,ComponentPad*%
%ADD31O,1.700000X1.700000*%
%TD*%
%TA.AperFunction,ComponentPad*%
%ADD32R,1.700000X1.700000*%
%TD*%
%TA.AperFunction,SMDPad,CuDef*%
%ADD33R,1.500000X1.500000*%
%TD*%
%TA.AperFunction,SMDPad,CuDef*%
%ADD34R,1.143000X0.635000*%
%TD*%
%TA.AperFunction,SMDPad,CuDef*%
%ADD35R,1.100000X1.800000*%
%TD*%
%TA.AperFunction,ViaPad*%
%ADD36C,0.800000*%
%TD*%
%TA.AperFunction,Conductor*%
%ADD37C,0.250000*%
%TD*%
G04 APERTURE END LIST*
D10*
%TO.P,S1,1*%
%TO.N,outer_bottom*%
X28040001Y-77100001D03*
%TO.P,S1,2*%
%TO.N,P20*%
X16490001Y-79300001D03*
%TD*%
%TO.P,S2,1*%
%TO.N,outer_home*%
X28040001Y-60100001D03*
%TO.P,S2,2*%
%TO.N,P20*%
X16490001Y-62300001D03*
%TD*%
%TO.P,S3,1*%
%TO.N,outer_top*%
X28040000Y-43100001D03*
%TO.P,S3,2*%
%TO.N,P20*%
X16490000Y-45300001D03*
%TD*%
%TO.P,S4,1*%
%TO.N,outer_num*%
X28040000Y-26100001D03*
%TO.P,S4,2*%
%TO.N,P20*%
X16490000Y-28300001D03*
%TD*%
%TO.P,S5,1*%
%TO.N,pinky_bottom*%
X47040000Y-77100001D03*
%TO.P,S5,2*%
%TO.N,P19*%
X35490000Y-79300001D03*
%TD*%
%TO.P,S6,1*%
%TO.N,pinky_home*%
X47040001Y-60100001D03*
%TO.P,S6,2*%
%TO.N,P19*%
X35490001Y-62300001D03*
%TD*%
%TO.P,S7,1*%
%TO.N,pinky_top*%
X47040000Y-43100002D03*
%TO.P,S7,2*%
%TO.N,P19*%
X35490000Y-45300002D03*
%TD*%
%TO.P,S8,1*%
%TO.N,pinky_num*%
X47040000Y-26100002D03*
%TO.P,S8,2*%
%TO.N,P19*%
X35490000Y-28300002D03*
%TD*%
%TO.P,S9,1*%
%TO.N,ring_bottom*%
X66040000Y-72100001D03*
%TO.P,S9,2*%
%TO.N,P18*%
X54490000Y-74300001D03*
%TD*%
%TO.P,S10,1*%
%TO.N,ring_home*%
X66040000Y-55100000D03*
%TO.P,S10,2*%
%TO.N,P18*%
X54490000Y-57300000D03*
%TD*%
%TO.P,S11,1*%
%TO.N,ring_top*%
X66040000Y-38100000D03*
%TO.P,S11,2*%
%TO.N,P18*%
X54490000Y-40300000D03*
%TD*%
%TO.P,S12,1*%
%TO.N,ring_num*%
X66040000Y-21100001D03*
%TO.P,S12,2*%
%TO.N,P18*%
X54490000Y-23300001D03*
%TD*%
%TO.P,S13,1*%
%TO.N,middle_bottom*%
X85040001Y-67100001D03*
%TO.P,S13,2*%
%TO.N,P15*%
X73490001Y-69300001D03*
%TD*%
%TO.P,S14,1*%
%TO.N,middle_home*%
X85040000Y-50100001D03*
%TO.P,S14,2*%
%TO.N,P15*%
X73490000Y-52300001D03*
%TD*%
%TO.P,S15,1*%
%TO.N,middle_top*%
X85040000Y-33100001D03*
%TO.P,S15,2*%
%TO.N,P15*%
X73490000Y-35300001D03*
%TD*%
%TO.P,S16,1*%
%TO.N,middle_num*%
X85039999Y-16100001D03*
%TO.P,S16,2*%
%TO.N,P15*%
X73489999Y-18300001D03*
%TD*%
%TO.P,S17,1*%
%TO.N,index_bottom*%
X104040000Y-73100000D03*
%TO.P,S17,2*%
%TO.N,P14*%
X92490000Y-75300000D03*
%TD*%
%TO.P,S18,1*%
%TO.N,index_home*%
X104040001Y-56100000D03*
%TO.P,S18,2*%
%TO.N,P14*%
X92490001Y-58300000D03*
%TD*%
%TO.P,S19,1*%
%TO.N,index_top*%
X104040000Y-39100000D03*
%TO.P,S19,2*%
%TO.N,P14*%
X92490000Y-41300000D03*
%TD*%
%TO.P,S20,1*%
%TO.N,index_num*%
X104040000Y-22100001D03*
%TO.P,S20,2*%
%TO.N,P14*%
X92490000Y-24300001D03*
%TD*%
%TO.P,S21,1*%
%TO.N,inner_bottom*%
X123040001Y-75100001D03*
%TO.P,S21,2*%
%TO.N,P16*%
X111490001Y-77300001D03*
%TD*%
%TO.P,S22,1*%
%TO.N,inner_home*%
X123040000Y-58100002D03*
%TO.P,S22,2*%
%TO.N,P16*%
X111490000Y-60300002D03*
%TD*%
%TO.P,S23,1*%
%TO.N,inner_top*%
X123039999Y-41100001D03*
%TO.P,S23,2*%
%TO.N,P16*%
X111489999Y-43300001D03*
%TD*%
%TO.P,S24,1*%
%TO.N,inner_num*%
X123040001Y-24100000D03*
%TO.P,S24,2*%
%TO.N,P16*%
X111490001Y-26300000D03*
%TD*%
%TO.P,S25,1*%
%TO.N,near1_home*%
X103040000Y-95100001D03*
%TO.P,S25,2*%
%TO.N,P20*%
X91490000Y-97300001D03*
%TD*%
%TO.P,S26,1*%
%TO.N,near2_home*%
X122040000Y-95100001D03*
%TO.P,S26,2*%
%TO.N,P19*%
X110490000Y-97300001D03*
%TD*%
D11*
%TO.P,S27,1*%
%TO.N,home_home*%
X144122947Y-106276125D03*
%TO.P,S27,2*%
%TO.N,P18*%
X132517053Y-104393116D03*
%TD*%
%TO.P,S28,1*%
%TO.N,home_top*%
X149937289Y-90301350D03*
%TO.P,S28,2*%
%TO.N,P15*%
X138331395Y-88418341D03*
%TD*%
D12*
%TO.P,S29,1*%
%TO.N,far_home*%
X164211572Y-117807816D03*
%TO.P,S29,2*%
%TO.N,P14*%
X153488497Y-112985143D03*
%TD*%
D13*
%TO.P,D1,1*%
%TO.N,P7*%
X23115000Y-88050001D03*
%TO.P,D1,2*%
%TO.N,outer_bottom*%
X26415000Y-88050001D03*
D14*
%TO.P,D1,1*%
%TO.N,P7*%
X20955000Y-88050001D03*
D15*
%TO.P,D1,2*%
%TO.N,outer_bottom*%
X28575000Y-88050001D03*
%TD*%
D13*
%TO.P,D2,1*%
%TO.N,P6*%
X23115001Y-71050000D03*
%TO.P,D2,2*%
%TO.N,outer_home*%
X26415001Y-71050000D03*
D14*
%TO.P,D2,1*%
%TO.N,P6*%
X20955001Y-71050000D03*
D15*
%TO.P,D2,2*%
%TO.N,outer_home*%
X28575001Y-71050000D03*
%TD*%
D13*
%TO.P,D3,1*%
%TO.N,P5*%
X23114999Y-54050001D03*
%TO.P,D3,2*%
%TO.N,outer_top*%
X26414999Y-54050001D03*
D14*
%TO.P,D3,1*%
%TO.N,P5*%
X20954999Y-54050001D03*
D15*
%TO.P,D3,2*%
%TO.N,outer_top*%
X28574999Y-54050001D03*
%TD*%
D13*
%TO.P,D4,1*%
%TO.N,P4*%
X23115000Y-37050001D03*
%TO.P,D4,2*%
%TO.N,outer_num*%
X26415000Y-37050001D03*
D14*
%TO.P,D4,1*%
%TO.N,P4*%
X20955000Y-37050001D03*
D15*
%TO.P,D4,2*%
%TO.N,outer_num*%
X28575000Y-37050001D03*
%TD*%
D13*
%TO.P,D5,1*%
%TO.N,P7*%
X42115001Y-88050001D03*
%TO.P,D5,2*%
%TO.N,pinky_bottom*%
X45415001Y-88050001D03*
D14*
%TO.P,D5,1*%
%TO.N,P7*%
X39955001Y-88050001D03*
D15*
%TO.P,D5,2*%
%TO.N,pinky_bottom*%
X47575001Y-88050001D03*
%TD*%
D13*
%TO.P,D6,1*%
%TO.N,P6*%
X42115000Y-71050001D03*
%TO.P,D6,2*%
%TO.N,pinky_home*%
X45415000Y-71050001D03*
D14*
%TO.P,D6,1*%
%TO.N,P6*%
X39955000Y-71050001D03*
D15*
%TO.P,D6,2*%
%TO.N,pinky_home*%
X47575000Y-71050001D03*
%TD*%
D13*
%TO.P,D7,1*%
%TO.N,P5*%
X42115000Y-54050000D03*
%TO.P,D7,2*%
%TO.N,pinky_top*%
X45415000Y-54050000D03*
D14*
%TO.P,D7,1*%
%TO.N,P5*%
X39955000Y-54050000D03*
D15*
%TO.P,D7,2*%
%TO.N,pinky_top*%
X47575000Y-54050000D03*
%TD*%
D13*
%TO.P,D8,1*%
%TO.N,P4*%
X42115000Y-37050000D03*
%TO.P,D8,2*%
%TO.N,pinky_num*%
X45415000Y-37050000D03*
D14*
%TO.P,D8,1*%
%TO.N,P4*%
X39955000Y-37050000D03*
D15*
%TO.P,D8,2*%
%TO.N,pinky_num*%
X47575000Y-37050000D03*
%TD*%
D13*
%TO.P,D9,1*%
%TO.N,P7*%
X61115000Y-83050002D03*
%TO.P,D9,2*%
%TO.N,ring_bottom*%
X64415000Y-83050002D03*
D14*
%TO.P,D9,1*%
%TO.N,P7*%
X58955000Y-83050002D03*
D15*
%TO.P,D9,2*%
%TO.N,ring_bottom*%
X66575000Y-83050002D03*
%TD*%
D13*
%TO.P,D10,1*%
%TO.N,P6*%
X61115000Y-66050002D03*
%TO.P,D10,2*%
%TO.N,ring_home*%
X64415000Y-66050002D03*
D14*
%TO.P,D10,1*%
%TO.N,P6*%
X58955000Y-66050002D03*
D15*
%TO.P,D10,2*%
%TO.N,ring_home*%
X66575000Y-66050002D03*
%TD*%
D13*
%TO.P,D11,1*%
%TO.N,P5*%
X61115000Y-49050002D03*
%TO.P,D11,2*%
%TO.N,ring_top*%
X64415000Y-49050002D03*
D14*
%TO.P,D11,1*%
%TO.N,P5*%
X58955000Y-49050002D03*
D15*
%TO.P,D11,2*%
%TO.N,ring_top*%
X66575000Y-49050002D03*
%TD*%
D13*
%TO.P,D12,1*%
%TO.N,P4*%
X61115000Y-32050000D03*
%TO.P,D12,2*%
%TO.N,ring_num*%
X64415000Y-32050000D03*
D14*
%TO.P,D12,1*%
%TO.N,P4*%
X58955000Y-32050000D03*
D15*
%TO.P,D12,2*%
%TO.N,ring_num*%
X66575000Y-32050000D03*
%TD*%
D13*
%TO.P,D13,1*%
%TO.N,P7*%
X80115000Y-78050000D03*
%TO.P,D13,2*%
%TO.N,middle_bottom*%
X83415000Y-78050000D03*
D14*
%TO.P,D13,1*%
%TO.N,P7*%
X77955000Y-78050000D03*
D15*
%TO.P,D13,2*%
%TO.N,middle_bottom*%
X85575000Y-78050000D03*
%TD*%
D13*
%TO.P,D14,1*%
%TO.N,P6*%
X80114999Y-61050001D03*
%TO.P,D14,2*%
%TO.N,middle_home*%
X83414999Y-61050001D03*
D14*
%TO.P,D14,1*%
%TO.N,P6*%
X77954999Y-61050001D03*
D15*
%TO.P,D14,2*%
%TO.N,middle_home*%
X85574999Y-61050001D03*
%TD*%
D13*
%TO.P,D15,1*%
%TO.N,P5*%
X80115001Y-44050000D03*
%TO.P,D15,2*%
%TO.N,middle_top*%
X83415001Y-44050000D03*
D14*
%TO.P,D15,1*%
%TO.N,P5*%
X77955001Y-44050000D03*
D15*
%TO.P,D15,2*%
%TO.N,middle_top*%
X85575001Y-44050000D03*
%TD*%
D13*
%TO.P,D16,1*%
%TO.N,P4*%
X80115001Y-27050000D03*
%TO.P,D16,2*%
%TO.N,middle_num*%
X83415001Y-27050000D03*
D14*
%TO.P,D16,1*%
%TO.N,P4*%
X77955001Y-27050000D03*
D15*
%TO.P,D16,2*%
%TO.N,middle_num*%
X85575001Y-27050000D03*
%TD*%
D13*
%TO.P,D17,1*%
%TO.N,P7*%
X99115000Y-84050000D03*
%TO.P,D17,2*%
%TO.N,index_bottom*%
X102415000Y-84050000D03*
D14*
%TO.P,D17,1*%
%TO.N,P7*%
X96955000Y-84050000D03*
D15*
%TO.P,D17,2*%
%TO.N,index_bottom*%
X104575000Y-84050000D03*
%TD*%
D13*
%TO.P,D18,1*%
%TO.N,P6*%
X99115001Y-67050001D03*
%TO.P,D18,2*%
%TO.N,index_home*%
X102415001Y-67050001D03*
D14*
%TO.P,D18,1*%
%TO.N,P6*%
X96955001Y-67050001D03*
D15*
%TO.P,D18,2*%
%TO.N,index_home*%
X104575001Y-67050001D03*
%TD*%
D13*
%TO.P,D19,1*%
%TO.N,P5*%
X99114999Y-50050001D03*
%TO.P,D19,2*%
%TO.N,index_top*%
X102414999Y-50050001D03*
D14*
%TO.P,D19,1*%
%TO.N,P5*%
X96954999Y-50050001D03*
D15*
%TO.P,D19,2*%
%TO.N,index_top*%
X104574999Y-50050001D03*
%TD*%
D13*
%TO.P,D20,1*%
%TO.N,P4*%
X99115000Y-33050001D03*
%TO.P,D20,2*%
%TO.N,index_num*%
X102415000Y-33050001D03*
D14*
%TO.P,D20,1*%
%TO.N,P4*%
X96955000Y-33050001D03*
D15*
%TO.P,D20,2*%
%TO.N,index_num*%
X104575000Y-33050001D03*
%TD*%
D13*
%TO.P,D21,1*%
%TO.N,P7*%
X118114999Y-86050002D03*
%TO.P,D21,2*%
%TO.N,inner_bottom*%
X121414999Y-86050002D03*
D14*
%TO.P,D21,1*%
%TO.N,P7*%
X115954999Y-86050002D03*
D15*
%TO.P,D21,2*%
%TO.N,inner_bottom*%
X123574999Y-86050002D03*
%TD*%
D13*
%TO.P,D22,1*%
%TO.N,P6*%
X118115000Y-69050001D03*
%TO.P,D22,2*%
%TO.N,inner_home*%
X121415000Y-69050001D03*
D14*
%TO.P,D22,1*%
%TO.N,P6*%
X115955000Y-69050001D03*
D15*
%TO.P,D22,2*%
%TO.N,inner_home*%
X123575000Y-69050001D03*
%TD*%
D13*
%TO.P,D23,1*%
%TO.N,P5*%
X118115000Y-52050000D03*
%TO.P,D23,2*%
%TO.N,inner_top*%
X121415000Y-52050000D03*
D14*
%TO.P,D23,1*%
%TO.N,P5*%
X115955000Y-52050000D03*
D15*
%TO.P,D23,2*%
%TO.N,inner_top*%
X123575000Y-52050000D03*
%TD*%
D13*
%TO.P,D24,1*%
%TO.N,P4*%
X118115000Y-35050000D03*
%TO.P,D24,2*%
%TO.N,inner_num*%
X121415000Y-35050000D03*
D14*
%TO.P,D24,1*%
%TO.N,P4*%
X115955000Y-35050000D03*
D15*
%TO.P,D24,2*%
%TO.N,inner_num*%
X123575000Y-35050000D03*
%TD*%
D13*
%TO.P,D25,1*%
%TO.N,P3*%
X98115000Y-106050000D03*
%TO.P,D25,2*%
%TO.N,near1_home*%
X101415000Y-106050000D03*
D14*
%TO.P,D25,1*%
%TO.N,P3*%
X95955000Y-106050000D03*
D15*
%TO.P,D25,2*%
%TO.N,near1_home*%
X103575000Y-106050000D03*
%TD*%
D13*
%TO.P,D26,1*%
%TO.N,P3*%
X117115001Y-106050000D03*
%TO.P,D26,2*%
%TO.N,near2_home*%
X120415001Y-106050000D03*
D14*
%TO.P,D26,1*%
%TO.N,P3*%
X114955001Y-106050000D03*
D15*
%TO.P,D26,2*%
%TO.N,near2_home*%
X122575001Y-106050000D03*
%TD*%
D16*
%TO.P,D27,1*%
%TO.N,P3*%
X135749840Y-114881311D03*
%TO.P,D27,2*%
%TO.N,home_home*%
X138850826Y-116009977D03*
D17*
%TO.P,D27,1*%
%TO.N,P3*%
X133720104Y-114142547D03*
D15*
%TO.P,D27,2*%
%TO.N,home_home*%
X140880562Y-116748741D03*
%TD*%
D16*
%TO.P,D28,1*%
%TO.N,P3*%
X141564183Y-98906536D03*
%TO.P,D28,2*%
%TO.N,home_top*%
X144665169Y-100035202D03*
D17*
%TO.P,D28,1*%
%TO.N,P3*%
X139534447Y-98167772D03*
D15*
%TO.P,D28,2*%
%TO.N,home_top*%
X146694905Y-100773966D03*
%TD*%
D18*
%TO.P,D29,1*%
%TO.N,P3*%
X153896586Y-123952667D03*
%TO.P,D29,2*%
%TO.N,far_home*%
X156599788Y-125845469D03*
D19*
%TO.P,D29,1*%
%TO.N,P3*%
X152127218Y-122713742D03*
D15*
%TO.P,D29,2*%
%TO.N,far_home*%
X158369156Y-127084394D03*
%TD*%
D20*
%TO.P,MCU1,2*%
%TO.N,GND*%
X140527000Y-46620001D03*
D21*
%TO.P,MCU1,*%
%TO.N,*%
X132145000Y-44080001D03*
X132145000Y-46620001D03*
X132145000Y-49160001D03*
X132145000Y-51700001D03*
X132145000Y-54240001D03*
X132145000Y-56780001D03*
X132145000Y-59320001D03*
X132145000Y-61860001D03*
X132145000Y-64400001D03*
X132145000Y-66940001D03*
X132145000Y-69480001D03*
X132145000Y-72020001D03*
X147385000Y-72020001D03*
X147385000Y-69480001D03*
X147385000Y-66940001D03*
X147385000Y-64400001D03*
X147385000Y-61860001D03*
X147385000Y-59320001D03*
X147385000Y-56780001D03*
X147385000Y-54240001D03*
X147385000Y-51700001D03*
X147385000Y-49160001D03*
X147385000Y-46620001D03*
X147385000Y-44080001D03*
D22*
X133923000Y-44080001D03*
D23*
%TO.P,MCU1,24*%
%TO.N,P1*%
X134939000Y-44080001D03*
D24*
%TO.P,MCU1,*%
%TO.N,*%
X133415000Y-44080001D03*
D25*
X132145000Y-44080001D03*
D24*
X133415000Y-46620001D03*
D22*
X133923000Y-46620001D03*
D23*
%TO.P,MCU1,23*%
%TO.N,P0*%
X134939000Y-46620001D03*
D24*
%TO.P,MCU1,*%
%TO.N,*%
X133415000Y-49160001D03*
D22*
X133923000Y-49160001D03*
D23*
%TO.P,MCU1,22*%
%TO.N,GND*%
X134939000Y-49160001D03*
D24*
%TO.P,MCU1,*%
%TO.N,*%
X133415000Y-51700001D03*
D22*
X133923000Y-51700001D03*
D23*
%TO.P,MCU1,21*%
%TO.N,GND*%
X134939000Y-51700001D03*
D24*
%TO.P,MCU1,*%
%TO.N,*%
X133415000Y-54240001D03*
D22*
X133923000Y-54240001D03*
D23*
%TO.P,MCU1,20*%
%TO.N,P2*%
X134939000Y-54240001D03*
D24*
%TO.P,MCU1,*%
%TO.N,*%
X133415000Y-56780001D03*
D22*
X133923000Y-56780001D03*
D23*
%TO.P,MCU1,19*%
%TO.N,P3*%
X134939000Y-56780001D03*
D24*
%TO.P,MCU1,*%
%TO.N,*%
X133415000Y-59320001D03*
D22*
X133923000Y-59320001D03*
D23*
%TO.P,MCU1,18*%
%TO.N,P4*%
X134939000Y-59320001D03*
D24*
%TO.P,MCU1,*%
%TO.N,*%
X133415000Y-61860001D03*
D22*
X133923000Y-61860001D03*
D23*
%TO.P,MCU1,17*%
%TO.N,P5*%
X134939000Y-61860001D03*
D24*
%TO.P,MCU1,*%
%TO.N,*%
X133415000Y-64400001D03*
D22*
X133923000Y-64400001D03*
D23*
%TO.P,MCU1,16*%
%TO.N,P6*%
X134939000Y-64400001D03*
D24*
%TO.P,MCU1,*%
%TO.N,*%
X133415000Y-66940001D03*
D22*
X133923000Y-66940001D03*
D23*
%TO.P,MCU1,15*%
%TO.N,P7*%
X134939000Y-66940001D03*
D24*
%TO.P,MCU1,*%
%TO.N,*%
X133415000Y-69480001D03*
D22*
X133923000Y-69480001D03*
D23*
%TO.P,MCU1,14*%
%TO.N,P8*%
X134939000Y-69480001D03*
D24*
%TO.P,MCU1,*%
%TO.N,*%
X133415000Y-72020001D03*
D22*
X133923000Y-72020001D03*
D23*
%TO.P,MCU1,13*%
%TO.N,P9*%
X134939000Y-72020001D03*
D26*
%TO.P,MCU1,1*%
%TO.N,RAW*%
X144591000Y-44080001D03*
%TO.P,MCU1,3*%
%TO.N,RST*%
X144591000Y-49160001D03*
D27*
%TO.P,MCU1,*%
%TO.N,*%
X146115000Y-49160001D03*
D28*
X145607000Y-49160001D03*
X145607000Y-44080001D03*
D27*
X146115000Y-46620001D03*
D26*
%TO.P,MCU1,2*%
%TO.N,GND*%
X144591000Y-46620001D03*
D27*
%TO.P,MCU1,*%
%TO.N,*%
X146115000Y-44080001D03*
D26*
%TO.P,MCU1,4*%
%TO.N,VCC*%
X144591000Y-51700001D03*
D28*
%TO.P,MCU1,*%
%TO.N,*%
X145607000Y-46620001D03*
X145607000Y-51700001D03*
D26*
%TO.P,MCU1,6*%
%TO.N,P20*%
X144591000Y-56780001D03*
%TO.P,MCU1,7*%
%TO.N,P19*%
X144591000Y-59320001D03*
D27*
%TO.P,MCU1,*%
%TO.N,*%
X146115000Y-72020001D03*
D28*
X145607000Y-59320001D03*
D27*
X146115000Y-66940001D03*
D26*
%TO.P,MCU1,8*%
%TO.N,P18*%
X144591000Y-61860001D03*
D27*
%TO.P,MCU1,*%
%TO.N,*%
X146115000Y-59320001D03*
D26*
%TO.P,MCU1,12*%
%TO.N,P10*%
X144591000Y-72020001D03*
D28*
%TO.P,MCU1,*%
%TO.N,*%
X145607000Y-61860001D03*
D27*
X146115000Y-64400001D03*
D28*
X145607000Y-72020001D03*
D27*
X146115000Y-54240001D03*
X146115000Y-61860001D03*
X146115000Y-56780001D03*
D26*
%TO.P,MCU1,9*%
%TO.N,P15*%
X144591000Y-64400001D03*
D27*
%TO.P,MCU1,*%
%TO.N,*%
X146115000Y-51700001D03*
D28*
X145607000Y-54240001D03*
X145607000Y-56780001D03*
X145607000Y-64400001D03*
D26*
%TO.P,MCU1,10*%
%TO.N,P14*%
X144591000Y-66940001D03*
D28*
%TO.P,MCU1,*%
%TO.N,*%
X145607000Y-66940001D03*
X145607000Y-69480001D03*
D26*
%TO.P,MCU1,11*%
%TO.N,P16*%
X144591000Y-69480001D03*
D27*
%TO.P,MCU1,*%
%TO.N,*%
X146115000Y-69480001D03*
D26*
%TO.P,MCU1,5*%
%TO.N,P21*%
X144591000Y-54240001D03*
D29*
%TO.P,MCU1,23*%
%TO.N,P0*%
X139003000Y-46620001D03*
D30*
%TO.P,MCU1,2*%
%TO.N,GND*%
X140527000Y-46620001D03*
%TO.P,MCU1,23*%
%TO.N,P0*%
X139003000Y-46620001D03*
%TO.P,MCU1,24*%
%TO.N,P1*%
X139003000Y-44080001D03*
%TO.P,MCU1,1*%
%TO.N,RAW*%
X140527000Y-44080001D03*
D20*
X140527000Y-44080001D03*
D29*
%TO.P,MCU1,24*%
%TO.N,P1*%
X139003000Y-44080001D03*
D30*
%TO.P,MCU1,22*%
%TO.N,GND*%
X139003000Y-49160001D03*
%TO.P,MCU1,3*%
%TO.N,RST*%
X140527000Y-49160001D03*
D20*
X140527000Y-49160001D03*
D29*
%TO.P,MCU1,22*%
%TO.N,GND*%
X139003000Y-49160001D03*
D30*
%TO.P,MCU1,21*%
X139003000Y-51700001D03*
%TO.P,MCU1,4*%
%TO.N,VCC*%
X140527000Y-51700001D03*
D20*
X140527000Y-51700001D03*
D29*
%TO.P,MCU1,21*%
%TO.N,GND*%
X139003000Y-51700001D03*
D30*
%TO.P,MCU1,20*%
%TO.N,P2*%
X139003000Y-54240001D03*
%TO.P,MCU1,5*%
%TO.N,P21*%
X140527000Y-54240001D03*
D20*
X140527000Y-54240001D03*
D29*
%TO.P,MCU1,20*%
%TO.N,P2*%
X139003000Y-54240001D03*
D30*
%TO.P,MCU1,19*%
%TO.N,P3*%
X139003000Y-56780001D03*
%TO.P,MCU1,6*%
%TO.N,P20*%
X140527000Y-56780001D03*
D20*
X140527000Y-56780001D03*
D29*
%TO.P,MCU1,19*%
%TO.N,P3*%
X139003000Y-56780001D03*
D30*
%TO.P,MCU1,18*%
%TO.N,P4*%
X139003000Y-59320001D03*
%TO.P,MCU1,7*%
%TO.N,P19*%
X140527000Y-59320001D03*
D20*
X140527000Y-59320001D03*
D29*
%TO.P,MCU1,18*%
%TO.N,P4*%
X139003000Y-59320001D03*
D30*
%TO.P,MCU1,17*%
%TO.N,P5*%
X139003000Y-61860001D03*
%TO.P,MCU1,8*%
%TO.N,P18*%
X140527000Y-61860001D03*
D20*
X140527000Y-61860001D03*
D29*
%TO.P,MCU1,17*%
%TO.N,P5*%
X139003000Y-61860001D03*
D30*
%TO.P,MCU1,16*%
%TO.N,P6*%
X139003000Y-64400001D03*
%TO.P,MCU1,9*%
%TO.N,P15*%
X140527000Y-64400001D03*
D20*
X140527000Y-64400001D03*
D29*
%TO.P,MCU1,16*%
%TO.N,P6*%
X139003000Y-64400001D03*
D30*
%TO.P,MCU1,15*%
%TO.N,P7*%
X139003000Y-66940001D03*
%TO.P,MCU1,10*%
%TO.N,P14*%
X140527000Y-66940001D03*
D20*
X140527000Y-66940001D03*
D29*
%TO.P,MCU1,15*%
%TO.N,P7*%
X139003000Y-66940001D03*
D30*
%TO.P,MCU1,14*%
%TO.N,P8*%
X139003000Y-69480001D03*
%TO.P,MCU1,11*%
%TO.N,P16*%
X140527000Y-69480001D03*
D20*
X140527000Y-69480001D03*
D29*
%TO.P,MCU1,14*%
%TO.N,P8*%
X139003000Y-69480001D03*
D30*
%TO.P,MCU1,13*%
%TO.N,P9*%
X139003000Y-72020001D03*
%TO.P,MCU1,12*%
%TO.N,P10*%
X140527000Y-72020001D03*
D20*
X140527000Y-72020001D03*
D29*
%TO.P,MCU1,13*%
%TO.N,P9*%
X139003000Y-72020001D03*
%TD*%
D31*
%TO.P,OLED1,4*%
%TO.N,P0*%
X134445000Y-75450001D03*
%TO.P,OLED1,3*%
%TO.N,P2*%
X136985000Y-75450001D03*
%TO.P,OLED1,2*%
%TO.N,VCC*%
X139525000Y-75450001D03*
D32*
%TO.P,OLED1,1*%
%TO.N,GND*%
X142065000Y-75450001D03*
D31*
%TO.P,OLED1,0*%
%TO.N,P1*%
X144605000Y-75450001D03*
%TD*%
%TO.P,OLED2,4*%
%TO.N,P0*%
X144585000Y-78650000D03*
%TO.P,OLED2,3*%
%TO.N,P2*%
X142045000Y-78650000D03*
%TO.P,OLED2,2*%
%TO.N,VCC*%
X139505000Y-78650000D03*
D32*
%TO.P,OLED2,1*%
%TO.N,GND*%
X136965000Y-78650000D03*
D31*
%TO.P,OLED2,0*%
%TO.N,P1*%
X134425000Y-78650000D03*
%TD*%
D33*
%TO.P,PAD1,1*%
%TO.N,Bplus*%
X151765000Y-53050002D03*
%TD*%
%TO.P,PAD2,1*%
%TO.N,GND*%
X151765000Y-50050001D03*
%TD*%
D34*
%TO.P,J2,1*%
%TO.N,Bplus*%
X143265000Y-80549621D03*
%TO.P,J2,2*%
%TO.N,RAW*%
X143265000Y-81550381D03*
%TD*%
D35*
%TO.P,B1,1*%
%TO.N,GND*%
X154115001Y-77950001D03*
X154115001Y-84150001D03*
%TO.P,B1,2*%
%TO.N,RST*%
X150415001Y-77950001D03*
X150415001Y-84150001D03*
%TD*%
D36*
%TO.N,GND*%
X144761577Y-47964826D03*
%TO.N,P4*%
X128764500Y-57150000D03*
X128764500Y-54610000D03*
X34290000Y-39370000D03*
X53340000Y-36830000D03*
X72390000Y-30480000D03*
X91440000Y-30480000D03*
X110490000Y-34290000D03*
%TO.N,home_top*%
X147647405Y-93037405D03*
%TO.N,P16*%
X125730000Y-20320000D03*
%TO.N,P14*%
X109040000Y-24300001D03*
%TO.N,P15*%
X85090000Y-13970000D03*
%TO.N,P18*%
X68580000Y-17780000D03*
%TO.N,P19*%
X40640000Y-20320000D03*
%TO.N,P20*%
X27940000Y-21590000D03*
%TO.N,P14*%
X147320000Y-75475500D03*
X157480000Y-90170000D03*
X147320000Y-81280000D03*
X152400000Y-86360000D03*
%TO.N,P18*%
X148590000Y-107950000D03*
%TO.N,RST*%
X152400000Y-83820000D03*
X151854500Y-79036570D03*
%TO.N,P15*%
X144780000Y-85090000D03*
X148618276Y-75475500D03*
%TO.N,P18*%
X149860000Y-74999501D03*
X154940000Y-90170000D03*
%TO.N,P19*%
X133350000Y-100330000D03*
X132080000Y-93980000D03*
X129540000Y-88900000D03*
X130810000Y-68580000D03*
X118110000Y-97790000D03*
%TO.N,P20*%
X113030000Y-83820000D03*
X130810000Y-55880000D03*
X113030000Y-87630000D03*
X127000000Y-55880000D03*
X92710000Y-92710000D03*
%TO.N,P6*%
X34290000Y-71120000D03*
X53340000Y-71120000D03*
X72390000Y-67310000D03*
X91440000Y-64770000D03*
X110490000Y-68580000D03*
%TO.N,P5*%
X34290000Y-55880000D03*
X53340000Y-52070000D03*
X72390000Y-45720000D03*
X91440000Y-48260000D03*
X110490000Y-50800000D03*
%TO.N,P14*%
X163830000Y-110490000D03*
X110490000Y-88900000D03*
X152400000Y-107950000D03*
%TO.N,P16*%
X130810000Y-71120000D03*
%TO.N,P3*%
X152945500Y-68580000D03*
X149265499Y-77470000D03*
%TO.N,P0*%
X129540000Y-46990000D03*
%TO.N,GND*%
X153670000Y-49530000D03*
X154215500Y-54610000D03*
X152400000Y-77470000D03*
X154940000Y-81280000D03*
%TO.N,P1*%
X153670000Y-46990000D03*
X154761000Y-49530000D03*
X151130000Y-73550501D03*
%TO.N,P0*%
X140970000Y-81280000D03*
X140970000Y-81280000D03*
%TO.N,VCC*%
X155485500Y-74930000D03*
X148590000Y-50800000D03*
X153670000Y-45720000D03*
%TO.N,RST*%
X152400000Y-76200000D03*
X149860000Y-48260000D03*
%TD*%
D37*
%TO.N,GND*%
X144591000Y-47794249D02*
X144761577Y-47964826D01*
X144591000Y-46620001D02*
X144591000Y-47794249D01*
%TO.N,P4*%
X128764500Y-57150000D02*
X129809501Y-58195001D01*
X121920000Y-38100000D02*
X125730000Y-38100000D01*
X128270000Y-41910000D02*
X128270000Y-54115500D01*
X118870000Y-35050000D02*
X121920000Y-38100000D01*
X118115000Y-35050000D02*
X118870000Y-35050000D01*
X125730000Y-38100000D02*
X128270000Y-40640000D01*
X128270000Y-54115500D02*
X128764500Y-54610000D01*
X128270000Y-40640000D02*
X128270000Y-41910000D01*
X129809501Y-58195001D02*
X133814000Y-58195001D01*
X133814000Y-58195001D02*
X134939000Y-59320001D01*
%TO.N,outer_num*%
X28575000Y-37050001D02*
X27622500Y-36097501D01*
X27622500Y-26517501D02*
X28040000Y-26100001D01*
X27622500Y-36097501D02*
X27622500Y-26517501D01*
%TO.N,outer_top*%
X28574999Y-54050001D02*
X27622499Y-53097501D01*
X27622499Y-53097501D02*
X27622499Y-43517502D01*
X27622499Y-43517502D02*
X28040000Y-43100001D01*
%TO.N,outer_home*%
X28575001Y-71050000D02*
X27622501Y-70097500D01*
X27622501Y-70097500D02*
X27622501Y-60517501D01*
X27622501Y-60517501D02*
X28040001Y-60100001D01*
%TO.N,outer_bottom*%
X28575000Y-88050001D02*
X27622500Y-87097501D01*
X27622500Y-87097501D02*
X27622500Y-77517502D01*
X27622500Y-77517502D02*
X28040001Y-77100001D01*
%TO.N,pinky_num*%
X47575000Y-37050000D02*
X46622500Y-36097500D01*
X46622500Y-36097500D02*
X46622500Y-26517502D01*
X46622500Y-26517502D02*
X47040000Y-26100002D01*
%TO.N,pinky_top*%
X47575000Y-54050000D02*
X46622500Y-53097500D01*
X46622500Y-53097500D02*
X46622500Y-43517502D01*
X46622500Y-43517502D02*
X47040000Y-43100002D01*
%TO.N,pinky_home*%
X47575000Y-71050001D02*
X46622500Y-70097501D01*
X46622500Y-70097501D02*
X46622500Y-60517502D01*
X46622500Y-60517502D02*
X47040001Y-60100001D01*
%TO.N,pinky_bottom*%
X47575001Y-88050001D02*
X46622501Y-87097501D01*
X46622501Y-87097501D02*
X46622501Y-77517500D01*
X46622501Y-77517500D02*
X47040000Y-77100001D01*
%TO.N,ring_num*%
X66575000Y-32050000D02*
X65622500Y-31097500D01*
X65622500Y-31097500D02*
X65622500Y-21517501D01*
X65622500Y-21517501D02*
X66040000Y-21100001D01*
%TO.N,ring_top*%
X66575000Y-49050002D02*
X65622500Y-48097502D01*
X65622500Y-48097502D02*
X65622500Y-38517500D01*
X65622500Y-38517500D02*
X66040000Y-38100000D01*
%TO.N,ring_home*%
X66575000Y-66050002D02*
X65622500Y-65097502D01*
X65622500Y-65097502D02*
X65622500Y-55517500D01*
X65622500Y-55517500D02*
X66040000Y-55100000D01*
%TO.N,ring_bottom*%
X66575000Y-83050002D02*
X65622500Y-82097502D01*
X65622500Y-82097502D02*
X65622500Y-72517501D01*
X65622500Y-72517501D02*
X66040000Y-72100001D01*
%TO.N,middle_num*%
X85575001Y-27050000D02*
X84622501Y-26097500D01*
X84622501Y-26097500D02*
X84622501Y-16517499D01*
X84622501Y-16517499D02*
X85039999Y-16100001D01*
%TO.N,middle_top*%
X85575001Y-44050000D02*
X84622501Y-43097500D01*
X84622501Y-43097500D02*
X84622501Y-33517500D01*
X84622501Y-33517500D02*
X85040000Y-33100001D01*
%TO.N,middle_home*%
X85574999Y-61050001D02*
X84622499Y-60097501D01*
X84622499Y-60097501D02*
X84622499Y-50517502D01*
X84622499Y-50517502D02*
X85040000Y-50100001D01*
%TO.N,middle_bottom*%
X85575000Y-78050000D02*
X84622500Y-77097500D01*
X84622500Y-77097500D02*
X84622500Y-67517502D01*
X84622500Y-67517502D02*
X85040001Y-67100001D01*
%TO.N,index_num*%
X104575000Y-33050001D02*
X103622500Y-32097501D01*
X103622500Y-32097501D02*
X103622500Y-22517501D01*
X103622500Y-22517501D02*
X104040000Y-22100001D01*
%TO.N,index_top*%
X104574999Y-50050001D02*
X103622499Y-49097501D01*
X103622499Y-49097501D02*
X103622499Y-39517501D01*
X103622499Y-39517501D02*
X104040000Y-39100000D01*
%TO.N,index_home*%
X104575001Y-67050001D02*
X103622501Y-66097501D01*
X103622501Y-66097501D02*
X103622501Y-56517500D01*
X103622501Y-56517500D02*
X104040001Y-56100000D01*
%TO.N,index_bottom*%
X104575000Y-84050000D02*
X103622500Y-83097500D01*
X103622500Y-83097500D02*
X103622500Y-73517500D01*
X103622500Y-73517500D02*
X104040000Y-73100000D01*
%TO.N,P4*%
X20955000Y-37050001D02*
X23115000Y-37050001D01*
X23274999Y-39370000D02*
X20955000Y-37050001D01*
X34290000Y-39370000D02*
X23274999Y-39370000D01*
X39955000Y-37050000D02*
X42115000Y-37050000D01*
X50800000Y-39370000D02*
X40640000Y-39370000D01*
X39955000Y-38685000D02*
X39955000Y-37050000D01*
X53340000Y-36830000D02*
X50800000Y-39370000D01*
X40640000Y-39370000D02*
X39955000Y-38685000D01*
X58955000Y-32050000D02*
X61115000Y-32050000D01*
X72390000Y-30480000D02*
X68580000Y-34290000D01*
X68580000Y-34290000D02*
X61195000Y-34290000D01*
X61195000Y-34290000D02*
X58955000Y-32050000D01*
X77955001Y-27050000D02*
X80115001Y-27050000D01*
X91440000Y-30480000D02*
X81385001Y-30480000D01*
X81385001Y-30480000D02*
X77955001Y-27050000D01*
X99029999Y-33050001D02*
X99060000Y-33020000D01*
X96955000Y-33050001D02*
X99029999Y-33050001D01*
X110452499Y-34327501D02*
X98232500Y-34327501D01*
X98232500Y-34327501D02*
X96955000Y-33050001D01*
X110490000Y-34290000D02*
X110452499Y-34327501D01*
X110452499Y-34327501D02*
X100392500Y-34327501D01*
X118115000Y-35050000D02*
X115955000Y-35050000D01*
%TO.N,inner_num*%
X123575000Y-35050000D02*
X122622500Y-34097500D01*
X122622500Y-24517501D02*
X123040001Y-24100000D01*
X122622500Y-34097500D02*
X122622500Y-24517501D01*
%TO.N,inner_top*%
X123575000Y-52050000D02*
X122622500Y-51097500D01*
X122622500Y-41517500D02*
X123039999Y-41100001D01*
X122622500Y-51097500D02*
X122622500Y-41517500D01*
%TO.N,inner_home*%
X123575000Y-69050001D02*
X122622500Y-68097501D01*
X122622500Y-58517502D02*
X123040000Y-58100002D01*
X122622500Y-68097501D02*
X122622500Y-58517502D01*
X121415000Y-69050001D02*
X123575000Y-69050001D01*
%TO.N,inner_bottom*%
X123574999Y-79124999D02*
X121920000Y-77470000D01*
X121920000Y-76220002D02*
X123040001Y-75100001D01*
X123574999Y-86050002D02*
X123574999Y-79124999D01*
X121920000Y-77470000D02*
X121920000Y-76220002D01*
%TO.N,near1_home*%
X103575000Y-106050000D02*
X102622500Y-105097500D01*
X102622500Y-105097500D02*
X102622500Y-95517501D01*
X102622500Y-95517501D02*
X103040000Y-95100001D01*
%TO.N,near2_home*%
X122575001Y-106050000D02*
X121622501Y-105097500D01*
X121622501Y-105097500D02*
X121622501Y-95517500D01*
X121622501Y-95517500D02*
X122040000Y-95100001D01*
X122575001Y-106050000D02*
X120415001Y-106050000D01*
%TO.N,home_top*%
X146694905Y-100773966D02*
X145403933Y-100773966D01*
X145403933Y-100773966D02*
X144665169Y-100035202D01*
X149937289Y-90301350D02*
X147647405Y-92591234D01*
X147647405Y-92591234D02*
X147647405Y-93037405D01*
%TO.N,P3*%
X139534447Y-98167772D02*
X140825419Y-98167772D01*
X140825419Y-98167772D02*
X141564183Y-98906536D01*
%TO.N,far_home*%
X158369156Y-127084394D02*
X157838713Y-127084394D01*
X157838713Y-127084394D02*
X156599788Y-125845469D01*
X158369156Y-127084394D02*
X158369156Y-123650232D01*
X158369156Y-123650232D02*
X164211572Y-117807816D01*
%TO.N,home_home*%
X140880562Y-116748741D02*
X140880562Y-111849438D01*
X140880562Y-111849438D02*
X143116472Y-109613528D01*
X143116472Y-109613528D02*
X143116472Y-107282600D01*
X143116472Y-107282600D02*
X144122947Y-106276125D01*
%TO.N,P16*%
X114300000Y-20320000D02*
X125730000Y-20320000D01*
X111490001Y-26300000D02*
X111490001Y-23129999D01*
X111490001Y-23129999D02*
X114300000Y-20320000D01*
%TO.N,P14*%
X92490000Y-21810000D02*
X96520000Y-17780000D01*
X92490000Y-24300001D02*
X92490000Y-21810000D01*
X96520000Y-17780000D02*
X105410000Y-17780000D01*
X105410000Y-17780000D02*
X109040000Y-21410000D01*
X109040000Y-21410000D02*
X109040000Y-24300001D01*
%TO.N,P15*%
X73489999Y-18300001D02*
X73489999Y-16680001D01*
X73489999Y-16680001D02*
X76200000Y-13970000D01*
X76200000Y-13970000D02*
X85090000Y-13970000D01*
%TO.N,P18*%
X67310000Y-16510000D02*
X68580000Y-17780000D01*
X54490000Y-23300001D02*
X54490000Y-22980000D01*
X54490000Y-22980000D02*
X60960000Y-16510000D01*
X60960000Y-16510000D02*
X67310000Y-16510000D01*
%TO.N,P19*%
X35490000Y-28300002D02*
X35490000Y-25470000D01*
X35490000Y-25470000D02*
X40640000Y-20320000D01*
%TO.N,P20*%
X27940000Y-21590000D02*
X19050000Y-21590000D01*
X19050000Y-21590000D02*
X16490000Y-24150000D01*
X16490000Y-24150000D02*
X16490000Y-28300001D01*
%TO.N,P14*%
X153488497Y-103051503D02*
X157480000Y-99060000D01*
X151130000Y-66040000D02*
X150905001Y-65815001D01*
X148590000Y-86360000D02*
X147320000Y-85090000D01*
X148932098Y-72045110D02*
X151130000Y-69847208D01*
X153488497Y-112985143D02*
X153488497Y-103051503D01*
X148932098Y-73863402D02*
X148932098Y-72045110D01*
X157480000Y-99060000D02*
X157480000Y-90170000D01*
X152400000Y-86360000D02*
X148590000Y-86360000D01*
X147320000Y-85090000D02*
X147320000Y-81280000D01*
X147320000Y-75475500D02*
X148932098Y-73863402D01*
X145716000Y-65815001D02*
X144591000Y-66940001D01*
X151130000Y-69847208D02*
X151130000Y-66040000D01*
X150905001Y-65815001D02*
X145716000Y-65815001D01*
%TO.N,P18*%
X148590000Y-107950000D02*
X148590000Y-107840358D01*
X148590000Y-107840358D02*
X144889642Y-104140000D01*
X144889642Y-104140000D02*
X143510000Y-104140000D01*
X143510000Y-104140000D02*
X142651008Y-103281008D01*
X142651008Y-103281008D02*
X133629161Y-103281008D01*
X133629161Y-103281008D02*
X132517053Y-104393116D01*
%TO.N,RST*%
X152400000Y-83820000D02*
X150745002Y-83820000D01*
X150415001Y-77950001D02*
X150767931Y-77950001D01*
X150767931Y-77950001D02*
X151854500Y-79036570D01*
X150745002Y-83820000D02*
X150415001Y-84150001D01*
%TO.N,P15*%
X151770500Y-63500000D02*
X151545501Y-63275001D01*
X148618276Y-75475500D02*
X148618276Y-75215920D01*
X151770500Y-69843104D02*
X151770500Y-63500000D01*
X138331395Y-88418341D02*
X141659736Y-85090000D01*
X141659736Y-85090000D02*
X144780000Y-85090000D01*
X148618276Y-75215920D02*
X149382098Y-74452098D01*
X149382098Y-74452098D02*
X149382098Y-72231506D01*
X149382098Y-72231506D02*
X151770500Y-69843104D01*
X151545501Y-63275001D02*
X145716000Y-63275001D01*
X145716000Y-63275001D02*
X144591000Y-64400001D01*
%TO.N,P18*%
X149860000Y-74999501D02*
X149860000Y-72390000D01*
X149860000Y-72390000D02*
X152220500Y-70029500D01*
X152220500Y-70029500D02*
X152220500Y-61139500D01*
X152220500Y-61139500D02*
X152400000Y-60960000D01*
X152400000Y-60960000D02*
X152175001Y-60735001D01*
X152175001Y-60735001D02*
X146274999Y-60735001D01*
X146274999Y-60735001D02*
X146050000Y-60960000D01*
%TO.N,P1*%
X151130000Y-73550501D02*
X151130000Y-75563604D01*
X151130000Y-75563604D02*
X150493604Y-76200000D01*
X150493604Y-76200000D02*
X144780000Y-76200000D01*
X144780000Y-76200000D02*
X144605000Y-76025000D01*
X144605000Y-76025000D02*
X144605000Y-75450001D01*
%TO.N,P3*%
X149265499Y-77470000D02*
X149540001Y-77470000D01*
X149540001Y-77470000D02*
X149540001Y-76725001D01*
X149540001Y-76725001D02*
X150604999Y-76725001D01*
X150604999Y-76725001D02*
X152400000Y-74930000D01*
X152400000Y-74930000D02*
X152400000Y-72390000D01*
X152400000Y-72390000D02*
X152945500Y-71844500D01*
X152945500Y-71844500D02*
X152945500Y-68580000D01*
%TO.N,P18*%
X156660000Y-91890000D02*
X154940000Y-90170000D01*
X156660000Y-98610000D02*
X156660000Y-91890000D01*
X156210000Y-99060000D02*
X156660000Y-98610000D01*
X134075000Y-99605000D02*
X138430000Y-95250000D01*
X138430000Y-95250000D02*
X140041906Y-96861906D01*
X140041906Y-96861906D02*
X147661906Y-96861906D01*
X134075000Y-102835169D02*
X134075000Y-99605000D01*
X132517053Y-104393116D02*
X134075000Y-102835169D01*
X147661906Y-96861906D02*
X149860000Y-99060000D01*
X149860000Y-99060000D02*
X156210000Y-99060000D01*
%TO.N,P19*%
X133350000Y-95250000D02*
X132080000Y-93980000D01*
X133350000Y-100330000D02*
X133350000Y-95250000D01*
X129540000Y-88900000D02*
X129540000Y-69850000D01*
X129540000Y-69850000D02*
X130810000Y-68580000D01*
X112365001Y-99175002D02*
X116724998Y-99175002D01*
X110490000Y-97300001D02*
X112365001Y-99175002D01*
X116724998Y-99175002D02*
X118110000Y-97790000D01*
%TO.N,P20*%
X113030000Y-87630000D02*
X113030000Y-83820000D01*
X127000000Y-55880000D02*
X130810000Y-55880000D01*
X91490000Y-93930000D02*
X92710000Y-92710000D01*
X91490000Y-97300001D02*
X91490000Y-93930000D01*
%TO.N,P7*%
X115954999Y-86050002D02*
X118114999Y-86050002D01*
X134939000Y-66940001D02*
X133814000Y-65815001D01*
X133814000Y-65815001D02*
X131679009Y-65815001D01*
X131679009Y-65815001D02*
X127000000Y-70494010D01*
X117534997Y-87630000D02*
X115954999Y-86050002D01*
X127000000Y-70494010D02*
X127000000Y-87630000D01*
X127000000Y-87630000D02*
X117534997Y-87630000D01*
%TO.N,P6*%
X20955001Y-71050000D02*
X23115001Y-71050000D01*
X34290000Y-71120000D02*
X31750000Y-73660000D01*
X31750000Y-73660000D02*
X22860000Y-73660000D01*
X22860000Y-73660000D02*
X20955001Y-71755001D01*
X20955001Y-71755001D02*
X20955001Y-71050000D01*
X39955000Y-71050001D02*
X42115000Y-71050001D01*
X53340000Y-71120000D02*
X52132499Y-72327501D01*
X52132499Y-72327501D02*
X41232500Y-72327501D01*
X41232500Y-72327501D02*
X39955000Y-71050001D01*
X58955000Y-66050002D02*
X61115000Y-66050002D01*
X72390000Y-67310000D02*
X72372498Y-67327502D01*
X72372498Y-67327502D02*
X60232500Y-67327502D01*
X60232500Y-67327502D02*
X58955000Y-66050002D01*
X77954999Y-61050001D02*
X80114999Y-61050001D01*
X81674998Y-64770000D02*
X77954999Y-61050001D01*
X91440000Y-64770000D02*
X81674998Y-64770000D01*
X99115001Y-67050001D02*
X96955001Y-67050001D01*
X110490000Y-68580000D02*
X100645000Y-68580000D01*
X100645000Y-68580000D02*
X99115001Y-67050001D01*
X115955000Y-69050001D02*
X118115000Y-69050001D01*
X124460000Y-71120000D02*
X115570000Y-71120000D01*
X134939000Y-64400001D02*
X133814000Y-63275001D01*
X125730000Y-68580000D02*
X125730000Y-69850000D01*
X115955000Y-70735000D02*
X115955000Y-69050001D01*
X131034999Y-63275001D02*
X125730000Y-68580000D01*
X125730000Y-69850000D02*
X124460000Y-71120000D01*
X133814000Y-63275001D02*
X131034999Y-63275001D01*
X115570000Y-71120000D02*
X115955000Y-70735000D01*
%TO.N,P5*%
X20954999Y-54050001D02*
X23114999Y-54050001D01*
X22784998Y-55880000D02*
X20954999Y-54050001D01*
X34290000Y-55880000D02*
X22784998Y-55880000D01*
X39955000Y-54050000D02*
X42115000Y-54050000D01*
X53340000Y-52070000D02*
X49530000Y-55880000D01*
X49530000Y-55880000D02*
X41785000Y-55880000D01*
X41785000Y-55880000D02*
X39955000Y-54050000D01*
X58955000Y-49050002D02*
X61115000Y-49050002D01*
X72390000Y-45720000D02*
X67310000Y-50800000D01*
X67310000Y-50800000D02*
X60704998Y-50800000D01*
X60704998Y-50800000D02*
X58955000Y-49050002D01*
X80115001Y-44050000D02*
X77955001Y-44050000D01*
X91440000Y-48260000D02*
X85925001Y-48260000D01*
X85925001Y-48260000D02*
X81715001Y-44050000D01*
X81715001Y-44050000D02*
X80115001Y-44050000D01*
X99114999Y-50050001D02*
X96954999Y-50050001D01*
X109962499Y-51327501D02*
X100392499Y-51327501D01*
X100392499Y-51327501D02*
X99114999Y-50050001D01*
X110490000Y-50800000D02*
X109962499Y-51327501D01*
X118115000Y-52050000D02*
X115955000Y-52050000D01*
X129315001Y-60735001D02*
X124460000Y-55880000D01*
X133814000Y-60735001D02*
X129315001Y-60735001D01*
X124460000Y-55880000D02*
X121945000Y-55880000D01*
X134939000Y-61860001D02*
X133814000Y-60735001D01*
X121945000Y-55880000D02*
X118115000Y-52050000D01*
%TO.N,P14*%
X157480000Y-107950000D02*
X154940000Y-110490000D01*
X163830000Y-110490000D02*
X161290000Y-107950000D01*
X161290000Y-107950000D02*
X157480000Y-107950000D01*
X154940000Y-110490000D02*
X154940000Y-111760000D01*
X154940000Y-111760000D02*
X154713640Y-111760000D01*
X154713640Y-111760000D02*
X153488497Y-112985143D01*
X95250000Y-89720000D02*
X109670000Y-89720000D01*
X92490000Y-86960000D02*
X95250000Y-89720000D01*
X92490000Y-75300000D02*
X92490000Y-86960000D01*
X109670000Y-89720000D02*
X110490000Y-88900000D01*
X152400000Y-107950000D02*
X153488497Y-109038497D01*
X153488497Y-109038497D02*
X153488497Y-112985143D01*
X92490000Y-41300000D02*
X92490000Y-24300001D01*
X92490001Y-58300000D02*
X92490000Y-41300000D01*
X92490000Y-75300000D02*
X92490001Y-58300000D01*
%TO.N,P16*%
X130810000Y-72390000D02*
X130810000Y-71120000D01*
X132080000Y-73660000D02*
X130810000Y-72390000D01*
X132080000Y-88900000D02*
X132080000Y-74930000D01*
X111490001Y-77300001D02*
X111490001Y-91167209D01*
X111490001Y-91167209D02*
X112132792Y-91810000D01*
X112132792Y-91810000D02*
X129170000Y-91810000D01*
X129170000Y-91810000D02*
X132080000Y-88900000D01*
X132080000Y-74930000D02*
X132080000Y-73660000D01*
X111490000Y-60300002D02*
X111490001Y-77300001D01*
X111489999Y-43300001D02*
X111490000Y-60300002D01*
X111490001Y-26300000D02*
X111490001Y-43299999D01*
X111490001Y-43299999D02*
X111489999Y-43300001D01*
%TO.N,P15*%
X73490001Y-69300001D02*
X73490001Y-89920001D01*
X73490001Y-89920001D02*
X76200000Y-92630000D01*
X90803604Y-90170000D02*
X109856396Y-90170000D01*
X111946396Y-92260000D02*
X134489736Y-92260000D01*
X76200000Y-92630000D02*
X88343604Y-92630000D01*
X88343604Y-92630000D02*
X90803604Y-90170000D01*
X109856396Y-90170000D02*
X111946396Y-92260000D01*
X134489736Y-92260000D02*
X138331395Y-88418341D01*
X73490000Y-52300001D02*
X73490001Y-69300001D01*
X73490000Y-35300001D02*
X73490000Y-52300001D01*
X73489999Y-18300001D02*
X73490000Y-35300001D01*
%TO.N,P18*%
X54490000Y-74300001D02*
X54490000Y-90420000D01*
X110040000Y-90990000D02*
X111760000Y-92710000D01*
X111760000Y-92710000D02*
X128270000Y-92710000D01*
X54490000Y-90420000D02*
X57150000Y-93080000D01*
X57150000Y-93080000D02*
X88530000Y-93080000D01*
X88530000Y-93080000D02*
X90620000Y-90990000D01*
X90620000Y-90990000D02*
X110040000Y-90990000D01*
X128270000Y-92710000D02*
X132080000Y-96520000D01*
X132080000Y-96520000D02*
X132080000Y-101600000D01*
X132080000Y-101600000D02*
X132517053Y-102037053D01*
X132517053Y-102037053D02*
X132517053Y-104393116D01*
X54490000Y-40300000D02*
X54490000Y-23300001D01*
X54490000Y-57300000D02*
X54490000Y-40300000D01*
X54490000Y-74300001D02*
X54490000Y-57300000D01*
%TO.N,P19*%
X35490000Y-90920000D02*
X38100000Y-93530000D01*
X38100000Y-93530000D02*
X89086396Y-93530000D01*
X35490000Y-79300001D02*
X35490000Y-90920000D01*
X89086396Y-93530000D02*
X89218198Y-93661802D01*
X89218198Y-93661802D02*
X91440000Y-91440000D01*
X91440000Y-91440000D02*
X104629999Y-91440000D01*
X104629999Y-91440000D02*
X110490000Y-97300001D01*
X35490001Y-62300001D02*
X35490000Y-79300001D01*
X35490000Y-45300002D02*
X35490001Y-62300001D01*
X35490000Y-28300002D02*
X35490000Y-45300002D01*
%TO.N,P20*%
X16490000Y-45300001D02*
X16490000Y-28300001D01*
X16490001Y-62300001D02*
X16490000Y-45300001D01*
X16490001Y-62300001D02*
X16490001Y-79300001D01*
X17780000Y-93980000D02*
X16510000Y-95250000D01*
X91490000Y-97300001D02*
X91490000Y-96570000D01*
X88900000Y-93980000D02*
X17780000Y-93980000D01*
X91490000Y-96570000D02*
X88900000Y-93980000D01*
X16490001Y-95230001D02*
X16490001Y-79300001D01*
X16510000Y-95250000D02*
X16490001Y-95230001D01*
%TO.N,P0*%
X133814000Y-45495001D02*
X134939000Y-46620001D01*
X129540000Y-46990000D02*
X131034999Y-45495001D01*
X131034999Y-45495001D02*
X133814000Y-45495001D01*
%TO.N,GND*%
X153149999Y-50050001D02*
X153670000Y-49530000D01*
X151765000Y-50050001D02*
X153149999Y-50050001D01*
X154115001Y-76011397D02*
X153351802Y-75248198D01*
X154115001Y-77950001D02*
X154115001Y-76011397D01*
X153220000Y-73660000D02*
X153220000Y-72390000D01*
X154490000Y-71120000D02*
X154490000Y-54884500D01*
X153220000Y-72390000D02*
X154490000Y-71120000D01*
X154490000Y-54884500D02*
X154215500Y-54610000D01*
X153220000Y-75116396D02*
X153220000Y-73660000D01*
X153351802Y-75248198D02*
X153220000Y-75116396D01*
X154115001Y-84150001D02*
X154115001Y-82104999D01*
X152400000Y-77470000D02*
X153635000Y-77470000D01*
X154115001Y-82104999D02*
X154940000Y-81280000D01*
X153635000Y-77470000D02*
X154115001Y-77950001D01*
X142065000Y-75450001D02*
X144089999Y-77475000D01*
X152055002Y-80010000D02*
X154115001Y-77950001D01*
X144089999Y-77475000D02*
X147325000Y-77475000D01*
X147325000Y-77475000D02*
X149860000Y-80010000D01*
X149860000Y-80010000D02*
X152055002Y-80010000D01*
%TO.N,P1*%
X153670000Y-46990000D02*
X153670000Y-48439000D01*
X153670000Y-48439000D02*
X154761000Y-49530000D01*
%TO.N,Bplus*%
X154940000Y-72390000D02*
X154940000Y-53340000D01*
X154990001Y-76250001D02*
X153670000Y-74930000D01*
X153670000Y-74930000D02*
X153670000Y-73660000D01*
X153615381Y-80549621D02*
X154990001Y-79175001D01*
X143265000Y-80549621D02*
X153615381Y-80549621D01*
X154990001Y-79175001D02*
X154990001Y-76250001D01*
X153670000Y-73660000D02*
X154940000Y-72390000D01*
X154940000Y-53340000D02*
X154650002Y-53050002D01*
X154650002Y-53050002D02*
X151765000Y-53050002D01*
%TO.N,P0*%
X137245000Y-81280000D02*
X140970000Y-81280000D01*
X135790000Y-79825000D02*
X137245000Y-81280000D01*
X135790000Y-76795001D02*
X135790000Y-79825000D01*
X134445000Y-75450001D02*
X135790000Y-76795001D01*
%TO.N,P1*%
X144605000Y-75450001D02*
X143430000Y-74275001D01*
X133270000Y-77495000D02*
X134425000Y-78650000D01*
X143430000Y-74275001D02*
X133958299Y-74275001D01*
X133958299Y-74275001D02*
X133270000Y-74963300D01*
X133270000Y-74963300D02*
X133270000Y-77495000D01*
%TO.N,P2*%
X136985000Y-75450001D02*
X138160000Y-76625001D01*
X138160000Y-76625001D02*
X140020001Y-76625001D01*
X140020001Y-76625001D02*
X142045000Y-78650000D01*
%TO.N,VCC*%
X155485500Y-47535500D02*
X155485500Y-74930000D01*
X144591000Y-51700001D02*
X145716000Y-50575001D01*
X153670000Y-45720000D02*
X155485500Y-47535500D01*
X148365001Y-50575001D02*
X148590000Y-50800000D01*
X145716000Y-50575001D02*
X148365001Y-50575001D01*
%TO.N,RST*%
X144591000Y-49160001D02*
X145716000Y-48035001D01*
X150649999Y-77950001D02*
X150415001Y-77950001D01*
X145716000Y-48035001D02*
X149635001Y-48035001D01*
X149635001Y-48035001D02*
X149860000Y-48260000D01*
X152400000Y-76200000D02*
X150649999Y-77950001D01*
%TO.N,GND*%
X144591000Y-46620001D02*
X145716000Y-45495001D01*
X145716000Y-45495001D02*
X148210000Y-45495001D01*
X148210000Y-45495001D02*
X151765000Y-49050001D01*
X151765000Y-49050001D02*
X151765000Y-50050001D01*
%TO.N,RAW*%
X151130000Y-87630000D02*
X148590000Y-87630000D01*
X148031001Y-40640000D02*
X154940000Y-40640000D01*
X154940000Y-40640000D02*
X156210000Y-41910000D01*
X156210000Y-41910000D02*
X156210000Y-88900000D01*
X144591000Y-44080001D02*
X148031001Y-40640000D01*
X156210000Y-88900000D02*
X152400000Y-88900000D01*
X148590000Y-87630000D02*
X143265000Y-82305000D01*
X152400000Y-88900000D02*
X151130000Y-87630000D01*
X143265000Y-82305000D02*
X143265000Y-81550381D01*
%TD*%
M02*
