%TF.GenerationSoftware,KiCad,Pcbnew,(6.0.9-0)*%
%TF.CreationDate,2023-01-10T20:54:14-06:00*%
%TF.ProjectId,board,626f6172-642e-46b6-9963-61645f706362,v1.0.0*%
%TF.SameCoordinates,Original*%
%TF.FileFunction,Paste,Bot*%
%TF.FilePolarity,Positive*%
%FSLAX46Y46*%
G04 Gerber Fmt 4.6, Leading zero omitted, Abs format (unit mm)*
G04 Created by KiCad (PCBNEW (6.0.9-0)) date 2023-01-10 20:54:14*
%MOMM*%
%LPD*%
G01*
G04 APERTURE LIST*
G04 Aperture macros list*
%AMRotRect*
0 Rectangle, with rotation*
0 The origin of the aperture is its center*
0 $1 length*
0 $2 width*
0 $3 Rotation angle, in degrees counterclockwise*
0 Add horizontal line*
21,1,$1,$2,0,0,$3*%
G04 Aperture macros list end*
%ADD10R,2.600000X2.600000*%
%ADD11RotRect,2.600000X2.600000X340.000000*%
%ADD12RotRect,2.600000X2.600000X325.000000*%
%ADD13R,0.900000X1.200000*%
%ADD14RotRect,0.900000X1.200000X340.000000*%
%ADD15RotRect,0.900000X1.200000X325.000000*%
%ADD16R,1.500000X1.500000*%
%ADD17R,1.143000X0.635000*%
G04 APERTURE END LIST*
D10*
%TO.C,S1*%
X21490001Y-77100001D03*
X33040001Y-79300001D03*
%TD*%
%TO.C,S2*%
X21490001Y-60100001D03*
X33040001Y-62300001D03*
%TD*%
%TO.C,S3*%
X21490000Y-43100001D03*
X33040000Y-45300001D03*
%TD*%
%TO.C,S4*%
X21490000Y-26100001D03*
X33040000Y-28300001D03*
%TD*%
%TO.C,S5*%
X40490000Y-77100001D03*
X52040000Y-79300001D03*
%TD*%
%TO.C,S6*%
X40490001Y-60100001D03*
X52040001Y-62300001D03*
%TD*%
%TO.C,S7*%
X40490000Y-43100002D03*
X52040000Y-45300002D03*
%TD*%
%TO.C,S8*%
X40490000Y-26100002D03*
X52040000Y-28300002D03*
%TD*%
%TO.C,S9*%
X59490000Y-72100001D03*
X71040000Y-74300001D03*
%TD*%
%TO.C,S10*%
X59490000Y-55100000D03*
X71040000Y-57300000D03*
%TD*%
%TO.C,S11*%
X59490000Y-38100000D03*
X71040000Y-40300000D03*
%TD*%
%TO.C,S12*%
X59490000Y-21100001D03*
X71040000Y-23300001D03*
%TD*%
%TO.C,S13*%
X78490001Y-67100001D03*
X90040001Y-69300001D03*
%TD*%
%TO.C,S14*%
X78490000Y-50100001D03*
X90040000Y-52300001D03*
%TD*%
%TO.C,S15*%
X78490000Y-33100001D03*
X90040000Y-35300001D03*
%TD*%
%TO.C,S16*%
X78489999Y-16100001D03*
X90039999Y-18300001D03*
%TD*%
%TO.C,S17*%
X97490000Y-73100000D03*
X109040000Y-75300000D03*
%TD*%
%TO.C,S18*%
X97490001Y-56100000D03*
X109040001Y-58300000D03*
%TD*%
%TO.C,S19*%
X97490000Y-39100000D03*
X109040000Y-41300000D03*
%TD*%
%TO.C,S20*%
X97490000Y-22100001D03*
X109040000Y-24300001D03*
%TD*%
%TO.C,S21*%
X116490001Y-75100001D03*
X128040001Y-77300001D03*
%TD*%
%TO.C,S22*%
X116490000Y-58100002D03*
X128040000Y-60300002D03*
%TD*%
%TO.C,S23*%
X116489999Y-41100001D03*
X128039999Y-43300001D03*
%TD*%
%TO.C,S24*%
X116490001Y-24100000D03*
X128040001Y-26300000D03*
%TD*%
%TO.C,S25*%
X96490000Y-95100001D03*
X108040000Y-97300001D03*
%TD*%
%TO.C,S26*%
X115490000Y-95100001D03*
X127040000Y-97300001D03*
%TD*%
D11*
%TO.C,S27*%
X137967961Y-104035893D03*
X148068966Y-110053549D03*
%TD*%
%TO.C,S28*%
X143782303Y-88061118D03*
X153883308Y-94078774D03*
%TD*%
D12*
%TO.C,S29*%
X158846126Y-114050891D03*
X167045464Y-122477833D03*
%TD*%
D13*
%TO.C,D1*%
X26415000Y-88050001D03*
X23115000Y-88050001D03*
%TD*%
%TO.C,D2*%
X26415001Y-71050000D03*
X23115001Y-71050000D03*
%TD*%
%TO.C,D3*%
X26414999Y-54050001D03*
X23114999Y-54050001D03*
%TD*%
%TO.C,D4*%
X26415000Y-37050001D03*
X23115000Y-37050001D03*
%TD*%
%TO.C,D5*%
X45415001Y-88050001D03*
X42115001Y-88050001D03*
%TD*%
%TO.C,D6*%
X45415000Y-71050001D03*
X42115000Y-71050001D03*
%TD*%
%TO.C,D7*%
X45415000Y-54050000D03*
X42115000Y-54050000D03*
%TD*%
%TO.C,D8*%
X45415000Y-37050000D03*
X42115000Y-37050000D03*
%TD*%
%TO.C,D9*%
X64415000Y-83050002D03*
X61115000Y-83050002D03*
%TD*%
%TO.C,D10*%
X64415000Y-66050002D03*
X61115000Y-66050002D03*
%TD*%
%TO.C,D11*%
X64415000Y-49050002D03*
X61115000Y-49050002D03*
%TD*%
%TO.C,D12*%
X64415000Y-32050000D03*
X61115000Y-32050000D03*
%TD*%
%TO.C,D13*%
X83415000Y-78050000D03*
X80115000Y-78050000D03*
%TD*%
%TO.C,D14*%
X83414999Y-61050001D03*
X80114999Y-61050001D03*
%TD*%
%TO.C,D15*%
X83415001Y-44050000D03*
X80115001Y-44050000D03*
%TD*%
%TO.C,D16*%
X83415001Y-27050000D03*
X80115001Y-27050000D03*
%TD*%
%TO.C,D17*%
X102415000Y-84050000D03*
X99115000Y-84050000D03*
%TD*%
%TO.C,D18*%
X102415001Y-67050001D03*
X99115001Y-67050001D03*
%TD*%
%TO.C,D19*%
X102414999Y-50050001D03*
X99114999Y-50050001D03*
%TD*%
%TO.C,D20*%
X102415000Y-33050001D03*
X99115000Y-33050001D03*
%TD*%
%TO.C,D21*%
X121414999Y-86050002D03*
X118114999Y-86050002D03*
%TD*%
%TO.C,D22*%
X121415000Y-69050001D03*
X118115000Y-69050001D03*
%TD*%
%TO.C,D23*%
X121415000Y-52050000D03*
X118115000Y-52050000D03*
%TD*%
%TO.C,D24*%
X121415000Y-35050000D03*
X118115000Y-35050000D03*
%TD*%
%TO.C,D25*%
X101415000Y-106050000D03*
X98115000Y-106050000D03*
%TD*%
%TO.C,D26*%
X120415001Y-106050000D03*
X117115001Y-106050000D03*
%TD*%
D14*
%TO.C,D27*%
X138850826Y-116009977D03*
X135749840Y-114881311D03*
%TD*%
%TO.C,D28*%
X144665169Y-100035202D03*
X141564183Y-98906536D03*
%TD*%
D15*
%TO.C,D29*%
X156599788Y-125845469D03*
X153896586Y-123952667D03*
%TD*%
D16*
%TO.C,PAD1*%
X151765000Y-53050002D03*
%TD*%
%TO.C,PAD2*%
X151765000Y-50050001D03*
%TD*%
D17*
%TO.C,J1*%
X143265000Y-80549621D03*
X143265000Y-81550381D03*
%TD*%
M02*
