%TF.GenerationSoftware,KiCad,Pcbnew,(6.0.9-0)*%
%TF.CreationDate,2023-01-10T20:54:14-06:00*%
%TF.ProjectId,board,626f6172-642e-46b6-9963-61645f706362,v1.0.0*%
%TF.SameCoordinates,Original*%
%TF.FileFunction,Paste,Top*%
%TF.FilePolarity,Positive*%
%FSLAX46Y46*%
G04 Gerber Fmt 4.6, Leading zero omitted, Abs format (unit mm)*
G04 Created by KiCad (PCBNEW (6.0.9-0)) date 2023-01-10 20:54:14*
%MOMM*%
%LPD*%
G01*
G04 APERTURE LIST*
G04 Aperture macros list*
%AMRotRect*
0 Rectangle, with rotation*
0 The origin of the aperture is its center*
0 $1 length*
0 $2 width*
0 $3 Rotation angle, in degrees counterclockwise*
0 Add horizontal line*
21,1,$1,$2,0,0,$3*%
G04 Aperture macros list end*
%ADD10R,2.600000X2.600000*%
%ADD11RotRect,2.600000X2.600000X340.000000*%
%ADD12RotRect,2.600000X2.600000X325.000000*%
%ADD13R,0.900000X1.200000*%
%ADD14RotRect,0.900000X1.200000X340.000000*%
%ADD15RotRect,0.900000X1.200000X325.000000*%
%ADD16R,1.500000X1.500000*%
%ADD17R,1.143000X0.635000*%
%ADD18R,1.100000X1.800000*%
G04 APERTURE END LIST*
D10*
%TO.C,S1*%
X28040001Y-77100001D03*
X16490001Y-79300001D03*
%TD*%
%TO.C,S2*%
X28040001Y-60100001D03*
X16490001Y-62300001D03*
%TD*%
%TO.C,S3*%
X28040000Y-43100001D03*
X16490000Y-45300001D03*
%TD*%
%TO.C,S4*%
X28040000Y-26100001D03*
X16490000Y-28300001D03*
%TD*%
%TO.C,S5*%
X47040000Y-77100001D03*
X35490000Y-79300001D03*
%TD*%
%TO.C,S6*%
X47040001Y-60100001D03*
X35490001Y-62300001D03*
%TD*%
%TO.C,S7*%
X47040000Y-43100002D03*
X35490000Y-45300002D03*
%TD*%
%TO.C,S8*%
X47040000Y-26100002D03*
X35490000Y-28300002D03*
%TD*%
%TO.C,S9*%
X66040000Y-72100001D03*
X54490000Y-74300001D03*
%TD*%
%TO.C,S10*%
X66040000Y-55100000D03*
X54490000Y-57300000D03*
%TD*%
%TO.C,S11*%
X66040000Y-38100000D03*
X54490000Y-40300000D03*
%TD*%
%TO.C,S12*%
X66040000Y-21100001D03*
X54490000Y-23300001D03*
%TD*%
%TO.C,S13*%
X85040001Y-67100001D03*
X73490001Y-69300001D03*
%TD*%
%TO.C,S14*%
X85040000Y-50100001D03*
X73490000Y-52300001D03*
%TD*%
%TO.C,S15*%
X85040000Y-33100001D03*
X73490000Y-35300001D03*
%TD*%
%TO.C,S16*%
X85039999Y-16100001D03*
X73489999Y-18300001D03*
%TD*%
%TO.C,S17*%
X104040000Y-73100000D03*
X92490000Y-75300000D03*
%TD*%
%TO.C,S18*%
X104040001Y-56100000D03*
X92490001Y-58300000D03*
%TD*%
%TO.C,S19*%
X104040000Y-39100000D03*
X92490000Y-41300000D03*
%TD*%
%TO.C,S20*%
X104040000Y-22100001D03*
X92490000Y-24300001D03*
%TD*%
%TO.C,S21*%
X123040001Y-75100001D03*
X111490001Y-77300001D03*
%TD*%
%TO.C,S22*%
X123040000Y-58100002D03*
X111490000Y-60300002D03*
%TD*%
%TO.C,S23*%
X123039999Y-41100001D03*
X111489999Y-43300001D03*
%TD*%
%TO.C,S24*%
X123040001Y-24100000D03*
X111490001Y-26300000D03*
%TD*%
%TO.C,S25*%
X103040000Y-95100001D03*
X91490000Y-97300001D03*
%TD*%
%TO.C,S26*%
X122040000Y-95100001D03*
X110490000Y-97300001D03*
%TD*%
D11*
%TO.C,S27*%
X144122947Y-106276125D03*
X132517053Y-104393116D03*
%TD*%
%TO.C,S28*%
X149937289Y-90301350D03*
X138331395Y-88418341D03*
%TD*%
D12*
%TO.C,S29*%
X164211572Y-117807816D03*
X153488497Y-112985143D03*
%TD*%
D13*
%TO.C,D1*%
X23115000Y-88050001D03*
X26415000Y-88050001D03*
%TD*%
%TO.C,D2*%
X23115001Y-71050000D03*
X26415001Y-71050000D03*
%TD*%
%TO.C,D3*%
X23114999Y-54050001D03*
X26414999Y-54050001D03*
%TD*%
%TO.C,D4*%
X23115000Y-37050001D03*
X26415000Y-37050001D03*
%TD*%
%TO.C,D5*%
X42115001Y-88050001D03*
X45415001Y-88050001D03*
%TD*%
%TO.C,D6*%
X42115000Y-71050001D03*
X45415000Y-71050001D03*
%TD*%
%TO.C,D7*%
X42115000Y-54050000D03*
X45415000Y-54050000D03*
%TD*%
%TO.C,D8*%
X42115000Y-37050000D03*
X45415000Y-37050000D03*
%TD*%
%TO.C,D9*%
X61115000Y-83050002D03*
X64415000Y-83050002D03*
%TD*%
%TO.C,D10*%
X61115000Y-66050002D03*
X64415000Y-66050002D03*
%TD*%
%TO.C,D11*%
X61115000Y-49050002D03*
X64415000Y-49050002D03*
%TD*%
%TO.C,D12*%
X61115000Y-32050000D03*
X64415000Y-32050000D03*
%TD*%
%TO.C,D13*%
X80115000Y-78050000D03*
X83415000Y-78050000D03*
%TD*%
%TO.C,D14*%
X80114999Y-61050001D03*
X83414999Y-61050001D03*
%TD*%
%TO.C,D15*%
X80115001Y-44050000D03*
X83415001Y-44050000D03*
%TD*%
%TO.C,D16*%
X80115001Y-27050000D03*
X83415001Y-27050000D03*
%TD*%
%TO.C,D17*%
X99115000Y-84050000D03*
X102415000Y-84050000D03*
%TD*%
%TO.C,D18*%
X99115001Y-67050001D03*
X102415001Y-67050001D03*
%TD*%
%TO.C,D19*%
X99114999Y-50050001D03*
X102414999Y-50050001D03*
%TD*%
%TO.C,D20*%
X99115000Y-33050001D03*
X102415000Y-33050001D03*
%TD*%
%TO.C,D21*%
X118114999Y-86050002D03*
X121414999Y-86050002D03*
%TD*%
%TO.C,D22*%
X118115000Y-69050001D03*
X121415000Y-69050001D03*
%TD*%
%TO.C,D23*%
X118115000Y-52050000D03*
X121415000Y-52050000D03*
%TD*%
%TO.C,D24*%
X118115000Y-35050000D03*
X121415000Y-35050000D03*
%TD*%
%TO.C,D25*%
X98115000Y-106050000D03*
X101415000Y-106050000D03*
%TD*%
%TO.C,D26*%
X117115001Y-106050000D03*
X120415001Y-106050000D03*
%TD*%
D14*
%TO.C,D27*%
X135749840Y-114881311D03*
X138850826Y-116009977D03*
%TD*%
%TO.C,D28*%
X141564183Y-98906536D03*
X144665169Y-100035202D03*
%TD*%
D15*
%TO.C,D29*%
X153896586Y-123952667D03*
X156599788Y-125845469D03*
%TD*%
D16*
%TO.C,PAD1*%
X151765000Y-53050002D03*
%TD*%
%TO.C,PAD2*%
X151765000Y-50050001D03*
%TD*%
D17*
%TO.C,J2*%
X143265000Y-80549621D03*
X143265000Y-81550381D03*
%TD*%
D18*
%TO.C,B1*%
X154115001Y-77950001D03*
X154115001Y-84150001D03*
X150415001Y-77950001D03*
X150415001Y-84150001D03*
%TD*%
M02*
