M48
; DRILL file {KiCad (6.0.9-0)} date Tuesday, January 10, 2023 at 08:54:10 PM
; FORMAT={-:-/ absolute / inch / decimal}
; #@! TF.CreationDate,2023-01-10T20:54:10-06:00
; #@! TF.GenerationSoftware,Kicad,Pcbnew,(6.0.9-0)
; #@! TF.FileFunction,NonPlated,1,2,NPTH
FMAT,2
INCH
; #@! TA.AperFunction,NonPlated,NPTH,ComponentDrill
T1C0.0670
; #@! TA.AperFunction,NonPlated,NPTH,ComponentDrill
T2C0.1181
; #@! TA.AperFunction,NonPlated,NPTH,ComponentDrill
T3C0.1350
%
G90
G05
T1
X0.7585Y-1.2618
X0.7585Y-1.9311
X0.7585Y-2.6004
X0.7585Y-3.2697
X1.1915Y-1.2618
X1.1915Y-1.9311
X1.1915Y-2.6004
X1.1915Y-3.2697
X1.5065Y-1.2618
X1.5065Y-1.9311
X1.5065Y-3.2697
X1.5065Y-2.6004
X1.9396Y-1.2618
X1.9396Y-1.9311
X1.9396Y-3.2697
X1.9396Y-2.6004
X2.2545Y-1.065
X2.2545Y-1.7343
X2.2545Y-2.4035
X2.2545Y-3.0728
X2.6876Y-1.065
X2.6876Y-1.7343
X2.6876Y-2.4035
X2.6876Y-3.0728
X3.0026Y-0.8681
X3.0026Y-1.5374
X3.0026Y-2.2067
X3.0026Y-2.876
X3.4356Y-0.8681
X3.4356Y-1.5374
X3.4356Y-2.2067
X3.4356Y-2.876
X3.7112Y-3.9783
X3.7506Y-1.1043
X3.7506Y-1.7736
X3.7506Y-3.1122
X3.7506Y-2.4429
X4.1443Y-3.9783
X4.1837Y-1.1043
X4.1837Y-1.7736
X4.1837Y-3.1122
X4.1837Y-2.4429
X4.4593Y-3.9783
X4.4986Y-1.8524
X4.4986Y-2.5217
X4.4986Y-1.1831
X4.4986Y-3.1909
X4.8923Y-3.9783
X4.9317Y-1.8524
X4.9317Y-2.5217
X4.9317Y-1.1831
X4.9317Y-3.1909
X5.2694Y-4.2861
X5.4983Y-3.6571
X5.6763Y-4.4342
X5.9052Y-3.8053
X6.0477Y-4.6318
X6.4024Y-4.8802
T2
X0.7781Y-1.1142
X0.7781Y-1.7835
X0.7781Y-2.4528
X0.7781Y-3.122
X0.975Y-1.0276
X0.975Y-1.0276
X0.975Y-1.6969
X0.975Y-1.6969
X0.975Y-2.3661
X0.975Y-2.3661
X0.975Y-3.0354
X0.975Y-3.0354
X1.1719Y-1.1142
X1.1719Y-1.7835
X1.1719Y-2.4528
X1.1719Y-3.122
X1.5262Y-1.1142
X1.5262Y-1.7835
X1.5262Y-3.122
X1.5262Y-2.4528
X1.723Y-1.0276
X1.723Y-1.0276
X1.723Y-1.6969
X1.723Y-1.6969
X1.723Y-3.0354
X1.723Y-3.0354
X1.723Y-2.3661
X1.723Y-2.3661
X1.9199Y-1.1142
X1.9199Y-1.7835
X1.9199Y-3.122
X1.9199Y-2.4528
X2.2742Y-0.9173
X2.2742Y-1.5866
X2.2742Y-2.2559
X2.2742Y-2.9252
X2.4711Y-0.8307
X2.4711Y-0.8307
X2.4711Y-1.5
X2.4711Y-1.5
X2.4711Y-2.1693
X2.4711Y-2.1693
X2.4711Y-2.8386
X2.4711Y-2.8386
X2.6679Y-0.9173
X2.6679Y-1.5866
X2.6679Y-2.2559
X2.6679Y-2.9252
X3.0222Y-0.7205
X3.0222Y-1.3898
X3.0222Y-2.0591
X3.0222Y-2.7283
X3.2191Y-0.6339
X3.2191Y-0.6339
X3.2191Y-1.3031
X3.2191Y-1.3031
X3.2191Y-1.9724
X3.2191Y-1.9724
X3.2191Y-2.6417
X3.2191Y-2.6417
X3.4159Y-0.7205
X3.4159Y-1.3898
X3.4159Y-2.0591
X3.4159Y-2.7283
X3.7309Y-3.8307
X3.7703Y-0.9567
X3.7703Y-1.626
X3.7703Y-2.9646
X3.7703Y-2.2953
X3.9278Y-3.7441
X3.9278Y-3.7441
X3.9671Y-0.8701
X3.9671Y-0.8701
X3.9671Y-1.5394
X3.9671Y-1.5394
X3.9671Y-2.878
X3.9671Y-2.878
X3.9671Y-2.2087
X3.9671Y-2.2087
X4.1246Y-3.8307
X4.164Y-0.9567
X4.164Y-1.626
X4.164Y-2.9646
X4.164Y-2.2953
X4.4789Y-3.8307
X4.5183Y-1.7047
X4.5183Y-2.374
X4.5183Y-1.0354
X4.5183Y-3.0433
X4.6758Y-3.7441
X4.6758Y-3.7441
X4.7152Y-1.6181
X4.7152Y-1.6181
X4.7152Y-2.2874
X4.7152Y-2.2874
X4.7152Y-0.9488
X4.7152Y-0.9488
X4.7152Y-2.9567
X4.7152Y-2.9567
X4.8726Y-3.8307
X4.912Y-1.7047
X4.912Y-2.374
X4.912Y-1.0354
X4.912Y-3.0433
X5.3384Y-4.1541
X5.553Y-4.14
X5.553Y-4.14
X5.5673Y-3.5251
X5.7083Y-4.2887
X5.7819Y-3.5111
X5.7819Y-3.5111
X5.9372Y-3.6598
X6.1485Y-4.5222
X6.3594Y-4.5641
X6.3594Y-4.5641
X6.471Y-4.748
T3
X0.975Y-1.2618
X0.975Y-1.9311
X0.975Y-2.6004
X0.975Y-3.2697
X1.723Y-1.2618
X1.723Y-1.9311
X1.723Y-3.2697
X1.723Y-2.6004
X2.4711Y-1.065
X2.4711Y-1.7343
X2.4711Y-2.4035
X2.4711Y-3.0728
X3.2191Y-0.8681
X3.2191Y-1.5374
X3.2191Y-2.2067
X3.2191Y-2.876
X3.9278Y-3.9783
X3.9671Y-1.1043
X3.9671Y-1.7736
X3.9671Y-3.1122
X3.9671Y-2.4429
X4.6758Y-3.9783
X4.7152Y-1.8524
X4.7152Y-2.5217
X4.7152Y-1.1831
X4.7152Y-3.1909
X5.4729Y-4.3601
X5.7018Y-3.7312
X6.225Y-4.756
T0
M30
